<svg xmlns="http://www.w3.org/2000/svg" width="14" height="12" viewBox="0 0 14 12" fill="none"><g clip-path="url(#clip0_2036_2003)"><path d="M7.29289 0.292893C7.68342 -0.0976311 8.31643 -0.0976311 8.70696 0.292893L13.707 5.29289C14.0975 5.68342 14.0975 6.31643 13.707 6.70696L8.70696 11.707C8.31643 12.0975 7.68342 12.0975 7.29289 11.707C6.90237 11.3164 6.90237 10.6834 7.29289 10.2929L11.5859 5.99992L7.29289 1.70696C6.90237 1.31643 6.90237 0.683417 7.29289 0.292893Z" fill="#0A2540"></path><path d="M0.292893 0.292893C0.683417 -0.0976311 1.31643 -0.0976311 1.70696 0.292893L6.70696 5.29289C7.09748 5.68342 7.09748 6.31643 6.70696 6.70696L1.70696 11.707C1.31643 12.0975 0.683417 12.0975 0.292893 11.707C-0.0976311 11.3164 -0.0976311 10.6834 0.292893 10.2929L4.58586 5.99992L0.292893 1.70696C-0.0976311 1.31643 -0.0976311 0.683417 0.292893 0.292893Z" fill="#0A2540"></path></g><defs><clipPath id="clip0_2036_2003"><rect width="14" height="12" fill="white"></rect></clipPath></defs></svg>