<svg xmlns="http://www.w3.org/2000/svg" width="63" height="50" viewBox="0 0 63 50" fill="none"><path d="M63 7.07991V4.5008C63 2.01899 60.9881 0 58.5152 0H36.514C34.041 0 32.0292 2.01911 32.0292 4.5008V6.91914C29.1384 5.56178 25.9156 4.80161 22.5188 4.80161C10.1019 4.80173 0 14.9396 0 27.4008C0 39.862 10.1019 50 22.5188 50C26.1268 50 29.5384 49.1426 32.5645 47.6225C33.3332 49.0504 34.842 49.9999 36.514 49.9999H58.5152C60.9881 49.9999 63 47.9808 63 45.4992V42.9201C63 41.5007 62.3418 40.2327 61.3159 39.4072C62.3418 38.5817 63 37.3136 63 35.8944V33.3153C63 31.896 62.3418 30.6278 61.3159 29.8025C62.3418 28.9768 63 27.7089 63 26.2896V23.7106C63 22.2912 62.3418 21.0232 61.3159 20.1977C62.3418 19.372 63 18.1041 63 16.6847V14.1057C63 12.6864 62.3418 11.4183 61.3159 10.5928C62.3418 9.76733 63 8.49913 63 7.07991ZM1.96875 27.4008C1.96875 16.029 11.1874 6.77738 22.5188 6.77738C33.8502 6.77738 43.069 16.029 43.069 27.4008C43.069 38.7726 33.8502 48.0242 22.5188 48.0242C11.1874 48.0242 1.96875 38.7726 1.96875 27.4008ZM61.0312 45.4992C61.0312 46.8914 59.9025 48.0241 58.5152 48.0241H36.514C35.5656 48.0241 34.7112 47.4789 34.2844 46.6624C36.9015 45.0465 39.1658 42.9091 40.9325 40.3951H58.5152C59.9025 40.3951 61.0312 41.5278 61.0312 42.9201V45.4992ZM61.0312 35.8944C61.0312 37.2866 59.9025 38.4193 58.5152 38.4193H42.1735C43.4712 36.0971 44.373 33.5236 44.7844 30.7904H58.5152C59.9025 30.7904 61.0312 31.9231 61.0312 33.3153V35.8944ZM61.0312 26.2894C61.0312 27.6817 59.9025 28.8145 58.5152 28.8145H44.9923C45.0213 28.3467 45.0377 27.8756 45.0377 27.4008C45.0377 25.246 44.7353 23.1609 44.1714 21.1854H58.5152C59.9025 21.1854 61.0312 22.3181 61.0312 23.7104V26.2894ZM61.0312 16.6846C61.0312 18.0769 59.9025 19.2096 58.5152 19.2096H43.5063C42.3887 16.3354 40.7006 13.7459 38.5828 11.5806H58.5152C59.9025 11.5806 61.0312 12.7133 61.0312 14.1056V16.6846ZM61.0312 7.07991C61.0312 8.47209 59.9025 9.60482 58.5152 9.60482H36.514V9.70941C35.7826 9.12545 35.0148 8.58557 34.2138 8.09496C34.0728 7.776 33.998 7.4295 33.998 7.07991V4.5008C33.998 3.1085 35.1267 1.97577 36.514 1.97577H58.5152C59.9025 1.97577 61.0312 3.1085 61.0312 4.5008V7.07991ZM22.5188 10.9772C13.4949 10.9772 6.15357 18.3448 6.15357 27.4007C6.15357 36.4567 13.495 43.8244 22.5188 43.8244C31.5426 43.8244 38.884 36.4567 38.884 27.4007C38.884 18.3448 31.5427 10.9772 22.5188 10.9772ZM22.5188 41.8486C14.5806 41.8486 8.12232 35.3673 8.12232 27.4007C8.12232 19.4341 14.5806 12.953 22.5188 12.953C30.4571 12.953 36.9153 19.4341 36.9153 27.4007C36.9153 35.3673 30.4571 41.8486 22.5188 41.8486ZM27.3875 29.3422C27.387 29.3422 27.3864 29.3422 27.386 29.3422C25.2396 29.3431 23.4941 31.0961 23.4947 33.2502C23.4954 35.4038 25.2416 37.1554 27.3875 37.1554H27.3888C29.5352 37.1545 31.2809 35.4016 31.2801 33.2475C31.2797 32.204 30.8746 31.2229 30.1391 30.4855C29.4039 29.7481 28.4269 29.3422 27.3875 29.3422ZM27.3881 35.1798C27.3879 35.1798 27.3879 35.1798 27.3875 35.1798C26.327 35.1796 25.4639 34.3139 25.4636 33.2496C25.4632 32.185 26.326 31.3184 27.3868 31.318H27.3875C27.9012 31.318 28.3842 31.5187 28.7476 31.883C29.111 32.2475 29.3114 32.7324 29.3115 33.2482C29.3117 34.3128 28.4489 35.1794 27.3881 35.1798ZM17.6516 25.4595C19.798 25.4586 21.5437 23.7056 21.5429 21.5515C21.5426 20.5081 21.1374 19.5271 20.4018 18.7895C19.6666 18.0523 18.6896 17.6464 17.6503 17.6464C17.6498 17.6464 17.6494 17.6464 17.6489 17.6464C16.609 17.6468 15.6316 18.0534 14.8967 18.7914C14.1617 19.5296 13.7571 20.5107 13.7575 21.5543C13.7579 22.5977 14.1631 23.5787 14.8985 24.3163C15.6337 25.0536 16.6107 25.4595 17.65 25.4595H17.6516ZM15.7263 21.5535C15.7261 21.0377 15.9261 20.5528 16.2893 20.188C16.6525 19.8232 17.1355 19.6222 17.6495 19.6221H17.6502C18.1639 19.6221 18.6469 19.8227 19.0103 20.187C19.3737 20.5516 19.5741 21.0364 19.5742 21.5522C19.5745 22.6167 18.7117 23.4834 17.6508 23.4837C17.6506 23.4837 17.6503 23.4837 17.6501 23.4837C17.1364 23.4837 16.6534 23.2831 16.2902 22.9188C15.9267 22.5541 15.7265 22.0694 15.7263 21.5535ZM28.8568 20.3064L17.957 35.5408C17.7646 35.8095 17.4628 35.9527 17.1565 35.9527C16.9577 35.9527 16.757 35.8924 16.5833 35.7671C16.1417 35.449 16.0408 34.8317 16.3577 34.3885L27.2576 19.1541C27.5748 18.711 28.1899 18.6096 28.6314 18.9278C29.0729 19.2459 29.1739 19.8633 28.8568 20.3064Z" fill="#004225"></path></svg>