<svg xmlns="http://www.w3.org/2000/svg" width="49" height="50" viewBox="0 0 49 50" fill="none"><path fill-rule="evenodd" clip-rule="evenodd" d="M1.61345 17.3312C1.46835 16.9107 1.68844 16.451 2.10516 16.3044C11.7329 12.9199 20.2213 8.02283 27.366 1.73547L26.3655 1.79031C25.9246 1.81329 25.5485 1.47348 25.5245 1.02872C25.5006 0.583967 25.8384 0.203829 26.2789 0.179736L29.5391 0.00110796C29.7774 -0.0114928 30.0107 0.0838696 30.1722 0.262498C30.3338 0.441025 30.4074 0.683362 30.3729 0.922574L29.9025 4.18405C29.8447 4.58535 29.5032 4.87447 29.113 4.87447C29.0746 4.87447 29.036 4.87174 28.997 4.8659C28.5604 4.80178 28.258 4.39251 28.3215 3.95179L28.473 2.90129C21.162 9.34863 12.4778 14.3658 2.63053 17.8275C2.54365 17.8582 2.45488 17.8726 2.3678 17.8726C2.03736 17.8727 1.72819 17.6641 1.61345 17.3312ZM35.2501 27.5775C35.3682 27.5504 35.4909 27.5346 35.6151 27.5314C35.6346 27.5321 35.6542 27.5318 35.6733 27.5308C36.2364 27.5339 36.8155 27.7975 37.0842 28.4434C37.2549 28.8541 37.7238 29.0471 38.13 28.8747C38.5368 28.7023 38.7282 28.2297 38.5573 27.819C38.1248 26.7792 37.3028 26.2162 36.4348 26.0114V25.6662C36.4348 25.2208 36.0771 24.8597 35.6359 24.8597C35.1947 24.8597 34.837 25.2208 34.837 25.6662V26.0186C33.4983 26.3502 32.6436 27.4144 32.7047 28.6838C32.7494 29.6155 33.273 30.8043 35.5132 31.1757C36.9305 31.4106 37.1648 31.8773 37.2105 32.2578C37.2369 32.4766 37.193 32.639 37.0686 32.7844C36.8254 33.068 36.281 33.2679 35.7137 33.2817C35.6937 33.2823 35.6736 33.2823 35.6532 33.2824C35.6458 33.2822 35.6381 33.2822 35.631 33.2822C34.9926 33.2742 34.2205 32.9971 34.0303 32.2269C33.9236 31.7949 33.4905 31.5319 33.0619 31.6395C32.6338 31.7473 32.3732 32.185 32.48 32.6171C32.7576 33.7412 33.6591 34.5525 34.8371 34.8091V35.1475C34.8371 35.5928 35.1948 35.9539 35.636 35.9539C36.0772 35.9539 36.4349 35.5928 36.4349 35.1475V34.8224C37.1938 34.6792 37.8555 34.3316 38.2772 33.8393C38.6978 33.3484 38.8775 32.7343 38.7967 32.0633C38.6357 30.7241 37.618 29.8899 35.7722 29.584C34.3362 29.346 34.3103 28.8081 34.3007 28.6056C34.2639 27.8424 35.0851 27.6153 35.2501 27.5775ZM47.7654 38.6924L35.2443 46.4753C34.3625 47.0233 33.3979 47.3007 32.3998 47.3008C31.9064 47.3008 31.4048 47.233 30.9007 47.0967L22.1385 44.7266L21.1956 45.2761L21.6912 46.1602C22.1842 47.0392 21.8766 48.1592 21.0058 48.6568L19.0699 49.7627C18.7883 49.9237 18.4816 50 18.179 50C17.5459 50 16.9302 49.6656 16.5967 49.0708L10.9055 38.9194C10.4126 38.0404 10.7201 36.9204 11.5909 36.4229L13.5268 35.3168C14.3978 34.8192 15.5073 35.1299 16 36.0088L16.3911 36.7064L21.3611 33.8017C22.5782 33.0902 24.0166 32.4298 25.6164 32.7222C25.5815 32.4331 25.5621 32.143 25.5579 31.8522H0.798885C0.357701 31.8522 0 31.4911 0 31.0458V28.858C0 28.4126 0.357701 28.0515 0.798885 28.0515H1.99811V20.9633C1.99811 20.5179 2.35581 20.1568 2.797 20.1568H6.87361C7.3148 20.1568 7.6725 20.5179 7.6725 20.9633V28.0515H9.56775V16.8268C9.56775 16.3815 9.92546 16.0204 10.3666 16.0204H14.4433C14.8844 16.0204 15.2421 16.3815 15.2421 16.8268V28.0515H17.1374V12.5077C17.1374 12.0623 17.4951 11.7012 17.9363 11.7012H22.0128C22.454 11.7012 22.8117 12.0623 22.8117 12.5077V28.0516H24.7068V8.62222C24.7068 8.17686 25.0645 7.81578 25.5057 7.81578H29.5823C30.0235 7.81578 30.3812 8.17686 30.3812 8.62222V13.9507C30.4889 13.686 30.6484 13.4379 30.8611 13.2232C31.5658 12.5123 32.6717 12.3709 33.5286 12.87C33.7853 11.9054 34.6663 11.2161 35.6619 11.2159C36.6579 11.2159 37.5389 11.9056 37.7955 12.87C38.6527 12.3712 39.7583 12.5123 40.4628 13.2232C41.3238 14.0925 41.3238 15.5067 40.4628 16.3759L39.4536 17.3947C40.2912 17.6986 40.8919 18.5082 40.8919 19.4569C40.8919 20.1804 40.5424 20.8228 40.0054 21.2219C42.1044 23.5653 43.548 25.4762 44.5071 27.1762C45.6354 29.176 46.0086 31.3273 45.6035 33.366C47.4738 33.1583 48.3194 34.2326 48.5872 34.6841C49.3807 36.0216 48.989 37.9319 47.7654 38.6924ZM43.1188 27.9746C42.1316 26.2249 40.5713 24.2078 38.2257 21.6481H33.0984C30.7528 24.2078 29.1925 26.2249 28.2053 27.9746C27.2243 29.7135 26.9268 31.5346 27.3345 33.2672C27.4583 33.3122 27.5841 33.3582 27.7118 33.4047C29.2778 33.9762 31.2265 34.6875 33.1938 35.0456C33.2291 35.052 33.2641 35.0608 33.2984 35.0721C34.7444 35.5452 35.5808 37.0328 35.2023 38.4586C35.1662 38.5947 35.1225 38.7247 35.0718 38.8485C35.2771 38.7726 35.4781 38.6765 35.6771 38.5595L42.5766 34.5029C43.02 34.2422 43.4336 34.033 43.8192 33.8678C44.2895 32.4671 44.4832 30.393 43.1188 27.9746ZM32.0299 19.457C32.0299 19.7758 32.2869 20.0352 32.6026 20.0352H38.7214C39.0371 20.0352 39.2941 19.7759 39.2941 19.4571C39.2941 19.1384 39.0371 18.8791 38.7214 18.8791H32.6026C32.2869 18.879 32.0299 19.1384 32.0299 19.457ZM31.9911 15.2355L34.0028 17.2662H37.3213L39.333 15.2355C39.5712 14.9952 39.5712 14.6041 39.333 14.3639C39.1315 14.1605 38.811 14.1259 38.5703 14.2818C38.1446 14.5578 37.6321 14.604 37.1644 14.4084C36.6969 14.2129 36.367 13.8144 36.259 13.3153C36.198 13.0335 35.947 12.829 35.6621 12.829C35.3772 12.829 35.1263 13.0335 35.0652 13.3153C34.9574 13.8142 34.6274 14.2127 34.1598 14.4084C33.692 14.6038 33.1796 14.5575 32.7538 14.2817C32.5133 14.1258 32.1926 14.1606 31.991 14.3639C31.7529 14.6041 31.7529 14.9952 31.9911 15.2355ZM30.3813 15.6485V22.2903C30.6778 21.9445 30.9908 21.5883 31.3186 21.2222C30.7815 20.8231 30.4321 20.1806 30.4321 19.4571C30.4321 18.5084 31.0329 17.6988 31.8705 17.3949L30.8613 16.3762C30.6486 16.1613 30.4889 15.9132 30.3813 15.6485ZM26.3047 28.0516H26.3743C26.5061 27.758 26.6535 27.4661 26.817 27.1763C27.3267 26.2729 27.975 25.3089 28.7835 24.2534V9.42867H26.3047V28.0516ZM18.7353 28.0516H21.214V13.3141H18.7353V28.0516ZM11.1655 28.0516H13.6444V17.6334H11.1655V28.0516ZM3.59578 28.0516H6.07463V21.7698H3.59578V28.0516ZM1.59777 30.2395H25.6908C25.7251 30.0477 25.7664 29.856 25.814 29.6646H14.4453C14.4446 29.6646 14.444 29.6647 14.4433 29.6647C14.4426 29.6647 14.442 29.6646 14.4413 29.6646H10.3685C10.3678 29.6646 10.3672 29.6647 10.3665 29.6647C10.3658 29.6647 10.3652 29.6646 10.3645 29.6646H1.59777V30.2395ZM20.3009 46.9548L14.6096 36.8034C14.5702 36.7331 14.495 36.6931 14.4186 36.6931C14.3827 36.6931 14.3466 36.702 14.3138 36.7206L12.378 37.8266C12.3112 37.8648 12.2861 37.926 12.277 37.959C12.2679 37.9921 12.2582 38.0577 12.2959 38.125L17.9872 48.2763C18.0451 48.3795 18.1804 48.4174 18.2829 48.359L20.2188 47.253C20.2856 47.2148 20.3108 47.1536 20.3199 47.1206C20.3289 47.0875 20.3385 47.0221 20.3009 46.9548ZM47.2165 35.513C46.7087 34.657 45.239 34.8042 43.3809 35.8967L36.4813 39.9533C35.3837 40.5985 34.2045 40.8078 32.8773 40.5935L32.0188 40.4527C32.0132 40.4518 32.0079 40.4502 32.0024 40.4492C31.9973 40.4481 31.9922 40.4478 31.9871 40.4468C30.909 40.2245 29.9111 39.9367 28.8545 39.6321C28.3753 39.494 27.8798 39.3511 27.3758 39.2148C26.9496 39.0995 26.6967 38.6573 26.8109 38.2271C26.9252 37.7968 27.3633 37.5419 27.7893 37.6568C28.306 37.7966 28.8079 37.9413 29.2934 38.0812C30.3075 38.3737 31.2663 38.6497 32.2713 38.8588C33.0243 38.9446 33.492 38.6706 33.659 38.0413C33.8161 37.4494 33.47 36.8472 32.8508 36.6221C30.7722 36.2368 28.7757 35.5082 27.1687 34.9217C26.6104 34.7179 26.1282 34.5419 25.7115 34.4056C24.4754 34.0005 23.275 34.5471 22.1616 35.1978L17.178 38.1104L20.4086 43.8726L21.6262 43.1629C21.8097 43.0559 22.0278 43.0269 22.2324 43.0823L31.3142 45.5387C32.4188 45.8377 33.4591 45.6908 34.4067 45.1018L46.9276 37.3189C47.4107 37.0188 47.5592 36.0905 47.2165 35.513ZM13.9997 37.9278C13.622 37.9835 13.3606 38.3378 13.4158 38.7191C13.471 39.1004 13.8219 39.3643 14.1997 39.3085C14.5774 39.2528 14.8388 38.8985 14.7836 38.5172C14.7284 38.136 14.3774 37.872 13.9997 37.9278Z" fill="#004225"></path></svg>