<svg xmlns="http://www.w3.org/2000/svg" width="50" height="50" viewBox="0 0 50 50" fill="none"><g clip-path="url(#clip0_513_665)"><path d="M27.049 42.772H8.20303C7.66367 42.772 7.22656 43.2092 7.22656 43.7484C7.22656 44.2877 7.66377 44.7249 8.20303 44.7249H27.049C27.5884 44.7249 28.0255 44.2877 28.0255 43.7484C28.0255 43.2092 27.5883 42.772 27.049 42.772Z" fill="#004225"></path><path d="M27.0494 37.3037H12.2069C11.6676 37.3037 11.2305 37.7409 11.2305 38.2802C11.2305 38.8194 11.6677 39.2566 12.2069 39.2566H27.0494C27.5888 39.2566 28.0259 38.8194 28.0259 38.2802C28.0259 37.7409 27.5887 37.3037 27.0494 37.3037Z" fill="#004225"></path><path d="M27.0472 31.8354H8.10928C7.56992 31.8354 7.13281 32.2727 7.13281 32.8119C7.13281 33.3512 7.57002 33.7884 8.10928 33.7884H27.0472C27.5865 33.7884 28.0236 33.3512 28.0236 32.8119C28.0236 32.2727 27.5864 31.8354 27.0472 31.8354Z" fill="#004225"></path><path d="M8.79961 26.6531C8.61797 26.4714 8.36602 26.3669 8.10928 26.3669C7.85244 26.367 7.60049 26.4714 7.41895 26.6531C7.2373 26.8347 7.13281 27.0867 7.13281 27.3434C7.13281 27.6002 7.2373 27.8522 7.41895 28.0337C7.60059 28.2154 7.85254 28.3199 8.10928 28.3199C8.36611 28.3199 8.61807 28.2154 8.79961 28.0337C8.98125 27.8521 9.08574 27.6001 9.08574 27.3434C9.08574 27.0866 8.98125 26.8347 8.79961 26.6531Z" fill="#004225"></path><path d="M8.79961 37.5896C8.61797 37.408 8.36602 37.3035 8.10928 37.3035C7.85244 37.3035 7.60049 37.408 7.41895 37.5896C7.2373 37.7712 7.13281 38.0232 7.13281 38.2799C7.13281 38.5367 7.2373 38.7887 7.41895 38.9703C7.60059 39.1519 7.85254 39.2564 8.10928 39.2564C8.36611 39.2565 8.61807 39.1519 8.79961 38.9703C8.98125 38.7886 9.08574 38.5367 9.08574 38.2799C9.08574 38.0232 8.98125 37.7712 8.79961 37.5896Z" fill="#004225"></path><path d="M27.0494 26.3672H12.2069C11.6676 26.3672 11.2305 26.8044 11.2305 27.3437C11.2305 27.8829 11.6677 28.3201 12.2069 28.3201H27.0494C27.5888 28.3201 28.0259 27.8829 28.0259 27.3437C28.0259 26.8044 27.5887 26.3672 27.0494 26.3672Z" fill="#004225"></path><path d="M13.3288 11.7014H8.10928C7.56992 11.7014 7.13281 12.1386 7.13281 12.6779C7.13281 13.2171 7.57002 13.6543 8.10928 13.6543H9.74268V20.9579C9.74268 21.4971 10.1799 21.9343 10.7191 21.9343C11.2584 21.9343 11.6956 21.4971 11.6956 20.9579V13.6543H13.329C13.8684 13.6543 14.3055 13.2171 14.3055 12.6779C14.3053 12.1386 13.8682 11.7014 13.3288 11.7014Z" fill="#004225"></path><path d="M23.1256 20.577L19.6352 12.3591C19.4821 11.9985 19.1282 11.7644 18.7365 11.7644C18.3448 11.7644 17.9909 11.9986 17.8378 12.3591L14.3474 20.577C14.1367 21.0734 14.3682 21.6466 14.8646 21.8575C15.3609 22.0683 15.9343 21.8369 16.1451 21.3405L16.7692 19.8708H20.7039L21.328 21.3405C21.4859 21.7124 21.8473 21.9355 22.2271 21.9354C22.3545 21.9354 22.4839 21.9104 22.6085 21.8575C23.1049 21.6466 23.3364 21.0734 23.1256 20.577ZM17.5987 17.9179L18.7366 15.2387L19.8745 17.9179H17.5987Z" fill="#004225"></path><path d="M28.8308 16.82L31.1266 13.2C31.4155 12.7444 31.2804 12.1412 30.825 11.8523C30.3694 11.5635 29.7662 11.6984 29.4773 12.154L27.6745 14.9967L25.8716 12.154C25.5828 11.6984 24.9794 11.5636 24.524 11.8523C24.0685 12.1412 23.9335 12.7445 24.2223 13.2L26.5181 16.82L24.2223 20.44C23.9334 20.8955 24.0685 21.4988 24.524 21.7877C24.6863 21.8906 24.8672 21.9397 25.0461 21.9397C25.3695 21.9397 25.6857 21.7793 25.8716 21.486L27.6745 18.6434L29.4773 21.486C29.6632 21.7793 29.9796 21.9397 30.3028 21.9397C30.4817 21.9397 30.6627 21.8906 30.825 21.7877C31.2804 21.4988 31.4154 20.8955 31.1266 20.44L28.8308 16.82Z" fill="#004225"></path><path d="M49.079 37.5976L45.381 30.2792L47.1704 26.6217C47.5183 25.9109 47.3637 25.07 46.7857 24.5293C46.2079 23.9887 45.3587 23.8906 44.6724 24.2846L43.6637 24.8643C43.5706 24.9178 43.454 24.9121 43.3665 24.8498L42.8372 24.4722C42.0092 23.8817 40.8872 23.9264 40.1091 24.5811L39.943 24.7208C39.8439 24.8041 39.7026 24.8078 39.5994 24.7295L39.28 24.4876C38.45 23.8593 37.3114 23.8851 36.5107 24.5502L36.2052 24.8041C36.117 24.8774 35.9912 24.8881 35.8919 24.8311L34.9798 24.3069C34.2904 23.9107 33.4387 24.0113 32.8605 24.5573C32.2823 25.1033 32.1331 25.9479 32.4892 26.6588L34.3031 30.2808L30.5588 37.5756C28.9691 40.6726 29.4067 44.381 31.6736 47.0231C31.9936 47.3959 32.3425 47.7369 32.7151 48.0449H2.92939C2.39092 48.0449 1.95293 47.6068 1.95293 47.0684V2.93169C1.95293 2.39321 2.39102 1.95522 2.92939 1.95522H30.5637V7.89878C30.5637 9.52808 31.8893 10.8536 33.5185 10.8536H39.4496V20.0201C39.4496 20.5594 39.8868 20.9965 40.4261 20.9965C40.9653 20.9965 41.4025 20.5593 41.4025 20.0201V9.8771C41.4018 9.8772 41.401 9.8772 41.4002 9.87729C41.4002 9.62319 41.3033 9.37329 41.1165 9.18657L32.3116 0.381494C32.133 0.151123 31.8543 0.00219727 31.5402 0.00219727H2.92939C1.31416 0.00229492 0 1.31636 0 2.93169V47.0684C0 48.6837 1.31416 49.9978 2.92939 49.9978H41.445C43.9358 49.9978 46.2949 48.9135 47.9169 47.0233L47.9396 46.9968C50.191 44.373 50.6383 40.6834 49.079 37.5976ZM32.5167 3.34858L38.0688 8.90063H33.5186C32.9662 8.90063 32.5167 8.45112 32.5167 7.89878V3.34858ZM34.919 26.5244C35.7222 26.986 36.7405 26.8985 37.4534 26.3064L37.759 26.0524C37.858 25.9703 37.9987 25.9669 38.1012 26.0447L38.4206 26.2866C39.2556 26.9189 40.3985 26.8896 41.2 26.2154L41.3661 26.0757C41.4622 25.9949 41.6009 25.9892 41.7033 26.0623L42.2326 26.4398C42.9397 26.9443 43.8835 26.9905 44.6369 26.5578L45.1807 26.2453L43.6812 29.3098H36.0015L34.48 26.2721L34.919 26.5244ZM46.4576 45.7249L46.4351 45.7512L46.435 45.7514C45.1844 47.209 43.3656 48.0449 41.4451 48.0449H38.4732H38.146C36.2255 48.0449 34.4067 47.2089 33.1561 45.7514C31.4084 43.7145 31.0709 40.8553 32.2966 38.4676L35.9946 31.2627H43.6898L47.3359 38.4784C48.5381 40.8576 48.1934 43.702 46.4576 45.7249Z" fill="#004225"></path><path d="M39.8083 38.64C39.1622 38.64 38.6365 38.2034 38.6365 37.6669C38.6365 37.1304 39.1622 36.6938 39.8083 36.6938C40.4544 36.6938 40.9801 37.1304 40.9801 37.6669C40.9801 38.2063 41.4173 38.6434 41.9565 38.6434C42.4958 38.6434 42.933 38.2062 42.933 37.6669C42.933 36.3724 42.0304 35.2723 40.7838 34.8875C40.7737 34.3568 40.3412 33.9297 39.8083 33.9297C39.2753 33.9297 38.8428 34.3569 38.8328 34.8875C37.5862 35.2723 36.6836 36.3724 36.6836 37.6669C36.6836 39.2804 38.0854 40.593 39.8083 40.593C40.4544 40.593 40.9801 41.0296 40.9801 41.5661C40.9801 42.1026 40.4544 42.5393 39.8083 42.5393C39.1622 42.5393 38.6365 42.1026 38.6365 41.5661C38.6365 41.0268 38.1993 40.5896 37.6601 40.5896C37.1208 40.5896 36.6836 41.0269 36.6836 41.5661C36.6836 42.8603 37.5857 43.9602 38.8318 44.345V44.4014C38.8318 44.9407 39.269 45.3778 39.8083 45.3778C40.3476 45.3778 40.7848 44.9406 40.7848 44.4014V44.345C42.0309 43.9601 42.933 42.8602 42.933 41.5661C42.933 39.9527 41.5313 38.64 39.8083 38.64Z" fill="#004225"></path></g><defs><clipPath id="clip0_513_665"><rect width="50" height="50" fill="white"></rect></clipPath></defs></svg>