<svg xmlns="http://www.w3.org/2000/svg" width="49" height="55" viewBox="0 0 49 55" fill="none"><path fill-rule="evenodd" clip-rule="evenodd" d="M49 30.307V33.6488L44.94 35.2239C44.4252 37.4042 43.5676 39.4864 42.4017 41.3948L44.1688 45.4046L39.4797 50.1307L35.5024 48.3502C33.6088 49.5258 31.5419 50.3902 29.3782 50.909L27.8158 55H21.1844L19.6217 50.908C17.4584 50.3892 15.3925 49.5248 13.499 48.3498L9.52053 50.1307L4.83134 45.4047L6.59782 41.3961C5.43142 39.4875 4.57401 37.4043 4.05914 35.2237L0 33.6488V30.307H11.4923C11.4923 37.5473 17.3162 43.4171 24.5 43.4171C31.6838 43.4171 37.5077 37.5474 37.5077 30.307H49ZM8.07422 10.2574C10.3419 10.2574 12.1802 12.1102 12.1802 14.3957C12.1802 16.6813 10.3419 18.534 8.07422 18.534C5.80651 18.534 3.96822 16.6813 3.96822 14.3957C3.96822 12.1101 5.80651 10.2574 8.07422 10.2574ZM1.06598 26.9653H15.0824C15.6679 26.9653 16.0929 26.4162 15.9501 25.8438C15.0638 22.2913 11.8738 19.661 8.07422 19.661C4.27453 19.661 1.08465 22.2913 0.198389 25.8438C0.0554686 26.4162 0.480427 26.9653 1.06598 26.9653ZM21.3117 11.7664C20.9199 12.0659 20.3613 11.9886 20.0641 11.5938C19.7669 11.199 19.8436 10.636 20.2353 10.3364L28.9613 3.65852C29.2258 3.45632 29.5663 3.42588 29.8511 3.54885L29.8525 3.54581L38.0508 7.09895L43.8246 1.80486L42.8804 1.80835C42.3882 1.80835 41.9892 1.4062 41.9892 0.91015C41.9892 0.414104 42.3882 0.0119475 42.8804 0.0119475L46.1406 0C46.7038 0 47.1217 0.518475 47.0153 1.07031L46.3854 4.29422C46.2908 4.78249 45.8214 5.10101 45.337 5.00566C44.8525 4.9103 44.5365 4.43725 44.6311 3.94898L44.7387 3.4003L38.8582 8.79222C38.6072 9.04537 38.219 9.13295 37.8728 8.98304L29.6215 5.40702L21.3117 11.7664ZM28.122 12.0773H30.877C31.2466 12.0773 31.5479 12.3811 31.5479 12.7536V26.2891C31.5479 26.6616 31.2466 26.9653 30.877 26.9653H28.122C27.7524 26.9653 27.451 26.6616 27.451 26.2891V12.7536C27.4511 12.3812 27.7525 12.0773 28.122 12.0773ZM19.3961 19.0438H22.151C22.5206 19.0438 22.822 19.3476 22.822 19.7201V26.2891C22.822 26.6616 22.5206 26.9653 22.151 26.9653H19.3961C19.0265 26.9653 18.7251 26.6616 18.7251 26.2891V19.7201C18.7251 19.3476 19.0265 19.0438 19.3961 19.0438ZM45.5741 6.66095C45.2045 6.66095 44.9031 6.9647 44.9031 7.33722V26.2891C44.9031 26.6616 45.2045 26.9653 45.5741 26.9653H48.329C48.6986 26.9653 49 26.6616 49 26.2891V7.33722C49 6.9647 48.6986 6.66095 48.329 6.66095H45.5741ZM36.8481 14.8934H39.603C39.9726 14.8934 40.274 15.1972 40.274 15.5697V26.2892C40.274 26.6617 39.9726 26.9655 39.603 26.9655C38.6847 26.9655 37.7664 26.9655 36.8481 26.9655C36.4785 26.9655 36.1771 26.6617 36.1771 26.2892C36.1771 22.4987 36.1771 19.3603 36.1771 15.5697C36.1771 15.1972 36.4785 14.8934 36.8481 14.8934ZM13.2816 30.307C13.2816 36.5517 18.3041 41.6138 24.5 41.6138C30.6959 41.6138 35.7184 36.5517 35.7184 30.307H13.2816Z" fill="#004225"></path></svg>