<svg xmlns="http://www.w3.org/2000/svg" width="83" height="65" viewBox="0 0 83 65" fill="none"><path d="M35.4248 4.63465L32.4132 0C11.5761 14.0189 0 31.0521 0 45.071C0 58.6264 9.95733 65 18.407 65C29.057 65 36.5806 55.9606 36.5806 46.4614C36.5806 38.4676 31.4871 31.6305 24.6563 29.0796C22.6892 28.3826 20.8371 27.8042 20.8371 24.445C20.8371 20.1589 23.9635 13.789 35.4248 4.63465ZM81.3812 4.63465L78.3695 0C57.7622 14.0189 45.9563 31.0521 45.9563 45.071C45.9563 58.6264 56.1434 65 64.593 65C75.3579 65 83 55.9606 83 46.4614C83 38.4676 77.7917 31.6305 70.7274 29.0796C68.7604 28.3826 67.0231 27.8042 67.0231 24.445C67.0231 20.1589 70.2644 13.7853 81.3775 4.63094L81.3812 4.63465Z" fill="#0B3D2E"></path></svg>