<svg xmlns="http://www.w3.org/2000/svg" width="49" height="50" viewBox="0 0 49 50" fill="none"><path d="M13.6554 8.89863C13.0858 8.69727 12.3879 8.43125 12.0285 8.15449C12.0124 8.1207 11.9906 8.00312 12.0444 7.85771C12.0788 7.76484 12.1492 7.64512 12.2901 7.60273C12.7371 7.46807 13.0513 7.60762 13.2065 7.71084C13.2283 7.72939 13.2695 7.76729 13.2989 7.796C13.7235 8.21006 14.403 8.20205 14.8174 7.77803C15.2321 7.35381 15.2243 6.67363 14.8 6.25898C14.7243 6.18486 14.5775 6.04697 14.4456 5.95557C14.283 5.84277 13.9996 5.67383 13.6195 5.55156V5.54736C13.6195 4.9541 13.1385 4.47314 12.5452 4.47314C11.952 4.47314 11.471 4.9541 11.471 5.54736V5.61621C10.6668 5.93574 10.0761 6.65908 9.90802 7.55068C9.73879 8.44883 10.0396 9.3251 10.6929 9.8375C11.2901 10.3059 12.1255 10.6367 12.9394 10.9243C13.063 10.968 13.4389 11.1009 13.3578 11.5833C13.3147 11.8402 13.0934 12.276 12.538 12.2796C11.9072 12.2839 11.7743 12.2629 11.3226 11.9674C10.826 11.6425 10.1605 11.7819 9.83547 12.2783C9.51076 12.7748 9.65002 13.4405 10.1465 13.7653C10.6444 14.0909 11.0444 14.2616 11.4709 14.3479V14.3545C11.4709 14.9478 11.9519 15.4287 12.5451 15.4287C13.1384 15.4287 13.6194 14.9478 13.6194 14.3545V14.224C14.5744 13.852 15.2979 13.0021 15.4765 11.9394C15.704 10.5861 14.9722 9.36406 13.6554 8.89863Z" fill="#004225"></path><path d="M12.3376 0C6.85068 0 2.38672 4.46387 2.38672 9.95078C2.38672 15.4377 6.85068 19.9016 12.3375 19.9016C17.8243 19.9016 22.2883 15.4377 22.2883 9.95078C22.2883 4.46387 17.8244 0 12.3376 0ZM12.3376 17.7531C8.03535 17.7531 4.53525 14.253 4.53525 9.95078C4.53525 5.64854 8.03535 2.14844 12.3376 2.14844C16.6398 2.14844 20.1399 5.64854 20.1399 9.95078C20.1399 14.253 16.6397 17.7531 12.3376 17.7531Z" fill="#004225"></path><path d="M47.7613 47.8516H44.9525V19.0652C44.9525 17.3958 43.5945 16.0378 41.9252 16.0378H37.1823C35.513 16.0378 34.155 17.3958 34.155 19.0652V47.8516H29.8166V29.7933C29.8166 28.124 28.4586 26.766 26.7893 26.766H22.0464C20.3771 26.766 19.019 28.124 19.019 29.7933V47.8516H14.6806V36.2573C14.6806 34.5879 13.3226 33.2299 11.6532 33.2299H6.91035C5.24102 33.2299 3.88301 34.5879 3.88301 36.2573V47.8516H1.07422C0.480957 47.8516 0 48.3326 0 48.9258C0 49.5191 0.480957 50 1.07422 50H47.7612C48.3545 50 48.8354 49.5191 48.8354 48.9258C48.8354 48.3326 48.3546 47.8516 47.7613 47.8516ZM6.03145 47.8516V36.2573C6.03145 35.7726 6.42568 35.3784 6.91035 35.3784H11.6531C12.1378 35.3784 12.532 35.7726 12.532 36.2573V47.8516H6.03145ZM21.1674 47.8516V29.7933C21.1674 29.3086 21.5616 28.9144 22.0463 28.9144H26.7892C27.2738 28.9144 27.6681 29.3086 27.6681 29.7933V47.8516H21.1674ZM36.3033 47.8516V19.0652C36.3033 18.5805 36.6976 18.1863 37.1822 18.1863H41.9251C42.4098 18.1863 42.804 18.5805 42.804 19.0652V47.8516H36.3033Z" fill="#004225"></path><path d="M5.11342 27.2102C5.16635 27.2148 5.53491 27.2448 6.16215 27.2448C7.93344 27.2448 11.766 27.0055 16.3682 25.2805C20.0162 23.9132 23.3973 21.8893 26.4175 19.265C29.683 16.4276 32.5284 12.879 34.8966 8.69797L35.2702 9.87356C35.4154 10.3308 35.8381 10.6229 36.2936 10.6228C36.4014 10.6228 36.511 10.6065 36.6192 10.5721C37.1845 10.3925 37.4973 9.7885 37.3176 9.22307L36.1219 5.4594C36.0357 5.18782 35.8451 4.96174 35.592 4.83069C35.3391 4.69973 35.0443 4.67463 34.7728 4.76086L31.0091 5.95657C30.4437 6.13626 30.131 6.74016 30.3107 7.30559C30.4904 7.87102 31.0944 8.18362 31.6597 8.00413L33.0761 7.55413C30.8321 11.536 28.1424 14.9078 25.0627 17.5957C22.2506 20.0501 19.1053 21.9461 15.7142 23.231C9.94946 25.4153 5.3936 25.0773 5.30004 25.0698C4.70893 25.0187 4.18852 25.4556 4.13696 26.0464C4.0853 26.6374 4.52241 27.1584 5.11342 27.2102Z" fill="#004225"></path></svg>