<svg xmlns="http://www.w3.org/2000/svg" width="56" height="47" viewBox="0 0 56 47" fill="none"><g clip-path="url(#clip0_2036_2389)"><path d="M16.7595 43.8672C16.4157 43.6094 15.9861 43.3516 15.6423 43.1797C15.7282 42.4922 15.6423 41.7188 15.4704 40.9453C15.1267 39.6562 14.4392 38.4531 13.4939 37.3359C12.6345 38.0234 12.2048 39.2266 12.3767 40.5156C11.7751 39.9141 11.1736 39.3125 10.6579 38.7109C11.0017 38.1094 11.1736 37.3359 11.1736 36.5625C11.2595 35.2734 11.0017 33.9844 10.4001 32.6953C9.28293 33.125 8.59543 34.2422 8.42356 35.5312C7.99387 34.8438 7.65012 34.0703 7.30637 33.3828C7.82199 32.8672 8.25168 32.1797 8.50949 31.4063C8.93918 30.2031 9.02512 28.9141 8.76731 27.5391C7.56418 27.7109 6.53293 28.5703 6.01731 29.8594C5.75949 29 5.58762 28.2266 5.50168 27.3672C6.18918 27.0234 6.79074 26.4219 7.22043 25.7344C7.90793 24.7031 8.42356 23.4141 8.50949 22.0391C7.22043 21.8672 5.93137 22.5547 5.15793 23.7578C5.15793 22.8984 5.24387 21.9531 5.32981 21.0938C6.10324 20.9219 6.87668 20.4922 7.56418 19.9766C8.50949 19.2031 9.28293 18.0859 9.79856 16.7969C8.59543 16.2813 7.13449 16.625 6.01731 17.6563C6.27512 16.7969 6.53293 15.8516 6.87668 14.9922C7.73606 15.0781 8.59543 14.8203 9.36887 14.4766C10.4861 13.9609 11.5173 13.1016 12.3767 11.8984C11.3454 11.0391 9.79856 11.0391 8.42356 11.8125C8.93918 10.9531 9.45481 10.1797 10.0564 9.40625C10.8298 9.75 11.7751 9.75 12.7204 9.57812C14.0095 9.32031 15.2986 8.80469 16.5017 7.85938C15.7282 6.74219 14.1814 6.3125 12.5486 6.74219C13.7517 5.625 15.0407 4.59375 16.5876 3.73437C17.0173 3.47656 17.1892 2.96094 16.9314 2.53125C16.6736 2.10156 16.072 1.92969 15.6423 2.1875C14.0095 3.13281 12.5486 4.25 11.2595 5.45312C11.947 3.73437 12.0329 2.1875 11.2595 0.984375C9.71262 2.01562 8.59543 3.73437 8.33762 5.19531C8.07981 6.3125 8.25168 7.25781 8.76731 8.03125C8.07981 8.89062 7.47824 9.83594 6.96262 10.6953C7.13449 8.89063 6.70481 7.34375 5.67356 6.48437C4.47043 8.11719 3.95481 10.0078 4.12668 11.4688C4.21262 12.5859 4.64231 13.4453 5.32981 14.0469C4.90012 15.0781 4.55637 16.0234 4.29856 17.0547C3.95481 15.3359 3.18137 13.9609 1.89231 13.3594C1.20481 15.25 1.20481 17.1406 1.72043 18.5156C2.15012 19.5469 2.75168 20.2344 3.61106 20.6641C3.43918 21.6953 3.43918 22.7266 3.43918 23.7578C2.66574 22.2109 1.54856 21.1797 0.173557 21.0078C0.00168155 22.9844 0.517307 24.7891 1.37668 25.9922C1.97824 26.8516 2.83762 27.3672 3.69699 27.5391C3.78293 28.5703 4.04074 29.5156 4.21262 30.4609C3.09543 29.2578 1.80637 28.5703 0.431369 28.7422C0.775119 30.7188 1.72043 32.3516 2.92356 33.2109C3.69699 33.8984 4.64231 34.1562 5.41574 34.0703C5.75949 34.9297 6.18918 35.875 6.61887 36.6484C5.15793 36.0469 3.78293 35.7031 2.57981 36.2188C3.43918 38.0234 4.81418 39.3984 6.18918 40C7.13449 40.4297 7.99387 40.4297 8.76731 40.2578C9.36887 41.0312 9.97043 41.7188 10.6579 42.4062C9.19699 42.0625 7.90793 42.1484 6.96262 42.9219C8.33762 44.4688 10.1423 45.4141 11.6892 45.6719C12.6345 45.8438 13.4939 45.6719 14.1814 45.3281C14.5251 45.5859 14.9548 45.8438 15.2986 46.1016C15.9861 46.5312 16.8454 46.2734 17.1892 45.5859C17.5329 44.9844 17.3611 44.2109 16.7595 43.8672Z" fill="#004225"></path><path d="M50.9637 30.4609C51.2215 29.5156 51.3934 28.4844 51.4793 27.5391C52.3387 27.3672 53.1121 26.8516 53.7996 25.9922C54.659 24.7891 55.1746 22.9844 55.0027 21.0078C53.6277 21.1797 52.5105 22.2969 51.7371 23.7578C51.7371 22.7266 51.6512 21.6953 51.5652 20.6641C52.3387 20.3203 53.0262 19.5469 53.4559 18.5156C53.9715 17.1406 54.0574 15.25 53.284 13.3594C51.9949 13.9609 51.2215 15.3359 50.8777 17.0547C50.6199 16.0234 50.2762 14.9922 49.8465 14.0469C50.534 13.4453 50.9637 12.5859 51.0496 11.4688C51.2215 10.0078 50.7059 8.11719 49.5027 6.48437C48.3855 7.34375 48.0418 8.97656 48.2137 10.6953C47.5262 9.75 46.9246 8.89062 46.2371 8.03125C46.7527 7.34375 46.9246 6.3125 46.6668 5.19531C46.409 3.73437 45.2918 2.01562 43.573 0.640625C42.7996 1.75781 42.8855 3.39062 43.573 5.10938C42.284 3.90625 40.823 2.78906 39.1902 1.84375C38.7605 1.58594 38.159 1.75781 37.9012 2.1875C37.6434 2.61719 37.8152 3.13281 38.2449 3.39062C39.7059 4.25 41.0809 5.28125 42.284 6.39844C40.6512 5.96875 39.1043 6.39844 38.3309 7.51562C39.534 8.46094 40.823 8.97656 42.1121 9.23437C43.0574 9.40625 44.0027 9.40625 44.7762 9.0625C45.3777 9.83594 45.9793 10.6953 46.409 11.4688C45.034 10.6953 43.4871 10.6953 42.4559 11.5547C43.3152 12.6719 44.3465 13.6172 45.4637 14.1328C46.323 14.5625 47.1824 14.7344 47.9559 14.6484C48.2996 15.5078 48.5574 16.3672 48.8152 17.3125C47.698 16.2812 46.2371 15.9375 45.034 16.4531C45.5496 17.7422 46.323 18.8594 47.2684 19.6328C47.9559 20.2344 48.7293 20.5781 49.5027 20.75C49.5887 21.6094 49.6746 22.5547 49.6746 23.4141C48.9012 22.2109 47.6121 21.5234 46.323 21.6953C46.4949 23.0703 46.9246 24.3594 47.6121 25.3906C48.0418 26.0781 48.6434 26.6797 49.3309 27.0234C49.159 27.8828 48.9871 28.6562 48.8152 29.5156C48.2996 28.2266 47.3543 27.2812 46.0652 27.1953C45.8074 28.5703 45.9793 29.9453 46.323 31.0625C46.5809 31.8359 46.9246 32.5234 47.5262 33.0391C47.1824 33.8125 46.8387 34.5 46.409 35.1875C46.2371 33.8984 45.5496 32.7812 44.4324 32.3516C43.8309 33.6406 43.573 34.9297 43.659 36.2187C43.659 36.9922 43.8309 37.7656 44.1746 38.3672C43.659 38.9687 43.0574 39.5703 42.4559 40.1719C42.6277 38.8828 42.284 37.6797 41.3387 36.9922C40.3934 38.1094 39.7059 39.3125 39.3621 40.6016C39.1902 41.375 39.1043 42.1484 39.1902 42.8359C38.8465 43.0937 38.5027 43.3516 38.073 43.5234C37.4715 43.8672 37.2996 44.6406 37.5574 45.2422C37.9012 45.9297 38.7605 46.1875 39.448 45.7578C39.8777 45.5 40.2215 45.2422 40.5652 44.9844C41.2527 45.3281 42.1121 45.5 43.0574 45.3281C44.6043 45.0703 46.409 44.125 47.784 42.5781C46.8387 41.8047 45.5496 41.7187 44.0887 42.0625C44.7762 41.375 45.3777 40.6875 45.9793 39.9141C46.7527 40.0859 47.6121 40 48.5574 39.6562C49.9324 39.0547 51.3074 37.7656 52.1668 35.875C50.9637 35.3594 49.5887 35.7031 48.2996 36.4766C48.7293 35.6172 49.159 34.7578 49.5027 33.8984C50.3621 33.8984 51.2215 33.6406 51.9949 33.0391C53.1121 32.0937 54.1434 30.5469 54.4871 28.5703C53.3699 28.5703 52.0809 29.3437 50.9637 30.4609Z" fill="#004225"></path><path d="M38.0713 38.3672L36.2666 27.9688L43.8291 20.5781C44.0869 20.3203 44.1729 19.9766 44.0869 19.7188C44.001 19.375 43.7432 19.2031 43.3994 19.1172L32.915 17.5703L28.2744 8.11719C28.1025 7.85938 27.8447 7.60156 27.501 7.60156C27.1572 7.60156 26.8994 7.77344 26.7275 8.11719L22.0869 17.5703L11.6025 19.1172C11.2588 19.2031 11.001 19.375 10.915 19.7188C10.8291 20.0625 10.915 20.4062 11.1729 20.5781L18.7354 27.9688L16.9307 38.3672C16.8447 38.7109 17.0166 39.0547 17.2744 39.2266C17.5322 39.3984 17.876 39.4844 18.2197 39.3125L27.501 34.3281L36.8682 39.2266C36.9541 39.3125 37.126 39.3125 37.2979 39.3125C37.4697 39.3125 37.6416 39.2266 37.8135 39.1406C37.9854 38.9688 38.1572 38.7109 38.0713 38.3672Z" fill="#004225"></path></g><defs><clipPath id="clip0_2036_2389"><rect width="56" height="47" fill="white"></rect></clipPath></defs></svg>