<svg xmlns="http://www.w3.org/2000/svg" width="56" height="50" viewBox="0 0 56 50" fill="none"><path d="M25.4331 27.144C23.6327 27.144 22.168 28.6088 22.168 30.4092V35.851C22.2215 37.2936 24.2917 37.2925 24.3447 35.851V34.2184H26.5215V35.851C26.575 37.2936 28.6452 37.2925 28.6982 35.851V30.4092C28.6982 28.6088 27.2335 27.144 25.4331 27.144ZM26.5215 32.0416H24.3447V30.4092C24.3996 28.967 26.4671 28.9681 26.5215 30.4092V32.0416Z" fill="white"></path><path d="M34.2022 32.0415L35.8635 28.7189C36.1324 28.1814 35.9145 27.5276 35.3768 27.2588C34.8391 26.9898 34.1854 27.2077 33.9165 27.7456L32.9854 29.6079L32.0543 27.7456C31.7855 27.2079 31.1319 26.9902 30.5941 27.2588C30.0564 27.5276 29.8385 28.1814 30.1073 28.7189L31.7686 32.0415L30.1073 35.3642C29.8385 35.9018 30.0564 36.5556 30.5941 36.8244C31.1202 37.0907 31.7844 36.8807 32.0543 36.3376L32.9856 34.4752L33.9168 36.3376C34.1867 36.8807 34.8508 37.0906 35.377 36.8244C35.9147 36.5556 36.1326 35.9018 35.8638 35.3642L34.2022 32.0415Z" fill="white"></path><path d="M20.0744 27.144H16.2651C14.8226 27.1976 14.8236 29.2678 16.2651 29.3208H17.0814V35.8509C17.1349 37.2935 19.2051 37.2924 19.2581 35.8509V29.3208H20.0744C21.5169 29.2672 21.5158 27.197 20.0744 27.144Z" fill="white"></path><path d="M51.8021 25.184C51.0426 25.184 50.3192 25.3925 49.7041 25.7807C48.5615 20.0064 44.1351 14.9429 38.5919 12.9573C39.287 -3.34064 15.9954 -4.74181 14.7006 11.4808L12.4263 10.169C10.6721 8.99028 8.21535 10.3187 8.24289 12.434V17.1611C6.51847 18.9249 5.1801 21.0392 4.33215 23.3349H3.26511C1.46473 23.3349 0 24.7995 0 26.5999V32.0419C0 33.8423 1.46473 35.307 3.26511 35.307H4.33237C5.74116 39.1166 8.49768 42.3821 12.0318 44.4212L12.2591 48.9659C12.288 49.5452 12.7662 50 13.3462 50H19.6859C20.2659 50 20.744 49.5452 20.773 48.9659L20.8832 46.7607C24.4767 46.904 28.8664 46.9042 32.4471 46.7616L32.5573 48.9659C32.5863 49.5452 33.0644 50 33.6444 50H39.9841C40.5641 50 41.0423 49.5452 41.0712 48.9659L41.2985 44.4207C46.7219 41.3009 50.0651 35.5717 50.0651 29.3207C50.0651 28.6819 50.2543 28.1627 50.6125 27.8193C51.6714 26.8789 53.5608 27.3583 53.548 29.3207C53.548 29.9218 54.0352 30.4091 54.6363 30.4091C55.2374 30.4091 55.7247 29.9217 55.7247 29.3207C55.7248 26.605 53.7515 25.184 51.8021 25.184ZM26.6651 2.11145C34.3765 2.01088 39.1799 11.0075 34.8099 17.3486H27.7535V16.8329C28.4158 16.5194 28.9685 15.9691 29.2704 15.2404C29.9158 13.682 29.1731 11.889 27.6149 11.2435L26.5485 10.8019C26.0991 10.6157 25.8848 10.0985 26.0711 9.64896C26.2571 9.19957 26.7741 8.98549 27.2238 9.17149L27.7568 9.39232C29.1073 9.89809 29.9015 7.97799 28.5899 7.38134L28.0567 7.1604C27.9564 7.11894 27.8553 7.08313 27.7535 7.05298V6.58629C27.6999 5.14376 25.6297 5.14485 25.5767 6.58629V7.22353C23.2044 8.3255 23.2717 11.8105 25.7154 12.8129L26.7819 13.2546C27.2313 13.4407 27.4453 13.9579 27.2592 14.4074C27.0731 14.8568 26.5557 15.0707 26.1065 14.8849L25.5733 14.664C25.018 14.4344 24.3814 14.6978 24.1513 15.253C23.9212 15.8084 24.185 16.445 24.7403 16.6749L25.2736 16.8959C25.3738 16.9373 25.475 16.973 25.5767 17.0033V17.3485H18.5204C14.1493 11.0065 18.9558 2.01023 26.6651 2.11145ZM39.7323 42.799C39.3933 42.9785 39.1737 43.3233 39.1545 43.7066L38.9487 47.823H34.6795L34.5669 45.571C34.5524 45.2826 34.424 45.0116 34.2097 44.8179C33.9955 44.6243 33.7135 44.5231 33.4246 44.5383C29.3914 44.7433 23.9581 44.7428 19.9052 44.5376C19.6168 44.522 19.3344 44.6236 19.1203 44.8172C18.9061 45.0109 18.7777 45.2818 18.7632 45.5702L18.6505 47.823H14.3814L14.1756 43.7077C14.1564 43.3245 13.9369 42.9797 13.5978 42.8001C10.064 40.9293 7.34803 37.6816 6.14669 33.8897C6.00335 33.4375 5.58356 33.1301 5.10914 33.1301H3.26511C2.66499 33.1301 2.17674 32.6419 2.17674 32.0418V26.5997C2.17674 25.9996 2.66499 25.5114 3.26511 25.5114H5.10925C5.58367 25.5114 6.00346 25.2041 6.14679 24.7517C6.90517 22.3582 8.26836 20.1598 10.089 18.3941C10.3003 18.1891 10.4196 17.9072 10.4196 17.6128V12.4338C10.409 12.0117 10.9234 11.7626 11.2439 11.9965C11.2652 12.0109 11.2871 12.0246 11.3094 12.0374L14.8941 14.105C15.1035 15.2344 15.4746 16.3242 15.9992 17.3485H15.7814C14.3389 17.4021 14.3399 19.4723 15.7814 19.5253H37.5488C38.9913 19.4717 38.9902 17.4015 37.5488 17.3485H37.3311C37.6943 16.6394 37.9839 15.8988 38.1973 15.1356C50.2209 19.858 51.272 36.778 39.7323 42.799Z" fill="white"></path></svg>