<svg xmlns="http://www.w3.org/2000/svg" width="48" height="50" viewBox="0 0 48 50" fill="none"><path d="M46.5599 33.7236C45.4598 33.187 44.2673 32.8694 43.0477 32.7884C43.5797 31.463 43.8691 30.0516 43.902 28.6223C44.1499 21.1032 38.2383 15.6459 35.7228 13.3078L35.4591 13.0687C35.0953 12.7286 34.763 12.3938 34.4519 12.059C34.7731 11.7866 35.0311 11.4465 35.2079 11.0628C35.3846 10.679 35.4758 10.2609 35.475 9.83784V9.7847C35.473 9.20054 35.297 8.63043 34.9698 8.1482C34.6426 7.66596 34.1792 7.29382 33.6398 7.07995C34.2439 5.38187 34.6665 3.62364 34.9001 1.83516C34.9367 1.53011 34.8874 1.22085 34.7577 0.942749C34.628 0.66465 34.4232 0.428954 34.1668 0.262627C33.9104 0.096301 33.6128 0.00606346 33.3078 0.00223973C33.0029 -0.00158399 32.7031 0.0811606 32.4427 0.241006C31.6347 0.691889 30.7712 1.03316 29.8745 1.25595C29.0099 1.48257 28.1023 1.48257 27.2377 1.25595C26.3352 1.03312 25.4662 0.690009 24.6537 0.235692C24.3917 0.0762407 24.0903 -0.00536711 23.7843 0.00027385C23.4782 0.00591481 23.18 0.0985749 22.924 0.267575C22.6695 0.431118 22.4667 0.664606 22.3397 0.940484C22.2126 1.21636 22.1665 1.52311 22.2068 1.82454C22.4439 3.6198 22.8682 5.38489 23.4724 7.09057C22.9315 7.30299 22.4667 7.67462 22.1384 8.15706C21.8101 8.6395 21.6337 9.21038 21.632 9.79533V9.84847C21.6318 10.3207 21.7461 10.7858 21.9648 11.2035C22.1835 11.6211 22.5001 11.9786 22.8871 12.245C22.6498 12.5001 22.3597 12.7764 22.0539 13.0687L21.8007 13.3078C19.2536 15.6459 13.3736 21.0979 13.6162 28.617C13.6162 29.0102 13.6637 29.3875 13.7059 29.7648H9.5978V28.0591C9.5978 27.7772 9.48668 27.5069 9.28889 27.3076C9.09109 27.1083 8.82282 26.9963 8.5431 26.9963H1.0547C0.774979 26.9963 0.506711 27.1083 0.308916 27.3076C0.11112 27.5069 0 27.7772 0 28.0591V46.1793C0 46.4612 0.11112 46.7315 0.308916 46.9308C0.506711 47.1301 0.774979 47.2421 1.0547 47.2421H8.5431C8.82282 47.2421 9.09109 47.1301 9.28889 46.9308C9.48668 46.7315 9.5978 46.4612 9.5978 46.1793V44.7977L21.0835 49.4686C21.971 49.805 22.9093 49.9847 23.8574 50C25.9668 50 27.8125 49.0807 29.9694 47.9967L30.212 47.8745H30.2647L46.6126 38.4105C47.0383 38.1857 47.3936 37.8459 47.6385 37.4292C47.8834 37.0125 48.0085 36.5353 47.9996 36.0511C48.0032 35.5655 47.8698 35.0889 47.6149 34.6768C47.36 34.2648 46.9941 33.9342 46.5599 33.7236ZM24.8541 10.6509H24.5271C24.321 10.6509 24.1233 10.5687 23.9771 10.4224C23.8309 10.2761 23.748 10.0774 23.7466 9.86972V9.81658C23.7445 9.71197 23.7632 9.60799 23.8015 9.51072C23.8397 9.41346 23.8969 9.32487 23.9696 9.25014C24.0423 9.17542 24.129 9.11606 24.2248 9.07554C24.3205 9.03503 24.4233 9.01417 24.5271 9.01419H32.5903C32.7959 9.01419 32.9931 9.09649 33.1385 9.24298C33.2839 9.38947 33.3655 9.58816 33.3655 9.79533V9.84847C33.3684 9.95282 33.3504 10.0567 33.3127 10.1539C33.275 10.2512 33.2184 10.3398 33.1461 10.4146C33.0738 10.4894 32.9874 10.5489 32.892 10.5894C32.7965 10.63 32.6939 10.6509 32.5903 10.6509H24.8541ZM26.6787 3.32836C27.9054 3.65791 29.1963 3.65791 30.4229 3.32836C31.1915 3.12506 31.9427 2.86029 32.6694 2.53659C32.3917 4.01841 31.9913 5.47419 31.4724 6.88865H25.6187C25.1035 5.4734 24.7049 4.0178 24.4269 2.53659C25.1558 2.85942 25.9087 3.12415 26.6787 3.32836ZM23.2246 14.9019L23.483 14.6628C24.1211 14.0778 24.7168 13.4473 25.2654 12.7764H32.2528C32.7991 13.4378 33.3893 14.0609 34.0195 14.6416L34.2884 14.886C36.5929 17.0115 41.9983 22.0066 41.7821 28.5479C41.7671 30.0866 41.3662 31.5965 40.6166 32.9372C39.8078 33.1083 39.0232 33.3796 38.2805 33.7449L32.5956 36.5028C32.443 35.6674 32.0072 34.9114 31.3628 34.3638C30.7184 33.8162 29.9053 33.511 29.0624 33.5005H22.9451C21.0488 31.5329 18.5539 30.2609 15.8575 29.887C15.7859 29.4439 15.7419 28.9966 15.7256 28.5479C15.5147 22.0066 20.9148 17.0275 23.2246 14.9019ZM2.1305 45.1378V29.1218H7.50949V45.1166L2.1305 45.1378ZM45.6212 36.4922L29.2733 45.9615L29.0624 46.0677C26.1777 47.5184 24.4322 48.3952 21.864 47.4812L9.5978 42.534V31.9063H14.1541C15.5739 31.9068 16.9776 32.2101 18.2727 32.7963C19.5679 33.3824 20.7253 34.2381 21.6689 35.3072C21.7676 35.4189 21.8886 35.5084 22.024 35.5697C22.1594 35.6311 22.3062 35.6629 22.4546 35.6632H29.0624C29.4136 35.6685 29.7519 35.7981 30.018 36.0293C30.284 36.2605 30.461 36.5785 30.5178 36.9279C30.5274 37.2216 30.4423 37.5106 30.2753 37.7515C30.2753 37.7515 30.2753 37.7515 30.2436 37.7941C30.1171 37.955 29.9571 38.086 29.7749 38.1778C29.5926 38.2696 29.3926 38.32 29.1889 38.3254H17.3921C17.1123 38.3254 16.8441 38.4374 16.6463 38.6367C16.4485 38.836 16.3374 39.1064 16.3374 39.3882C16.3374 39.6701 16.4485 39.9404 16.6463 40.1397C16.8441 40.339 17.1123 40.451 17.3921 40.451H29.1784C29.6309 40.4525 30.0792 40.3636 30.4974 40.1894C30.9156 40.0152 31.2954 39.7591 31.6147 39.436C31.6833 39.367 31.7518 39.2926 31.8151 39.2182L39.1981 35.6366C39.8617 35.2971 40.5731 35.0623 41.3075 34.9405C42.7811 34.7255 44.2848 34.9644 45.6212 35.626C45.696 35.6601 45.7593 35.7155 45.8033 35.7854C45.8474 35.8552 45.8702 35.9365 45.8691 36.0192C45.8765 36.1136 45.8571 36.2082 45.8132 36.2919C45.7694 36.3757 45.7028 36.4451 45.6212 36.4922Z" fill="#004225"></path><path d="M30.3278 27.8413H27.902C27.8233 27.842 27.7452 27.8269 27.6723 27.7971C27.5994 27.7672 27.5331 27.7231 27.4772 27.6673C27.4213 27.6114 27.377 27.545 27.3467 27.4718C27.3164 27.3986 27.3008 27.3201 27.3008 27.2408C27.3008 26.9589 27.1897 26.6886 26.9919 26.4893C26.7941 26.29 26.5258 26.178 26.2461 26.178C25.9664 26.178 25.6981 26.29 25.5003 26.4893C25.3025 26.6886 25.1914 26.9589 25.1914 27.2408C25.1928 27.9643 25.479 28.6576 25.9872 29.1687C26.4954 29.6798 27.184 29.9668 27.902 29.9668H28.0602V30.7639C28.0602 31.0457 28.1713 31.3161 28.3691 31.5154C28.5669 31.7147 28.8352 31.8267 29.1149 31.8267C29.3946 31.8267 29.6629 31.7147 29.8607 31.5154C30.0585 31.3161 30.1696 31.0457 30.1696 30.7639V29.9668H30.3278C30.6831 29.9668 31.0349 29.8963 31.3631 29.7593C31.6913 29.6223 31.9895 29.4215 32.2408 29.1684C32.492 28.9152 32.6912 28.6147 32.8272 28.284C32.9632 27.9533 33.0331 27.5988 33.0331 27.2408V25.4766C33.0317 24.754 32.7463 24.0615 32.2392 23.5506C31.7322 23.0396 31.0449 22.752 30.3278 22.7506H27.902C27.8233 22.7513 27.7452 22.7363 27.6723 22.7064C27.5994 22.6765 27.5331 22.6324 27.4772 22.5766C27.4213 22.5208 27.377 22.4543 27.3467 22.3811C27.3164 22.3079 27.3008 22.2294 27.3008 22.1501V20.3859C27.3022 20.2262 27.3662 20.0735 27.4787 19.961C27.5913 19.8485 27.7435 19.7854 27.902 19.7854H30.3278C30.4854 19.7868 30.6362 19.8505 30.7477 19.9629C30.8591 20.0752 30.9223 20.2271 30.9237 20.3859C30.9237 20.6678 31.0348 20.9381 31.2326 21.1374C31.4304 21.3367 31.6987 21.4487 31.9784 21.4487C32.2581 21.4487 32.5264 21.3367 32.7242 21.1374C32.922 20.9381 33.0331 20.6678 33.0331 20.3859C33.0331 20.0279 32.9632 19.6734 32.8272 19.3427C32.6912 19.012 32.492 18.7115 32.2408 18.4583C31.9895 18.2052 31.6913 18.0044 31.3631 17.8674C31.0349 17.7304 30.6831 17.6599 30.3278 17.6599H30.1696V16.8628C30.1696 16.581 30.0585 16.3106 29.8607 16.1113C29.6629 15.912 29.3946 15.8 29.1149 15.8C28.8352 15.8 28.5669 15.912 28.3691 16.1113C28.1713 16.3106 28.0602 16.581 28.0602 16.8628V17.6599H27.902C27.184 17.6599 26.4954 17.9469 25.9872 18.458C25.479 18.9691 25.1928 19.6624 25.1914 20.3859V22.1501C25.1928 22.8736 25.479 23.5669 25.9872 24.078C26.4954 24.5891 27.184 24.8761 27.902 24.8761H30.3278C30.4854 24.8775 30.6362 24.9412 30.7477 25.0535C30.8591 25.1658 30.9223 25.3178 30.9237 25.4766V27.2408C30.9237 27.4 30.8609 27.5528 30.7492 27.6654C30.6374 27.778 30.4859 27.8413 30.3278 27.8413Z" fill="#004225"></path></svg>