<svg xmlns="http://www.w3.org/2000/svg" width="12" height="12" viewBox="0 0 12 12" fill="none"><g clip-path="url(#clip0_2036_1764)"><path d="M10.2929 0.292954C10.6834 -0.0975701 11.3164 -0.0975701 11.707 0.292954C12.0975 0.683479 12.0975 1.31649 11.707 1.70702L1.70696 11.707C1.31643 12.0975 0.683417 12.0975 0.292893 11.707C-0.0976311 11.3165 -0.0976311 10.6835 0.292893 10.293L10.2929 0.292954Z" fill="#696969"></path><path d="M10 11V2H1C0.447715 2 0 1.55228 0 1C0 0.447715 0.447715 0 1 0H11C11.5523 0 12 0.447715 12 1V11C12 11.5523 11.5523 12 11 12C10.4477 12 10 11.5523 10 11Z" fill="#696969"></path></g><defs><clipPath id="clip0_2036_1764"><rect width="12" height="12" fill="white"></rect></clipPath></defs></svg>