<svg xmlns="http://www.w3.org/2000/svg" width="139" height="31" viewBox="0 0 139 31" fill="none"><path d="M15 8C15 12.1421 11.6421 15.5 7.5 15.5H0V8C0 3.85786 3.35786 0.5 7.5 0.5C11.6421 0.5 15 3.85786 15 8Z" fill="#D4A017"></path><path d="M15 23C15 18.8579 18.3579 15.5 22.5 15.5H30V23C30 27.1421 26.6421 30.5 22.5 30.5C18.3579 30.5 15 27.1421 15 23Z" fill="#D4A017"></path><path d="M0 23C0 27.1421 3.35786 30.5 7.5 30.5H15V23C15 18.8579 11.6421 15.5 7.5 15.5C3.35786 15.5 0 18.8579 0 23Z" fill="#D4A017"></path><path d="M30 8C30 3.85786 26.6421 0.5 22.5 0.5H15V8C15 12.1421 18.3579 15.5 22.5 15.5C26.6421 15.5 30 12.1421 30 8Z" fill="#D4A017"></path><path d="M40.528 24L46.672 7.2H50.344L56.464 24H53.032L48.496 10.896L43.936 24H40.528ZM43.24 20.184L44.104 17.664H52.648L53.488 20.184H43.24ZM62.6931 24.288C61.5891 24.288 60.5971 24.016 59.7171 23.472C58.8531 22.928 58.1731 22.176 57.6771 21.216C57.1811 20.256 56.9331 19.176 56.9331 17.976C56.9331 16.744 57.1811 15.656 57.6771 14.712C58.1891 13.752 58.8851 13 59.7651 12.456C60.6611 11.896 61.6611 11.616 62.7651 11.616C63.6291 11.616 64.3891 11.776 65.0451 12.096C65.7011 12.416 66.2291 12.872 66.6291 13.464V6.72H69.8691V24H66.9891L66.6291 22.344C66.3891 22.68 66.0851 23 65.7171 23.304C65.3651 23.608 64.9411 23.848 64.4451 24.024C63.9491 24.2 63.3651 24.288 62.6931 24.288ZM63.4611 21.456C64.1011 21.456 64.6611 21.312 65.1411 21.024C65.6371 20.72 66.0211 20.304 66.2931 19.776C66.5651 19.248 66.7011 18.64 66.7011 17.952C66.7011 17.264 66.5651 16.656 66.2931 16.128C66.0211 15.6 65.6371 15.192 65.1411 14.904C64.6611 14.6 64.1011 14.448 63.4611 14.448C62.8531 14.448 62.3011 14.6 61.8051 14.904C61.3091 15.192 60.9171 15.6 60.6291 16.128C60.3571 16.656 60.2211 17.256 60.2211 17.928C60.2211 18.632 60.3571 19.248 60.6291 19.776C60.9171 20.304 61.3011 20.72 61.7811 21.024C62.2771 21.312 62.8371 21.456 63.4611 21.456ZM75.5637 24L71.1237 11.904H74.5317L77.5317 20.952L80.5317 11.904H83.9157L79.4997 24H75.5637ZM85.246 24V11.904H88.486V24H85.246ZM86.878 10.248C86.302 10.248 85.822 10.08 85.438 9.744C85.07 9.392 84.886 8.952 84.886 8.424C84.886 7.896 85.07 7.464 85.438 7.128C85.822 6.776 86.302 6.6 86.878 6.6C87.47 6.6 87.95 6.776 88.318 7.128C88.702 7.464 88.894 7.896 88.894 8.424C88.894 8.952 88.702 9.392 88.318 9.744C87.95 10.08 87.47 10.248 86.878 10.248ZM95.9839 24.288C94.8799 24.288 93.9199 24.112 93.1039 23.76C92.2879 23.408 91.6479 22.92 91.1839 22.296C90.7199 21.672 90.4559 20.968 90.3919 20.184H93.6079C93.6879 20.488 93.8239 20.768 94.0159 21.024C94.2079 21.264 94.4639 21.456 94.7839 21.6C95.1039 21.744 95.4879 21.816 95.9359 21.816C96.3679 21.816 96.7199 21.76 96.9919 21.648C97.2639 21.52 97.4639 21.352 97.5919 21.144C97.7359 20.936 97.8079 20.72 97.8079 20.496C97.8079 20.16 97.7119 19.904 97.5199 19.728C97.3279 19.536 97.0479 19.384 96.6799 19.272C96.3119 19.16 95.8639 19.048 95.3359 18.936C94.7599 18.824 94.1919 18.688 93.6319 18.528C93.0879 18.352 92.5999 18.136 92.1679 17.88C91.7359 17.624 91.3919 17.296 91.1359 16.896C90.8799 16.496 90.7519 16 90.7519 15.408C90.7519 14.688 90.9439 14.048 91.3279 13.488C91.7119 12.912 92.2719 12.456 93.0079 12.12C93.7439 11.784 94.6319 11.616 95.6719 11.616C97.1279 11.616 98.2799 11.944 99.1279 12.6C99.9759 13.256 100.48 14.16 100.64 15.312H97.5919C97.4959 14.944 97.2799 14.656 96.9439 14.448C96.6239 14.224 96.1919 14.112 95.6479 14.112C95.0719 14.112 94.6319 14.216 94.3279 14.424C94.0239 14.632 93.8719 14.904 93.8719 15.24C93.8719 15.464 93.9679 15.664 94.1599 15.84C94.3679 16.016 94.6559 16.168 95.0239 16.296C95.3919 16.408 95.8399 16.52 96.3679 16.632C97.2959 16.824 98.1119 17.048 98.8159 17.304C99.5199 17.544 100.072 17.896 100.472 18.36C100.872 18.808 101.072 19.464 101.072 20.328C101.072 21.096 100.864 21.784 100.448 22.392C100.032 22.984 99.4399 23.448 98.6719 23.784C97.9199 24.12 97.0239 24.288 95.9839 24.288ZM108.805 24.288C107.653 24.288 106.613 24.024 105.685 23.496C104.773 22.952 104.045 22.208 103.501 21.264C102.973 20.304 102.709 19.208 102.709 17.976C102.709 16.712 102.973 15.608 103.501 14.664C104.045 13.704 104.781 12.96 105.709 12.432C106.637 11.888 107.677 11.616 108.829 11.616C109.997 11.616 111.037 11.888 111.949 12.432C112.877 12.96 113.605 13.704 114.133 14.664C114.677 15.608 114.949 16.704 114.949 17.952C114.949 19.2 114.677 20.304 114.133 21.264C113.605 22.208 112.877 22.952 111.949 23.496C111.021 24.024 109.973 24.288 108.805 24.288ZM108.805 21.48C109.349 21.48 109.829 21.352 110.245 21.096C110.677 20.84 111.013 20.448 111.253 19.92C111.509 19.392 111.637 18.736 111.637 17.952C111.637 17.168 111.509 16.52 111.253 16.008C111.013 15.48 110.677 15.088 110.245 14.832C109.829 14.56 109.357 14.424 108.829 14.424C108.317 14.424 107.845 14.56 107.413 14.832C106.981 15.088 106.637 15.48 106.381 16.008C106.141 16.52 106.021 17.168 106.021 17.952C106.021 18.736 106.141 19.392 106.381 19.92C106.637 20.448 106.973 20.84 107.389 21.096C107.821 21.352 108.293 21.48 108.805 21.48ZM117.022 24V11.904H119.902L120.214 14.136C120.502 13.608 120.862 13.16 121.294 12.792C121.742 12.424 122.246 12.136 122.806 11.928C123.382 11.72 124.014 11.616 124.702 11.616V15.048H123.598C123.118 15.048 122.67 15.104 122.254 15.216C121.854 15.328 121.502 15.512 121.198 15.768C120.894 16.008 120.662 16.344 120.502 16.776C120.342 17.208 120.262 17.752 120.262 18.408V24H117.022ZM130.202 24.288C129.194 24.288 128.362 24.128 127.706 23.808C127.05 23.472 126.562 23.032 126.242 22.488C125.938 21.928 125.786 21.312 125.786 20.64C125.786 19.904 125.97 19.256 126.338 18.696C126.722 18.136 127.29 17.696 128.042 17.376C128.81 17.056 129.77 16.896 130.922 16.896H133.922C133.922 16.304 133.842 15.816 133.682 15.432C133.522 15.032 133.274 14.736 132.938 14.544C132.602 14.352 132.154 14.256 131.594 14.256C130.986 14.256 130.466 14.392 130.034 14.664C129.618 14.92 129.362 15.32 129.266 15.864H126.122C126.202 15 126.482 14.256 126.962 13.632C127.458 12.992 128.106 12.496 128.906 12.144C129.722 11.792 130.626 11.616 131.618 11.616C132.754 11.616 133.738 11.808 134.57 12.192C135.402 12.576 136.042 13.128 136.49 13.848C136.938 14.568 137.162 15.456 137.162 16.512V24H134.426L134.066 22.152C133.89 22.472 133.682 22.76 133.442 23.016C133.202 23.272 132.922 23.496 132.602 23.688C132.282 23.88 131.922 24.024 131.522 24.12C131.122 24.232 130.682 24.288 130.202 24.288ZM130.97 21.792C131.386 21.792 131.754 21.72 132.074 21.576C132.41 21.416 132.698 21.208 132.938 20.952C133.178 20.68 133.362 20.376 133.49 20.04C133.634 19.688 133.73 19.312 133.778 18.912V18.888H131.306C130.81 18.888 130.402 18.952 130.082 19.08C129.778 19.192 129.554 19.36 129.41 19.584C129.266 19.808 129.194 20.064 129.194 20.352C129.194 20.672 129.266 20.936 129.41 21.144C129.554 21.352 129.762 21.512 130.034 21.624C130.306 21.736 130.618 21.792 130.97 21.792Z" fill="white"></path></svg>