<svg xmlns="http://www.w3.org/2000/svg" width="22" height="22" viewBox="0 0 22 22" fill="none"><g clip-path="url(#clip0_2036_2427)"><path d="M20 11C20 6.02944 15.9706 2 11 2C6.02944 2 2 6.02944 2 11C2 15.9706 6.02944 20 11 20C15.9706 20 20 15.9706 20 11ZM22 11C22 17.0751 17.0751 22 11 22C4.92487 22 0 17.0751 0 11C0 4.92487 4.92487 0 11 0C17.0751 0 22 4.92487 22 11Z" fill="#D4A017"></path><path d="M10 15V7C10 6.44772 10.4477 6 11 6C11.5523 6 12 6.44772 12 7V15C12 15.5523 11.5523 16 11 16C10.4477 16 10 15.5523 10 15Z" fill="#D4A017"></path><path d="M15 10C15.5523 10 16 10.4477 16 11C16 11.5523 15.5523 12 15 12H7C6.44772 12 6 11.5523 6 11C6 10.4477 6.44772 10 7 10H15Z" fill="#D4A017"></path></g><defs><clipPath id="clip0_2036_2427"><rect width="22" height="22" fill="white"></rect></clipPath></defs></svg>