<svg xmlns="http://www.w3.org/2000/svg" width="53" height="53" viewBox="0 0 53 53" fill="none"><g clip-path="url(#clip0_4158_1036)"><path d="M41.9353 0.718904C41.4872 0.726047 41.0596 0.907935 40.7436 1.2258L35.5907 6.39212C35.5163 6.46636 35.4489 6.54727 35.3893 6.63382C30.7021 4.3258 25.5254 3.67337 20.6087 4.53909C14.975 5.53107 9.68487 8.51278 5.90198 13.294C-1.66379 22.8564 -0.863204 36.6026 7.75501 45.2285C16.3732 53.8544 30.1203 54.6622 39.6895 47.105C48.6526 40.0265 51.3219 27.6789 46.3698 17.611C46.459 17.5496 46.5422 17.4799 46.6182 17.4029L51.7678 12.2533C51.9283 12.0936 52.0557 11.9037 52.1427 11.6946C52.2296 11.4855 52.2743 11.2612 52.2743 11.0348C52.2743 10.8083 52.2296 10.5841 52.1427 10.3749C52.0557 10.1658 51.9283 9.97592 51.7678 9.81619L48.6861 6.7446L50.0557 5.37497C50.3021 5.13275 50.4698 4.82189 50.5369 4.48293C50.604 4.14398 50.5674 3.79267 50.4319 3.47483C50.2964 3.157 50.0682 2.88739 49.7771 2.70117C49.486 2.51496 49.1456 2.42079 48.8002 2.43094C48.3537 2.44425 47.9299 2.63087 47.6186 2.95127L46.259 4.31082L43.1774 1.2258C43.0149 1.06236 42.8212 0.933262 42.6078 0.846181C42.3945 0.759101 42.1657 0.715817 41.9353 0.718904ZM41.9622 4.8815L43.8253 6.7446L38.5213 12.0486V8.30557L41.9622 4.8815ZM24.8586 7.59726C28.3556 7.6122 31.8753 8.53446 35.0838 10.3902V15.4861L34.4124 16.1574C31.7626 14.0384 28.4117 12.7602 24.768 12.7602C16.2452 12.7602 9.30256 19.7028 9.30256 28.2256C9.30256 36.7484 16.2452 43.691 24.768 43.691C33.2907 43.691 40.2468 36.7484 40.2468 28.2256C40.2468 24.581 38.9689 21.232 36.8462 18.5845L37.5209 17.9098H42.6134C47.7398 26.7619 45.6314 38.0401 37.5579 44.4161C29.3354 50.9098 17.5841 50.2168 10.1787 42.8048C2.77337 35.3928 2.1033 23.6423 8.60432 15.4256C12.6675 10.2902 18.7172 7.57104 24.8586 7.59726ZM46.259 9.17166L48.1255 11.0348L44.688 14.4723H40.9584L46.259 9.17166ZM24.768 16.1977C27.4773 16.1977 29.9666 17.095 31.9753 18.5946L28.239 22.3308C27.215 21.7232 26.0364 21.3506 24.768 21.3506C20.9914 21.3506 17.9064 24.449 17.9064 28.2256C17.9064 32.0022 20.9914 35.104 24.768 35.104C28.5446 35.104 31.6463 32.0022 31.6463 28.2256C31.6463 26.9596 31.2715 25.7873 30.6661 24.7646L34.4057 21.025C35.9082 23.0314 36.8093 25.5159 36.8093 28.2256C36.8093 34.8907 31.433 40.2535 24.768 40.2535C18.1029 40.2535 12.7401 34.8907 12.7401 28.2256C12.7401 21.5606 18.1029 16.1977 24.768 16.1977ZM24.768 24.7881C25.0774 24.7881 25.3702 24.8414 25.6542 24.9157L23.5628 27.0071C23.3975 27.165 23.2653 27.3543 23.174 27.564C23.0828 27.7736 23.0342 27.9994 23.0313 28.228C23.0284 28.4566 23.0711 28.6835 23.1569 28.8955C23.2428 29.1074 23.37 29.3 23.5313 29.4622C23.6925 29.6243 23.8845 29.7526 24.0959 29.8396C24.3073 29.9267 24.534 29.9706 24.7627 29.9689C24.9913 29.9673 25.2173 29.92 25.4275 29.8299C25.6376 29.7398 25.8277 29.6087 25.9865 29.4442L28.0846 27.3461C28.1577 27.6279 28.2055 27.9188 28.2055 28.2256C28.2055 30.1445 26.6868 31.6665 24.768 31.6665C22.8491 31.6665 21.3439 30.1445 21.3439 28.2256C21.3439 26.3068 22.8491 24.7881 24.768 24.7881Z" fill="#31B099"></path></g><defs><clipPath id="clip0_4158_1036"><rect width="53" height="53" fill="white"></rect></clipPath></defs></svg>