<svg xmlns="http://www.w3.org/2000/svg" width="20" height="20" viewBox="0 0 20 20" fill="none"><g clip-path="url(#clip0_4158_379)"><path d="M18.1667 5.83301V1.83301H14.1667C13.6145 1.83301 13.1667 1.38529 13.1667 0.833008C13.1667 0.280723 13.6145 -0.166992 14.1667 -0.166992H19.1667C19.719 -0.166992 20.1667 0.280723 20.1667 0.833008V5.83301C20.1667 6.38529 19.719 6.83301 19.1667 6.83301C18.6145 6.83301 18.1667 6.38529 18.1667 5.83301Z" fill="#0E5C64"></path><path d="M18.4593 0.125976C18.8498 -0.264494 19.4828 -0.264385 19.8734 0.125976C20.2639 0.5165 20.2639 1.14951 19.8734 1.54004L14.0404 7.37305C13.6498 7.76357 13.0168 7.76357 12.6263 7.37305C12.2359 6.98251 12.2358 6.34945 12.6263 5.95898L18.4593 0.125976Z" fill="#0E5C64"></path><path d="M5.92486 0.666992C6.56832 0.663016 7.19164 0.891903 7.67974 1.31152C8.10896 1.68066 8.40841 2.1756 8.53716 2.72266L8.58208 2.96094L8.58306 2.96973C8.67859 3.694 8.85521 4.40532 9.1104 5.08984C9.28979 5.56708 9.32905 6.08634 9.22271 6.58496C9.11634 7.08347 8.8692 7.54087 8.51079 7.90332L8.00493 8.4082C8.93888 9.83922 10.16 11.06 11.5909 11.9941L12.0967 11.4893C12.4592 11.1308 12.9175 10.8837 13.4161 10.7773C13.9136 10.6713 14.4309 10.7102 14.9073 10.8887C15.5924 11.1443 16.3053 11.3213 17.0303 11.417L17.0401 11.4189C17.6874 11.5104 18.2785 11.8362 18.7012 12.335C19.1188 12.8277 19.3431 13.4553 19.3331 14.1006V16.5967L19.3204 16.874C19.2926 17.1499 19.2219 17.4207 19.1104 17.6758C18.9617 18.0159 18.7433 18.3213 18.4698 18.5723C18.1961 18.8233 17.8723 19.0138 17.5206 19.1328C17.1689 19.2517 16.7965 19.2961 16.4268 19.2627C16.4208 19.2622 16.4143 19.2614 16.4083 19.2607C13.6886 18.9652 11.0756 18.0363 8.78032 16.5479C6.64666 15.1903 4.83689 13.3796 3.48052 11.2451C1.98987 8.94127 1.06229 6.31765 0.772512 3.58887C0.771994 3.58397 0.771005 3.57912 0.770559 3.57422C0.73724 3.20551 0.781298 2.83327 0.899465 2.48242C1.01763 2.13168 1.20757 1.80949 1.45708 1.53613C1.7066 1.2628 2.01016 1.04411 2.34868 0.894531C2.6873 0.74496 3.0537 0.667353 3.42388 0.666992H5.92486ZM3.42583 2.66699C3.33337 2.66708 3.24187 2.68631 3.15728 2.72363C3.07262 2.76103 2.99604 2.81641 2.93365 2.88477C2.87147 2.95301 2.82444 3.03359 2.79497 3.12109C2.76547 3.20871 2.75348 3.30148 2.76177 3.39355C3.02056 5.80767 3.84397 8.12719 5.16411 10.165L5.169 10.1729C6.29469 11.9443 7.77344 13.4625 9.51079 14.6348L9.86138 14.8643L9.86919 14.8701C11.8994 16.1866 14.21 17.0077 16.6153 17.2705C16.7049 17.2774 16.7947 17.2671 16.8799 17.2383C16.9678 17.2086 17.0489 17.1613 17.1172 17.0986C17.1856 17.0359 17.2402 16.9591 17.2774 16.874C17.3145 16.789 17.3334 16.6973 17.3331 16.6045V14.1006C17.3331 14.0923 17.3338 14.0835 17.334 14.0752C17.338 13.9119 17.2815 13.7526 17.1758 13.6279C17.0701 13.5032 16.9217 13.4223 16.7598 13.3994C15.8884 13.2838 15.0326 13.07 14.209 12.7627L14.2061 12.7617C14.0869 12.717 13.9576 12.7069 13.8331 12.7334C13.7085 12.76 13.5936 12.8216 13.503 12.9111L12.4483 13.9658C12.13 14.284 11.6384 14.3504 11.2471 14.1279C9.00444 12.8527 7.14736 10.9956 5.87212 8.75293C5.64975 8.3617 5.71612 7.87004 6.03423 7.55176L7.08892 6.49707C7.17837 6.40656 7.24003 6.2924 7.26665 6.16797C7.29323 6.04337 7.28411 5.91321 7.23931 5.79394L7.23833 5.79199C6.93091 4.96814 6.71728 4.11192 6.60161 3.24023L6.57427 3.12305C6.53643 3.00934 6.46801 2.90723 6.37603 2.82812C6.25338 2.72265 6.09638 2.6654 5.93462 2.66699H3.42583Z" fill="#0E5C64"></path></g><defs><clipPath id="clip0_4158_379"><rect width="20" height="20" fill="white"></rect></clipPath></defs></svg>