<svg xmlns="http://www.w3.org/2000/svg" width="20" height="17" viewBox="0 0 20 17" fill="none"><path d="M17.3337 3.50033C17.3337 3.13594 17.0311 2.83333 16.6667 2.83333H3.33374C2.96936 2.83333 2.66675 3.13594 2.66675 3.50033V13.5003C2.66693 13.8646 2.96947 14.1663 3.33374 14.1663H16.6667C17.031 14.1663 17.3336 13.8646 17.3337 13.5003V3.50033ZM19.3337 13.5003C19.3336 14.9691 18.1356 16.1663 16.6667 16.1663H3.33374C1.8649 16.1663 0.666925 14.9691 0.666748 13.5003V3.50033C0.666748 2.03137 1.86479 0.833334 3.33374 0.833334H16.6667C18.1357 0.833334 19.3337 2.03137 19.3337 3.50033V13.5003Z" fill="#0E5C64"></path><path d="M17.7595 2.68066C18.212 2.36395 18.8364 2.47431 19.1531 2.92676C19.4695 3.37917 19.3593 4.0027 18.907 4.31934L10.574 10.1523C10.2296 10.3934 9.77082 10.3934 9.4265 10.1523L1.0935 4.31934C0.641112 4.00267 0.530858 3.37919 0.847403 2.92676C1.16407 2.47437 1.78755 2.36412 2.23998 2.68066L9.99975 8.11133L17.7595 2.68066Z" fill="#0E5C64"></path></svg>