<svg xmlns="http://www.w3.org/2000/svg" width="50" height="50" viewBox="0 0 50 50" fill="none"><g clip-path="url(#clip0_4158_1633)"><path d="M44.6651 9.56413H46.21C46.7489 9.56413 47.1859 9.12712 47.1859 8.58821C47.1859 8.04931 46.7489 7.61229 46.21 7.61229H42.5015C41.9626 7.61229 41.5256 8.04931 41.5256 8.58821V12.2967C41.5256 12.8356 41.9626 13.2726 42.5015 13.2726C43.0404 13.2726 43.4774 12.8356 43.4774 12.2967V11.2229C46.4386 15.1872 48.0482 19.9972 48.0482 25C48.0482 37.7088 37.7088 48.0482 25 48.0482C12.2912 48.0482 1.95184 37.7088 1.95184 25C1.95184 12.2912 12.2912 1.95184 25 1.95184C25.9399 1.95184 26.8859 2.00894 27.8118 2.12146C28.3461 2.18607 28.8334 1.80555 28.8984 1.27046C28.9635 0.735455 28.5825 0.24886 28.0474 0.183864C27.0436 0.0618735 26.0184 0 25 0C18.3223 0 12.0441 2.60044 7.32234 7.32234C2.60044 12.0441 0 18.3223 0 25C0 31.6777 2.60044 37.9559 7.32234 42.6777C12.0441 47.3996 18.3223 50 25 50C31.6777 50 37.9559 47.3996 42.6777 42.6777C47.3996 37.9559 50 31.6777 50 25C50 19.3649 48.1174 13.9552 44.6651 9.56413Z" fill="#0E5C64"></path><path d="M10.5864 14.7376C10.131 14.4493 9.52814 14.585 9.23976 15.0402C7.01182 18.559 6.02556 22.7907 6.46267 26.9561C6.90623 31.1832 8.80879 35.1694 11.8199 38.1806C15.4537 41.8145 20.2271 43.6315 25.0005 43.6315C29.7739 43.6315 34.5472 41.8146 38.1811 38.1806C45.4489 30.9129 45.4489 19.0872 38.1811 11.8195C35.1746 8.8131 31.1949 6.91123 26.9748 6.46425C22.8172 6.02362 18.59 7.00218 15.0726 9.21918C14.6166 9.50659 14.4801 10.1092 14.7674 10.5652C15.0548 11.0212 15.6574 11.1578 16.1134 10.8704C22.7436 6.69155 31.2504 7.64922 36.8009 13.1997C43.3076 19.7064 43.3076 30.2936 36.8009 36.8004C30.2942 43.3073 19.7068 43.3073 13.2001 36.8004C7.72639 31.3267 6.75438 22.6143 10.889 16.0844C11.1772 15.6289 11.0418 15.026 10.5864 14.7376Z" fill="#0E5C64"></path><path d="M37.6869 25.9918H38.8904C39.4293 25.9918 39.8663 25.5547 39.8663 25.0158C39.8663 24.4769 39.4293 24.0399 38.8904 24.0399H37.6869C37.148 24.0399 36.7109 24.4769 36.7109 25.0158C36.7109 25.5547 37.1479 25.9918 37.6869 25.9918Z" fill="#0E5C64"></path><path d="M10.1328 24.9842C10.1328 25.5231 10.5698 25.9601 11.1087 25.9601H12.3122C12.8511 25.9601 13.2882 25.5231 13.2882 24.9842C13.2882 24.4453 12.8511 24.0083 12.3122 24.0083H11.1087C10.5698 24.0083 10.1328 24.4452 10.1328 24.9842Z" fill="#0E5C64"></path><path d="M25.9909 12.313V11.1095C25.9909 10.5706 25.5539 10.1335 25.015 10.1335C24.4761 10.1335 24.0391 10.5706 24.0391 11.1095V12.313C24.0391 12.8519 24.4761 13.2889 25.015 13.2889C25.5539 13.2889 25.9909 12.8519 25.9909 12.313Z" fill="#0E5C64"></path><path d="M24.0078 37.6871V38.8906C24.0078 39.4295 24.4448 39.8665 24.9837 39.8665C25.5226 39.8665 25.9597 39.4295 25.9597 38.8906V37.6871C25.9597 37.1482 25.5226 36.7112 24.9837 36.7112C24.4448 36.7112 24.0078 37.1481 24.0078 37.6871Z" fill="#0E5C64"></path><path d="M20.1075 18.7281C19.7263 18.3471 19.1085 18.3471 18.7272 18.7281C18.3461 19.1092 18.3461 19.7271 18.7272 20.1083L22.0347 23.4158C21.7813 23.8882 21.6371 24.4276 21.6371 25C21.6371 26.8539 23.1453 28.3621 24.9992 28.3621C26.853 28.3621 28.3612 26.8539 28.3612 25C28.3612 24.4276 28.217 23.8882 27.9636 23.4158L34.6373 16.7422C35.0184 16.3611 35.0184 15.7431 34.6373 15.3619C34.2561 14.9809 33.6383 14.9809 33.257 15.3619L26.5834 22.0356C26.1111 21.7821 25.5717 21.638 24.9992 21.638C24.4267 21.638 23.8873 21.7822 23.415 22.0356L20.1075 18.7281ZM26.4094 25C26.4094 25.7776 25.7768 26.4102 24.9992 26.4102C24.2216 26.4102 23.589 25.7776 23.589 25C23.589 24.2224 24.2216 23.5898 24.9992 23.5898C25.7768 23.5898 26.4094 24.2224 26.4094 25Z" fill="#0E5C64"></path><path d="M13.1991 13.1991C13.3816 13.0176 13.4859 12.7658 13.4859 12.5091C13.4859 12.2525 13.3816 12.0016 13.1991 11.8191C13.0176 11.6377 12.7667 11.5332 12.5091 11.5332C12.2525 11.5332 12.0007 11.6376 11.8191 11.8191C11.6377 12.0007 11.5332 12.2525 11.5332 12.5091C11.5332 12.7668 11.6376 13.0176 11.8191 13.1991C12.0007 13.3805 12.2525 13.485 12.5091 13.485C12.7667 13.485 13.0176 13.3805 13.1991 13.1991Z" fill="#0E5C64"></path><path d="M31.7611 2.91583C32.0188 2.91583 32.2706 2.81229 32.452 2.62989C32.6336 2.44837 32.7381 2.19746 32.7381 1.93991C32.7381 1.68324 32.6337 1.43146 32.452 1.24993C32.2706 1.06851 32.0188 0.963989 31.7611 0.963989C31.5044 0.963989 31.2526 1.06841 31.0712 1.24993C30.8897 1.43146 30.7852 1.68324 30.7852 1.93991C30.7852 2.19755 30.8896 2.44837 31.0712 2.62989C31.2526 2.81229 31.5044 2.91583 31.7611 2.91583Z" fill="#0E5C64"></path></g><defs><clipPath id="clip0_4158_1633"><rect width="50" height="50" fill="white"></rect></clipPath></defs></svg>