<svg xmlns="http://www.w3.org/2000/svg" width="16" height="17" viewBox="0 0 16 17" fill="none"><g clip-path="url(#clip0_4158_402)"><path d="M9.79289 6.12633C10.1834 5.7358 10.8164 5.7358 11.207 6.12633L15.3739 10.2933C15.7641 10.6839 15.7644 11.317 15.3739 11.7074L11.207 15.8734C10.8164 16.2639 10.1834 16.2639 9.79289 15.8734C9.40253 15.4829 9.40242 14.8498 9.79289 14.4593L13.2519 10.9994L9.79289 7.54039C9.40237 7.14987 9.40237 6.51685 9.79289 6.12633Z" fill="white"></path><path d="M0.333252 7.66632V1.83331C0.333252 1.28103 0.780967 0.833313 1.33325 0.833313C1.88554 0.833313 2.33325 1.28103 2.33325 1.83331V7.66632C2.33325 8.28516 2.57926 8.87913 3.01685 9.31671C3.45434 9.75412 4.04762 10.0002 4.66626 10.0003H14.6663C15.2185 10.0003 15.6663 10.448 15.6663 11.0003C15.6661 11.5524 15.2184 12.0003 14.6663 12.0003H4.66626C3.51718 12.0002 2.41535 11.5433 1.60278 10.7308C0.790125 9.91812 0.333252 8.81559 0.333252 7.66632Z" fill="white"></path></g><defs><clipPath id="clip0_4158_402"><rect width="16" height="17" fill="white"></rect></clipPath></defs></svg>