<svg xmlns="http://www.w3.org/2000/svg" width="53" height="50" viewBox="0 0 53 50" fill="none"><path d="M15.9021 41.4043C18.5245 41.4043 21.0487 40.7709 23.3046 39.5836L27.3718 46.5514C29.507 50.4646 35.3157 51.1987 38.3879 47.9733C41.6303 44.9123 40.8798 39.1224 36.9619 36.9867C36.962 36.9867 29.9579 32.92 29.9579 32.92C31.9568 29.1046 32.3734 24.549 30.9343 20.3787C30.6885 19.3977 29.1879 19.5823 29.1953 20.6054C32.476 29.7491 25.7435 39.7114 15.9019 39.6423C8.30849 39.7985 1.61193 33.1216 1.76963 25.5472C1.6239 15.9212 11.7065 8.91607 20.724 12.2981C21.8162 12.6816 22.4128 11.0507 21.3259 10.6419C11.1842 6.83733 -0.163011 14.7185 0.00303784 25.5475C-0.173363 34.0675 7.35828 41.5809 15.9021 41.4043ZM27.1437 36.7587C27.8627 36.0416 28.4955 35.2592 29.0534 34.4334L36.0727 38.5094C39.0039 40.1065 39.5644 44.4381 37.1387 46.7278C34.8419 49.1394 30.4937 48.5901 28.8986 45.6652C28.8986 45.6653 24.8176 38.6739 24.8176 38.6739C25.6422 38.1141 26.4228 37.4776 27.1437 36.7587Z" fill="#31B099"></path><path d="M20.129 16.8174C21.1792 17.3054 21.9356 15.751 20.8975 15.231C16.5087 13.116 11.2371 14.0055 7.77768 17.4459C0.566751 24.6259 5.80425 37.0677 15.9021 36.9925C25.0665 37.0929 30.71 26.436 25.2785 18.9323C24.6035 17.9965 23.1751 19.0084 23.8382 19.9519C26.5816 23.809 26.1352 29.0461 22.778 32.4029C18.9861 36.1753 12.8177 36.1745 9.02842 32.4046C1.45316 24.5579 10.2253 12.2547 20.129 16.8174Z" fill="#31B099"></path><path d="M15.3312 26.22C15.702 26.533 16.2603 26.4891 16.5764 26.1159L24.09 17.2579C25.2652 17.8773 26.8731 17.6601 27.8508 16.8032L32.8052 20.3956C32.2607 22.0411 33.6021 23.8146 35.3341 23.7853C37.2716 23.8356 38.626 21.608 37.6751 19.9307L46.8168 10.1637V13.2141C46.835 14.3692 48.5641 14.3741 48.5834 13.214V7.92843C48.5641 7.44343 48.1802 7.06819 47.7001 7.04749H42.4004C41.2418 7.06652 41.2373 8.78953 42.4005 8.80937C42.4004 8.80937 45.6666 8.80937 45.6666 8.80937L36.3894 18.7211C35.5926 18.3522 34.5363 18.4609 33.8365 18.9657L28.8982 15.385C29.8472 13.1528 28.056 10.5201 25.618 10.5713C22.8232 10.4855 21.0646 13.9247 22.7382 16.1231L15.2273 24.9786C14.9125 25.3494 14.959 25.906 15.3312 26.22ZM35.3341 20.2616C36.4949 20.2821 36.4948 22.003 35.3341 22.0235C34.1733 22.0029 34.1735 20.282 35.3341 20.2616ZM25.618 12.3331C27.0221 12.2896 27.9002 14.0248 27.0481 15.121C26.1007 16.4973 23.8206 15.7791 23.8514 14.0949C23.8514 13.1233 24.6437 12.3331 25.618 12.3331Z" fill="#31B099"></path><path d="M47.7 0H15.0185C12.096 0 9.71875 2.37098 9.71875 5.28565V8.75651C9.73503 9.9157 11.4742 9.90533 11.4853 8.75645V5.28565C11.4853 3.34267 13.0703 1.76188 15.0185 1.76188H47.7C49.6486 1.76188 51.2331 3.34267 51.2331 5.28565V31.7139C51.2331 33.6573 49.6486 35.2377 47.7 35.2377H38.8145C38.3263 35.2377 37.9312 35.6317 37.9312 36.1186C37.9312 36.6055 38.3263 36.9995 38.8145 36.9995H47.7C50.6224 36.9995 52.9997 34.6286 52.9997 31.7139V5.28565C52.9997 2.37098 50.6224 0 47.7 0Z" fill="#31B099"></path><path d="M38.8677 30.833C37.7095 30.8512 37.7043 32.5756 38.8677 32.5949H48.5838C49.742 32.5767 49.7472 30.8523 48.5838 30.833H38.8677Z" fill="#31B099"></path><path d="M48.5835 27.3092H43.2838C42.1242 27.3279 42.1215 29.0519 43.2838 29.0711H48.5835C49.7431 29.0524 49.7458 27.3283 48.5835 27.3092Z" fill="#31B099"></path><path d="M21.2015 6.16655C22.3604 6.14751 22.3641 4.4244 21.2015 4.40466H14.1352C12.9763 4.4237 12.9726 6.14676 14.1352 6.16655H21.2015Z" fill="#31B099"></path></svg>