<svg xmlns="http://www.w3.org/2000/svg" width="36" height="36" viewBox="0 0 36 36" fill="none"><path d="M10.5518 16.1382H13.6552V21.1037H10.5518V16.1382Z" fill="#31B099"></path><path d="M16.1379 12.4141H19.2414V21.1037H16.1379V12.4141Z" fill="#31B099"></path><path d="M21.7241 14.897H24.8276V21.1039H21.7241V14.897Z" fill="#31B099"></path><path d="M27.3103 11.1719H30.4138V21.1029H27.3103V11.1719Z" fill="#31B099"></path><path d="M35.3794 0H32.276V1.24138H33.8811L27.9311 7.19129L22.7838 2.04393C22.6674 1.92757 22.5095 1.8622 22.3449 1.8622C22.1804 1.8622 22.0225 1.92757 21.9061 2.04393L14.8967 9.05336L10.9907 5.14737C10.8743 5.03101 10.7164 4.96564 10.5518 4.96564C10.3872 4.96564 10.2294 5.03101 10.113 5.14737L1.42334 13.837L2.301 14.7147L10.5518 6.46385L14.4578 10.3698C14.5742 10.4862 14.7321 10.5516 14.8967 10.5516C15.0612 10.5516 15.2191 10.4862 15.3355 10.3698L22.3449 3.36041L27.4923 8.50777C27.6087 8.62414 27.7666 8.6895 27.9311 8.6895C28.0957 8.6895 28.2536 8.62414 28.37 8.50777L34.7587 2.11903V3.72413H36.0001V0.620688C36.0001 0.456071 35.9347 0.298197 35.8183 0.181795C35.7019 0.0653937 35.544 0 35.3794 0Z" fill="#31B099"></path><path d="M35.794 22.4516C35.4817 21.973 35.0035 21.6268 34.4513 21.4796C33.8991 21.3323 33.312 21.3944 32.8029 21.654L29.409 23.3919C29.6405 23.9435 29.6657 24.56 29.4798 25.1286C29.2938 25.6971 28.9093 26.1797 28.3966 26.4879L21.489 30.5844C19.869 31.5496 17.9396 31.8537 16.1014 31.4335L9.85971 29.9395L10.1483 28.7323L16.3776 30.222C17.9054 30.5695 19.5084 30.3168 20.8552 29.5162L27.7623 25.4197C28.0444 25.2512 28.2487 24.9783 28.3309 24.6602C28.4132 24.3421 28.3668 24.0044 28.2017 23.7202C27.8408 23.0953 27.2534 22.6331 26.5611 22.4292C25.8688 22.2253 25.1246 22.2953 24.4825 22.6247L19.473 25.1956C19.1225 25.3757 18.7337 25.4684 18.3396 25.4659C17.9456 25.4633 17.558 25.3654 17.2099 25.1807L13.7961 23.3677C12.6645 22.7691 11.3956 22.4779 10.1161 22.5231C8.83668 22.5683 7.59149 22.9483 6.50488 23.6253L8.45137 32.9039L9.48792 32.6805C10.0322 32.5635 10.5927 32.5412 11.1445 32.6147L18.8976 33.465C20.356 33.6595 21.8351 33.3138 23.0562 32.4931L35.4532 24.1758C35.725 23.9909 35.9132 23.7065 35.9773 23.3841C36.0414 23.0617 35.9762 22.727 35.7959 22.4522L35.794 22.4516Z" fill="#31B099"></path><path d="M0 22.6469L2.80179 35.9998L7.61773 34.9632L4.81531 21.6104L0 22.6469ZM2.43745 25.291L2.18235 24.077L3.39704 23.8219L3.65214 25.0353L2.43745 25.291Z" fill="#31B099"></path></svg>