<svg xmlns="http://www.w3.org/2000/svg" width="50" height="50" viewBox="0 0 50 50" fill="none"><g clip-path="url(#clip0_4158_2129)"><path d="M25 0.195312C11.3203 0.195312 0.195312 11.3203 0.195312 25C0.195312 38.6797 11.3203 49.8047 25 49.8047C38.6797 49.8047 49.8047 38.6797 49.8047 25C49.8047 11.3203 38.6797 0.195312 25 0.195312ZM42.5156 23.9688C42.2812 19.9062 40.6562 16.2109 38.1094 13.3516L41.7812 9.67969C45.2578 13.4844 47.4609 18.4766 47.7109 23.9688H42.5156ZM9.5 25C9.5 16.4531 16.4531 9.5 25 9.5C33.5469 9.5 40.5 16.4531 40.5 25C40.5 33.5469 33.5469 40.5 25 40.5C16.4531 40.5 9.5 33.5469 9.5 25ZM36.6562 11.8828C33.7969 9.33594 30.1016 7.71875 26.0391 7.47656V2.28906C31.5313 2.53906 36.5234 4.73438 40.3281 8.21875L36.6562 11.8828ZM23.9688 2.28906V7.48438C14.7578 8.02344 7.42969 15.6641 7.42969 25C7.42969 29.4766 9.125 33.5469 11.8828 36.6562L8.21094 40.3281C4.52344 36.2812 2.26562 30.8984 2.26562 25C2.26562 12.8125 11.9063 2.82812 23.9688 2.28906ZM25 47.7344C19.1016 47.7344 13.7266 45.4766 9.67969 41.7812L13.3516 38.1094C16.4531 40.875 20.5312 42.5625 25.0078 42.5625C34.3438 42.5625 41.9844 35.2344 42.5234 26.0234H47.7188C47.1719 38.0938 37.1875 47.7344 25 47.7344Z" fill="#31B099"></path><path d="M28.1719 31.2734V16.6641C28.1719 16.0937 27.7109 15.6328 27.1406 15.6328H22.8672C22.2969 15.6328 21.8359 16.0937 21.8359 16.6641V31.2734C21.8359 31.8437 22.2969 32.3047 22.8672 32.3047H27.1406C27.7109 32.3047 28.1719 31.8437 28.1719 31.2734ZM26.1016 30.2344H23.8984V17.6953H26.1016V30.2344Z" fill="#31B099"></path><path d="M31.2032 32.3047H35.4767C36.047 32.3047 36.5079 31.8438 36.5079 31.2734V20.7969C36.5079 20.2266 36.047 19.7656 35.4767 19.7656H31.2032C30.6329 19.7656 30.172 20.2266 30.172 20.7969V31.2734C30.1642 31.8438 30.6329 32.3047 31.2032 32.3047ZM32.2345 21.8281H34.4376V30.2344H32.2345V21.8281Z" fill="#31B099"></path><path d="M18.8672 23.8984H14.5937C14.0234 23.8984 13.5625 24.3594 13.5625 24.9297V31.2734C13.5625 31.8437 14.0234 32.3047 14.5937 32.3047H18.8672C19.4375 32.3047 19.8984 31.8437 19.8984 31.2734V24.9297C19.8984 24.3594 19.4375 23.8984 18.8672 23.8984ZM17.8359 30.2344H15.625V25.9609H17.8281V30.2344H17.8359Z" fill="#31B099"></path></g><defs><clipPath id="clip0_4158_2129"><rect width="50" height="50" fill="white"></rect></clipPath></defs></svg>