<svg xmlns="http://www.w3.org/2000/svg" width="14" height="14" viewBox="0 0 14 14"><g clip-path="url(#clip0_2036_1098)"><path d="M4.11913 0.224375C4.5119 -0.0959754 5.0909 -0.0733816 5.45702 0.292734L9.20702 4.04273C9.59754 4.43326 9.59754 5.06627 9.20702 5.4568C8.81649 5.84732 8.18348 5.84732 7.79295 5.4568L4.74999 2.41383L1.70702 5.4568C1.31649 5.84732 0.683479 5.84732 0.292954 5.4568C-0.0975701 5.06627 -0.09757 4.43326 0.292954 4.04273L4.04295 0.292734L4.11913 0.224375Z"></path><path d="M3.75 10V1C3.75 0.447715 4.19772 0 4.75 0C5.30228 0 5.75 0.447715 5.75 1V10C5.75 10.5304 5.96086 11.039 6.33594 11.4141C6.71101 11.7891 7.21957 12 7.75 12H13C13.5523 12 14 12.4477 14 13C14 13.5523 13.5523 14 13 14H7.75C6.68913 14 5.67202 13.5783 4.92188 12.8281C4.17173 12.078 3.75 11.0609 3.75 10Z"></path></g><defs><clipPath id="clip0_2036_1098"><rect width="14" height="14"></rect></clipPath></defs></svg>