<svg xmlns="http://www.w3.org/2000/svg" width="14" height="12" viewBox="0 0 14 12" fill="none"><g clip-path="url(#clip0_4158_1790)"><path d="M7.29289 0.293015C7.68342 -0.097509 8.31643 -0.097509 8.70696 0.293015L13.707 5.29302C14.0975 5.68354 14.0975 6.31655 13.707 6.70708L8.70696 11.7071C8.31643 12.0976 7.68342 12.0976 7.29289 11.7071C6.90237 11.3166 6.90237 10.6835 7.29289 10.293L11.5859 6.00005L7.29289 1.70708C6.90237 1.31655 6.90237 0.68354 7.29289 0.293015Z" fill="#696969"></path><path d="M0.292893 0.293015C0.683417 -0.097509 1.31643 -0.097509 1.70696 0.293015L6.70696 5.29302C7.09748 5.68354 7.09748 6.31655 6.70696 6.70708L1.70696 11.7071C1.31643 12.0976 0.683417 12.0976 0.292893 11.7071C-0.0976311 11.3166 -0.0976311 10.6835 0.292893 10.293L4.58586 6.00005L0.292893 1.70708C-0.0976311 1.31655 -0.0976311 0.68354 0.292893 0.293015Z" fill="#696969"></path></g><defs><clipPath id="clip0_4158_1790"><rect width="14" height="12" fill="white"></rect></clipPath></defs></svg>