<svg xmlns="http://www.w3.org/2000/svg" width="16" height="16" viewBox="0 0 16 16" fill="none"><path d="M13.6504 2.34151C12.7504 1.44105 11.6482 0.768707 10.4357 0.380498C9.22322 -0.00771054 7.9355 -0.100545 6.67985 0.10973C5.42009 0.319099 4.22888 0.827385 3.20604 1.59199C2.1832 2.35659 1.35854 3.35523 0.801168 4.50421C0.243799 5.65319 -0.0300363 6.91903 0.00261186 8.19565C0.03526 9.47227 0.373441 10.7225 0.98881 11.8414C1.00594 11.887 1.00594 11.9372 0.98881 11.9828L0.222566 14.6237C0.17246 14.7848 0.167467 14.9565 0.208131 15.1202C0.248795 15.2839 0.333559 15.4333 0.453206 15.5522C0.572852 15.671 0.722802 15.7548 0.88675 15.7944C1.0507 15.8341 1.22237 15.828 1.38309 15.7768L4.00915 14.9883C4.05729 14.9712 4.1098 14.9712 4.15794 14.9883C5.33053 15.6467 6.65179 15.995 7.9966 16C8.57399 15.9988 9.14976 15.939 9.71507 15.8215C11.1174 15.5125 12.4108 14.8321 13.4597 13.8514C14.5086 12.8707 15.2744 11.6259 15.6768 10.2475C16.0792 8.86911 16.1034 7.40784 15.7469 6.01686C15.3904 4.62587 14.6663 3.35641 13.6504 2.34151ZM5.02089 9.26746C4.83697 9.26746 4.65719 9.21293 4.50426 9.11075C4.35134 9.00857 4.23215 8.86334 4.16177 8.69342C4.09139 8.5235 4.07297 8.33652 4.10885 8.15614C4.14473 7.97576 4.2333 7.81006 4.36335 7.68001C4.4934 7.54996 4.65909 7.4614 4.83948 7.42552C5.01986 7.38964 5.20683 7.40805 5.37675 7.47843C5.54667 7.54882 5.6919 7.668 5.79408 7.82093C5.89626 7.97385 5.9508 8.15364 5.9508 8.33756C5.9508 8.58418 5.85283 8.82071 5.67844 8.9951C5.50405 9.16949 5.26752 9.26746 5.02089 9.26746ZM7.9966 9.26746C7.81268 9.26746 7.63289 9.21293 7.47997 9.11075C7.32705 9.00857 7.20786 8.86334 7.13748 8.69342C7.06709 8.5235 7.04868 8.33652 7.08456 8.15614C7.12044 7.97576 7.209 7.81006 7.33905 7.68001C7.4691 7.54996 7.6348 7.4614 7.81518 7.42552C7.99557 7.38964 8.18254 7.40805 8.35246 7.47843C8.52238 7.54882 8.66761 7.668 8.76979 7.82093C8.87197 7.97385 8.92651 8.15364 8.92651 8.33756C8.92651 8.58418 8.82853 8.82071 8.65414 8.9951C8.47975 9.16949 8.24323 9.26746 7.9966 9.26746ZM10.9723 9.26746C10.7884 9.26746 10.6086 9.21293 10.4557 9.11075C10.3028 9.00857 10.1836 8.86334 10.1132 8.69342C10.0428 8.5235 10.0244 8.33652 10.0603 8.15614C10.0961 7.97576 10.1847 7.81006 10.3148 7.68001C10.4448 7.54996 10.6105 7.4614 10.7909 7.42552C10.9713 7.38964 11.1582 7.40805 11.3282 7.47843C11.4981 7.54882 11.6433 7.668 11.7455 7.82093C11.8477 7.97385 11.9022 8.15364 11.9022 8.33756C11.9022 8.58418 11.8042 8.82071 11.6299 8.9951C11.4555 9.16949 11.2189 9.26746 10.9723 9.26746Z" fill="white"></path></svg>