<svg xmlns="http://www.w3.org/2000/svg" width="36" height="36" viewBox="0 0 36 36" fill="none"><path fill-rule="evenodd" clip-rule="evenodd" d="M25.1653 28.4258C26.1429 25.7841 26.7388 22.5945 26.8018 19.142C26.8025 19.0992 26.768 19.0646 26.7245 19.0646H18.6184C18.5758 19.0646 18.5411 19.0987 18.5411 19.1406V27.7821C18.5411 27.8235 18.5751 27.8575 18.6172 27.8581C20.8864 27.8913 23.0612 28.1068 25.0785 28.4745C25.1159 28.4814 25.1522 28.461 25.1653 28.4258ZM32.3004 1.04908C32.0098 0.9836 31.828 0.698719 31.8946 0.412773C31.9611 0.126828 32.2507 -0.0519642 32.5413 0.0135143L34.7412 0.511409C35.0319 0.576888 35.2136 0.861769 35.147 1.14771L34.6409 3.31208C34.5743 3.59802 34.2848 3.77682 33.9941 3.71134C33.7035 3.64586 33.5217 3.36098 33.5883 3.07503L33.7866 2.22716L14.9805 14.7911C14.8452 14.8914 14.6641 14.9277 14.4906 14.8729L8.10059 12.8498L3.2842 16.9191C3.05771 17.1098 2.71705 17.0837 2.52326 16.8609C2.32947 16.6381 2.35599 16.3029 2.58248 16.1123L7.6272 11.8501C7.77995 11.7215 7.98464 11.6915 8.16119 11.7539L14.571 13.7832L33.295 1.27426L32.3004 1.04908ZM26.2347 0.280448C26.0218 0.280448 25.8482 0.451254 25.8482 0.660694V4.96235L30.1956 2.05795V0.660618C30.1956 0.451178 30.022 0.280371 29.8091 0.280371H26.2347V0.280448ZM30.1956 5.9132L25.8482 8.8176V16.1356C25.8482 16.345 26.0218 16.5158 26.2347 16.5158H29.8092C30.0221 16.5158 30.1957 16.345 30.1957 16.1356V5.9132H30.1956ZM19.5534 4.7393C19.3404 4.7393 19.1668 4.91026 19.1669 5.11977V9.42599L23.5143 6.52159V5.1197C23.5144 4.91018 23.3408 4.73922 23.1278 4.73922C21.9363 4.7393 20.7449 4.7393 19.5534 4.7393ZM23.5143 10.3768L19.1669 13.2812V16.1353C19.1667 16.3448 19.3404 16.5158 19.5534 16.5158H23.1278C23.3408 16.5158 23.5144 16.3448 23.5143 16.1353V10.3768ZM12.8721 10.2944C12.6593 10.2944 12.4856 10.4653 12.4856 10.6748V12.0047L14.3998 12.6108L16.833 10.9852V10.6748C16.8331 10.4654 16.6595 10.2944 16.4466 10.2944C15.2551 10.2944 14.0636 10.2944 12.8721 10.2944ZM16.833 14.8404L15.6046 15.6611C15.1873 15.9573 14.6511 16.0422 14.159 15.8864L12.4856 15.3565V16.1352C12.4855 16.3447 12.6592 16.5157 12.8721 16.5157H16.4466C16.6595 16.5157 16.8332 16.3447 16.833 16.1352V14.8404ZM6.19082 8.9014C5.97794 8.9014 5.80432 9.07221 5.80432 9.28165V11.9868L6.92208 11.0424C7.35874 10.6735 7.96353 10.5615 8.50541 10.7445L10.1517 11.2658V9.28157C10.1517 9.07213 9.97812 8.90133 9.76523 8.90133L6.19082 8.9014ZM10.1517 14.6177L8.34594 14.046L5.80827 16.19C5.83524 16.3738 5.99665 16.5158 6.19074 16.5158H9.76516C9.97804 16.5158 10.1517 16.345 10.1517 16.1355V14.6177H10.1517ZM27.8841 19.1393C27.8848 19.0979 27.9193 19.0646 27.9614 19.0646H35.9227C35.9666 19.0646 36.0014 19.1 36 19.1433C35.8525 23.4243 34.1616 27.3202 31.4574 30.3091C31.4346 30.3342 31.3995 30.3415 31.3683 30.328C29.8669 29.674 28.1578 29.129 26.2958 28.7192C26.2502 28.7091 26.2242 28.6628 26.2398 28.6196C27.2244 25.8946 27.822 22.6412 27.8841 19.1393ZM25.7909 29.7626C24.8081 32.0709 23.2371 34.5734 20.9942 35.8581C20.9203 35.9004 20.9618 36.0128 21.046 35.9987C24.7066 35.3853 27.9907 33.6854 30.5432 31.2479C30.5832 31.2097 30.5705 31.1442 30.5191 31.1232C29.1373 30.556 27.576 30.0805 25.8787 29.7176C25.8419 29.7098 25.8055 29.7284 25.7909 29.7626ZM15.0058 35.8582C12.7618 34.5728 11.1906 32.0689 10.2077 29.7595C10.1932 29.7253 10.1568 29.7067 10.12 29.7145C8.50958 30.0579 6.94102 30.5212 5.48028 31.1228C5.42896 31.1439 5.41636 31.2094 5.45624 31.2475C8.00883 33.6853 11.2931 35.3854 14.954 35.9988C15.0383 36.0129 15.0797 35.9004 15.0058 35.8582ZM9.75897 28.6161C9.77459 28.6594 9.74854 28.7057 9.70301 28.7158C7.94274 29.1022 6.22607 29.6318 4.63161 30.3277C4.60031 30.3413 4.56521 30.3339 4.54248 30.3088C1.83839 27.3199 0.147537 23.4241 4.94998e-05 19.1432C-0.00149649 19.0999 0.0333656 19.0646 0.0773491 19.0646H8.03859C8.08064 19.0646 8.11512 19.0979 8.11589 19.1392C8.17789 22.6397 8.7751 25.892 9.75897 28.6161ZM9.19824 19.142C9.26124 22.5934 9.85676 25.7821 10.8338 28.4233C10.8468 28.4585 10.8831 28.4788 10.9205 28.472C13.0814 28.0799 15.283 27.8892 17.3828 27.8581C17.4249 27.8575 17.4589 27.8236 17.4589 27.7822V19.1406C17.4589 19.0987 17.4242 19.0646 17.3816 19.0646H9.27547C9.23202 19.0646 9.19747 19.0992 9.19824 19.142ZM11.3014 29.5801C11.2815 29.5349 11.3095 29.4836 11.3589 29.475C13.371 29.125 15.4193 28.9528 17.3805 28.9231C17.4239 28.9224 17.4589 28.9564 17.4589 28.9991V35.5061C17.4589 35.5525 17.4175 35.588 17.3707 35.5814C14.4472 35.1717 12.4029 32.0766 11.3014 29.5801ZM18.6293 35.5813C18.5826 35.5879 18.5411 35.5524 18.5411 35.506V28.999C18.5411 28.9563 18.5762 28.9224 18.6196 28.923C20.7327 28.9546 22.7572 29.1479 24.6402 29.4772C24.6896 29.4858 24.7176 29.537 24.6977 29.5823C23.596 32.0781 21.5521 35.1717 18.6293 35.5813Z" fill="#31B099"></path></svg>