<svg xmlns="http://www.w3.org/2000/svg" width="36" height="36" viewBox="0 0 36 36" fill="none"><g clip-path="url(#clip0_4158_706)"><path d="M26.4374 12.7271C21.2032 12.7271 16.9453 16.9849 16.9453 22.2191C16.9453 27.4533 21.2032 31.7111 26.4374 31.7111C31.6716 31.7111 35.9997 27.4533 35.9997 22.2191C35.9997 16.9849 31.6716 12.7271 26.4374 12.7271ZM27.5198 27.3019C27.5107 27.3053 27.5011 27.3037 27.492 27.3069V28.5472C27.492 29.1301 27.0203 29.6018 26.4373 29.6018C25.8543 29.6018 25.3826 29.1301 25.3826 28.5472V27.2997C24.688 27.065 24.0224 26.6197 23.4534 25.9414C23.0785 25.4954 23.1362 24.83 23.5832 24.4562C24.0292 24.0813 24.6966 24.1389 25.0684 24.586C25.6267 25.2503 26.2581 25.5139 26.7978 25.3203C27.2128 25.1689 27.492 24.7703 27.492 24.3285C27.492 23.7466 27.0192 23.2738 26.4373 23.2738C24.6926 23.2738 23.2733 21.8545 23.2733 20.1098C23.2733 18.8357 24.0313 17.6914 25.2045 17.1951C25.2626 17.1704 25.3241 17.1719 25.3827 17.1509V15.8911C25.3827 15.3082 25.8544 14.8364 26.4374 14.8364C27.0203 14.8364 27.492 15.3082 27.492 15.8911V17.1528C28.0382 17.3373 28.5707 17.6306 29.0462 18.0911C29.4644 18.4959 29.4747 19.1633 29.0689 19.5825C28.6641 20.0007 27.9956 20.0099 27.5775 19.6052C27.0645 19.1077 26.4971 18.9367 26.0274 19.1376C25.636 19.3034 25.3826 19.6845 25.3826 20.1099C25.3826 20.6918 25.8554 21.1646 26.4373 21.1646C28.182 21.1646 29.6013 22.5839 29.6013 24.3285C29.6014 25.654 28.7651 26.8488 27.5198 27.3019Z" fill="#31B099"></path><path d="M1.05493 23.2734C0.471971 23.2734 0.000244141 23.7452 0.000244141 24.3281V34.9452C0.000244141 35.5281 0.471971 35.9999 1.05493 35.9999H4.21892V23.2734H1.05493Z" fill="#31B099"></path><path d="M25.014 6.58297L17.6313 0.254918C17.2378 -0.0849726 16.6528 -0.0849726 16.2594 0.254918L8.87669 6.58297C8.54095 6.86929 8.42043 7.33482 8.57385 7.74889C8.72629 8.16296 9.12074 8.43796 9.56266 8.43796H12.7266C12.7266 17.556 12.7266 26.8815 12.7266 36.0001C15.4437 36.0001 17.3221 36.0001 20.1094 36.0001C20.6924 36.0001 21.1641 35.5284 21.1641 34.9454V32.5397C17.4135 30.6154 14.836 26.7165 14.836 22.2191C14.836 17.7217 17.4135 13.8228 21.1641 11.8984V8.43803H24.3281C24.7699 8.43803 25.1644 8.16304 25.3169 7.74897C25.4704 7.33482 25.3499 6.86929 25.014 6.58297Z" fill="#31B099"></path><path d="M7.45337 14.8364C6.87041 14.8364 6.39868 15.3082 6.39868 15.8911V23.2739V36.0001C7.93923 36.0001 9.1216 36.0001 10.6174 36.0001V14.8364H7.45337Z" fill="#31B099"></path></g><defs><clipPath id="clip0_4158_706"><rect width="36" height="36" fill="white"></rect></clipPath></defs></svg>