<svg xmlns="http://www.w3.org/2000/svg" width="53" height="50" viewBox="0 0 53 50" fill="none"><path d="M28.0846 50C27.0251 50 25.9599 49.8797 24.9062 49.6392C21.3213 48.8145 18.2461 46.6613 16.2474 43.5803L2.27423 22.0478C0.275603 18.9611 -0.440237 15.2788 0.264149 11.671C0.968536 8.06318 3.0187 4.91921 6.03668 2.8175L9.12339 0.664256C9.79914 0.188938 10.6238 0.0171366 11.437 0.177485C12.2502 0.337833 12.9431 0.807424 13.3955 1.50036L19.3799 10.7261C19.8266 11.419 19.9755 12.2437 19.7923 13.0454C19.609 13.8472 19.1222 14.5286 18.4179 14.9582L15.1765 16.9339C14.8558 17.1286 14.6382 17.4378 14.5523 17.7986C14.4721 18.1651 14.5351 18.5374 14.7413 18.8466L24.2477 33.4955C24.4481 33.8105 24.7631 34.0224 25.1296 34.0911C25.4961 34.1656 25.8683 34.0854 26.1718 33.8735L29.2986 31.7203C29.9801 31.2507 30.799 31.0846 31.6065 31.2449C32.414 31.4053 33.1069 31.8749 33.5536 32.5678L39.538 41.7936C39.9904 42.4865 40.1336 43.3111 39.9503 44.1186C39.7671 44.9261 39.2746 45.6018 38.5645 46.0313L35.3403 47.9784C33.1241 49.3128 30.6272 50 28.0846 50ZM10.8586 2.97785C10.8242 2.97785 10.7956 2.9893 10.767 3.00648L7.67453 5.15973C2.6751 8.64158 1.35795 15.3705 4.67373 20.4844L18.6469 42.0169C21.9627 47.1251 28.6458 48.6656 33.8628 45.5217L37.087 43.5746C37.127 43.5517 37.15 43.5173 37.1614 43.4715C37.1729 43.4257 37.1614 43.3856 37.1385 43.3455L31.1541 34.1255C31.1312 34.0854 31.0968 34.0625 31.051 34.0568C31.0052 34.0453 30.9651 34.0568 30.925 34.0797L27.7982 36.2329C26.8476 36.8858 25.7022 37.1263 24.5741 36.8972C23.4402 36.6739 22.4724 36.0153 21.8482 35.0475L12.3418 20.3985C11.7119 19.4307 11.5114 18.2796 11.7634 17.1572C12.0211 16.0348 12.7026 15.0841 13.6876 14.4828L16.9289 12.5071C16.969 12.4842 16.9919 12.4498 17.0034 12.404C17.0148 12.3582 17.0034 12.3181 16.9804 12.278L10.996 3.0523C10.9731 3.01221 10.933 2.98931 10.8929 2.98358C10.8758 2.98358 10.8643 2.97785 10.8586 2.97785Z" fill="#0E5C64"></path><path d="M28.1787 34.2633L35.7708 45.9724L33.3684 47.5301L25.7764 35.821L28.1787 34.2633Z" fill="#0E5C64"></path><path d="M8.03223 3.21143L15.6243 14.9205L13.2219 16.4782L5.62987 4.76909L8.03223 3.21143Z" fill="#0E5C64"></path><path d="M23.5199 28.2728L25.1864 20.914C23.6345 18.7207 22.8213 16.1837 22.8213 13.538C22.8213 9.89577 24.3618 6.48265 27.1621 3.9228C29.9281 1.39732 33.5933 0 37.4874 0C41.3816 0 45.0524 1.39159 47.8127 3.9228C50.6131 6.48265 52.1536 9.9015 52.1536 13.538C52.1536 17.1744 50.6131 20.5933 47.8127 23.1531C45.0467 25.6786 41.3816 27.0759 37.4874 27.0759C35.4487 27.0759 33.4902 26.698 31.6462 25.9592L23.5199 28.2728ZM31.8409 22.9241L32.3162 23.136C33.9369 23.8518 35.672 24.2126 37.4874 24.2126C43.9987 24.2126 49.2959 19.425 49.2959 13.538C49.2959 7.6509 43.9987 2.86336 37.4874 2.86336C30.9761 2.86336 25.6789 7.6509 25.6789 13.538C25.6789 15.7657 26.4291 17.896 27.8493 19.7056L28.2674 20.244L27.374 24.1954L31.8409 22.9241Z" fill="#0E5C64"></path><path d="M30.1572 12.1121H33.1237V14.9754H30.1572V12.1121Z" fill="#0E5C64"></path><path d="M36.0049 12.1121H38.9713V14.9754H36.0049V12.1121Z" fill="#0E5C64"></path><path d="M41.8516 12.1121H44.818V14.9754H41.8516V12.1121Z" fill="#0E5C64"></path></svg>