<svg xmlns="http://www.w3.org/2000/svg" width="136" height="30" viewBox="0 0 136 30" fill="none"><g clip-path="url(#clip0_4158_498)"><path d="M30.7789 0.713867C35.9181 0.713868 40.0842 4.87122 40.0842 9.99958C40.0842 15.1279 35.9181 19.2853 30.7789 19.2853H24.6836L34.7046 29.2853H22.5585L11.2793 18.0297C10.5021 17.2542 10.0211 16.1831 10.0211 14.9996C10.0211 12.6327 11.9439 10.7139 14.3158 10.7139H30.7789C31.1743 10.7139 31.4947 10.3941 31.4947 9.99958C31.4947 9.60508 31.1743 9.2853 30.7789 9.2853H14.3158C11.1532 9.2853 8.58947 11.8437 8.58947 14.9996C8.58947 16.7068 9.33976 18.2387 10.5293 19.2853H10.5132L20.5342 29.2853H14.3158C6.4094 29.2853 0 22.8894 0 14.9996C0 7.1098 6.40939 0.713867 14.3158 0.713867H30.7789Z" fill="#A6A6A6"></path><path d="M40.0854 20.7139V29.2853H36.7301L28.1406 20.7139H40.0854Z" fill="#A6A6A6"></path><path d="M57.9011 24.8716C57.1567 24.8716 56.5268 24.7454 56.0115 24.4931C55.5009 24.2454 55.0833 23.9359 54.7588 23.5645C54.4391 23.1931 54.1933 22.824 54.0216 22.4573H53.8498V24.6431H50.2422V6.45734H53.907V13.2931H54.0216C54.1933 12.9311 54.4367 12.5597 54.7517 12.1788C55.0618 11.7978 55.4746 11.4764 55.99 11.2145C56.5053 10.9526 57.1496 10.8216 57.9226 10.8216C58.9343 10.8216 59.86 11.0835 60.6999 11.6073C61.5397 12.1264 62.2102 12.9073 62.7112 13.9502C63.2123 14.9931 63.4628 16.2907 63.4628 17.8431C63.4628 19.3573 63.2195 20.6383 62.7327 21.6859C62.2412 22.7288 61.5755 23.5216 60.7357 24.0645C59.8958 24.6026 58.951 24.8716 57.9011 24.8716ZM56.7702 21.9359C57.4096 21.9359 57.9465 21.7597 58.3807 21.4073C58.8197 21.0597 59.1514 20.5764 59.3757 19.9573C59.5999 19.3383 59.7121 18.6288 59.7121 17.8288C59.7121 17.0335 59.5999 16.3311 59.3757 15.7216C59.1514 15.1121 58.8221 14.6311 58.3879 14.2788C57.9536 13.9311 57.4144 13.7573 56.7702 13.7573C56.1451 13.7573 55.6106 13.9264 55.1668 14.2645C54.7278 14.5978 54.3938 15.0692 54.1647 15.6788C53.9357 16.2835 53.8211 17.0002 53.8211 17.8288C53.8211 18.6526 53.938 19.3716 54.1719 19.9859C54.4057 20.6002 54.7421 21.0788 55.1811 21.4216C55.6202 21.7645 56.1498 21.9359 56.7702 21.9359ZM69.1176 24.8145C68.1679 24.8145 67.34 24.6097 66.6338 24.2002C65.9228 23.7859 65.374 23.1954 64.9875 22.4288C64.6009 21.6573 64.4077 20.7383 64.4077 19.6716V10.9931H68.0725V19.0431C68.0725 19.8859 68.2944 20.5478 68.7382 21.0288C69.1772 21.5097 69.7785 21.7502 70.542 21.7502C71.0669 21.7502 71.5298 21.6383 71.9306 21.4145C72.3267 21.1907 72.6369 20.8645 72.8611 20.4359C73.0854 20.0121 73.1976 19.4978 73.1976 18.8931V10.9931H76.8696V24.6431H73.4051L73.3622 21.2359H73.5698C73.2071 22.3835 72.6583 23.2669 71.9235 23.8859C71.1838 24.505 70.2485 24.8145 69.1176 24.8145ZM83.8056 24.9145C82.7032 24.9145 81.7274 24.7573 80.878 24.4431C80.0333 24.1288 79.3414 23.6716 78.8022 23.0716C78.263 22.4764 77.917 21.755 77.7643 20.9073L81.1715 20.3216C81.3528 20.955 81.6677 21.4311 82.1163 21.7502C82.5649 22.0692 83.1637 22.2288 83.9129 22.2288C84.6049 22.2288 85.156 22.0954 85.5664 21.8288C85.972 21.5669 86.1748 21.2311 86.1748 20.8216C86.1748 20.4645 86.0317 20.1716 85.7453 19.9431C85.4543 19.7145 85.0105 19.5407 84.414 19.4216L82.0519 18.9288C80.7348 18.6621 79.7494 18.205 79.0957 17.5573C78.4419 16.9097 78.115 16.0764 78.115 15.0573C78.115 14.1811 78.356 13.4264 78.838 12.7931C79.3199 12.1645 79.988 11.6788 80.8422 11.3359C81.7011 10.9931 82.708 10.8216 83.8628 10.8216C84.9413 10.8216 85.8766 10.9716 86.6687 11.2716C87.4561 11.5669 88.0955 11.9883 88.587 12.5359C89.0785 13.0788 89.4054 13.7216 89.5677 14.4645L86.3108 15.0359C86.1724 14.574 85.9052 14.1931 85.5091 13.8931C85.1131 13.5978 84.581 13.4502 83.9129 13.4502C83.3117 13.4502 82.8058 13.5764 82.3955 13.8288C81.9898 14.0811 81.787 14.4145 81.787 14.8288C81.787 15.1764 81.9183 15.4692 82.1807 15.7073C82.4479 15.9454 82.9037 16.1288 83.5479 16.2573L86.003 16.7431C87.3249 17.0145 88.3079 17.4526 88.9521 18.0573C89.5963 18.6621 89.9184 19.4526 89.9184 20.4288C89.9184 21.324 89.6583 22.1073 89.1382 22.7788C88.618 23.4502 87.8975 23.974 86.9765 24.3502C86.0603 24.7264 85.0033 24.9145 83.8056 24.9145ZM94.4422 24.6431H90.7773V10.9931H94.4422V24.6431ZM92.6098 9.21448C92.0562 9.21448 91.5838 9.03115 91.1925 8.66448C90.8012 8.29781 90.6056 7.85496 90.6056 7.33591C90.6056 6.8121 90.8012 6.36686 91.1925 6.0002C91.5838 5.63353 92.0562 5.4502 92.6098 5.4502C93.1633 5.4502 93.6381 5.63353 94.0342 6.0002C94.4303 6.3621 94.6283 6.80734 94.6283 7.33591C94.6283 7.85496 94.4303 8.29781 94.0342 8.66448C93.6381 9.03115 93.1633 9.21448 92.6098 9.21448ZM102.051 24.9145C100.672 24.9145 99.4837 24.6192 98.4864 24.0288C97.4891 23.4383 96.7184 22.6145 96.1744 21.5573C95.6304 20.505 95.3584 19.2788 95.3584 17.8788C95.3584 16.4645 95.6304 15.2311 96.1744 14.1788C96.7184 13.1216 97.4891 12.2978 98.4864 11.7073C99.4837 11.1169 100.672 10.8216 102.051 10.8216C102.857 10.8216 103.604 10.9288 104.291 11.1431C104.974 11.3526 105.582 11.6526 106.117 12.0431C106.646 12.4335 107.081 12.9097 107.419 13.4716C107.763 14.0335 108.002 14.6645 108.135 15.3645L104.721 16.0002C104.645 15.6431 104.53 15.324 104.377 15.0431C104.22 14.7621 104.031 14.5216 103.812 14.3216C103.592 14.1216 103.337 13.9692 103.046 13.8645C102.76 13.7597 102.44 13.7073 102.087 13.7073C101.438 13.7073 100.889 13.8811 100.441 14.2288C99.9967 14.5811 99.6627 15.0692 99.4384 15.6931C99.2141 16.3216 99.102 17.0478 99.102 17.8716C99.102 18.6811 99.2141 19.3978 99.4384 20.0216C99.6627 20.6454 99.9967 21.1359 100.441 21.4931C100.889 21.8502 101.438 22.0288 102.087 22.0288C102.44 22.0288 102.762 21.974 103.053 21.8645C103.349 21.755 103.611 21.5978 103.841 21.3931C104.07 21.1835 104.26 20.9311 104.413 20.6359C104.566 20.3454 104.676 20.0169 104.742 19.6502L108.157 20.2716C108.028 20.9954 107.792 21.6407 107.448 22.2073C107.105 22.774 106.668 23.2597 106.138 23.6645C105.609 24.074 104.998 24.3835 104.306 24.5931C103.619 24.8073 102.867 24.9145 102.051 24.9145ZM115.164 24.9145C113.795 24.9145 112.609 24.6192 111.607 24.0288C110.6 23.4383 109.827 22.6145 109.288 21.5573C108.744 20.505 108.472 19.2788 108.472 17.8788C108.472 16.4645 108.744 15.2311 109.288 14.1788C109.827 13.1216 110.6 12.2978 111.607 11.7073C112.609 11.1169 113.795 10.8216 115.164 10.8216C116.543 10.8216 117.732 11.1169 118.729 11.7073C119.731 12.2978 120.502 13.1216 121.041 14.1788C121.585 15.2311 121.857 16.4645 121.857 17.8788C121.857 19.2788 121.585 20.505 121.041 21.5573C120.502 22.6145 119.731 23.4383 118.729 24.0288C117.732 24.6192 116.543 24.9145 115.164 24.9145ZM115.164 22.0288C115.818 22.0288 116.364 21.8478 116.803 21.4859C117.242 21.124 117.572 20.6288 117.791 20.0002C118.016 19.3669 118.128 18.6573 118.128 17.8716C118.128 17.0621 118.016 16.3454 117.791 15.7216C117.572 15.0931 117.242 14.6002 116.803 14.2431C116.364 13.8859 115.818 13.7073 115.164 13.7073C114.511 13.7073 113.967 13.8859 113.532 14.2431C113.093 14.6002 112.764 15.0931 112.545 15.7216C112.325 16.3454 112.215 17.0621 112.215 17.8716C112.215 18.6573 112.325 19.3669 112.545 20.0002C112.764 20.6288 113.093 21.124 113.532 21.4859C113.967 21.8478 114.511 22.0288 115.164 22.0288ZM126.452 16.7431V24.6431H122.787V10.9931H126.245L126.309 14.4002H126.087C126.445 13.2621 126.989 12.3811 127.719 11.7573C128.449 11.1335 129.394 10.8216 130.554 10.8216C131.499 10.8216 132.322 11.0288 133.023 11.4431C133.725 11.8526 134.271 12.4431 134.662 13.2145C135.054 13.9811 135.249 14.8978 135.249 15.9645V24.6431H131.577V16.6002C131.577 15.7526 131.36 15.0883 130.926 14.6073C130.487 14.1264 129.881 13.8859 129.108 13.8859C128.593 13.8859 128.134 13.9978 127.734 14.2216C127.328 14.4454 127.013 14.7692 126.789 15.1931C126.564 15.6169 126.452 16.1335 126.452 16.7431Z" fill="#A6A6A6"></path></g><defs><clipPath id="clip0_4158_498"><rect width="136" height="30" fill="white"></rect></clipPath></defs></svg>