<svg xmlns="http://www.w3.org/2000/svg" width="119" height="30" viewBox="0 0 119 30" fill="none"><g clip-path="url(#clip0_4158_504)"><path fill-rule="evenodd" clip-rule="evenodd" d="M12.1138 0.713867C12.5073 0.713867 12.8263 1.03366 12.8263 1.42815V6.71135C12.8263 6.87042 13.0182 6.95008 13.1305 6.83761L18.822 1.13239C19.0892 0.864536 19.4517 0.713924 19.8296 0.713867H26.0702C26.2592 0.713896 26.4404 0.789201 26.5741 0.923131L28.7118 3.06599C28.99 3.34492 28.99 3.7971 28.7118 4.07603L25.9568 6.83761C25.8446 6.9501 25.924 7.14242 26.0827 7.14244H31.7708C31.9598 7.14247 32.141 7.21777 32.2747 7.3517L34.4124 9.49458C34.6906 9.77351 34.6906 10.2257 34.4124 10.5046L31.6052 13.3185C31.4661 13.4579 31.4661 13.6841 31.6052 13.8235L33.9085 16.1324C34.5538 16.7792 34.9162 17.6564 34.9162 18.571C34.9162 19.4857 34.5537 20.3629 33.9085 21.0097L26.0702 28.8668C25.803 29.1347 25.4405 29.2852 25.0626 29.2853H22.8024C22.4088 29.2853 22.0898 28.9655 22.0898 28.571V23.2878C22.0898 23.1287 21.8979 23.0491 21.7857 23.1616L16.0941 28.8668C15.8269 29.1347 15.4644 29.2852 15.0866 29.2853H8.84597C8.657 29.2853 8.47572 29.2099 8.34211 29.076L6.20441 26.9332C5.92621 26.6542 5.92621 26.2021 6.20441 25.9232L8.95935 23.1616C9.07158 23.0491 8.99212 22.8567 8.83343 22.8567H3.14535C2.9564 22.8567 2.77514 22.7814 2.64154 22.6474L0.503812 20.5046C0.225605 20.2257 0.225606 19.7735 0.503812 19.4946L3.31096 16.6807C3.45007 16.5412 3.45007 16.3151 3.31096 16.1757L1.00762 13.8668C0.362453 13.22 0 12.3428 0 11.4282C0 10.5135 0.362452 9.6363 1.00762 8.98951L8.84597 1.13239C9.11319 0.864536 9.47568 0.713924 9.85356 0.713867H12.1138ZM14.3023 7.14244C13.3574 7.14244 12.4507 7.51898 11.7826 8.18872L4.17107 15.8185C3.94667 16.0435 4.10561 16.4281 4.42297 16.4282H14.8166C15.1339 16.4282 15.2928 16.8129 15.0685 17.0378L9.87166 22.2471C9.64727 22.4721 9.80617 22.8567 10.1236 22.8567H20.6139C21.5588 22.8567 22.4655 22.4802 23.1336 21.8104L30.7451 14.1807C30.9555 13.9698 30.829 13.6184 30.5509 13.5752L30.4932 13.571H20.0996C19.7822 13.571 19.6233 13.1864 19.8477 12.9614L25.0445 7.7521C25.2689 7.52712 25.11 7.14248 24.7926 7.14244H14.3023Z" fill="#A6A6A6"></path><path d="M43.7109 10.9931H52.6039V13.7931H43.7109V10.9931ZM49.7536 24.6431H46.1123V9.94305C46.1123 8.97639 46.3047 8.17162 46.6895 7.52877C47.0743 6.88591 47.5992 6.40258 48.2643 6.07877C48.9294 5.75972 49.6847 5.6002 50.5303 5.6002C51.1098 5.6002 51.6371 5.64781 52.1122 5.74305C52.5872 5.83353 52.934 5.9121 53.1526 5.97877L52.4899 8.73591C52.3378 8.69781 52.1573 8.65734 51.9483 8.61448C51.744 8.57639 51.5184 8.55734 51.2714 8.55734C50.7203 8.55734 50.3308 8.68829 50.1027 8.9502C49.87 9.21686 49.7536 9.58829 49.7536 10.0645V24.6431ZM56.9862 24.6431H53.3307V10.9931H56.9862V24.6431ZM55.1549 9.21448C54.6038 9.21448 54.1335 9.03115 53.744 8.66448C53.3545 8.29781 53.1597 7.85496 53.1597 7.33591C53.1597 6.8121 53.3545 6.36686 53.744 6.0002C54.1335 5.63353 54.6038 5.4502 55.1549 5.4502C55.7107 5.4502 56.1857 5.63353 56.58 6.0002C56.9696 6.3621 57.1644 6.80734 57.1644 7.33591C57.1644 7.85496 56.9696 8.29781 56.58 8.66448C56.1857 9.03115 55.7107 9.21448 55.1549 9.21448ZM62.1239 16.7431V24.6431H58.4684V10.9931H61.9172L61.9742 14.4002H61.7533C62.1144 13.2621 62.6583 12.3811 63.3851 11.7573C64.112 11.1335 65.0502 10.8216 66.1998 10.8216C67.1452 10.8216 67.9646 11.0288 68.6582 11.4431C69.3565 11.8526 69.9004 12.4431 70.29 13.2145C70.6843 13.9811 70.8814 14.8978 70.8814 15.9645V24.6431H67.2259V16.6002C67.2259 15.7526 67.0074 15.0883 66.5703 14.6073C66.138 14.1264 65.5371 13.8859 64.7675 13.8859C64.2545 13.8859 63.796 13.9978 63.3923 14.2216C62.9932 14.4454 62.6821 14.7692 62.4588 15.1931C62.2355 15.6169 62.1239 16.1335 62.1239 16.7431ZM71.0596 10.9931H79.133V13.7931H71.0596V10.9931ZM72.9336 20.9716V7.7502H76.5891V20.6502C76.5891 21.0835 76.6842 21.4026 76.8742 21.6073C77.0642 21.8169 77.3825 21.9216 77.829 21.9216C77.9668 21.9216 78.1616 21.9026 78.4133 21.8645C78.6651 21.8312 78.8551 21.7978 78.9834 21.7645L79.5107 24.5073C79.1069 24.6311 78.7031 24.7169 78.2993 24.7645C77.8955 24.8121 77.5107 24.8359 77.145 24.8359C75.7816 24.8359 74.7388 24.5026 74.0167 23.8359C73.2947 23.1692 72.9336 22.2145 72.9336 20.9716ZM86.0379 24.9145C84.6507 24.9145 83.4536 24.6288 82.4465 24.0573C81.4394 23.4859 80.6651 22.6764 80.1235 21.6288C79.582 20.5764 79.3112 19.3311 79.3112 17.8931C79.3112 16.4835 79.5796 15.2502 80.1164 14.1931C80.6532 13.1359 81.4133 12.3097 82.3966 11.7145C83.38 11.1192 84.532 10.8216 85.8526 10.8216C86.7457 10.8216 87.577 10.9645 88.3466 11.2502C89.121 11.5359 89.8003 11.9669 90.3846 12.5431C90.9689 13.1145 91.4249 13.8311 91.7527 14.6931C92.0805 15.555 92.2444 16.5716 92.2444 17.7431V18.7716H80.8147V16.4788H90.4559L88.7528 17.0859C88.7528 16.3764 88.6459 15.7597 88.4321 15.2359C88.2136 14.7121 87.893 14.305 87.4702 14.0145C87.0426 13.7288 86.5129 13.5859 85.8811 13.5859C85.2541 13.5859 84.7196 13.7311 84.2778 14.0216C83.836 14.3169 83.5011 14.7145 83.2731 15.2145C83.0451 15.7145 82.9311 16.2859 82.9311 16.9288V18.5502C82.9311 19.3407 83.0641 20.005 83.3301 20.5431C83.5914 21.0811 83.9595 21.4835 84.4346 21.7502C84.9096 22.0169 85.4631 22.1502 86.0949 22.1502C86.5272 22.1502 86.9167 22.0907 87.2635 21.9716C87.6151 21.8478 87.9143 21.6669 88.1614 21.4288C88.4084 21.1859 88.596 20.8907 88.7243 20.5431L92.0378 21.1645C91.8192 21.9121 91.4392 22.5692 90.8976 23.1359C90.3513 23.7026 89.6696 24.1407 88.8526 24.4502C88.0402 24.7597 87.102 24.9145 86.0379 24.9145ZM99.2134 24.9145C97.8405 24.9145 96.6576 24.6192 95.6648 24.0288C94.6672 23.4383 93.9 22.6145 93.3632 21.5573C92.8216 20.505 92.5508 19.2788 92.5508 17.8788C92.5508 16.4645 92.8216 15.2311 93.3632 14.1788C93.9 13.1216 94.6672 12.2978 95.6648 11.7073C96.6576 11.1169 97.8405 10.8216 99.2134 10.8216C100.016 10.8216 100.757 10.9288 101.437 11.1431C102.121 11.3526 102.726 11.6526 103.254 12.0431C103.781 12.4335 104.216 12.9097 104.558 13.4716C104.9 14.0335 105.135 14.6645 105.263 15.3645L101.864 16.0002C101.793 15.6431 101.679 15.324 101.522 15.0431C101.37 14.7621 101.185 14.5216 100.966 14.3216C100.748 14.1216 100.494 13.9692 100.204 13.8645C99.9141 13.7597 99.5958 13.7073 99.249 13.7073C98.5982 13.7073 98.0519 13.8811 97.6101 14.2288C97.1683 14.5811 96.8358 15.0692 96.6125 15.6931C96.3892 16.3216 96.2776 17.0478 96.2776 17.8716C96.2776 18.6811 96.3892 19.3978 96.6125 20.0216C96.8358 20.6454 97.1683 21.1359 97.6101 21.4931C98.0519 21.8502 98.5982 22.0288 99.249 22.0288C99.5958 22.0288 99.9165 21.974 100.211 21.8645C100.501 21.755 100.76 21.5978 100.988 21.3931C101.216 21.1835 101.408 20.9311 101.565 20.6359C101.717 20.3454 101.826 20.0169 101.893 19.6502L105.285 20.2716C105.156 20.9954 104.921 21.6407 104.579 22.2073C104.242 22.774 103.81 23.2597 103.282 23.6645C102.75 24.074 102.142 24.3835 101.458 24.5931C100.774 24.8073 100.026 24.9145 99.2134 24.9145ZM109.831 16.7431V24.6431H106.175V6.45734H109.752V14.4002H109.46C109.821 13.2621 110.365 12.3811 111.092 11.7573C111.819 11.1335 112.757 10.8216 113.907 10.8216C114.847 10.8216 115.669 11.0288 116.372 11.4431C117.075 11.8526 117.619 12.4431 118.004 13.2145C118.389 13.9811 118.581 14.8978 118.581 15.9645V24.6431H114.933V16.6002C114.933 15.7526 114.714 15.0883 114.277 14.6073C113.845 14.1264 113.244 13.8859 112.474 13.8859C111.961 13.8859 111.503 13.9978 111.099 14.2216C110.7 14.4454 110.389 14.7692 110.166 15.1931C109.942 15.6169 109.831 16.1335 109.831 16.7431Z" fill="#A6A6A6"></path></g><defs><clipPath id="clip0_4158_504"><rect width="119" height="30" fill="white"></rect></clipPath></defs></svg>