<svg xmlns="http://www.w3.org/2000/svg" width="125" height="30" viewBox="0 0 125 30" fill="none"><path d="M30.101 10.0342C30.1011 8.01292 29.4908 6.03874 28.3499 4.37024C27.209 2.70174 25.5908 1.41671 23.7072 0.683476C21.8236 -0.0497643 19.7625 -0.19702 17.7939 0.260986C15.8251 0.718988 14.0406 1.76091 12.6741 3.25026H0V30H26.7599V17.4985C27.8101 16.5591 28.6506 15.4088 29.2264 14.1226C29.8021 12.8364 30.1001 11.4434 30.101 10.0342ZM24.9522 10.0342C24.9542 11.0027 24.6689 11.9501 24.1322 12.7565C23.5955 13.5627 22.8318 14.1918 21.9375 14.5637C21.0432 14.9359 20.0587 15.0343 19.1084 14.8465C18.1583 14.6588 17.2852 14.1934 16.5995 13.5092C15.914 12.825 15.4468 11.9528 15.2571 11.003C15.0674 10.0532 15.1638 9.06848 15.5339 8.1735C15.9041 7.27842 16.5315 6.51333 17.3366 5.97502C18.1419 5.4367 19.0887 5.14937 20.0572 5.14935C21.3537 5.14935 22.5972 5.66368 23.5149 6.57947C24.4326 7.49525 24.9496 8.73775 24.9522 10.0342ZM21.611 24.8511H5.14887V8.39911H10.1657C10.0688 8.9389 10.0179 9.48591 10.0133 10.0342C10.0161 12.6972 11.0752 15.2503 12.9582 17.1333C14.8411 19.0163 17.3942 20.0754 20.0572 20.078C20.5779 20.0753 21.0974 20.0311 21.611 19.946V24.8511Z" fill="#132C33"></path><path d="M44.3066 24.4055H39.3716V21.038H44.1266C45.3566 21.038 46.3866 20.818 47.2166 20.378C48.0516 19.943 48.6791 19.268 49.0991 18.353C49.5141 17.438 49.7216 16.268 49.7216 14.843C49.7216 13.423 49.5116 12.258 49.0916 11.348C48.6666 10.438 48.0416 9.76555 47.2166 9.33055C46.3916 8.89555 45.3691 8.67805 44.1491 8.67805H39.2816V5.31055H44.3816C46.2966 5.31055 47.9441 5.69305 49.3241 6.45805C50.7041 7.22305 51.7641 8.31555 52.5041 9.73555C53.2491 11.1605 53.6216 12.863 53.6216 14.843C53.6216 16.833 53.2491 18.543 52.5041 19.973C51.7641 21.398 50.6966 22.493 49.3016 23.258C47.9066 24.023 46.2416 24.4055 44.3066 24.4055ZM37.6016 5.31055H41.5091V24.4055H37.6016V5.31055ZM61.2341 24.6905C59.7741 24.6905 58.5141 24.3905 57.4541 23.7905C56.3941 23.1905 55.5791 22.3405 55.0091 21.2405C54.4441 20.1355 54.1616 18.828 54.1616 17.318C54.1616 15.838 54.4416 14.543 55.0016 13.433C55.5666 12.323 56.3666 11.4555 57.4016 10.8305C58.4366 10.2055 59.6491 9.89305 61.0391 9.89305C61.9791 9.89305 62.8566 10.043 63.6716 10.343C64.4816 10.643 65.1941 11.0955 65.8091 11.7005C66.4241 12.3005 66.9041 13.053 67.2491 13.958C67.5941 14.863 67.7666 15.9305 67.7666 17.1605V18.2405H55.7366V15.833H65.8841L64.0916 16.4705C64.0916 15.7255 63.9791 15.078 63.7541 14.528C63.5241 13.978 63.1866 13.5505 62.7416 13.2455C62.2916 12.9455 61.7341 12.7955 61.0691 12.7955C60.4091 12.7955 59.8466 12.948 59.3816 13.253C58.9166 13.563 58.5641 13.9805 58.3241 14.5055C58.0841 15.0305 57.9641 15.6305 57.9641 16.3055V18.008C57.9641 18.838 58.1041 19.5355 58.3841 20.1005C58.6591 20.6655 59.0466 21.088 59.5466 21.368C60.0466 21.648 60.6291 21.788 61.2941 21.788C61.7491 21.788 62.1591 21.7255 62.5241 21.6005C62.8941 21.4705 63.2091 21.2805 63.4691 21.0305C63.7291 20.7755 63.9291 20.4655 64.0691 20.1005L67.5491 20.753C67.3191 21.538 66.9191 22.228 66.3491 22.823C65.7741 23.418 65.0591 23.878 64.2041 24.203C63.3441 24.528 62.3541 24.6905 61.2341 24.6905ZM77.0966 24.4055H72.7316L67.4516 10.073H71.5391L73.9466 17.513C74.2366 18.443 74.4916 19.383 74.7116 20.333C74.9266 21.278 75.1491 22.2605 75.3791 23.2805H74.5616C74.7816 22.2605 74.9991 21.278 75.2141 20.333C75.4291 19.383 75.6816 18.443 75.9716 17.513L78.3566 10.073H82.3916L77.0966 24.4055ZM90.7466 24.6455C89.9716 24.6455 89.3141 24.513 88.7741 24.248C88.2341 23.988 87.7966 23.663 87.4616 23.273C87.1216 22.883 86.8641 22.4955 86.6891 22.1105H86.5091V24.4055H82.7216V5.31055H86.5691V12.488H86.6891C86.8641 12.108 87.1166 11.718 87.4466 11.318C87.7766 10.918 88.2116 10.5805 88.7516 10.3055C89.2866 10.0305 89.9616 9.89305 90.7766 9.89305C91.8366 9.89305 92.8066 10.168 93.6866 10.718C94.5666 11.263 95.2691 12.083 95.7941 13.178C96.3191 14.273 96.5816 15.6355 96.5816 17.2655C96.5816 18.8555 96.3241 20.2005 95.8091 21.3005C95.2991 22.3955 94.6041 23.228 93.7241 23.798C92.8441 24.363 91.8516 24.6455 90.7466 24.6455ZM89.5691 21.563C90.2341 21.563 90.7966 21.378 91.2566 21.008C91.7116 20.643 92.0566 20.1355 92.2916 19.4855C92.5266 18.8355 92.6441 18.0905 92.6441 17.2505C92.6441 16.4155 92.5266 15.678 92.2916 15.038C92.0566 14.398 91.7141 13.893 91.2641 13.523C90.8091 13.158 90.2441 12.9755 89.5691 12.9755C88.9091 12.9755 88.3491 13.153 87.8891 13.508C87.4291 13.858 87.0791 14.353 86.8391 14.993C86.5991 15.628 86.4791 16.3805 86.4791 17.2505C86.4791 18.1155 86.6016 18.8705 86.8466 19.5155C87.0916 20.1605 87.4441 20.663 87.9041 21.023C88.3641 21.383 88.9191 21.563 89.5691 21.563ZM102.499 24.5855C101.509 24.5855 100.642 24.3705 99.8966 23.9405C99.1566 23.5055 98.5816 22.8855 98.1716 22.0805C97.7666 21.2705 97.5641 20.3055 97.5641 19.1855V10.073H101.412V18.5255C101.412 19.4105 101.642 20.1055 102.102 20.6105C102.562 21.1155 103.194 21.368 103.999 21.368C104.549 21.368 105.032 21.2505 105.447 21.0155C105.867 20.7805 106.194 20.438 106.429 19.988C106.664 19.543 106.782 19.003 106.782 18.368V10.073H110.629V24.4055H106.999L106.947 20.828H107.164C106.789 22.033 106.214 22.9605 105.439 23.6105C104.669 24.2605 103.689 24.5855 102.499 24.5855ZM117.889 24.6905C116.739 24.6905 115.719 24.5255 114.829 24.1955C113.939 23.8655 113.212 23.3855 112.647 22.7555C112.087 22.1305 111.724 21.373 111.559 20.483L115.137 19.868C115.327 20.533 115.657 21.033 116.127 21.368C116.597 21.703 117.224 21.8705 118.009 21.8705C118.734 21.8705 119.312 21.7305 119.742 21.4505C120.167 21.1755 120.379 20.823 120.379 20.393C120.379 20.018 120.227 19.7105 119.922 19.4705C119.622 19.2305 119.159 19.048 118.534 18.923L116.059 18.4055C114.674 18.1255 113.642 17.6455 112.962 16.9655C112.277 16.2855 111.934 15.4105 111.934 14.3405C111.934 13.4205 112.187 12.628 112.692 11.963C113.192 11.303 113.892 10.793 114.792 10.433C115.687 10.073 116.742 9.89305 117.957 9.89305C119.087 9.89305 120.064 10.0505 120.889 10.3655C121.719 10.6755 122.392 11.118 122.907 11.693C123.417 12.263 123.757 12.938 123.927 13.718L120.522 14.318C120.377 13.833 120.097 13.433 119.682 13.118C119.267 12.808 118.709 12.653 118.009 12.653C117.374 12.653 116.844 12.7855 116.419 13.0505C115.989 13.3155 115.774 13.6655 115.774 14.1005C115.774 14.4655 115.914 14.773 116.194 15.023C116.474 15.273 116.952 15.4655 117.627 15.6005L120.199 16.1105C121.584 16.3955 122.614 16.8555 123.289 17.4905C123.964 18.1255 124.302 18.9555 124.302 19.9805C124.302 20.9205 124.029 21.743 123.484 22.448C122.934 23.153 122.179 23.703 121.219 24.098C120.259 24.493 119.149 24.6905 117.889 24.6905Z" fill="#132C33"></path></svg>