<svg xmlns="http://www.w3.org/2000/svg" width="122" height="30" viewBox="0 0 122 30" fill="none"><g clip-path="url(#clip0_4158_516)"><path fill-rule="evenodd" clip-rule="evenodd" d="M14.269 0.713867C19.6033 0.713867 22.2706 0.713721 24.2573 1.86202C25.5588 2.61432 26.6398 3.69656 27.3912 4.99958C28.5382 6.98858 28.538 9.65901 28.538 14.9996C28.538 20.3402 28.5382 23.0106 27.3912 24.9996C26.6398 26.3026 25.5588 27.3849 24.2573 28.1372C22.2706 29.2854 19.6033 29.2853 14.269 29.2853C8.93468 29.2853 6.26738 29.2854 4.2807 28.1372C2.9792 27.3849 1.89823 26.3026 1.14681 24.9996C-0.000146201 23.0106 0 20.3402 0 14.9996C0 9.65901 -0.000146201 6.98858 1.14681 4.99958C1.89823 3.69656 2.9792 2.61432 4.2807 1.86202C6.26738 0.713721 8.93468 0.713867 14.269 0.713867ZM15.6959 3.57101C9.39143 3.57101 4.2807 8.68772 4.2807 14.9996C4.2807 21.3114 9.39143 26.4282 15.6959 26.4282C22.0004 26.4282 27.1111 21.3114 27.1111 14.9996C27.1111 8.68772 22.0004 3.57101 15.6959 3.57101Z" fill="#A6A6A6"></path><path d="M25.6831 14.9993C25.6831 18.9442 22.4888 22.1422 18.5486 22.1422C14.6083 22.1422 11.4141 18.9442 11.4141 14.9993C11.4141 11.0544 14.6083 7.85645 18.5486 7.85645C22.4888 7.85645 25.6831 11.0544 25.6831 14.9993Z" fill="#A6A6A6"></path><path d="M41.8087 24.2853H37.6992L43.9062 6.09961H48.7791L55.1431 24.2853H51.0122L48.1013 15.5068C47.7494 14.3782 47.3926 13.1401 47.0311 11.7925C46.6697 10.4448 46.2892 8.97342 45.8896 7.37818H46.6958C46.3153 8.98294 45.9562 10.4615 45.6185 11.8139C45.2808 13.171 44.9455 14.402 44.6126 15.5068L41.8087 24.2853ZM51.269 20.0639H41.5733V17.1425H51.269V20.0639ZM66.9578 24.2853H55.5854V22.0639L62.299 13.6925V13.5925H55.7923V10.6353H66.7295V13.0639L60.3869 21.2353V21.3282H66.9578V24.2853ZM74.5133 24.5568C73.1244 24.5568 71.9258 24.271 70.9175 23.6996C69.9091 23.1282 69.1362 22.3187 68.5988 21.271C68.0565 20.2187 67.7854 18.9734 67.7854 17.5353C67.7854 16.1258 68.0542 14.8925 68.5916 13.8353C69.1291 12.7782 69.8877 11.952 70.8675 11.3568C71.8521 10.7615 73.0079 10.4639 74.3349 10.4639C75.2291 10.4639 76.0614 10.6068 76.832 10.8925C77.6073 11.1782 78.2874 11.6091 78.8724 12.1853C79.4575 12.7568 79.9141 13.4734 80.2423 14.3353C80.5704 15.1972 80.7345 16.2139 80.7345 17.3853V18.4139H69.2837V16.121H78.9438L77.2386 16.7282C77.2386 16.0187 77.1292 15.402 76.9104 14.8782C76.6964 14.3544 76.3754 13.9472 75.9473 13.6568C75.524 13.371 74.9936 13.2282 74.3563 13.2282C73.7332 13.2282 73.2005 13.3734 72.7582 13.6639C72.3111 13.9591 71.9757 14.3568 71.7522 14.8568C71.5239 15.3568 71.4097 15.9282 71.4097 16.571V18.1925C71.4097 18.9829 71.5405 19.6472 71.8021 20.1853C72.0685 20.7234 72.4395 21.1258 72.9151 21.3925C73.3908 21.6591 73.9449 21.7925 74.5775 21.7925C75.0103 21.7925 75.4003 21.7329 75.7475 21.6139C76.0995 21.4901 76.3991 21.3091 76.6465 21.071C76.8938 20.8282 77.0817 20.5329 77.2101 20.1853L80.5276 20.8068C80.3089 21.5544 79.926 22.2115 79.379 22.7782C78.8368 23.3448 78.1566 23.7829 77.3385 24.0925C76.5204 24.402 75.5787 24.5568 74.5133 24.5568ZM85.2721 16.3853V24.2853H81.6121V10.6353H85.0652L85.1223 14.0425H84.9011C85.2626 12.9044 85.8048 12.0234 86.5278 11.3996C87.2555 10.7758 88.1972 10.4639 89.353 10.4639C90.2948 10.4639 91.1152 10.671 91.8144 11.0853C92.5136 11.4948 93.0582 12.0853 93.4482 12.8568C93.8382 13.6234 94.0333 14.5401 94.0333 15.6068V24.2853H90.3804V16.2425C90.3804 15.3948 90.1616 14.7306 89.724 14.2496C89.2912 13.7687 88.6871 13.5282 87.9119 13.5282C87.4029 13.5282 86.9463 13.6401 86.542 13.8639C86.1425 14.0877 85.831 14.4115 85.6074 14.8353C85.3839 15.2591 85.2721 15.7758 85.2721 16.3853ZM100.519 24.5139C99.4721 24.5139 98.528 24.2448 97.6861 23.7068C96.8442 23.1639 96.1807 22.371 95.6956 21.3282C95.2057 20.2806 94.9607 18.9996 94.9607 17.4853C94.9607 15.9329 95.2128 14.6353 95.717 13.5925C96.2212 12.5496 96.8918 11.7687 97.7289 11.2496C98.566 10.7258 99.4888 10.4639 100.497 10.4639C101.268 10.4639 101.91 10.5948 102.423 10.8568C102.937 11.1187 103.351 11.4401 103.665 11.821C103.984 12.202 104.219 12.5734 104.371 12.9353H104.492V6.09961H108.152V24.2853H104.557V22.0996H104.371C104.209 22.4663 103.969 22.8353 103.651 23.2068C103.327 23.5782 102.909 23.8877 102.395 24.1353C101.886 24.3877 101.261 24.5139 100.519 24.5139ZM101.646 21.5782C102.259 21.5782 102.787 21.4068 103.23 21.0639C103.667 20.721 104 20.2425 104.228 19.6282C104.457 19.0139 104.571 18.2948 104.571 17.471C104.571 16.6425 104.459 15.9258 104.236 15.321C104.012 14.7115 103.679 14.2401 103.237 13.9068C102.799 13.5687 102.269 13.3996 101.646 13.3996C101.004 13.3996 100.464 13.5734 100.026 13.921C99.5934 14.2734 99.2676 14.7544 99.0488 15.3639C98.8253 15.9734 98.7135 16.6758 98.7135 17.471C98.7135 18.271 98.8253 18.9806 99.0488 19.5996C99.2724 20.2187 99.6029 20.702 100.041 21.0496C100.473 21.402 101.008 21.5782 101.646 21.5782ZM113.453 24.5568C112.592 24.5568 111.82 24.4044 111.135 24.0996C110.445 23.7901 109.903 23.3329 109.508 22.7282C109.118 22.1234 108.923 21.3687 108.923 20.4639C108.923 19.7068 109.063 19.071 109.344 18.5568C109.625 18.0472 110.005 17.6377 110.485 17.3282C110.971 17.0187 111.52 16.7829 112.133 16.621C112.747 16.4591 113.392 16.3448 114.067 16.2782C114.856 16.1972 115.491 16.121 115.972 16.0496C116.457 15.9829 116.811 15.8734 117.035 15.721C117.258 15.5734 117.37 15.352 117.37 15.0568V14.9925C117.37 14.602 117.289 14.2734 117.128 14.0068C116.966 13.7401 116.726 13.5353 116.407 13.3925C116.088 13.2496 115.698 13.1782 115.237 13.1782C114.766 13.1782 114.355 13.2496 114.003 13.3925C113.656 13.5353 113.373 13.7234 113.154 13.9568C112.93 14.1948 112.766 14.4591 112.661 14.7496L109.308 14.1925C109.546 13.402 109.936 12.7306 110.478 12.1782C111.025 11.621 111.703 11.1972 112.512 10.9068C113.32 10.6115 114.229 10.4639 115.237 10.4639C115.974 10.4639 116.69 10.552 117.384 10.7282C118.074 10.9044 118.692 11.1758 119.239 11.5425C119.791 11.9091 120.226 12.3853 120.545 12.971C120.868 13.5568 121.03 14.2639 121.03 15.0925V24.2853H117.563V22.3925H117.442C117.223 22.8163 116.93 23.1877 116.564 23.5068C116.198 23.8306 115.758 24.0853 115.244 24.271C114.726 24.4615 114.129 24.5568 113.453 24.5568ZM114.495 21.9782C115.071 21.9782 115.575 21.8639 116.008 21.6353C116.445 21.4068 116.785 21.0972 117.028 20.7068C117.27 20.3163 117.392 19.8806 117.392 19.3996V17.9282C117.287 18.0091 117.125 18.0806 116.906 18.1425C116.688 18.2091 116.443 18.2663 116.172 18.3139C115.905 18.3663 115.641 18.4115 115.38 18.4496C115.123 18.4925 114.892 18.5258 114.688 18.5496C114.241 18.6115 113.846 18.7163 113.503 18.8639C113.161 19.0115 112.897 19.2044 112.711 19.4425C112.526 19.6853 112.433 19.9925 112.433 20.3639C112.433 20.7163 112.521 21.0115 112.697 21.2496C112.878 21.4925 113.12 21.6734 113.425 21.7925C113.729 21.9163 114.086 21.9782 114.495 21.9782Z" fill="#A6A6A6"></path></g><defs><clipPath id="clip0_4158_516"><rect width="122" height="30" fill="white"></rect></clipPath></defs></svg>