<svg xmlns="http://www.w3.org/2000/svg" width="151" height="30" viewBox="0 0 151 30" fill="none"><path d="M13.9156 1.3186C21.6018 1.3186 27.8326 7.56579 27.8326 15.2721V25.0396C27.8326 27.3514 25.9634 29.2256 23.6575 29.2256H14.6114V23.1043C14.6114 21.7075 14.6966 20.2608 15.4273 19.0714C16.4641 17.3838 18.1961 16.1771 20.2314 15.8437L20.498 15.8001C20.723 15.7227 20.8741 15.5106 20.8741 15.2721C20.8741 15.0336 20.723 14.8215 20.498 14.7441L20.2314 14.7005C17.2807 14.2172 14.9677 11.8982 14.4857 8.93968L14.4422 8.67247C14.365 8.44685 14.1534 8.29538 13.9156 8.29538C13.6777 8.29538 13.4661 8.44685 13.389 8.67247L13.3455 8.93968C13.013 10.9804 11.8093 12.7168 10.1261 13.7564C8.93996 14.4891 7.49697 14.5745 6.10382 14.5745H0.015625C0.378185 7.19225 6.46274 1.3186 13.9156 1.3186Z" fill="#A6A6A6"></path><path d="M0 15.9697H6.10528C7.49844 15.9697 8.94136 16.0551 10.1275 16.7877C11.0538 17.3597 11.8348 18.1428 12.4054 19.0714C13.136 20.2608 13.2212 21.7074 13.2212 23.1042V29.2255H4.17512C1.86926 29.2255 0 27.3514 0 25.0395V15.9697Z" fill="#A6A6A6"></path><path d="M27.8342 2.71395C27.8342 3.48458 27.2111 4.1093 26.4425 4.1093C25.6738 4.1093 25.0508 3.48458 25.0508 2.71395C25.0508 1.94332 25.6738 1.3186 26.4425 1.3186C27.2111 1.3186 27.8342 1.94332 27.8342 2.71395Z" fill="#A6A6A6"></path><path d="M47.7222 24.0695H42.9765L36.7695 6.30669H40.7985L43.6306 14.8741C43.9693 15.9578 44.3149 17.1485 44.6675 18.4462C45.0154 19.7485 45.3819 21.1695 45.7669 22.709H44.9875C45.3679 21.1509 45.7228 19.7276 46.0522 18.4392C46.3862 17.1462 46.7156 15.9578 47.0403 14.8741L49.775 6.30669H53.7831L47.7222 24.0695ZM60.3102 24.3346C58.9556 24.3346 57.7866 24.0555 56.8031 23.4974C55.8197 22.9392 55.0658 22.1485 54.5416 21.1253C54.0128 20.0974 53.7483 18.8811 53.7483 17.4765C53.7483 16.0997 54.0104 14.8951 54.5346 13.8625C55.0589 12.8299 55.7988 12.023 56.7544 11.4416C57.7147 10.8602 58.842 10.5695 60.1363 10.5695C61.0084 10.5695 61.8202 10.709 62.5717 10.9881C63.3233 11.2672 63.9843 11.6881 64.5549 12.2509C65.1255 12.809 65.5732 13.509 65.8979 14.3509C66.218 15.1927 66.3781 16.1858 66.3781 17.3299V18.3346H55.2096V16.0951H64.6315L62.9614 16.6881C62.9614 15.9951 62.857 15.3927 62.6483 14.8811C62.4395 14.3695 62.1264 13.9718 61.7089 13.6881C61.2914 13.409 60.7741 13.2695 60.1571 13.2695C59.5494 13.2695 59.0275 13.4113 58.5915 13.6951C58.16 13.9834 57.833 14.3718 57.6103 14.8602C57.3923 15.3485 57.2833 15.9067 57.2833 16.5346V18.1183C57.2833 18.8904 57.4108 19.5392 57.666 20.0648C57.9258 20.5904 58.2876 20.9834 58.7515 21.2439C59.2154 21.5044 59.7559 21.6346 60.3728 21.6346C60.7904 21.6346 61.1708 21.5765 61.514 21.4602C61.8527 21.3392 62.145 21.1625 62.3908 20.9299C62.632 20.6927 62.8153 20.4044 62.9405 20.0648L66.1763 20.6718C65.9629 21.402 65.5894 22.0439 65.0559 22.5974C64.5271 23.1509 63.8637 23.5788 63.0658 23.8811C62.2679 24.1834 61.3494 24.3346 60.3102 24.3346ZM70.7967 16.3532V24.0695H67.234V10.7369H70.5949L70.6576 14.0648H70.4418C70.7898 12.9532 71.3186 12.0927 72.0284 11.4834C72.7381 10.8741 73.6567 10.5695 74.784 10.5695C75.7025 10.5695 76.5027 10.7718 77.1846 11.1765C77.8666 11.5765 78.3977 12.1532 78.7781 12.9067C79.1585 13.6555 79.3487 14.5509 79.3487 15.5927V24.0695H75.786V16.2137C75.786 15.3858 75.5726 14.7369 75.1458 14.2672C74.7236 13.7974 74.1345 13.5625 73.3783 13.5625C72.882 13.5625 72.4366 13.6718 72.0423 13.8904C71.648 14.109 71.3418 14.4253 71.1238 14.8392C70.9057 15.2532 70.7967 15.7578 70.7967 16.3532ZM85.674 24.2927C84.6535 24.2927 83.7326 24.0299 82.9115 23.5044C82.0904 22.9741 81.4409 22.1997 80.9631 21.1811C80.4899 20.1578 80.2534 18.9067 80.2534 17.4276C80.2534 15.9113 80.4992 14.6439 80.991 13.6253C81.4827 12.6067 82.1368 11.8439 82.9533 11.3369C83.7697 10.8253 84.6697 10.5695 85.6532 10.5695C86.4047 10.5695 87.031 10.6974 87.532 10.9532C88.0283 11.209 88.4319 11.523 88.7428 11.8951C89.0536 12.2672 89.2832 12.6299 89.4316 12.9834H89.5499V6.30669H93.1197V24.0695H89.6126V21.9346H89.4316C89.2739 22.2927 89.0396 22.6532 88.7288 23.016C88.4134 23.3788 88.0052 23.6811 87.5041 23.923C87.0078 24.1695 86.3977 24.2927 85.674 24.2927ZM86.7665 21.4253C87.3696 21.4253 87.8869 21.2578 88.3183 20.923C88.7451 20.5881 89.0698 20.1206 89.2925 19.5206C89.5151 18.9206 89.6265 18.2183 89.6265 17.4137C89.6265 16.6044 89.5175 15.9044 89.2994 15.3137C89.0814 14.7183 88.7567 14.2578 88.3252 13.9323C87.8985 13.602 87.3789 13.4369 86.7665 13.4369C86.1403 13.4369 85.6161 13.6067 85.1939 13.9462C84.7718 14.2904 84.4517 14.7602 84.2336 15.3555C84.0202 15.9509 83.9135 16.6369 83.9135 17.4137C83.9135 18.1951 84.0226 18.8881 84.2406 19.4927C84.4586 20.0974 84.781 20.5695 85.2078 20.909C85.63 21.2532 86.1496 21.4253 86.7665 21.4253ZM105.339 24.3346C103.924 24.3346 102.69 24.116 101.637 23.6788C100.588 23.2416 99.7697 22.5927 99.1805 21.7323C98.596 20.8718 98.2875 19.8137 98.2551 18.5578H101.783C101.834 19.1578 102.013 19.6578 102.319 20.0578C102.63 20.4578 103.043 20.7578 103.557 20.9578C104.072 21.1578 104.655 21.2578 105.304 21.2578C105.954 21.2578 106.519 21.1648 107.002 20.9788C107.48 20.7881 107.853 20.523 108.122 20.1834C108.391 19.8392 108.526 19.4416 108.526 18.9904C108.526 18.5858 108.405 18.2462 108.164 17.9718C107.923 17.6974 107.577 17.4602 107.127 17.2602C106.673 17.0602 106.121 16.8858 105.471 16.7369L103.523 16.2485C102.024 15.8811 100.851 15.3067 100.002 14.5253C99.1527 13.7439 98.7282 12.709 98.7282 11.4206C98.7282 10.3462 99.0159 9.40669 99.5911 8.60203C100.166 7.80203 100.955 7.17878 101.957 6.73227C102.959 6.28576 104.103 6.0625 105.388 6.0625C106.696 6.0625 107.837 6.28808 108.811 6.73924C109.79 7.19041 110.553 7.81366 111.101 8.60901C111.643 9.40901 111.924 10.3299 111.942 11.3718H108.435C108.37 10.6555 108.067 10.102 107.524 9.71134C106.981 9.32529 106.257 9.13227 105.353 9.13227C104.745 9.13227 104.223 9.21831 103.787 9.39041C103.351 9.56715 103.017 9.80901 102.785 10.116C102.553 10.4276 102.437 10.7834 102.437 11.1834C102.437 11.6206 102.572 11.9834 102.841 12.2718C103.105 12.5602 103.453 12.7951 103.885 12.9765C104.316 13.1532 104.782 13.302 105.283 13.423L106.891 13.8137C107.633 13.9811 108.326 14.209 108.971 14.4974C109.611 14.7811 110.173 15.1323 110.655 15.5509C111.142 15.9695 111.518 16.4648 111.782 17.0369C112.047 17.609 112.179 18.2671 112.179 19.0113C112.179 20.0858 111.91 21.023 111.372 21.823C110.834 22.623 110.052 23.2416 109.027 23.6788C108.006 24.116 106.777 24.3346 105.339 24.3346ZM116.841 24.3346C116.002 24.3346 115.245 24.1858 114.573 23.8881C113.905 23.5858 113.378 23.1392 112.993 22.5485C112.608 21.9578 112.416 21.2206 112.416 20.3369C112.416 19.5974 112.553 18.9765 112.826 18.4741C113.1 17.9765 113.473 17.5765 113.947 17.2741C114.415 16.9718 114.949 16.7416 115.547 16.5834C116.145 16.4253 116.774 16.3137 117.433 16.2485C118.203 16.1695 118.824 16.0951 119.298 16.0253C119.766 15.9602 120.109 15.8532 120.327 15.7044C120.546 15.5602 120.655 15.3439 120.655 15.0555V14.9927C120.655 14.6113 120.576 14.2904 120.418 14.0299C120.26 13.7695 120.026 13.5695 119.715 13.4299C119.409 13.2904 119.029 13.2206 118.574 13.2206C118.115 13.2206 117.716 13.2904 117.377 13.4299C117.034 13.5695 116.755 13.7532 116.542 13.9811C116.329 14.2137 116.171 14.4718 116.069 14.7555L112.798 14.2113C113.026 13.4392 113.406 12.7834 113.94 12.2439C114.468 11.6997 115.127 11.2858 115.916 11.002C116.704 10.7137 117.59 10.5695 118.574 10.5695C119.298 10.5695 119.996 10.6555 120.668 10.8276C121.341 10.9997 121.947 11.2648 122.485 11.623C123.018 11.9811 123.443 12.4462 123.758 13.0183C124.069 13.5904 124.224 14.2811 124.224 15.0904V24.0695H120.849V22.2206H120.731C120.518 22.6346 120.232 22.9974 119.875 23.309C119.518 23.6253 119.087 23.8741 118.581 24.0555C118.08 24.2416 117.5 24.3346 116.841 24.3346ZM117.85 21.816C118.412 21.816 118.906 21.7044 119.332 21.4811C119.755 21.2578 120.086 20.9555 120.327 20.5741C120.564 20.1927 120.682 19.7671 120.682 19.2974V17.8602C120.58 17.9392 120.42 18.009 120.202 18.0695C119.989 18.1346 119.752 18.1904 119.492 18.2369C119.233 18.2881 118.975 18.3323 118.72 18.3695C118.465 18.4113 118.238 18.4439 118.038 18.4671C117.602 18.5276 117.219 18.6299 116.89 18.7741C116.556 18.9183 116.299 19.1067 116.118 19.3392C115.932 19.5765 115.839 19.8765 115.839 20.2392C115.839 20.5834 115.927 20.8718 116.104 21.1044C116.275 21.3416 116.512 21.5183 116.813 21.6346C117.11 21.7555 117.456 21.816 117.85 21.816ZM129.255 16.3532V24.0695H125.686V10.7369H129.053L129.109 14.0648H128.9C129.248 12.9532 129.777 12.0927 130.487 11.4834C131.197 10.8741 132.113 10.5695 133.236 10.5695C134.159 10.5695 134.961 10.7718 135.643 11.1765C136.321 11.5765 136.852 12.1532 137.237 12.9067C137.617 13.6555 137.807 14.5509 137.807 15.5927V24.0695H134.238V16.2137C134.238 15.3858 134.024 14.7369 133.597 14.2672C133.175 13.7974 132.588 13.5625 131.837 13.5625C131.336 13.5625 130.888 13.6718 130.494 13.8904C130.104 14.109 129.8 14.4253 129.582 14.8392C129.364 15.2532 129.255 15.7578 129.255 16.3532ZM144.543 24.3346C143.476 24.3346 142.53 24.1811 141.704 23.8741C140.878 23.5672 140.203 23.1206 139.679 22.5346C139.16 21.9532 138.823 21.2485 138.67 20.4206L141.989 19.8485C142.161 20.4672 142.465 20.9323 142.901 21.2439C143.337 21.5555 143.922 21.7113 144.655 21.7113C145.327 21.7113 145.861 21.5811 146.255 21.3206C146.654 21.0648 146.853 20.7369 146.853 20.3369C146.853 19.9881 146.712 19.702 146.429 19.4788C146.151 19.2555 145.721 19.0858 145.142 18.9695L142.845 18.4881C141.56 18.2276 140.6 17.7811 139.964 17.1485C139.334 16.516 139.018 15.702 139.018 14.7067C139.018 13.8509 139.25 13.1137 139.714 12.4951C140.182 11.8811 140.834 11.4067 141.669 11.0718C142.5 10.7369 143.479 10.5695 144.606 10.5695C145.65 10.5695 146.557 10.716 147.327 11.009C148.097 11.2974 148.721 11.709 149.198 12.2439C149.672 12.7741 149.987 13.402 150.145 14.1276L146.986 14.6858C146.851 14.2346 146.591 13.8625 146.206 13.5695C145.821 13.2811 145.304 13.1369 144.655 13.1369C144.065 13.1369 143.574 13.2602 143.179 13.5067C142.78 13.7532 142.581 14.0788 142.581 14.4834C142.581 14.823 142.711 15.109 142.971 15.3416C143.226 15.5741 143.666 15.7532 144.293 15.8788L146.686 16.3532C147.971 16.6183 148.927 17.0462 149.553 17.6369C150.18 18.2276 150.493 18.9997 150.493 19.9532C150.493 20.8276 150.238 21.5927 149.727 22.2485C149.222 22.9044 148.523 23.416 147.633 23.7834C146.742 24.1509 145.712 24.3346 144.543 24.3346Z" fill="#A6A6A6"></path></svg>