<svg xmlns="http://www.w3.org/2000/svg" width="45" height="50" viewBox="0 0 45 50" fill="none"><path fill-rule="evenodd" clip-rule="evenodd" d="M45 27.5519V30.5899L41.2714 32.0217C40.7987 34.0038 40.011 35.8967 38.9404 37.6316L40.5632 41.2769L36.2569 45.5734L32.6043 43.9547C30.8652 45.0235 28.9671 45.8093 26.98 46.2809L25.5451 50H19.4551L18.0199 46.28C16.0333 45.8083 14.1359 45.0225 12.3971 43.9543L8.74335 45.5734L4.43694 41.277L6.05923 37.6328C4.98804 35.8978 4.20062 34.0039 3.72778 32.0215L0 30.5899V27.5519H10.5542C10.5542 34.1339 15.9026 39.4701 22.5 39.4701C29.0974 39.4701 34.4458 34.134 34.4458 27.5519H45ZM7.4151 9.32488C9.4977 9.32488 11.1859 11.0093 11.1859 13.087C11.1859 15.1648 9.4977 16.8491 7.4151 16.8491C5.3325 16.8491 3.64429 15.1648 3.64429 13.087C3.64429 11.0092 5.3325 9.32488 7.4151 9.32488ZM0.978958 24.514H13.8511C14.3889 24.514 14.7792 24.0147 14.648 23.4943C13.8341 20.2648 10.9045 17.8737 7.4151 17.8737C3.92559 17.8737 0.996109 20.2648 0.182194 23.4943C0.0509405 24.0147 0.441209 24.514 0.978958 24.514ZM19.572 10.6967C19.2122 10.969 18.6992 10.8987 18.4262 10.5398C18.1532 10.1809 18.2237 9.66906 18.5835 9.3967L26.5971 3.32593C26.84 3.14211 27.1527 3.11444 27.4143 3.22623L27.4155 3.22346L34.9446 6.45359L40.247 1.64078L39.3799 1.64396C38.9279 1.64396 38.5615 1.27836 38.5615 0.827409C38.5615 0.376458 38.9279 0.0108613 39.3799 0.0108613L42.374 0C42.8912 0 43.275 0.471341 43.1773 0.973013L42.5988 3.90383C42.5119 4.34771 42.0809 4.63728 41.636 4.5506C41.1911 4.46391 40.9009 4.03386 40.9877 3.58998L41.0865 3.09118L35.6861 7.99293C35.4556 8.22306 35.0991 8.30268 34.7811 8.1664L27.2035 4.91548L19.572 10.6967ZM25.8263 10.9794H28.3564C28.6958 10.9794 28.9726 11.2555 28.9726 11.5942V23.8992C28.9726 24.2378 28.6958 24.514 28.3564 24.514H25.8263C25.4869 24.514 25.2101 24.2378 25.2101 23.8992V11.5942C25.2102 11.2556 25.487 10.9794 25.8263 10.9794ZM17.8128 17.3126H20.3427C20.6822 17.3126 20.959 17.5887 20.959 17.9274V23.8992C20.959 24.2378 20.6822 24.514 20.3427 24.514H17.8128C17.4733 24.514 17.1966 24.2378 17.1966 23.8992V17.9274C17.1966 17.5887 17.4733 17.3126 17.8128 17.3126ZM41.8537 6.05541C41.5143 6.05541 41.2375 6.33155 41.2375 6.6702V23.8992C41.2375 24.2378 41.5143 24.514 41.8537 24.514H44.3838C44.7232 24.514 45 24.2378 45 23.8992V6.6702C45 6.33155 44.7232 6.05541 44.3838 6.05541H41.8537ZM33.8401 13.5395H36.3701C36.7096 13.5395 36.9864 13.8156 36.9864 14.1543V23.8993C36.9864 24.2379 36.7096 24.5141 36.3701 24.5141C35.5268 24.5141 34.6835 24.5141 33.8401 24.5141C33.5006 24.5141 33.2239 24.2379 33.2239 23.8993C33.2239 20.4533 33.2239 17.6003 33.2239 14.1543C33.2239 13.8156 33.5006 13.5395 33.8401 13.5395ZM12.1974 27.5519C12.1974 33.2289 16.8099 37.8307 22.5 37.8307C28.1901 37.8307 32.8026 33.2289 32.8026 27.5519H12.1974Z" fill="#0E5C64"></path></svg>