<svg xmlns="http://www.w3.org/2000/svg" width="50" height="50" viewBox="0 0 50 50" fill="none"><g clip-path="url(#clip0_4158_437)"><path d="M49.3402 18.1874C45.1079 9.01356 36.0184 2.89501 25.7326 2.61748V0.732421C25.7326 0.327929 25.4047 0 25.0002 0C24.5957 0 24.2678 0.327929 24.2678 0.732421V2.61738C13.951 2.8958 4.88042 9.03953 0.660016 18.1874C0.264216 19.0452 1.21158 19.9013 2.02788 19.4281C5.13296 17.6276 9.13402 18.4916 11.2204 21.4617C11.5598 21.9448 12.3448 22.1038 12.8692 21.3689C15.6804 17.5056 21.431 17.5396 24.1938 21.4386C24.1992 21.4463 24.205 21.4539 24.2104 21.4616C24.228 21.4868 24.2478 21.5101 24.2675 21.5333V33.3193L24.0333 33.4977C23.5189 33.8897 23.1749 34.4823 23.0898 35.1234L21.6365 46.0644C20.2023 46.5883 18.6733 45.512 18.6733 43.981C18.6733 42.9324 17.8203 42.0795 16.7718 42.0795C15.7233 42.0795 14.8703 42.9325 14.8703 43.981C14.8703 47.2999 17.5705 50.0001 20.8895 50.0001C21.5247 50.0001 22.1472 49.8999 22.7456 49.7049C23.0994 49.8961 23.4986 50.0001 23.9099 50.0001H38.6646C40.1452 50.0001 41.2873 48.6947 41.0924 47.2285L40.407 42.0684C40.3538 41.6674 39.9862 41.3859 39.5845 41.4388C39.1835 41.492 38.9015 41.8603 38.9549 42.2612L39.6402 47.4214C39.7186 48.0119 39.2613 48.5352 38.6645 48.5352H23.9099C23.2935 48.5352 22.8593 47.9853 22.9342 47.4214C22.9361 47.4067 24.5188 35.4915 24.542 35.3165C24.5763 35.0589 24.7145 34.8207 24.9212 34.6633L28.4269 31.9924H34.1477L37.6534 34.6633C37.8601 34.8208 37.9983 35.059 38.0326 35.3165L38.501 38.8431C38.5542 39.2441 38.9225 39.5259 39.3235 39.4727C39.7245 39.4195 40.0064 39.0512 39.9531 38.6501L39.4847 35.1235C39.3996 34.4825 39.0557 33.8899 38.5412 33.4978L35.9126 31.4952C36.2046 31.1971 36.3853 30.7897 36.3853 30.3404V29.9782C36.3853 29.6381 36.2819 29.3218 36.1051 29.0587C36.2819 28.7957 36.3853 28.4795 36.3853 28.1393V27.7771C36.3853 26.9346 35.751 26.2387 34.935 26.1388L35.4764 24.1216C35.689 23.3298 35.0933 22.5518 34.2724 22.5518H32.9962C32.5917 22.5518 32.2638 22.8797 32.2638 23.2842C32.2638 23.6887 32.5917 24.0167 32.9962 24.0167H33.9878L33.422 26.125H29.1504L28.5846 24.0167H29.5782C29.9827 24.0167 30.3106 23.6887 30.3106 23.2842C30.3106 22.8797 29.9827 22.5518 29.5782 22.5518H28.3088C27.4846 22.5518 26.8843 23.3331 27.0981 24.1301L27.6373 26.139C26.8223 26.2398 26.189 26.9351 26.189 27.7769V28.1391C26.189 28.4791 26.2924 28.7955 26.4692 29.0585C26.2924 29.3215 26.189 29.6377 26.189 29.978V30.3402C26.189 30.7894 26.3697 31.1969 26.6617 31.495L25.7322 32.2031V21.5332C25.7519 21.5102 25.7714 21.4871 25.7889 21.4622L25.789 21.4621C25.7891 21.462 25.7892 21.4619 25.7893 21.4618C25.7942 21.4547 25.7994 21.4479 25.8044 21.4409C28.6057 17.4912 34.4377 17.5334 37.2004 21.462C37.5824 22.0053 38.3943 22.0096 38.7793 21.4618C40.8641 18.4939 44.8638 17.6261 47.972 19.4282C48.7901 19.9019 49.7354 19.0441 49.3402 18.1874ZM20.8896 48.535C18.3783 48.535 16.3354 46.492 16.3354 43.9808C16.3354 43.7401 16.5312 43.5443 16.7719 43.5443C17.0126 43.5443 17.2084 43.7401 17.2084 43.9808C17.2084 46.0105 18.8597 47.6618 20.8894 47.6618C21.0808 47.6618 21.272 47.6465 21.4609 47.6163C21.4682 47.9156 21.5434 48.2385 21.6391 48.4731C21.3929 48.5143 21.1426 48.535 20.8896 48.535ZM11.6733 19.7024C9.37289 17.2455 5.81499 16.3699 2.61431 17.5418C6.14975 10.8826 12.4828 6.17899 19.7422 4.62773C15.5539 7.97391 13.017 14.5304 11.6733 19.7024ZM24.2677 19.3043C21.2652 16.4956 16.7224 16.2754 13.4653 18.7032C15.0416 13.2446 18.6362 4.85185 24.2677 4.11982V19.3043ZM34.9207 30.3403C34.9207 30.4415 34.8351 30.5272 34.7339 30.5272C33.9682 30.5272 28.5296 30.5272 27.8411 30.5272C27.7398 30.5272 27.6542 30.4416 27.6542 30.3403V29.9781C27.6542 29.8768 27.7397 29.7912 27.8411 29.7912H34.7339C34.8351 29.7912 34.9207 29.8767 34.9207 29.9781V30.3403ZM27.654 27.7771C27.654 27.6758 27.7396 27.5902 27.8409 27.5902C28.5171 27.5902 34.0604 27.5902 34.7337 27.5902C34.8349 27.5902 34.9205 27.6757 34.9205 27.7771V28.1393C34.9205 28.2406 34.8349 28.3262 34.7337 28.3262H27.8409C27.7397 28.3262 27.654 28.2407 27.654 28.1393V27.7771ZM25.7326 19.3074V4.11982C31.3514 4.85009 34.9415 13.1852 36.535 18.7031C33.2085 16.2295 28.6816 16.5488 25.7326 19.3074ZM38.327 19.7024C36.9796 14.5165 34.4378 7.96707 30.258 4.62773C37.5174 6.17909 43.8504 10.8826 47.3859 17.5419C44.1863 16.3702 40.628 17.2449 38.327 19.7024Z" fill="#0E5C64"></path><path d="M31.7918 39.5966V37.5724C32.5624 37.6299 32.827 37.9979 33.1491 37.9979C33.5746 37.9979 33.7585 37.4689 33.7585 37.2042C33.7585 36.5371 32.5394 36.3186 31.7918 36.2956V35.9966C31.7918 35.8471 31.5963 35.7091 31.4008 35.7091C31.1823 35.7091 31.0098 35.8471 31.0098 35.9966V36.3186C29.8596 36.4681 28.7786 37.1006 28.7786 38.5613C28.7786 40.0335 29.9632 40.482 31.0098 40.8731V43.1618C29.9976 43.0469 29.6526 42.2991 29.2156 42.2991C28.8591 42.2991 28.5715 42.7821 28.5715 43.1043C28.5715 43.7484 29.6182 44.496 31.0099 44.5305V44.8525C31.0099 45.002 31.1824 45.14 31.4009 45.14C31.5964 45.14 31.7919 45.002 31.7919 44.8525V44.496C33.0801 44.289 33.9657 43.4724 33.9657 42.0576C33.9656 40.4937 32.8154 39.9762 31.7918 39.5966ZM31.1016 39.3435C30.5727 39.1364 30.1815 38.918 30.1815 38.4118C30.1815 37.9748 30.5265 37.6988 31.1016 37.6068V39.3435ZM31.6998 43.1505V41.1493C32.1944 41.3678 32.5625 41.6439 32.5625 42.2074C32.5624 42.748 32.2059 43.047 31.6998 43.1505Z" fill="#0E5C64"></path></g><defs><clipPath id="clip0_4158_437"><rect width="50" height="50" fill="white"></rect></clipPath></defs></svg>