<svg xmlns="http://www.w3.org/2000/svg" width="46" height="50" viewBox="0 0 46 50" fill="none"><path d="M45.1897 26.3024H0.810346C0.362866 26.3024 6.02905e-05 26.6635 6.02905e-05 27.1089V30.0977C6.02905e-05 30.4314 0.206481 30.7304 0.519251 30.8503L3.80243 32.1082C4.26044 33.8541 4.95587 35.5239 5.87443 37.0826L4.44559 40.2845C4.30947 40.5893 4.37611 40.9461 4.61312 41.1821L8.86013 45.409C9.09714 45.6449 9.45569 45.711 9.76198 45.5757L12.9802 44.1531C14.5469 45.0673 16.2239 45.7594 17.9768 46.2147L19.2408 49.4833C19.3611 49.7946 19.6618 50 19.997 50H26.003C26.3382 50 26.6387 49.7946 26.7592 49.4833L28.0229 46.2157C29.777 45.7601 31.4546 45.0678 33.0209 44.1534L36.2381 45.5757C36.5444 45.7113 36.9029 45.6449 37.1399 45.4089L41.3868 41.1819C41.6238 40.946 41.6905 40.5892 41.5544 40.2844L40.125 37.0813C41.0436 35.5222 41.7389 33.8532 42.1965 32.1085L45.4807 30.8504C45.7935 30.7306 45.9999 30.4315 45.9999 30.0978V27.1089C46 26.6635 45.6373 26.3024 45.1897 26.3024ZM33.1281 27.9153C32.7138 33.1156 28.3297 37.2212 23 37.2212C17.6703 37.2212 13.2861 33.1156 12.8719 27.9153H33.1281ZM44.3794 29.544L41.2214 30.7538C40.9722 30.8493 40.7861 31.0611 40.7242 31.3197C40.2779 33.1864 39.5375 34.9637 38.5236 36.6025C38.3835 36.8289 38.3646 37.1096 38.4731 37.3526L39.8476 40.433L36.3875 43.8768L33.2937 42.5091C33.0493 42.401 32.7673 42.42 32.5398 42.5595C30.8936 43.5688 29.1074 44.3057 27.2305 44.7501C26.9706 44.8117 26.7578 44.9968 26.6619 45.245L25.4467 48.3871H20.5534L19.3378 45.2441C19.2419 44.9959 19.0291 44.8108 18.7692 44.7493C16.8938 44.3051 15.108 43.5682 13.4612 42.5591C13.2337 42.4196 12.9516 42.4008 12.7076 42.5088L9.61269 43.8768L6.15246 40.4331L7.5265 37.3539C7.63498 37.1109 7.61604 36.8302 7.47586 36.6037C6.46219 34.9657 5.72169 33.1877 5.27492 31.3194C5.21304 31.0608 5.02708 30.849 4.77771 30.7535L1.62063 29.5441V27.9153H11.2473C11.6651 34.0058 16.7763 38.8342 23 38.8342C29.2236 38.8342 34.3348 34.0059 34.7526 27.9154H44.3794V29.544ZM25.6729 9.99839C25.2254 9.99839 24.8626 10.3595 24.8626 10.8048V24.1203C24.8626 24.5656 25.2254 24.9267 25.6729 24.9267H29.3834C29.8308 24.9267 30.1937 24.5656 30.1937 24.1203V10.8048C30.1937 10.3595 29.8308 9.99839 29.3834 9.99839H25.6729ZM28.5731 23.3138H26.4831V11.6113H28.5731V23.3138ZM33.576 12.5169C33.1285 12.5169 32.7657 12.878 32.7657 13.3234V24.1202C32.7657 24.5655 33.1285 24.9266 33.576 24.9266H37.2866C37.7341 24.9266 38.0969 24.5655 38.0969 24.1202V13.3234C38.0969 12.878 37.7341 12.5169 37.2866 12.5169H33.576ZM36.4763 23.3138H34.3863V14.1299H36.4763V23.3138ZM45.1897 5.15403H41.4791C41.0316 5.15403 40.6688 5.51512 40.6688 5.96048V24.1202C40.6688 24.5655 41.0316 24.9266 41.4791 24.9266H45.1897C45.6372 24.9266 46 24.5655 46 24.1202V5.96048C46 5.51512 45.6373 5.15403 45.1897 5.15403ZM44.3794 23.3137H42.2894V6.76694H44.3794V23.3137ZM17.7697 24.9266H21.4802C21.9277 24.9266 22.2905 24.5655 22.2905 24.1202V17.0354C22.2905 16.59 21.9277 16.2289 21.4802 16.2289H17.7697C17.3223 16.2289 16.9594 16.59 16.9594 17.0354V24.1202C16.9594 24.5655 17.3222 24.9266 17.7697 24.9266ZM18.58 17.8418H20.67V23.3137H18.58V17.8418ZM18.9796 10.3749C18.709 10.0202 18.7785 9.51431 19.135 9.24496L27.0381 3.27248C27.2705 3.09667 27.5801 3.05907 27.8482 3.17379L35.2721 6.35101L40.4966 1.62046L39.65 1.62349C39.649 1.62349 39.648 1.62349 39.6471 1.62349C39.2009 1.62349 38.8385 1.26442 38.8368 0.81996C38.8351 0.374496 39.1966 0.0120967 39.6441 0.0105846L42.5969 0H42.5998C42.8417 0 43.071 0.10756 43.225 0.293347C43.3795 0.479939 43.4419 0.725605 43.3947 0.962903L42.8222 3.84587C42.7459 4.23004 42.4072 4.49597 42.0282 4.49607C41.976 4.49607 41.9233 4.49093 41.8702 4.48054C41.4312 4.39425 41.1456 3.97006 41.2324 3.53306L41.3288 3.04778L35.9768 7.89375C35.7417 8.10645 35.4033 8.1629 35.1115 8.03811L27.642 4.84133L20.115 10.5295C19.9685 10.6403 19.7964 10.6938 19.6256 10.6938C19.3809 10.6938 19.139 10.5839 18.9796 10.3749ZM0.810346 24.9267H15.4359C15.6658 24.9267 15.8849 24.8295 16.0386 24.6594C16.1922 24.4892 16.266 24.262 16.2415 24.0345C15.9065 20.9185 13.8418 18.3807 11.0544 17.3186C12.031 16.4912 12.6523 15.26 12.6523 13.8864C12.6523 11.4009 10.6205 9.37873 8.12318 9.37873C5.62578 9.37873 3.59398 11.4009 3.59398 13.8864C3.59398 15.26 4.21517 16.4911 5.19187 17.3186C2.40448 18.3806 0.339671 20.9185 0.00461816 24.0345C-0.019893 24.2621 0.0539443 24.4892 0.207595 24.6594C0.361245 24.8295 0.580428 24.9267 0.810346 24.9267ZM5.21466 13.8863C5.21466 12.2901 6.51942 10.9915 8.12328 10.9915C9.72704 10.9915 11.0318 12.2901 11.0318 13.8863C11.0318 15.4819 9.72815 16.78 8.12531 16.781C8.1246 16.781 8.12389 16.781 8.12318 16.781C8.12247 16.781 8.12186 16.781 8.12115 16.781C6.51831 16.78 5.21466 15.482 5.21466 13.8863ZM8.12105 18.3941H8.12318H8.12531C11.1692 18.3951 13.7548 20.4549 14.4714 23.3138H1.77479C2.49149 20.4548 5.07701 18.395 8.12105 18.3941Z" fill="#0E5C64"></path></svg>