<svg xmlns="http://www.w3.org/2000/svg" width="50" height="50" viewBox="0 0 50 50" fill="none"><g clip-path="url(#clip0_4158_447)"><path d="M23.3496 32.1777H11.9141C10.8789 32.1582 10.8789 30.6152 11.9141 30.5957H23.3398C24.3848 30.625 24.3848 32.168 23.3496 32.1777ZM48.623 47.0996C48.8574 47.959 48.2812 48.9355 47.4023 49.1309L44.5801 49.8535C43.7207 50.0977 42.7539 49.5215 42.5488 48.6523C41.7188 45.4102 40.8984 42.168 40.0781 38.9258C39.8926 38.2031 40.2344 37.4609 40.8496 37.0898L39.8828 33.2715C39.4336 33.3008 38.9844 33.291 38.5352 33.2617C38.4961 34.3359 38.6719 37.2852 38.3496 38.2812C37.6758 40.918 35.293 42.7637 32.5684 42.7637H6.78711C3.48633 42.7637 0.810547 40.0781 0.810547 36.7773V35.6641C0.810547 35.2246 1.16211 34.873 1.60156 34.873H7.71484V7.48047C7.70508 3.4082 11.0156 0.0976562 15.0879 0.0976562H42.2754C45.2051 0.107422 47.6562 2.62695 47.6562 5.61523V10.5078C47.6562 11.3184 46.9922 11.9824 46.1816 11.9824H38.5254V13.7305C46.6992 13.0957 51.8066 21.4551 47.8027 28.5254C46.8262 30.2051 45.3613 31.5137 43.6328 32.334L44.5996 36.1426C45.3223 36.1523 45.9863 36.6895 46.1523 37.4023C46.9727 40.625 47.8027 43.8672 48.623 47.0996ZM38.5254 10.4004H46.0742V5.61523C46.0742 3.4668 44.3066 1.64063 42.2363 1.67969C40.2344 1.66992 38.4766 3.45703 38.5254 5.44922V10.4004ZM28.4863 41.1914C27.1973 40.0293 26.5039 38.2617 26.5625 36.4648C22.2168 36.4648 6.44531 36.4648 2.38281 36.4551C2.2168 38.9941 4.22852 41.2012 6.78711 41.1914H28.4863ZM36.9434 33.0273C27.2363 30.6348 27.0312 16.2207 36.9434 13.9551V5.44922C36.9336 4.04297 37.5098 2.66602 38.4961 1.67969H15.0879C11.8848 1.67969 9.28711 4.27734 9.28711 7.48047V34.8926H27.3633C27.8027 34.8926 28.1543 35.2441 28.1543 35.6836V36.6211C28.1152 38.7012 29.6484 40.7031 31.6504 41.1133C33.916 41.6113 36.2598 40.1562 36.8164 37.9004C37.0605 37.1289 36.9043 33.877 36.9434 33.0273ZM46.4355 27.7246C49.6875 21.9922 45.918 15.2441 39.2773 15.2637C34.6484 15.166 30.8398 19.0625 31.1523 23.7695C31.5137 32.1484 42.2266 34.5996 46.4355 27.7246ZM41.4648 33.125L42.3535 36.6211L43.0371 36.4453L42.1484 32.9492C41.9336 33.0273 41.6992 33.0762 41.4648 33.125ZM47.0898 47.4902C46.2695 44.248 45.4297 41.0156 44.6094 37.7734C44.5898 37.627 44.3164 37.7637 44.1895 37.793C43.8965 37.8613 42.0117 38.3496 41.6797 38.4277C41.6211 38.4473 41.5918 38.4863 41.6016 38.5352C42.4512 41.7871 43.2129 45.0879 44.1211 48.3008C44.1406 48.3105 44.1602 48.3203 44.1797 48.3105L47.0215 47.5879C47.0605 47.5879 47.1094 47.5488 47.0898 47.4902ZM39.3164 30.2441C35.7422 30.3223 32.7441 27.3438 32.627 23.7402C32.4219 20.332 34.8242 17.3242 38.1641 16.8359C40.8887 16.3965 43.584 17.5195 45.0391 19.6875C47.9297 24.0918 44.7754 30.3223 39.3164 30.2441ZM43.7207 20.5566C42.1484 18.1055 38.1445 17.5586 35.9277 19.5117C33.4277 21.4941 33.7305 26.0156 36.3672 27.7539C41.2695 30.918 46.6895 25.3711 43.7207 20.5566ZM24.1406 20.5566V24.4727C24.1406 24.9121 23.7891 25.2637 23.3496 25.2637H19.4336C18.9941 25.2637 18.6426 24.9121 18.6426 24.4727V20.5566C18.6426 20.1172 18.9941 19.7656 19.4336 19.7656H23.3496C23.7793 19.7656 24.1406 20.1172 24.1406 20.5566ZM22.5586 21.3477H20.2246V23.6816H22.5586V21.3477ZM31.2695 11.2109H35.2832C36.3184 11.1914 36.3184 9.64844 35.2832 9.62891H31.6113L29.8438 7.77344C29.541 7.46094 28.9941 7.46094 28.7012 7.77344L25.3809 11.2598L21.8457 5.86914C21.6895 5.625 21.416 5.49805 21.123 5.51758C20.8301 5.53711 20.5859 5.72266 20.4688 5.98633L17.2559 13.2617L15.9961 10.127C15.8789 9.82422 15.5859 9.62891 15.2637 9.62891H11.4355C10.4004 9.64844 10.4004 11.1914 11.4355 11.2109H14.7363L16.5039 15.5859C16.6211 15.8789 16.9043 16.0742 17.2266 16.084C17.5391 16.0938 17.832 15.9082 17.959 15.6152L21.3379 7.94922L24.6289 12.959C24.8926 13.3789 25.5273 13.4375 25.8594 13.0664L29.2969 9.45312L30.7324 10.957C30.8496 11.123 31.0547 11.2109 31.2695 11.2109ZM11.9141 28.8477H17.7148C18.75 28.8281 18.75 27.2852 17.7148 27.2656H11.9141C10.8789 27.2949 10.8789 28.8379 11.9141 28.8477ZM16.6211 20.5566V24.4727C16.6211 24.9121 16.2695 25.2637 15.8301 25.2637H11.9141C11.4746 25.2637 11.123 24.9121 11.123 24.4727V20.5566C11.123 20.1172 11.4746 19.7656 11.9141 19.7656H15.8301C16.2695 19.7656 16.6211 20.1172 16.6211 20.5566ZM15.0391 21.3477H12.7051V23.6816H15.0391V21.3477Z" fill="#0E5C64"></path></g><defs><clipPath id="clip0_4158_447"><rect width="50" height="50" fill="white"></rect></clipPath></defs></svg>