<svg xmlns="http://www.w3.org/2000/svg" width="50" height="50" viewBox="0 0 50 50" fill="none"><g clip-path="url(#clip0_4158_469)"><path d="M15.236 43.5156C14.9235 43.2812 14.5329 43.0469 14.2204 42.8906C14.2985 42.2656 14.2204 41.5625 14.0641 40.8594C13.7516 39.6875 13.1266 38.5938 12.2672 37.5781C11.486 38.2031 11.0954 39.2969 11.2516 40.4688C10.7047 39.9219 10.1579 39.375 9.68912 38.8281C10.0016 38.2812 10.1579 37.5781 10.1579 36.875C10.236 35.7031 10.0016 34.5313 9.45474 33.3594C8.43912 33.75 7.81412 34.7656 7.65787 35.9375C7.26724 35.3125 6.95474 34.6094 6.64224 33.9844C7.11099 33.5156 7.50162 32.8906 7.73599 32.1875C8.12662 31.0938 8.20474 29.9219 7.97037 28.6719C6.87662 28.8281 5.93912 29.6094 5.47037 30.7813C5.23599 30 5.07974 29.2969 5.00162 28.5156C5.62662 28.2031 6.17349 27.6562 6.56412 27.0312C7.18912 26.0938 7.65787 24.9219 7.73599 23.6719C6.56412 23.5156 5.39224 24.1406 4.68912 25.2344C4.68912 24.4531 4.76724 23.5938 4.84537 22.8125C5.54849 22.6563 6.25162 22.2656 6.87662 21.7969C7.73599 21.0937 8.43912 20.0781 8.90787 18.9063C7.81412 18.4375 6.48599 18.75 5.47037 19.6875C5.70474 18.9063 5.93912 18.0469 6.25162 17.2656C7.03287 17.3437 7.81412 17.1094 8.51724 16.7969C9.53287 16.3281 10.4704 15.5469 11.2516 14.4531C10.3141 13.6719 8.90787 13.6719 7.65787 14.375C8.12662 13.5938 8.59537 12.8906 9.14224 12.1875C9.84537 12.5 10.7047 12.5 11.5641 12.3438C12.736 12.1094 13.9079 11.6406 15.0016 10.7812C14.2985 9.76562 12.8922 9.375 11.4079 9.76562C12.5016 8.75 13.6735 7.8125 15.0797 7.03125C15.4704 6.79687 15.6266 6.32812 15.3922 5.9375C15.1579 5.54687 14.611 5.39062 14.2204 5.625C12.736 6.48437 11.4079 7.5 10.236 8.59375C10.861 7.03125 10.9391 5.625 10.236 4.53125C8.82974 5.46875 7.81412 7.03125 7.57974 8.35937C7.34537 9.375 7.50162 10.2344 7.97037 10.9375C7.34537 11.7188 6.79849 12.5781 6.32974 13.3594C6.48599 11.7188 6.09537 10.3125 5.15787 9.53125C4.06412 11.0156 3.59537 12.7344 3.75162 14.0625C3.82974 15.0781 4.22037 15.8594 4.84537 16.4062C4.45474 17.3438 4.14224 18.2031 3.90787 19.1406C3.59537 17.5781 2.89224 16.3281 1.72037 15.7812C1.09537 17.5 1.09537 19.2188 1.56412 20.4688C1.95474 21.4063 2.50162 22.0313 3.28287 22.4219C3.12662 23.3594 3.12662 24.2969 3.12662 25.2344C2.42349 23.8281 1.40787 22.8906 0.157867 22.7344C0.00161746 24.5312 0.470367 26.1719 1.25162 27.2656C1.79849 28.0469 2.57974 28.5156 3.36099 28.6719C3.43912 29.6094 3.67349 30.4688 3.82974 31.3281C2.81412 30.2344 1.64224 29.6094 0.392242 29.7656C0.704742 31.5625 1.56412 33.0469 2.65787 33.8281C3.36099 34.4531 4.22037 34.6875 4.92349 34.6094C5.23599 35.3906 5.62662 36.25 6.01724 36.9531C4.68912 36.4062 3.43912 36.0938 2.34537 36.5625C3.12662 38.2031 4.37662 39.4531 5.62662 40C6.48599 40.3906 7.26724 40.3906 7.97037 40.2344C8.51724 40.9375 9.06412 41.5625 9.68912 42.1875C8.36099 41.875 7.18912 41.9531 6.32974 42.6562C7.57974 44.0625 9.22037 44.9219 10.6266 45.1562C11.486 45.3125 12.2672 45.1562 12.8922 44.8438C13.2047 45.0781 13.5954 45.3125 13.9079 45.5469C14.5329 45.9375 15.3141 45.7031 15.6266 45.0781C15.9391 44.5312 15.7829 43.8281 15.236 43.5156Z" fill="#0E5C64"></path><path d="M46.3308 31.3281C46.5652 30.4687 46.7214 29.5312 46.7996 28.6719C47.5808 28.5156 48.2839 28.0469 48.9089 27.2656C49.6902 26.1719 50.1589 24.5312 50.0027 22.7344C48.7527 22.8906 47.7371 23.9062 47.0339 25.2344C47.0339 24.2969 46.9558 23.3594 46.8777 22.4219C47.5808 22.1094 48.2058 21.4062 48.5964 20.4688C49.0652 19.2188 49.1433 17.5 48.4402 15.7812C47.2683 16.3281 46.5652 17.5781 46.2527 19.1406C46.0183 18.2031 45.7058 17.2656 45.3152 16.4062C45.9402 15.8594 46.3308 15.0781 46.4089 14.0625C46.5652 12.7344 46.0964 11.0156 45.0027 9.53125C43.9871 10.3125 43.6746 11.7969 43.8308 13.3594C43.2058 12.5 42.6589 11.7187 42.0339 10.9375C42.5027 10.3125 42.6589 9.375 42.4246 8.35937C42.1902 7.03125 41.1746 5.46875 39.6121 4.21875C38.9089 5.23437 38.9871 6.71875 39.6121 8.28125C38.4402 7.1875 37.1121 6.17188 35.6277 5.3125C35.2371 5.07812 34.6902 5.23437 34.4558 5.625C34.2214 6.01562 34.3777 6.48438 34.7683 6.71875C36.0964 7.5 37.3464 8.4375 38.4402 9.45312C36.9558 9.0625 35.5496 9.45312 34.8464 10.4687C35.9402 11.3281 37.1121 11.7969 38.2839 12.0312C39.1433 12.1875 40.0027 12.1875 40.7058 11.875C41.2527 12.5781 41.7996 13.3594 42.1902 14.0625C40.9402 13.3594 39.5339 13.3594 38.5964 14.1406C39.3777 15.1562 40.3152 16.0156 41.3308 16.4844C42.1121 16.875 42.8933 17.0312 43.5964 16.9531C43.9089 17.7344 44.1433 18.5156 44.3777 19.375C43.3621 18.4375 42.0339 18.125 40.9402 18.5937C41.4089 19.7656 42.1121 20.7812 42.9714 21.4844C43.5964 22.0312 44.2996 22.3437 45.0027 22.5C45.0808 23.2812 45.1589 24.1406 45.1589 24.9219C44.4558 23.8281 43.2839 23.2031 42.1121 23.3594C42.2683 24.6094 42.6589 25.7812 43.2839 26.7188C43.6746 27.3438 44.2214 27.8906 44.8464 28.2031C44.6902 28.9844 44.5339 29.6875 44.3777 30.4687C43.9089 29.2969 43.0496 28.4375 41.8777 28.3594C41.6433 29.6094 41.7996 30.8594 42.1121 31.875C42.3464 32.5781 42.6589 33.2031 43.2058 33.6719C42.8933 34.375 42.5808 35 42.1902 35.625C42.0339 34.4531 41.4089 33.4375 40.3933 33.0469C39.8464 34.2187 39.6121 35.3906 39.6902 36.5625C39.6902 37.2656 39.8464 37.9687 40.1589 38.5156C39.6902 39.0625 39.1433 39.6094 38.5964 40.1562C38.7527 38.9844 38.4402 37.8906 37.5808 37.2656C36.7214 38.2812 36.0964 39.375 35.7839 40.5469C35.6277 41.25 35.5496 41.9531 35.6277 42.5781C35.3152 42.8125 35.0027 43.0469 34.6121 43.2031C34.0652 43.5156 33.9089 44.2187 34.1433 44.7656C34.4558 45.3906 35.2371 45.625 35.8621 45.2344C36.2527 45 36.5652 44.7656 36.8777 44.5312C37.5027 44.8437 38.2839 45 39.1433 44.8437C40.5496 44.6094 42.1902 43.75 43.4402 42.3437C42.5808 41.6406 41.4089 41.5625 40.0808 41.875C40.7058 41.25 41.2527 40.625 41.7996 39.9219C42.5027 40.0781 43.2839 40 44.1433 39.6875C45.3933 39.1406 46.6433 37.9687 47.4246 36.25C46.3308 35.7812 45.0808 36.0937 43.9089 36.7969C44.2996 36.0156 44.6902 35.2344 45.0027 34.4531C45.7839 34.4531 46.5652 34.2187 47.2683 33.6719C48.2839 32.8125 49.2214 31.4062 49.5339 29.6094C48.5183 29.6094 47.3464 30.3125 46.3308 31.3281Z" fill="#0E5C64"></path><path d="M34.6104 38.5156L32.9697 29.0625L39.8447 22.3438C40.0791 22.1094 40.1572 21.7969 40.0791 21.5625C40.001 21.25 39.7666 21.0938 39.4541 21.0156L29.9229 19.6094L25.7041 11.0156C25.5479 10.7813 25.3135 10.5469 25.001 10.5469C24.6885 10.5469 24.4541 10.7031 24.2979 11.0156L20.0791 19.6094L10.5479 21.0156C10.2354 21.0938 10.001 21.25 9.92285 21.5625C9.84473 21.875 9.92285 22.1875 10.1572 22.3438L17.0322 29.0625L15.3916 38.5156C15.3135 38.8281 15.4697 39.1406 15.7041 39.2969C15.9385 39.4531 16.251 39.5313 16.5635 39.375L25.001 34.8437L33.5166 39.2969C33.5947 39.375 33.751 39.375 33.9072 39.375C34.0635 39.375 34.2197 39.2969 34.376 39.2188C34.5322 39.0625 34.6885 38.8281 34.6104 38.5156Z" fill="#0E5C64"></path></g><defs><clipPath id="clip0_4158_469"><rect width="50" height="50" fill="white"></rect></clipPath></defs></svg>