<svg xmlns="http://www.w3.org/2000/svg" width="43" height="50" viewBox="0 0 43 50" fill="none"><path d="M42.7752 34.8729C42.4698 34.0697 41.871 33.4147 41.1015 33.0421C40.332 32.6696 39.4502 32.6077 38.6369 32.8691L25.1626 37.2092C25.005 37.2618 24.8335 37.2531 24.682 37.1847C24.5305 37.1163 24.4099 36.9931 24.3441 36.8396C24.2558 36.6926 24.2247 36.518 24.2568 36.3493C24.2889 36.1806 24.3819 36.0299 24.5178 35.9262L27.8282 33.3551C28.4798 32.85 28.9311 32.1272 29.1009 31.3168C29.2707 30.5064 29.148 29.6616 28.7546 28.9343C28.3613 28.2069 27.7233 27.6448 26.9553 27.3491C26.1873 27.0533 25.3398 27.0432 24.5651 27.3207C23.3113 27.7764 21.7852 28.3288 20.1812 28.9081V24.0691H22.254C22.4119 24.069 22.5664 24.0235 22.6995 23.9378C22.8325 23.8521 22.9384 23.7299 23.0047 23.5856C23.071 23.4413 23.095 23.2808 23.0737 23.1232C23.0524 22.9656 22.9868 22.8175 22.8847 22.6962L17.4283 16.2215C17.3507 16.1292 17.254 16.0551 17.1451 16.0043C17.0362 15.9535 16.9176 15.9271 16.7976 15.9271C16.6775 15.9271 16.5589 15.9535 16.45 16.0043C16.3411 16.0551 16.2445 16.1292 16.1668 16.2215L10.7102 22.6962C10.608 22.8175 10.5424 22.9656 10.5212 23.1232C10.4999 23.2808 10.5238 23.4413 10.5902 23.5856C10.6565 23.7299 10.7624 23.8521 10.8954 23.9378C11.0284 24.0235 11.183 24.069 11.3409 24.0691H13.4137V31.3479C11.1605 32.1588 9.38908 32.7955 8.82374 32.9983H2.48248C1.82431 32.9991 1.1933 33.2628 0.727901 33.7316C0.262502 34.2004 0.000722799 34.836 0 35.499V47.4993C0.000722799 48.1623 0.262502 48.798 0.727901 49.2668C1.1933 49.7356 1.82431 49.9993 2.48248 50H7.25067C7.90884 49.9993 8.53985 49.7356 9.00525 49.2668C9.47065 48.798 9.73243 48.1623 9.73315 47.4993V44.994L21.6131 47.0423C22.0313 47.1143 22.4548 47.1505 22.8791 47.1506C23.9984 47.1503 25.1031 46.8942 26.1099 46.4018L40.9357 39.1824C41.7416 38.8499 42.3857 38.2121 42.7297 37.4063C43.0736 36.6004 43.09 35.6907 42.7752 34.8729ZM14.2412 22.4019H13.1288L16.7977 18.0489L20.4661 22.4019H19.3536C19.1341 22.4019 18.9237 22.4898 18.7685 22.6461C18.6133 22.8024 18.5261 23.0144 18.5261 23.2355V29.5056C17.3568 29.9275 16.1817 30.3509 15.0687 30.7519V23.2355C15.0687 23.0144 14.9815 22.8024 14.8263 22.6461C14.6711 22.4898 14.4606 22.4019 14.2412 22.4019ZM8.07817 47.4993C8.07788 47.7203 7.99061 47.9322 7.83548 48.0884C7.68036 48.2447 7.47005 48.3326 7.25067 48.3329H2.48248C2.26311 48.3326 2.05279 48.2447 1.89767 48.0884C1.74255 47.9322 1.65527 47.7203 1.65499 47.4993V35.4993C1.65527 35.2783 1.74255 35.0664 1.89767 34.9102C2.05279 34.7539 2.26311 34.666 2.48248 34.6657H8.07817V47.4993ZM40.2583 37.6621L25.3893 44.9009C24.3041 45.4316 23.0809 45.6057 21.8923 45.3987L9.73315 43.3026V34.4417C11.9631 33.6403 20.4397 30.5922 25.1267 28.8884C25.3562 28.8039 25.6007 28.7689 25.8445 28.7857C26.0883 28.8025 26.3258 28.8708 26.5417 28.9861C26.8059 29.1306 27.0306 29.3386 27.1958 29.5916C27.361 29.8446 27.4617 30.1347 27.4889 30.4363C27.5162 30.7378 27.4691 31.0415 27.3518 31.3204C27.2346 31.5992 27.0508 31.8446 26.8169 32.0347L23.5219 34.5944C23.0817 34.9397 22.7756 35.4294 22.6566 35.9785C22.5376 36.5275 22.6133 37.1012 22.8706 37.5998C23.1278 38.0985 23.5503 38.4906 24.0647 38.7081C24.5791 38.9255 25.1529 38.9546 25.6863 38.7903L39.1411 34.4573C39.5592 34.3233 40.0127 34.3586 40.4053 34.5557C40.7979 34.7529 41.0989 35.0964 41.2442 35.5134C41.3896 35.9304 41.3679 36.388 41.1838 36.7892C40.9997 37.1904 40.6678 37.5035 40.2583 37.6621Z" fill="#0E5C64"></path><path d="M4.8668 43.7441C4.64734 43.7441 4.43686 43.832 4.28167 43.9883C4.12649 44.1446 4.03931 44.3566 4.03931 44.5777V45.7662C4.03931 45.9873 4.12649 46.1993 4.28167 46.3556C4.43686 46.512 4.64734 46.5998 4.8668 46.5998C5.08627 46.5998 5.29674 46.512 5.45193 46.3556C5.60711 46.1993 5.6943 45.9873 5.6943 45.7662V44.5777C5.6943 44.3566 5.60711 44.1446 5.45193 43.9883C5.29674 43.832 5.08627 43.7441 4.8668 43.7441Z" fill="#0E5C64"></path><path d="M31.3191 18.8813C30.9691 18.8808 30.6336 18.7406 30.3862 18.4913C30.1387 18.242 29.9995 17.9041 29.999 17.5516C29.999 17.3305 29.9118 17.1185 29.7566 16.9621C29.6014 16.8058 29.391 16.718 29.1715 16.718C28.952 16.718 28.7415 16.8058 28.5864 16.9621C28.4312 17.1185 28.344 17.3305 28.344 17.5516C28.3462 18.1987 28.5568 18.8277 28.944 19.3441C29.3312 19.8606 29.8742 20.2366 30.4916 20.4158V20.747C30.4916 20.9681 30.5788 21.1801 30.734 21.3365C30.8891 21.4928 31.0996 21.5806 31.3191 21.5806C31.5385 21.5806 31.749 21.4928 31.9042 21.3365C32.0594 21.1801 32.1466 20.9681 32.1466 20.747V20.4157C32.8345 20.2165 33.4277 19.7734 33.8168 19.1682C34.206 18.5631 34.3648 17.8366 34.264 17.1227C34.1632 16.4089 33.8096 15.7558 33.2684 15.2839C32.7272 14.812 32.0349 14.5532 31.3191 14.555C31.058 14.5551 30.8027 14.4772 30.5856 14.3312C30.3685 14.1851 30.1992 13.9774 30.0993 13.7345C29.9993 13.4915 29.9731 13.2241 30.024 12.9662C30.0749 12.7082 30.2005 12.4712 30.3851 12.2852C30.5697 12.0992 30.8049 11.9726 31.061 11.9212C31.3171 11.8699 31.5825 11.8962 31.8237 11.9968C32.065 12.0974 32.2711 12.2679 32.4162 12.4865C32.5613 12.7052 32.6387 12.9623 32.6387 13.2253C32.6387 13.4464 32.7259 13.6584 32.8811 13.8148C33.0362 13.9711 33.2467 14.0589 33.4662 14.0589C33.6857 14.0589 33.8961 13.9711 34.0513 13.8148C34.2065 13.6584 34.2937 13.4464 34.2937 13.2253C34.2915 12.5782 34.081 11.9493 33.6939 11.4329C33.3068 10.9165 32.7638 10.5404 32.1466 10.3612V10.0299C32.1466 9.80878 32.0594 9.59676 31.9042 9.44044C31.749 9.28411 31.5385 9.19629 31.3191 9.19629C31.0996 9.19629 30.8891 9.28411 30.734 9.44044C30.5788 9.59676 30.4916 9.80878 30.4916 10.0299V10.3611C29.8036 10.5603 29.2102 11.0034 28.821 11.6086C28.4318 12.2138 28.273 12.9404 28.3738 13.6543C28.4745 14.3683 28.8282 15.0214 29.3695 15.4933C29.9108 15.9653 30.6032 16.2241 31.3191 16.2222C31.6691 16.2222 32.0048 16.3623 32.2524 16.6116C32.4999 16.8609 32.6389 17.1991 32.6389 17.5517C32.6389 17.9043 32.4999 18.2425 32.2524 18.4918C32.0048 18.7412 31.6691 18.8813 31.3191 18.8813Z" fill="#0E5C64"></path><path d="M31.3191 23.7243C32.9558 23.7243 34.5556 23.2354 35.9164 22.3195C37.2773 21.4035 38.3379 20.1017 38.9642 18.5785C39.5905 17.0554 39.7544 15.3793 39.4351 13.7624C39.1158 12.1454 38.3277 10.6601 37.1704 9.49438C36.0131 8.32862 34.5387 7.53472 32.9335 7.21309C31.3283 6.89146 29.6645 7.05653 28.1525 7.68744C26.6404 8.31834 25.348 9.38675 24.4388 10.7575C23.5295 12.1283 23.0442 13.74 23.0442 15.3886C23.0466 17.5986 23.9193 19.7174 25.4706 21.2801C27.0219 22.8428 29.1252 23.7218 31.3191 23.7243ZM31.3191 8.72006C32.6284 8.72006 33.9083 9.11116 34.997 9.84391C36.0856 10.5767 36.9341 11.6181 37.4352 12.8367C37.9362 14.0552 38.0673 15.396 37.8119 16.6896C37.5565 17.9831 36.926 19.1714 36.0002 20.104C35.0743 21.0366 33.8948 21.6717 32.6106 21.929C31.3265 22.1863 29.9954 22.0542 28.7858 21.5495C27.5761 21.0448 26.5423 20.1901 25.8148 19.0934C25.0874 17.9968 24.6992 16.7075 24.6992 15.3886C24.7012 13.6206 25.3993 11.9256 26.6403 10.6755C27.8814 9.42531 29.564 8.72209 31.3191 8.72006Z" fill="#0E5C64"></path><path d="M5.88414 8.12791H7.95734V14.8335C7.95734 15.0545 8.04453 15.2666 8.19971 15.4229C8.3549 15.5792 8.56537 15.667 8.78484 15.667H13.8973C14.1167 15.667 14.3272 15.5792 14.4824 15.4229C14.6376 15.2666 14.7248 15.0545 14.7248 14.8335V8.12791H16.7977C16.9556 8.12786 17.1102 8.08232 17.2432 7.99665C17.3762 7.91098 17.4821 7.78876 17.5485 7.64443C17.6148 7.50009 17.6387 7.33966 17.6174 7.18206C17.5962 7.02447 17.5306 6.87629 17.4284 6.75502L11.9716 0.280202C11.8916 0.191918 11.7941 0.121405 11.6856 0.073161C11.577 0.0249167 11.4596 0 11.3409 0C11.2222 0 11.1048 0.0249167 10.9962 0.073161C10.8876 0.121405 10.7902 0.191918 10.7102 0.280202L5.25342 6.75502C5.15127 6.87629 5.08569 7.02447 5.06443 7.18206C5.04316 7.33966 5.06709 7.50009 5.1334 7.64443C5.19971 7.78876 5.30563 7.91098 5.43865 7.99665C5.57168 8.08232 5.72625 8.12786 5.88414 8.12791ZM11.3409 2.10772L15.0097 6.46077H13.8973C13.6778 6.46077 13.4673 6.54859 13.3121 6.70492C13.157 6.86124 13.0698 7.07326 13.0698 7.29434V13.9999H9.61233V7.29434C9.61233 7.07326 9.52515 6.86124 9.36997 6.70492C9.21478 6.54859 9.0043 6.46077 8.78484 6.46077H7.67211L11.3409 2.10772Z" fill="#0E5C64"></path></svg>