<svg xmlns="http://www.w3.org/2000/svg" width="50" height="50" viewBox="0 0 50 50" fill="none"><path fill-rule="evenodd" clip-rule="evenodd" d="M19.9241 44.4014L14.6391 41.3771C14.6245 41.3688 14.61 41.3603 14.5956 41.3518C15.7032 40.9885 16.3634 39.8133 16.1086 38.619C16.1011 38.5834 16.0911 38.5485 16.0788 38.5143C15.5685 37.0952 15.2923 35.5484 15.0704 34.3057C14.9921 33.8668 14.918 33.4522 14.8435 33.1026C14.5205 31.587 13.3732 30.7472 12.2934 30.1257L8.67031 28.0399L8.87656 27.6896C9.09047 27.3265 9.14984 26.901 9.0439 26.4915C8.93795 26.0821 8.67959 25.7388 8.31639 25.525L6.85461 24.6642C6.10341 24.222 5.13225 24.4731 4.68982 25.2244L0.218298 32.8175C-0.224035 33.5687 0.0272721 34.5398 0.778473 34.9822L2.24035 35.8429C2.48601 35.9875 2.76 36.0615 3.03832 36.0615C3.17159 36.0615 3.30586 36.0445 3.43842 36.0102C3.84789 35.9043 4.19123 35.6459 4.40504 35.2827L4.69526 34.7899L5.17429 35.0665L6.94362 41.6696C7.26932 42.8854 8.01609 43.8386 9.10327 44.426L18.9697 49.7554C19.2777 49.9218 19.6206 50 19.968 50C20.8303 50 21.7203 49.518 22.1716 48.7066C22.4705 48.1694 23.1915 46.2714 19.9241 44.4014ZM3.03147 34.4369L1.62443 33.6083L6.06369 26.0701L7.47073 26.8986L3.03147 34.4369ZM20.7622 47.9225C20.5528 48.2988 19.9978 48.4778 19.7365 48.3362L9.8701 43.0069C9.16335 42.625 8.71578 42.0511 8.50177 41.252L6.64594 34.3263C6.5906 34.1197 6.45542 33.9436 6.27014 33.8368L5.5138 33.4001L7.85198 29.4297L11.4887 31.5234C12.4255 32.0627 13.0864 32.5947 13.2662 33.4388C13.3352 33.7621 13.4035 34.1453 13.4828 34.5891C13.7123 35.8748 13.9973 37.4707 14.5396 38.9998C14.602 39.3858 14.4014 39.7376 14.0597 39.8292C13.9086 39.8697 13.5104 39.9752 13.2303 39.3392C12.9881 38.6071 12.8048 37.8766 12.6113 37.1038C12.5175 36.7295 12.4206 36.3426 12.3145 35.9468C12.1993 35.5167 11.7572 35.2618 11.3268 35.3767C10.8966 35.492 10.6414 35.9342 10.7567 36.3644C10.8593 36.7473 10.9546 37.1277 11.0467 37.4957C11.2512 38.3123 11.4444 39.0834 11.7123 39.8865C11.7134 39.8899 11.7206 39.9103 11.7232 39.9172L11.9585 40.5379C12.3414 41.5398 12.9561 42.2722 13.8379 42.7769L19.1229 45.8013C20.4221 46.5447 21.0655 47.3773 20.7622 47.9225ZM6.60179 27.7337C6.37336 27.9142 6.04192 27.8754 5.86137 27.6469C5.68083 27.4185 5.71974 27.0871 5.94807 26.9066C6.17649 26.7261 6.50794 26.7649 6.68848 26.9933C6.86902 27.2217 6.83021 27.5532 6.60179 27.7337ZM33.6709 35.4988C35.2105 32.901 35.1795 29.8061 33.5858 27.008C32.6601 25.3828 31.2696 23.5577 29.2501 21.3222C29.7612 20.9321 30.0929 20.3186 30.0929 19.6275C30.0929 18.722 29.5249 17.9486 28.7271 17.6395L29.6678 16.6988C30.0766 16.29 30.3018 15.7451 30.3018 15.1644C30.3018 14.5838 30.0767 14.0388 29.6678 13.63C28.986 12.9482 27.9211 12.8047 27.0847 13.265C26.8186 12.348 25.9641 11.6965 24.9999 11.6965C24.0359 11.6967 23.1812 12.3482 22.9153 13.265C22.0789 12.8048 21.0139 12.9483 20.3321 13.6301C19.9233 14.0388 19.6981 14.5838 19.6981 15.1645C19.6981 15.7451 19.9232 16.29 20.3321 16.6988L21.2729 17.6394C20.4752 17.9485 19.9072 18.7219 19.9072 19.6273C19.9072 20.3184 20.2389 20.9319 20.75 21.322C18.7305 23.5576 17.34 25.3827 16.4143 27.0078C14.8205 29.806 14.7895 32.9007 16.3291 35.4986C18.0427 38.39 21.3621 40.145 25.0001 40.0926C25.0571 40.0935 25.1139 40.094 25.1707 40.094C28.7395 40.0941 31.9842 38.3449 33.6709 35.4988ZM22.0404 20.1479C21.7584 20.1479 21.5201 19.9096 21.5201 19.6274C21.5201 19.3454 21.7584 19.1072 22.0404 19.1072H27.9597C28.2417 19.1072 28.4802 19.3455 28.4802 19.6275C28.4802 19.9096 28.2418 20.1479 27.9597 20.1479H22.0404ZM21.4727 14.7707C21.6564 14.5868 21.9491 14.5553 22.1685 14.6965C22.5901 14.967 23.0971 15.0123 23.5594 14.8206C24.022 14.6291 24.3488 14.2386 24.4556 13.7491C24.5112 13.4945 24.7402 13.3096 25.0001 13.3096C25.2599 13.3096 25.489 13.4944 25.5446 13.7492C25.6516 14.2385 25.9781 14.629 26.4406 14.8205C26.9032 15.0121 27.4103 14.9668 27.8317 14.6964C28.051 14.5556 28.3438 14.5868 28.5274 14.7706C28.6316 14.8747 28.689 15.0147 28.689 15.1645C28.689 15.3144 28.6317 15.4543 28.5275 15.5583L26.5914 17.4944H23.4088L21.4727 15.5583C21.3685 15.4543 21.3112 15.3144 21.3112 15.1646C21.3111 15.0147 21.3684 14.8748 21.4727 14.7707ZM25.0137 38.4801C25.0046 38.4799 24.9955 38.4799 24.9864 38.4801C21.9249 38.5313 19.1376 37.0744 17.7166 34.6766C16.4625 32.5605 16.4976 30.1205 17.8158 27.8063C18.7682 26.1342 20.2731 24.2065 22.5348 21.7608H27.4653C29.727 24.2064 31.2319 26.1341 32.1843 27.8063C33.5024 30.1205 33.5377 32.5605 32.2834 34.6766C30.8625 37.0743 28.0766 38.5329 25.0137 38.4801ZM28.0657 31.7038C28.1451 32.3565 27.9685 32.9539 27.5553 33.4318C27.1475 33.9034 26.5113 34.2378 25.7812 34.3796V34.6632C25.7812 35.1086 25.4201 35.4696 24.9748 35.4696C24.5294 35.4696 24.1683 35.1086 24.1683 34.6632V34.366C23.0294 34.1111 22.1589 33.3282 21.8892 32.2466C21.7814 31.8145 22.0444 31.3768 22.4766 31.2691C22.909 31.1618 23.3464 31.4243 23.4542 31.8564C23.6337 32.5764 24.3667 32.8351 24.9723 32.8422C24.9783 32.8425 24.984 32.8423 24.9899 32.8423C25.0101 32.8429 25.0298 32.8423 25.0494 32.8417C25.5893 32.8288 26.1061 32.642 26.3354 32.3769C26.4491 32.2453 26.4889 32.0977 26.4648 31.8983C26.4372 31.6714 26.3727 31.1401 24.8508 30.8904C22.6615 30.5309 22.1496 29.3762 22.1057 28.4709C22.0463 27.2458 22.8719 26.2178 24.1684 25.8891V25.5777C24.1684 25.1323 24.5295 24.7713 24.9749 24.7713C25.4202 24.7713 25.7813 25.1323 25.7813 25.5777V25.8819C26.6206 26.0853 27.4131 26.63 27.832 27.6276C28.0044 28.0381 27.8113 28.5109 27.4006 28.6832C26.9898 28.8558 26.5173 28.6625 26.3449 28.2519C26.0915 27.6485 25.5448 27.4017 25.0128 27.398C24.9932 27.399 24.9733 27.3992 24.9537 27.3986C24.8364 27.4018 24.7205 27.4167 24.6091 27.4419C24.4541 27.4772 23.6825 27.6881 23.7168 28.3929C23.7258 28.5796 23.7499 29.0753 25.1122 29.2989C26.9141 29.5946 27.9079 30.4038 28.0657 31.7038ZM49.7817 32.8174L45.3103 25.2244C44.8679 24.4731 43.8968 24.222 43.1455 24.6642L41.6838 25.525C41.3206 25.7388 41.0623 26.082 40.9563 26.4915C40.8504 26.901 40.9098 27.3265 41.1236 27.6896L41.3299 28.0399L37.7069 30.1256C36.627 30.7473 35.4796 31.5871 35.1566 33.1025C35.0821 33.4522 35.008 33.8667 34.9297 34.3057C34.7078 35.5484 34.4316 37.0952 33.9213 38.5143C33.909 38.5486 33.899 38.5835 33.8915 38.619C33.6368 39.8135 34.2969 40.9887 35.4045 41.3518C35.3902 41.3603 35.3756 41.3688 35.361 41.3771L30.076 44.4014C26.8086 46.2714 27.5296 48.1694 27.8284 48.7065C28.2798 49.518 29.1697 49.9999 30.032 49.9999C30.3793 49.9999 30.7224 49.9218 31.0302 49.7554L40.8967 44.4258C41.9839 43.8385 42.7307 42.8854 43.0564 41.6694L44.8257 35.0664L45.3047 34.7898L45.5949 35.2825C45.8088 35.6458 46.152 35.9042 46.5615 36.0101C46.694 36.0444 46.8283 36.0614 46.9616 36.0614C47.2399 36.0614 47.514 35.9874 47.7597 35.8428L49.2213 34.982C49.9727 34.5398 50.224 33.5687 49.7817 32.8174ZM43.73 33.8368C43.5448 33.9437 43.4096 34.1198 43.3542 34.3263L41.4983 41.252C41.2843 42.0511 40.8368 42.625 40.13 43.0068L30.2635 48.3363C30.0018 48.4773 29.4471 48.2987 29.2378 47.9225C28.9346 47.3773 29.578 46.5446 30.877 45.8012L36.1621 42.7768C37.0439 42.2721 37.6586 41.5398 38.0422 40.5359L38.2768 39.9171C38.2794 39.9102 38.2866 39.8898 38.2877 39.8864C38.5555 39.0833 38.7488 38.3122 38.9533 37.4956C39.0454 37.1277 39.1408 36.7472 39.2433 36.3643C39.3587 35.9341 39.1033 35.4919 38.6732 35.3766C38.2433 35.2616 37.8008 35.5167 37.6855 35.9467C37.5794 36.3425 37.4825 36.7294 37.3887 37.1037C37.1952 37.8764 37.0118 38.607 36.7697 39.3391C36.4896 39.9749 36.0917 39.8697 35.9402 39.8291C35.5986 39.7376 35.398 39.3858 35.4604 38.9998C36.0027 37.4706 36.2877 35.8746 36.5173 34.5889C36.5965 34.1452 36.6649 33.762 36.7338 33.4386C36.9136 32.5947 37.5744 32.0626 38.5113 31.5232L42.148 29.4296L44.4862 33.4001L43.73 33.8368ZM46.9686 34.437L42.5294 26.8986L43.9364 26.07L48.3757 33.6083L46.9686 34.437ZM44.0519 26.9066C44.2804 27.0871 44.3192 27.4186 44.1386 27.6469C43.9582 27.8753 43.6266 27.9141 43.3983 27.7337C43.1699 27.5532 43.1311 27.2217 43.3116 26.9934C43.4922 26.7651 43.8236 26.7261 44.0519 26.9066ZM20.15 12.075L25.4117 9.01042C25.4263 9.00195 25.4409 8.99368 25.4554 8.98552C25.2162 10.1262 25.904 11.2854 27.0658 11.6621C27.1003 11.6733 27.1356 11.6821 27.1714 11.6887C28.6555 11.9563 30.133 12.4905 31.3202 12.9197C31.7397 13.0713 32.1359 13.2145 32.4759 13.3248C32.858 13.4488 33.2285 13.502 33.5865 13.502C34.6094 13.502 35.5305 13.0673 36.3293 12.6049L39.9472 10.5103L40.1474 10.8641C40.355 11.231 40.6937 11.4951 41.1014 11.6081C41.2422 11.6472 41.3852 11.6664 41.5275 11.6664C41.7965 11.6664 42.0622 11.5971 42.3022 11.4613L43.7786 10.6258C44.5372 10.1964 44.8053 9.22986 44.3758 8.47114L40.0355 0.802441C39.8278 0.435628 39.4891 0.171431 39.0815 0.0584333C38.6739 -0.0546647 38.2475 -0.00245018 37.8806 0.205199L36.4044 1.04063C36.0375 1.24818 35.7733 1.58697 35.6603 1.99461C35.5473 2.40214 35.5994 2.82863 35.8071 3.19534L36.0886 3.69279L35.6096 3.96929L29.0063 2.19994C27.7903 1.87405 26.5916 2.0441 25.5391 2.69195L15.9903 8.57143C14.9521 9.21071 14.6285 10.7514 15.2977 11.8688C15.6136 12.3961 16.897 13.9692 20.15 12.075ZM38.6473 1.62407L42.9565 9.23752L41.5353 10.0418L37.2263 2.42835L38.6473 1.62407ZM16.836 9.94494L26.3848 4.06545C27.0691 3.64431 27.7898 3.54371 28.5888 3.75791L35.5148 5.61365C35.7214 5.66898 35.9416 5.64005 36.1267 5.533L36.8831 5.09634L39.1527 9.10638L35.5211 11.2089C34.5855 11.7504 33.7942 12.0569 32.9734 11.7904C32.6589 11.6884 32.2927 11.556 31.8686 11.4027C30.6404 10.9588 29.1159 10.4076 27.5206 10.1128C27.1551 9.97377 26.9505 9.62399 27.0421 9.28248C27.0825 9.13158 27.19 8.73473 27.8787 8.80902C28.6348 8.96536 29.36 9.1718 30.1268 9.39084C30.4978 9.49678 30.8814 9.60635 31.2771 9.71229C31.3471 9.73104 31.4172 9.73991 31.4863 9.73991C31.8423 9.73991 32.1682 9.50232 32.2648 9.14196C32.38 8.71175 32.1247 8.26964 31.6945 8.15432C31.3117 8.05171 30.9346 7.94405 30.5698 7.83992C29.7604 7.60869 28.9959 7.39035 28.1663 7.22081C28.1612 7.2198 28.14 7.21587 28.1343 7.21486L27.4791 7.10831C26.42 6.93877 25.4782 7.10509 24.6002 7.61635L19.3383 10.6809C18.045 11.4341 17.0022 11.5752 16.6815 11.0398C16.4601 10.6707 16.5828 10.1008 16.836 9.94494ZM41.2465 8.87182C41.2044 8.58383 41.4038 8.31621 41.6918 8.27407C41.9799 8.23194 42.2474 8.43132 42.2896 8.71931C42.3317 9.00729 42.1323 9.27492 41.8442 9.31705C41.5563 9.35919 41.2887 9.1598 41.2465 8.87182Z" fill="#132C33"></path></svg>