<svg xmlns="http://www.w3.org/2000/svg" width="34" height="30" viewBox="0 0 34 30" fill="none"><path d="M21.7245 19.7376C20.9854 19.7362 20.2496 19.64 19.5351 19.4512C19.3331 19.3975 19.1607 19.266 19.0556 19.0854C18.9505 18.9048 18.9212 18.6899 18.9743 18.4878C19.0273 18.2857 19.1583 18.1128 19.3386 18.0072C19.5189 17.9015 19.7337 17.8716 19.936 17.924C20.5196 18.0785 21.1207 18.1574 21.7245 18.1588C23.0375 18.1577 24.3221 17.777 25.4237 17.0626C26.5253 16.3482 27.3968 15.3305 27.9333 14.1322C28.4698 12.9338 28.6484 11.6059 28.4475 10.3084C28.2466 9.0109 27.6749 7.79914 26.8012 6.8191C25.9275 5.83906 24.789 5.13254 23.523 4.78465C22.257 4.43676 20.9173 4.46234 19.6655 4.8583C18.4137 5.25426 17.303 6.00373 16.4674 7.0164C15.6317 8.02908 15.1066 9.26178 14.9555 10.566C14.9358 10.7674 14.8396 10.9535 14.6867 11.086C14.5338 11.2185 14.3358 11.2871 14.1337 11.2778C13.9316 11.2685 13.7408 11.182 13.6007 11.036C13.4606 10.89 13.3819 10.6958 13.3809 10.4935V10.4854C13.3808 10.4554 13.3825 10.4254 13.3859 10.3956C13.5691 8.78666 14.2139 7.26509 15.2425 6.0144C16.2711 4.76371 17.6396 3.83731 19.1829 3.34693C20.7262 2.85656 22.3784 2.82315 23.9403 3.25073C25.5022 3.67831 26.907 4.54863 27.9853 5.75671C29.0636 6.96479 29.7694 8.45905 30.0176 10.0593C30.2657 11.6595 30.0456 13.2973 29.3838 14.7752C28.7219 16.2532 27.6466 17.508 26.2876 18.3885C24.9286 19.269 23.3438 19.7376 21.7245 19.7376Z" fill="white"></path><path d="M29.8624 29.9977C29.1969 29.998 28.5469 29.7972 27.9975 29.4218C27.448 29.0463 27.0248 28.5136 26.7834 27.8935L24.6495 22.4389C22.9975 22.8858 21.265 22.9478 19.5853 22.62C19.4835 22.6004 19.3865 22.5609 19.2999 22.5038C19.2133 22.4466 19.1388 22.373 19.0807 22.2871C19.0226 22.2011 18.982 22.1046 18.9613 22.0029C18.9405 21.9013 18.94 21.7965 18.9597 21.6947C18.9795 21.5929 19.0192 21.4959 19.0764 21.4094C19.1337 21.3229 19.2074 21.2485 19.2935 21.1905C19.3795 21.1326 19.4761 21.0921 19.5778 21.0715C19.6794 21.0509 19.7842 21.0506 19.886 21.0705C21.549 21.3918 23.2671 21.2728 24.87 20.7255C25.062 20.6609 25.2716 20.6729 25.455 20.7588C25.6385 20.8447 25.7818 20.998 25.8552 21.1869L28.255 27.3207C28.3416 27.5483 28.4762 27.7545 28.6497 27.9254C28.8232 28.0963 29.0314 28.2278 29.2603 28.3109C29.5223 28.4078 29.8038 28.4398 30.0808 28.4043C30.3579 28.3688 30.6222 28.2667 30.8513 28.107C31.0804 27.9472 31.2675 27.7343 31.3965 27.4866C31.5255 27.2389 31.5927 26.9636 31.5923 26.6843C31.5924 26.3346 31.485 25.9934 31.2847 25.7068L27.518 20.2907C27.4024 20.1241 27.3552 19.9194 27.3863 19.7189C27.4175 19.5185 27.5245 19.3377 27.6853 19.2141C28.9764 18.2255 30.0021 16.932 30.6703 15.4495C31.3386 13.967 31.6285 12.3419 31.5142 10.7198C31.3999 9.09766 30.885 7.52926 30.0154 6.15513C29.1459 4.78101 27.949 3.6441 26.532 2.84632C25.115 2.04854 23.5222 1.61481 21.8964 1.58401C20.2705 1.55321 18.6624 1.92629 17.2163 2.66983C15.7701 3.41337 14.531 4.50412 13.61 5.84433C12.689 7.18453 12.115 8.7323 11.9393 10.3489C11.9283 10.452 11.897 10.5519 11.8473 10.6428C11.7976 10.7338 11.7305 10.8141 11.6498 10.8791C11.5691 10.9442 11.4764 10.9927 11.3769 11.0219C11.2774 11.0511 11.1732 11.0604 11.0701 11.0493C10.9671 11.0382 10.8672 11.0069 10.7762 10.9573C10.6853 10.9076 10.605 10.8405 10.5399 10.7598C10.4749 10.679 10.4264 10.5863 10.3972 10.4868C10.368 10.3874 10.3587 10.2832 10.3698 10.1801C10.6779 7.23126 12.1266 4.51972 14.4065 2.6244C16.6865 0.72908 19.6171 -0.199821 22.5726 0.0360254C25.2299 0.254651 27.7288 1.38916 29.6425 3.24574C31.5562 5.10232 32.7658 7.56576 33.0648 10.2152C33.2561 12.0322 33.0076 13.8685 32.3403 15.5693C31.6729 17.2701 30.6062 18.7854 29.2302 19.9874L32.5806 24.8052C32.9243 25.3015 33.1256 25.8824 33.1628 26.4849C33.2 27.0874 33.0717 27.6886 32.7917 28.2234C32.5117 28.7583 32.0908 29.2063 31.5745 29.519C31.0581 29.8318 30.4661 29.9973 29.8624 29.9977Z" fill="white"></path><path d="M19.3406 27.6318H14.6041C14.2901 27.6314 13.9891 27.5066 13.7671 27.2846C13.5451 27.0626 13.4203 26.7616 13.4199 26.4476V13.8169C13.4203 13.503 13.5451 13.202 13.7671 12.98C13.9891 12.758 14.2901 12.6332 14.6041 12.6328H19.3406C19.6545 12.6332 19.9555 12.758 20.1775 12.98C20.3995 13.202 20.5243 13.503 20.5247 13.8169V26.4476C20.5243 26.7616 20.3995 27.0626 20.1775 27.2846C19.9555 27.5066 19.6545 27.6314 19.3406 27.6318ZM14.9988 26.0529H18.9459V14.2117H14.9988V26.0529Z" fill="white"></path><path d="M13.815 27.6317H8.28911C7.97516 27.6314 7.67418 27.5065 7.45218 27.2845C7.23019 27.0625 7.10532 26.7616 7.10498 26.4476V10.6592C7.10532 10.3453 7.23019 10.0443 7.45218 9.8223C7.67418 9.60031 7.97516 9.47544 8.28911 9.4751H13.815C14.129 9.47544 14.43 9.60031 14.652 9.8223C14.874 10.0443 14.9988 10.3453 14.9992 10.6592V26.4476C14.9988 26.7616 14.874 27.0625 14.652 27.2845C14.43 27.5065 14.129 27.6314 13.815 27.6317ZM8.68382 26.0529H13.4203V11.0539H8.68382V26.0529Z" fill="white"></path><path d="M7.49926 27.6318H2.76274C2.4488 27.6315 2.14781 27.5066 1.92581 27.2846C1.70382 27.0626 1.57896 26.7616 1.57861 26.4477V16.9747C1.57896 16.6607 1.70382 16.3597 1.92581 16.1377C2.14781 15.9157 2.4488 15.7909 2.76274 15.7905H7.49926C7.8132 15.7909 8.11419 15.9157 8.33618 16.1377C8.55818 16.3597 8.68304 16.6607 8.68338 16.9747V26.4477C8.68304 26.7616 8.55818 27.0626 8.33618 27.2846C8.11419 27.5066 7.8132 27.6315 7.49926 27.6318ZM3.15745 26.053H7.10455V17.3694H3.15745V26.053Z" fill="white"></path><path d="M20.5249 30.0001H1.57884C1.16023 29.9997 0.758891 29.8332 0.462892 29.5372C0.166894 29.2412 0.000417979 28.8398 0 28.4212V27.6318C0.000417979 27.2132 0.166894 26.8119 0.462892 26.5159C0.758891 26.2199 1.16023 26.0534 1.57884 26.053H20.5249C20.9435 26.0535 21.3448 26.22 21.6408 26.5159C21.9368 26.8119 22.1033 27.2132 22.1037 27.6318V28.4212C22.1033 28.8398 21.9368 29.2411 21.6408 29.5371C21.3448 29.8331 20.9435 29.9996 20.5249 30.0001ZM1.57884 27.6318V28.4212H20.5249V27.6318H1.57884Z" fill="white"></path></svg>