<svg xmlns="http://www.w3.org/2000/svg" width="32" height="30" viewBox="0 0 32 30" fill="none"><path d="M8.74506 26.1135C9.22937 26.1135 9.62435 25.7352 9.65319 25.2581C10.5506 24.9348 11.2349 24.1507 11.4007 23.1639C11.606 21.942 10.9447 20.8379 9.75437 20.4171C9.1738 20.2124 8.53433 19.9659 8.1906 19.6962C8.16813 19.6786 8.12562 19.573 8.15538 19.4157C8.16935 19.3404 8.23494 19.0884 8.47724 19.0155C8.73911 18.9367 9.07506 19.0696 9.35896 19.2327C9.72127 19.4408 10.1798 19.3667 10.4628 19.0594C10.8637 18.624 10.7421 17.9266 10.2172 17.6531C10.0425 17.5621 9.85287 17.4762 9.65459 17.4031C9.64075 16.9123 9.23933 16.5183 8.74506 16.5183C8.28303 16.5183 7.90232 16.8626 7.84305 17.3084C7.08334 17.5808 6.52166 18.2483 6.3651 19.078C6.21267 19.8851 6.4817 20.6715 7.06591 21.1301C7.6155 21.5612 8.39101 21.8679 9.14769 22.1351C9.5989 22.2948 9.64506 22.6185 9.60376 22.862C9.55821 23.1329 9.32502 23.5932 8.73898 23.5969C8.1317 23.6005 7.98777 23.5786 7.54384 23.2877C7.12299 23.0126 6.55821 23.1305 6.28311 23.5513C6.00741 23.9728 6.12583 24.5369 6.54668 24.8126C7.03676 25.1333 7.42354 25.2902 7.84907 25.3625C7.92479 25.7892 8.29664 26.1135 8.74506 26.1135Z" fill="white"></path><path d="M31.0931 2.85425C31.0931 1.2804 29.8127 0 28.2389 0C26.665 0 25.3846 1.2804 25.3846 2.85425C25.3846 3.32551 25.5001 3.7701 25.7033 4.16223L20.8696 9.31816L19.0744 7.52302C19.2648 7.14073 19.3725 6.71034 19.3725 6.25506C19.3725 4.68121 18.0921 3.40081 16.5182 3.40081C14.9444 3.40081 13.664 4.68121 13.664 6.25506C13.664 6.74107 13.7864 7.19897 14.0015 7.59996L9.24814 12.6504C9.06158 12.6384 8.87368 12.6316 8.68415 12.6316C3.89569 12.6316 0 16.5273 0 21.3158C0 26.1043 3.89569 30 8.68421 30H20.8907H28.1781C28.6812 30 29.0891 29.5921 29.0891 29.0891V5.57915C30.249 5.21648 31.0931 4.13211 31.0931 2.85425ZM16.5182 5.22267C17.0875 5.22267 17.5506 5.68579 17.5506 6.25506C17.5506 6.82433 17.0875 7.28745 16.5182 7.28745C15.9489 7.28745 15.4858 6.82433 15.4858 6.25506C15.4858 5.68579 15.9489 5.22267 16.5182 5.22267ZM1.82186 21.3158C1.82186 17.5318 4.90026 14.4534 8.68421 14.4534C12.4682 14.4534 15.5466 17.5318 15.5466 21.3158C15.5466 25.0997 12.4682 28.1781 8.68421 28.1781C4.90026 28.1781 1.82186 25.0997 1.82186 21.3158ZM17.3684 21.3158C17.3684 17.4635 14.8468 14.1896 11.3678 13.0565L15.3283 8.84848C15.6908 9.01542 16.0937 9.10931 16.5182 9.10931C16.9735 9.10931 17.4039 9.00164 17.7862 8.81119L19.9798 11.0048V28.1781H13.9999C16.0479 26.5881 17.3684 24.1034 17.3684 21.3158ZM21.8016 28.1781V10.9878L27.0115 5.43067C27.0946 5.47045 27.1799 5.50628 27.2672 5.53798V28.1781H21.8016ZM28.2389 3.88664C27.6696 3.88664 27.2065 3.42352 27.2065 2.85425C27.2065 2.28498 27.6696 1.82186 28.2389 1.82186C28.8081 1.82186 29.2713 2.28498 29.2713 2.85425C29.2713 3.42352 28.8081 3.88664 28.2389 3.88664Z" fill="white"></path><path d="M0.910931 12.0243H2.91498C3.41806 12.0243 3.82591 11.6164 3.82591 11.1133C3.82591 10.6102 3.41806 10.2024 2.91498 10.2024H0.910931C0.407854 10.2024 0 10.6102 0 11.1133C0 11.6164 0.407854 12.0243 0.910931 12.0243Z" fill="white"></path><path d="M0.910931 8.13754H6.80162C7.3047 8.13754 7.71255 7.72968 7.71255 7.2266C7.71255 6.72353 7.3047 6.31567 6.80162 6.31567H0.910931C0.407854 6.31567 0 6.72353 0 7.2266C0 7.72968 0.407854 8.13754 0.910931 8.13754Z" fill="white"></path></svg>