<svg xmlns="http://www.w3.org/2000/svg" width="30" height="30" viewBox="0 0 30 30" fill="none"><g clip-path="url(#clip0_4158_1093)"><path d="M23.6464 25.5793C23.0168 25.729 22.6277 26.3608 22.7774 26.9904C22.8298 27.211 22.736 27.3725 22.6754 27.4492C22.6144 27.5265 22.4776 27.6562 22.2483 27.6562H7.86839C7.63905 27.6562 7.50236 27.5265 7.44124 27.4492C7.38066 27.3725 7.28685 27.211 7.33929 26.9904C8.18948 23.4151 11.3636 20.918 15.0584 20.918C17.065 20.918 18.9762 21.6606 20.4399 23.0092C20.9158 23.4477 21.6571 23.4174 22.0957 22.9414C22.5343 22.4654 22.5039 21.7241 22.028 21.2855C21.1272 20.4556 20.0962 19.8031 18.984 19.3461C20.1708 18.2731 20.9177 16.7222 20.9177 15C20.9177 11.7691 18.2892 9.14062 15.0584 9.14062C11.8275 9.14062 9.199 11.7691 9.199 15C9.199 16.7256 9.94894 18.2791 11.1399 19.3524C10.2479 19.7194 9.40624 20.2108 8.64616 20.8168C6.85747 22.2428 5.58359 24.2428 5.05917 26.4483C4.85398 27.3113 5.05191 28.2057 5.60228 28.9022C6.15347 29.5999 6.97946 30 7.86839 30H22.2484C23.1373 30 23.9633 29.5999 24.5145 28.9022C25.0648 28.2057 25.2628 27.3113 25.0576 26.4483C24.9079 25.8186 24.2762 25.4296 23.6464 25.5793ZM15.0584 11.4844C16.9969 11.4844 18.574 13.0615 18.574 15C18.574 16.9385 16.9969 18.5156 15.0584 18.5156C13.1199 18.5156 11.5427 16.9385 11.5427 15C11.5427 13.0615 13.1199 11.4844 15.0584 11.4844Z" fill="white"></path><path d="M26.4844 10.8984H25.8941C25.7389 10.8984 25.6093 10.8154 25.5469 10.6641C25.4837 10.5119 25.4938 10.3066 25.6036 10.1968L26.0209 9.77959C27.3917 8.40879 27.3917 6.17848 26.0209 4.80768L25.1923 3.9791C24.5282 3.31506 23.6454 2.94937 22.7064 2.94937C21.7673 2.94937 20.8845 3.31506 20.2204 3.9791L19.8031 4.39641C19.6933 4.50621 19.5029 4.52754 19.3509 4.46443C19.1993 4.4018 19.1015 4.26111 19.1015 4.1059V3.51562C19.1015 1.57711 17.5244 0 15.5859 0H14.414C12.4755 0 10.8984 1.57711 10.8984 3.51562V4.1059C10.8984 4.26111 10.8006 4.4018 10.6489 4.46443C10.497 4.52754 10.3066 4.50621 10.1968 4.39641L9.77947 3.9791C9.11543 3.31506 8.2326 2.94937 7.29352 2.94937C6.35449 2.94937 5.4716 3.31506 4.80762 3.9791L3.9791 4.80773C2.60836 6.17848 2.60836 8.40885 3.9791 9.77965L4.39641 10.1969C4.50621 10.3066 4.51635 10.5119 4.45312 10.6641C4.39066 10.8154 4.26111 10.8984 4.1059 10.8984H3.51562C1.57711 10.8984 0 12.4755 0 14.4141V15.5859C0 17.5245 1.57711 19.1016 3.51562 19.1016H4.10584C4.26105 19.1016 4.4018 19.1993 4.46443 19.351L4.4724 19.3703C4.71961 19.9684 5.40504 20.2529 6.00305 20.0057C6.60117 19.7585 6.88564 19.0731 6.63844 18.475L6.63064 18.4562C6.20461 17.4244 5.21361 16.7578 4.10584 16.7578H3.51562C2.86945 16.7578 2.34375 16.2321 2.34375 15.5859V14.4141C2.34375 13.7679 2.86945 13.2422 3.51562 13.2422H4.1059C5.21361 13.2422 6.20461 12.5756 6.63047 11.5443L6.63768 11.5269C7.06611 10.4954 6.83689 9.32273 6.05367 8.53951L5.63637 8.12226C5.17945 7.66535 5.17945 6.92191 5.63637 6.46494L6.465 5.63631C6.98818 5.11312 7.68826 5.2023 8.12226 5.63631L8.53963 6.05367C9.32279 6.83684 10.4953 7.066 11.5291 6.63674L11.544 6.63059C12.5756 6.20461 13.2422 5.21361 13.2422 4.1059V3.51562C13.2422 2.86945 13.7679 2.34375 14.4141 2.34375H15.5859C16.2321 2.34375 16.7578 2.86945 16.7578 3.51562V4.1059C16.7578 5.21361 17.4244 6.20461 18.4561 6.63059L18.4709 6.63674C19.5048 7.06605 20.6773 6.83684 21.4604 6.05367L21.8778 5.63631C22.3118 5.2023 23.0119 5.11312 23.5351 5.63631L24.3637 6.46494C24.8206 6.92186 24.8206 7.66535 24.3637 8.12226L23.9464 8.53951C23.1632 9.32273 22.9339 10.4953 23.3624 11.5269L23.3696 11.5443C23.7954 12.5756 24.7864 13.2422 25.8941 13.2422H26.4844C27.1305 13.2422 27.6562 13.7679 27.6562 14.4141V15.5859C27.6562 16.2321 27.1305 16.7578 26.4844 16.7578H25.8942C24.7864 16.7578 23.7954 17.4244 23.3694 18.4562L23.3616 18.475C23.1144 19.0731 23.3989 19.7585 23.997 20.0057C24.5951 20.2529 25.2804 19.9684 25.5277 19.3703L25.5356 19.351C25.5983 19.1993 25.7389 19.1016 25.8942 19.1016H26.4844C28.4229 19.1016 30 17.5245 30 15.5859V14.4141C30 12.4755 28.4229 10.8984 26.4844 10.8984Z" fill="white"></path></g><defs><clipPath id="clip0_4158_1093"><rect width="30" height="30" fill="white"></rect></clipPath></defs></svg>