<svg xmlns="http://www.w3.org/2000/svg" width="30" height="30" viewBox="0 0 30 30" fill="none"><g clip-path="url(#clip0_4158_1081)"><path d="M28.4994 9.64971L19.5416 18.6087L15.4661 14.5326C15.123 14.1896 14.5664 14.1894 14.2233 14.5326L0.258104 28.4997C-0.29338 29.0512 0.0970885 30.0001 0.879491 30.0001H29.1209C29.6062 30.0001 29.9996 29.6066 29.9996 29.1212V10.2712C29.9996 9.49133 29.0527 9.09641 28.4994 9.64971ZM28.242 28.2423H3.00105L14.8447 16.397L18.9202 20.4731C19.2632 20.8162 19.8199 20.8163 20.163 20.4731L28.242 12.3931V28.2423Z" fill="white"></path><path d="M0.258379 23.766C0.601504 24.1092 1.15797 24.1093 1.50115 23.766L9.31082 15.9553C12.1101 15.504 14.4293 13.6004 15.4688 11.0445L18.9204 14.4964C19.2635 14.8397 19.82 14.8397 20.1631 14.4964L28.2423 6.41619V7.17363C28.2423 7.65902 28.6358 8.05254 29.1211 8.05254C29.6065 8.05254 29.9999 7.65902 29.9999 7.17363C29.9999 4.09617 30.003 4.27195 29.993 4.18828C29.939 3.74484 29.5624 3.41566 29.1212 3.41566H26.2427C25.7573 3.41566 25.3639 3.80918 25.3639 4.29457C25.3639 4.77996 25.7573 5.17348 26.2427 5.17348H26.9993L19.5417 12.632L15.9883 9.07822C16.0333 8.73475 16.0569 8.38459 16.0569 8.02904C16.0568 3.60182 12.4555 0 8.02891 0C3.60227 0 0.000976562 3.60182 0.000976562 8.02904C0.000976562 12.0434 2.96195 15.379 6.81426 15.9663L0.258379 22.5231C-0.0848047 22.8663 -0.0848047 23.4228 0.258379 23.766ZM1.75855 8.02904C1.75855 4.57107 4.57141 1.75781 8.02891 1.75781C11.4864 1.75781 14.2993 4.57107 14.2993 8.02904C14.2993 11.487 11.4864 14.3003 8.02891 14.3003C4.57141 14.3003 1.75855 11.487 1.75855 8.02904Z" fill="white"></path><path d="M8.90752 12.504V12.3723C9.90496 12.1764 10.6599 11.2955 10.6599 10.2414V9.32192C10.6599 8.12438 9.68582 7.15015 8.48846 7.15015H7.56906C7.34084 7.15015 7.1551 6.9644 7.1551 6.73612V5.81655C7.1551 5.58827 7.34078 5.40253 7.56906 5.40253H8.48846C8.71668 5.40253 8.90236 5.58827 8.90236 5.81655C8.90236 6.30194 9.29582 6.69546 9.78115 6.69546C10.2665 6.69546 10.6599 6.30194 10.6599 5.81655C10.6599 4.76239 9.90496 3.88161 8.90752 3.68573V3.55396C8.90752 3.06856 8.51406 2.67505 8.02873 2.67505C7.5434 2.67505 7.14994 3.06856 7.14994 3.55396V3.68573C6.15244 3.88161 5.39746 4.76245 5.39746 5.81661V6.73612C5.39746 7.93366 6.37164 8.90796 7.569 8.90796H8.4884C8.71662 8.90796 8.9023 9.09364 8.9023 9.32192V10.2414C8.9023 10.4697 8.71662 10.6555 8.4884 10.6555H7.569C7.34078 10.6555 7.15504 10.4697 7.15504 10.2414C7.15504 9.75604 6.76158 9.36253 6.27625 9.36253C5.79092 9.36253 5.39746 9.75604 5.39746 10.2414C5.39746 11.2956 6.15244 12.1764 7.14994 12.3723V12.5041C7.14994 12.9895 7.5434 13.383 8.02873 13.383C8.51406 13.383 8.90752 12.9895 8.90752 12.504Z" fill="white"></path></g><defs><clipPath id="clip0_4158_1081"><rect width="30" height="30" fill="white"></rect></clipPath></defs></svg>