<svg xmlns="http://www.w3.org/2000/svg" width="52" height="50" viewBox="0 0 52 50" fill="none"><path d="M36.7911 16.1953V16.218V28.5281C36.7911 29.6379 35.731 30.5666 34.0258 31.1554C32.6085 31.6537 30.6613 31.9595 28.5297 31.9595C25.7183 36.1837 19.6576 36.8179 16.0166 33.2392C12.848 30.1249 12.848 25.0853 16.0166 21.971C17.1227 20.8838 18.54 20.1137 20.13 19.7966V16.2066C20.13 15.0855 21.1901 14.1682 22.8953 13.5793C25.9948 12.5034 30.9148 12.5034 34.0258 13.5793C35.731 14.1795 36.7795 15.0855 36.7911 16.1953ZM18.8856 29.4454C18.8395 28.9811 19.1852 28.5734 19.6576 28.5281C20.13 28.4828 20.5448 28.8225 20.5909 29.2868C20.6485 29.9437 21.9275 30.3287 22.6649 29.7398C22.8377 29.6039 22.9414 29.4227 22.9414 29.2302C22.9414 28.6753 22.2731 28.5507 21.6049 28.4262C20.2452 28.1657 18.8741 27.9052 18.8741 25.9687C18.8741 24.8022 19.7728 23.9075 20.8905 23.6018V23.2507C20.8905 22.7864 21.2707 22.4013 21.7662 22.4013C22.2501 22.4013 22.6303 22.7864 22.6188 23.262L22.6073 23.6018C23.7365 23.8962 24.6352 24.7909 24.6352 25.9687C24.6352 26.433 24.255 26.8067 23.7825 26.8067C23.3101 26.8067 22.9299 26.433 22.9299 25.9687C22.9299 25.2779 21.6049 24.8588 20.8559 25.459C20.6831 25.5949 20.5794 25.7761 20.5794 25.9687C20.5794 26.5236 21.2477 26.6482 21.916 26.7727C23.2756 27.0332 24.6467 27.2937 24.6467 29.2302C24.6467 30.3967 23.7365 31.3027 22.6073 31.5971V31.9482C22.6073 32.4125 22.2271 32.7976 21.7546 32.7976C21.2822 32.7976 20.8905 32.4238 20.8905 31.9482V31.5971C19.8535 31.314 18.9893 30.5213 18.8856 29.4454ZM29.4054 30.2608C30.9954 30.1815 32.4127 29.9324 33.4727 29.57C34.4751 29.2189 35.0858 28.8452 35.0858 28.5281V26.6029C33.7377 27.3163 31.7559 27.69 29.8663 27.8146C29.8432 28.6753 29.6819 29.4907 29.4054 30.2608ZM29.728 26.1499C31.2604 26.0479 32.62 25.7875 33.6225 25.4137C34.5212 25.074 35.0743 24.7229 35.0743 24.4285V22.5033C33.4957 23.33 31.0646 23.715 28.8408 23.7603C29.2671 24.4851 29.5667 25.2892 29.728 26.1499ZM27.5733 22.0616C29.6473 22.1635 31.9287 21.903 33.4612 21.3595C34.4636 21.0084 35.0743 20.6347 35.0743 20.3176V18.3923C31.8942 20.0684 25.0269 20.0684 21.8468 18.3923V19.6381C24.1052 19.672 26.1215 20.5894 27.5733 22.0616ZM21.1094 21.3595C21.0979 21.3595 21.0979 21.3595 21.0864 21.3595C17.8832 21.6765 15.3829 24.3719 15.3829 27.5994C15.3829 31.0648 18.2404 33.8847 21.7662 33.8847C25.292 33.8847 28.1494 31.0762 28.1494 27.5994C28.1494 23.8849 24.8887 20.9857 21.1094 21.3595ZM44.9257 47.8483H41.5036C41.2271 47.8483 40.9967 47.7237 40.8354 47.5425L38.5079 44.9944C31.537 48.9128 22.9875 49.1506 15.7977 45.6286C15.3714 45.4134 15.1985 44.9038 15.4405 44.4621L18.2058 38.9922C18.4132 38.5732 18.9317 38.4034 19.3465 38.6185C26.1446 41.948 34.3945 40.1587 39.1646 34.3264C40.6049 32.5597 41.6765 30.476 42.2411 28.211C42.3448 27.7693 42.7941 27.4975 43.232 27.5881L49.3848 28.7659C49.8687 28.8565 50.1798 29.3321 50.0416 29.8304C49.2235 33.2732 47.6334 36.4215 45.4788 39.1055C43.9233 41.042 42.0567 42.7294 39.9712 44.1111L41.8839 46.1722H44.9257C45.571 44.0205 48.3478 43.2957 49.984 44.9038C51.8966 46.7837 50.537 50 47.8408 50C46.4697 49.9887 45.2944 49.1053 44.9257 47.8483ZM37.3326 43.7147L36.0997 42.3671C35.7886 42.0273 35.8117 41.495 36.1574 41.1779C36.5145 40.8722 37.0446 40.8948 37.3672 41.2459L38.819 42.8314C43.3702 39.8982 46.7232 35.4249 48.175 30.2381L43.6929 29.3774C41.446 36.8518 34.4405 41.9594 26.5479 41.9594C24.0591 41.9594 21.6164 41.4497 19.3696 40.4758L17.3417 44.4848C23.7249 47.3273 31.1683 47.0329 37.3326 43.7147ZM47.8293 48.3013C49.0046 48.3013 49.5922 46.897 48.7626 46.0816C47.933 45.2662 46.5043 45.8438 46.5043 46.9989C46.5158 47.7237 47.1034 48.3013 47.8293 48.3013ZM3.86072 6.72774V11.269L5.51991 12.7299C8.79221 7.02219 14.392 2.79802 21.0287 1.28049C21.4896 1.17857 21.939 1.45036 22.0657 1.93733L23.6443 7.84891C23.7595 8.31322 23.4714 8.77754 22.976 8.87947C19.3465 9.68353 16.1664 11.6994 13.9196 14.4626C8.40046 21.2462 9.46049 31.1441 16.2931 36.6593C16.6503 36.9538 16.7079 37.4634 16.4314 37.8258L12.5945 42.6955C12.2949 43.0692 11.7534 43.1258 11.3732 42.8314C2.74307 35.9798 -0.0337695 24.168 4.72488 14.2814L2.48958 12.2996C2.29371 12.141 2.17849 11.9145 2.17849 11.6427V6.72774C-0.0107253 6.09355 -0.748144 3.36426 0.888004 1.75613C2.80068 -0.112465 6.07298 1.21254 6.07298 3.86256C6.03841 5.19889 5.12816 6.35402 3.86072 6.72774ZM6.8104 13.8737L8.70003 15.5385C9.0457 15.8442 9.08026 16.3878 8.75764 16.7276C8.44654 17.0787 7.905 17.1013 7.54781 16.7955L6.01537 15.4366C2.01718 24.2926 4.40226 34.6322 11.7534 40.9628L14.5533 37.4068C7.54782 31.2007 6.66061 20.6913 12.5715 13.4207C14.8874 10.5782 18.0791 8.44912 21.7546 7.45254L20.6024 3.11512C14.6685 4.71192 9.70246 8.64165 6.8104 13.8737ZM2.99656 2.5602C1.8213 2.5602 1.23367 3.96448 2.06326 4.77987C2.89286 5.59526 4.32161 5.01769 4.32161 3.86256C4.32161 3.14909 3.73398 2.5602 2.99656 2.5602ZM46.0549 3.82858H43.013L41.3539 5.64056C47.0919 10.0233 50.6868 16.8295 50.6868 24.3832C50.6868 24.8475 50.3066 25.2326 49.8342 25.2326H43.5661C43.0937 25.2326 42.7019 24.8588 42.7019 24.3832C42.7019 15.6064 35.466 8.49442 26.5363 8.49442C26.0639 8.49442 25.6837 8.1207 25.6837 7.65638V1.49566C25.6837 1.03134 26.0639 0.657624 26.5363 0.657624C31.5024 0.657624 36.1113 2.12986 39.9481 4.6553L41.9645 2.45828C42.1258 2.26575 42.3678 2.14118 42.6328 2.14118H46.0549C46.7001 -0.0105417 49.477 -0.735332 51.1131 0.872797C53.0143 2.75272 51.6547 5.95766 48.97 5.95766C47.5989 5.95766 46.4236 5.07432 46.0549 3.82858ZM40.1901 6.88629L38.4848 8.74357C38.1737 9.08331 37.6207 9.11729 37.275 8.80019C36.9178 8.49442 36.8948 7.96215 37.2059 7.61108L38.7729 5.90103C35.4775 3.78328 31.5715 2.49225 27.3775 2.34503V6.81834C36.5722 7.24869 43.9463 14.4966 44.3727 23.5225H48.9239C48.6935 16.8182 45.3636 10.8047 40.1901 6.88629ZM49.9033 2.06191C49.0737 1.24652 47.645 1.82408 47.645 2.97922C47.645 4.13435 49.0737 4.71192 49.9033 3.89653C50.4103 3.39824 50.4103 2.57152 49.9033 2.06191ZM33.4612 15.1761C30.7304 14.2248 26.2022 14.2248 23.4714 15.1761C22.469 15.5272 21.8583 15.9009 21.8583 16.218C21.8583 16.5351 22.4805 16.9201 23.4714 17.2599C26.2022 18.2111 30.7304 18.2111 33.4612 17.2599C34.4636 16.9088 35.0743 16.5351 35.0743 16.218C35.0858 15.8895 34.4636 15.5158 33.4612 15.1761Z" fill="#132C33"></path></svg>