<svg xmlns="http://www.w3.org/2000/svg" width="49" height="50" viewBox="0 0 49 50" fill="none"><path fill-rule="evenodd" clip-rule="evenodd" d="M23.9518 33.7932C22.6302 37.6397 18.9439 40.4208 14.6248 40.4208C9.20217 40.4208 4.77696 36.0368 4.77696 30.6644C4.77696 25.292 9.20217 20.9081 14.6248 20.9081C16.6736 20.9081 18.5801 21.5338 20.1591 22.6022V17.8374C20.1591 17.392 20.5236 17.0309 20.9732 17.0309H26.2014C26.651 17.0309 27.0154 17.392 27.0154 17.8374V32.1803H29.8698V12.3957C29.8698 11.9503 30.2342 11.5892 30.6838 11.5892H35.912C36.3617 11.5892 36.726 11.9503 36.726 12.3957V32.1803H39.5804V7.50494C39.5804 7.05948 39.9449 6.69849 40.3944 6.69849H45.6226C46.0723 6.69849 46.4367 7.05948 46.4367 7.50494V32.1803H48.186C48.6352 32.1803 49 32.5416 49 32.9868C49 33.4319 48.6352 33.7932 48.186 33.7932H23.9518ZM21.7872 23.9805C23.4507 25.7289 24.4728 28.0826 24.4728 30.6644C24.4728 31.1798 24.432 31.6861 24.3537 32.1803H25.3874V18.6439H21.7872V23.9805ZM31.4978 32.1803H35.098V13.2021H31.4978V32.1803ZM41.2084 32.1803H44.8086V8.31139H41.2084V32.1803ZM14.6248 38.8079C19.1512 38.8079 22.8448 35.1486 22.8448 30.6644C22.8448 26.1801 19.1512 22.521 14.6248 22.521C10.0986 22.521 6.405 26.1801 6.405 30.6644C6.405 35.1486 10.0986 38.8079 14.6248 38.8079ZM13.8108 25.5469V25C13.8108 24.5549 14.1756 24.1935 14.6248 24.1935C15.0742 24.1935 15.4389 24.5549 15.4389 25V25.5376C16.5183 25.7528 17.5218 26.4234 18.0347 27.632C18.2088 28.0422 18.0139 28.5154 17.5998 28.6879C17.1855 28.8604 16.708 28.6673 16.5338 28.257C16.043 27.1001 14.7358 26.8625 13.7963 27.2288C13.2483 27.4425 12.8107 27.8817 12.8416 28.5193C12.8665 29.0204 13.1921 29.3078 13.5821 29.4968C13.9467 29.6733 14.3681 29.7726 14.765 29.8373C16.3455 30.0934 18.0867 30.7996 18.316 32.6613L18.3162 32.6624C18.5399 34.4976 17.0147 35.542 15.4389 35.8033V36.3288C15.4389 36.7739 15.0742 37.1353 14.6248 37.1353C14.1756 37.1353 13.8108 36.7739 13.8108 36.3288V35.7916C12.4637 35.5406 11.2928 34.6804 10.9374 33.2665C10.829 32.8346 11.0948 32.3967 11.5308 32.2891C11.9667 32.1817 12.4088 32.445 12.5173 32.8769C12.7631 33.8549 13.7588 34.2775 14.7233 34.2549C15.2392 34.2429 15.8135 34.1149 16.2367 33.8259C16.545 33.6153 16.7538 33.2997 16.7 32.8563C16.6304 32.2936 16.2448 31.9829 15.7949 31.7806C15.3904 31.5989 14.9315 31.4986 14.502 31.429L14.5012 31.4288C12.9576 31.1771 11.3053 30.4158 11.2155 28.5978V28.5973C11.148 27.2111 12.0086 26.1927 13.1999 25.728C13.3961 25.6516 13.6008 25.5909 13.8108 25.5469ZM34.5776 3.51885C31.7118 2.29244 28.5527 1.6129 25.2345 1.6129C12.2058 1.6129 1.62804 12.0923 1.62804 25C1.62804 37.9077 12.2058 48.3871 25.2345 48.3871C33.7614 48.3871 41.2382 43.8983 45.3876 37.1783C45.622 36.7986 46.1235 36.6789 46.5068 36.9112C46.89 37.1434 47.0107 37.6403 46.7763 38.02C42.3411 45.2029 34.3488 50 25.2345 50C11.3072 50 0 38.7979 0 25C0 11.2021 11.3072 0 25.2345 0C28.8427 0 32.2749 0.752016 35.3803 2.10595L35.1707 1.33115C35.0543 0.90121 35.3123 0.458669 35.7463 0.343448C36.1802 0.228327 36.6269 0.48377 36.7432 0.91371L37.4662 3.5869C37.5826 4.01714 37.3249 4.45937 36.8907 4.5746L34.0844 5.31956C33.6506 5.43468 33.2038 5.17923 33.0875 4.74929C32.9713 4.31936 33.2291 3.87681 33.6631 3.76159C33.6631 3.76159 34.1064 3.64395 34.5776 3.51885Z" fill="#132C33"></path></svg>