<svg xmlns="http://www.w3.org/2000/svg" width="50" height="50" viewBox="0 0 50 50" fill="none"><path fill-rule="evenodd" clip-rule="evenodd" d="M38.1849 35.2104C39.287 35.2104 40.1115 35.7925 40.1115 36.3117C40.1115 36.5334 40.2001 36.746 40.3577 36.9027C40.5153 37.0595 40.729 37.1475 40.9519 37.1475C41.1748 37.1475 41.3886 37.0595 41.5462 36.9027C41.7038 36.746 41.7923 36.5334 41.7923 36.3117C41.7923 34.9797 40.6294 33.8952 39.0253 33.6121V32.7919C39.0253 32.5702 38.9368 32.3576 38.7791 32.2009C38.6215 32.0441 38.4078 31.9561 38.1849 31.9561C37.962 31.9561 37.7482 32.0441 37.5906 32.2009C37.433 32.3576 37.3445 32.5702 37.3445 32.7919V33.6119C35.7393 33.8949 34.5764 34.9796 34.5764 36.3116C34.5764 38.4868 36.6627 38.8399 38.0431 39.0729C39.7439 39.3612 40.1116 39.5587 40.1116 40.1866C40.1116 40.7068 39.287 41.2877 38.185 41.2877C37.083 41.2877 36.2572 40.7069 36.2572 40.1866C36.2572 39.9649 36.1687 39.7523 36.0111 39.5956C35.8535 39.4388 35.6397 39.3508 35.4168 39.3508C35.1939 39.3508 34.9802 39.4388 34.8226 39.5956C34.665 39.7523 34.5764 39.9649 34.5764 40.1866C34.5764 41.5184 35.7393 42.6031 37.3445 42.8873V43.7062C37.3445 43.9279 37.433 44.1405 37.5906 44.2972C37.7482 44.454 37.962 44.542 38.1849 44.542C38.4078 44.542 38.6215 44.454 38.7791 44.2972C38.9368 44.1405 39.0253 43.9279 39.0253 43.7062V42.8871C40.6295 42.603 41.7923 41.5185 41.7923 40.1865C41.7923 38.0113 39.706 37.6582 38.3257 37.4252C36.6249 37.1378 36.2571 36.9394 36.2571 36.3115C36.2571 35.7921 37.0819 35.2103 38.1849 35.2102V35.2104ZM48.3191 38.2497C48.319 40.2432 47.7245 42.1919 46.6108 43.8493C45.4971 45.5068 43.9142 46.7986 42.0623 47.5614C40.2104 48.3241 38.1726 48.5236 36.2067 48.1346C34.2407 47.7456 32.435 46.7856 31.0177 45.3759C29.6004 43.9662 28.6352 42.1702 28.2443 40.215C27.8533 38.2598 28.0541 36.2333 28.8213 34.3916C29.5885 32.5499 30.8876 30.9758 32.5543 29.8684C34.221 28.7609 36.1804 28.1699 38.1849 28.17C40.8719 28.1732 43.4478 29.2362 45.3477 31.1259C47.2476 33.0155 48.3162 35.5775 48.3191 38.2497ZM32.1172 48.3282C30.538 47.3838 29.2006 46.0878 28.2104 44.5422H17.0751V48.3282H32.1172ZM27.3217 42.8706C26.803 41.6693 26.4912 40.3897 26.3993 39.0855H17.0751V42.8708L27.3217 42.8706ZM15.2934 43.8224C15.3561 43.8234 15.4185 43.8314 15.4793 43.8464C15.4964 43.7987 15.516 43.752 15.5383 43.7064C15.4437 43.5108 15.3945 43.2966 15.3944 43.0796V38.8766C15.3947 38.4888 15.5498 38.1169 15.8255 37.8427C16.1012 37.5685 16.4751 37.4143 16.8651 37.4139H26.3993C26.5627 35.1037 27.4129 32.8939 28.8417 31.0651C28.3984 24.7244 24.5977 17.0373 19.6793 12.5344H10.8834C7.85175 15.3145 5.06035 19.5573 3.38165 23.9535C1.49295 28.8962 1.16204 33.5014 2.44891 36.9199C4.14232 41.4154 8.46398 43.7379 15.2933 43.8225L15.2934 43.8224ZM9.97576 8.5838C10.0795 8.56654 10.1845 8.55749 10.2898 8.55674H20.275C20.3809 8.55756 20.4866 8.56678 20.5911 8.58432C22.2703 7.40871 23.5048 5.70732 24.0976 3.75195C23.4257 4.02571 22.7058 4.16372 21.9797 4.15794C20.6121 4.15794 20.051 3.27909 19.6802 2.69759C19.3221 2.13593 19.1697 1.94182 18.6308 1.94182C18.239 1.94182 18.094 2.08933 17.6906 2.67084C17.2789 3.26259 16.658 4.15731 15.2829 4.15731C13.9078 4.15731 13.2859 3.26238 12.8741 2.67021C12.4708 2.08871 12.3257 1.94119 11.934 1.94119C11.3951 1.94119 11.2437 2.13541 10.8844 2.69696C10.5136 3.27878 9.95265 4.15731 8.58594 4.15731C7.68461 4.15731 6.90724 3.63765 6.28534 3.04988C6.77293 5.29007 8.09044 7.26571 9.97586 8.5839L9.97576 8.5838ZM20.275 10.8623C20.3595 10.8623 20.4406 10.8289 20.5004 10.7694C20.5601 10.71 20.5937 10.6294 20.5937 10.5453C20.5937 10.4612 20.5601 10.3806 20.5004 10.3212C20.4406 10.2617 20.3595 10.2283 20.275 10.2283H10.2899C10.2053 10.2283 10.1242 10.2617 10.0644 10.3212C10.0046 10.3807 9.97103 10.4613 9.97103 10.5454C9.97103 10.6295 10.0046 10.7102 10.0644 10.7696C10.1242 10.8291 10.2053 10.8625 10.2899 10.8625H20.2751L20.275 10.8623ZM34.1437 19.9447C32.6897 19.789 31.2558 19.0964 30.0981 17.944C28.6222 16.4772 27.891 14.5652 28.0801 12.7318C29.9236 12.5437 31.8462 13.2718 33.3211 14.7387C34.4787 15.89 35.1763 17.3159 35.3328 18.762L32.3042 15.75C32.1465 15.5932 31.9327 15.5051 31.7097 15.5051C31.4867 15.5051 31.2728 15.5931 31.1151 15.7499C30.9574 15.9067 30.8688 16.1194 30.8688 16.3412C30.8688 16.563 30.9573 16.7757 31.115 16.9325L34.1437 19.9447ZM41.0371 18.762L44.0656 15.7499C44.2233 15.5932 44.4372 15.5053 44.6601 15.5054C44.883 15.5055 45.0968 15.5937 45.2543 15.7505C45.4119 15.9074 45.5003 16.12 45.5002 16.3417C45.5001 16.5634 45.4114 16.776 45.2537 16.9327L42.2251 19.9447C43.6801 19.789 45.113 19.0964 46.2717 17.944C47.7466 16.4772 48.4777 14.5653 48.2897 12.7318C46.446 12.5448 44.5236 13.2719 43.0477 14.7387C41.89 15.89 41.1924 17.3161 41.0371 18.762ZM50 38.2497C49.9962 41.365 48.7502 44.3515 46.5353 46.5543C44.3203 48.7571 41.3173 49.9963 38.1849 50C38.0168 50 37.8508 49.9958 37.6859 49.9885C37.6425 49.996 37.5986 49.9999 37.5546 50H16.865C16.475 49.9996 16.1012 49.8454 15.8255 49.5711C15.5497 49.2969 15.3947 48.9251 15.3943 48.5374V45.4855C15.3573 45.4909 15.3201 45.4938 15.2828 45.494H15.2723C5.81567 45.377 2.22295 41.0852 0.875152 37.5059C-0.555632 33.7069 -0.223778 28.683 1.8101 23.3589C3.43628 19.1024 6.06463 14.9727 8.97757 12.0422C8.63486 11.7463 8.40386 11.3429 8.32269 10.8988C8.24153 10.4547 8.31504 9.99627 8.53111 9.59929C7.23989 8.58758 6.19675 7.29726 5.48047 5.82582C4.76419 4.35438 4.39351 2.7403 4.39644 1.1055C4.39644 0.392769 4.79132 0.144328 5.02674 0.0600166C5.69286 -0.178395 6.11831 0.331338 6.61205 0.922038C7.06902 1.46855 7.91888 2.48571 8.58594 2.48571C9.0093 2.48571 9.12695 2.33245 9.46616 1.80088C9.85485 1.19096 10.4431 0.269593 11.9339 0.269593C13.2513 0.269593 13.8563 1.14279 14.2575 1.72064C14.6587 2.29849 14.827 2.48571 15.2829 2.48571C15.7388 2.48571 15.9058 2.29881 16.3071 1.72064C16.7084 1.14248 17.3147 0.269593 18.631 0.269593C20.1216 0.269593 20.7099 1.19106 21.0996 1.80088C21.4388 2.33224 21.5556 2.48571 21.9798 2.48571C23.458 2.48571 24.4874 1.75825 24.4874 1.10539C24.4874 0.995633 24.5091 0.886949 24.5514 0.785545C24.5936 0.684141 24.6555 0.592004 24.7335 0.514393C24.8116 0.436782 24.9042 0.375217 25.0062 0.333214C25.1082 0.291212 25.2174 0.269593 25.3278 0.269593C25.4382 0.269593 25.5474 0.291212 25.6494 0.333214C25.7514 0.375217 25.844 0.436782 25.9221 0.514393C26.0001 0.592004 26.062 0.684141 26.1042 0.785545C26.1465 0.886949 26.1682 0.995633 26.1682 1.10539C26.1712 2.7402 25.8005 4.3543 25.0842 5.82575C24.368 7.2972 23.3248 8.58751 22.0335 9.59919C22.2496 9.99618 22.3231 10.4546 22.2419 10.8987C22.1607 11.3428 21.9297 11.7462 21.587 12.0421C23.7479 14.211 25.7544 17.0339 27.3218 20.1285C28.9122 23.2698 29.948 26.4565 30.363 29.4497C32.3026 27.737 34.7572 26.71 37.3446 26.5286V23.1268L35.7878 21.5787C35.4492 21.6269 35.1076 21.6513 34.7656 21.6518C32.6605 21.6518 30.551 20.7596 28.909 19.1267C26.8805 17.109 25.9876 14.3814 26.5213 11.8301C26.5547 11.6706 26.6343 11.5242 26.7501 11.409C26.866 11.2937 27.0132 11.2146 27.1736 11.1814C29.7391 10.651 32.4808 11.5387 34.5093 13.5571C36.4181 15.4544 37.3215 17.9816 36.9769 20.3981L38.185 21.5984L39.3919 20.3981C39.0483 17.9816 39.9507 15.4544 41.8595 13.5571C43.888 11.5387 46.6308 10.651 49.1962 11.1814C49.3565 11.2146 49.5035 11.2938 49.6192 11.409C49.735 11.5243 49.8143 11.6706 49.8475 11.8301C50.3811 14.3813 49.4882 17.1093 47.4597 19.1267C45.8177 20.7594 43.7083 21.6518 41.6042 21.6518C41.2618 21.6514 40.9199 21.627 40.581 21.5787L39.0253 23.1268V26.5287C42.0046 26.7436 44.7918 28.0714 46.8274 30.2455C48.8631 32.4196 49.9965 35.279 50 38.2497ZM45.1319 38.2497C45.1318 39.6163 44.7242 40.9521 43.9607 42.0883C43.1972 43.2245 42.1121 44.11 40.8426 44.6329C39.573 45.1558 38.1761 45.2925 36.8285 45.0258C35.4808 44.7591 34.2429 44.1009 33.2714 43.1345C32.2998 42.1682 31.6382 40.937 31.3703 39.5967C31.1023 38.2563 31.24 36.8671 31.7659 35.6046C32.2919 34.3421 33.1824 33.2631 34.325 32.5039C35.4676 31.7448 36.8108 31.3397 38.1849 31.3398C40.0269 31.3417 41.793 32.0704 43.0954 33.3658C44.3978 34.6613 45.1302 36.4178 45.1319 38.2497ZM46.8127 38.2497C46.8126 39.9469 46.3065 41.606 45.3583 43.0171C44.4101 44.4282 43.0625 45.528 41.4858 46.1774C39.9091 46.8268 38.1742 46.9967 36.5005 46.6655C34.8268 46.3343 33.2894 45.5169 32.0827 44.3168C30.8761 43.1166 30.0544 41.5875 29.7216 39.9229C29.3887 38.2583 29.5597 36.533 30.2128 34.965C30.866 33.397 31.972 32.0569 33.391 31.1141C34.81 30.1712 36.4783 29.6681 38.1848 29.6682C40.4725 29.6706 42.6657 30.5756 44.2832 32.1844C45.9008 33.7933 46.8105 35.9746 46.8127 38.2497ZM15.2829 34.6066C15.06 34.6066 14.8462 34.5185 14.6886 34.3618C14.531 34.205 14.4425 33.9925 14.4425 33.7708V32.6622C12.5411 32.375 11.1512 31.1255 11.1512 29.5845C11.1512 29.4747 11.1729 29.366 11.2151 29.2646C11.2574 29.1632 11.3193 29.0711 11.3973 28.9935C11.4754 28.9159 11.568 28.8543 11.67 28.8123C11.7719 28.7703 11.8812 28.7487 11.9916 28.7487C12.1019 28.7487 12.2112 28.7703 12.3132 28.8123C12.4151 28.8543 12.5078 28.9159 12.5858 28.9935C12.6639 29.0711 12.7258 29.1632 12.768 29.2646C12.8102 29.366 12.832 29.4747 12.832 29.5845C12.832 30.2791 13.8385 31.0524 15.2828 31.0524C16.7271 31.0524 17.7326 30.2792 17.7326 29.5845C17.7326 28.687 17.117 28.4394 15.1411 28.1051C14.2681 27.9567 13.3646 27.8042 12.6283 27.4198C11.6618 26.9141 11.1513 26.0689 11.1513 24.9771C11.1513 23.436 12.5411 22.1866 14.4424 21.8993V20.7908C14.4424 20.5692 14.5309 20.3566 14.6885 20.1998C14.8461 20.0431 15.0599 19.955 15.2828 19.955C15.5057 19.955 15.7194 20.0431 15.877 20.1998C16.0347 20.3566 16.1232 20.5692 16.1232 20.7908V21.8992C18.0236 22.1864 19.4134 23.4361 19.4134 24.9771C19.4134 25.1988 19.3248 25.4114 19.1672 25.5681C19.0096 25.7249 18.7959 25.8129 18.573 25.8129C18.3501 25.8129 18.1363 25.7249 17.9787 25.5681C17.8211 25.4114 17.7326 25.1988 17.7326 24.9771C17.7326 24.2823 16.7263 23.5093 15.2828 23.5093C13.8393 23.5093 12.832 24.2824 12.832 24.9771C12.832 25.8744 13.4477 26.1222 15.4237 26.4565C16.2966 26.6048 17.2011 26.7574 17.9365 27.1419C18.9029 27.6475 19.4135 28.4927 19.4135 29.5845C19.4135 31.1254 18.0236 32.375 16.1233 32.6623V33.7708C16.1233 33.9925 16.0348 34.205 15.8772 34.3618C15.7195 34.5185 15.5058 34.6066 15.2829 34.6066Z" fill="#132C33"></path></svg>