<svg xmlns="http://www.w3.org/2000/svg" width="30" height="30" viewBox="0 0 30 30" fill="none"><g clip-path="url(#clip0_4158_1129)"><path d="M5.33203 15C5.33203 20.3309 9.66908 24.668 15 24.668C20.3309 24.668 24.668 20.3309 24.668 15C24.668 9.66908 20.3309 5.33203 15 5.33203C9.66908 5.33203 5.33203 9.66908 5.33203 15ZM9.40664 10.6496C9.74988 10.9929 10.3063 10.9929 10.6496 10.6496C10.9928 10.3064 10.9928 9.74994 10.6496 9.4067L10.0654 8.82252C11.2036 7.91156 12.5977 7.30811 14.1211 7.13895V7.96875C14.1211 8.45414 14.5146 8.84766 15 8.84766C15.4854 8.84766 15.8789 8.45414 15.8789 7.96875V7.13895C17.4023 7.30816 18.7964 7.91156 19.9345 8.82252L19.3504 9.4067C19.0071 9.74994 19.0071 10.3064 19.3504 10.6496C19.6936 10.9929 20.2501 10.9929 20.5933 10.6496L21.1775 10.0655C22.0884 11.2036 22.6919 12.5977 22.8611 14.1211H22.0312C21.5459 14.1211 21.1523 14.5146 21.1523 15C21.1523 15.4854 21.5459 15.8789 22.0312 15.8789H22.8611C22.6918 17.4023 22.0884 18.7964 21.1775 19.9345L20.5933 19.3504C20.2501 19.0071 19.6936 19.0071 19.3504 19.3504C19.0071 19.6936 19.0071 20.2501 19.3504 20.5933L19.9345 21.1775C18.7964 22.0884 17.4023 22.6919 15.8789 22.8611V22.0312C15.8789 21.5459 15.4854 21.1523 15 21.1523C14.5146 21.1523 14.1211 21.5459 14.1211 22.0312V22.8611C12.5977 22.6918 11.2036 22.0884 10.0655 21.1775L10.6496 20.5933C10.9929 20.2501 10.9929 19.6936 10.6496 19.3504C10.3064 19.0071 9.74994 19.0071 9.4067 19.3504L8.82252 19.9345C7.91156 18.7964 7.30811 17.4023 7.13895 15.8789H7.96875C8.45414 15.8789 8.84766 15.4854 8.84766 15C8.84766 14.5146 8.45414 14.1211 7.96875 14.1211H7.13895C7.30816 12.5977 7.91156 11.2036 8.82252 10.0655L9.40664 10.6496Z" fill="white"></path><path d="M15 15.8789H17.9297C18.4151 15.8789 18.8086 15.4854 18.8086 15C18.8086 14.5146 18.4151 14.1211 17.9297 14.1211H15.8789V12.0703C15.8789 11.5849 15.4854 11.1914 15 11.1914C14.5146 11.1914 14.1211 11.5849 14.1211 12.0703V15C14.1211 15.4854 14.5146 15.8789 15 15.8789Z" fill="white"></path><path d="M27.9304 22.6039C29.2844 20.3083 30 17.679 30 15C30 10.9934 28.4397 7.22654 25.6067 4.39336C22.7735 1.56029 19.0067 0 15 0C13.8565 0 12.7049 0.133535 11.5772 0.396973C11.1045 0.507363 10.8107 0.980039 10.9212 1.45277C11.0316 1.92539 11.504 2.21924 11.977 2.10873C12.9739 1.87588 13.9909 1.75781 15 1.75781C22.3018 1.75781 28.2422 7.69822 28.2422 15C28.2422 19.029 26.3844 22.8268 23.2897 25.3201L23.4298 24.5257C23.5141 24.0477 23.1949 23.5918 22.7169 23.5075C22.2389 23.4232 21.783 23.7424 21.6987 24.2204L21.195 27.0766C21.1107 27.5546 21.4299 28.0105 21.9079 28.0948L24.7641 28.5984C25.2422 28.6828 25.698 28.3635 25.7823 27.8855C25.8666 27.4075 25.5474 26.9517 25.0694 26.8673L24.3314 26.7372C25.7689 25.5938 26.9935 24.1922 27.9304 22.6039Z" fill="white"></path><path d="M18.0231 27.8914C17.0262 28.1242 16.0091 28.2423 15 28.2423C7.69822 28.2423 1.75781 22.3019 1.75781 15.0001C1.75781 10.9716 3.61605 7.17533 6.70998 4.68193L6.57023 5.47441C6.48592 5.95242 6.80514 6.40827 7.28314 6.49259C7.76115 6.57691 8.21701 6.25769 8.30133 5.77968L8.805 2.92347C8.88932 2.44546 8.5701 1.9896 8.09209 1.90529L5.23588 1.40167C4.75781 1.31742 4.30195 1.63663 4.21764 2.11464C4.13338 2.59265 4.45254 3.04851 4.93055 3.13277L5.67012 3.2632C4.23229 4.40677 3.00656 5.80757 2.06959 7.39622C0.715664 9.69181 0 12.3212 0 15.0001C0 19.0068 1.56029 22.7736 4.39336 25.6067C7.22654 28.4399 10.9934 30.0001 15 30.0001C16.1435 30.0001 17.2951 29.8666 18.4229 29.6031C18.8955 29.4927 19.1893 29.0201 19.0788 28.5473C18.9685 28.0747 18.496 27.7809 18.0231 27.8914Z" fill="white"></path></g><defs><clipPath id="clip0_4158_1129"><rect width="30" height="30" fill="white"></rect></clipPath></defs></svg>