<svg xmlns="http://www.w3.org/2000/svg" width="30" height="30" viewBox="0 0 30 30" fill="none"><g clip-path="url(#clip0_4158_1070)"><path d="M11.543 17.6953C12.0276 17.6953 12.4219 18.0896 12.4219 18.5742C12.4219 19.0596 12.8154 19.4531 13.3008 19.4531C13.7862 19.4531 14.1797 19.0596 14.1797 18.5742C14.1797 17.4284 13.4449 16.4515 12.4219 16.0887V15.0586C12.4219 14.5732 12.0284 14.1797 11.543 14.1797C11.0576 14.1797 10.6641 14.5732 10.6641 15.0586V16.0887C9.64107 16.4515 8.90625 17.4284 8.90625 18.5742C8.90625 19.6852 9.59695 20.6379 10.5715 21.0255C10.7205 21.1417 10.9079 21.2109 11.1115 21.2109H11.543C12.0276 21.2109 12.4219 21.6052 12.4219 22.0898C12.4219 22.5745 12.0276 22.9688 11.543 22.9688C11.0583 22.9688 10.6641 22.5745 10.6641 22.0898C10.6641 21.6045 10.2705 21.2109 9.78516 21.2109C9.29977 21.2109 8.90625 21.6045 8.90625 22.0898C8.90625 23.2356 9.64107 24.2126 10.6641 24.5754V25.6055C10.6641 26.0909 11.0576 26.4844 11.543 26.4844C12.0284 26.4844 12.4219 26.0909 12.4219 25.6055V24.5754C13.4449 24.2126 14.1797 23.2356 14.1797 22.0898C14.1797 20.9788 13.489 20.0261 12.5145 19.6386C12.3654 19.5224 12.1781 19.4531 11.9744 19.4531H11.543C11.0583 19.4531 10.6641 19.0588 10.6641 18.5742C10.6641 18.0896 11.0583 17.6953 11.543 17.6953Z" fill="white"></path><path d="M29.1211 21.2109H22.9216C22.4526 16.7941 18.5828 13.1826 16.6412 11.6289C17.182 11.0613 17.5211 10.3609 17.6179 10.1458C17.7211 9.91641 17.7211 9.65385 17.6179 9.42445C17.4996 9.16178 17.02 8.17512 16.2527 7.59064L19.3629 1.2668C19.6507 0.680742 19.2194 0 18.5742 0H16.8164C15.6352 0 14.5621 0.469336 13.7716 1.23029C13.3038 0.491719 12.48 0 11.543 0C10.6059 0 9.78211 0.491719 9.31435 1.23029C8.52387 0.469336 7.45078 0 6.26953 0H4.51172C3.86355 0 3.43641 0.684668 3.72305 1.2668L6.83314 7.5907C6.06586 8.17518 5.58621 9.16178 5.46803 9.42451C5.36479 9.65391 5.36479 9.91646 5.46803 10.1459C5.56436 10.36 5.90068 11.055 6.43717 11.6213C4.33594 13.2744 0 17.2696 0 22.0898C0 25.1128 1.216 27.2916 3.61424 28.5659C5.45549 29.5443 7.9749 30 11.543 30C14.1087 30 16.1082 29.7654 17.7088 29.2695C17.7795 29.6841 18.1395 30 18.5742 30H29.1211C29.6065 30 30 29.6065 30 29.1211V22.0898C30 21.6045 29.6065 21.2109 29.1211 21.2109ZM28.2422 24.7266H19.4531V22.9688H28.2422V24.7266ZM8.03672 10.6641C8.03584 10.6641 8.03496 10.6641 8.03408 10.6641H8.03332C7.87377 10.6303 7.53328 10.2527 7.25912 9.78522C7.53357 9.31717 7.87383 8.94 8.03332 8.90625H15.0527C15.2122 8.94006 15.5524 9.31717 15.8268 9.78516C15.5524 10.2531 15.2122 10.6303 15.0527 10.6641H8.03672ZM8.90625 4.39453C8.90625 4.87992 9.29977 5.27344 9.78516 5.27344C10.2705 5.27344 10.6641 4.87992 10.6641 4.39453V2.63672C10.6641 2.15209 11.0583 1.75781 11.543 1.75781C12.0276 1.75781 12.4219 2.15209 12.4219 2.63672V4.39453C12.4219 4.87992 12.8154 5.27344 13.3008 5.27344C13.7862 5.27344 14.1797 4.87992 14.1797 4.39453C14.1797 2.94064 15.3625 1.75781 16.8164 1.75781H17.1625L14.5114 7.14844H8.57449L5.92336 1.75781H6.26953C7.72342 1.75781 8.90625 2.94064 8.90625 4.39453ZM4.439 27.0137C2.60977 26.0417 1.75781 24.4771 1.75781 22.0898C1.75781 17.3435 7.16555 13.2335 8.30297 12.4219H14.7796C15.8402 13.1901 20.5663 16.8388 21.1506 21.2109H18.5742C18.0888 21.2109 17.6953 21.6045 17.6953 22.0898V27.4171C16.2076 27.9785 14.2311 28.2422 11.543 28.2422C8.27379 28.2422 6.01647 27.8518 4.439 27.0137ZM19.4531 28.2422V26.4844H28.2422V28.2422H19.4531Z" fill="white"></path></g><defs><clipPath id="clip0_4158_1070"><rect width="30" height="30" fill="white"></rect></clipPath></defs></svg>