<svg xmlns="http://www.w3.org/2000/svg" width="48" height="50" viewBox="0 0 48 50" fill="none"><path d="M25.1194 24.3529C25.4415 24.5715 25.9181 24.4778 26.1347 24.1585L34.9182 11.2182C35.145 10.8842 35.0581 10.4296 34.724 10.2029C34.39 9.97626 33.9353 10.063 33.7086 10.3972L24.9251 23.3376C24.6983 23.6715 24.7853 24.1262 25.1194 24.3529Z" fill="#132C33"></path><path d="M34.6789 24.4791C36.2001 24.4791 37.4379 22.9578 37.4379 21.0879C37.282 16.5872 32.0753 16.5883 31.9199 21.0879C31.9199 22.9578 33.1576 24.4791 34.6789 24.4791ZM34.6789 19.1587C35.382 19.1587 35.9758 20.0421 35.9758 21.0879C35.9758 22.1336 35.382 23.017 34.6789 23.017C33.9759 23.017 33.3819 22.1336 33.3819 21.0879C33.3819 20.0421 33.976 19.1587 34.6789 19.1587Z" fill="#132C33"></path><path d="M27.8122 13.468C27.8122 11.598 26.5745 10.0768 25.0532 10.0768C21.3944 10.2576 21.3957 16.6792 25.0532 16.8591C26.5745 16.8591 27.8122 15.3378 27.8122 13.468ZM23.7562 13.468C23.7562 12.4222 24.3502 11.5388 25.0533 11.5388C25.7563 11.5388 26.3502 12.4222 26.3502 13.468C26.3502 14.5137 25.7563 15.3971 25.0533 15.3971C24.3502 15.3971 23.7562 14.5136 23.7562 13.468Z" fill="#132C33"></path><path d="M24.6759 33.7187C42.6179 39.0668 55.0388 16.6044 41.0679 4.19504C40.7619 3.93157 40.3004 3.96588 40.0369 4.27194C39.7735 4.5779 39.8078 5.03942 40.1138 5.30288C53.0828 16.8559 41.1861 37.6155 24.6759 32.1778V27.2102C24.6759 26.5837 24.2968 25.7015 22.4908 25.0568C20.4304 24.3213 18.0533 24.2561 15.9027 24.5601C9.00955 11.104 23.1174 -3.47108 36.7523 3.08592C37.1146 3.26293 37.5527 3.11273 37.73 2.74994C37.9072 2.38726 37.7569 1.94952 37.3942 1.77222C22.6867 -5.31629 7.32137 10.1811 14.419 24.861C14.2005 24.921 13.9905 24.986 13.7919 25.0568C11.986 25.7016 11.6068 26.5838 11.6068 27.2102V32.0761C10.1201 31.3725 8.51693 31.1473 6.54355 31.1205C5.57577 31.1534 5.57548 32.5488 6.54277 32.5825C8.0095 32.5833 9.3775 32.784 10.3949 33.1476C11.3962 33.5055 11.6069 33.8669 11.6069 33.9232C11.6069 33.9796 11.3958 34.3415 10.3924 34.6997C8.06516 35.5305 5.00275 35.5301 2.67663 34.6997C1.67317 34.3414 1.46205 33.9795 1.46205 33.9232C1.46205 33.8569 1.71859 33.4403 2.93784 33.0603C3.85211 32.7402 3.43601 31.4085 2.50284 31.6645C0.434229 32.3093 0 33.2487 0 33.9232V47.1391C0 47.7656 0.379159 48.6478 2.18508 49.2925C4.82828 50.236 8.24158 50.2357 10.8839 49.2925C11.5407 49.058 12.0082 48.792 12.338 48.5184C12.6677 48.792 13.1352 49.058 13.792 49.2925C16.4353 50.236 19.8486 50.2357 22.4909 49.2925C23.1478 49.058 23.6152 48.792 23.945 48.5184C24.2747 48.792 24.7422 49.058 25.399 49.2925C28.0422 50.236 31.4555 50.2357 34.0979 49.2925C35.9038 48.6477 36.2829 47.7655 36.2829 47.1391V40.5311C36.2829 39.9046 35.9038 39.0224 34.0979 38.3777C31.4547 37.4342 28.0414 37.4345 25.399 38.3777C25.1266 38.475 24.8871 38.5777 24.676 38.6841C24.6752 37.7312 24.6774 34.903 24.6752 33.9088C24.6764 33.8824 24.6757 33.7474 24.6759 33.7187ZM34.8208 43.8351C34.8208 43.8916 34.6097 44.2535 33.6062 44.6116C31.279 45.4424 28.2166 45.442 25.8905 44.6116C24.887 44.2534 24.6759 43.8915 24.6759 43.8351V42.3782C24.887 42.4846 25.1265 42.5874 25.3989 42.6847C28.0421 43.6282 31.4554 43.6279 34.0978 42.6847C34.3702 42.5874 34.6097 42.4847 34.8208 42.3782V43.8351ZM23.2139 30.5143C23.2139 30.5707 23.0027 30.9326 21.9993 31.2907C19.6721 32.1216 16.6096 32.1213 14.2835 31.2907C13.28 30.9325 13.0689 30.5706 13.0689 30.5143V29.0574C13.28 29.1637 13.5195 29.2666 13.7919 29.3638C16.4352 30.3074 19.8485 30.3071 22.4908 29.3638C22.7633 29.2666 23.0027 29.1638 23.2139 29.0574V30.5143ZM13.7919 32.6677C16.686 33.676 20.4159 33.6477 23.2139 32.3613V33.8708C23.2139 33.9272 23.0027 34.2891 21.9993 34.6473C19.6719 35.4781 16.6098 35.4777 14.2835 34.6473C13.28 34.2891 13.0689 33.9272 13.0689 33.8708V32.3613C13.28 32.4677 13.5194 32.5704 13.7919 32.6677ZM11.6068 40.5311C11.6068 40.5875 11.3957 40.9494 10.3923 41.3076C8.06487 42.1385 5.00285 42.1381 2.67653 41.3076C1.67307 40.9494 1.46195 40.5875 1.46195 40.5311V39.0742C1.67307 39.1805 1.91256 39.2834 2.18499 39.3807C4.82818 40.3242 8.24148 40.3239 10.8838 39.3807C11.1562 39.2834 11.3957 39.1806 11.6068 39.0742V40.5311ZM1.46195 42.3781C1.67307 42.4845 1.91256 42.5873 2.18499 42.6846C4.82818 43.6281 8.24148 43.6278 10.8838 42.6846C11.1562 42.5873 11.3957 42.4846 11.6068 42.3781V43.835C11.6068 43.8915 11.3957 44.2534 10.3923 44.6115C8.06506 45.4423 5.00265 45.4419 2.67653 44.6115C1.67307 44.2533 1.46195 43.8914 1.46195 43.835V42.3781ZM13.0689 42.3781C13.28 42.4845 13.5195 42.5873 13.7919 42.6846C16.4352 43.6281 19.8485 43.6278 22.4908 42.6846C22.7633 42.5873 23.0027 42.4846 23.2139 42.3781V43.835C23.2139 43.8915 23.0027 44.2534 21.9993 44.6115C19.6721 45.4423 16.6096 45.442 14.2835 44.6115C13.28 44.2533 13.0689 43.8914 13.0689 43.835V42.3781ZM21.9993 41.3076C19.6719 42.1385 16.6098 42.138 14.2835 41.3076C13.28 40.9494 13.0689 40.5875 13.0689 40.5311V39.0742C13.28 39.1805 13.5195 39.2834 13.7919 39.3807C16.4352 40.3242 19.8485 40.3239 22.4908 39.3807C22.7633 39.2834 23.0027 39.1806 23.2139 39.0742V40.5311C23.2139 40.5875 23.0027 40.9494 21.9993 41.3076ZM23.2139 37.2271C23.2139 37.2836 23.0027 37.6454 21.9993 38.0036C19.6719 38.8344 16.6098 38.8339 14.2835 38.0036C13.28 37.6454 13.0689 37.2835 13.0689 37.2271V35.7177C13.28 35.8241 13.5195 35.9269 13.7919 36.0242C16.4352 36.9677 19.8485 36.9674 22.4908 36.0242C22.7633 35.9269 23.0027 35.8242 23.2139 35.7177V37.2271ZM14.2835 26.4338C16.6099 25.6034 19.6736 25.6036 21.9993 26.4338C23.0027 26.792 23.2139 27.1539 23.2139 27.2102C23.2139 27.2666 23.0027 27.6286 21.9993 27.9868C19.6719 28.8176 16.6098 28.8171 14.2835 27.9868C13.28 27.6286 13.0689 27.2667 13.0689 27.2102C13.0689 27.1538 13.28 26.792 14.2835 26.4338ZM2.18499 36.0766C5.07907 37.0848 8.80886 37.0566 11.6068 35.7703V37.2272C11.6068 37.2837 11.3957 37.6456 10.3923 38.0037C8.06487 38.8345 5.00285 38.8341 2.67653 38.0037C1.67307 37.6455 1.46195 37.2836 1.46195 37.2272V35.7703C1.67298 35.8766 1.91246 35.9793 2.18499 36.0766ZM10.3923 47.9156C8.06487 48.7464 5.00285 48.7461 2.67653 47.9156C1.67307 47.5574 1.46195 47.1955 1.46195 47.1392V45.6822C4.49961 47.0486 8.56996 47.0483 11.6068 45.6822V47.1392C11.6068 47.1955 11.3957 47.5574 10.3923 47.9156ZM21.9993 47.9156C19.6719 48.7464 16.6098 48.746 14.2835 47.9156C13.28 47.5574 13.0689 47.1955 13.0689 47.1392V45.6822C16.1065 47.0486 20.177 47.0483 23.2139 45.6822V47.1392C23.2139 47.1955 23.0027 47.5573 21.9993 47.9156ZM33.6062 47.9156C31.2788 48.7464 28.2168 48.7461 25.8905 47.9156C24.887 47.5574 24.6759 47.1955 24.6759 47.1392V45.6822C27.7136 47.0486 31.7839 47.0483 34.8208 45.6822V47.1392C34.8208 47.1955 34.6097 47.5574 33.6062 47.9156ZM25.8905 39.7546C28.2179 38.9238 31.2799 38.9242 33.6062 39.7546C34.6097 40.1128 34.8208 40.4748 34.8208 40.5311C34.8208 40.5874 34.6097 40.9494 33.6062 41.3076C31.2788 42.1385 28.2168 42.1381 25.8905 41.3076C24.887 40.9494 24.6759 40.5875 24.6759 40.5311C24.6759 40.4747 24.887 40.1128 25.8905 39.7546Z" fill="#132C33"></path></svg>