<svg xmlns="http://www.w3.org/2000/svg" width="129" height="26" viewBox="0 0 129 26" fill="none"><path d="M12 7C12 10.3137 9.31371 13 6 13H0V7C0 3.68629 2.68629 1 6 1C9.31371 1 12 3.68629 12 7Z" fill="#0E5C64"></path><path d="M12 19C12 15.6863 14.6863 13 18 13H24V19C24 22.3137 21.3137 25 18 25C14.6863 25 12 22.3137 12 19Z" fill="#0E5C64"></path><path d="M0 19C0 22.3137 2.68629 25 6 25H12V19C12 15.6863 9.31371 13 6 13C2.68629 13 0 15.6863 0 19Z" fill="#0E5C64"></path><path d="M24 7C24 3.68629 21.3137 1 18 1H12V7C12 10.3137 14.6863 13 18 13C21.3137 13 24 10.3137 24 7Z" fill="#0E5C64"></path><path d="M31.44 20L36.56 6H39.62L44.72 20H41.86L38.08 9.08L34.28 20H31.44ZM33.7 16.82L34.42 14.72H41.54L42.24 16.82H33.7ZM45.9597 20V6H50.6397C52.2664 6 53.6064 6.29333 54.6597 6.88C55.7264 7.45333 56.513 8.26667 57.0197 9.32C57.5397 10.36 57.7997 11.5867 57.7997 13C57.7997 14.4133 57.5397 15.6467 57.0197 16.7C56.513 17.74 55.733 18.5533 54.6797 19.14C53.6264 19.7133 52.2797 20 50.6397 20H45.9597ZM48.6597 17.68H50.4997C51.6464 17.68 52.5464 17.4933 53.1997 17.12C53.8664 16.7467 54.3397 16.2133 54.6197 15.52C54.8997 14.8133 55.0397 13.9733 55.0397 13C55.0397 12.0133 54.8997 11.1733 54.6197 10.48C54.3397 9.77333 53.8664 9.23333 53.1997 8.86C52.5464 8.48667 51.6464 8.3 50.4997 8.3H48.6597V17.68ZM63.0516 20L57.9516 6H60.8316L64.7116 17.24L68.6116 6H71.4716L66.3716 20H63.0516ZM72.5527 20V6H75.2527V20H72.5527ZM82.2219 20.24C81.2085 20.24 80.3019 20.0667 79.5019 19.72C78.7152 19.3733 78.0885 18.8667 77.6219 18.2C77.1685 17.5333 76.9352 16.7267 76.9219 15.78H79.7819C79.7952 16.1933 79.9019 16.5667 80.1019 16.9C80.3019 17.2333 80.5752 17.5 80.9219 17.7C81.2819 17.8867 81.7085 17.98 82.2019 17.98C82.6285 17.98 82.9952 17.9133 83.3019 17.78C83.6219 17.6333 83.8685 17.4333 84.0419 17.18C84.2152 16.9267 84.3019 16.6267 84.3019 16.28C84.3019 15.88 84.2019 15.5467 84.0019 15.28C83.8152 15.0133 83.5485 14.7867 83.2019 14.6C82.8685 14.4133 82.4752 14.2467 82.0219 14.1C81.5819 13.94 81.1152 13.7733 80.6219 13.6C79.5152 13.24 78.6685 12.76 78.0819 12.16C77.5085 11.56 77.2219 10.7667 77.2219 9.78C77.2219 8.94 77.4219 8.22 77.8219 7.62C78.2352 7.02 78.8019 6.56 79.5219 6.24C80.2419 5.92 81.0619 5.76 81.9819 5.76C82.9285 5.76 83.7552 5.92667 84.4619 6.26C85.1819 6.58 85.7485 7.04667 86.1619 7.66C86.5885 8.27333 86.8085 8.99333 86.8219 9.82H83.9419C83.9285 9.51333 83.8352 9.22667 83.6619 8.96C83.5019 8.68 83.2752 8.46 82.9819 8.3C82.6885 8.12667 82.3419 8.04 81.9419 8.04C81.5952 8.02667 81.2752 8.08 80.9819 8.2C80.7019 8.32 80.4752 8.5 80.3019 8.74C80.1419 8.96667 80.0619 9.25333 80.0619 9.6C80.0619 9.93333 80.1419 10.2133 80.3019 10.44C80.4752 10.6667 80.7085 10.8667 81.0019 11.04C81.2952 11.2 81.6419 11.3533 82.0419 11.5C82.4419 11.6333 82.8752 11.7733 83.3419 11.92C84.0352 12.16 84.6752 12.4467 85.2619 12.78C85.8485 13.1 86.3152 13.52 86.6619 14.04C87.0085 14.56 87.1819 15.2467 87.1819 16.1C87.1819 16.8333 86.9885 17.5133 86.6019 18.14C86.2152 18.7667 85.6552 19.2733 84.9219 19.66C84.2019 20.0467 83.3019 20.24 82.2219 20.24ZM95.3322 20.24C93.9722 20.24 92.7722 19.9333 91.7322 19.32C90.6922 18.7067 89.8789 17.86 89.2922 16.78C88.7055 15.6867 88.4122 14.4267 88.4122 13C88.4122 11.5733 88.7055 10.32 89.2922 9.24C89.8789 8.14667 90.6922 7.29333 91.7322 6.68C92.7722 6.06667 93.9722 5.76 95.3322 5.76C96.7055 5.76 97.9122 6.06667 98.9522 6.68C99.9922 7.29333 100.799 8.14667 101.372 9.24C101.959 10.32 102.252 11.5733 102.252 13C102.252 14.4267 101.959 15.6867 101.372 16.78C100.799 17.86 99.9922 18.7067 98.9522 19.32C97.9122 19.9333 96.7055 20.24 95.3322 20.24ZM95.3322 17.82C96.1855 17.82 96.9189 17.6267 97.5322 17.24C98.1589 16.84 98.6455 16.28 98.9922 15.56C99.3389 14.84 99.5122 13.9867 99.5122 13C99.5122 12 99.3389 11.1467 98.9922 10.44C98.6455 9.72 98.1589 9.16667 97.5322 8.78C96.9189 8.39333 96.1855 8.2 95.3322 8.2C94.4922 8.2 93.7589 8.39333 93.1322 8.78C92.5055 9.16667 92.0189 9.72 91.6722 10.44C91.3255 11.1467 91.1522 12 91.1522 13C91.1522 13.9867 91.3255 14.84 91.6722 15.56C92.0189 16.28 92.5055 16.84 93.1322 17.24C93.7589 17.6267 94.4922 17.82 95.3322 17.82ZM103.956 20V6H109.176C110.309 6 111.242 6.19333 111.976 6.58C112.709 6.96667 113.256 7.48667 113.616 8.14C113.976 8.78 114.156 9.49333 114.156 10.28C114.156 11.0267 113.982 11.7267 113.636 12.38C113.289 13.02 112.742 13.54 111.996 13.94C111.262 14.3267 110.316 14.52 109.156 14.52H106.656V20H103.956ZM111.216 20L108.336 13.84H111.256L114.296 20H111.216ZM106.656 12.56H109.016C109.829 12.56 110.429 12.36 110.816 11.96C111.202 11.56 111.396 11.0333 111.396 10.38C111.396 9.72667 111.202 9.21333 110.816 8.84C110.442 8.45333 109.842 8.26 109.016 8.26H106.656V12.56ZM115.033 20L120.153 6H123.213L128.313 20H125.453L121.673 9.08L117.873 20H115.033ZM117.293 16.82L118.013 14.72H125.133L125.833 16.82H117.293Z" fill="#132C33"></path></svg>