<svg xmlns="http://www.w3.org/2000/svg" width="27" height="25" viewBox="0 0 27 25" fill="none"><path d="M22.5 2H3.875V15.0625C3.875 15.5432 4.06634 16.0038 4.40625 16.3438C4.74616 16.6837 5.2068 16.875 5.6875 16.875H20.6875C21.1682 16.875 21.6288 16.6837 21.9688 16.3438C22.3087 16.0038 22.5 15.5432 22.5 15.0625V2ZM8.63672 20.625H17.7383L17.1543 18.875H9.2207L8.63672 20.625ZM18.3115 5.89062C18.7893 5.61409 19.4009 5.77721 19.6777 6.25488C19.9545 6.73281 19.7914 7.34529 19.3135 7.62207C17.5305 8.65472 15.9961 10.0662 14.8184 11.7568C14.6492 11.9997 14.3807 12.1545 14.0859 12.1807C13.7911 12.2068 13.4993 12.1019 13.29 11.8926L11.3115 9.91406L8.26953 12.957C7.87901 13.3476 7.24599 13.3476 6.85547 12.957C6.46494 12.5665 6.46494 11.9335 6.85547 11.543L10.6055 7.79297L10.6816 7.72461C11.0744 7.40426 11.6534 7.42685 12.0195 7.79297L13.8916 9.66504C15.1214 8.15156 16.6183 6.87124 18.3115 5.89062ZM24.5 15.0625C24.5 16.0736 24.0988 17.0438 23.3838 17.7588C22.6688 18.4738 21.6986 18.875 20.6875 18.875H19.2617L20.6982 23.1836C20.8729 23.7074 20.5902 24.2735 20.0664 24.4482C19.5426 24.6229 18.9765 24.3402 18.8018 23.8164L18.4043 22.625H7.9707L7.57324 23.8164C7.39848 24.3402 6.83244 24.6229 6.30859 24.4482C5.78484 24.2735 5.50214 23.7074 5.67676 23.1836L7.11328 18.875H5.6875C4.67636 18.875 3.70619 18.4738 2.99121 17.7588C2.27623 17.0438 1.875 16.0736 1.875 15.0625V2H1C0.447715 2 0 1.55228 0 1C0 0.447715 0.447715 0 1 0H25.375C25.9273 0 26.375 0.447715 26.375 1C26.375 1.55228 25.9273 2 25.375 2H24.5V15.0625Z" fill="#00897B"></path></svg>