<svg xmlns="http://www.w3.org/2000/svg" width="35" height="35" viewBox="0 0 35 35" fill="none"><path d="M35 14.9365C35 11.8189 32.6564 9.2385 29.6381 8.86491C29.3347 5.81089 26.7506 3.41797 23.6182 3.41797C23.3061 3.41797 22.9965 3.44162 22.6913 3.48852C21.8455 1.41668 19.8058 0 17.5 0C15.1942 0 13.1544 1.41668 12.3087 3.48852C12.0035 3.44162 11.6939 3.41797 11.3818 3.41797C8.24934 3.41797 5.66528 5.81089 5.36184 8.86491C2.34363 9.2385 0 11.8189 0 14.9365C0 17.6166 1.73223 19.8994 4.13574 20.7249V26.5159C2.94226 26.9391 2.08496 28.0789 2.08496 29.4157C2.08496 31.1119 3.46493 32.4918 5.16113 32.4918C6.85733 32.4918 8.2373 31.1119 8.2373 29.4157C8.2373 28.0789 7.38001 26.9391 6.18652 26.5159V21.0547H9.57161L8.72245 21.545C8.23204 21.8281 8.06401 22.4552 8.34716 22.9456L10.3979 26.4977C10.5339 26.7332 10.7579 26.9051 11.0206 26.9755C11.2832 27.0457 11.5631 27.009 11.7986 26.873L13.1886 26.0705C13.5773 26.3488 13.99 26.5875 14.4238 26.785V28.3887C14.4238 28.955 14.8829 29.4141 15.4492 29.4141H16.4745V33.9746C16.4745 34.5409 16.9336 35 17.4999 35C18.0662 35 18.5253 34.5409 18.5253 33.9746V29.4141H19.5507C20.117 29.4141 20.5761 28.955 20.5761 28.3887V26.785C21.01 26.5875 21.4226 26.3488 21.8112 26.0705L23.2013 26.873C23.4367 27.009 23.7168 27.0457 23.9794 26.9755C24.2421 26.9051 24.466 26.7332 24.602 26.4977L26.6528 22.9456C26.7887 22.7101 26.8256 22.4302 26.7552 22.1675C26.6848 21.9049 26.513 21.6809 26.2775 21.545L25.4284 21.0547H28.8135V26.5159C27.62 26.9391 26.7627 28.0789 26.7627 29.4157C26.7627 31.1119 28.1427 32.4918 29.8389 32.4918C31.5351 32.4918 32.915 31.1119 32.915 29.4157C32.915 28.0789 32.0577 26.9391 30.8643 26.5159V20.7249C33.2678 19.8994 35 17.6166 35 14.9365ZM2.05078 14.9365C2.05078 12.6937 3.87536 10.8691 6.11816 10.8691C6.18584 10.8691 6.25447 10.8708 6.32215 10.8741C6.61568 10.8885 6.90156 10.7758 7.10664 10.565C7.31172 10.3543 7.41645 10.0656 7.39423 9.77245C7.38664 9.67237 7.38281 9.5699 7.38281 9.46777C7.38281 7.2627 9.17677 5.46875 11.3818 5.46875C11.8259 5.46875 12.2613 5.5406 12.6757 5.68224C12.9557 5.77794 13.2633 5.74807 13.5196 5.60027C13.776 5.45248 13.9559 5.20112 14.0133 4.91087C14.341 3.25363 15.8074 2.05078 17.5 2.05078C19.1926 2.05078 20.659 3.25363 20.9867 4.91087C21.044 5.20112 21.224 5.45248 21.4803 5.60027C21.7366 5.748 22.0441 5.77801 22.3243 5.68224C22.7387 5.5406 23.1741 5.46875 23.6182 5.46875C25.8232 5.46875 27.6172 7.2627 27.6172 9.46777C27.6172 9.56949 27.6133 9.6721 27.6058 9.77272C27.5836 10.0658 27.6883 10.3545 27.8934 10.5651C28.0986 10.7758 28.3853 10.8877 28.6779 10.8741C28.7455 10.8708 28.8142 10.8692 28.8818 10.8692C31.1246 10.8692 32.9492 12.6938 32.9492 14.9366C32.9492 17.1794 31.1246 19.0039 28.8818 19.0039H25.4284L26.2775 18.5136C26.513 18.3777 26.6849 18.1537 26.7553 17.8911C26.8257 17.6284 26.7888 17.3484 26.6528 17.1129L24.6021 13.5609C24.4661 13.3254 24.2421 13.1535 23.9794 13.0831C23.7169 13.0129 23.4369 13.0495 23.2014 13.1856L21.8113 13.9881C21.4226 13.7098 21.01 13.4711 20.5762 13.2735V11.6699C20.5762 11.1036 20.1171 10.6445 19.5508 10.6445H15.4492C14.8829 10.6445 14.4238 11.1036 14.4238 11.6699V13.2735C13.99 13.4711 13.5773 13.7098 13.1887 13.9881L11.7987 13.1856C11.5631 13.0496 11.2833 13.0128 11.0206 13.0831C10.7579 13.1535 10.534 13.3254 10.398 13.5609L8.34723 17.1129C8.06408 17.6034 8.23211 18.2306 8.72252 18.5136L9.57161 19.0039H6.11816C3.87536 19.0039 2.05078 17.1793 2.05078 14.9365ZM5.16113 30.441C4.59573 30.441 4.13574 29.9811 4.13574 29.4157C4.13574 28.8505 4.59539 28.3907 5.16045 28.3903H5.16113C5.16113 28.3903 5.16154 28.3903 5.16182 28.3903C5.72694 28.3906 6.18652 28.8504 6.18652 29.4157C6.18652 29.9811 5.72653 30.441 5.16113 30.441ZM23.3388 24.5844L22.2335 23.9462C21.8528 23.7264 21.3741 23.7737 21.0438 24.0641C20.5069 24.5361 19.8941 24.8907 19.2222 25.118C18.8057 25.2589 18.5255 25.6496 18.5255 26.0893V27.3634H16.4747V26.0893C16.4747 25.6496 16.1943 25.2589 15.7779 25.118C15.106 24.8907 14.4931 24.5361 13.9563 24.0641C13.626 23.7738 13.1474 23.7264 12.7666 23.9462L11.6614 24.5844L10.636 22.8083L11.7401 22.1709C12.1205 21.9512 12.3188 21.5138 12.2331 21.0829C12.1646 20.7382 12.1298 20.3843 12.1297 20.0311C12.1297 20.0305 12.1298 20.03 12.1298 20.0294C12.1298 20.0288 12.1297 20.0282 12.1297 20.0276C12.1298 19.6744 12.1646 19.3205 12.2331 18.9758C12.3188 18.5449 12.1205 18.1075 11.7401 17.8879L10.636 17.2504L11.6614 15.4744L12.7666 16.1125C13.1474 16.3324 13.626 16.2848 13.9563 15.9946C14.4931 15.5226 15.106 15.1681 15.7779 14.9408C16.1943 14.7998 16.4746 14.409 16.4746 13.9694V12.6953H18.5254V13.9694C18.5254 14.4091 18.8057 14.7997 19.2222 14.9407C19.894 15.168 20.5069 15.5226 21.0437 15.9945C21.3741 16.2849 21.8526 16.3323 22.2335 16.1124L23.3387 15.4743L24.3641 17.2504L23.26 17.8878C22.8796 18.1074 22.6813 18.5449 22.767 18.9757C22.8354 19.3203 22.8702 19.6739 22.8704 20.0266C22.8704 20.0275 22.8702 20.0284 22.8702 20.0293C22.8702 20.0302 22.8704 20.0311 22.8704 20.032C22.8702 20.3847 22.8354 20.7383 22.767 21.0829C22.6813 21.5137 22.8795 21.9512 23.26 22.1708L24.3641 22.8082L23.3388 24.5844ZM29.8389 30.441C29.2735 30.441 28.8135 29.9811 28.8135 29.4157C28.8135 28.8505 29.2731 28.3907 29.8382 28.3903H29.8389C29.8389 28.3903 29.8393 28.3903 29.8396 28.3903C30.4047 28.3906 30.8643 28.8504 30.8643 29.4157C30.8643 29.9811 30.4043 30.441 29.8389 30.441Z" fill="white"></path><path d="M17.5 16.9531C15.8038 16.9531 14.4238 18.3331 14.4238 20.0293C14.4238 21.7255 15.8038 23.1055 17.5 23.1055C19.1962 23.1055 20.5762 21.7255 20.5762 20.0293C20.5762 18.3331 19.1962 16.9531 17.5 16.9531ZM17.5 21.0547C16.9346 21.0547 16.4746 20.5947 16.4746 20.0293C16.4746 19.4639 16.9346 19.0039 17.5 19.0039C18.0654 19.0039 18.5254 19.4639 18.5254 20.0293C18.5254 20.5947 18.0654 21.0547 17.5 21.0547Z" fill="white"></path></svg>