<svg xmlns="http://www.w3.org/2000/svg" width="25" height="26" viewBox="0 0 25 26" fill="none"><path d="M22.5 9.79473C22.5 8.5124 22.325 7.27241 22.0029 6.09453C18.2922 5.96702 14.9015 4.57752 12.25 2.33965C9.51407 4.65215 6.07755 5.97859 2.49415 6.09942C2.16597 7.30205 1.999 8.54404 2 9.79278V9.79375C2.00009 16.2259 6.33845 21.6435 12.25 23.284C18.1615 21.6447 22.5 16.2271 22.5 9.79473ZM15.1865 9.21367C15.5075 8.76432 16.1317 8.66029 16.5811 8.98125C17.0305 9.30225 17.1344 9.92637 16.8135 10.3758L12.126 16.9383C11.9551 17.1775 11.6875 17.3301 11.3945 17.3543C11.1018 17.3784 10.8132 17.272 10.6055 17.0643L7.79297 14.2518C7.40249 13.8612 7.40246 13.2282 7.79297 12.8377C8.18349 12.4472 8.81652 12.4472 9.20704 12.8377L11.1846 14.8152L15.1865 9.21367ZM24.5 9.79473C24.5 17.252 19.4002 23.5149 12.499 25.2908C12.3357 25.3328 12.1643 25.3328 12.001 25.2908C5.31566 23.5691 0.320289 17.6379 0.0146532 10.4891L4.71833e-06 9.79375C-0.0013009 8.09591 0.268361 6.40887 0.797856 4.7957L0.860356 4.64629C1.03246 4.31481 1.37922 4.10189 1.76172 4.10723C5.40338 4.15799 8.92059 2.78215 11.5615 0.27422L11.6357 0.210744C12.0213 -0.0900666 12.5755 -0.0687996 12.9375 0.27422C15.4464 2.65124 18.8331 4.10625 22.5625 4.10625H22.7529L22.9121 4.11895C23.2765 4.17774 23.5841 4.43485 23.7022 4.79375C24.2199 6.36825 24.5 8.0498 24.5 9.79473Z" fill="#00897B"></path></svg>