<svg xmlns="http://www.w3.org/2000/svg" width="22" height="22" viewBox="0 0 22 22" fill="currentColor"><g clip-path="url(#clip0_2115_287)"><path d="M20 11C20 6.02944 15.9706 2 11 2C6.02944 2 2 6.02944 2 11C2 15.9706 6.02944 20 11 20C15.9706 20 20 15.9706 20 11ZM22 11C22 17.0751 17.0751 22 11 22C4.92487 22 0 17.0751 0 11C0 4.92487 4.92487 0 11 0C17.0751 0 22 4.92487 22 11Z"></path><path d="M13.2929 7.29289C13.6834 6.90237 14.3164 6.90237 14.707 7.29289C15.0975 7.68342 15.0975 8.31643 14.707 8.70696L8.70696 14.707C8.31643 15.0975 7.68342 15.0975 7.29289 14.707C6.90237 14.3164 6.90237 13.6834 7.29289 13.2929L13.2929 7.29289Z"></path><path d="M7.29289 7.29289C7.68342 6.90237 8.31643 6.90237 8.70696 7.29289L14.707 13.2929C15.0975 13.6834 15.0975 14.3164 14.707 14.707C14.3164 15.0975 13.6834 15.0975 13.2929 14.707L7.29289 8.70696C6.90237 8.31643 6.90237 7.68342 7.29289 7.29289Z"></path></g><defs><clipPath id="clip0_2115_287"><rect width="22" height="22" fill="white"></rect></clipPath></defs></svg>