<svg xmlns="http://www.w3.org/2000/svg" width="35" height="35" viewBox="0 0 35 35" fill="none"><g clip-path="url(#clip0_2104_702)"><path d="M13.8991 26.4662C13.7851 26.4662 13.6701 26.4435 13.5605 26.3941C10.0472 24.8311 7.77734 21.3401 7.77734 17.5001C7.77734 12.1395 12.138 7.77832 17.4991 7.77832C20.968 7.77832 24.1991 9.64995 25.933 12.6626C26.162 13.0614 26.0252 13.5707 25.626 13.8002C25.2256 14.0302 24.7168 13.8929 24.4879 13.4937C23.0513 10.9966 20.3735 9.44498 17.4993 9.44498C13.0572 9.44498 9.444 13.0586 9.444 17.5002C9.444 20.6826 11.3255 23.5758 14.2376 24.8719C14.6586 25.0585 14.8473 25.5511 14.6607 25.9715C14.5218 26.2818 14.2181 26.4662 13.8991 26.4662Z" fill="white"></path><path d="M32.5552 34.9992H15.6115C14.7294 34.9992 13.9384 34.543 13.4968 33.7786C13.0563 33.0147 13.0552 32.1017 13.4968 31.3374L21.9687 16.6635C22.4104 15.8991 23.2013 15.4429 24.0834 15.4429C24.9655 15.4434 25.7565 15.8996 26.197 16.6635L34.6689 31.3374C35.1105 32.1012 35.1105 33.0137 34.67 33.7782C34.2283 34.5431 33.4384 34.9992 32.5552 34.9992ZM24.0834 17.1094C23.9488 17.1094 23.6136 17.1474 23.4117 17.4973L14.9398 32.1706C14.738 32.5199 14.8726 32.8287 14.9398 32.9453C15.0071 33.0619 15.2078 33.3327 15.6115 33.3327H32.5552C32.9588 33.3327 33.1585 33.062 33.2258 32.9453C33.2931 32.8286 33.4276 32.5205 33.2258 32.1711L24.7539 17.4967C24.5521 17.1474 24.2179 17.1094 24.0834 17.1094Z" fill="white"></path><path d="M24.0833 27.3994C23.6233 27.3994 23.25 27.0261 23.25 26.5661V21.7078C23.25 21.2478 23.6233 20.8745 24.0833 20.8745C24.5434 20.8745 24.9167 21.2478 24.9167 21.7078V26.5661C24.9167 27.0261 24.5434 27.3994 24.0833 27.3994Z" fill="white"></path><path d="M7.28263 31.2242C6.76506 31.2242 6.27791 31.0224 5.91008 30.6557L4.34437 29.0883C3.97655 28.7216 3.77475 28.2339 3.77475 27.7152C3.77475 27.1971 3.97764 26.7094 4.34547 26.3432L5.57047 25.1182C4.67425 23.7158 4.04064 22.1866 3.68036 20.5552H1.94436C0.872375 20.5552 0 19.6828 0 18.6109V16.3887C0 15.3167 0.872375 14.4443 1.94436 14.4443H3.68036C4.04064 12.813 4.67425 11.2836 5.57047 9.88132L4.34437 8.65577C3.97764 8.29013 3.77475 7.80243 3.77475 7.28432C3.77475 6.76566 3.97655 6.27796 4.34437 5.91068L5.91008 4.34443C6.64573 3.60877 7.9228 3.6115 8.65517 4.34497L9.88127 5.56997C11.2831 4.67375 12.813 4.04058 14.4437 3.68096V1.94485C14.4438 0.872863 15.3162 0.000488281 16.3882 0.000488281H18.6104C19.6824 0.000488281 20.5547 0.872863 20.5547 1.94485V3.68085C22.1855 4.04058 23.7155 4.67364 25.1172 5.56986L26.3433 4.34432C27.0757 3.61194 28.3516 3.60921 29.0884 4.34377L30.6541 5.91111C31.0219 6.27785 31.2237 6.76555 31.2237 7.28421C31.2237 7.80232 31.0208 8.29002 30.653 8.65621L29.428 9.88121C30.3242 11.2836 30.9578 12.8129 31.3181 14.4442H33.0541C34.1261 14.4442 34.9985 15.3166 34.9985 16.3886V18.6108C34.9985 19.6827 34.1261 20.5551 33.0541 20.5551H30.8537C30.3937 20.5551 30.0204 20.1818 30.0204 19.7218C30.0204 19.2618 30.3937 18.8885 30.8537 18.8885H33.0541C33.2049 18.8885 33.3319 18.7615 33.3319 18.6106V16.3885C33.3319 16.2376 33.2049 16.1107 33.0541 16.1107H30.6323C30.2265 16.1107 29.8793 15.8178 29.8109 15.4173C29.4909 13.5397 28.7714 11.8042 27.6745 10.2602C27.439 9.92868 27.4771 9.47575 27.7645 9.18821L29.4756 7.47714C29.5428 7.40988 29.557 7.33496 29.557 7.28344C29.557 7.23193 29.5428 7.15646 29.4756 7.08974L27.9099 5.52239C27.7732 5.38732 27.6549 5.39114 27.5215 5.52185L25.8104 7.23346C25.5218 7.52046 25.0693 7.55841 24.7384 7.32347C23.1934 6.22655 21.4584 5.50818 19.5813 5.18814C19.1809 5.11979 18.888 4.77318 18.888 4.36674V1.94485C18.888 1.79402 18.761 1.66704 18.6102 1.66704H16.388C16.2372 1.66704 16.1102 1.79402 16.1102 1.94485V4.36718C16.1102 4.7735 15.8173 5.12022 15.4168 5.18858C13.5398 5.50861 11.8048 6.22699 10.2597 7.32391C9.92873 7.55939 9.47527 7.52089 9.18772 7.23389L7.47666 5.52283C7.34431 5.39158 7.22498 5.38775 7.08827 5.52338L5.52256 7.08963C5.4553 7.15689 5.44119 7.23236 5.44119 7.28388C5.44119 7.33539 5.4553 7.41032 5.52147 7.47704L7.23362 9.18865C7.52117 9.47619 7.55912 9.92922 7.32364 10.2606C6.22672 11.8046 5.50736 13.5401 5.18722 15.4178C5.11886 15.8182 4.7717 16.1111 4.36581 16.1111H1.94436C1.79353 16.1111 1.66655 16.2381 1.66655 16.3889V18.6111C1.66655 18.7619 1.79353 18.8889 1.94436 18.8889H4.36614C4.77192 18.8889 5.11919 19.1818 5.18755 19.5822C5.50758 21.4599 6.22705 23.1953 7.32397 24.7394C7.55945 25.0709 7.52139 25.5238 7.23395 25.8113L5.52289 27.5224C5.45563 27.5897 5.44152 27.6646 5.44152 27.7161C5.44152 27.7676 5.45563 27.8431 5.52289 27.9098L7.08859 29.4772C7.22422 29.6122 7.34355 29.6084 7.47698 29.4777L9.18805 27.7661C9.4745 27.4796 9.9237 27.4401 10.2568 27.6739C10.821 28.0705 11.4242 28.4307 12.0492 28.7431C12.4615 28.9493 12.6285 29.4495 12.4225 29.8613C12.2163 30.2725 11.7172 30.4417 11.3049 30.234C10.8166 29.9899 10.3403 29.7203 9.88247 29.4284L8.65528 30.6556C8.28855 31.0223 7.80128 31.2242 7.28263 31.2242Z" fill="white"></path><path d="M24.0873 30.766C24.5476 30.766 24.9208 30.3929 24.9208 29.9326C24.9208 29.4723 24.5476 29.0991 24.0873 29.0991C23.6271 29.0991 23.2539 29.4723 23.2539 29.9326C23.2539 30.3929 23.6271 30.766 24.0873 30.766Z" fill="white"></path></g><defs><clipPath id="clip0_2104_702"><rect width="35" height="35" fill="white"></rect></clipPath></defs></svg>