<svg xmlns="http://www.w3.org/2000/svg" width="27" height="21" viewBox="0 0 27 21" fill="none"><path d="M9.63077 0.188597C11.5466 -0.247547 13.557 0.0795156 15.2362 1.09973C16.6418 1.9537 17.7203 3.2384 18.3261 4.74914C18.869 4.69243 19.4201 4.72976 19.955 4.86145C20.815 5.07318 21.5988 5.5208 22.2177 6.15442C22.8366 6.78812 23.2666 7.58252 23.4579 8.44739C23.5833 9.01404 23.6003 9.596 23.5165 10.1652C24.4009 10.673 25.1383 11.4113 25.6435 12.3097C26.2948 13.468 26.5199 14.818 26.2802 16.1251C26.0404 17.4322 25.3509 18.6142 24.331 19.4659C23.3109 20.3178 22.0242 20.7854 20.6952 20.7882H6.63077V20.7872C5.05515 20.7886 3.5308 20.2294 2.33096 19.2081C1.13089 18.1866 0.334022 16.7709 0.083894 15.215C-0.166155 13.6588 0.146983 12.0641 0.966707 10.7179C1.63934 9.61331 2.61689 8.73519 3.77335 8.18371C3.6362 6.52006 4.05232 4.84872 4.97159 3.43664C6.04363 1.78991 7.71487 0.624838 9.63077 0.188597ZM14.1982 2.80871C12.963 2.05827 11.4833 1.81792 10.0741 2.13879C8.66509 2.45973 7.43583 3.31637 6.64737 4.52746C5.85885 5.73869 5.57365 7.20954 5.8505 8.62805C5.94707 9.12286 5.65952 9.61223 5.18057 9.76965C4.13539 10.1132 3.24695 10.8183 2.67471 11.7579C2.10245 12.6977 1.88394 13.8112 2.0585 14.8976C2.23313 15.9838 2.78908 16.9725 3.62686 17.6857C4.46469 18.3988 5.52955 18.7894 6.62979 18.7882H20.6913C21.5532 18.7864 22.3872 18.4832 23.0487 17.9308C23.7103 17.3784 24.1579 16.6115 24.3134 15.7638C24.4687 14.9163 24.3225 14.0412 23.9003 13.2902C23.4779 12.5391 22.8058 11.9591 22.0009 11.6515C21.4948 11.4582 21.2344 10.897 21.414 10.3859C21.5841 9.90208 21.6156 9.37974 21.5048 8.87903C21.394 8.37841 21.1453 7.9187 20.787 7.55188C20.4288 7.18511 19.9752 6.92548 19.4774 6.80286C18.9795 6.68026 18.4563 6.69991 17.9687 6.85852C17.7068 6.94356 17.4212 6.91648 17.1796 6.7843C16.938 6.65203 16.7618 6.42584 16.6923 6.1593C16.3277 4.76091 15.4332 3.55915 14.1982 2.80871ZM12.1933 16.0382V10.0148L10.1503 12.0577C9.75978 12.4483 9.12676 12.4483 8.73624 12.0577C8.34598 11.6672 8.3458 11.0341 8.73624 10.6437L12.4862 6.89368C12.6737 6.7062 12.9281 6.60077 13.1933 6.60071C13.4584 6.60071 13.7128 6.7063 13.9003 6.89368L17.6503 10.6437C18.0408 11.0342 18.0408 11.6672 17.6503 12.0577C17.2598 12.4483 16.6268 12.4483 16.2362 12.0577L14.1933 10.0148V16.0382C14.1933 16.5905 13.7456 17.0382 13.1933 17.0382C12.6411 17.0381 12.1933 16.5904 12.1933 16.0382Z" fill="#00897B"></path></svg>