<svg xmlns="http://www.w3.org/2000/svg" width="35" height="35" viewBox="0 0 35 35" fill="none"><g clip-path="url(#clip0_2104_723)"><path d="M0.570907 31.8175L6.79161 34.8937C6.92325 34.9586 7.08614 34.9994 7.24369 35H7.24609H7.24849C7.40844 34.9994 7.57347 34.9575 7.70484 34.8918L13.8572 31.8157C14.2043 31.6418 14.4238 31.2869 14.4238 30.8984V26.7969H20.5762V30.8984C20.5762 31.2869 20.7957 31.6418 21.1431 31.8157L27.2954 34.8918C27.5902 35.0392 27.9325 35.0302 28.2084 34.8937L34.4291 31.8175C34.7786 31.6448 35 31.2885 35 30.8984V22.6953C35 22.3204 34.7922 21.9607 34.4382 21.7813C34.4349 21.7797 34.4323 21.7778 34.4291 21.7762L28.2084 18.7C27.9205 18.5577 27.5827 18.5585 27.2954 18.7022L25.502 19.5986L22.4793 14.1061L24.1108 13.2903C24.4582 13.1164 24.6777 12.7616 24.6777 12.373V4.10156C24.6777 3.7149 24.4572 3.35762 24.1108 3.18432L17.9585 0.108147C17.6698 -0.0360489 17.3302 -0.0360489 17.0415 0.108147L10.8892 3.18432C10.5434 3.35735 10.3223 3.71464 10.3223 4.10156V12.373C10.3223 12.7616 10.5418 13.1164 10.8892 13.2903L12.5207 14.1061L9.49794 19.5986L7.70458 18.7019C7.41752 18.5582 7.07946 18.5577 6.79161 18.7L0.570907 21.7762C0.216827 21.9514 0 22.3126 0 22.6953V30.8984C0 31.2885 0.2211 31.6448 0.570907 31.8175ZM2.05078 24.3463L6.2207 26.4083V32.3236L2.05078 30.2616V24.3463ZM12.373 30.2648L8.27148 32.3155V26.4051L12.373 24.3543V30.2648ZM22.6269 24.3543L26.7285 26.4051V32.3155L22.6269 30.2648V24.3543ZM32.9492 30.2616L28.7793 32.3236V26.4083L32.9492 24.3463V30.2616ZM27.7566 20.7644L31.6613 22.6953L27.7566 24.6265L23.8945 22.6953L27.7566 20.7644ZM22.6269 11.7394L18.5254 13.7902V7.81139L22.6269 5.76061V11.7394ZM17.5 2.17174L21.3596 4.10156L17.5 6.03138L13.6406 4.10156L17.5 2.17174ZM12.373 5.76061L16.4746 7.81139V13.7902L12.373 11.7394V5.76061ZM14.3565 15.0238L17.0415 16.3665C17.1729 16.4319 17.3379 16.4741 17.4976 16.4746H17.5H17.5024C17.6645 16.4741 17.8276 16.4319 17.9587 16.3665L20.6435 15.0238L23.6665 20.5166L21.1431 21.7781C20.7874 21.9559 20.5762 22.3177 20.5762 22.6953V24.7461H14.4238V22.6953C14.4238 22.299 14.1939 21.9458 13.8569 21.7781L11.3338 20.5166L14.3565 15.0238ZM7.24369 20.7644L11.1057 22.6953L7.24369 24.6265L3.33866 22.6953L7.24369 20.7644Z" fill="white"></path></g><defs><clipPath id="clip0_2104_723"><rect width="35" height="35" fill="white"></rect></clipPath></defs></svg>