<svg xmlns="http://www.w3.org/2000/svg" width="36" height="35" viewBox="0 0 36 35" fill="none"><path fill-rule="evenodd" clip-rule="evenodd" d="M8.3252 18.5356H9.626L10.3623 16.3768H13.44L14.1707 18.5356H15.4715L12.5709 10.5479H11.2314L8.3252 18.5356ZM11.8901 11.8708H11.9122L13.1023 15.3803H10.6944L11.8901 11.8708Z" fill="white"></path><path fill-rule="evenodd" clip-rule="evenodd" d="M16.3564 18.5356H17.5964V15.8066H19.329C20.8956 15.8066 21.9805 14.7382 21.9805 13.1772V13.1661C21.9805 11.5996 20.8956 10.5479 19.329 10.5479H16.3564V18.5356ZM19.0191 11.5941C20.0985 11.5941 20.7184 12.1753 20.7184 13.1717V13.1827C20.7184 14.1847 20.0985 14.7659 19.0191 14.7659H17.5964V11.5941H19.0191Z" fill="white"></path><path d="M24.3054 18.5356H23.0654V10.5479H24.3054V18.5356Z" fill="white"></path><path fill-rule="evenodd" clip-rule="evenodd" d="M28.0574 22.9672V22.9684H23.0496V25.9784H27.2137C27.6111 25.9784 27.9332 26.3005 27.9332 26.6978V29.4346C28.1648 29.4962 28.3921 29.5891 28.6096 29.7146C29.9398 30.4825 30.3955 32.1833 29.6275 33.5135C28.8596 34.8435 27.1588 35.2992 25.8287 34.5313C24.4986 33.7634 24.0428 32.0626 24.8108 30.7325C25.1938 30.0691 25.809 29.6231 26.4943 29.4381V27.4172H22.3302C22.1394 27.4172 21.9564 27.3414 21.8216 27.2066C21.6866 27.0716 21.6108 26.8886 21.6108 26.6978V22.9684H18.1496V29.436C19.3367 29.753 20.2111 30.8359 20.2111 32.123C20.2111 33.6589 18.966 34.9039 17.4301 34.9039C15.8943 34.9039 14.6492 33.6589 14.6492 32.123C14.6492 30.8359 15.5236 29.7531 16.7107 29.436V22.9684H13.2494V26.6797C13.2494 27.077 12.9272 27.3991 12.5299 27.3991H8.36585V29.4381C9.05122 29.6231 9.66637 30.0691 10.0494 30.7325C10.8173 32.0626 10.3616 33.7634 9.03146 34.5313C7.7014 35.2992 6.00059 34.8435 5.23265 33.5135C4.46472 32.1833 4.92045 30.4825 6.25054 29.7146C6.46802 29.5891 6.6954 29.4962 6.927 29.4346V26.6797C6.927 26.2823 7.24912 25.9602 7.64643 25.9602H11.8105V22.9684H6.62855C3.01219 22.9194 0.0957031 19.9719 0.0957031 16.3438C0.0957031 13.1054 2.41945 10.4097 5.49049 9.8332C5.44903 9.48903 5.42768 9.13862 5.42768 8.78323C5.42768 3.98551 9.31702 0.0961914 14.1147 0.0961914C17.308 0.0961914 20.099 1.81922 21.6084 4.38629C21.9944 4.31069 22.3933 4.27108 22.8015 4.27108C25.6145 4.27108 27.988 6.15289 28.7318 8.72635C32.3002 9.12414 35.0747 12.1506 35.0747 15.8252C35.0747 19.7282 31.9443 22.9 28.0574 22.9672ZM27.9715 21.5296L28.0325 21.5285C31.1361 21.4749 33.6358 18.9418 33.6358 15.8252C33.6358 12.8918 31.4204 10.4738 28.5724 10.1564L27.6166 10.0498L27.3496 9.12586C26.7789 7.1514 24.9567 5.70991 22.8015 5.70991C22.4867 5.70991 22.1803 5.74045 21.885 5.7983L20.8848 5.99418L20.3681 5.11561C19.1065 2.96996 16.7774 1.53503 14.1147 1.53503C10.1116 1.53503 6.86652 4.78016 6.86652 8.78323C6.86652 9.08097 6.88439 9.37392 6.919 9.66111L7.0802 10.9988L5.75595 11.2474C3.35277 11.6985 1.53454 13.8103 1.53454 16.3438C1.53454 19.1837 3.8176 21.4906 6.64808 21.529L6.69016 21.5296H27.9715ZM16.0881 32.123C16.0881 32.8643 16.6889 33.4651 17.4301 33.4651C18.1714 33.4651 18.7723 32.8643 18.7723 32.123C18.7723 31.3818 18.1714 30.7809 17.4301 30.7809C16.6889 30.7809 16.0881 31.3818 16.0881 32.123ZM28.3815 32.794C28.0108 33.436 27.19 33.6559 26.5481 33.2853C25.9062 32.9146 25.6863 32.0938 26.0569 31.4519C26.4275 30.81 27.2483 30.59 27.8902 30.9607C28.5322 31.3313 28.752 32.1521 28.3815 32.794ZM6.47872 32.794C6.84933 33.436 7.67013 33.6559 8.31204 33.2853C8.95395 32.9146 9.1739 32.0938 8.80335 31.4519C8.43271 30.81 7.6119 30.59 6.96996 30.9607C6.32805 31.3313 6.10811 32.1521 6.47872 32.794Z" fill="white"></path><path fill-rule="evenodd" clip-rule="evenodd" d="M27.5425 10.1378L27.2576 9.15217C26.6985 7.2178 24.9131 5.80557 22.8017 5.80557C22.493 5.80557 22.193 5.8355 21.9036 5.89217L20.8367 6.1011L20.2857 5.16396C19.0405 3.04644 16.7422 1.63068 14.1149 1.63068C10.1648 1.63068 6.96266 4.83287 6.96266 8.78296C6.96266 9.07687 6.9803 9.36598 7.01445 9.64943L7.18632 11.0763L5.77387 11.3414C3.41526 11.7842 1.63068 13.8571 1.63068 16.3436C1.63068 19.131 3.87151 21.3952 6.64959 21.4328L6.69037 21.4334H27.971L28.0311 21.4323C31.0824 21.3797 33.5401 18.8892 33.5401 15.8249C33.5401 12.9408 31.362 10.5635 28.562 10.2513L27.5425 10.1378ZM27.9717 21.5293L28.0327 21.5283C31.1363 21.4746 33.6361 18.9415 33.6361 15.8249C33.6361 12.8915 31.4206 10.4735 28.5726 10.1561L27.6168 10.0495L27.3498 9.1256C26.7791 7.15113 24.9569 5.70965 22.8017 5.70965C22.4869 5.70965 22.1805 5.74018 21.8852 5.79803L20.885 5.99391L20.3684 5.11534C19.1067 2.96969 16.7776 1.53476 14.1149 1.53476C10.1119 1.53476 6.86674 4.77989 6.86674 8.78296C6.86674 9.0807 6.88461 9.37365 6.91922 9.66084L7.08042 10.9986L5.75617 11.2471C3.35298 11.6982 1.53476 13.8101 1.53476 16.3436C1.53476 19.1834 3.81782 21.4904 6.64829 21.5287L6.69037 21.5293H27.9717ZM6.62877 22.9682C3.01241 22.9191 0.0959223 19.9716 0.0959223 16.3436C0.0959223 13.1051 2.41967 10.4094 5.49071 9.83293C5.44924 9.48876 5.4279 9.13835 5.4279 8.78296C5.4279 3.98524 9.31724 0.0959225 14.1149 0.0959225C17.3082 0.0959225 20.0992 1.81895 21.6086 4.38602C21.9946 4.31043 22.3936 4.27081 22.8017 4.27081C25.6147 4.27081 27.9882 6.15262 28.732 8.72608C32.3004 9.12387 35.0749 12.1503 35.0749 15.8249C35.0749 19.7279 31.9446 22.8998 28.0576 22.9669V22.9682H23.0499V25.9781H27.214C27.6114 25.9781 27.9334 26.3002 27.9334 26.6975V29.4343C28.165 29.496 28.3924 29.5888 28.6098 29.7144C29.94 30.4822 30.3957 32.183 29.6277 33.5132C28.8598 34.8433 27.159 35.299 25.8289 34.531C24.4988 33.7632 24.043 32.0624 24.811 30.7322C25.194 30.0688 25.8092 29.6229 26.4945 29.4378V27.4169H22.3305C22.1397 27.4169 21.9566 27.3412 21.8218 27.2063C21.6868 27.0713 21.611 26.8883 21.611 26.6975V22.9682H18.1498V29.4357C19.3369 29.7527 20.2113 30.8356 20.2113 32.1227C20.2113 33.6586 18.9663 34.9037 17.4304 34.9037C15.8945 34.9037 14.6495 33.6586 14.6495 32.1227C14.6495 30.8356 15.5238 29.7528 16.7109 29.4357V22.9682H13.2496V26.6794C13.2496 27.0767 12.9275 27.3988 12.5302 27.3988H8.36607V29.4378C9.05144 29.6229 9.66659 30.0688 10.0496 30.7322C10.8176 32.0624 10.3618 33.7632 9.03168 34.531C7.70162 35.299 6.00081 34.8433 5.23287 33.5132C4.46494 32.183 4.92066 30.4822 6.25076 29.7144C6.46824 29.5888 6.69562 29.496 6.92722 29.4343V26.6794C6.92722 26.2821 7.24934 25.96 7.64665 25.96H11.8107V22.9682H6.62877ZM11.7148 23.0641H6.62748C2.95871 23.0143 0 20.0241 0 16.3436C0 13.0891 2.31328 10.3751 5.38525 9.75581C5.35005 9.43629 5.33198 9.11169 5.33198 8.78296C5.33198 3.93226 9.26419 0 14.1149 0C17.3195 0 20.123 1.71622 21.6568 4.27921C22.0281 4.21069 22.4107 4.17489 22.8017 4.17489C25.6361 4.17489 28.031 6.0562 28.8061 8.63812C32.3918 9.06986 35.1708 12.1228 35.1708 15.8249C35.1708 19.7487 32.049 22.9434 28.1535 23.0606V23.0641H23.1458V25.8822H27.214C27.6643 25.8822 28.0293 26.2473 28.0293 26.6975V29.3616C28.2444 29.4248 28.4553 29.5144 28.6578 29.6312C30.0338 30.4256 30.5052 32.1851 29.7108 33.5611C28.9164 34.9371 27.157 35.4085 25.781 34.6141C24.405 33.8197 23.9335 32.0603 24.7279 30.6842C25.111 30.0209 25.7183 29.5678 26.3986 29.3654V27.5129H22.3305C22.1142 27.5129 21.9069 27.427 21.754 27.2741C21.601 27.1212 21.5151 26.9138 21.5151 26.6975V23.0641H18.2457V29.363C19.4374 29.7146 20.3073 30.8169 20.3073 32.1227C20.3073 33.7116 19.0192 34.9996 17.4304 34.9996C15.8416 34.9996 14.5535 33.7116 14.5535 32.1227C14.5535 30.817 15.4234 29.7147 16.615 29.3631V23.0641H13.3455V26.6794C13.3455 27.1296 12.9805 27.4947 12.5302 27.4947H8.46199V29.3654C9.14227 29.5678 9.74975 30.0209 10.1327 30.6842C10.9271 32.0603 10.4556 33.8197 9.07964 34.6141C7.70373 35.4085 5.94422 34.9371 5.14979 33.5611C4.35537 32.1851 4.82682 30.4256 6.2028 29.6312C6.40532 29.5144 6.61626 29.4248 6.83129 29.3616V26.6794C6.83129 26.2291 7.1963 25.864 7.64665 25.864H11.7148V23.0641ZM8.18775 18.6315L11.1636 10.4519H12.6377L15.6079 18.6315H14.1014L13.3707 16.4727H10.4304L9.69421 18.6315H8.18775ZM10.3618 16.3768H13.4395L14.1702 18.5356H15.471L12.5704 10.5478H11.2309L8.32473 18.5356H9.62553L10.3618 16.3768ZM16.2608 18.6315V10.4519H19.3292C20.1344 10.4519 20.8225 10.7226 21.3096 11.2011C21.797 11.6798 22.0766 12.36 22.0766 13.1661V13.1772C22.0766 13.9806 21.797 14.6634 21.3099 15.1454C20.8229 15.6274 20.1348 15.9025 19.3292 15.9025H17.6926V18.6315H16.2608ZM17.5967 18.5356H16.3567V10.5478H19.3292C20.8958 10.5478 21.9807 11.5996 21.9807 13.1661V13.1772C21.9807 14.7382 20.8958 15.8066 19.3292 15.8066H17.5967V18.5356ZM24.4016 18.6315H22.9698V10.4519H24.4016V18.6315ZM16.1842 32.1227C16.1842 32.8109 16.7421 33.3689 17.4304 33.3689C18.1187 33.3689 18.6766 32.8109 18.6766 32.1227C18.6766 31.4345 18.1187 30.8766 17.4304 30.8766C16.7421 30.8766 16.1842 31.4345 16.1842 32.1227ZM26.5963 33.2019C27.1924 33.546 27.9545 33.3419 28.2986 32.7458C28.6427 32.1497 28.4385 31.3876 27.8425 31.0435C27.2465 30.6993 26.4843 30.9035 26.1402 31.4996C25.796 32.0956 26.0002 32.8577 26.5963 33.2019ZM6.56201 32.7458C6.90613 33.3419 7.66833 33.546 8.2643 33.2019C8.86036 32.8577 9.06458 32.0956 8.7205 31.4996C8.37633 30.9035 7.61414 30.6993 7.01814 31.0435C6.4221 31.3876 6.21789 32.1497 6.56201 32.7458ZM13.1019 15.3803H10.6939L11.8896 11.8708H11.9117L13.1019 15.3803ZM11.9004 12.1363L10.8279 15.2844H12.968L11.9004 12.1363ZM20.2084 12.0794C19.9412 11.8307 19.5425 11.69 19.0193 11.69H17.6926V14.67H19.0193C19.5425 14.67 19.9411 14.5293 20.2084 14.2799C20.4745 14.0314 20.6227 13.6635 20.6227 13.1827V13.1717C20.6227 12.6938 20.4746 12.3273 20.2084 12.0794ZM17.4304 33.4648C16.6892 33.4648 16.0883 32.864 16.0883 32.1227C16.0883 31.3815 16.6892 30.7806 17.4304 30.7806C18.1716 30.7806 18.7725 31.3815 18.7725 32.1227C18.7725 32.864 18.1716 33.4648 17.4304 33.4648ZM26.5483 33.285C27.1903 33.6556 28.0111 33.4357 28.3817 32.7938C28.7523 32.1519 28.5324 31.3311 27.8904 30.9604C27.2485 30.5898 26.4277 30.8097 26.0571 31.4516C25.6865 32.0935 25.9064 32.9143 26.5483 33.285ZM8.31226 33.285C7.67035 33.6556 6.84955 33.4357 6.47894 32.7938C6.10833 32.1519 6.32827 31.3311 6.97018 30.9604C7.61212 30.5898 8.43293 30.8097 8.80357 31.4516C9.17412 32.0935 8.95417 32.9143 8.31226 33.285ZM20.7187 13.1717C20.7187 12.1753 20.0987 11.5941 19.0193 11.5941H17.5967V14.7659H19.0193C20.0987 14.7659 20.7187 14.1846 20.7187 13.1827V13.1717ZM23.0657 18.5356V10.5478H24.3057V18.5356H23.0657Z" fill="white"></path></svg>