<svg xmlns="http://www.w3.org/2000/svg" width="38" height="35" viewBox="0 0 38 35" fill="none"><path d="M35.5425 15.5532V11.4065C35.5432 10.9485 35.4535 10.4948 35.2785 10.0715C35.1035 9.64819 34.8467 9.26357 34.5228 8.93968C34.1989 8.61579 33.8143 8.359 33.391 8.18402C32.9677 8.00904 32.514 7.91932 32.056 7.91998H29.788L11.2551 0.202182C10.94 0.0690861 10.6015 0.000345026 10.2594 1.29549e-06C9.91731 -0.000342435 9.57862 0.0677182 9.26324 0.200181C8.94785 0.332643 8.66213 0.526833 8.42289 0.771329C8.18365 1.01583 7.99571 1.30569 7.87013 1.62388L5.34831 7.91998H3.48655C3.02851 7.91932 2.57483 8.00904 2.15152 8.18402C1.72821 8.359 1.34359 8.61579 1.0197 8.93968C0.695811 9.26357 0.439019 9.64819 0.26404 10.0715C0.0890613 10.4948 -0.000664814 10.9485 3.70835e-06 11.4065V31.5134C-0.000664814 31.9715 0.0890613 32.4252 0.26404 32.8485C0.439019 33.2718 0.695811 33.6564 1.0197 33.9803C1.34359 34.3042 1.72821 34.561 2.15152 34.736C2.57483 34.9109 3.02851 35.0007 3.48655 35H32.056C32.514 35.0007 32.9677 34.9109 33.391 34.736C33.8143 34.561 34.1989 34.3042 34.5228 33.9803C34.8467 33.6564 35.1035 33.2718 35.2785 32.8485C35.4535 32.4252 35.5432 31.9715 35.5425 31.5134V27.3668C35.9952 27.3511 36.4242 27.1608 36.7397 26.8358C37.0552 26.5109 37.2327 26.0765 37.235 25.6235V17.2964C37.2327 16.8435 37.0552 16.4091 36.7397 16.0841C36.4242 15.7592 35.9952 15.5689 35.5425 15.5532ZM9.44416 2.25011C9.48476 2.13989 9.54786 2.03932 9.62945 1.95482C9.71104 1.87032 9.80933 1.80373 9.91806 1.75928C10.1358 1.67481 10.3773 1.67481 10.5951 1.75928L25.3875 7.91998H21.2917L11.2721 4.58576C11.0654 4.5138 10.8388 4.52473 10.64 4.61625C10.4412 4.70777 10.2855 4.87276 10.2058 5.07658L9.10566 7.91998H7.17621L9.44416 2.25011ZM15.9434 7.91998H10.9336L11.4921 6.44751L15.9434 7.91998ZM33.85 31.5134C33.8496 31.9891 33.6604 32.4452 33.3241 32.7815C32.9877 33.1179 32.5316 33.307 32.056 33.3075H3.48655C3.01088 33.307 2.55482 33.1179 2.21846 32.7815C1.88211 32.4452 1.69295 31.9891 1.6925 31.5134V11.4065C1.69561 10.9317 1.88562 10.4772 2.2214 10.1414C2.55718 9.8056 3.0117 9.61559 3.48655 9.61249H32.056C32.5308 9.61559 32.9853 9.8056 33.3211 10.1414C33.6569 10.4772 33.8469 10.9317 33.85 11.4065V15.5362H26.2338C24.6627 15.5362 23.156 16.1603 22.045 17.2713C20.9341 18.3822 20.31 19.8889 20.31 21.46C20.31 23.0311 20.9341 24.5378 22.045 25.6487C23.156 26.7596 24.6627 27.3837 26.2338 27.3837H33.85V31.5134ZM35.5425 25.6235C35.5413 25.6411 35.5338 25.6576 35.5214 25.6701C35.5089 25.6825 35.4924 25.6901 35.4748 25.6912H26.2338C25.1116 25.6912 24.0353 25.2454 23.2418 24.4519C22.4483 23.6584 22.0025 22.5822 22.0025 21.46C22.0025 20.3378 22.4483 19.2616 23.2418 18.468C24.0353 17.6745 25.1116 17.2287 26.2338 17.2287L35.5425 17.2964V25.6235Z" fill="white"></path><path d="M26.2341 18.9214C25.7319 18.9214 25.2411 19.0703 24.8236 19.3492C24.4061 19.6282 24.0807 20.0247 23.8886 20.4886C23.6964 20.9525 23.6461 21.463 23.7441 21.9554C23.8421 22.4479 24.0838 22.9003 24.4389 23.2553C24.7939 23.6104 25.2463 23.8521 25.7388 23.9501C26.2312 24.0481 26.7417 23.9978 27.2056 23.8056C27.6695 23.6135 28.066 23.2881 28.345 22.8706C28.6239 22.4531 28.7728 21.9623 28.7728 21.4601C28.7728 20.7868 28.5053 20.1411 28.0292 19.665C27.5531 19.1889 26.9074 18.9214 26.2341 18.9214ZM26.2341 22.3064C26.0667 22.3064 25.9031 22.2568 25.7639 22.1638C25.6247 22.0708 25.5163 21.9386 25.4522 21.784C25.3882 21.6294 25.3714 21.4592 25.4041 21.295C25.4367 21.1309 25.5173 20.9801 25.6357 20.8617C25.754 20.7434 25.9048 20.6628 26.069 20.6301C26.2331 20.5975 26.4033 20.6143 26.5579 20.6783C26.7125 20.7424 26.8447 20.8508 26.9377 20.99C27.0307 21.1292 27.0803 21.2928 27.0803 21.4601C27.0803 21.6846 26.9912 21.8998 26.8325 22.0585C26.6738 22.2172 26.4585 22.3064 26.2341 22.3064Z" fill="white"></path><path d="M10.1556 13.8438C10.1556 14.0682 10.0665 14.2835 9.90777 14.4422C9.74906 14.6009 9.53382 14.6901 9.30938 14.6901H5.92438C5.69994 14.6901 5.48469 14.6009 5.32599 14.4422C5.16728 14.2835 5.07812 14.0682 5.07812 13.8438C5.07812 13.6194 5.16728 13.4041 5.32599 13.2454C5.48469 13.0867 5.69994 12.9976 5.92438 12.9976H9.30938C9.53382 12.9976 9.74906 13.0867 9.90777 13.2454C10.0665 13.4041 10.1556 13.6194 10.1556 13.8438Z" fill="white"></path><path d="M13.5406 17.2286C13.5406 17.453 13.4515 17.6683 13.2928 17.827C13.1341 17.9857 12.9188 18.0748 12.6944 18.0748H5.92438C5.69994 18.0748 5.48469 17.9857 5.32599 17.827C5.16728 17.6683 5.07812 17.453 5.07812 17.2286C5.07812 17.0041 5.16728 16.7889 5.32599 16.6302C5.48469 16.4715 5.69994 16.3823 5.92438 16.3823H12.6944C12.9188 16.3823 13.1341 16.4715 13.2928 16.6302C13.4515 16.7889 13.5406 17.0041 13.5406 17.2286Z" fill="white"></path></svg>