<svg xmlns="http://www.w3.org/2000/svg" width="12" height="12" viewBox="0 0 12 12" fill="none"><g clip-path="url(#clip0_4021_201)"><path d="M0.5 6C0.5 6.4142 0.8358 6.75 1.25 6.75H9.75C10.1642 6.75 10.5 6.4142 10.5 6C10.5 5.5858 10.1642 5.25 9.75 5.25H1.25C0.8358 5.25 0.5 5.5858 0.5 6Z" fill="#696969"></path><path d="M5.46945 0.470002C5.17945 0.760002 5.17945 1.24 5.46945 1.53L9.93945 6L5.46945 10.47C5.17945 10.76 5.17945 11.24 5.46945 11.53C5.75945 11.82 6.23945 11.82 6.52945 11.53L11.5295 6.53C11.8195 6.24 11.8195 5.76 11.5295 5.47L6.52945 0.470002C6.23945 0.180002 5.75945 0.180002 5.46945 0.470002Z" fill="#696969"></path></g><defs><clipPath id="clip0_4021_201"><rect width="12" height="12" fill="white" transform="matrix(0 1 1 0 0 0)"></rect></clipPath></defs></svg>