<svg xmlns="http://www.w3.org/2000/svg" width="25" height="27" viewBox="0 0 25 27" fill="none"><path d="M2 18.2377L11.25 23.6332V14.6996L2 9.30406V18.2377ZM13.25 14.6996V23.6332L22.5 18.2377V9.30406L13.25 14.6996ZM2.98535 7.56285L12.25 12.9671L21.5137 7.56285L12.25 2.15855L2.98535 7.56285ZM24.5 18.8128C24.5 19.1685 24.3111 19.4979 24.0039 19.6771L12.7539 26.2396C12.4426 26.4211 12.0574 26.4211 11.7461 26.2396L0.496094 19.6771C0.188876 19.4979 0 19.1685 0 18.8128V7.56285C0 7.20718 0.188876 6.8778 0.496094 6.69859L11.7461 0.136089L11.8662 0.076519C12.1526 -0.0425123 12.4816 -0.0226838 12.7539 0.136089L24.0039 6.69859C24.3111 6.8778 24.5 7.20718 24.5 7.56285V18.8128Z" fill="#00897B"></path></svg>