<svg xmlns="http://www.w3.org/2000/svg" width="22" height="23" viewBox="0 0 22 23" fill="currentColor"><g clip-path="url(#clip0_2115_253)"><path d="M8.57655 1.26479C10.89 0.742163 13.3104 0.981205 15.4769 1.94643C15.9813 2.17118 16.2084 2.76232 15.9838 3.26674C15.759 3.77118 15.1679 3.99827 14.6635 3.77358C12.8907 2.98368 10.91 2.78825 9.01698 3.21596C7.12393 3.64368 5.41953 4.67131 4.15858 6.14663C2.89762 7.62195 2.1476 9.46592 2.0199 11.4025C1.89229 13.3389 2.39431 15.2647 3.45057 16.8927C4.50687 18.5208 6.06081 19.7641 7.88123 20.4367C9.70171 21.1092 11.691 21.1754 13.5521 20.6251C15.4132 20.0749 17.0463 18.9373 18.2084 17.383C19.3703 15.8287 19.9991 13.9407 20.0004 12.0001V11.0802C20.0004 10.5279 20.4481 10.0802 21.0004 10.0802C21.5527 10.0802 22.0004 10.5279 22.0004 11.0802V12.0001L21.9916 12.4445C21.9009 14.6594 21.1423 16.7992 19.8109 18.5802C18.3907 20.48 16.3942 21.8705 14.1195 22.5431C11.8448 23.2157 9.41294 23.1347 7.18787 22.3126C4.96309 21.4906 3.06382 19.9712 1.77283 17.9816C0.481799 15.9917 -0.132227 13.6375 0.0238111 11.2706C0.179872 8.90392 1.09712 6.6509 2.63807 4.8478C4.17925 3.04462 6.2628 1.78755 8.57655 1.26479Z"></path><path d="M20.2928 3.29296C20.6832 2.90259 21.3163 2.90275 21.7069 3.29296C22.0973 3.68332 22.0971 4.31642 21.7069 4.70702L11.7069 14.7168C11.5194 14.9043 11.2651 15.0097 10.9999 15.0098C10.7347 15.0098 10.4804 14.9043 10.2928 14.7168L7.29283 11.7168C6.90243 11.3263 6.90235 10.6932 7.29283 10.3027C7.68333 9.91236 8.3164 9.91236 8.7069 10.3027L10.9999 12.5957L20.2928 3.29296Z"></path></g><defs><clipPath id="clip0_2115_253"><rect width="22.0004" height="23" fill="white"></rect></clipPath></defs></svg>