<svg xmlns="http://www.w3.org/2000/svg" width="35" height="35" viewBox="0 0 35 35" fill="none"><path d="M14.4841 28.608C9.68876 28.608 4.96343 26.2024 2.25879 22.0065C-1.34252 16.4191 -0.511451 8.90478 4.23553 4.13897C9.0723 -0.716716 16.9793 -1.37068 22.6267 2.61751C28.2392 6.57892 30.2293 14.2621 27.2584 20.4895C27.0317 20.9662 26.4611 21.167 25.9848 20.9401C25.5091 20.7126 25.3072 20.1421 25.5345 19.6653C28.0672 14.3571 26.3064 7.55478 21.5256 4.1804C16.629 0.723163 9.77664 1.28535 5.58881 5.48961C1.47102 9.62249 0.746301 16.1335 3.86425 20.9707C7.09365 25.9806 13.641 28.0503 19.0923 25.7869C19.2903 25.7046 19.4865 25.6167 19.6801 25.5243C20.1564 25.2961 20.7258 25.4981 20.9538 25.9749C21.1811 26.4517 20.9792 27.0221 20.5035 27.2497C20.28 27.3561 20.0539 27.4575 19.8253 27.5525C18.1046 28.267 16.2889 28.608 14.4841 28.608Z" fill="white"></path><path d="M22.8809 27.9438C22.5746 27.9438 22.2733 27.7965 22.0886 27.5224C21.7932 27.0845 21.9084 26.4905 22.3453 26.1947C23.875 25.1609 25.1735 23.8612 26.2058 22.3308C26.5013 21.893 27.0955 21.7782 27.5317 22.0733C27.9692 22.3685 28.0845 22.9631 27.789 23.401C26.6197 25.1348 25.1486 26.6078 23.4152 27.7793C23.2509 27.8909 23.0649 27.9438 22.8809 27.9438Z" fill="white"></path><path d="M32.9571 29.4015C32.7368 29.4015 32.5158 29.3257 32.3356 29.1708L26.1761 23.8804C25.7755 23.5362 25.7297 22.9332 26.0729 22.5323C26.4168 22.1326 27.0205 22.0855 27.4198 22.4297L33.5793 27.7201C33.9799 28.0643 34.0257 28.6672 33.6825 29.0682C33.494 29.2887 33.2265 29.4015 32.9571 29.4015Z" fill="white"></path><path d="M28.4548 33.9089C28.1854 33.9089 27.9179 33.7961 27.7288 33.5756L22.443 27.4113C22.0998 27.0104 22.1456 26.4068 22.5462 26.0632C22.9461 25.7184 23.5505 25.7662 23.8931 26.1659L29.1789 32.3301C29.5221 32.731 29.4763 33.3347 29.0757 33.6782C28.8961 33.8331 28.6745 33.9089 28.4548 33.9089Z" fill="white"></path><path d="M26.7644 21.4007C26.5199 21.4007 26.2753 21.3077 26.0888 21.1209L25.7213 20.7531C25.3481 20.3803 25.3481 19.7741 25.7213 19.4012C26.0945 19.0277 26.6988 19.0277 27.072 19.4012L27.4395 19.769C27.8127 20.1419 27.8127 20.748 27.4395 21.1209C27.2535 21.3077 27.009 21.4007 26.7644 21.4007Z" fill="white"></path><path d="M20.4605 27.7108C20.2159 27.7108 19.9714 27.6177 19.7848 27.431L19.4167 27.0625C19.0435 26.6897 19.0435 26.0841 19.4161 25.7106C19.7892 25.3365 20.3942 25.3371 20.7674 25.71L21.1355 26.0784C21.5087 26.4513 21.5087 27.0568 21.1361 27.4303C20.9496 27.6177 20.705 27.7108 20.4605 27.7108Z" fill="white"></path><path d="M21.8137 28.2697C21.0731 28.2697 20.3382 27.9848 19.7848 27.4309C19.4116 27.058 19.4116 26.4518 19.7848 26.079C20.158 25.7054 20.7623 25.7054 21.1355 26.079C21.4577 26.4008 21.9678 26.4506 22.3455 26.195C22.7817 25.9005 23.3772 26.0146 23.6714 26.4531C23.9669 26.891 23.851 27.4851 23.4141 27.7808C22.9282 28.1084 22.3691 28.2697 21.8137 28.2697Z" fill="white"></path><path d="M26.997 23.8226C26.8129 23.8226 26.627 23.7697 26.4633 23.6588C26.0251 23.3636 25.9105 22.769 26.206 22.3311C26.4614 21.9524 26.4123 21.4432 26.0895 21.12C25.7163 20.7465 25.7163 20.141 26.0895 19.7675C26.4626 19.3946 27.067 19.3946 27.4402 19.7675C28.4088 20.7369 28.5553 22.2648 27.7892 23.4006C27.6045 23.6753 27.3033 23.8226 26.997 23.8226Z" fill="white"></path><path d="M30.8841 35.0002C30.8159 35.0002 30.7471 34.9989 30.6784 34.9951C29.5301 34.9396 28.4558 34.4221 27.7292 33.5756C27.3859 33.1747 27.4318 32.5711 27.8323 32.2275C28.2323 31.884 28.836 31.9305 29.1792 32.3301C29.5645 32.7801 30.1447 33.0549 30.7701 33.0855C31.3935 33.1173 32.0017 32.8974 32.4297 32.4857C32.8672 32.0656 33.1073 31.4556 33.0894 30.8119C33.0722 30.1662 32.7965 29.5683 32.3341 29.1718C31.9342 28.8276 31.8883 28.224 32.2322 27.8237C32.5749 27.4235 33.1786 27.3776 33.5792 27.7211C34.4484 28.4688 34.9662 29.576 34.9987 30.759C35.0318 31.9407 34.5771 33.0727 33.7524 33.8656C32.9971 34.5923 31.9603 35.0002 30.8841 35.0002Z" fill="white"></path><path d="M15.8956 17.5886C15.6281 17.5886 15.3626 17.477 15.1741 17.2597C14.8276 16.8613 14.8697 16.2571 15.2683 15.911L21.9201 10.1259C22.3168 9.7792 22.9218 9.82126 23.267 10.2203C23.6134 10.6186 23.5714 11.2229 23.1727 11.569L16.521 17.3547C16.3408 17.5115 16.1179 17.5886 15.8956 17.5886Z" fill="white"></path><path d="M26.0274 8.77811C25.76 8.77811 25.4944 8.66656 25.3059 8.44921C24.9595 8.05084 25.0015 7.44659 25.4002 7.10048L30.7604 2.4392C31.1578 2.09246 31.7622 2.13516 32.1073 2.53354C32.4538 2.93191 32.4117 3.53616 32.0131 3.88227L26.6528 8.54355C26.4726 8.70098 26.2497 8.77811 26.0274 8.77811Z" fill="white"></path><path d="M31.0931 8.33593C31.0702 8.33593 31.0479 8.33529 31.0249 8.33338C30.4989 8.29641 30.1022 7.8394 30.1391 7.31291L30.4352 3.09334C30.4728 2.56622 30.9301 2.16402 31.4554 2.20672C31.9815 2.24369 32.3782 2.70071 32.3413 3.2272L32.0452 7.44676C32.0095 7.9503 31.5905 8.33593 31.0931 8.33593Z" fill="white"></path><path d="M31.389 4.11662C31.3661 4.11662 31.3438 4.11598 31.3215 4.11407L27.1057 3.81832C26.579 3.78135 26.1822 3.32498 26.2192 2.79785C26.2568 2.27072 26.7293 1.86916 27.2388 1.91123L31.4546 2.20698C31.9813 2.24395 32.378 2.70033 32.3411 3.22745C32.3054 3.731 31.8858 4.11662 31.389 4.11662Z" fill="white"></path><path d="M15.8956 17.5889C15.5893 17.5889 15.2874 17.441 15.1027 17.1669L11.9708 12.5171C11.6759 12.0792 11.7918 11.4852 12.2287 11.19C12.6668 10.8956 13.2597 11.0103 13.5552 11.4482L16.6872 16.098C16.982 16.5359 16.8661 17.1299 16.4293 17.4251C16.265 17.536 16.0796 17.5889 15.8956 17.5889Z" fill="white"></path><path d="M6.11241 18.7244C5.84493 18.7244 5.57937 18.6128 5.39087 18.3955C5.04443 17.9971 5.08646 17.3929 5.48512 17.0468L12.1369 11.2617C12.5343 10.915 13.1386 10.9583 13.4838 11.3561C13.8302 11.7544 13.7882 12.3587 13.3895 12.7048L6.73778 18.4898C6.55755 18.6473 6.33402 18.7244 6.11241 18.7244Z" fill="white"></path><path d="M0.956259 23.2072C0.688788 23.2072 0.423227 23.0957 0.234087 22.8783C-0.111715 22.4799 -0.0696844 21.8757 0.328975 21.5296L2.00449 20.0725C2.40188 19.7258 3.0056 19.7685 3.35204 20.1668C3.69784 20.5652 3.65581 21.1695 3.25715 21.5156L1.58163 22.9727C1.40141 23.1301 1.17852 23.2072 0.956259 23.2072Z" fill="white"></path><path d="M14.409 24.175C10.7153 24.175 7.25157 22.1003 5.5837 18.8891C4.26481 16.3484 4.1591 13.3125 5.29394 10.5602C6.42178 7.82389 8.62077 5.75809 11.3261 4.89442C12.2539 4.59803 13.2175 4.44824 14.1905 4.44824C19.6164 4.44824 24.2003 8.96356 24.2003 14.3088C24.2003 18.7884 21.0569 22.8199 16.7264 23.8946C15.9724 24.0807 15.1923 24.175 14.409 24.175ZM14.1899 6.35979C13.4142 6.35979 12.6456 6.47962 11.9062 6.7161C9.73906 7.40831 7.97184 9.0751 7.05925 11.2894C6.14029 13.5197 6.22054 15.9679 7.27896 18.0069C8.62141 20.5922 11.4203 22.2628 14.4083 22.2628C15.0375 22.2628 15.6629 22.187 16.2654 22.0372C19.7559 21.1716 22.2892 17.9209 22.2892 14.3081C22.2892 9.99997 18.5803 6.35979 14.1899 6.35979Z" fill="white"></path><path d="M14.4099 28.6304C9.76286 28.6304 5.22094 26.36 2.46535 22.3247C-1.18882 16.9724 -0.656424 9.54613 3.73074 4.66686C8.37583 -0.498599 16.3076 -1.51206 22.178 2.30913C27.8598 6.00667 30.1722 13.5356 27.5567 19.8216C27.3542 20.3086 26.7976 20.5412 26.3079 20.3366C25.8201 20.1339 25.5902 19.5737 25.7927 19.0867C28.0592 13.6389 26.057 7.1151 21.1361 3.91219C16.128 0.653177 9.10628 1.54744 5.15025 5.94612C1.34388 10.1784 0.878352 16.6129 4.04152 21.2462C7.37154 26.1229 13.7042 28.0319 19.1014 25.7825C19.5886 25.5792 20.1478 25.8106 20.3503 26.2976C20.5528 26.7852 20.3229 27.3448 19.8351 27.5475C18.0799 28.2799 16.2369 28.6304 14.4099 28.6304Z" fill="white"></path></svg>