<svg xmlns="http://www.w3.org/2000/svg" width="23" height="20" viewBox="0 0 23 20" fill="none"><path d="M10.3557 19.9998C10.287 19.9998 10.2191 19.9856 10.1562 19.958C10.0932 19.9305 10.0367 19.8903 9.99009 19.8398L0.132281 9.17651C0.0665667 9.10542 0.023002 9.01671 0.00691907 8.92125C-0.00916382 8.82578 0.00293265 8.7277 0.0417282 8.639C0.0805237 8.55031 0.144335 8.47484 0.225353 8.42185C0.306371 8.36886 0.401081 8.34063 0.497891 8.34063H5.2429C5.31414 8.34064 5.38455 8.35593 5.44938 8.38547C5.51421 8.41501 5.57196 8.45811 5.61871 8.51186L8.91323 12.3021C9.26928 11.541 9.95853 10.2737 11.168 8.72954C12.9561 6.44666 16.282 3.08926 21.9722 0.0584285C22.0822 -0.000138694 22.2101 -0.0153392 22.3308 0.0158286C22.4514 0.0469965 22.556 0.122267 22.6238 0.226777C22.6917 0.331287 22.7179 0.45744 22.6973 0.580325C22.6766 0.703209 22.6107 0.813894 22.5124 0.890522C22.4907 0.907501 20.2968 2.63522 17.7718 5.79984C15.448 8.71206 12.3589 13.474 10.8389 19.6216C10.8122 19.7296 10.7501 19.8256 10.6625 19.8941C10.5749 19.9627 10.4668 20 10.3556 20L10.3557 19.9998Z" fill="#00897B"></path></svg>