<svg width="24" height="24" viewBox="0 0 24 24" fill="none" xmlns="http://www.w3.org/2000/svg">
<path d="M12 6C12 9.31371 9.31371 12 6 12H0V6C0 2.68629 2.68629 0 6 0C9.31371 0 12 2.68629 12 6Z" fill="#00897B"/>
<path d="M12 18C12 14.6863 14.6863 12 18 12H24V18C24 21.3137 21.3137 24 18 24C14.6863 24 12 21.3137 12 18Z" fill="#00897B"/>
<path d="M0 18C0 21.3137 2.68629 24 6 24H12V18C12 14.6863 9.31371 12 6 12C2.68629 12 0 14.6863 0 18Z" fill="#00897B"/>
<path d="M24 6C24 2.68629 21.3137 0 18 0H12V6C12 9.31371 14.6863 12 18 12C21.3137 12 24 9.31371 24 6Z" fill="#00897B"/>
</svg>
