<svg xmlns="http://www.w3.org/2000/svg" width="135" height="30" viewBox="0 0 135 30" fill="none"><g clip-path="url(#clip0_4090_1473)"><path d="M15.576 6.25684L15.8334 6.41143L20.1513 8.90963L20.2538 8.98667H20.28L20.5368 9.14127L15.3192 12.1541L10.2816 15.0124H10.2559L5.26953 12.1284L15.576 6.25684Z" fill="#04B7FF"></path><path d="M0 15.2959L4.85772 18.1285L5.19196 18.3087L15.3185 24.1798V29.9995L10.1266 26.961L5.19196 24.0771L0 21.0381V15.2959Z" fill="#04B7FF"></path><path d="M5.26886 12.1289L10.2553 15.0128H10.2809L15.3185 17.9486L20.0476 20.7041L20.3049 20.8587L20.5618 21.0128L20.6904 21.0904L25.2652 23.7427L25.5225 29.4078L20.6648 26.9872L20.4075 27.1417L15.3442 30H15.3185V24.1803L5.19196 18.3092L4.85772 18.1289L0 15.2963V15.1417L5.19196 12.1803L5.26886 12.1289Z" fill="#4460EF"></path><path d="M15.318 0.591797L15.5748 6.25692L5.26831 12.1285L5.19141 6.38584L10.5115 3.32163L15.318 0.591797Z" fill="#00FAD6"></path><path d="M25.4962 0H25.5223V5.81972L35.6489 11.6913L35.9832 11.8711L40.8409 14.7042L35.6489 17.8197L35.572 17.8716L30.5856 14.9872H30.56L25.5223 12.0514L20.8184 9.29635L20.536 9.14175L20.2791 8.98716H20.253L20.1505 8.91011L15.8325 6.41192L15.5752 6.25732L15.3184 0.592195L20.1761 3.01284L20.4329 2.85825L25.4962 0Z" fill="#4460EF"></path><path d="M30.5599 14.9873H30.5856L35.572 17.8717L25.2649 23.7428L20.6902 21.0905L20.5615 21.013L20.3047 20.8589L25.5223 17.8456L30.5599 14.9873Z" fill="#04B7FF"></path><path d="M25.5234 0L30.7154 3.03852L35.65 5.92295L40.842 8.96148V14.7042L35.9843 11.8711L35.65 11.6913L25.5234 5.81972V0Z" fill="#04B7FF"></path><path d="M20.1504 8.91016L20.2529 8.9872L20.1504 8.93584V8.91016Z" fill="#231F20"></path><path d="M35.5726 17.8721L35.6495 17.9234V23.6142L30.3289 26.6785L25.523 29.4083L25.2656 23.7432L35.5726 17.8721Z" fill="#00FAD6"></path><path d="M20.6914 21.0908L25.035 23.5885L25.2662 23.7431L20.6914 21.0908Z" fill="#231F20"></path><path d="M73.3086 10.0559L68.4936 26.5497H64.0078L61.0067 15.0276L58.0056 26.5497H53.4882L48.6445 10.0559H52.8644L55.7761 22.6199L58.9269 10.0559H63.3233L66.4138 22.5897L69.3254 10.0559H73.3086Z" fill="#696969"></path><path d="M75.8508 7.39138C75.3648 6.92609 75.123 6.34447 75.123 5.65055C75.123 4.95513 75.3648 4.37502 75.8508 3.90871C76.3343 3.44241 76.944 3.20825 77.6768 3.20825C78.4096 3.20825 79.0188 3.44191 79.5053 3.90871C79.9913 4.37502 80.2331 4.95563 80.2331 5.65055C80.2331 6.34447 79.9913 6.92609 79.5053 7.39138C79.0193 7.85769 78.4096 8.09184 77.6768 8.09184C76.944 8.09134 76.3348 7.85769 75.8508 7.39138ZM79.7275 10.0563V26.5501H75.5679V10.0563H79.7275Z" fill="#696969"></path><path d="M92.9223 26.5502L89.5342 21.4295L86.5331 26.5502H82.0759L87.4544 18.2736L82.0156 10.0559H86.712L90.0684 15.1465L93.1012 10.0559H97.5583L92.1508 18.2731L97.6186 26.5497H92.9223V26.5502Z" fill="#696969"></path><path d="M104.037 4.5188V26.5504H99.877V4.5188H104.037Z" fill="#696969"></path><path d="M123.322 19.5545H111.286C111.385 20.7454 111.801 21.678 112.534 22.3528C113.267 23.0276 114.169 23.3645 115.24 23.3645C116.786 23.3645 117.884 22.7008 118.539 21.3704H123.025C122.551 22.9586 121.639 24.2634 120.292 25.2856C118.943 26.3078 117.291 26.818 115.33 26.818C113.744 26.818 112.321 26.4655 111.064 25.7615C109.806 25.0565 108.824 24.0594 108.123 22.7693C107.419 21.4791 107.068 19.9901 107.068 18.3026C107.068 16.5971 107.414 15.0984 108.108 13.8068C108.8 12.5177 109.772 11.5256 111.02 10.8302C112.268 10.1363 113.704 9.78833 115.329 9.78833C116.894 9.78833 118.294 10.1252 119.532 10.8C120.771 11.4748 121.733 12.4331 122.415 13.6733C123.099 14.9136 123.44 16.3372 123.44 17.9461C123.441 18.5418 123.402 19.0771 123.322 19.5545ZM119.131 16.7552C119.112 15.6841 118.725 14.8255 117.973 14.1809C117.221 13.5354 116.299 13.2131 115.209 13.2131C114.178 13.2131 113.313 13.5258 112.609 14.1507C111.905 14.7757 111.475 15.6443 111.318 16.7552H119.131Z" fill="#696969"></path><path d="M131.314 13.4804V21.4605C131.314 22.0154 131.447 22.4177 131.716 22.666C131.982 22.9143 132.434 23.0381 133.068 23.0381H135V26.5515H132.383C128.876 26.5515 127.123 24.8444 127.123 21.4307V13.4804H125.162V10.0567H127.123V5.97778H131.314V10.0567H135V13.4804H131.314Z" fill="#696969"></path></g><defs><clipPath id="clip0_4090_1473"><rect width="135" height="30" fill="white"></rect></clipPath></defs></svg>