<svg xmlns="http://www.w3.org/2000/svg" width="140" height="30" viewBox="0 0 140 30" fill="none"><g clip-path="url(#clip0_4090_1408)"><path fill-rule="evenodd" clip-rule="evenodd" d="M4.36332 17.819C5.06933 12.5698 9.57152 8.52211 15.0215 8.52211C18.6313 8.52211 21.8253 10.2977 23.7763 13.0227C24.2444 12.3691 24.7834 11.7698 25.3836 11.2374C23.8443 7.01125 19.7859 3.99341 15.0215 3.99341C8.93348 3.99341 3.99817 8.92165 3.99817 15.001C3.99817 15.9746 4.12539 16.9191 4.36332 17.819ZM15.0215 12.5155C11.2904 12.5155 8.26631 15.5353 8.26631 19.2611C8.26631 22.9868 11.2904 26.0066 15.0215 26.0066C15.0439 26.0066 15.0662 26.0066 15.0876 26.0066C15.0934 26.0066 15.1002 26.0066 15.106 26.0066H15.1274H15.1361H15.141L15.1672 26.0056H15.1274H15.1264H15.1051C18.7769 25.961 21.7428 22.9907 21.7758 19.3212V19.3125C21.7758 19.295 21.7758 19.2775 21.7758 19.2601C21.7758 19.2426 21.7758 19.2252 21.7758 19.2087V19.2C21.7437 15.5033 18.7322 12.5155 15.0215 12.5155ZM15.0215 30C6.72512 30 0 23.2845 0 15C0 6.71548 6.72512 0 15.0215 0C20.7105 0 25.6613 3.15846 28.2105 7.8142C27.0947 8.7917 26.1381 9.94666 25.3836 11.2374C26.3916 10.3413 27.5696 9.6315 28.8641 9.16311C30.0081 8.74806 31.2434 8.52211 32.5311 8.52211C38.4706 8.52211 43.2855 13.3301 43.2855 19.2611C43.2855 25.192 38.4706 30 32.5311 30H15.0215ZM29.6333 18.2128C30.213 18.2128 30.6831 18.6821 30.6831 19.2611C30.6831 19.84 30.213 20.3093 29.6333 20.3093C29.0535 20.3093 28.5835 19.84 28.5835 19.2611C28.5825 18.6821 29.0525 18.2128 29.6333 18.2128ZM32.5311 18.2128C33.1109 18.2128 33.5809 18.6821 33.5809 19.2611C33.5809 19.84 33.1109 20.3093 32.5311 20.3093C31.9514 20.3093 31.4813 19.84 31.4813 19.2611C31.4813 18.6821 31.9514 18.2128 32.5311 18.2128ZM35.429 18.2128C36.0088 18.2128 36.4788 18.6821 36.4788 19.2611C36.4788 19.84 36.0088 20.3093 35.429 20.3093C34.8492 20.3093 34.3792 19.84 34.3792 19.2611C34.3792 18.6821 34.8492 18.2128 35.429 18.2128ZM32.5311 12.5155C31.6037 12.5155 30.72 12.7017 29.9159 13.0392C27.4074 14.0914 25.7749 16.5429 25.7749 19.2611C25.7749 21.506 25.0835 23.6734 23.7754 25.4994C23.652 25.672 23.5229 25.8408 23.3888 26.0066C21.4174 28.4426 18.4011 30 15.0196 30C18.6701 30 22.0166 28.6996 24.6193 26.538C24.8261 26.3664 25.0281 26.1889 25.2253 26.0066C27.6521 26.0066 30.1052 26.0415 32.5292 26.0066C36.2593 26.0066 39.2844 22.9858 39.2844 19.2611C39.2844 15.5363 36.2613 12.5155 32.5311 12.5155Z" fill="#99CA3C"></path><path d="M137.494 15.8964C137.494 15.3136 137.375 14.8094 137.135 14.3836C136.896 13.9579 136.581 13.635 136.189 13.4129C135.798 13.1918 135.374 13.0813 134.92 13.0813C134.476 13.0813 134.059 13.1947 133.668 13.4226C133.277 13.6495 132.962 13.9793 132.722 14.4108C132.483 14.8423 132.363 15.3495 132.363 15.9323C132.363 16.5151 132.482 17.0223 132.722 17.4538C132.962 17.8854 133.277 18.2151 133.668 18.442C134.06 18.6699 134.477 18.7834 134.92 18.7834C135.375 18.7834 135.799 18.667 136.189 18.4333C136.581 18.2005 136.895 17.8679 137.135 17.4364C137.375 17.0039 137.494 16.4909 137.494 15.8964ZM132.363 12.4858C132.679 12.0427 133.114 11.6722 133.668 11.3755C134.223 11.0787 134.856 10.9294 135.569 10.9294C136.398 10.9294 137.148 11.1331 137.819 11.5413C138.491 11.9496 139.021 12.5295 139.412 13.281C139.804 14.0336 139.999 14.9044 139.999 15.8955C139.999 16.8865 139.804 17.7642 139.412 18.5274C139.021 19.2905 138.49 19.8831 137.819 20.303C137.148 20.7229 136.397 20.9323 135.569 20.9323C134.857 20.9323 134.229 20.7869 133.686 20.495C133.143 20.2031 132.702 19.8365 132.363 19.3933V25.3922H129.911V11.0865H132.363V12.4858ZM125.62 15.8964C125.62 15.3136 125.501 14.8094 125.261 14.3836C125.022 13.9579 124.707 13.635 124.315 13.4129C123.924 13.1918 123.5 13.0813 123.046 13.0813C122.602 13.0813 122.184 13.1947 121.793 13.4226C121.402 13.6495 121.087 13.9793 120.847 14.4108C120.608 14.8423 120.488 15.3495 120.488 15.9323C120.488 16.5151 120.607 17.0223 120.847 17.4538C121.086 17.8854 121.402 18.2151 121.793 18.442C122.184 18.6699 122.602 18.7834 123.046 18.7834C123.501 18.7834 123.925 18.667 124.315 18.4333C124.707 18.2005 125.021 17.8679 125.261 17.4364C125.501 17.0039 125.62 16.4909 125.62 15.8964ZM120.489 12.4858C120.804 12.0427 121.239 11.6722 121.793 11.3755C122.348 11.0787 122.981 10.9294 123.694 10.9294C124.523 10.9294 125.273 11.1331 125.944 11.5413C126.616 11.9496 127.146 12.5295 127.537 13.281C127.929 14.0336 128.124 14.9044 128.124 15.8955C128.124 16.8865 127.929 17.7642 127.537 18.5274C127.146 19.2905 126.615 19.8831 125.944 20.303C125.273 20.7229 124.522 20.9323 123.694 20.9323C122.982 20.9323 122.354 20.7869 121.812 20.495C121.269 20.2031 120.828 19.8365 120.489 19.3933V25.3922H118.037V11.0865H120.489V12.4858ZM112.327 16.4909L110.559 11.3842L108.79 16.4909H112.327ZM112.993 18.4498H108.124L107.319 20.7762H104.745L109.141 8.5516H111.995L116.392 20.7762H113.8L112.993 18.4498ZM101.328 15.9663C101.328 15.2428 101.183 14.6135 100.89 14.0772C100.599 13.5409 100.205 13.1298 99.7085 12.8447C99.2123 12.5586 98.6665 12.416 98.0712 12.416C97.4759 12.416 96.933 12.5557 96.4426 12.8359C95.9521 13.1162 95.5608 13.5235 95.2694 14.0597C94.9771 14.596 94.8315 15.2254 94.8315 15.9488C94.8315 16.6829 94.9771 17.322 95.2694 17.864C95.5618 18.4061 95.9521 18.8202 96.4426 19.1053C96.933 19.3914 97.4759 19.5339 98.0712 19.5339C98.6665 19.5339 99.2123 19.3914 99.7085 19.1053C100.205 18.8192 100.599 18.4061 100.89 17.864C101.183 17.321 101.328 16.6887 101.328 15.9663ZM93.2029 15.9488C93.2029 14.9694 93.401 14.1092 93.7982 13.3693C94.1954 12.6284 94.7411 12.0543 95.4355 11.647C96.1299 11.2388 96.9097 11.0351 97.774 11.0351C98.5208 11.0351 99.2161 11.2077 99.8581 11.551C100.5 11.8953 100.99 12.3472 101.329 12.9067V7.83495H102.94V20.7762H101.329V18.9744C101.015 19.5456 100.548 20.0149 99.929 20.3825C99.3103 20.75 98.5859 20.9333 97.7575 20.9333C96.9058 20.9333 96.1318 20.7238 95.4365 20.3039C94.7421 19.884 94.1963 19.2954 93.7991 18.538C93.401 17.7787 93.2029 16.9166 93.2029 15.9488ZM91.1013 11.1922V20.7762H89.5077V19.3594C89.2037 19.8491 88.7813 20.2312 88.2374 20.5047C87.6946 20.7781 87.0964 20.9158 86.4428 20.9158C85.696 20.9158 85.024 20.7616 84.4286 20.4523C83.8333 20.1429 83.3633 19.6794 83.0186 19.0617C82.6738 18.444 82.5019 17.6914 82.5019 16.8061V11.1922H84.0781V16.5966C84.0781 17.5411 84.317 18.2665 84.7957 18.7737C85.2745 19.2808 85.9291 19.5339 86.7574 19.5339C87.6101 19.5339 88.2811 19.2721 88.7716 18.7465C89.262 18.2219 89.5067 17.4577 89.5067 16.455V11.1912H91.1013V11.1922ZM75.567 19.5339C76.139 19.5339 76.6761 19.4001 77.1781 19.1315C77.6802 18.8639 78.0862 18.4614 78.395 17.9251C78.7048 17.3889 78.8592 16.7362 78.8592 15.9663C78.8592 15.1963 78.7077 14.5436 78.4037 14.0074C78.0997 13.4711 77.7035 13.0716 77.2131 12.8097C76.7227 12.5469 76.1915 12.416 75.6195 12.416C75.0358 12.416 74.5017 12.5469 74.0171 12.8097C73.5325 13.0716 73.144 13.4711 72.8517 14.0074C72.5604 14.5436 72.4137 15.1963 72.4137 15.9663C72.4137 16.7469 72.5565 17.4063 72.843 17.9426C73.1295 18.4789 73.5111 18.8784 73.9899 19.1402C74.4687 19.403 74.995 19.5339 75.567 19.5339ZM75.567 20.9333C74.6678 20.9333 73.8539 20.7296 73.1236 20.3214C72.3943 19.9131 71.8214 19.3332 71.4067 18.5807C70.992 17.8291 70.7852 16.9573 70.7852 15.9663C70.7852 14.9868 70.9988 14.1208 71.4242 13.3693C71.8505 12.6177 72.4312 12.0398 73.1664 11.6373C73.9015 11.2349 74.725 11.0341 75.636 11.0341C76.5469 11.0341 77.3695 11.2349 78.1056 11.6373C78.8417 12.0398 79.4224 12.6139 79.8488 13.3596C80.2751 14.1063 80.4878 14.9742 80.4878 15.9653C80.4878 16.9564 80.2693 17.8282 79.8313 18.5797C79.3933 19.3313 78.8009 19.9121 78.0541 20.3204C77.3063 20.7287 76.477 20.9333 75.567 20.9333ZM68.6661 7.83398V20.7752H67.0725V7.83398H68.6661ZM52.957 14.6716C52.957 13.4827 53.2251 12.4131 53.7631 11.4628C54.3001 10.5124 55.0333 9.76959 55.9608 9.23333C56.8892 8.69706 57.9195 8.42844 59.0519 8.42844C60.3823 8.42844 61.5448 8.74845 62.5373 9.39042C63.5298 10.0314 64.2533 10.941 64.7088 12.1183H62.7995C62.4606 11.3842 61.9731 10.8179 61.337 10.4222C60.7009 10.0256 59.9385 9.82778 59.0509 9.82778C58.1983 9.82778 57.434 10.0256 56.7571 10.4222C56.0802 10.8189 55.549 11.3813 55.1635 12.1096C54.7779 12.8379 54.5856 13.6922 54.5856 14.6716C54.5856 15.6395 54.7779 16.487 55.1635 17.2163C55.549 17.9445 56.0802 18.508 56.7571 18.9036C57.434 19.3002 58.1992 19.4981 59.0509 19.4981C59.9385 19.4981 60.6999 19.3031 61.337 18.9123C61.974 18.5215 62.4606 17.9591 62.7995 17.225H64.7088C64.2533 18.3906 63.5298 19.2915 62.5373 19.9267C61.5448 20.5619 60.3833 20.88 59.0519 20.88C57.9195 20.88 56.8892 20.6152 55.9608 20.0848C55.0323 19.5543 54.3001 18.8163 53.7631 17.8728C53.2251 16.9282 52.957 15.8615 52.957 14.6716Z" fill="#696969"></path></g><defs><clipPath id="clip0_4090_1408"><rect width="140" height="30" fill="white"></rect></clipPath></defs></svg>