<svg xmlns="http://www.w3.org/2000/svg" width="107" height="30" viewBox="0 0 107 30" fill="none"><g clip-path="url(#clip0_4090_1389)"><path d="M19.5869 25.1586H13.8027C15.5271 25.1586 17.091 24.4554 18.2235 23.3309C19.3462 22.1863 20.0482 20.6296 20.0482 18.8926C20.0482 15.4382 17.251 12.6467 13.8027 12.6467C15.5271 12.6467 17.091 11.9436 18.2235 10.819C19.266 9.76459 19.9479 8.31863 20.0379 6.72222C20.2082 3.58923 17.8425 0.918292 14.8251 0.275444C15.3265 0.174999 15.8476 0.125 16.3788 0.125H19.2459C22.8649 0.125 26.0226 3.11737 25.8323 6.72222C25.7521 8.31863 25.0604 9.76503 24.0077 10.819C22.8649 11.9436 21.3108 12.6467 19.5869 12.6467C23.0356 12.6467 25.8323 15.4382 25.8323 18.8926C25.8323 20.6296 25.1304 22.1863 24.0077 23.3309C22.8649 24.4559 21.3112 25.1586 19.5869 25.1586Z" fill="white" fill-opacity="0.2"></path><path d="M16.6297 25.1586H13.8027C15.5271 25.1586 17.091 24.4554 18.2235 23.3309C19.3462 22.1863 20.0482 20.6296 20.0482 18.8926C20.0482 15.4382 17.251 12.6467 13.8027 12.6467C15.5271 12.6467 17.091 11.9436 18.2235 10.819C19.266 9.76459 19.9479 8.31863 20.0379 6.72222C20.2082 3.58923 17.8425 0.918292 14.8251 0.275444C15.3265 0.174999 15.8476 0.125 16.3788 0.125C19.9679 0.175446 23.0655 3.14728 22.8649 6.72222C22.7847 8.31863 22.093 9.76503 21.0603 10.819C19.9176 11.9436 18.3635 12.6467 16.6293 12.6467C20.0878 12.6467 22.885 15.4382 22.885 18.8926C22.885 20.6296 22.183 22.1863 21.0603 23.3309C19.9176 24.4559 18.3639 25.1586 16.6297 25.1586Z" fill="#A6C200"></path><path d="M5.43477 29.9914C4.39008 29.9267 3.36098 29.4941 2.52576 28.8477C0.42434 27.2218 -0.481745 24.2053 0.374868 21.6875C1.23148 19.1697 3.78795 17.3353 6.44336 17.3331C3.31597 17.3318 0.400273 14.7305 0.0383735 11.6189C-0.323525 8.50735 1.91695 5.30428 4.96011 4.58286C6.03155 4.32885 7.16226 4.35027 8.20873 4.00697C9.58235 3.55609 10.6729 2.52664 11.7974 1.61638C13.8133 -0.0157338 15.8394 -0.66617 18.1044 0.873985C19.9892 2.15566 21.2358 4.44402 21.0557 6.74711C20.8066 9.93457 17.8588 12.6734 14.6672 12.6841C17.8191 12.6935 20.7455 15.3416 21.074 18.4813C21.4024 21.621 19.0871 24.8192 16.0061 25.4825C14.985 25.7022 13.9131 25.6741 12.9188 25.9942C10.5236 26.766 9.00785 29.4021 6.54453 29.9151C6.17773 29.9914 5.80514 30.0146 5.43477 29.9914Z" fill="#E6FD5A"></path><path d="M33.3431 18.5158C32.605 18.1779 32.0216 17.719 31.5916 17.1373C31.1624 16.5574 30.9333 15.9074 30.9043 15.1895H33.4403C33.4831 15.6922 33.7228 16.1127 34.1601 16.4489C34.5973 16.7868 35.1446 16.9551 35.8042 16.9551C36.4923 16.9551 37.0258 16.8221 37.4051 16.5574C37.7848 16.2913 37.9743 15.9511 37.9743 15.5342C37.9743 15.0891 37.7634 14.7601 37.3405 14.5445C36.918 14.3288 36.2481 14.0927 35.3318 13.8333C34.4435 13.59 33.7193 13.3534 33.1604 13.124C32.6015 12.8945 32.1179 12.5423 31.7105 12.0695C31.3023 11.595 31.0977 10.9713 31.0977 10.1968C31.0977 9.56418 31.284 8.98651 31.6566 8.46242C32.0292 7.93876 32.5627 7.52716 33.2575 7.22583C33.9519 6.92449 34.751 6.77405 35.6536 6.77405C37 6.77405 38.0852 7.11377 38.9089 7.79546C39.7325 8.47849 40.1733 9.40704 40.2312 10.5843H37.7813C37.7385 10.0535 37.5232 9.62936 37.1368 9.31419C36.7504 8.99901 36.2267 8.83964 35.568 8.83964C34.9235 8.83964 34.4288 8.96241 34.0847 9.20571C33.7411 9.45079 33.5686 9.77311 33.5686 10.1744C33.5686 10.4914 33.6832 10.7561 33.9131 10.9713C34.1413 11.1869 34.4212 11.3548 34.751 11.4775C35.0808 11.5985 35.568 11.7525 36.212 11.94C37.0717 12.1695 37.7773 12.4025 38.329 12.6391C38.8799 12.8757 39.3563 13.2244 39.7579 13.6833C40.1595 14.1422 40.3667 14.7538 40.3814 15.5141C40.3814 16.1886 40.1951 16.7913 39.8225 17.3221C39.4499 17.8529 38.9236 18.2699 38.2435 18.5712C37.5624 18.8725 36.7638 19.023 35.8465 19.023C34.9155 19.0221 34.0812 18.8524 33.3431 18.5158Z" fill="black"></path><path d="M45.1319 18.2561C44.2285 17.748 43.5194 17.0297 43.0042 16.1048C42.4881 15.178 42.2305 14.1061 42.2305 12.8869C42.2305 11.6798 42.4952 10.6115 43.0251 9.6794C43.5551 8.74593 44.2789 8.02943 45.1956 7.52631C46.1129 7.02364 47.1371 6.77319 48.2691 6.77319C49.4007 6.77319 50.4245 7.02364 51.3417 7.52631C52.258 8.02898 52.9823 8.74549 53.5122 9.6794C54.0421 10.6115 54.3077 11.6798 54.3077 12.8869C54.3077 14.0923 54.035 15.1606 53.4912 16.0927C52.9466 17.0262 52.205 17.748 51.2668 18.2561C50.3286 18.7659 49.2933 19.0217 48.1617 19.0217C47.0444 19.0217 46.0344 18.7659 45.1319 18.2561ZM49.9342 16.4378C50.486 16.1364 50.9339 15.6847 51.2775 15.082C51.622 14.4793 51.7936 13.7472 51.7936 12.8869C51.7936 12.0249 51.6292 11.2963 51.2993 10.7008C50.9695 10.1053 50.5323 9.65663 49.9886 9.3553C49.4439 9.05396 48.8561 8.90352 48.2268 8.90352C47.5952 8.90352 47.0123 9.05396 46.4752 9.3553C45.9373 9.65663 45.5116 10.1048 45.1961 10.7008C44.8814 11.2963 44.7241 12.0253 44.7241 12.8869C44.7241 14.1642 45.0495 15.1503 45.7015 15.8458C46.3531 16.5431 47.1732 16.89 48.1621 16.89C48.7923 16.89 49.3824 16.7391 49.9342 16.4378Z" fill="black"></path><path d="M61.6987 8.96907H59.5072V18.8279H57.035V8.96907H55.6387V6.96687H57.035V6.1276C57.035 4.76467 57.3969 3.77138 58.1203 3.14595C58.8436 2.5223 59.9792 2.21069 61.5271 2.21069V4.25486C60.7819 4.25486 60.2591 4.39504 59.9583 4.67539C59.6574 4.95396 59.5072 5.43922 59.5072 6.1276V6.96687H61.6987V8.96907Z" fill="black"></path><path d="M66.7279 8.96913V15.5347C66.7279 15.9797 66.8313 16.2985 67.039 16.4927C67.2463 16.6855 67.6015 16.7833 68.1033 16.7833H69.6075V18.8275H67.6733C66.5697 18.8275 65.7252 18.5699 65.1373 18.0534C64.5499 17.5364 64.2566 16.6958 64.2566 15.5342V8.96913H62.8594V6.96693H64.2566V4.01831H66.7279V6.96648H69.6075V8.96868H66.7279V8.96913Z" fill="black"></path><path d="M76.022 7.32232C76.7454 6.95625 77.5507 6.77411 78.439 6.77411C79.485 6.77411 80.4308 7.02455 81.2758 7.52723C82.1212 8.0299 82.7876 8.74283 83.2747 9.66782C83.7618 10.5946 84.0056 11.6526 84.0056 12.8437C84.0056 14.0347 83.7618 15.0999 83.2747 16.0405C82.7876 16.9793 82.1177 17.7114 81.2651 18.2355C80.4125 18.7592 79.4707 19.0221 78.439 19.0221C77.5226 19.0221 76.7093 18.8418 76.0002 18.4824C75.2911 18.1253 74.7286 17.6646 74.3132 17.1057V18.8275H71.8633V2.89917H74.3132V8.73256C74.7286 8.15802 75.2978 7.68838 76.022 7.32232ZM81.007 10.7241C80.6705 10.1285 80.2262 9.6763 79.6753 9.36648C79.1235 9.05801 78.5326 8.90399 77.9019 8.90399C77.2855 8.90399 76.7021 9.06158 76.1504 9.37854C75.5986 9.69371 75.1542 10.1526 74.8178 10.7553C74.4813 11.358 74.3132 12.0691 74.3132 12.887C74.3132 13.7035 74.4813 14.4182 74.8178 15.0276C75.1542 15.6374 75.5986 16.1012 76.1504 16.4168C76.7021 16.732 77.2855 16.8896 77.9019 16.8896C78.5326 16.8896 79.1235 16.7284 79.6753 16.4061C80.2262 16.082 80.6705 15.6124 81.007 14.9959C81.3435 14.3794 81.5124 13.6611 81.5124 12.8428C81.5124 12.0258 81.344 11.32 81.007 10.7241Z" fill="black"></path><path d="M86.3588 9.68025C86.8531 8.76062 87.5261 8.04769 88.3787 7.53788C89.2313 7.02806 90.173 6.77405 91.2048 6.77405C92.1363 6.77405 92.9492 6.95619 93.6436 7.32225C94.3389 7.68832 94.8942 8.14367 95.3096 8.68875V6.9669H97.7809V18.8279H95.3096V17.0623C94.8942 17.623 94.3286 18.0886 93.6124 18.4618C92.8953 18.835 92.0788 19.0225 91.1624 19.0225C90.1445 19.0225 89.2143 18.7596 88.3684 18.2359C87.523 17.7123 86.8531 16.9801 86.3588 16.0409C85.8645 15.1003 85.6172 14.0351 85.6172 12.844C85.6172 11.6525 85.8645 10.5981 86.3588 9.68025ZM94.8046 10.7557C94.4672 10.153 94.0273 9.69409 93.4823 9.37892C92.9376 9.06196 92.3506 8.90437 91.7204 8.90437C91.0898 8.90437 90.5024 9.05839 89.9586 9.36687C89.414 9.67713 88.9732 10.1289 88.6363 10.7244C88.2998 11.32 88.1318 12.0262 88.1318 12.844C88.1318 13.6619 88.2998 14.3802 88.6363 14.9971C88.9728 15.6136 89.4171 16.0833 89.9689 16.4074C90.5198 16.7297 91.1041 16.8909 91.7204 16.8909C92.3511 16.8909 92.9376 16.7333 93.4823 16.4181C94.0269 16.1029 94.4668 15.6386 94.8046 15.0288C95.1402 14.419 95.3091 13.7043 95.3091 12.8882C95.3091 12.0695 95.1407 11.3584 94.8046 10.7557Z" fill="black"></path><path d="M104.883 7.27863C105.477 6.94247 106.183 6.77417 107 6.77417V9.31431H106.376C105.416 9.31431 104.689 9.55761 104.195 10.0447C103.701 10.5335 103.454 11.3795 103.454 12.5848V18.828H101.004V6.96658H103.454V8.68843C103.812 8.0862 104.288 7.61657 104.883 7.27863Z" fill="black"></path></g><defs><clipPath id="clip0_4090_1389"><rect width="107" height="30" fill="white"></rect></clipPath></defs></svg>