<svg xmlns="http://www.w3.org/2000/svg" width="116" height="30" viewBox="0 0 116 30" fill="none"><g clip-path="url(#clip0_4090_1421)"><mask id="mask0_4090_1421" style="mask-type:luminance" maskUnits="userSpaceOnUse" x="2" y="4" width="14" height="8"><path d="M2.40039 4.3291L6.82436 11.6516H15.6061L11.1135 4.3291H2.40039Z" fill="white"></path></mask><g mask="url(#mask0_4090_1421)"><path d="M18.0062 5.22602L13.9893 15.9808L0 10.7561L4.01693 0L18.0062 5.22602Z" fill="url(#paint0_linear_4090_1421)"></path></g><mask id="mask1_4090_1421" style="mask-type:luminance" maskUnits="userSpaceOnUse" x="2" y="11" width="14" height="8"><path d="M6.82436 11.6523L2.40039 18.9749H11.1135L15.6061 11.6523H6.82436Z" fill="white"></path></mask><g mask="url(#mask1_4090_1421)"><path d="M18.0062 12.5493L13.9893 23.3041L0 18.0781L4.01693 7.32324L18.0062 12.5493Z" fill="url(#paint1_linear_4090_1421)"></path></g><mask id="mask2_4090_1421" style="mask-type:luminance" maskUnits="userSpaceOnUse" x="15" y="11" width="14" height="8"><path d="M15.6055 11.6523L20.0994 18.9749H28.8112L24.3873 11.6523H15.6055Z" fill="white"></path></mask><g mask="url(#mask2_4090_1421)"><path d="M31.2113 12.5493L27.1944 23.3041L13.2051 18.0781L17.222 7.32324L31.2113 12.5493Z" fill="url(#paint2_linear_4090_1421)"></path></g><mask id="mask3_4090_1421" style="mask-type:luminance" maskUnits="userSpaceOnUse" x="15" y="4" width="14" height="8"><path d="M20.0994 4.3291L15.6055 11.6516H24.3873L28.8112 4.3291H20.0994Z" fill="white"></path></mask><g mask="url(#mask3_4090_1421)"><path d="M31.2113 5.22602L27.1944 15.9808L13.2051 10.7561L17.222 0L31.2113 5.22602Z" fill="url(#paint3_linear_4090_1421)"></path></g><mask id="mask4_4090_1421" style="mask-type:luminance" maskUnits="userSpaceOnUse" x="9" y="19" width="13" height="8"><path d="M15.6066 26.0286L21.6638 19.9706L9.54688 19.9668L15.6066 26.0286Z" fill="white"></path></mask><g mask="url(#mask4_4090_1421)"><path d="M23.6512 20.7097L20.1812 30.0003L7.56055 25.2857L11.0305 15.9951L23.6512 20.7097Z" fill="#B7A2FC"></path></g><mask id="mask5_4090_1421" style="mask-type:luminance" maskUnits="userSpaceOnUse" x="29" y="4" width="19" height="17"><path d="M34.8697 4.99092C33.7796 5.43236 32.8358 6.04554 32.0396 6.83046C31.3234 7.53396 30.7816 8.34305 30.4127 9.259C30.0438 10.1762 29.8594 11.1711 29.8594 12.2473C29.8594 14.4532 30.5806 16.2724 32.023 17.7049C32.8193 18.4898 33.7593 19.1004 34.8443 19.5342C35.9293 19.968 37.1059 20.1856 38.3753 20.1856C39.7134 20.1856 40.9422 19.968 42.0628 19.5342C43.1821 19.1004 44.14 18.4974 44.9362 17.7252C46.4359 16.2648 47.1864 14.3896 47.1864 12.1023V11.2334H37.7355V14.1275H43.8105C43.6032 14.5817 43.3233 15.0028 42.971 15.3883C42.6187 15.7737 42.2091 16.1083 41.7423 16.3907C41.2754 16.6731 40.7552 16.8907 40.1841 17.0421C39.613 17.1934 39.01 17.2698 38.3753 17.2698C37.6477 17.2698 36.971 17.1591 36.3414 16.939C35.7118 16.7189 35.161 16.4225 34.6878 16.0498C33.4642 15.0855 32.8536 13.8171 32.8536 12.246C32.8536 11.5298 32.9859 10.8683 33.2518 10.2615C33.5176 9.65465 33.8928 9.12797 34.3775 8.68017C34.8621 8.23237 35.4421 7.88126 36.1163 7.62556C36.7917 7.37112 37.5383 7.24264 38.3575 7.24264C39.211 7.24264 39.9869 7.40802 40.6852 7.73878C41.3836 8.06954 41.9916 8.55932 42.5118 9.20685L45.6791 7.8838C44.9057 6.71215 43.9072 5.82673 42.6848 5.22754C41.4612 4.62835 40.0251 4.32812 38.3753 4.32812C37.1288 4.3294 35.9598 4.55075 34.8697 4.99092Z" fill="white"></path></mask><g mask="url(#mask5_4090_1421)"><path d="M47.1851 4.3291H29.8594V20.1865H47.1851V4.3291Z" fill="#696969"></path></g><mask id="mask6_4090_1421" style="mask-type:luminance" maskUnits="userSpaceOnUse" x="50" y="4" width="15" height="16"><path d="M50.2305 4.78516V19.7534H64.3024V16.8999H53.2769V13.5923H60.5984V10.7388H53.2769V7.63733H63.8178V4.78516H50.2305Z" fill="white"></path></mask><g mask="url(#mask6_4090_1421)"><path d="M64.3024 4.78516H50.2305V19.7534H64.3024V4.78516Z" fill="#696969"></path></g><mask id="mask7_4090_1421" style="mask-type:luminance" maskUnits="userSpaceOnUse" x="64" y="4" width="19" height="16"><path d="M79.118 4.78516L73.7006 15.7422L68.2832 4.78516H64.873L72.2811 19.7534H75.1189L82.5269 4.78516H79.118Z" fill="white"></path></mask><g mask="url(#mask7_4090_1421)"><path d="M82.5269 4.78516H64.873V19.7534H82.5269V4.78516Z" fill="#696969"></path></g><mask id="mask8_4090_1421" style="mask-type:luminance" maskUnits="userSpaceOnUse" x="81" y="4" width="18" height="16"><path d="M89.5882 7.53429L92.3408 13.675H86.8369L89.5882 7.53429ZM87.7362 4.78516L81.0723 19.7534H84.153L85.5891 16.5284H93.6204L95.0577 19.7534H98.1385L91.4911 4.78516H87.7362Z" fill="white"></path></mask><g mask="url(#mask8_4090_1421)"><path d="M98.1385 4.78516H81.0723V19.7534H98.1385V4.78516Z" fill="#696969"></path></g><mask id="mask9_4090_1421" style="mask-type:luminance" maskUnits="userSpaceOnUse" x="100" y="4" width="17" height="16"><path d="M103.054 7.63733H108.61C109.222 7.63733 109.784 7.75564 110.298 7.98972C110.811 8.22507 111.252 8.55456 111.622 8.97691C111.991 9.39927 112.28 9.9005 112.487 10.4819C112.695 11.0632 112.799 11.693 112.799 12.3723C112.799 13.3137 112.539 14.1788 112.02 14.9688C111.627 15.5641 111.129 16.0348 110.523 16.3809C109.918 16.7269 109.286 16.8999 108.628 16.8999H103.054V7.63733ZM100.008 4.78516V19.7534H108.835C109.793 19.7534 110.696 19.588 111.543 19.2572C112.392 18.9264 113.133 18.4583 113.767 17.8515C115.255 16.4457 116 14.6406 116 12.4346C116 11.291 115.825 10.2465 115.473 9.30258C115.12 8.35864 114.615 7.5521 113.958 6.88421C113.3 6.21633 112.504 5.69856 111.569 5.33346C110.634 4.96835 109.585 4.78516 108.419 4.78516H100.008Z" fill="white"></path></mask><g mask="url(#mask9_4090_1421)"><path d="M116 4.78516H100.008V19.7534H116V4.78516Z" fill="#696969"></path></g></g><defs><linearGradient id="paint0_linear_4090_1421" x1="18.0062" y1="7.99042" x2="0" y2="7.99042" gradientUnits="userSpaceOnUse"><stop stop-color="#B7A2FC"></stop><stop offset="1" stop-color="#6D5CD8"></stop></linearGradient><linearGradient id="paint1_linear_4090_1421" x1="18.0062" y1="15.3137" x2="0" y2="15.3137" gradientUnits="userSpaceOnUse"><stop stop-color="#B7A2FC"></stop><stop offset="1" stop-color="#6D5CD8"></stop></linearGradient><linearGradient id="paint2_linear_4090_1421" x1="31.2113" y1="15.3137" x2="13.2051" y2="15.3137" gradientUnits="userSpaceOnUse"><stop stop-color="#B7A2FC"></stop><stop offset="1" stop-color="#6D5CD8"></stop></linearGradient><linearGradient id="paint3_linear_4090_1421" x1="31.2113" y1="7.99042" x2="13.2051" y2="7.99042" gradientUnits="userSpaceOnUse"><stop stop-color="#B7A2FC"></stop><stop offset="1" stop-color="#6D5CD8"></stop></linearGradient><clipPath id="clip0_4090_1421"><rect width="116" height="30" fill="white"></rect></clipPath></defs></svg>