<svg xmlns="http://www.w3.org/2000/svg" width="97" height="30" viewBox="0 0 97 30" fill="none"><path fill-rule="evenodd" clip-rule="evenodd" d="M15.4244 8.04367H16.7995C17.0093 8.04367 17.1817 8.21568 17.1817 8.42664V9.80421C17.1817 10.0145 17.01 10.1872 16.7995 10.1872H15.4244C15.2145 10.1872 15.0421 10.0152 15.0421 9.80421V8.42664C15.0428 8.21639 15.2145 8.04367 15.4244 8.04367ZM18.7667 8.34665H19.4416C19.5447 8.34665 19.6288 8.43089 19.6288 8.53424V9.21028C19.6288 9.31363 19.5447 9.39787 19.4416 9.39787H18.7667C18.6635 9.39787 18.5795 9.31363 18.5795 9.21028V8.53424C18.5795 8.43089 18.6635 8.34665 18.7667 8.34665ZM0 14.5252V8.40045C0 7.7421 0.325757 7.17649 0.895302 6.84732L6.60064 3.5471L12.306 0.246879C12.8755 -0.0822931 13.527 -0.0822931 14.0959 0.246879L19.8012 3.5471L25.4592 6.81971L16.3628 12.0808C16.2243 11.7304 15.8822 11.4812 15.4844 11.4812H12.0869C11.5676 11.4812 11.1429 11.9067 11.1429 12.427V15.1L7.78213 17.0439C7.23591 17.3596 6.65152 17.5182 6.06784 17.5182C5.48487 17.5182 4.89978 17.3603 4.35356 17.0439L0 14.5252Z" fill="#08E3D4"></path><path fill-rule="evenodd" clip-rule="evenodd" d="M18.1703 13.2972H19.7836C20.0302 13.2972 20.2316 13.499 20.2316 13.746V15.3622C20.2316 15.6092 20.0302 15.811 19.7836 15.811H18.1703C17.9237 15.811 17.7223 15.6085 17.7223 15.3622V13.746C17.7216 13.499 17.9237 13.2972 18.1703 13.2972ZM8.34249 18.0111L11.2771 16.3136C11.4425 16.5904 11.7442 16.7765 12.0876 16.7765H15.4851C16.0045 16.7765 16.4292 16.3511 16.4292 15.8308V13.334L22.8355 9.62889L26.2471 7.65527C26.3489 7.8818 26.4019 8.1331 26.4019 8.39998V14.9997V15.4627L23.8502 16.9386L9.35721 25.3216C7.91145 26.1576 6.25581 26.1576 4.81004 25.3216L0.457191 22.8036C0.162525 22.4822 0 22.0638 0 21.6002V15.8159L3.79532 18.0111C5.24109 18.8478 6.89672 18.8478 8.34249 18.0111Z" fill="#0FC6DA"></path><path fill-rule="evenodd" clip-rule="evenodd" d="M9.35705 25.3218L23.8501 16.9389L26.4017 15.4629V21.5997C26.4017 22.258 26.076 22.8236 25.5064 23.1528L19.8011 26.453L14.0957 29.7532C13.5262 30.0824 12.8747 30.0824 12.3058 29.7532L6.60049 26.453L0.895143 23.1528C0.726964 23.0558 0.580692 22.9383 0.457031 22.8031L4.81059 25.3211C6.25636 26.1585 7.91129 26.1585 9.35705 25.3218Z" fill="#17A9DE"></path><path d="M94.407 17.7454C94.407 18.0158 94.3522 18.2621 94.2419 18.4837C94.1324 18.7053 93.9776 18.895 93.7791 19.0514C93.5805 19.2086 93.3477 19.3296 93.0807 19.4167C92.8137 19.5031 92.5234 19.5463 92.2098 19.5463C91.7599 19.5463 91.3806 19.438 91.0718 19.222C90.763 19.0054 90.609 18.6918 90.609 18.2812V18.2487C90.609 17.8055 90.776 17.4643 91.1109 17.2265C91.4457 16.9886 91.9113 16.8697 92.5076 16.8697C92.8739 16.8697 93.2218 16.9023 93.5511 16.9674C93.8804 17.0325 94.1659 17.1132 94.4063 17.2109V17.7454H94.407ZM96.2433 20.8445V15.7661C96.2433 14.6193 95.9454 13.7295 95.3491 13.0973C94.7527 12.4645 93.8373 12.148 92.6028 12.148C91.9229 12.148 91.3423 12.2131 90.8609 12.3427C90.3796 12.4722 89.9092 12.6457 89.4484 12.8623L89.9661 14.4359C90.3426 14.2738 90.7144 14.1436 91.08 14.0466C91.4463 13.9489 91.8647 13.9008 92.3358 13.9008C92.9951 13.9008 93.4997 14.0572 93.8503 14.3715C94.2009 14.6851 94.3761 15.1396 94.3761 15.7342V15.9452C94.0516 15.8369 93.7147 15.7505 93.3642 15.6854C93.0136 15.6203 92.587 15.5877 92.0852 15.5877C91.6038 15.5877 91.1567 15.6443 90.7432 15.7583C90.3296 15.8716 89.9743 16.0422 89.6764 16.2694C89.3779 16.4966 89.1458 16.7833 88.978 17.1295C88.811 17.4757 88.7268 17.8813 88.7268 18.3464V18.3789C88.7268 18.8115 88.8082 19.193 88.9698 19.5229C89.1321 19.8528 89.3464 20.1289 89.6134 20.3504C89.8805 20.572 90.1913 20.7398 90.5474 20.8537C90.9034 20.967 91.28 21.0244 91.6771 21.0244C92.305 21.0244 92.8383 20.9054 93.2779 20.6676C93.7175 20.4297 94.0783 20.1374 94.3611 19.7912V20.846H96.2433V20.8445ZM85.1636 13.9489H87.3916V12.2776H85.1636V9.92522H83.2492V12.2776H82.1976V13.9489H83.2492V18.4703C83.2492 18.946 83.3068 19.3466 83.4245 19.6659C83.5396 19.9852 83.7046 20.2421 83.9216 20.4389C84.1387 20.6336 84.3947 20.7745 84.6905 20.8608C84.9836 20.9472 85.3054 20.9904 85.6505 20.9904C86.0065 20.9904 86.3201 20.9529 86.5919 20.8771C86.8637 20.8014 87.1205 20.6931 87.3608 20.5529V18.9467C86.9842 19.1413 86.5919 19.239 86.1838 19.239C85.8593 19.239 85.6087 19.1555 85.4307 18.9877C85.2526 18.82 85.1636 18.5439 85.1636 18.1659V13.9489ZM78.8392 17.7454C78.8392 18.0158 78.7844 18.2621 78.6742 18.4837C78.5646 18.7053 78.4099 18.895 78.2113 19.0514C78.0127 19.2086 77.78 19.3296 77.5129 19.4167C77.2459 19.5031 76.9556 19.5463 76.642 19.5463C76.1922 19.5463 75.8128 19.438 75.504 19.222C75.1952 19.0054 75.0412 18.6918 75.0412 18.2812V18.2487C75.0412 17.8055 75.2083 17.4643 75.5431 17.2265C75.8779 16.9886 76.3435 16.8697 76.9398 16.8697C77.3061 16.8697 77.654 16.9023 77.9833 16.9674C78.3126 17.0325 78.5982 17.1132 78.8385 17.2109V17.7454H78.8392ZM80.6755 20.8445V15.7661C80.6755 14.6193 80.3777 13.7295 79.7813 13.0973C79.1849 12.4645 78.2695 12.148 77.035 12.148C76.3551 12.148 75.7745 12.2131 75.2932 12.3427C74.8118 12.4722 74.3414 12.6457 73.8806 12.8623L74.3983 14.4359C74.7748 14.2738 75.1466 14.1436 75.5123 14.0466C75.8786 13.9489 76.2969 13.9008 76.768 13.9008C77.4273 13.9008 77.932 14.0572 78.2825 14.3715C78.6331 14.6851 78.8083 15.1396 78.8083 15.7342V15.9452C78.4838 15.8369 78.1469 15.7505 77.7964 15.6854C77.4458 15.6203 77.0193 15.5877 76.5174 15.5877C76.036 15.5877 75.5889 15.6443 75.1754 15.7583C74.7618 15.8716 74.4065 16.0422 74.1086 16.2694C73.8101 16.4966 73.578 16.7833 73.4103 17.1295C73.2432 17.4757 73.159 17.8813 73.159 18.3464V18.3789C73.159 18.8115 73.2405 19.193 73.402 19.5229C73.5643 19.8528 73.7786 20.1289 74.0457 20.3504C74.3127 20.572 74.6235 20.7398 74.9796 20.8537C75.3356 20.967 75.7122 21.0244 76.1093 21.0244C76.7372 21.0244 77.2705 20.9054 77.7101 20.6676C78.1497 20.4297 78.5105 20.1374 78.7933 19.7912V20.846H80.6755V20.8445ZM69.4706 16.5611C69.4706 16.983 69.4055 17.3617 69.274 17.6965C69.1433 18.0321 68.9707 18.3209 68.751 18.5644C68.5312 18.8079 68.2778 18.9941 67.9848 19.1244C67.6917 19.2539 67.3912 19.319 67.0769 19.319C66.7523 19.319 66.449 19.2539 66.1615 19.1244C65.8766 18.9948 65.6226 18.8108 65.4028 18.5729C65.183 18.335 65.0132 18.0455 64.8872 17.705C64.762 17.3645 64.699 16.983 64.699 16.5611C64.699 16.1285 64.762 15.742 64.8872 15.4008C65.0125 15.0603 65.183 14.7708 65.4028 14.5329C65.6226 14.2951 65.8759 14.1139 66.1615 13.9893C66.449 13.8647 66.7523 13.8024 67.0769 13.8024C67.3905 13.8024 67.6917 13.8675 67.9848 13.997C68.2778 14.1266 68.5312 14.3135 68.751 14.557C68.9707 14.8005 69.1433 15.09 69.274 15.4249C69.4055 15.7604 69.4706 16.1391 69.4706 16.5611ZM71.3541 20.8445V9H69.4397V13.6077C69.1364 13.2077 68.7626 12.8559 68.3127 12.5529C67.8629 12.25 67.3008 12.0985 66.6229 12.0985C66.1313 12.0985 65.6527 12.1954 65.1899 12.3908C64.7243 12.5855 64.3162 12.875 63.9609 13.2587C63.6048 13.6424 63.3227 14.1103 63.1084 14.6625C62.8941 15.2139 62.7866 15.8468 62.7866 16.5611C62.7866 17.2753 62.8962 17.9075 63.116 18.4596C63.3357 19.0111 63.6206 19.479 63.9766 19.8634C64.3326 20.2471 64.738 20.5366 65.1981 20.7313C65.6555 20.926 66.132 21.0236 66.6236 21.0236C67.2905 21.0236 67.8499 20.8672 68.3052 20.5529C68.7605 20.2393 69.1371 19.8606 69.4404 19.4174V20.8453H71.3541V20.8445ZM58.9565 16.4471L61.891 12.2776H59.8664L57.952 15.1007L56.0376 12.2776H53.9665L56.901 16.4959L53.8562 20.8438H55.8808L57.9055 17.8424L59.9458 20.8438H62.0177L58.9565 16.4471ZM46.9984 15.9608C47.0819 15.2904 47.3147 14.7467 47.6967 14.3298C48.0788 13.9135 48.5622 13.7054 49.1483 13.7054C49.4626 13.7054 49.7419 13.7649 49.9877 13.8838C50.2335 14.0027 50.4451 14.1627 50.6231 14.3623C50.8011 14.5627 50.9422 14.8005 51.0469 15.0759C51.1517 15.352 51.2195 15.6465 51.251 15.9601H46.9984V15.9608ZM47.0141 17.259H53.1031C53.1133 17.1614 53.1215 17.07 53.1263 16.983C53.1318 16.8966 53.1339 16.8095 53.1339 16.7232C53.1339 16.1066 53.0503 15.5169 52.8826 14.9548C52.7148 14.3921 52.4663 13.9001 52.137 13.4782C51.8076 13.0563 51.3941 12.7214 50.897 12.4722C50.3999 12.2238 49.822 12.0992 49.1627 12.0992C48.5663 12.0992 48.022 12.2181 47.5304 12.456C47.0388 12.6938 46.6122 13.0159 46.2514 13.4215C45.8905 13.8272 45.6105 14.3007 45.4119 14.8409C45.2134 15.3817 45.1141 15.9608 45.1141 16.5766C45.1141 17.247 45.2236 17.8558 45.4434 18.4023C45.6632 18.9488 45.9638 19.416 46.3459 19.8061C46.7279 20.1954 47.1778 20.4984 47.6954 20.715C48.213 20.9316 48.7703 21.0392 49.3667 21.0392C50.1301 21.0392 50.7867 20.8934 51.3359 20.601C51.885 20.3087 52.3588 19.9193 52.7559 19.433L51.6419 18.4108C51.3071 18.7463 50.9668 19.0005 50.6217 19.1732C50.2767 19.3459 49.8686 19.433 49.3975 19.433C48.7799 19.433 48.2575 19.2468 47.8282 18.873C47.401 18.5 47.1291 17.962 47.0141 17.259ZM41.0505 16.0577V20.8438H42.9649V9.48703H41.0505V14.2087H35.7777V9.48703H33.8633V20.8445H35.7777V16.0584H41.0505V16.0577Z" fill="#696969"></path></svg>