<svg xmlns="http://www.w3.org/2000/svg" width="121" height="30" viewBox="0 0 121 30" fill="none"><g clip-path="url(#clip0_4090_1411)"><path fill-rule="evenodd" clip-rule="evenodd" d="M3.35826 17.3787L10.2263 5.49007C9.66905 4.90882 9.32687 4.11755 9.32687 3.24813C9.32687 1.45555 10.7836 0 12.5776 0C14.3716 0 15.8283 1.45555 15.8283 3.24813C15.8283 4.11755 15.4861 4.90882 14.9289 5.49007L21.8018 17.3787C21.836 17.3787 21.8751 17.3787 21.9093 17.3787C23.7034 17.3787 25.1601 18.8343 25.1601 20.6268C25.1601 22.4194 23.7034 23.875 21.9093 23.875C20.1153 23.875 18.6586 22.4194 18.6586 20.6268C18.6586 19.9967 18.8395 19.4057 19.1523 18.9075L12.5776 7.52686L6.00772 18.9026C6.32057 19.4008 6.50143 19.987 6.50143 20.6219C6.50143 22.4145 5.04472 23.8701 3.25072 23.8701C1.45671 23.8701 0 22.4145 0 20.6219C0 18.8294 1.45671 17.3738 3.25072 17.3738C3.28494 17.3738 3.32404 17.3738 3.35826 17.3787ZM21.8018 12.6262C21.836 12.6262 21.8751 12.6262 21.9093 12.6262C23.7034 12.6262 25.1601 11.1706 25.1601 9.37805C25.1601 7.58548 23.7034 6.12993 21.9093 6.12993C20.1153 6.12993 18.6586 7.58548 18.6586 9.37805C18.6586 10.0081 18.8395 10.5992 19.1523 11.0974L19.1035 11.1853L20.8681 14.238L21.8018 12.6262ZM18.2236 18.8147L16.4589 15.762L12.5825 22.4731L8.70117 15.762L6.93649 18.8147L10.2312 24.5148C9.67394 25.0961 9.33176 25.8873 9.33176 26.7568C9.33176 28.5493 10.7885 30.0049 12.5825 30.0049C14.3765 30.0049 15.8332 28.5493 15.8332 26.7568C15.8332 25.8873 15.491 25.0961 14.9337 24.5148L18.2236 18.8147ZM4.29192 14.2429L6.0566 11.1902L6.00772 11.1022C6.32057 10.604 6.50143 10.0179 6.50143 9.38294C6.50143 7.59036 5.04472 6.13481 3.25072 6.13481C1.45671 6.13481 0 7.58548 0 9.38294C0 11.1755 1.45671 12.6311 3.25072 12.6311C3.28982 12.6311 3.32404 12.6311 3.35826 12.6311L4.29192 14.2429Z" fill="url(#paint0_linear_4090_1411)"></path><path fill-rule="evenodd" clip-rule="evenodd" d="M42.6309 21.379L41.6826 19.0834H35.3962L34.4479 21.379H31.2559L36.9801 8.62585H40.1721L45.8621 21.379H42.6309ZM38.5688 11.4832L36.4717 16.5093H40.6267L38.5688 11.4832Z" fill="#696969"></path><path fill-rule="evenodd" clip-rule="evenodd" d="M54.3339 8.62598H57.6384L52.3835 21.3792H49.2305L43.9805 8.62598H47.2801L48.9959 12.9633L50.7996 17.9161L52.6425 12.9633L54.3339 8.62598Z" fill="#696969"></path><path fill-rule="evenodd" clip-rule="evenodd" d="M61.514 18.8637H68.5531V21.3792H58.6152V8.62598H68.3527V11.1219H61.514V13.7058H67.9861V16.1138H61.514V18.8637Z" fill="#696969"></path><path fill-rule="evenodd" clip-rule="evenodd" d="M75.1674 17.1687H73.4369V21.379H70.4453V8.62585H76.6632C77.5871 8.62585 78.3937 8.80658 79.0878 9.16314C79.782 9.5197 80.3148 10.0277 80.6912 10.6822C81.0676 11.3367 81.2582 12.0889 81.2582 12.9388C81.2582 13.9108 81.004 14.7411 80.5005 15.4347C79.997 16.1283 79.2834 16.6167 78.3595 16.9098L81.9719 21.3741H78.4181L75.1674 17.1687ZM78.3057 12.9779C78.3057 12.4064 78.1346 11.9619 77.7875 11.6493C77.4405 11.3318 76.9516 11.1755 76.321 11.1755H73.4223V14.7655H76.321C76.9663 14.7655 77.4551 14.6092 77.7973 14.3015C78.1346 13.9889 78.3057 13.5493 78.3057 12.9779Z" fill="#696969"></path><path fill-rule="evenodd" clip-rule="evenodd" d="M88.058 17.1688H86.3276V21.3792H83.3359V8.62598H89.5539C90.4777 8.62598 91.2843 8.8067 91.9784 9.16326C92.6726 9.51982 93.2054 10.0278 93.5818 10.6823C93.9582 11.3368 94.1489 12.089 94.1489 12.9389C94.1489 13.9109 93.8947 14.7412 93.3912 15.4348C92.8877 16.1284 92.174 16.6169 91.2501 16.9099L94.8625 21.3743H91.3087L88.058 17.1688ZM91.1914 12.978C91.1914 12.4065 91.0203 11.962 90.6733 11.6494C90.3262 11.3319 89.8374 11.1756 89.2068 11.1756H86.308V14.7657H89.2068C89.852 14.7657 90.3409 14.6094 90.683 14.3017C91.0252 13.9891 91.1914 13.5495 91.1914 12.978Z" fill="#696969"></path><path fill-rule="evenodd" clip-rule="evenodd" d="M102.292 21.687C100.918 21.687 99.7109 21.4086 98.6745 20.8566C97.6333 20.3047 96.8317 19.5232 96.2695 18.517C95.7025 17.5108 95.4238 16.3385 95.4238 15.0002C95.4238 13.6619 95.7073 12.4945 96.2695 11.4835C96.8365 10.4773 97.6382 9.69576 98.6745 9.14382C99.7157 8.59189 100.918 8.31348 102.292 8.31348C103.665 8.31348 104.873 8.59189 105.909 9.14382C106.95 9.69576 107.752 10.4773 108.314 11.4835C108.881 12.4896 109.16 13.6619 109.16 15.0002C109.16 16.3385 108.876 17.5059 108.314 18.517C107.747 19.5232 106.946 20.3047 105.909 20.8566C104.873 21.4134 103.665 21.687 102.292 21.687ZM102.292 19.0299C103.059 19.0299 103.734 18.8638 104.325 18.5268C104.917 18.1946 105.372 17.7208 105.694 17.1152C106.017 16.5095 106.178 15.8013 106.178 15.0002C106.178 14.1992 106.017 13.4958 105.694 12.8853C105.372 12.2796 104.917 11.8058 104.325 11.4737C103.734 11.1415 103.059 10.9706 102.292 10.9706C101.524 10.9706 100.85 11.1367 100.268 11.4737C99.6864 11.8058 99.2318 12.2796 98.9092 12.8853C98.5866 13.4909 98.4252 14.1992 98.4252 15.0002C98.4252 15.8013 98.5866 16.5046 98.9092 17.1152C99.2318 17.7208 99.6864 18.1946 100.268 18.5268C100.855 18.8589 101.529 19.0299 102.292 19.0299Z" fill="#696969"></path><path fill-rule="evenodd" clip-rule="evenodd" d="M115.618 21.6674C114.571 21.6674 113.564 21.5111 112.601 21.1936C111.634 20.8762 110.798 20.4366 110.094 19.8651L111.643 17.6964C112.773 18.5805 114.092 19.025 115.598 19.025C116.351 19.025 116.952 18.898 117.392 18.644C117.837 18.39 118.057 18.0432 118.057 17.6036C118.057 17.1884 117.851 16.8709 117.436 16.6365C117.02 16.4069 116.365 16.2409 115.466 16.1432C113.726 15.9478 112.455 15.5424 111.648 14.9221C110.842 14.3017 110.436 13.4177 110.436 12.2601C110.436 11.4834 110.656 10.7947 111.091 10.2037C111.531 9.60784 112.142 9.1487 112.934 8.82145C113.726 8.49419 114.635 8.32812 115.666 8.32812C116.556 8.32812 117.421 8.45512 118.262 8.70911C119.108 8.9631 119.851 9.32454 120.496 9.78368L119.093 11.8791C118.096 11.1855 116.996 10.8387 115.794 10.8387C115.05 10.8387 114.459 10.9608 114.014 11.205C113.569 11.4493 113.349 11.7765 113.349 12.1868C113.349 12.5873 113.54 12.895 113.926 13.1148C114.307 13.3346 114.953 13.4958 115.847 13.6082C117.573 13.8035 118.863 14.2285 119.714 14.8928C120.564 15.557 120.99 16.4607 120.99 17.6183C120.99 18.4193 120.765 19.1275 120.315 19.743C119.865 20.3584 119.235 20.8322 118.419 21.1643C117.612 21.5014 116.678 21.6674 115.618 21.6674Z" fill="#696969"></path></g><defs><linearGradient id="paint0_linear_4090_1411" x1="-10.6876" y1="44.4148" x2="21.2138" y2="4.02136" gradientUnits="userSpaceOnUse"><stop stop-color="white"></stop><stop offset="0.57" stop-color="#89FF14"></stop><stop offset="1" stop-color="#58C8DF"></stop></linearGradient><clipPath id="clip0_4090_1411"><rect width="121" height="30" fill="white"></rect></clipPath></defs></svg>