<svg xmlns="http://www.w3.org/2000/svg" width="16" height="24" viewBox="0 0 16 24" fill="none"><g clip-path="url(#clip0_301_2762)"><path d="M13.415 8.33362C13.415 5.34218 10.9904 2.9168 7.99902 2.91663C5.00748 2.91663 2.58203 5.34208 2.58203 8.33362C2.58221 11.325 5.00759 13.7496 7.99902 13.7496C10.9903 13.7495 13.4149 11.3249 13.415 8.33362ZM15.415 8.33362C15.4149 12.4295 12.0949 15.7495 7.99902 15.7496C3.90302 15.7496 0.582207 12.4296 0.582031 8.33362C0.582031 4.23751 3.90291 0.916626 7.99902 0.916626C12.095 0.916802 15.415 4.23762 15.415 8.33362Z" fill="#0B3D2E"></path><path d="M11.3437 12.7322C11.891 12.6596 12.3939 13.0442 12.4667 13.5916L13.5761 21.9519C13.6266 22.3325 13.4546 22.7089 13.1337 22.9197C12.8129 23.1304 12.3994 23.1386 12.0702 22.9412L8.00089 20.4998L3.93253 22.9412C3.60326 23.1387 3.18999 23.1295 2.86905 22.9187C2.54821 22.7079 2.37619 22.3325 2.42667 21.9519L3.53604 13.6013C3.60876 13.0539 4.11161 12.6683 4.65909 12.741C5.20632 12.8138 5.59104 13.3167 5.51847 13.864L4.68155 20.158L7.48624 18.4763L7.60929 18.4138C7.90143 18.2893 8.23852 18.3101 8.51554 18.4763L11.3202 20.159L10.4843 13.8552C10.4117 13.3078 10.7963 12.8049 11.3437 12.7322Z" fill="#0B3D2E"></path></g><defs><clipPath id="clip0_301_2762"><rect width="16" height="24" fill="white"></rect></clipPath></defs></svg>