<svg xmlns="http://www.w3.org/2000/svg" width="51" height="50" viewBox="0 0 51 50" fill="none"><path fill-rule="evenodd" clip-rule="evenodd" d="M41.7899 11.9267H42.5109C42.9637 11.9267 43.3309 12.2939 43.3309 12.7467V16.9515C43.3309 17.2908 43.122 17.595 42.8054 17.7168C42.8054 17.7168 40.3703 18.6541 40.3703 18.654C40.0217 19.9534 39.5024 21.2 38.8311 22.3663L39.8891 24.7549C40.0264 25.0648 39.9589 25.4271 39.7192 25.6668L36.4502 28.9358C36.2105 29.1755 35.8481 29.243 35.5382 29.1058L33.1513 28.0485C31.9873 28.7224 30.7375 29.239 29.4373 29.5871L28.5001 32.0221C28.3784 32.3387 28.0741 32.5476 27.7349 32.5476H23.1107C22.7715 32.5476 22.4673 32.3387 22.3454 32.0221L21.4083 29.5873C20.1052 29.2387 18.8579 28.7192 17.6913 28.0478L15.3027 29.1058C14.9929 29.243 14.6304 29.1755 14.3908 28.9358L11.1218 25.6668C10.8818 25.4269 10.8144 25.0639 10.9522 24.7538L12.0134 22.3673C11.3397 21.2037 10.8229 19.9543 10.4717 18.6545L8.03556 17.7168C7.71893 17.595 7.51003 17.2908 7.51003 16.9515V12.7467C7.51003 12.2939 7.87719 11.9267 8.33004 11.9267H9.05196C9.80217 10.3744 11.1017 9.13742 12.6978 8.46818C11.9287 7.74032 11.4477 6.71058 11.4477 5.5723C11.4477 3.3762 13.2379 1.58427 15.434 1.58427C17.6321 1.58427 19.4221 3.3763 19.4221 5.5723C19.4221 6.71058 18.941 7.74042 18.1715 8.46828C18.6729 8.67852 19.145 8.94461 19.5799 9.25898C20.3379 8.21654 21.3731 7.38863 22.577 6.88391C21.8078 6.15605 21.3268 5.12632 21.3268 3.98793C21.3268 1.79194 23.1171 0 25.313 0C27.5111 0 29.3011 1.79204 29.3011 3.98793C29.3011 5.12632 28.82 6.15615 28.0506 6.88402C29.2945 7.40555 30.358 8.27179 31.1217 9.36312C31.595 9.00304 32.1149 8.70117 32.6707 8.46808C31.9016 7.74021 31.4206 6.71058 31.4206 5.5723C31.4206 3.3762 33.2109 1.58427 35.4069 1.58427C37.605 1.58427 39.3949 3.3763 39.3949 5.5723C39.3949 6.71058 38.9139 7.74042 38.1444 8.46828C39.7409 9.13752 41.0402 10.3746 41.7899 11.9267ZM10.9429 11.9267H18.3865C18.4776 11.5028 18.6067 11.093 18.7698 10.7011C17.8485 9.98592 16.691 9.56024 15.434 9.56024C13.5698 9.56024 11.9245 10.4976 10.9429 11.9267ZM20.0759 11.9267H30.5508C29.9019 9.64593 27.8028 7.97597 25.313 7.97597C22.8246 7.97597 20.7259 9.64593 20.0759 11.9267ZM32.24 11.9267H39.8991C38.9179 10.4975 37.2721 9.56024 35.4069 9.56024C34.0757 9.56024 32.856 10.0383 31.9101 10.8321C32.0483 11.1841 32.1591 11.5498 32.24 11.9267ZM15.434 7.92021C16.7281 7.92021 17.782 6.86516 17.782 5.5723C17.782 4.27934 16.7281 3.22429 15.434 3.22429C14.1413 3.22429 13.0878 4.27955 13.0878 5.5723C13.0878 6.86505 14.1413 7.92021 15.434 7.92021ZM25.313 6.33594C26.6072 6.33594 27.6611 5.28079 27.6611 3.98793C27.6611 2.69508 26.6072 1.64003 25.313 1.64003C24.0203 1.64003 22.9668 2.69518 22.9668 3.98793C22.9668 5.28068 24.0203 6.33594 25.313 6.33594ZM35.4069 7.92021C36.701 7.92021 37.7549 6.86516 37.7549 5.5723C37.7549 4.27934 36.701 3.22429 35.4069 3.22429C34.1142 3.22429 33.0606 4.27955 33.0606 5.5723C33.0606 6.86505 34.1142 7.92021 35.4069 7.92021ZM14.6496 13.5667C11.3697 13.5667 9.15006 13.5667 9.15006 13.5667V16.3885L11.4559 17.276C11.7076 17.3728 11.8955 17.5871 11.9586 17.8493C12.3015 19.2735 12.8638 20.6363 13.6331 21.8802C13.7757 22.1109 13.795 22.3969 13.6849 22.6447L12.6797 24.9055L15.1528 27.3785L17.414 26.3769C17.6604 26.2677 17.9447 26.2867 18.1745 26.4274C19.423 27.1924 20.7813 27.7598 22.21 28.0983C22.4734 28.1607 22.6891 28.349 22.7863 28.6017L23.6737 30.9076H27.1718L28.0593 28.6017C28.1564 28.3492 28.3718 28.1609 28.635 28.0984C30.0584 27.7601 31.4203 27.198 32.6635 26.4292C32.8938 26.2868 33.1794 26.2673 33.427 26.3769L35.6882 27.3785L38.1618 24.9048L37.1602 22.6437C37.051 22.3972 37.07 22.1129 37.2107 21.8831C37.9757 20.6345 38.5433 19.2762 38.8817 17.8516C38.9443 17.5885 39.1325 17.3731 39.385 17.276L41.6909 16.3885V13.5667C41.6909 13.5667 39.4712 13.5667 36.1912 13.5667C35.7708 19.1489 31.1073 23.5483 25.4176 23.5483C19.7278 23.5483 15.0696 19.149 14.6496 13.5667ZM34.5457 13.5667C29.1273 13.5667 21.7136 13.5667 16.2953 13.5667C16.7109 18.242 20.6343 21.9083 25.4176 21.9083C30.2012 21.9083 34.1294 18.2421 34.5457 13.5667ZM42.5649 43.979L43.5968 43.9877C43.5998 43.9878 43.6027 43.9878 43.6056 43.9879C44.6363 44.0077 45.4497 44.8393 45.4497 45.87V45.878C45.4497 45.878 45.4274 48.1558 45.4274 48.1551C45.4251 49.1758 44.5662 50.0168 43.5455 49.9997C43.3059 49.9977 31.6994 49.8992 31.7011 49.8992C30.6649 49.8976 29.8438 49.0447 29.8438 48.028C29.8438 48.0253 29.8438 48.0227 29.8439 48.02C29.8439 48.02 29.8662 45.7421 29.8662 45.7429C29.8685 44.7273 30.7211 43.887 31.7373 43.887C31.7396 43.887 31.742 43.8871 31.7443 43.8871L32.5587 43.894L32.5498 37.9993V37.9981C32.5498 36.1702 32.8548 34.4531 34.2182 33.2296C35.5193 32.0501 37.8923 30.28 39.7214 28.1202C39.745 28.0926 39.7703 28.0664 39.7973 28.042C40.9387 27.0099 42.6582 26.9751 43.7536 28.0681C43.8547 28.1679 43.9471 28.271 44.0309 28.3771C44.0695 28.1596 44.0892 27.9346 44.0893 27.7011L44.0557 19.507V19.5065C44.0451 16.4761 45.0783 15.0545 46.1454 14.5301C47.0802 14.0707 48.1381 14.2165 48.9665 14.7248C49.8047 15.2392 50.3794 16.1173 50.4029 17.02L50.839 32.1041C50.8391 32.1053 50.8391 32.1066 50.8391 32.108C50.8782 33.725 50.2946 35.1347 49.16 36.2823C49.1587 36.2837 49.1575 36.2849 49.1563 36.2861L42.5649 42.8667V43.979ZM34.1987 43.908L40.9249 43.965V42.5266C40.9249 42.3089 41.0115 42.1002 41.1656 41.9464C41.1656 41.9464 47.9952 35.1278 47.9973 35.1257C48.8056 34.3064 49.2271 33.3026 49.1995 32.1491L48.7636 17.0674C48.7635 17.0666 48.7635 17.0658 48.7635 17.065C48.7536 16.6816 48.4637 16.3404 48.1086 16.1225C47.0546 15.4757 45.6839 16.1223 45.6957 19.5006L45.7293 27.6965V27.6998C45.7293 29.0356 45.2899 30.1771 44.4387 31.2248C44.438 31.2257 44.4372 31.2265 44.4365 31.2275C44.4365 31.2275 43.8777 31.9093 43.8774 31.9096C43.8713 31.9171 43.865 31.9245 43.8586 31.9318C43.8584 31.932 43.8582 31.9323 43.8579 31.9325C42.7732 33.164 41.6104 34.2045 40.4015 35.4135C40.0815 35.7335 39.5618 35.7335 39.2418 35.4135C38.9218 35.0935 38.9218 34.5738 39.2418 34.2538C40.4176 33.078 41.5508 32.0671 42.6067 30.8718C43.0374 30.2894 43.0553 29.6824 42.6006 29.2343C42.5991 29.233 42.5977 29.2316 42.5963 29.2301C42.1376 28.7713 41.4234 28.8128 40.9332 29.2269C39.0565 31.4285 36.6471 33.2412 35.3183 34.446C35.3172 34.447 35.316 34.4482 35.3149 34.4492C34.3093 35.3503 34.1899 36.6507 34.1898 37.9977L34.1987 43.908ZM31.7353 45.5272H31.7313C31.6108 45.5303 31.5062 45.626 31.5062 45.747V45.755C31.5062 45.755 31.4839 48.0306 31.484 48.0341C31.4869 48.1546 31.5804 48.2592 31.7037 48.2592H31.7107L43.5633 48.3598C43.5664 48.3598 43.5693 48.3598 43.5724 48.3599C43.6886 48.3622 43.7873 48.2673 43.7873 48.151C43.7873 48.1483 43.7873 48.1457 43.7874 48.143C43.7874 48.143 43.8097 45.8675 43.8097 45.8649C43.8071 45.736 43.7061 45.6316 43.5769 45.6276L31.7353 45.5272ZM33.7164 46.6303C33.8841 47.0664 33.6718 47.5696 33.2356 47.7485C32.7884 47.9163 32.2852 47.7038 32.1175 47.2677C31.9386 46.8204 32.151 46.3284 32.5983 46.1496C33.0344 45.9706 33.5376 46.1831 33.7164 46.6303ZM8.26485 43.979V42.8663L1.68424 36.2857C0.535504 35.137 -0.0372754 33.7266 0.00188026 32.108C0.00188026 32.1068 0.00198275 32.1057 0.00198275 32.1047L0.426852 17.0206C0.426852 17.0198 0.426955 17.0189 0.426955 17.0181C0.455143 16.1145 1.03233 15.2379 1.87151 14.7243C2.70137 14.2164 3.7598 14.0709 4.69472 14.53C5.76268 15.0544 6.7959 16.476 6.78524 19.5065V19.507L6.75172 27.7031C6.75172 27.7047 6.75162 27.7063 6.75162 27.7079C6.74936 27.9408 6.76792 28.1652 6.80605 28.3822C6.89 28.2752 6.98286 28.1714 7.08444 28.0709C8.16553 26.9782 9.9015 27.0093 11.0438 28.042C11.0714 28.0669 11.0972 28.0937 11.1211 28.1222C12.9386 30.2811 15.3109 32.0501 16.6207 33.2279C17.9859 34.4513 18.2912 36.1693 18.2912 37.9981V37.9993L18.2822 43.894L19.0967 43.8871C19.099 43.8871 19.1013 43.887 19.1037 43.887C20.1168 43.887 20.9548 44.7178 20.9746 45.7309C20.9747 45.7336 20.9747 45.7363 20.9748 45.7389L20.9971 48.02V48.028C20.9971 49.0441 20.1571 49.8967 19.1415 49.8992C19.1415 49.8992 7.29529 49.9997 7.2957 49.9997C6.26053 50.0171 5.42248 49.183 5.40249 48.1671C5.40249 48.1631 5.40239 48.1591 5.40239 48.1551C5.40239 48.1551 5.39122 45.879 5.39132 45.8817C5.37359 44.8463 6.20775 44.0078 7.22385 43.9879C7.22692 43.9878 7.22989 43.9878 7.23297 43.9877L8.26485 43.979ZM16.6422 43.908L16.6511 37.9977C16.6511 36.6507 16.5316 35.3503 15.5262 34.4492L15.5252 34.4483C14.1844 33.2428 11.7738 31.4289 9.90662 29.226C9.41759 28.8137 8.69956 28.7685 8.24886 29.2259C8.24599 29.2288 8.24323 29.2316 8.24036 29.2343C7.78566 29.6824 7.80349 30.2894 8.23431 30.8718C9.291 32.068 10.425 33.0799 11.5907 34.2566C11.9092 34.5781 11.9067 35.0977 11.5853 35.4163C11.2637 35.7348 10.7441 35.7323 10.4256 35.4108C9.22878 34.2027 8.06682 33.1629 6.98286 31.9323C6.98276 31.9322 6.98256 31.932 6.98235 31.9318C6.97774 31.9264 6.97313 31.9211 6.96862 31.9158C6.96851 31.9156 6.3984 31.2336 6.3984 31.2336C6.39461 31.2291 6.39081 31.2245 6.38712 31.2199C5.54917 30.1724 5.09929 29.0301 5.11169 27.6948L5.14521 19.5006C5.157 16.122 3.78471 15.4761 2.72771 16.1231C2.37049 16.3417 2.07857 16.6841 2.06616 17.0686L1.6414 32.1488C1.61382 33.3026 2.02496 34.307 2.84395 35.126L9.66472 41.9469C9.81847 42.1006 9.90488 42.3092 9.90488 42.5266V43.965L16.6422 43.908ZM19.1056 45.5272C19.1056 45.5272 7.25306 45.6276 7.24988 45.6278C7.12944 45.6333 7.02868 45.7307 7.03104 45.8543C7.03114 45.8582 7.03125 45.862 7.03125 45.8659C7.03125 45.8659 7.04232 48.1387 7.04242 48.1413C7.04806 48.2616 7.14553 48.3623 7.26884 48.3599C7.27182 48.3598 7.27479 48.3598 7.27766 48.3598L19.1302 48.2592H19.1372C19.2594 48.2592 19.3557 48.1526 19.3571 48.0306C19.3571 48.0306 19.3348 45.7606 19.3347 45.7569C19.3291 45.6329 19.2301 45.5282 19.1056 45.5272ZM18.7235 46.6303C18.9024 47.0664 18.6787 47.5696 18.2427 47.7485C17.7954 47.9163 17.3035 47.7038 17.1245 47.2677C16.9456 46.8204 17.1693 46.3284 17.6053 46.1496C18.0525 45.9706 18.5445 46.1831 18.7235 46.6303Z" fill="#0B3D2E"></path></svg>