<svg xmlns="http://www.w3.org/2000/svg" width="50" height="50" viewBox="0 0 50 50" fill="none"><g clip-path="url(#clip0_258_843)"><path d="M49.9414 3.73273C49.8331 1.74659 48.2535 0.1672 46.2674 0.0588015C42.2598 -0.160144 34.4176 0.0528446 26.9188 3.93146C23.096 5.9088 19.0531 9.26124 15.8266 13.1292C15.7868 13.1769 15.7482 13.2248 15.7087 13.2726L8.38645 13.8382C7.18118 13.9314 6.10764 14.5631 5.44104 15.5713L0.445532 23.1272C-0.0600342 23.8918 -0.140405 24.8487 0.230395 25.6869C0.601294 26.5252 1.3634 27.1094 2.26917 27.2497L8.43821 28.2052C8.41643 28.3251 8.39456 28.4449 8.37454 28.5649C8.16916 29.7934 8.5762 31.0565 9.4635 31.9437L18.0565 40.5367C18.7921 41.2724 19.7862 41.6779 20.8047 41.6779C21.0145 41.6779 21.2254 41.6607 21.4354 41.6256C21.5553 41.6056 21.6751 41.5837 21.795 41.5619L22.7505 47.7311C22.8908 48.6368 23.475 49.399 24.3131 49.7698C24.6618 49.9241 25.0309 50.0003 25.3983 50.0003C25.9142 50.0002 26.4265 49.85 26.873 49.5548L34.4288 44.5592C35.4371 43.8925 36.0688 42.819 36.1617 41.6138L36.7274 34.2916C36.7751 34.2522 36.8232 34.2135 36.8708 34.1737C40.7389 30.9473 44.0914 26.9043 46.0687 23.0815C49.9475 15.5823 50.1601 7.74005 49.9414 3.73273ZM32.8131 42.1152L25.5855 46.8939L24.6542 40.8817C27.7089 39.9835 30.7307 38.545 33.6095 36.618L33.241 41.388C33.2181 41.6856 33.062 41.9507 32.8131 42.1152ZM20.128 38.4651L11.535 29.8721C11.3157 29.6527 11.2144 29.3446 11.2641 29.0479C11.5196 27.5202 11.9165 26.066 12.4079 24.6961L25.3013 37.5895C23.656 38.1788 22.1822 38.5304 20.9523 38.736C20.655 38.7855 20.3473 38.6844 20.128 38.4651ZM8.61213 16.7592L13.3821 16.3907C11.4549 19.2695 10.0164 22.2913 9.11829 25.346L3.10618 24.4149L7.88489 17.1871C8.04954 16.9381 8.31467 16.7821 8.61213 16.7592ZM34.9945 31.9238C32.628 33.8978 30.3308 35.3255 28.2134 36.3586L13.641 21.7862C14.9944 19.0222 16.646 16.7205 18.0763 15.0059C21.0621 11.4263 24.7757 8.33829 28.2649 6.53361C35.1471 2.97374 42.3982 2.78204 46.1079 2.984C46.5989 3.01075 46.9895 3.40128 47.0162 3.8924C47.2185 7.60216 47.0264 14.8531 43.4665 21.7355C41.6619 25.2245 38.5739 28.938 34.9945 31.9238Z" fill="white"></path><path d="M34.2498 23.0706C36.125 23.0704 38.001 22.3566 39.4286 20.9289C40.812 19.5456 41.5737 17.7064 41.5737 15.7501C41.5737 13.7939 40.8119 11.9546 39.4286 10.5713C36.573 7.71555 31.9265 7.71575 29.071 10.5713C27.6876 11.9546 26.9258 13.7939 26.9258 15.7501C26.9258 17.7064 27.6877 19.5456 29.071 20.9289C30.4989 22.3569 32.3739 23.0708 34.2498 23.0706ZM31.1424 12.6428C31.999 11.7861 33.1243 11.3577 34.2496 11.3577C35.375 11.3577 36.5003 11.7861 37.3569 12.6428C38.1869 13.4728 38.6439 14.5763 38.6439 15.75C38.6439 16.9238 38.1869 18.0274 37.3569 18.8573C35.6437 20.5707 32.8557 20.5706 31.1423 18.8573C30.3123 18.0274 29.8552 16.9239 29.8552 15.7501C29.8552 14.5764 30.3124 13.4728 31.1424 12.6428Z" fill="white"></path><path d="M1.49409 41.2049C1.86899 41.2049 2.2439 41.062 2.52983 40.7758L7.31235 35.9933C7.88442 35.4212 7.88442 34.4938 7.31235 33.9217C6.74038 33.3497 5.81284 33.3497 5.24077 33.9217L0.45835 38.7042C-0.113721 39.2763 -0.113721 40.2038 0.45835 40.7758C0.744287 41.0619 1.11919 41.2049 1.49409 41.2049Z" fill="white"></path><path d="M11.6954 38.3045C11.1234 37.7325 10.1958 37.7325 9.62378 38.3045L0.429053 47.4994C-0.143018 48.0714 -0.143018 48.9989 0.429053 49.5709C0.715088 49.857 1.08989 50 1.46479 50C1.8397 50 2.2146 49.857 2.50054 49.5708L11.6953 40.3761C12.2674 39.8041 12.2674 38.8766 11.6954 38.3045Z" fill="white"></path><path d="M14.0065 42.6875L9.22397 47.47C8.6519 48.0421 8.6519 48.9695 9.22397 49.5416C9.51001 49.8276 9.88491 49.9707 10.2597 49.9707C10.6345 49.9707 11.0095 49.8277 11.2955 49.5416L16.078 44.7591C16.65 44.187 16.65 43.2595 16.078 42.6875C15.506 42.1154 14.5785 42.1154 14.0065 42.6875Z" fill="white"></path></g><defs><clipPath id="clip0_258_843"><rect width="50" height="50" fill="white"></rect></clipPath></defs></svg>