<svg xmlns="http://www.w3.org/2000/svg" width="30" height="30" viewBox="0 0 30 30" fill="none"><g clip-path="url(#clip0_2032_257)"><path d="M29.0921 3.87149L27.5282 3.7147L29.7426 1.50038C30.0858 1.15714 30.0858 0.600674 29.7426 0.257432C29.3994 -0.0858105 28.8429 -0.0858105 28.4996 0.257432L26.2853 2.47181L26.1285 0.907939C26.0946 0.570088 25.8691 0.281924 25.5493 0.167842C25.2295 0.0538183 24.8726 0.134033 24.6325 0.37415L20.3767 4.62999C18.3188 3.44224 15.987 2.8171 13.5915 2.8171C9.96111 2.8171 6.54797 4.23085 3.98086 6.79796C1.41375 9.36495 0 12.7781 0 16.4085C0 20.0389 1.41375 23.4521 3.9808 26.0191C6.54797 28.5862 9.96111 30 13.5915 30C17.2219 30 20.6351 28.5862 23.2021 26.0191C25.7692 23.452 27.1829 20.0389 27.1829 16.4085C27.1829 14.014 26.5576 11.6812 25.37 9.62335L29.6259 5.36751C29.866 5.12739 29.9463 4.7705 29.8322 4.45063C29.718 4.13083 29.4299 3.90542 29.0921 3.87149ZM15.9354 16.4085C15.9354 17.7009 14.884 18.7524 13.5915 18.7524C12.2991 18.7524 11.2477 17.7009 11.2477 16.4085C11.2477 15.1161 12.2991 14.0646 13.5915 14.0646C13.916 14.0646 14.2252 14.131 14.5064 14.2507L12.9701 15.787C12.6268 16.1302 12.6268 16.6867 12.9701 17.03C13.1417 17.2016 13.3666 17.2874 13.5915 17.2874C13.8164 17.2874 14.0414 17.2016 14.213 17.03L15.7494 15.4936C15.8691 15.7749 15.9354 16.0841 15.9354 16.4085ZM15.8013 12.9558C15.163 12.5458 14.4049 12.3068 13.5915 12.3068C11.3298 12.3068 9.48984 14.1468 9.48984 16.4085C9.48984 18.6702 11.3298 20.5102 13.5915 20.5102C15.8532 20.5102 17.6932 18.6702 17.6932 16.4085C17.6932 15.5952 17.4543 14.837 17.0443 14.1987L19.1839 12.0591C20.1205 13.2607 20.6793 14.7705 20.6793 16.4086C20.6793 20.3168 17.4997 23.4964 13.5915 23.4964C9.6832 23.4964 6.50361 20.3168 6.50361 16.4086C6.50361 12.5004 9.6832 9.32077 13.5915 9.32077C15.2295 9.32077 16.7394 9.87952 17.9409 10.8161L15.8013 12.9558ZM13.5915 28.2422C7.06641 28.2422 1.75781 22.9336 1.75781 16.4085C1.75781 9.88339 7.06641 4.57485 13.5915 4.57485C15.7843 4.57485 17.9154 5.17602 19.7719 6.31526L20.0152 8.74192L19.191 9.5661C17.6649 8.31489 15.7144 7.5629 13.5916 7.5629C8.71406 7.5629 4.74592 11.531 4.74592 16.4085C4.74592 21.286 8.71406 25.2541 13.5916 25.2541C18.469 25.2541 22.4372 21.286 22.4372 16.4085C22.4372 14.2856 21.6853 12.3352 20.434 10.8091L21.2582 9.98487L23.6853 10.2282C24.8243 12.0844 25.4253 14.2166 25.4253 16.4085C25.4252 22.9336 20.1166 28.2422 13.5915 28.2422ZM24.013 8.49448L21.734 8.26597L21.5055 5.98696L24.5644 2.92808L24.7212 4.49194C24.7629 4.90802 25.092 5.23708 25.5081 5.27874L27.0719 5.43554L24.013 8.49448Z" fill="white"></path></g><defs><clipPath id="clip0_2032_257"><rect width="30" height="30" fill="white"></rect></clipPath></defs></svg>