<svg xmlns="http://www.w3.org/2000/svg" width="50" height="50" viewBox="0 0 50 50" fill="none"><path d="M29.6489 16.593C28.4969 15.441 26.6228 15.441 25.4707 16.593L20.0655 21.9981L18.4161 20.3487C17.8598 19.7924 17.1179 19.486 16.327 19.486C15.5361 19.486 14.7942 19.7925 14.2379 20.3487H14.2378C13.0859 21.5006 13.0859 23.3749 14.2378 24.5268L17.618 27.9068C18.3979 28.6869 19.3075 29.0827 20.1769 29.0827C20.9135 29.0827 21.6214 28.7984 22.1971 28.2228L29.6488 20.771C30.8008 19.6191 30.8008 17.7448 29.6489 16.593ZM28.544 19.6663L21.0923 27.1181C20.0944 28.1159 18.8605 26.9396 18.7229 26.8022L15.3429 23.4221C14.8001 22.8794 14.8001 21.9964 15.3429 21.4537C15.6042 21.1925 15.9536 21.0486 16.3271 21.0486C16.7006 21.0486 17.0501 21.1925 17.3112 21.4536L19.5131 23.6555C19.8183 23.9606 20.3128 23.9606 20.618 23.6555L26.5756 17.698C26.8367 17.4367 27.1863 17.293 27.5598 17.293C27.9332 17.293 28.2827 17.4368 28.544 17.698C28.8052 17.9593 28.949 18.3087 28.949 18.6822C28.9491 19.0555 28.8053 19.4051 28.544 19.6663ZM47.4845 29.3527H41.4733V28.1437C41.4733 27.5416 41.2798 26.9843 40.9524 26.5293L42.605 25.8933C42.9065 25.7772 43.1056 25.4874 43.1056 25.1642V19.6477C43.1056 19.3244 42.9065 19.0347 42.6049 18.9186L39.6071 17.7647C39.1874 16.1633 38.5522 14.6312 37.7146 13.1994L39.0193 10.2619C39.1505 9.9665 39.0863 9.6209 38.8578 9.39238L34.957 5.4915C34.7284 5.26299 34.383 5.19873 34.0875 5.32988L31.1487 6.63506C29.7172 5.79766 28.1854 5.1626 26.585 4.74297L25.4307 1.74424C25.3146 1.44268 25.0248 1.24365 24.7016 1.24365H19.1853C18.862 1.24365 18.5723 1.44268 18.4562 1.74424L17.3019 4.74297C15.7014 5.1626 14.1696 5.79766 12.7381 6.63506L9.79932 5.32988C9.5042 5.19883 9.1585 5.26299 8.92979 5.4915L5.029 9.39229C4.80049 9.6208 4.73633 9.96641 4.86748 10.2618L6.17246 13.2001C5.33496 14.6316 4.6999 16.1634 4.28018 17.7644L1.28184 18.9186C0.980273 19.0348 0.78125 19.3245 0.78125 19.6478V25.1642C0.78125 25.4874 0.980273 25.7771 1.28184 25.8933L4.27979 27.0472C4.69961 28.6488 5.33477 30.181 6.17217 31.6124L4.86748 34.55C4.73633 34.8453 4.80049 35.191 5.029 35.4195L8.92979 39.3203C9.15859 39.5489 9.504 39.6132 9.79932 39.4818L12.738 38.1767C14.1695 39.0141 15.7015 39.6492 17.3019 40.0687L18.4561 43.0675C18.5721 43.369 18.8619 43.5681 19.1852 43.5681H23.376V46.1153C23.376 47.5716 24.5607 48.7564 26.017 48.7564H45.4448C46.9011 48.7564 48.0859 47.5716 48.0859 46.1153V38.1058C48.8372 37.3878 49.2187 36.5536 49.2187 35.6206V31.0869C49.2188 30.1307 48.4407 29.3527 47.4845 29.3527ZM47.6562 31.0869V35.6206C47.6562 36.1909 47.387 36.6775 46.8092 37.152C46.6635 37.2716 46.4947 37.3922 46.308 37.5104C45.0295 38.3192 42.1843 38.9162 38.6266 39.1316C38.1628 37.987 37.0401 37.1772 35.7312 37.1772C34.4216 37.1772 33.2983 37.9877 32.8351 39.1331C29.282 38.9193 26.437 38.3219 25.1543 37.5104C24.9682 37.3925 24.7994 37.2719 24.6531 37.1519C24.0752 36.6774 23.8061 36.1908 23.8061 35.6206V31.0869C23.8061 30.9938 23.8847 30.9152 23.9777 30.9152H28.3146V33.2327C28.3146 34.3223 29.2011 35.2087 30.2906 35.2087H41.1717C42.2612 35.2087 43.1477 34.3223 43.1477 33.2327V30.9152H47.4845C47.5775 30.9152 47.6562 30.9938 47.6562 31.0869ZM37.2918 40.3005C37.2918 41.161 36.5917 41.8611 35.7312 41.8611C34.8706 41.8611 34.1704 41.161 34.1704 40.3005C34.1704 39.4399 34.8706 38.7397 35.7312 38.7397C36.5917 38.7397 37.2918 39.4398 37.2918 40.3005ZM22.2435 31.0869V33.9362C22.1434 33.9388 22.0432 33.9428 21.9435 33.9428C15.5819 33.9428 10.4064 28.7674 10.4064 22.4059C10.4064 16.0443 15.5819 10.8689 21.9435 10.8689C28.305 10.8689 33.4804 16.0444 33.4804 22.4059C33.4804 23.4137 33.3494 24.4087 33.0938 25.3722H32.7605C31.2323 25.3722 29.989 26.6154 29.989 28.1436V29.3526H23.9776C23.0214 29.3527 22.2435 30.1307 22.2435 31.0869ZM38.149 29.3527H33.3132V28.6966H38.149V29.3527ZM41.5852 30.9152V33.2327C41.5852 33.4568 41.3958 33.6462 41.1717 33.6462H30.2906C30.0665 33.6462 29.8771 33.4568 29.8771 33.2327V30.9152H41.5852ZM39.7115 29.3527V28.1437C39.7115 27.5869 39.2586 27.1341 38.702 27.1341H32.7604C32.2036 27.1341 31.7507 27.587 31.7507 28.1437V29.3527H31.5514V28.1437C31.5514 27.4771 32.0938 26.9348 32.7604 26.9348H38.702C39.3686 26.9348 39.9108 27.4771 39.9108 28.1437V29.3527H39.7115ZM19.7217 42.0056L18.6143 39.1287C18.5218 38.8884 18.3166 38.709 18.0661 38.6493C16.3473 38.2403 14.7106 37.5617 13.2016 36.6326C12.982 36.4975 12.7102 36.4793 12.4749 36.5839L9.65547 37.8361L6.51328 34.6939L7.76504 31.8756C7.86953 31.6401 7.85137 31.3683 7.71621 31.1488C6.78711 29.6402 6.1085 28.0032 5.69922 26.283C5.63965 26.0324 5.46035 25.8272 5.21992 25.7348L2.34375 24.6277V20.1841L5.22021 19.0769C5.46064 18.9844 5.63994 18.7793 5.69951 18.5286C6.10869 16.8094 6.7873 15.1726 7.71641 13.6638C7.85156 13.4443 7.86973 13.1725 7.76523 12.937L6.51318 10.1179L9.65527 6.97568L12.4748 8.22793C12.7101 8.33242 12.9821 8.31426 13.2015 8.1791C14.7104 7.2499 16.3472 6.57139 18.0659 6.1624C18.3164 6.10273 18.5216 5.92344 18.6141 5.68301L19.7215 2.80615H24.165L25.2725 5.68301C25.3649 5.92334 25.5701 6.10273 25.8206 6.1624C27.5395 6.57139 29.1761 7.25 30.6851 8.1791C30.9046 8.31426 31.1765 8.33232 31.4117 8.22793L34.2313 6.97568L37.3734 10.1179L36.1217 12.9361C36.0172 13.1717 36.0354 13.4436 36.1705 13.6629C37.0998 15.1718 37.7784 16.8089 38.1874 18.5287C38.2471 18.7793 38.4264 18.9845 38.6668 19.0771L41.5429 20.184V24.6276L39.386 25.4578C39.1671 25.402 38.9379 25.3722 38.7018 25.3722H34.7042C34.9285 24.4038 35.0426 23.4102 35.0426 22.4059C35.0426 15.1828 29.1662 9.30645 21.9432 9.30645C14.7201 9.30645 8.84394 15.1828 8.84394 22.4059C8.84394 29.6289 14.7204 35.5053 21.9435 35.5053C22.0432 35.5053 22.1433 35.504 22.2435 35.5018V35.6206C22.2435 36.5534 22.6248 37.3875 23.3761 38.1056V42.0056H19.7217ZM45.4449 47.1939H26.0171C25.4224 47.1939 24.9386 46.7101 24.9386 46.1153V39.1696C27.0216 40.1664 30.3559 40.5439 32.6325 40.6864C32.8234 42.2271 34.1397 43.4236 35.7311 43.4236C37.3232 43.4236 38.64 42.2258 38.8298 40.684C40.8722 40.5523 44.3826 40.1838 46.5234 39.1676V46.1153C46.5235 46.7101 46.0396 47.1939 45.4449 47.1939Z" fill="#0B3D2E"></path></svg>