<svg xmlns="http://www.w3.org/2000/svg" width="70" height="60" viewBox="0 0 70 60" fill="none"><g clip-path="url(#clip0_2038_1320)"><path d="M69.9393 31.3351C69.8951 31.2986 69.8309 31.287 69.7809 31.3039C69.7198 31.3227 69.6638 31.339 69.611 31.3544L69.5852 31.362C69.455 31.4 69.3426 31.4327 69.2312 31.4774C67.471 32.1768 66.0853 33.375 64.9946 35.1402C64.7253 35.5764 64.5167 36.0298 64.3505 36.4819C64.623 34.9611 64.6862 34.3686 64.7344 32.6668C64.7367 32.5954 64.7367 32.5228 64.7367 32.4507C64.7367 32.2538 64.7367 32.0678 64.7797 31.8981C64.8313 31.6971 64.935 31.4965 65.0353 31.3025C65.0636 31.2476 65.0918 31.1926 65.1152 31.1444C65.1232 31.1349 65.1494 31.119 65.1596 31.1174C65.6629 31.0405 66.1081 30.8268 66.5207 30.4642C66.9366 30.0969 67.2785 29.6474 67.5373 29.1277C68.4662 27.2651 68.931 25.2063 68.9192 23.0093C68.9182 22.7973 68.8932 22.591 68.8659 22.3666C68.8534 22.266 68.8408 22.1632 68.8303 22.0567C68.8243 21.9983 68.7883 21.9464 68.7362 21.9211C68.6848 21.8962 68.6227 21.8979 68.5708 21.9293C68.5393 21.949 68.5125 21.9649 68.4881 21.9792C68.4409 22.0072 68.4049 22.0292 68.3709 22.0537C67.5786 22.6217 66.8797 23.3288 66.2935 24.1548C65.3369 25.5049 64.7806 27.0316 64.6307 28.711C64.6158 28.5238 64.6007 28.3366 64.5856 28.1494L64.5804 28.0815C64.5216 27.3475 64.4609 26.5885 64.4114 25.8421C64.399 25.6532 64.3626 25.4693 64.3276 25.2914C64.2598 24.9494 64.1958 24.6264 64.2983 24.288C64.3216 24.2115 64.3412 24.1344 64.3609 24.0576C64.4093 23.8672 64.6432 23.574 65.0024 23.2535L65.0159 23.2414C65.1483 23.1291 65.8287 22.5066 66.2147 21.2752C66.6065 20.0242 66.5769 18.7171 66.5553 17.7626L66.5548 17.7372C66.526 16.4251 66.3842 15.4364 66.0951 14.5309C66.0577 14.4151 66.0133 14.3009 65.9663 14.1809C65.9419 14.1184 65.917 14.0539 65.8914 13.9863C65.8703 13.9291 65.8198 13.8875 65.7607 13.8777L65.7317 13.8751C65.6805 13.8751 65.6326 13.8981 65.6001 13.9377L65.3192 14.28C63.9724 15.9226 63.3108 17.8491 63.3522 20.0062C63.3594 20.386 63.3878 20.7757 63.4382 21.178C63.0959 19.9967 62.6944 18.8468 62.2379 17.7405C62.2284 17.7163 62.2223 17.6863 62.2216 17.6609L62.2184 17.5096C62.2137 17.2914 62.2088 17.0655 62.2181 16.8434C62.2195 16.8066 62.2433 16.7404 62.293 16.6753C62.3635 16.5822 62.4418 16.4911 62.5228 16.3964C62.6609 16.2356 62.8036 16.0697 62.9165 15.8802C63.2804 15.2706 63.4513 14.5506 63.4541 13.6138C63.4591 12.5111 63.289 11.3506 62.9185 9.96155C62.716 9.20377 62.4104 8.21929 61.8412 7.32675C61.8026 7.26674 61.7594 7.21025 61.7135 7.15042C61.6927 7.12392 61.671 7.09567 61.6489 7.06532C61.6166 7.02198 61.572 6.99672 61.5001 6.99672C61.4427 7.00093 61.3915 7.03356 61.3629 7.08427C60.6484 8.37369 60.2926 9.75118 60.2758 11.2955C60.2614 12.5832 60.4625 13.6912 60.7146 14.5669C60.073 13.3947 59.3599 12.2621 58.587 11.1878L58.5693 11.1634C58.5518 11.1401 58.5444 11.1287 58.5456 11.1368C58.497 10.7892 58.4633 10.5111 58.44 10.269C58.4405 10.2653 58.4451 10.2449 58.4812 10.1846C58.5323 10.0975 58.5883 10.0123 58.6477 9.92208C58.767 9.74066 58.8902 9.55292 58.9692 9.34273C59.2074 8.70828 59.2609 7.98874 59.1323 7.14375C58.85 5.27358 58.0256 3.58956 56.6125 1.9952C56.467 1.8315 56.3063 1.68675 56.1363 1.53376L56.0892 1.49112C56.0227 1.43094 55.9545 1.36935 55.8855 1.30426C55.8417 1.2625 55.7789 1.24689 55.718 1.26478C55.6604 1.28303 55.616 1.33075 55.6024 1.39006L55.5715 1.52551C55.5504 1.61534 55.5341 1.68623 55.522 1.75746C55.3318 2.89265 55.3457 4.10856 55.5646 5.475C55.7819 6.83021 56.2147 7.99909 56.8788 9.01445C55.8829 7.84101 54.9142 6.85565 53.9018 5.98241C53.8973 5.97645 53.8906 5.95838 53.8901 5.95381C53.9692 5.27217 53.8011 4.63001 53.3758 3.99065C52.8174 3.1504 52.0413 2.50999 51.0693 2.08749C50.4877 1.83519 49.885 1.61183 49.2949 1.39304C49.0123 1.28812 48.7296 1.18355 48.4385 1.07143C48.1461 0.955106 48.021 0.934402 47.9531 0.997215C47.8657 1.07863 47.8867 1.14811 47.9248 1.27443L47.9371 1.31567C48.2938 2.51718 48.7672 3.46744 49.3846 4.22067C50.518 5.60484 51.8436 6.30806 53.435 6.37017C53.4908 6.3735 53.535 6.38894 53.553 6.40298C53.7771 6.57071 53.942 6.70494 54.0878 6.83793C54.5489 7.25937 55.003 7.70836 55.4473 8.18121C54.7865 7.77065 53.9789 7.58537 53.0693 7.63134C52.5716 7.65643 52.0775 7.72942 51.5997 7.79995L51.5815 7.80276C51.4402 7.82346 51.2997 7.84399 51.1595 7.86382C50.8524 7.9054 50.5429 7.95979 50.2696 8.00751C50.1589 8.02734 49.8945 8.08752 49.8336 8.21578C49.8125 8.25964 49.8143 8.30772 49.8381 8.35141C49.8592 8.38948 49.8824 8.42527 49.9076 8.45791C50.6966 9.48169 51.5967 10.156 52.6593 10.519C53.9548 10.9639 55.1448 10.9273 56.214 10.4039C56.3775 10.3139 56.5747 10.2683 56.8 10.2683C56.97 10.2683 57.0976 10.2951 57.1399 10.3047C57.2032 10.3153 57.2892 10.3507 57.3067 10.3735C57.9717 11.2478 58.6028 12.1816 59.1922 13.1626C58.6942 12.6783 58.0449 12.3518 57.1602 12.1391C56.3849 11.9544 55.5922 11.9147 54.8258 11.8761L54.5691 11.8631C54.3287 11.8509 54.0884 11.8356 53.8408 11.82L53.4257 11.7944C53.372 11.7944 53.3209 11.8203 53.2897 11.8635C53.2551 11.91 53.2469 11.9703 53.2672 12.0246C53.2839 12.0698 53.3143 12.1497 53.3299 12.1763C54.1382 13.5284 55.0874 14.4636 56.2314 15.0355C57.3497 15.5942 58.3602 15.7419 59.3794 15.4982C59.4973 15.4698 59.634 15.4547 59.7752 15.4547C60.2088 15.4547 60.5111 15.587 60.5746 15.7095C61.1353 16.8662 61.6357 18.0683 62.0673 19.2943C61.6147 18.6703 60.9816 18.1634 60.1802 17.7842C59.3839 17.4084 58.5549 17.0648 57.7392 16.7267C57.3887 16.5818 57.0367 16.4364 56.6863 16.2876C56.6342 16.2648 56.5726 16.2695 56.524 16.3016C56.4763 16.3334 56.4479 16.3864 56.4479 16.4434C56.4479 16.5529 57.6111 19.7814 59.3006 21.0536C59.9898 21.5726 60.8386 22.1065 61.9091 22.1316C62.2295 22.1381 62.5607 22.1834 62.8109 22.4678C62.8492 22.5131 62.8999 22.5483 62.9551 22.5671C63.0406 22.5952 63.0641 22.6475 63.1062 22.8257C63.4529 24.2813 63.7054 25.7816 63.8608 27.3051C63.8138 27.1505 63.7593 26.9944 63.6966 26.8363C63.3185 25.8774 62.6821 25.0384 61.694 24.1957C61.1846 23.7595 60.6512 23.3372 60.1354 22.9285L60.1108 22.9092C59.8759 22.7231 59.6415 22.5376 59.4078 22.3499C59.3596 22.3111 59.3125 22.2711 59.258 22.2244L59.1122 22.0995C59.0611 22.0564 58.9851 22.0474 58.9255 22.0772C58.8642 22.1083 58.8276 22.1725 58.8323 22.2411C58.8395 22.3441 58.8453 22.4415 58.8507 22.535L58.8535 22.5787C58.8651 22.7712 58.876 22.9528 58.8955 23.1321C59.0783 24.878 59.5975 26.3357 60.4826 27.5883C61.0306 28.3626 61.8166 29.309 63.0423 29.7565C63.3406 29.866 63.557 30.0318 63.7887 30.3294C64.0073 30.608 64.0481 30.8626 64.0431 31.183C64.0223 32.525 63.9266 33.8564 63.758 35.1602C63.7186 34.7974 63.635 34.4238 63.5068 34.0357C63.2413 33.2321 62.8276 32.4508 62.2417 31.6472C61.7361 30.9514 61.2099 30.2531 60.7011 29.5774L60.6672 29.5323C60.4654 29.2647 60.2638 28.9968 60.0675 28.7347C60.0307 28.6808 59.9775 28.6615 59.9468 28.6508C59.9033 28.6296 59.8513 28.6275 59.8052 28.6471C59.7599 28.6664 59.7252 28.7045 59.7099 28.7512L59.704 28.7694C59.6955 28.794 59.6889 28.8158 59.6854 28.8375C59.3345 30.93 59.5497 32.8047 60.3433 34.5694C60.7309 35.4323 61.2508 36.4093 62.1674 37.1121C62.5858 37.433 62.9162 37.8833 63.0976 38.3796C63.136 38.4865 63.1346 38.5328 63.1303 38.5507C62.7423 40.1575 62.2356 41.7073 61.6196 43.1741C61.7782 42.401 61.7673 41.589 61.5862 40.7477C61.3292 39.5554 60.8874 38.3998 60.4933 37.4102L60.3753 37.1139C60.1905 36.6502 60.0045 36.1828 59.8124 35.6983C59.788 35.6364 59.7292 35.5941 59.6508 35.5902C59.589 35.5902 59.5322 35.6255 59.5027 35.6827L59.4408 35.7992C59.4136 35.8503 59.3882 35.8978 59.3664 35.9469C58.5737 37.7355 58.3059 39.569 58.5711 41.3966C58.7605 42.7034 59.0816 43.6391 59.6122 44.4307C59.8868 44.8399 60.1477 45.2957 60.1951 45.8563C60.2063 45.9889 60.201 46.0803 60.1419 46.1844C59.4727 47.3563 58.7225 48.4621 57.9008 49.4896C57.904 49.484 57.907 49.4784 57.9101 49.4728C58.5012 48.3925 58.5191 47.2245 58.4588 46.2242C58.4067 45.3668 58.3084 44.5105 58.2138 43.6828L58.2084 43.6348C58.1703 43.3032 58.1324 42.9718 58.0979 42.6397C58.0779 42.4514 58.0556 42.2631 58.0326 42.0721L58.0022 41.8135C57.9956 41.7563 57.9606 41.7068 57.9105 41.6819C57.8171 41.6331 57.6661 41.7084 57.5029 41.9014C56.3816 43.2276 55.6857 44.7264 55.4345 46.3562C55.1739 48.046 55.3151 49.4921 55.8668 50.7771C55.8815 50.8113 55.8812 50.8811 55.881 50.9045L55.8513 51.6438C55.8469 51.697 55.8189 51.757 55.7957 51.7793C54.676 52.8576 53.4432 53.7951 52.1203 54.5753C52.7465 54.0093 53.1967 53.2708 53.4885 52.335C53.8118 51.2977 53.9778 50.2181 54.1387 49.1713L54.1527 49.0782C54.2098 48.7104 54.2693 48.3434 54.33 47.9682L54.3986 47.5442C54.4084 47.4824 54.384 47.4206 54.3361 47.3836C54.2886 47.3457 54.2198 47.3366 54.165 47.3601L54.1052 47.3848C54.0413 47.411 53.9857 47.4343 53.9333 47.4612C51.4323 48.7102 49.786 51.6235 50.0187 54.388C50.0552 54.821 50.0155 55.2277 49.8973 55.6305C49.8862 55.6672 49.8508 55.707 49.8364 55.7137C48.6486 56.2146 47.5192 56.5801 46.3827 56.831C46.3243 56.8445 46.278 56.8863 46.259 56.9426C46.2399 56.9992 46.2515 57.0608 46.2904 57.1072C46.414 57.2535 46.5215 57.4109 46.6099 57.5756C46.6463 57.643 46.7328 57.6776 46.7975 57.6607C47.7234 57.4495 48.625 57.1759 49.4783 56.8471C49.5472 56.8194 49.5999 56.8062 49.6492 56.8143C49.839 56.8396 50.0396 56.8785 50.2622 56.9338C50.3082 56.945 50.3463 56.9663 50.347 56.9643C50.8333 57.9339 51.6692 58.5515 52.9032 58.8521C53.1716 58.9164 53.4485 58.964 53.726 58.9931C54.0166 59.0238 54.3407 59.0394 54.6889 59.0394C55.1714 59.0394 55.5155 59.0096 55.5197 59.0093C56.5893 58.8896 57.5027 58.6489 58.3117 58.2732C58.6437 58.1194 59.022 57.9121 59.3127 57.5421C59.3683 57.4712 59.359 57.3689 59.2915 57.3095C58.4696 56.5843 57.6329 56.0574 56.733 55.6988C55.3997 55.1689 54.1852 55.0254 52.9948 55.2543C52.8168 55.2889 52.6431 55.3324 52.4744 55.3824C53.588 54.7168 54.6542 53.9344 55.6611 53.0431C55.6804 53.0255 55.7122 53.0101 55.7369 53.0057C55.9017 52.9783 56.1205 52.9447 56.3444 52.9285C56.3651 52.9285 56.3914 52.9385 56.3944 52.9396C57.0011 53.6186 57.7827 53.9486 58.7841 53.9486C58.8351 53.9486 58.8863 53.9476 58.9374 53.9458C60.0261 53.9107 61.1206 53.6116 62.191 53.0563C62.969 52.6504 63.78 52.1779 64.4376 51.4733C64.5834 51.3166 64.7136 51.1394 64.8285 50.9831L64.8397 50.9678C64.8906 50.8989 64.942 50.8294 64.9948 50.7608C65.0236 50.7238 65.0357 50.676 65.0281 50.628C65.0201 50.5816 64.9932 50.5404 64.9474 50.5106C64.9359 50.5043 64.6574 50.3549 64.4032 50.2565C62.7009 49.5987 60.9823 49.5314 59.3429 50.0597C58.8062 50.2321 58.301 50.4911 57.8092 50.849C58.7188 49.7917 59.561 48.6327 60.3256 47.3856C60.3338 47.3724 60.3556 47.3368 60.3626 47.3303C60.4295 47.2876 60.4979 47.2473 60.5662 47.2075C60.6884 47.1357 60.8151 47.0615 60.9341 46.9731C61.0344 46.8981 61.0627 46.8962 61.1641 46.9615C61.3076 47.0546 61.4745 47.1031 61.6199 47.1411C62.4709 47.3591 63.3287 47.2504 64.2776 46.805C65.1443 46.3986 65.8107 45.7563 66.402 45.1229C67.262 44.1989 67.824 43.3654 68.1707 42.4993C68.2435 42.3175 68.2955 42.1296 68.3495 41.9331C68.3718 41.8506 68.3946 41.7682 68.4188 41.6871C68.4453 41.6001 68.399 41.508 68.313 41.4776L68.2418 41.4722C67.891 41.4722 64.7623 41.5236 62.9323 43.2992C62.5342 43.6856 62.1774 44.0961 61.8515 44.5456C62.5755 43.0125 63.1894 41.3967 63.6842 39.7196L63.6914 39.695C63.6973 39.6745 63.7063 39.6434 63.7122 39.635L64.1909 38.9777C64.2088 38.9514 64.2109 38.9514 64.239 38.9514C64.2514 38.9514 64.2651 38.9523 64.2807 38.9532L64.383 38.9593C64.7392 38.9814 64.9488 38.9783 65.1213 38.9513C65.8028 38.8437 66.4179 38.5005 67.0017 37.9019C68.3669 36.5017 69.3066 34.7549 69.8744 32.5621C69.9353 32.3271 69.9523 32.0899 69.9705 31.8383C69.9786 31.7243 69.9875 31.6067 70.0005 31.4853C70.006 31.4271 69.9832 31.3714 69.9393 31.3351Z" fill="white"></path><path d="M23.6183 56.8297C22.483 56.5789 21.3537 56.2135 20.1656 55.7125C20.1513 55.7059 20.1161 55.666 20.105 55.6302C19.9866 55.2265 19.9469 54.8198 19.9834 54.3868C20.2161 51.6222 18.5698 48.7091 16.0694 47.4602C16.0162 47.4332 15.9608 47.4098 15.8969 47.3837L15.8376 47.3591C15.7813 47.3351 15.7127 47.3451 15.6672 47.3816C15.6181 47.4195 15.5937 47.4812 15.6037 47.5432L15.6722 47.9671C15.7329 48.3422 15.7923 48.7093 15.8494 49.0767L15.8638 49.1728C16.0243 50.2169 16.1903 51.2967 16.5136 52.334C16.8054 53.2698 17.2556 54.0083 17.8818 54.5742C16.5589 53.7941 15.3262 52.8567 14.2066 51.7785C14.1831 51.7558 14.1552 51.6958 14.1511 51.6464L14.1211 50.9065C14.121 50.8801 14.1206 50.8103 14.1355 50.7758C14.687 49.4911 14.8282 48.045 14.5677 46.3552C14.3164 44.7254 13.6206 43.2266 12.4992 41.9004C12.368 41.7451 12.2522 41.6665 12.155 41.6665C12.1313 41.6665 12.1099 41.6712 12.0931 41.68C12.0415 41.7056 12.0066 41.7553 11.9997 41.8126L11.9697 42.0707C11.9466 42.2623 11.9243 42.4504 11.9043 42.6389C11.8697 42.9708 11.8318 43.3023 11.7937 43.6339L11.7883 43.6818C11.6935 44.5097 11.5953 45.366 11.5434 46.2232C11.483 47.2233 11.5009 48.3913 12.092 49.4718C12.0952 49.4772 12.098 49.483 12.1011 49.4884C11.2795 48.461 10.5294 47.3553 9.86022 46.1836C9.80109 46.0794 9.796 45.9879 9.80705 45.8553C9.8546 45.2944 10.1153 44.8385 10.3899 44.4297C10.9203 43.6381 11.2414 42.7024 11.4311 41.3956C11.6962 39.568 11.4284 37.7347 10.6357 35.9461C10.614 35.8968 10.5885 35.8493 10.5613 35.7982L10.4994 35.6814C10.4697 35.6244 10.4064 35.5868 10.3396 35.5898C10.2729 35.5933 10.2141 35.6356 10.1899 35.697C9.9976 36.1819 9.81162 36.6492 9.62686 37.1129L9.50878 37.4093C9.11471 38.399 8.67274 39.5545 8.41587 40.7468C8.2348 41.5881 8.22375 42.4001 8.38254 43.1731C7.76634 41.7065 7.2598 40.1567 6.87187 38.5497C6.86748 38.5318 6.86608 38.4855 6.9045 38.3786C7.08593 37.8821 7.41631 37.4319 7.83494 37.111C8.75134 36.4081 9.27122 35.4312 9.6588 34.5683C10.4524 32.8036 10.6677 30.9288 10.3168 28.8365C10.3131 28.8146 10.3064 28.7928 10.2985 28.7692L10.2922 28.7502C10.2769 28.7034 10.2422 28.6655 10.1962 28.6456C10.1513 28.6269 10.0948 28.6304 10.0599 28.6476C10.0248 28.6604 9.97163 28.6798 9.93707 28.7306C9.73845 28.9958 9.53685 29.2636 9.33508 29.5312L9.30122 29.5762C8.7924 30.2519 8.26621 30.9502 7.76055 31.6459C7.17471 32.4497 6.76098 33.231 6.49552 34.0346C6.36744 34.4227 6.28375 34.7962 6.24427 35.159C6.07566 33.8552 5.98003 32.5241 5.95915 31.1818C5.95424 30.8615 5.99495 30.6069 6.21374 30.3281C6.44534 30.0308 6.66168 29.8649 6.95995 29.7554C8.1855 29.3076 8.97171 28.3614 9.51966 27.5871C10.4048 26.3345 10.924 24.877 11.1068 23.1313C11.1263 22.9516 11.1374 22.7698 11.1488 22.5775L11.1516 22.5338C11.157 22.4403 11.1628 22.3429 11.1702 22.2398C11.1747 22.1713 11.1381 22.1071 11.0768 22.0761C11.0175 22.0462 10.9415 22.055 10.89 22.0987L10.7445 22.2233C10.6898 22.27 10.6429 22.31 10.5943 22.3489C10.3608 22.5365 10.1264 22.7221 9.89145 22.9083L9.86689 22.9276C9.35122 23.336 8.81784 23.7583 8.30849 24.1945C7.32016 25.0374 6.68378 25.8764 6.30568 26.8353C6.24322 26.9934 6.18847 27.1497 6.14145 27.3045C6.29691 25.7808 6.54938 24.2803 6.89608 22.8246C6.93819 22.6465 6.9617 22.5942 7.0482 22.5658C7.10259 22.5473 7.1533 22.5119 7.19032 22.468C7.44175 22.1822 7.77283 22.137 8.09356 22.1305C9.16384 22.1054 10.0127 21.5715 10.7017 21.0525C12.3912 19.7801 13.5544 16.5517 13.5544 16.4422C13.5544 16.3852 13.526 16.332 13.4777 16.2999C13.4302 16.2685 13.366 16.2641 13.3176 16.2857C12.9656 16.435 12.6136 16.5805 12.2492 16.7312C11.4474 17.0637 10.6184 17.4072 9.82214 17.7829C9.02084 18.162 8.38762 18.6691 7.93495 19.293C8.36639 18.0671 8.86662 16.8652 9.42667 15.7102C9.49106 15.5857 9.79354 15.4534 10.2273 15.4534C10.3683 15.4534 10.505 15.4684 10.6231 15.4969C11.6421 15.7411 12.6526 15.593 13.7709 15.0342C14.9151 14.4622 15.8643 13.527 16.6728 12.1745C16.6882 12.1483 16.7186 12.0685 16.7349 12.0237C16.7554 11.969 16.7472 11.9086 16.7131 11.8628C16.6816 11.8193 16.631 11.7934 16.5666 11.7934C16.5661 11.7934 16.5658 11.7934 16.5652 11.7934L16.1613 11.8188C15.9138 11.8344 15.6734 11.8497 15.433 11.862L15.1763 11.875C14.4099 11.9136 13.6172 11.9532 12.8417 12.138C11.9573 12.3506 11.3079 12.6771 10.81 13.1614C11.3993 12.1804 12.0304 11.247 12.6952 10.3727C12.7131 10.3495 12.7989 10.3141 12.8693 10.3024C12.9044 10.2941 13.0321 10.2673 13.2019 10.2673C13.4272 10.2673 13.6244 10.3131 13.7916 10.405C14.854 10.9245 16.0471 10.9631 17.3425 10.5182C18.405 10.1551 19.305 9.48087 20.0938 8.45744C20.1194 8.42446 20.1426 8.38849 20.1636 8.35059C20.1877 8.30691 20.1892 8.25883 20.1682 8.21497C20.1071 8.08688 19.8429 8.0267 19.7317 8.0067C19.4587 7.95898 19.1493 7.90459 18.8426 7.863C18.7021 7.84335 18.5614 7.82282 18.4203 7.80194L18.4022 7.79914C17.9243 7.7286 17.4302 7.65562 16.9325 7.63053C16.0229 7.58403 15.2153 7.76966 14.5543 8.18058C14.9988 7.70755 15.4528 7.25874 15.9139 6.83712C16.0597 6.70412 16.2247 6.57008 16.4494 6.40182C16.4668 6.38848 16.511 6.37287 16.5652 6.36971C18.1582 6.30742 19.4837 5.6042 20.6172 4.22021C21.2346 3.46681 21.708 2.51654 22.0647 1.31503L22.077 1.2738C22.115 1.14747 22.1361 1.07799 22.0485 0.996577C21.981 0.933764 21.862 0.952363 21.5529 1.07483C21.2722 1.18274 20.9897 1.28748 20.6996 1.39504C20.117 1.61102 19.5143 1.83437 18.9326 2.08668C17.9606 2.50917 17.1844 3.14958 16.6259 3.98984C16.2006 4.62919 16.0325 5.27153 16.1117 5.95019C16.1111 5.95774 16.1045 5.97581 16.1034 5.97792C15.0888 6.85396 14.1189 7.84019 13.123 9.01399C13.7871 7.99863 14.2199 6.82957 14.4371 5.47436C14.6561 4.10809 14.67 2.89202 14.4798 1.75682C14.4677 1.68576 14.4513 1.6147 14.4305 1.52575L14.3994 1.38872C14.3854 1.32994 14.3412 1.28239 14.2831 1.26415C14.225 1.24695 14.1599 1.26222 14.1166 1.30345C14.0471 1.36889 13.979 1.43065 13.9125 1.49066L13.8657 1.53294C13.6955 1.68629 13.5348 1.83104 13.3893 1.99474C11.976 3.5891 11.1517 5.27311 10.8694 7.14311C10.7408 7.98828 10.7942 8.70782 11.0326 9.34226C11.1116 9.55246 11.2347 9.7402 11.3574 9.92653C11.4135 10.0116 11.4697 10.0971 11.5211 10.1848C11.559 10.2478 11.5621 10.2641 11.562 10.2611C11.5386 10.5111 11.5051 10.7898 11.4598 11.1242C11.4579 11.1284 11.4516 11.1382 11.4314 11.1649L11.4151 11.1875C10.6422 12.2618 9.92917 13.3944 9.28753 14.5666C9.53984 13.6911 9.74073 12.5829 9.72652 11.2953C9.70933 9.75072 9.35368 8.37323 8.63888 7.08346C8.61063 7.03328 8.55939 7.00064 8.48763 6.99573C8.43552 6.99573 8.38534 7.02152 8.35253 7.06556C8.33113 7.09539 8.30937 7.12346 8.28867 7.15013C8.24252 7.20979 8.19936 7.26628 8.16076 7.32664C7.59159 8.21918 7.28629 9.2033 7.08364 9.96109C6.71326 11.3509 6.54307 12.5113 6.54798 13.6134C6.55079 14.5501 6.72151 15.2702 7.0854 15.8795C7.19857 16.0692 7.34104 16.2352 7.48421 16.4022C7.56018 16.4908 7.63826 16.5819 7.70897 16.6752C7.75844 16.7401 7.78231 16.8063 7.78371 16.8431C7.79301 17.0653 7.7881 17.2911 7.78336 17.5093L7.78003 17.6602C7.7795 17.6862 7.77353 17.716 7.76459 17.7388C7.3077 18.8458 6.90608 19.9962 6.5636 21.1777C6.61395 20.7754 6.64238 20.3859 6.64957 20.0059C6.69098 17.8488 6.02934 15.9225 4.68254 14.2797L4.40182 13.9378C4.36936 13.8976 4.32128 13.8748 4.27005 13.8748L4.24198 13.8772C4.18197 13.8872 4.13144 13.9288 4.11056 13.9855C4.08494 14.0538 4.05985 14.1181 4.03547 14.1804C3.98844 14.3008 3.94405 14.4148 3.90651 14.5308C3.61753 15.436 3.47577 16.4249 3.44699 17.7366L3.44646 17.7622C3.42488 18.7165 3.39523 20.0238 3.7872 21.2748C4.17302 22.5063 4.85344 23.1286 4.98538 23.2404L4.99942 23.253C5.35857 23.5736 5.59245 23.8668 5.64088 24.0571C5.66035 24.134 5.68018 24.211 5.70334 24.2872C5.80581 24.626 5.74177 24.9488 5.67264 25.2974C5.63825 25.4734 5.60245 25.6552 5.59 25.8417C5.54052 26.5881 5.47981 27.3471 5.42103 28.081L5.41577 28.1489C5.40068 28.3361 5.38559 28.5233 5.37068 28.7106C5.22084 27.0311 4.66465 25.5045 3.70772 24.1543C3.1217 23.3283 2.42304 22.6216 1.63068 22.0533C1.59647 22.0287 1.5605 22.0068 1.51243 21.9782C1.48909 21.9647 1.46207 21.9485 1.42926 21.928C1.37978 21.8983 1.31627 21.8957 1.26521 21.9206C1.21292 21.9461 1.17696 21.9978 1.17099 22.0564C1.16029 22.1626 1.14783 22.2654 1.13467 22.3721C1.10818 22.5905 1.08309 22.7968 1.08203 23.0088C1.07028 25.2058 1.53506 27.2646 2.46392 29.1273C2.72271 29.647 3.06467 30.0965 3.48068 30.4639C3.89317 30.8262 4.3383 31.0399 4.84063 31.1167C4.85168 31.1187 4.878 31.1346 4.88204 31.1378C4.90923 31.1924 4.93748 31.2471 4.96573 31.302C5.06609 31.4959 5.16978 31.6964 5.22137 31.8975C5.26435 32.0675 5.26435 32.2533 5.26435 32.4502C5.26435 32.5223 5.26435 32.5949 5.26663 32.6662C5.31488 34.3681 5.37822 34.9608 5.65053 36.4814C5.48437 36.0293 5.27576 35.5759 5.00643 35.1397C3.91581 33.3745 2.53024 32.1763 0.770603 31.4771C0.658662 31.432 0.546371 31.3996 0.416184 31.3617L0.390216 31.354C0.337404 31.3385 0.281434 31.322 0.221604 31.3038C0.167564 31.2861 0.105979 31.2982 0.0619403 31.3347C0.0180766 31.371 -0.004908 31.4266 0.000882009 31.4845C0.0138657 31.6052 0.0228139 31.7226 0.0310602 31.8372C0.0491321 32.0884 0.0661512 32.3256 0.127034 32.5604C0.694806 34.7534 1.63454 36.5 2.99976 37.9004C3.58349 38.499 4.19864 38.8422 4.88028 38.9497C5.05223 38.9766 5.26242 38.9799 5.61825 38.9578L5.72071 38.9517C5.73633 38.9508 5.75001 38.9499 5.76247 38.9499C5.79054 38.9499 5.79282 38.9499 5.8123 38.9787L6.28901 39.6333C6.29515 39.6419 6.3041 39.673 6.31024 39.6944L6.31726 39.7179C6.81204 41.3952 7.42596 43.0108 8.14988 44.5441C7.82406 44.0944 7.46701 43.6839 7.06908 43.2977C5.23909 41.5221 2.11038 41.4707 1.75964 41.4707L1.71595 41.471L1.68841 41.4761C1.60243 41.5067 1.55594 41.5986 1.58243 41.6851C1.60682 41.7667 1.62963 41.8491 1.65577 41.946C1.70578 42.1279 1.75771 42.3158 1.83053 42.4976C2.17722 43.364 2.73921 44.1974 3.59946 45.1214C4.19057 45.7548 4.85695 46.3971 5.72352 46.8033C6.67255 47.2489 7.52948 47.3577 8.38166 47.1395C8.52658 47.1014 8.69327 47.0531 8.83661 46.9601C8.93873 46.8947 8.96663 46.8968 9.06699 46.9715C9.18594 47.06 9.31245 47.1342 9.43527 47.2061C9.50317 47.246 9.57159 47.2861 9.63546 47.3265C9.64564 47.3351 9.66739 47.3707 9.67546 47.3839C10.4401 48.631 11.2825 49.79 12.192 50.8473C11.7 50.4894 11.1949 50.2304 10.6584 50.058C9.01874 49.5297 7.30016 49.5969 5.59807 50.255C5.34401 50.3534 5.06556 50.5026 5.04696 50.5131C5.00801 50.5387 4.98117 50.5801 4.97275 50.6277C4.96538 50.6743 4.97748 50.7221 5.00591 50.7586C5.05907 50.8277 5.11048 50.8972 5.16136 50.9661L5.17259 50.9812C5.28751 51.1377 5.4177 51.3148 5.56368 51.4716C6.22111 52.1764 7.03189 52.6489 7.8102 53.0546C8.88048 53.6099 9.97497 53.909 11.0635 53.9441C11.1147 53.9459 11.166 53.9469 11.217 53.9469C12.2183 53.9469 13 53.6169 13.6025 52.9419C13.6099 52.9367 13.636 52.9267 13.6504 52.9265C13.8806 52.943 14.0994 52.9765 14.2629 53.0037C14.2887 53.0082 14.3205 53.0237 14.3403 53.0416C15.3469 53.9327 16.4129 54.7149 17.5265 55.3806C17.3578 55.3306 17.1839 55.2871 17.006 55.2521C15.8159 55.0233 14.6014 55.1669 13.2677 55.6967C12.368 56.0554 11.5312 56.5823 10.7096 57.3074C10.6419 57.3669 10.6324 57.4692 10.6882 57.5401C10.9789 57.9101 11.3572 58.1173 11.689 58.271C12.4982 58.647 13.4116 58.8877 14.4824 59.0074C14.4856 59.0076 14.8296 59.0374 15.3121 59.0374C15.6604 59.0374 15.9845 59.0218 16.2748 58.9911C16.5524 58.962 16.8293 58.9144 17.0979 58.8498C18.3317 58.5495 19.1677 57.9319 19.6467 56.973C19.6553 56.9648 19.6922 56.9433 19.7389 56.9319C19.9615 56.8767 20.1619 56.8377 20.3524 56.8123C20.3973 56.8051 20.4533 56.8172 20.5238 56.8456C21.3758 57.1739 22.2775 57.4474 23.202 57.6583C23.215 57.6615 23.2285 57.6631 23.242 57.6631C23.3041 57.6631 23.3613 57.6288 23.3915 57.5731C23.4797 57.4088 23.5873 57.2513 23.711 57.1048C23.7498 57.0586 23.7613 56.9972 23.7422 56.9404C23.724 56.8853 23.6776 56.8435 23.6183 56.8297Z" fill="white"></path><path d="M43.3234 34.1866L50.3732 27.3147C50.6121 27.0817 50.6984 26.7329 50.5951 26.4155C50.4919 26.0978 50.2175 25.8662 49.887 25.8183L40.1452 24.4036L35.7878 15.5759C35.64 15.2764 35.3351 15.0869 35.0012 15.0869C34.6673 15.0869 34.3622 15.2768 34.2146 15.5759L29.8588 24.4036L20.1154 25.8183C19.7851 25.8662 19.5105 26.0979 19.4073 26.4155C19.304 26.7329 19.3901 27.0817 19.6292 27.3147L26.679 34.1866L25.0157 43.8891C24.9592 44.218 25.0945 44.5507 25.3647 44.7469C25.6345 44.9432 25.9925 44.9692 26.2885 44.8137L35.0015 40.2335L43.7146 44.8137C43.8429 44.8813 43.9831 44.9144 44.1226 44.9144C44.3045 44.9144 44.4854 44.8579 44.6382 44.7469C44.9084 44.5509 45.0439 44.218 44.9872 43.8891L43.3234 34.1866Z" fill="white"></path></g><defs><clipPath id="clip0_2038_1320"><rect width="70.0013" height="60" fill="white"></rect></clipPath></defs></svg>