<svg xmlns="http://www.w3.org/2000/svg" width="22" height="22" viewBox="0 0 22 22" fill="none"><g clip-path="url(#clip0_301_2770)"><path d="M19.165 11.0004C19.165 6.49015 15.5092 2.83355 10.999 2.83337C6.4887 2.83337 2.83203 6.49004 2.83203 11.0004C2.83221 15.5105 6.48881 19.1664 10.999 19.1664C15.5091 19.1662 19.1649 15.5104 19.165 11.0004ZM21.165 11.0004C21.1649 16.615 16.6137 21.1662 10.999 21.1664C5.38424 21.1664 0.832207 16.6151 0.832031 11.0004C0.832031 5.38547 5.38413 0.833374 10.999 0.833374C16.6138 0.83355 21.165 5.38558 21.165 11.0004Z" fill="#0B3D2E"></path><path d="M13.665 11.0004C13.665 9.52772 12.4716 8.33355 10.999 8.33337C9.52626 8.33337 8.33203 9.52761 8.33203 11.0004C8.33221 12.473 9.52637 13.6664 10.999 13.6664C12.4715 13.6662 13.6649 12.4729 13.665 11.0004ZM15.665 11.0004C15.6649 13.5774 13.5761 15.6662 10.999 15.6664C8.4218 15.6664 6.33221 13.5775 6.33203 11.0004C6.33203 8.42304 8.42169 6.33337 10.999 6.33337C13.5762 6.33355 15.665 8.42315 15.665 11.0004Z" fill="#0B3D2E"></path><path d="M19.4062 6.33337C19.9583 6.3336 20.4062 6.78123 20.4062 7.33337C20.4062 7.88552 19.9583 8.33315 19.4062 8.33337H11C10.4477 8.33337 10 7.88566 10 7.33337C10 6.78109 10.4477 6.33337 11 6.33337H19.4062Z" fill="#0B3D2E"></path><path d="M3.12124 4.68887C3.5993 4.41291 4.21116 4.57713 4.48745 5.05508L8.69449 12.3334C8.97061 12.8115 8.80728 13.4233 8.32925 13.6996C7.85126 13.9758 7.23952 13.8122 6.96304 13.3344L2.75503 6.05508C2.47908 5.57702 2.64329 4.96517 3.12124 4.68887Z" fill="#0B3D2E"></path><path d="M13.3049 12.3333C13.5809 11.8551 14.1927 11.6912 14.6711 11.9671C15.1493 12.2431 15.3132 12.855 15.0373 13.3333L10.839 20.6116C10.563 21.0898 9.95115 21.2538 9.47283 20.9779C8.99464 20.7018 8.83072 20.09 9.10662 19.6116L13.3049 12.3333Z" fill="#0B3D2E"></path></g><defs><clipPath id="clip0_301_2770"><rect width="22" height="22" fill="white"></rect></clipPath></defs></svg>