<svg xmlns="http://www.w3.org/2000/svg" width="30" height="30" viewBox="0 0 30 30" fill="none"><g clip-path="url(#clip0_2038_1356)"><path d="M29.9785 1.19845C29.9595 0.75613 29.6144 0.396951 29.1732 0.360271L29.1457 0.357986C26.1562 0.111482 23.1911 0.443005 20.3331 1.34324C17.4122 2.2634 14.7434 3.73029 12.4012 5.70326C11.9948 6.04556 11.6029 6.40111 11.2236 6.76767C10.2928 6.20775 9.20622 5.94179 8.11017 6.01533C6.82005 6.10187 5.60546 6.65353 4.69028 7.56871L0.257432 12.0016C-0.0858105 12.3449 -0.0858105 12.9013 0.257432 13.2446L0.778506 13.7656C2.2086 15.1957 4.08665 15.9957 6.06665 16.0485L5.73501 18.215C5.69265 18.4915 5.78452 18.7717 5.98233 18.9695L10.7517 23.7388C10.9177 23.9048 11.1418 23.9962 11.3731 23.9962C11.4173 23.9962 11.4618 23.9929 11.5061 23.9861L13.6733 23.6543C13.7262 25.6343 14.5257 27.5128 15.9554 28.9426L16.4765 29.4637C16.6482 29.6353 16.8731 29.7211 17.098 29.7211C17.3229 29.7211 17.5479 29.6353 17.7194 29.4637L22.1522 25.0308C23.8581 23.3249 24.198 20.7369 23.0555 18.6737C23.5023 18.2368 23.9335 17.7817 24.3465 17.3065C26.279 15.0828 27.7501 12.5447 28.7191 9.76275C29.6803 7.00345 30.1039 4.12199 29.9785 1.19845ZM28.2417 2.06066C28.2543 4.0157 27.9995 5.94607 27.4825 7.824L22.2839 2.62551C24.2344 2.1557 26.23 1.96597 28.2417 2.06066ZM2.12294 12.6219L5.93317 8.81172C7.00409 7.7408 8.62843 7.47941 9.96202 8.08668C8.67284 9.54806 7.57544 11.1684 6.68452 12.9314L6.54577 13.206C6.50394 13.2887 6.47546 13.3777 6.46145 13.4694L6.33548 14.2925C4.76845 14.3065 3.2705 13.7182 2.12294 12.6219ZM7.53993 18.0412L7.90907 15.6296C7.93843 15.5894 7.96497 15.5471 7.98724 15.5023L14.2242 21.7393C14.1826 21.7596 14.1432 21.7835 14.1054 21.8099L11.68 22.1812L7.53993 18.0412ZM20.9094 23.7879L17.0992 27.5982C16.0033 26.451 15.4148 24.9525 15.4287 23.3856L16.2518 23.2596C16.3435 23.2456 16.4324 23.2172 16.5151 23.1753L17.3484 22.7543C18.9134 21.9635 20.367 21.0077 21.698 19.8994C22.2353 21.2106 21.9525 22.7448 20.9094 23.7879ZM16.5556 21.1854L16.2903 21.3195L8.40472 13.4339C10.9205 8.64384 15.2406 4.94136 20.3581 3.18543L26.8722 9.69953C24.987 14.7018 21.3412 18.7671 16.5556 21.1854Z" fill="white"></path><path d="M15.5938 9.52206C14.2278 10.8881 14.2278 13.1107 15.5938 14.4768C16.2768 15.1598 17.174 15.5013 18.0712 15.5013C18.9683 15.5013 19.8656 15.1598 20.5485 14.4767C21.9145 13.1107 21.9145 10.8881 20.5485 9.52206C19.1825 8.15606 16.9598 8.15606 15.5938 9.52206ZM19.3056 13.2338C18.6249 13.9144 17.5174 13.9144 16.8368 13.2338C16.1562 12.5531 16.1562 11.4456 16.8368 10.7649C17.1772 10.4246 17.6241 10.2545 18.0712 10.2545C18.5182 10.2545 18.9653 10.4246 19.3056 10.7649C19.9862 11.4457 19.9862 12.5532 19.3056 13.2338Z" fill="white"></path><path d="M7.21415 22.7501C6.87097 22.4069 6.31444 22.4068 5.9712 22.7501L3.14317 25.5782C2.79993 25.9214 2.79993 26.4779 3.14317 26.8211C3.31479 26.9927 3.53974 27.0785 3.76462 27.0785C3.9895 27.0785 4.2145 26.9927 4.38606 26.8211L7.21409 23.993C7.55745 23.6498 7.55745 23.0933 7.21415 22.7501Z" fill="white"></path><path d="M4.69565 20.2325C4.35247 19.8893 3.79595 19.8893 3.45271 20.2325L0.624619 23.0606C0.281377 23.4039 0.281377 23.9603 0.624619 24.3036C0.79624 24.4752 1.02118 24.561 1.24606 24.561C1.47095 24.561 1.69595 24.4752 1.86751 24.3036L4.6956 21.4755C5.0389 21.1322 5.0389 20.5758 4.69565 20.2325Z" fill="white"></path><path d="M8.48884 25.2677L5.66075 28.0958C5.31751 28.4391 5.31751 28.9955 5.66075 29.3388C5.83237 29.5104 6.05731 29.5962 6.2822 29.5962C6.50708 29.5962 6.73208 29.5104 6.90364 29.3388L9.73173 26.5107C10.075 26.1674 10.075 25.611 9.73173 25.2677C9.38855 24.9244 8.83208 24.9244 8.48884 25.2677Z" fill="white"></path></g><defs><clipPath id="clip0_2038_1356"><rect width="30" height="30" fill="white"></rect></clipPath></defs></svg>