<svg xmlns="http://www.w3.org/2000/svg" width="53" height="50" viewBox="0 0 53 50" fill="none"><path d="M25.0467 23.894C25.0467 25.454 23.9152 26.7549 22.4272 27.0223V28.2517C22.4272 28.7099 22.0552 29.081 21.596 29.081C21.1367 29.081 20.7647 28.7099 20.7647 28.2517V27.0534C19.8794 26.9539 19.0638 26.4823 18.5338 25.7515C18.2647 25.3804 18.3489 24.8621 18.7209 24.5937C19.0929 24.3252 19.6124 24.4092 19.8815 24.7802C20.1693 25.1783 20.6317 25.4157 21.118 25.4157H21.8599C22.7005 25.4157 23.3842 24.7336 23.3842 23.895C23.3842 23.0564 22.7005 22.3744 21.8599 22.3744H21.3331C19.576 22.3744 18.1463 20.948 18.1463 19.1952C18.1463 17.6352 19.2778 16.3343 20.7658 16.0668V14.8375C20.7658 14.3793 21.1377 14.0082 21.597 14.0082C22.0563 14.0082 22.4283 14.3793 22.4283 14.8375V16.0357C23.3125 16.1353 24.1282 16.6069 24.6591 17.3377C24.9283 17.7088 24.8451 18.2271 24.4732 18.4955C24.1012 18.764 23.5816 18.6811 23.3125 18.31C23.0237 17.9119 22.5623 17.6746 22.076 17.6746H21.3341C20.4935 17.6746 19.8098 18.3566 19.8098 19.1952C19.8098 20.0338 20.4935 20.7159 21.3341 20.7159H21.8609C23.617 20.7148 25.0467 22.1411 25.0467 23.894ZM50.6753 45.4204C48.3821 48.4161 45.1724 50 41.3933 50H33.965C30.1859 50 26.9763 48.4161 24.683 45.4184C24.1095 44.6689 23.6429 43.8915 23.2813 43.0882H18.1317C17.6725 43.0882 17.3005 42.7171 17.3005 42.2589V39.4581C15.4021 39.0072 13.6045 38.264 11.9389 37.2409L9.95219 39.2228C9.628 39.5462 9.10119 39.5462 8.777 39.2228L3.87676 34.3343C3.55257 34.0109 3.55257 33.4854 3.87676 33.162L5.86346 31.18C4.8379 29.5194 4.09289 27.7251 3.64089 25.8313H0.831254C0.371986 25.8313 0 25.4602 0 25.0021V18.0882C0 17.63 0.371986 17.2589 0.831254 17.2589H3.63985C4.09185 15.3651 4.83686 13.5718 5.86242 11.9102L3.87572 9.92827C3.71986 9.77278 3.63258 9.56132 3.63258 9.34157C3.63258 9.12182 3.71986 8.91036 3.87572 8.75487L8.77596 3.86641C8.93182 3.71092 9.14379 3.62385 9.36407 3.62385C9.58436 3.62385 9.79633 3.71092 9.95219 3.86641L11.9389 5.84833C13.6035 4.82523 15.4021 4.08201 17.3005 3.63111V0.829256C17.3005 0.371092 17.6725 0 18.1317 0H25.0623C25.5216 0 25.8936 0.371092 25.8936 0.829256V3.63111C27.7919 4.08201 29.5895 4.82523 31.2551 5.84833L33.2418 3.86641C33.3977 3.71092 33.6097 3.62385 33.83 3.62385C34.0502 3.62385 34.2622 3.71092 34.4181 3.86641L39.3183 8.75487C39.6425 9.07828 39.6425 9.60382 39.3183 9.92723L37.3316 11.9092C37.6236 12.3829 37.8948 12.8711 38.1421 13.3686C40.2545 13.5314 41.0452 14.8033 41.5305 15.5838C41.6458 15.7683 41.8162 16.044 41.9066 16.1114C41.9274 16.1104 41.9773 16.1031 42.0666 16.0699C44.9667 15.0012 46.2842 14.9131 46.9274 15.7465C47.6132 16.6328 46.8983 17.9067 46.0244 19.1506C45.6182 19.729 45.3511 20.124 45.1516 20.4515C46.1013 20.7853 46.783 21.6882 46.783 22.7475C46.783 23.5768 46.3653 24.3096 45.7283 24.7492C48.0163 27.0845 50.6649 30.3373 52.0427 33.9539C53.6772 38.2411 53.2169 42.0993 50.6753 45.4204ZM29.63 24.7492C28.9941 24.3096 28.5764 23.5768 28.5764 22.7475C28.5764 21.6882 29.2591 20.7853 30.2078 20.4515C30.0093 20.124 29.7412 19.729 29.3349 19.1506C28.4611 17.9067 27.7473 16.6328 28.432 15.7465C28.7406 15.3475 29.2051 15.1598 29.9241 15.1909C27.9613 12.6234 24.9106 11.0882 21.596 11.0882C15.8167 11.0882 11.1139 15.7787 11.1139 21.5451C11.1139 27.3116 15.8156 32.002 21.596 32.002C22.5467 32.002 23.486 31.8745 24.3931 31.6247C25.8437 28.9493 27.846 26.5704 29.63 24.7492ZM44.3443 23.5229C44.7724 23.5229 45.1215 23.1756 45.1215 22.7475C45.1215 22.3194 44.7734 21.9722 44.3443 21.9722H31.0162C30.5881 21.9722 30.2389 22.3194 30.2389 22.7475C30.2389 23.1756 30.587 23.5229 31.0162 23.5229H44.3443ZM37.6797 15.0106C36.1429 15.0106 35.7055 15.7144 35.2431 16.4587C34.8462 17.0972 34.1812 18.1669 32.7182 17.6269C31.064 17.0174 30.2639 16.8733 29.8981 16.8505C29.9927 17.0868 30.2088 17.5046 30.6982 18.2001C31.4214 19.2304 31.7601 19.7591 32.0251 20.3147H43.3364C43.6013 19.7591 43.9401 19.2304 44.6633 18.2001C45.1527 17.5035 45.3678 17.0858 45.4634 16.8505C45.0976 16.8733 44.2975 17.0174 42.6433 17.6269C41.1793 18.1659 40.5153 17.0972 40.1184 16.4587C39.6539 15.7134 39.2165 15.0106 37.6797 15.0106ZM22.6953 41.4296C22.0937 39.1212 22.2994 36.62 23.3167 33.9529C23.3728 33.8046 23.432 33.6585 23.4923 33.5113C22.8678 33.6087 22.235 33.6595 21.597 33.6595C14.9002 33.6595 9.4524 28.2248 9.4524 21.5441C9.4524 14.8634 14.9002 9.42864 21.597 9.42864C26.0525 9.42864 30.0966 11.8231 32.2371 15.7009C32.5644 15.8077 32.9156 15.93 33.2948 16.0699C33.3832 16.1021 33.433 16.1093 33.4548 16.1114C33.5452 16.044 33.7157 15.7693 33.831 15.5838C34.2425 14.9225 34.8742 13.9077 36.3435 13.5148C36.1066 13.0836 35.852 12.6617 35.5797 12.2543C35.3595 11.9257 35.4031 11.4873 35.6837 11.2074L37.556 9.3395L33.831 5.62339L31.9576 7.49233C31.677 7.7722 31.2385 7.81574 30.9081 7.59599C29.0752 6.37594 27.0532 5.53943 24.8992 5.11133C24.5106 5.03358 24.23 4.69359 24.23 4.29762V1.65851H18.9619V4.29762C18.9619 4.69359 18.6824 5.03358 18.2928 5.11133C16.1378 5.54047 14.1157 6.37594 12.2839 7.59599C11.9545 7.81574 11.5149 7.7722 11.2344 7.49233L9.36407 5.62443L5.63902 9.34053L7.51142 11.2084C7.79197 11.4883 7.83457 11.9257 7.61532 12.2554C6.39234 14.0839 5.55381 16.101 5.12468 18.2499C5.04675 18.6375 4.70594 18.9174 4.30901 18.9174H1.66251V24.1728H4.30797C4.7049 24.1728 5.04571 24.4517 5.12364 24.8404C5.55381 26.9902 6.3913 29.0074 7.61428 30.8349C7.83457 31.1634 7.79093 31.6019 7.51038 31.8818L5.63798 33.7497L9.36304 37.4658L11.2354 35.5979C11.516 35.318 11.9545 35.2745 12.2849 35.4942C14.1178 36.7143 16.1398 37.5508 18.2938 37.9789C18.6824 38.0566 18.963 38.3966 18.963 38.7926V41.4317H22.6953V41.4296ZM50.4893 34.5427C49.0627 30.7986 46.119 27.4225 43.8092 25.1814H31.5492C29.2404 27.4225 26.2967 30.7975 24.8701 34.5416C23.4538 38.2567 23.8362 41.5779 26.0047 44.4118C27.9717 46.9825 30.7242 48.3405 33.9661 48.3405H41.3944C44.6352 48.3405 47.3877 46.9825 49.3547 44.4129C51.5232 41.5799 51.9056 38.2588 50.4893 34.5427ZM37.9499 35.7347H37.4095C36.5346 35.7347 35.8239 35.0247 35.8239 34.1529C35.8239 33.2801 36.5357 32.5711 37.4095 32.5711H38.1701C38.6751 32.5711 39.1562 32.8178 39.4565 33.2314C39.7256 33.6025 40.2452 33.6854 40.6171 33.417C40.9891 33.1485 41.0723 32.6302 40.8031 32.2591C40.2587 31.5086 39.4191 31.0266 38.5099 30.9302V29.6812C38.5099 29.223 38.1379 28.8519 37.6787 28.8519C37.2194 28.8519 36.8474 29.223 36.8474 29.6812V30.9603C35.3231 31.2267 34.1604 32.5566 34.1604 34.1519C34.1604 35.9389 35.6171 37.3922 37.4085 37.3922H37.9488C38.8237 37.3922 39.5344 38.1022 39.5344 38.974C39.5344 39.8458 38.8227 40.5558 37.9488 40.5558H37.1882C36.6832 40.5558 36.2021 40.3091 35.9019 39.8955C35.6327 39.5244 35.1132 39.4415 34.7412 39.71C34.3692 39.9784 34.2861 40.4967 34.5552 40.8678C35.0997 41.6183 35.9382 42.1003 36.8474 42.1967V43.4458C36.8474 43.9039 37.2194 44.275 37.6787 44.275C38.1379 44.275 38.5099 43.9039 38.5099 43.4458V42.1666C40.0342 41.9002 41.1969 40.5703 41.1969 38.975C41.198 37.189 39.7412 35.7347 37.9499 35.7347Z" fill="#0B3D2E"></path></svg>