<svg xmlns="http://www.w3.org/2000/svg" width="104" height="20" viewBox="0 0 104 20" fill="none"><path d="M10 0L12.2451 6.90983H19.5106L13.6327 11.1803L15.8779 18.0902L10 13.8197L4.12215 18.0902L6.36729 11.1803L0.489435 6.90983H7.75486L10 0Z" fill="white"></path><path d="M31 0L33.2451 6.90983H40.5106L34.6327 11.1803L36.8779 18.0902L31 13.8197L25.1221 18.0902L27.3673 11.1803L21.4894 6.90983H28.7549L31 0Z" fill="white"></path><path d="M52 0L54.2451 6.90983H61.5106L55.6327 11.1803L57.8779 18.0902L52 13.8197L46.1221 18.0902L48.3673 11.1803L42.4894 6.90983H49.7549L52 0Z" fill="white"></path><path d="M73 0L75.2451 6.90983H82.5106L76.6327 11.1803L78.8779 18.0902L73 13.8197L67.1221 18.0902L69.3673 11.1803L63.4894 6.90983H70.7549L73 0Z" fill="white"></path><path d="M94 0L96.2451 6.90983H103.511L97.6327 11.1803L99.8779 18.0902L94 13.8197L88.1221 18.0902L90.3673 11.1803L84.4894 6.90983H91.7549L94 0Z" fill="white"></path></svg>