<svg xmlns="http://www.w3.org/2000/svg" width="20" height="22" viewBox="0 0 20 22" fill="none"><g clip-path="url(#clip0_301_2654)"><path d="M17.25 5.49969C17.2498 5.03972 16.877 4.66686 16.417 4.66669H3.58301C3.12303 4.66686 2.75018 5.03972 2.75 5.49969V18.3337C2.75018 18.7937 3.12303 19.1665 3.58301 19.1667H16.417C16.877 19.1665 17.2498 18.7937 17.25 18.3337V5.49969ZM19.25 18.3337C19.2498 19.8982 17.9815 21.1665 16.417 21.1667H3.58301C2.01846 21.1665 0.750176 19.8982 0.75 18.3337V5.49969C0.750176 3.93515 2.01846 2.66686 3.58301 2.66669H16.417C17.9815 2.66686 19.2498 3.93515 19.25 5.49969V18.3337Z" fill="#0B3D2E"></path><path d="M12.668 5.50031V1.83331C12.668 1.28103 13.1157 0.833313 13.668 0.833313C14.2203 0.833313 14.668 1.28103 14.668 1.83331V5.50031C14.6678 6.05244 14.2201 6.50031 13.668 6.50031C13.1158 6.50031 12.6681 6.05244 12.668 5.50031Z" fill="#0B3D2E"></path><path d="M5.33203 5.50031V1.83331C5.33203 1.28103 5.77975 0.833313 6.33203 0.833313C6.88432 0.833313 7.33203 1.28103 7.33203 1.83331V5.50031C7.33186 6.05244 6.88421 6.50031 6.33203 6.50031C5.77986 6.50031 5.33221 6.05244 5.33203 5.50031Z" fill="#0B3D2E"></path><path d="M18.25 8.16669C18.8023 8.16669 19.25 8.6144 19.25 9.16669C19.25 9.71897 18.8023 10.1667 18.25 10.1667H1.75C1.19772 10.1667 0.75 9.71897 0.75 9.16669C0.75 8.6144 1.19772 8.16669 1.75 8.16669H18.25Z" fill="#0B3D2E"></path></g><defs><clipPath id="clip0_301_2654"><rect width="20" height="22" fill="white"></rect></clipPath></defs></svg>