<svg xmlns="http://www.w3.org/2000/svg" width="18" height="18" viewBox="0 0 18 18" fill="none"><g clip-path="url(#clip0_2036_330)"><path d="M15 7.5C15 5.9087 14.3674 4.38303 13.2422 3.25781C12.117 2.13259 10.5913 1.5 9 1.5C7.4087 1.5 5.88303 2.13259 4.75781 3.25781C3.63259 4.38303 3 5.9087 3 7.5C3 9.82354 4.51226 12.0784 6.16992 13.8281C6.98316 14.6865 7.79872 15.3895 8.41211 15.8779C8.64014 16.0595 8.84037 16.2102 9 16.3281C9.15963 16.2102 9.35986 16.0595 9.58789 15.8779C10.2013 15.3895 11.0168 14.6865 11.8301 13.8281C13.4877 12.0784 15 9.82354 15 7.5ZM16.5 7.5C16.5 10.4263 14.6372 13.0466 12.9199 14.8594C12.0459 15.7819 11.1736 16.5325 10.5215 17.0518C10.1951 17.3116 9.92234 17.515 9.72949 17.6543C9.63311 17.7239 9.55619 17.7776 9.50293 17.8145C9.47629 17.8329 9.45503 17.8475 9.44043 17.8574C9.43331 17.8623 9.42791 17.8664 9.42383 17.8691C9.42196 17.8704 9.42015 17.8713 9.41895 17.8721L9.41699 17.873L9.41602 17.874C9.19551 18.021 8.91672 18.0391 8.68164 17.9287L8.58398 17.874L8.58105 17.8721C8.57985 17.8713 8.57804 17.8704 8.57617 17.8691C8.57209 17.8664 8.56669 17.8623 8.55957 17.8574C8.54497 17.8475 8.52371 17.8329 8.49707 17.8145C8.44381 17.7776 8.36689 17.7239 8.27051 17.6543C8.07766 17.515 7.80487 17.3116 7.47852 17.0518C6.8264 16.5325 5.95408 15.7819 5.08008 14.8594C3.36282 13.0466 1.5 10.4263 1.5 7.5C1.5 5.51088 2.28977 3.60281 3.69629 2.19629C5.10281 0.789766 7.01088 0 9 0C10.9891 0 12.8972 0.789766 14.3037 2.19629C15.7102 3.60281 16.5 5.51088 16.5 7.5Z" fill="white"></path><path d="M10.5 7.5C10.5 6.67157 9.82843 6 9 6C8.17157 6 7.5 6.67157 7.5 7.5C7.5 8.32843 8.17157 9 9 9C9.82843 9 10.5 8.32843 10.5 7.5ZM12 7.5C12 9.15685 10.6569 10.5 9 10.5C7.34315 10.5 6 9.15685 6 7.5C6 5.84315 7.34315 4.5 9 4.5C10.6569 4.5 12 5.84315 12 7.5Z" fill="white"></path></g><defs><clipPath id="clip0_2036_330"><rect width="18" height="18" fill="white"></rect></clipPath></defs></svg>