<svg xmlns="http://www.w3.org/2000/svg" width="18" height="18" viewBox="0 0 18 18" fill="none"><path d="M15.9697 0.969731C16.2626 0.676838 16.7374 0.676838 17.0303 0.969731C17.3232 1.26262 17.3232 1.73738 17.0303 2.03028L8.78028 10.2803C8.48738 10.5732 8.01262 10.5732 7.71973 10.2803C7.42684 9.98739 7.42684 9.51262 7.71973 9.21973L15.9697 0.969731Z" fill="white"></path><path d="M16.252 0.791999C16.5239 0.69682 16.8266 0.766005 17.0303 0.969734C17.234 1.17346 17.3032 1.47611 17.208 1.74805L11.958 16.7481C11.8564 17.0382 11.5875 17.2365 11.2803 17.249C10.9731 17.2614 10.6893 17.0856 10.5645 16.8047L7.68165 10.3184L1.19532 7.43555C0.914395 7.3107 0.738568 7.02688 0.750983 6.71973C0.763516 6.41255 0.961828 6.14365 1.25196 6.042L16.252 0.791999ZM3.53321 6.83204L8.55469 9.06446L8.67481 9.13184C8.78823 9.20978 8.87895 9.31795 8.93555 9.44532L11.167 14.4658L15.2764 2.72266L3.53321 6.83204Z" fill="white"></path></svg>