<svg xmlns="http://www.w3.org/2000/svg" width="53" height="50" viewBox="0 0 53 50" fill="none"><path d="M15.902 41.4043C18.5245 41.4043 21.0486 40.7709 23.3045 39.5836L27.3718 46.5514C29.507 50.4646 35.3156 51.1987 38.3878 47.9733C41.6302 44.9122 40.8797 39.1224 36.9618 36.9867C36.9619 36.9867 29.9578 32.92 29.9578 32.92C31.9567 29.1046 32.3733 24.549 30.9342 20.3787C30.6884 19.3977 29.1878 19.5823 29.1953 20.6054C32.4759 29.7491 25.7435 39.7114 15.9019 39.6423C8.30847 39.7984 1.61193 33.1216 1.76962 25.5472C1.6239 15.9212 11.7065 8.91607 20.724 12.2981C21.8161 12.6816 22.4128 11.0507 21.3259 10.6419C11.1842 6.83733 -0.163011 14.7185 0.00303784 25.5475C-0.173363 34.0675 7.35827 41.5809 15.902 41.4043ZM27.1436 36.7587C27.8626 36.0416 28.4954 35.2591 29.0534 34.4334L36.0726 38.5094C39.0038 40.1065 39.5643 44.4381 37.1387 46.7278C34.8418 49.1393 30.4937 48.5901 28.8985 45.6652C28.8985 45.6653 24.8176 38.6739 24.8176 38.6739C25.6421 38.1141 26.4228 37.4776 27.1436 36.7587Z" fill="#0B3D2E"></path><path d="M20.129 16.8174C21.1791 17.3054 21.9355 15.751 20.8975 15.231C16.5087 13.116 11.237 14.0055 7.77767 17.4458C0.566758 24.6259 5.80425 37.0677 15.9021 36.9925C25.0665 37.0929 30.71 26.436 25.2784 18.9323C24.6035 17.9965 23.175 19.0084 23.8381 19.9519C26.5815 23.809 26.1351 29.0461 22.778 32.4029C18.986 36.1753 12.8177 36.1745 9.02841 32.4046C1.45317 24.5579 10.2253 12.2547 20.129 16.8174Z" fill="#0B3D2E"></path><path d="M15.3312 26.2201C15.702 26.5331 16.2603 26.4892 16.5764 26.116L24.09 17.2581C25.2652 17.8775 26.8731 17.6602 27.8508 16.8033L32.8052 20.3958C32.2607 22.0412 33.6021 23.8147 35.3341 23.7854C37.2715 23.8358 38.626 21.6081 37.6751 19.9308L46.8168 10.1639V13.2142C46.8349 14.3693 48.564 14.3742 48.5833 13.2141V7.92855C48.564 7.44356 48.1802 7.06831 47.7 7.04761H42.4003C41.2418 7.06664 41.2372 8.78965 42.4004 8.80949C42.4003 8.80949 45.6666 8.80949 45.6666 8.80949L36.3893 18.7213C35.5926 18.3523 34.5362 18.461 33.8364 18.9659L28.8981 15.3851C29.8471 13.153 28.0559 10.5202 25.618 10.5714C22.8231 10.4856 21.0646 13.9248 22.7382 16.1232L15.2273 24.9787C14.9125 25.3495 14.959 25.9061 15.3312 26.2201ZM35.3341 20.2617C36.4949 20.2823 36.4947 22.0032 35.334 22.0236C34.1733 22.003 34.1734 20.2821 35.3341 20.2617ZM25.618 12.3332C27.022 12.2897 27.9002 14.0249 27.0481 15.1211C26.1006 16.4974 23.8206 15.7792 23.8514 14.0951C23.8514 13.1234 24.6437 12.3332 25.618 12.3332Z" fill="#0B3D2E"></path><path d="M47.6999 0H15.0184C12.096 0 9.71875 2.37097 9.71875 5.28565V8.75651C9.73503 9.9157 11.4742 9.90532 11.4853 8.75645V5.28565C11.4853 3.34267 13.0703 1.76188 15.0184 1.76188H47.6999C49.6485 1.76188 51.2331 3.34267 51.2331 5.28565V31.7139C51.2331 33.6573 49.6485 35.2377 47.6999 35.2377H38.8145C38.3263 35.2377 37.9312 35.6317 37.9312 36.1186C37.9312 36.6055 38.3263 36.9995 38.8145 36.9995H47.6999C50.6223 36.9995 52.9996 34.6286 52.9996 31.7139V5.28565C52.9996 2.37097 50.6223 0 47.6999 0Z" fill="#0B3D2E"></path><path d="M38.8677 30.833C37.7095 30.8512 37.7043 32.5756 38.8677 32.5949H48.5838C49.742 32.5767 49.7472 30.8523 48.5838 30.833H38.8677Z" fill="#0B3D2E"></path><path d="M48.5835 27.3092H43.2838C42.1242 27.3279 42.1215 29.0519 43.2838 29.0711H48.5835C49.7431 29.0524 49.7458 27.3283 48.5835 27.3092Z" fill="#0B3D2E"></path><path d="M21.2015 6.16655C22.3603 6.14751 22.3641 4.4244 21.2015 4.40466H14.1352C12.9763 4.4237 12.9726 6.14676 14.1352 6.16655H21.2015Z" fill="#0B3D2E"></path></svg>