<svg xmlns="http://www.w3.org/2000/svg" width="49" height="50" viewBox="0 0 49 50" fill="none"><path d="M43.0676 10.9372L46.3928 10.053C46.8145 9.94097 47.2477 10.1893 47.3608 10.6076C47.4737 11.026 47.2235 11.456 46.8019 11.5682L43.4768 12.4524C43.4084 12.4706 43.3394 12.4793 43.2717 12.4793C42.9227 12.4793 42.6034 12.2482 42.5088 11.8978C42.3957 11.4795 42.646 11.0494 43.0676 10.9372ZM40.8938 8.3911C41.096 8.3911 41.2984 8.31453 41.4527 8.1614L43.8868 5.74585C44.1954 5.43949 44.1955 4.94303 43.8868 4.63666C43.5782 4.33049 43.0778 4.33039 42.7691 4.63666L40.3349 7.0523C40.0263 7.35857 40.0263 7.85513 40.3349 8.1614C40.4892 8.31453 40.6916 8.3911 40.8938 8.3911ZM46.8018 16.5418L43.4766 15.6576C43.055 15.5458 42.6217 15.7939 42.5087 16.2122C42.3957 16.6306 42.646 17.0606 43.0675 17.1728L46.3926 18.057C46.4612 18.0752 46.5299 18.0839 46.5977 18.0839C46.9466 18.0839 47.266 17.8528 47.3607 17.5024C47.4737 17.084 47.2234 16.6539 46.8018 16.5418ZM48.8042 46.2323C48.5629 46.5734 48.156 46.7397 47.7422 46.6658L44.3235 46.0575L43.1451 49.2998C43.0024 49.6923 42.6539 49.9588 42.2356 49.9957C42.2028 49.9985 42.1702 50 42.1379 50C41.7572 50 41.4106 49.8028 41.2169 49.47L38.1364 44.1753C37.6902 44.3577 37.1958 44.4567 36.6837 44.4567C36.6836 44.4567 36.6838 44.4567 36.6837 44.4567C36.1714 44.4567 35.6771 44.3577 35.2308 44.1754L32.1504 49.4701C31.9567 49.8029 31.61 50 31.2294 50C31.197 50 31.1645 49.9985 31.1317 49.9957C30.7134 49.9588 30.365 49.6923 30.2222 49.3001L29.0437 46.0575L25.6249 46.6658C25.2112 46.7398 24.8044 46.5735 24.563 46.2323C24.3215 45.8913 24.3021 45.455 24.5123 45.0939L28.0889 38.9463C27.9997 38.8615 27.89 38.794 27.7615 38.7499C26.7818 38.4133 25.986 37.5681 25.6327 36.489C25.2794 35.4098 25.4227 34.2619 26.0159 33.4183C26.2327 33.1099 26.2326 32.7419 26.0158 32.4334C25.4227 31.5899 25.2795 30.4419 25.6329 29.3628C25.8952 28.5618 26.4016 27.8902 27.0456 27.4594L17.0994 27.0189L16.7153 27.121L19.1109 35.9932C19.2435 36.4844 19.175 36.998 18.9182 37.4397C18.6612 37.8812 18.2472 38.1969 17.7522 38.3285L15.4808 38.9325C15.3148 38.9765 15.1481 38.9976 14.984 38.9976C14.1356 38.9976 13.3571 38.435 13.1275 37.5841L10.7318 28.712L10.714 28.7167C10.4433 28.7886 10.171 28.8231 9.90316 28.8231C8.73859 28.8231 7.65721 28.1721 7.11889 27.1394C6.63777 27.2648 6.15428 27.3251 5.67839 27.3251C3.17222 27.3251 0.872827 25.6632 0.194023 23.1494C-0.613409 20.1589 1.17325 17.075 4.17882 16.2589C4.11174 14.8298 5.05146 13.4933 6.49956 13.1082L12.8848 11.4104L25.2725 3.56217C25.2521 2.92669 25.4098 2.29524 25.7394 1.72858C26.2051 0.928105 26.9544 0.356254 27.8491 0.118317C28.7437 -0.11962 29.6809 0.00380939 30.4876 0.466055C31.2942 0.928203 31.8705 1.67172 32.1102 2.55964L33.6335 8.201C34.3083 8.14934 34.9915 8.21041 35.6509 8.38571C38.845 9.2351 40.7472 12.5047 39.8914 15.6743C39.4335 17.3701 38.2588 18.7582 36.6854 19.5036L37.2059 21.431C38.1428 21.5558 38.9798 22.0119 39.5084 22.7056C39.7368 23.0054 40.0895 23.1192 40.4523 23.0099C41.4444 22.7109 42.5888 22.9305 43.5138 23.5975C44.4388 24.2644 45.0028 25.2767 45.0225 26.3053C45.0297 26.681 45.2479 26.9789 45.606 27.1019C46.5856 27.4386 47.3814 28.2838 47.7347 29.3629C48.088 30.442 47.9447 31.59 47.3516 32.4336C47.1348 32.7419 47.1348 33.11 47.3517 33.4185C47.9448 34.2621 48.088 35.41 47.7347 36.4892C47.3813 37.5683 46.5856 38.4134 45.606 38.75C45.606 38.75 45.606 38.75 45.6059 38.75C45.4774 38.7942 45.3677 38.8617 45.2785 38.9464L48.8552 45.094C49.0651 45.4551 49.0457 45.8914 48.8042 46.2323ZM34.0525 9.75284L36.2664 17.9523C37.2925 17.3794 38.0534 16.4205 38.3645 15.2683C38.9948 12.9341 37.5939 10.5263 35.2418 9.90077C34.8523 9.79735 34.4518 9.74901 34.0525 9.75284ZM26.9158 3.94069L32.0297 22.8802C32.3315 22.8821 32.6298 22.9239 32.9152 23.0099C33.2776 23.1189 33.6304 23.0054 33.8591 22.7055C34.2795 22.1537 34.8953 21.7524 35.6009 21.5481L30.5833 2.96561C30.4528 2.48229 30.1381 2.0771 29.6971 1.82436C29.2561 1.57172 28.745 1.50388 28.2582 1.63339C27.7713 1.76279 27.3629 2.07514 27.1083 2.51278C26.8537 2.95042 26.7853 3.45747 26.9158 3.94069ZM29.8538 23.5974C30.0556 23.4519 30.2681 23.3291 30.4868 23.227L25.6201 5.20283L14.1204 12.4885L17.6262 25.472L28.3743 25.948C28.5014 25.0461 29.0362 24.1869 29.8538 23.5974ZM6.63678 25.6414L4.51798 17.7944C2.3968 18.415 1.1453 20.6117 1.72086 22.7434C2.29633 24.8749 4.48676 26.1563 6.63678 25.6414ZM10.3049 27.2014L16.0446 25.6753L12.6483 13.097L6.90866 14.6231C6.08018 14.8434 5.58671 15.6915 5.8087 16.5139L5.83952 16.6281C5.83952 16.6282 5.83962 16.6283 5.83962 16.6284C5.83962 16.6285 5.83962 16.6286 5.83972 16.6287L8.39973 26.1099C8.62172 26.9321 9.47647 27.4216 10.3049 27.2014ZM15.1884 27.5269L12.2586 28.3059L14.6542 37.1781C14.7029 37.3582 14.89 37.4656 15.0716 37.4172L17.343 36.8132C17.4606 36.782 17.5226 36.7008 17.5491 36.6553C17.5756 36.6097 17.6154 36.5157 17.584 36.3992L15.1884 27.5269ZM33.9438 43.2502C33.9151 43.2158 33.8861 43.1817 33.859 43.1461C33.6306 42.8461 33.2776 42.7323 32.9151 42.8418C31.9234 43.1408 30.7789 42.9214 29.8539 42.2545C29.3731 41.9078 28.9909 41.4673 28.7309 40.9803L26.4338 44.9284L29.4213 44.3968C29.8005 44.3289 30.1735 44.543 30.3043 44.9026L31.3341 47.7359L33.9438 43.2502ZM38.2474 42.2001C38.8731 41.379 39.9187 41.0419 40.9117 41.341C41.4324 41.4981 42.0578 41.3651 42.5843 40.9855C43.111 40.6058 43.4316 40.0567 43.4421 39.5168C43.4619 38.4874 44.1083 37.6046 45.0887 37.2678C45.603 37.091 46.03 36.6188 46.2312 36.0045C46.4323 35.3901 46.3665 34.7589 46.0551 34.3159C45.4615 33.4716 45.4615 32.3803 46.0551 31.536C46.3665 31.093 46.4324 30.4619 46.2313 29.8475C46.0301 29.2331 45.603 28.7609 45.0887 28.5841C44.1083 28.2473 43.4619 27.3647 43.4421 26.3353C43.4317 25.7953 43.1111 25.2463 42.5845 24.8666C42.058 24.4869 41.4327 24.3539 40.9118 24.5109C39.9192 24.8102 38.8733 24.4731 38.2475 23.6519C37.9193 23.2211 37.3347 22.9639 36.6838 22.9639C36.0328 22.9639 35.4482 23.221 35.1199 23.6518C34.4941 24.4731 33.4482 24.8105 32.4556 24.5109C31.9351 24.3539 31.3096 24.4869 30.783 24.8665C30.2563 25.2462 29.9357 25.7952 29.9253 26.3351C29.9054 27.3646 29.2591 28.2475 28.2787 28.5841C27.7644 28.7609 27.3373 29.233 27.1361 29.8474C26.935 30.4618 27.0008 31.093 27.3122 31.5359C27.9059 32.3803 27.9059 33.4716 27.3122 34.3159C27.0008 34.7588 26.9349 35.3899 27.136 36.0043C27.3372 36.6188 27.7643 37.091 28.2786 37.2678C29.2591 37.6046 29.9055 38.4874 29.9253 39.5168C29.9356 40.0568 30.2563 40.6058 30.783 40.9855C31.3096 41.3651 31.9349 41.4981 32.4555 41.341C32.6959 41.2686 32.9395 41.2333 33.1795 41.2333C33.9304 41.2333 34.6457 41.5777 35.1199 42.2C35.4482 42.6308 36.0327 42.888 36.6838 42.888C37.3348 42.888 37.9192 42.6308 38.2474 42.2001ZM46.9335 44.9284L44.6365 40.9803C44.3764 41.4673 43.9943 41.9078 43.5134 42.2546C42.5883 42.9215 41.4439 43.1412 40.452 42.8419C40.0896 42.7326 39.7367 42.8464 39.5082 43.1462C39.4811 43.1818 39.4521 43.2159 39.4234 43.2503L42.0332 47.736L43.0629 44.9028C43.1936 44.5431 43.5666 44.3287 43.9459 44.397L46.9335 44.9284ZM36.6837 40.5886C32.4259 40.5886 28.9619 37.1512 28.9619 32.9259C28.9619 28.7007 32.4259 25.2632 36.6837 25.2632C40.9414 25.2632 44.4054 28.7007 44.4054 32.9259C44.4054 37.1512 40.9414 40.5886 36.6837 40.5886ZM42.8247 32.9259C42.8247 29.5657 40.0699 26.8318 36.6837 26.8318C33.2975 26.8318 30.5426 29.5657 30.5426 32.9259C30.5426 36.2861 33.2974 39.02 36.6837 39.02C40.0699 39.02 42.8247 36.2861 42.8247 32.9259ZM41.3723 32.3521L39.427 33.9852L40.0336 36.4411C40.11 36.7505 39.9902 37.0751 39.7305 37.2624C39.4708 37.4496 39.1227 37.4624 38.8498 37.2946L36.6836 35.9631L34.5173 37.2946C34.3895 37.3732 34.2453 37.4121 34.1012 37.4121C33.9378 37.4121 33.7747 37.3618 33.6366 37.2623C33.3769 37.0751 33.2571 36.7505 33.3335 36.4411L33.9401 33.9852L31.9948 32.3521C31.7497 32.1463 31.6543 31.814 31.7535 31.5109C31.8527 31.208 32.1267 30.9947 32.4469 30.9712L34.9881 30.7849L35.952 28.4441C36.0734 28.1492 36.3626 27.9565 36.6836 27.9565C37.0045 27.9565 37.2937 28.1492 37.4152 28.4441L38.379 30.7849L40.9202 30.9712C41.2404 30.9947 41.5144 31.208 41.6136 31.5109C41.7129 31.814 41.6175 32.1464 41.3723 32.3521ZM38.875 32.3942L37.7744 32.3135C37.4753 32.2915 37.2145 32.1034 37.1011 31.828L36.6837 30.8143L36.2663 31.828C36.1528 32.1035 35.8919 32.2916 35.5929 32.3135L34.4923 32.3942L35.3348 33.1014C35.5638 33.2936 35.6634 33.5978 35.5921 33.8869L35.3294 34.9506L36.2676 34.3739C36.5226 34.2171 36.8451 34.2172 37.1 34.3739L38.0381 34.9506L37.7754 33.8869C37.704 33.5979 37.8037 33.2936 38.0327 33.1014L38.875 32.3942Z" fill="#0B3D2E"></path></svg>