<svg xmlns="http://www.w3.org/2000/svg" width="16" height="16" viewBox="0 0 16 16" fill="currentColor"><g clip-path="url(#clip0_2038_1264)"><path d="M15 7C15.5523 7 16 7.44772 16 8C16 8.55228 15.5523 9 15 9H1C0.447715 9 0 8.55228 0 8C0 7.44772 0.447715 7 1 7H15Z" fill="currentColor"></path><path d="M7.29289 0.293015C7.68342 -0.097509 8.31643 -0.097509 8.70696 0.293015L15.707 7.29302C16.0975 7.68354 16.0975 8.31655 15.707 8.70708L8.70696 15.7071C8.31643 16.0976 7.68342 16.0976 7.29289 15.7071C6.90237 15.3166 6.90237 14.6835 7.29289 14.293L13.5859 8.00005L7.29289 1.70708C6.90237 1.31655 6.90237 0.68354 7.29289 0.293015Z" fill="currentColor"></path></g><defs><clipPath id="clip0_2038_1264"><rect width="16" height="16" fill="currentColor"></rect></clipPath></defs></svg>