<svg xmlns="http://www.w3.org/2000/svg" width="24" height="20" viewBox="0 0 24 20" fill="none"><g clip-path="url(#clip0_301_2765)"><path d="M15.585 18.25V16.417C15.585 15.7098 15.3037 15.0313 14.8037 14.5312C14.3036 14.0312 13.6252 13.75 12.918 13.75H5.58496C4.87772 13.75 4.19932 14.0312 3.69922 14.5312C3.19912 15.0313 2.91797 15.7097 2.91797 16.417V18.25C2.91797 18.8023 2.47025 19.25 1.91797 19.25C1.36568 19.25 0.917969 18.8023 0.917969 18.25V16.417C0.917969 15.1793 1.40999 13.9924 2.28516 13.1172C3.16033 12.242 4.34728 11.75 5.58496 11.75H12.918C14.1556 11.75 15.3426 12.242 16.2178 13.1172C17.0928 13.9923 17.585 15.1794 17.585 16.417V18.25C17.585 18.8022 17.1371 19.2498 16.585 19.25C16.0327 19.25 15.585 18.8023 15.585 18.25Z" fill="#0B3D2E"></path><path d="M11.915 5.41699C11.915 3.94434 10.7216 2.75018 9.24902 2.75C7.77626 2.75 6.58203 3.94423 6.58203 5.41699C6.58221 6.8896 7.77637 8.08301 9.24902 8.08301C10.7215 8.08283 11.9149 6.88949 11.915 5.41699ZM13.915 5.41699C13.9149 7.99406 11.8261 10.0828 9.24902 10.083C6.6718 10.083 4.58221 7.99417 4.58203 5.41699C4.58203 2.83966 6.67169 0.75 9.24902 0.75C11.8262 0.750176 13.915 2.83977 13.915 5.41699Z" fill="#0B3D2E"></path><path d="M21.0818 18.25V16.417C21.0813 15.8263 20.8842 15.2521 20.5223 14.7852C20.1603 14.3185 19.6537 13.9846 19.0818 13.837C18.5471 13.6988 18.226 13.1539 18.3641 12.6192C18.5022 12.0845 19.0471 11.7633 19.5818 11.9014C20.5829 12.1599 21.4698 12.7434 22.1033 13.5606C22.7367 14.3778 23.0811 15.3821 23.0818 16.4161V18.25C23.0818 18.8023 22.6341 19.25 22.0818 19.25C21.5295 19.25 21.0818 18.8023 21.0818 18.25Z" fill="#0B3D2E"></path><path d="M17.425 5.4209C17.425 4.82895 17.2284 4.25376 16.8655 3.78613C16.5024 3.31839 15.9938 2.98475 15.4202 2.83789C14.8851 2.7009 14.5625 2.15611 14.6995 1.62109C14.8365 1.08607 15.3812 0.7634 15.9163 0.900387C16.9201 1.15741 17.8102 1.74102 18.4456 2.55957C19.0808 3.37801 19.425 4.38484 19.425 5.4209C19.425 6.45689 19.0807 7.46377 18.4456 8.28222C17.8102 9.10077 16.9201 9.68536 15.9163 9.94238C15.3814 10.0793 14.8366 9.75649 14.6995 9.22168C14.5625 8.68668 14.8852 8.1419 15.4202 8.00488C15.9937 7.85802 16.5024 7.52434 16.8655 7.05664C17.2285 6.5889 17.425 6.01301 17.425 5.4209Z" fill="#0B3D2E"></path></g><defs><clipPath id="clip0_301_2765"><rect width="24" height="20" fill="white"></rect></clipPath></defs></svg>