<svg xmlns="http://www.w3.org/2000/svg" width="14" height="24" viewBox="0 0 14 24" fill="none"><g clip-path="url(#clip0_301_2759)"><path d="M6 22.0836V1.91663C6 1.36434 6.44772 0.916626 7 0.916626C7.55228 0.916626 8 1.36434 8 1.91663V22.0836C7.99982 22.6358 7.55218 23.0836 7 23.0836C6.44782 23.0836 6.00018 22.6358 6 22.0836Z" fill="#0B3D2E"></path><path d="M11.5 15.2084C11.5 14.6228 11.2676 14.061 10.8535 13.6469C10.4394 13.2328 9.87756 13.0005 9.29199 13.0004H4.70801C3.59201 13.0003 2.52156 12.5561 1.73242 11.767C0.94341 10.9778 0.5 9.90735 0.5 8.79138C0.500086 7.67538 0.943283 6.60493 1.73242 5.8158C2.52156 5.02666 3.59201 4.58346 4.70801 4.58337H11.583C12.1353 4.58337 12.583 5.03109 12.583 5.58337C12.583 6.13566 12.1353 6.58337 11.583 6.58337H4.70801C4.12244 6.58346 3.56055 6.81579 3.14648 7.22986C2.73242 7.64392 2.50009 8.20581 2.5 8.79138C2.5 9.37691 2.73254 9.93879 3.14648 10.3529C3.56055 10.767 4.12244 11.0003 4.70801 11.0004H9.29199C10.408 11.0005 11.4784 11.4436 12.2676 12.2328C13.0567 13.022 13.5 14.0923 13.5 15.2084C13.5 16.3244 13.0567 17.3948 12.2676 18.184C11.4784 18.9731 10.408 19.4163 9.29199 19.4164H1.5C0.947715 19.4164 0.5 18.9687 0.5 18.4164C0.500176 17.8642 0.947824 17.4164 1.5 17.4164H9.29199C9.87756 17.4163 10.4394 17.184 10.8535 16.7699C11.2676 16.3558 11.5 15.794 11.5 15.2084Z" fill="#0B3D2E"></path></g><defs><clipPath id="clip0_301_2759"><rect width="14" height="24" fill="white"></rect></clipPath></defs></svg>