<svg xmlns="http://www.w3.org/2000/svg" width="30" height="30" viewBox="0 0 30 30" fill="none"><g clip-path="url(#clip0_2038_1339)"><path d="M9.00953 22.9544C9.44347 22.3676 9.70064 21.6425 9.70064 20.8582C9.70064 18.91 8.11563 17.325 6.16735 17.325C4.21906 17.325 2.63405 18.91 2.63405 20.8582C2.63405 21.6425 2.89122 22.3676 3.32516 22.9545C1.64763 23.8048 0.437566 25.3587 0.0364949 27.2198C-0.0661019 27.6958 0.0499714 28.1856 0.355067 28.5634C0.658053 28.9387 1.10858 29.1539 1.59109 29.1539H10.7437C11.2262 29.1539 11.6766 28.9387 11.9797 28.5634C12.2848 28.1856 12.4009 27.6959 12.2983 27.2198C11.8968 25.3572 10.6873 23.8045 9.00953 22.9544ZM6.16735 18.614C7.40484 18.614 8.41158 19.6208 8.41158 20.8582C8.41158 22.0957 7.40484 23.1025 6.16735 23.1025C4.92986 23.1025 3.92311 22.0957 3.92311 20.8582C3.92311 19.6208 4.92986 18.614 6.16735 18.614ZM10.9767 27.7536C10.9432 27.7952 10.8682 27.8648 10.7436 27.8648H1.59103C1.46641 27.8648 1.39152 27.7952 1.35795 27.7536C1.3232 27.7106 1.269 27.6193 1.2966 27.4914C1.65074 25.8482 2.79905 24.506 4.36941 23.8982C4.89652 24.2111 5.51116 24.3915 6.16735 24.3915C6.82347 24.3915 7.438 24.2112 7.96505 23.8983C9.53581 24.506 10.6837 25.8468 11.0381 27.4914C11.0656 27.6193 11.0115 27.7106 10.9767 27.7536Z" fill="white"></path><path d="M17.3541 0.845947H4.69512C3.62908 0.845947 2.76172 1.71325 2.76172 2.77929V12.3701C2.76172 13.4362 3.62902 14.3035 4.69512 14.3035H8.9378C9.00448 14.3035 9.06665 14.3394 9.09999 14.3971L9.66395 15.3739C9.93084 15.8362 10.4088 16.1121 10.9425 16.1121C11.4762 16.1121 11.9542 15.8361 12.221 15.3739L12.785 14.3971C12.8183 14.3393 12.8805 14.3034 12.9472 14.3034H17.3541C18.4201 14.3034 19.2875 13.4361 19.2875 12.3701V2.77929C19.2875 1.71325 18.4202 0.845947 17.3541 0.845947ZM17.9985 12.3701C17.9985 12.7254 17.7095 13.0144 17.3541 13.0144H12.9472C12.4214 13.0144 11.9315 13.2973 11.6687 13.7526L11.1047 14.7295C11.0576 14.8109 10.9829 14.8231 10.9425 14.8231C10.9021 14.8231 10.8274 14.8109 10.7803 14.7295L10.2164 13.7526C9.95352 13.2973 9.46356 13.0144 8.93786 13.0144H4.69512C4.33987 13.0144 4.05077 12.7254 4.05077 12.3701V2.77929C4.05077 2.42404 4.33981 2.135 4.69512 2.135H17.3541C17.7094 2.135 17.9985 2.42404 17.9985 2.77929V12.3701Z" fill="white"></path><path d="M15.1991 4.37646H6.3916C6.03564 4.37646 5.74707 4.66504 5.74707 5.02099C5.74707 5.37695 6.03564 5.66552 6.3916 5.66552H15.1991C15.5551 5.66552 15.8436 5.37695 15.8436 5.02099C15.8436 4.66504 15.5551 4.37646 15.1991 4.37646Z" fill="white"></path><path d="M15.1991 7.12109H6.3916C6.03564 7.12109 5.74707 7.40967 5.74707 7.76562C5.74707 8.12157 6.03564 8.41015 6.3916 8.41015H15.1991C15.5551 8.41015 15.8436 8.12157 15.8436 7.76562C15.8436 7.40967 15.5551 7.12109 15.1991 7.12109Z" fill="white"></path><path d="M13.115 9.86523H8.47656C8.1206 9.86523 7.83203 10.1538 7.83203 10.5098C7.83203 10.8657 8.1206 11.1543 8.47656 11.1543H13.115C13.4709 11.1543 13.7595 10.8657 13.7595 10.5098C13.7595 10.1538 13.4709 9.86523 13.115 9.86523Z" fill="white"></path><path d="M16.9143 21.7451H15.0068C14.3283 21.7451 13.7764 22.2971 13.7764 22.9756V27.9231C13.7764 28.6016 14.3283 29.1536 15.0068 29.1536H16.9143C17.5928 29.1536 18.1448 28.6016 18.1448 27.9231V22.9756C18.1448 22.2971 17.5928 21.7451 16.9143 21.7451ZM16.8557 27.8645H15.0654V23.0342H16.8557V27.8645Z" fill="white"></path><path d="M22.9019 19.5518H20.9238C20.2453 19.5518 19.6934 20.1038 19.6934 20.7822V27.9231C19.6934 28.6016 20.2453 29.1536 20.9238 29.1536H22.9019C23.5804 29.1536 24.1324 28.6016 24.1324 27.9231V20.7822C24.1324 20.1038 23.5804 19.5518 22.9019 19.5518ZM22.8433 27.8645H20.9824V20.8408H22.8433V27.8645Z" fill="white"></path><path d="M28.7691 16.8511H26.791C26.1125 16.8511 25.5605 17.4031 25.5605 18.0815V27.9234C25.5605 28.6018 26.1125 29.1538 26.791 29.1538H28.7691C29.4476 29.1538 29.9996 28.6018 29.9996 27.9234V18.0815C29.9996 17.403 29.4476 16.8511 28.7691 16.8511ZM28.7105 27.8648H26.8496V18.1401H28.7105V27.8648Z" fill="white"></path><path d="M28.5832 11.3371L28.7251 11.9953C28.7903 12.2975 29.0575 12.5041 29.3546 12.5041C29.3996 12.5041 29.4453 12.4994 29.491 12.4896C29.839 12.4146 30.0603 12.0717 29.9853 11.7237L29.5046 9.49421C29.4296 9.14622 29.0866 8.92492 28.7387 8.99997L26.5093 9.48056C26.1613 9.55556 25.94 9.89844 26.015 10.2464C26.09 10.5944 26.433 10.8157 26.7809 10.7407L27.5406 10.5769C26.3153 12.1122 24.9357 13.4367 23.4282 14.5212C22.014 15.5385 20.484 16.3496 18.8805 16.9321C16.1412 17.9273 14.1094 17.9096 14.0887 17.9093C13.7324 17.904 13.4401 18.1865 13.4337 18.5421C13.4273 18.898 13.7106 19.1917 14.0665 19.1981C14.0724 19.1983 14.0875 19.1984 14.1112 19.1984C14.4458 19.1984 16.5066 19.1556 19.2605 18.1654C20.984 17.5457 22.6278 16.68 24.1462 15.5924C25.7777 14.424 27.2665 12.995 28.5832 11.3371Z" fill="white"></path></g><defs><clipPath id="clip0_2038_1339"><rect width="30" height="30" fill="white"></rect></clipPath></defs></svg>