<svg xmlns="http://www.w3.org/2000/svg" width="30" height="30" viewBox="0 0 30 30" fill="none"><path d="M29.1184 14.1213H15.8786V0.881558C15.8786 0.396282 15.4852 0.00285954 14.9999 0.00285954C6.9391 -0.163332 -0.164124 6.93866 0.00288707 15.0001C-0.163421 23.0608 6.93852 30.1641 15 29.9971C23.0608 30.1634 30.1641 23.0614 29.997 14.9999C29.9971 14.5147 29.6037 14.1213 29.1184 14.1213ZM28.2103 15.8787C28.1692 16.5104 28.0838 17.1333 27.9557 17.7443H14.9263L15.6129 15.8787H28.2103ZM26.662 21.2803H13.6248L14.2795 19.5017H27.458C27.2374 20.1132 26.9714 20.7075 26.662 21.2803ZM24.3619 24.362C24.143 24.5809 23.9174 24.7907 23.6863 24.9922H12.2587L12.978 23.0377H25.5225C25.1677 23.5002 24.781 23.9429 24.3619 24.362ZM5.63798 5.63813C7.93039 3.34572 10.9155 1.99833 14.1212 1.78966V13.7876L2.7132 10.051C3.37047 8.41862 4.35619 6.91992 5.63798 5.63813ZM1.76017 15C1.76017 13.8794 1.89888 12.7801 2.16741 11.7215L13.8607 15.5515L9.61005 27.1006C4.92044 25.052 1.69655 20.1413 1.76017 15ZM11.2598 27.7061L11.6118 26.7496H21.1145C18.1735 28.3125 14.473 28.6675 11.2598 27.7061Z" fill="white"></path><path d="M19.3445 12.52C19.8298 12.52 20.2232 12.1266 20.2232 11.6413V8.39555C20.1768 7.22969 18.5118 7.23057 18.4658 8.39555V11.6413C18.4658 12.1266 18.8592 12.52 19.3445 12.52Z" fill="white"></path><path d="M22.8894 12.5201C23.3747 12.5201 23.7681 12.1267 23.7681 11.6414V6.40165C23.7217 5.23579 22.0567 5.23667 22.0107 6.40165V11.6414C22.0107 12.1267 22.4042 12.5201 22.8894 12.5201Z" fill="white"></path><path d="M26.4334 12.5201C26.9187 12.5201 27.3121 12.1267 27.3121 11.6414V3.68925C27.2656 2.52339 25.6007 2.52427 25.5547 3.68925V11.6414C25.5547 12.1267 25.9481 12.5201 26.4334 12.5201Z" fill="white"></path></svg>