<svg xmlns="http://www.w3.org/2000/svg" width="44" height="50" viewBox="0 0 44 50" fill="none"><path d="M9.24362 23.855C9.22218 24.3112 8.83042 24.6637 8.36863 24.6425C7.90685 24.6213 7.54979 24.2345 7.57123 23.7784C7.59256 23.3224 7.98442 22.9698 8.44621 22.9908C8.90799 23.012 9.26505 23.3989 9.24362 23.855ZM43.824 36.6423C43.6029 37.1372 43.201 37.517 42.6925 37.7117L40.1806 38.6734C39.9382 38.7662 39.6887 38.8101 39.443 38.8101C38.6223 38.8101 37.8461 38.3192 37.532 37.5193L37.3538 37.0654L35.4936 37.8319C35.5728 38.4013 35.4697 38.9873 35.1844 39.4996C34.833 40.1308 34.2536 40.59 33.551 40.7952C33.7438 41.4604 33.683 42.1954 33.3224 42.8427C32.7833 43.8108 31.7296 44.3258 30.6802 44.2387C30.6883 44.6939 30.5808 45.1557 30.3445 45.5797C29.9902 46.216 29.4038 46.6777 28.6935 46.8796C28.2949 46.9929 27.8852 47.016 27.4896 46.9519C27.4812 47.3757 27.3722 47.8027 27.1523 48.1975C26.7978 48.8339 26.1864 49.3119 25.475 49.5089C25.2292 49.5769 24.9798 49.6106 24.7329 49.6106C24.2702 49.6106 23.8156 49.4923 23.4065 49.2603L22.7995 48.916C22.4457 49.3724 21.9571 49.7083 21.3868 49.8789C21.1163 49.9599 20.8402 50 20.5657 50C20.1111 50 19.6613 49.8898 19.2503 49.6728C18.6752 49.369 18.2422 48.8894 17.997 48.327C17.2593 48.6033 16.4122 48.5723 15.6757 48.1833C15.1645 47.9134 14.7639 47.4997 14.5088 47.0117C13.7247 47.391 12.7753 47.4064 11.9506 46.9708C11.2917 46.6228 10.8088 46.0402 10.591 45.3304C10.4798 44.9684 10.4447 44.5959 10.4837 44.2316C10.0538 44.222 9.62364 44.1151 9.22902 43.9067C8.57013 43.5586 8.08721 42.9761 7.86949 42.2662C7.65156 41.5563 7.72577 40.8071 8.07813 40.1564L8.72998 38.9527C8.5883 38.602 8.51552 38.2259 8.44621 37.8578C8.32719 37.2264 8.23032 36.8052 7.97656 36.708C7.85887 36.6628 7.58491 36.5504 6.6106 36.1221L6.38379 36.6288C6.04593 37.3833 5.29466 37.833 4.50858 37.833C4.23247 37.833 3.95228 37.7776 3.68403 37.6606L1.21974 36.585C0.720907 36.3672 0.337209 35.9696 0.139593 35.465C-0.0580235 34.9605 -0.0454687 34.4114 0.175012 33.9188L5.8328 21.2773C6.05328 20.7847 6.45596 20.4059 6.96684 20.2106C7.47752 20.0154 8.03352 20.0278 8.53256 20.2456L10.9968 21.3212C12.0291 21.7717 12.4979 22.9677 12.0416 23.9873L11.6611 24.8372L13.1664 25.523C13.1862 25.5321 13.2057 25.542 13.2248 25.5525C14.0688 26.0215 14.9707 25.8126 16.1125 25.5483C17.6405 25.1946 19.5177 24.7605 21.7139 26.0104C24.7493 24.1852 27.08 25.1235 28.8028 25.819C30.048 26.3216 30.7878 26.5877 31.5114 26.216L32.8225 25.5229L32.4729 24.6323C32.065 23.5929 32.5894 22.4197 33.6415 22.0167L36.1536 21.0551C36.6621 20.8603 37.2183 20.8735 37.7192 21.0918C38.2203 21.3102 38.6049 21.707 38.802 22.2091L43.8608 35.0958C44.0584 35.5983 44.0452 36.1474 43.824 36.6423ZM4.89034 35.9768L10.548 23.3354C10.6075 23.2023 10.5773 23.0828 10.5541 23.0232C10.5308 22.9637 10.4716 22.8551 10.3369 22.7964L7.87255 21.7208C7.81437 21.6954 7.75864 21.6865 7.70923 21.6865C7.64441 21.6865 7.59062 21.7017 7.55653 21.7148C7.4963 21.7379 7.38637 21.7963 7.32686 21.9294L1.66918 34.5708C1.60957 34.7039 1.63978 34.8235 1.66305 34.883C1.68633 34.9425 1.74553 35.051 1.88027 35.1098L4.34465 36.1854C4.54962 36.275 4.7996 36.1793 4.89034 35.9768ZM11.2571 42.3873L12.8556 39.6555C13.0951 39.1053 12.8695 38.4603 12.3329 38.1775C11.7621 37.8766 11.0497 38.0894 10.745 38.6522L9.5184 40.917C9.37162 41.1879 9.3412 41.5009 9.43245 41.7985C9.52381 42.096 9.7251 42.3397 9.99938 42.4845C10.4025 42.6973 10.8943 42.6554 11.2571 42.3873ZM14.3127 45.0655L16.0877 41.6708C16.1777 41.1815 15.9354 40.6724 15.4901 40.4376C15.0835 40.2232 14.588 40.2669 14.2244 40.5399L12.2403 43.9812C12.0935 44.2521 12.0631 44.565 12.1544 44.8626C12.2457 45.1602 12.447 45.4038 12.7213 45.5487C13.2911 45.8497 14.0048 45.6329 14.3127 45.0655ZM17.9249 46.4486L19.4948 43.4692C19.5842 42.9802 19.3418 42.4716 18.8968 42.2371C18.4535 42.0034 17.8947 42.0833 17.5332 42.4216L15.8298 45.6794C15.8076 46.1247 16.045 46.5493 16.4461 46.7612C16.9499 47.0272 17.577 46.8915 17.9249 46.4486ZM21.608 47.7754L22.784 45.6035C22.9956 45.2128 22.9587 44.7272 22.6901 44.3664C22.5876 44.2287 22.4575 44.1177 22.3033 44.0363C21.8599 43.8024 21.3008 43.8828 20.9391 44.2221L19.407 47.1301C19.3701 47.5847 19.6117 48.0344 20.0207 48.2505C20.591 48.5517 21.303 48.3384 21.608 47.7754ZM25.2787 45.9174C25.2383 45.8951 24.5195 45.4799 24.5195 45.4799C24.4728 45.7853 24.3755 46.0848 24.2242 46.3642L23.6028 47.5115L24.22 47.8616C24.4641 48 24.7533 48.0335 25.0343 47.9558C25.3264 47.8749 25.5768 47.6797 25.7213 47.4202C26.0166 46.8901 25.8181 46.216 25.2787 45.9174ZM23.5314 40.5461C23.1383 40.3276 22.999 39.8359 23.2202 39.4478C23.4414 39.0596 23.9391 38.9221 24.3323 39.1405L30.3774 42.4997C30.9161 42.7921 31.5954 42.5972 31.8915 42.0653C32.185 41.5385 31.9847 40.8658 31.4449 40.5657C30.0277 39.7819 28.4216 38.8935 26.8415 38.0002C26.4501 37.7789 26.3144 37.2862 26.5385 36.8997C26.7625 36.5132 27.2611 36.3792 27.6528 36.6005C29.2269 37.4905 30.8301 38.3772 32.2445 39.1595C32.2446 39.1596 32.2447 39.1597 32.2448 39.1597C32.4974 39.2992 32.7932 39.3318 33.0778 39.2514C33.3693 39.1691 33.6092 38.9812 33.7533 38.7224C33.9272 38.4103 33.9345 38.0437 33.7736 37.7163C33.6712 37.5078 33.5084 37.3364 33.303 37.2206L26.622 33.46C25.5337 32.8477 24.1398 33.4051 22.5252 34.0505C20.0648 35.034 17.0033 36.258 14.3685 32.9097C14.1809 32.6714 14.1093 32.3767 14.1668 32.08C14.2243 31.7828 14.4021 31.5347 14.6669 31.3818C16.5432 30.3003 18.1267 29.1209 19.3742 27.8759C19.6573 27.5934 19.9426 27.331 20.2284 27.0878C18.8824 26.5649 17.7109 26.8352 16.4854 27.1189C15.1856 27.4198 13.842 27.7309 12.4543 26.9748L11.001 26.3127L7.27103 34.6469C8.13856 35.0283 8.45958 35.163 8.56778 35.2045C9.4839 35.5557 9.79135 36.3644 9.95681 37.0925C10.8096 36.3751 12.0552 36.2029 13.1018 36.7545C13.887 37.1683 14.3953 37.9058 14.5412 38.7173C15.1183 38.6357 15.7212 38.7312 16.2589 39.0147C16.9124 39.3591 17.3799 39.9284 17.6 40.5854C18.2746 40.4021 19.0128 40.4699 19.6657 40.8141C20.3192 41.1586 20.7866 41.7277 21.0069 42.3846C21.6814 42.2015 22.4201 42.2691 23.073 42.6137C23.395 42.7836 23.6739 43.0083 23.9042 43.2826L27.4025 45.2382C27.6577 45.3784 27.9559 45.4109 28.2418 45.3295C28.5315 45.2472 28.7701 45.0599 28.9136 44.8022C29.2071 44.2753 29.0068 43.6027 28.4671 43.3028M36.7634 35.5611L33.4176 27.0381L32.2739 27.6426C30.8349 28.3816 29.4879 27.838 28.1852 27.3121C26.4808 26.624 24.7181 25.9123 22.1858 27.6278C21.6419 27.9948 21.0869 28.4597 20.5353 29.0101C19.3253 30.2177 17.834 31.3617 16.0957 32.4165C17.8504 34.1791 19.7449 33.4218 21.9125 32.5552C23.7524 31.8196 25.6549 31.059 27.4307 32.0586L34.1119 35.8192C34.3734 35.9664 34.6064 36.1516 34.8043 36.3681L36.7634 35.5611ZM42.3385 35.6791L37.2797 22.7923C37.2265 22.6567 37.1194 22.5932 37.0603 22.5675C37.0237 22.5515 36.9636 22.5319 36.8904 22.5319C36.8458 22.5319 36.7964 22.5392 36.7444 22.5591L34.2323 23.5207C34.0231 23.6008 33.915 23.843 33.9961 24.0497L39.055 36.9363C39.1359 37.1427 39.3809 37.2495 39.5904 37.1695L42.1023 36.2078C42.2397 36.1551 42.3039 36.0495 42.3299 35.9911C42.3559 35.9329 42.3917 35.8147 42.3385 35.6791ZM36.1118 23.8016C35.6494 23.8016 35.2747 24.1717 35.2747 24.6283C35.2747 25.0848 35.6494 25.455 36.1118 25.455C36.5741 25.455 36.9489 25.0848 36.9489 24.6283C36.9489 24.1717 36.5741 23.8016 36.1118 23.8016ZM37.15 18.5686C37.1747 18.7962 37.1004 19.0234 36.9454 19.1935C36.7905 19.3637 36.5697 19.461 36.3381 19.461H28.5229C28.5376 19.5562 28.5506 19.652 28.5611 19.7487C28.5858 19.9762 28.5115 20.2034 28.3566 20.3735C28.2016 20.5437 27.9808 20.641 27.7492 20.641H16.2512C16.0195 20.641 15.7987 20.5438 15.6439 20.3736C15.4889 20.2035 15.4146 19.9763 15.4393 19.7488C15.4498 19.6521 15.4628 19.5562 15.4774 19.461H7.66238C7.43067 19.461 7.20988 19.3638 7.05504 19.1935C6.90009 19.0234 6.82578 18.7963 6.85048 18.5686C7.0679 16.5623 8.33066 14.9033 10.0715 14.0909C9.54739 13.5164 9.22779 12.7566 9.22779 11.9242C9.22779 10.1374 10.6998 8.68378 12.5091 8.68378C14.3184 8.68378 15.7904 10.1375 15.7904 11.9242C15.7904 12.7596 15.4685 13.5221 14.941 14.0973C15.8382 14.5187 16.6184 15.167 17.1905 15.98C17.8006 15.3399 18.5399 14.8243 19.3658 14.4704C18.6835 13.801 18.2602 12.8742 18.2602 11.8516C18.2602 9.8149 19.938 8.15788 22.0003 8.15788C24.0626 8.15788 25.7405 9.8149 25.7405 11.8516C25.7405 12.8743 25.3172 13.801 24.6347 14.4705C25.4606 14.8244 26.1998 15.34 26.81 15.9801C27.382 15.1671 28.1622 14.5188 29.0595 14.0974C28.532 13.5222 28.2102 12.7597 28.2102 11.9243C28.2102 10.1375 29.6822 8.68388 31.4915 8.68388C33.3007 8.68388 34.7728 10.1376 34.7728 11.9243C34.7728 12.7567 34.4532 13.5164 33.929 14.091C35.6697 14.9032 36.9326 16.5622 37.15 18.5686ZM31.4914 13.5519C32.4001 13.5519 33.1395 12.8218 33.1395 11.9243C33.1395 11.0269 32.4001 10.2967 31.4914 10.2967C30.5826 10.2967 29.8433 11.0269 29.8433 11.9243C29.8433 12.8218 30.5826 13.5519 31.4914 13.5519ZM22.0002 13.9322C23.162 13.9322 24.1072 12.9988 24.1072 11.8514C24.1072 10.7041 23.162 9.77065 22.0002 9.77065C20.8385 9.77065 19.8932 10.7041 19.8932 11.8514C19.8934 12.9988 20.8386 13.9322 22.0002 13.9322ZM12.5091 13.5519C13.4178 13.5519 14.1572 12.8218 14.1572 11.9243C14.1572 11.0269 13.4178 10.2967 12.5091 10.2967C11.6003 10.2967 10.861 11.0269 10.861 11.9243C10.861 12.8218 11.6003 13.5519 12.5091 13.5519ZM15.9467 17.848C16.0115 17.7003 16.0806 17.5552 16.1557 17.4136C15.4812 16.055 14.06 15.1647 12.5091 15.1647C10.7463 15.1647 9.23127 16.2696 8.67618 17.848H15.9467ZM26.7554 19.028C26.137 16.9908 24.2307 15.545 22.0002 15.545C19.7695 15.545 17.8632 16.9908 17.2449 19.028H26.7554ZM35.3243 17.848C34.7692 16.2696 33.2542 15.1647 31.4914 15.1647C29.9404 15.1647 28.5194 16.055 27.8447 17.4137C27.9199 17.5553 27.989 17.7004 28.0537 17.848H35.3243ZM41.8895 21.2547C41.8895 21.7 42.2551 22.0611 42.7061 22.0611C43.157 22.0611 43.5227 21.7 43.5227 21.2547C43.5227 17.4961 42.5151 13.8018 40.609 10.5711C40.3819 10.1864 39.8821 10.0561 39.4924 10.2804C39.1027 10.5047 38.9709 10.9983 39.1979 11.3831C40.9588 14.3675 41.8895 17.7811 41.8895 21.2547ZM1.29436 22.0611C1.74533 22.0611 2.11096 21.7 2.11096 21.2547C2.11096 16.9445 3.5252 12.955 5.91793 9.71239L5.97652 11.3241C5.99234 11.7594 6.3546 12.1016 6.79209 12.1016C6.80199 12.1016 6.8119 12.1015 6.8219 12.1011C7.27266 12.0851 7.62482 11.7113 7.60869 11.2663L7.48416 7.84247C11.116 4.0114 16.2794 1.61287 22.0002 1.61287C26.2103 1.61287 30.3158 2.93975 33.7008 5.37206L32.0557 5.43042C31.6051 5.44635 31.2528 5.82013 31.2689 6.26528C31.2848 6.70056 31.647 7.04279 32.0845 7.04279C32.0944 7.04279 32.1043 7.04269 32.1143 7.04228L35.9317 6.9069C36.1826 6.89803 36.4153 6.77566 36.563 6.57506C36.7105 6.37456 36.7566 6.11811 36.6878 5.87971L35.6397 2.25207C35.5159 1.82365 35.0635 1.57547 34.6303 1.69785C34.1966 1.82002 33.9453 2.26628 34.069 2.6946L34.4159 3.89507C30.8007 1.37336 26.4547 0 22.0002 0C15.7773 0 10.1638 2.62262 6.23079 6.8063L2.75801 7.78481C2.32439 7.90698 2.07309 8.35324 2.1968 8.78156C2.32062 9.20988 2.7722 9.45795 3.20622 9.33578L4.43162 8.99053C1.94243 12.4578 0.477765 16.6904 0.477765 21.2547C0.477765 21.7 0.843396 22.0611 1.29436 22.0611Z" fill="#0B3D2E"></path></svg>