<svg xmlns="http://www.w3.org/2000/svg" width="252" height="242" viewBox="0 0 252 242" fill="none"><path d="M278.813 200.051L196.987 149.998L278.81 99.946C280.217 99.0834 281.226 97.6977 281.613 96.0908C281.999 94.4839 281.731 92.7899 280.871 91.3823L256.827 52.0797C255.037 49.1462 251.197 48.2214 248.264 50.0151L170.156 97.7973V6.22814C170.156 2.79021 167.366 0 163.928 0H117.861C114.423 0 111.633 2.79021 111.633 6.22814V97.7973L33.5215 50.0182C30.5818 48.2245 26.7515 49.1462 24.9578 52.0828L0.913802 91.3855C0.0543102 92.793 -0.213502 94.4871 0.172646 96.0939C0.558795 97.7008 1.56776 99.0865 2.97534 99.9491L84.8015 149.998L2.97534 200.051C1.56776 200.91 0.558795 202.299 0.172646 203.903C-0.213502 205.513 0.0543102 207.207 0.913802 208.615L24.9578 247.914C26.7515 250.848 30.5818 251.776 33.5215 249.982L111.633 202.2V293.769C111.633 297.207 114.423 299.997 117.861 299.997H163.928C167.366 299.997 170.156 297.207 170.156 293.769V202.203L248.267 249.979C251.2 251.772 255.04 250.848 256.831 247.917L280.875 208.615C281.734 207.207 282.002 205.513 281.616 203.906C281.233 202.296 280.221 200.913 278.813 200.051Z" fill="white" fill-opacity="0.05"></path></svg>