<svg xmlns="http://www.w3.org/2000/svg" width="354" height="241" viewBox="0 0 354 241" fill="none"><path d="M363.595 195.356L362.849 196.318C351.85 146.867 343.037 133.021 333.829 134.759C327.864 135.884 321.581 143.569 314.408 152.345C306.604 161.89 297.758 172.711 286.946 177.99C265.139 188.639 235.585 176.723 191.275 86.3693C152.998 8.32093 92.3038 -39.3964 40.7528 -67.7002L41.3405 -68.4577C93.0001 -40.0697 153.783 7.75974 192.13 85.9512C236.101 175.613 265.174 187.562 286.525 177.136C297.15 171.948 305.926 161.212 313.668 151.742C320.96 142.823 327.345 135.012 333.651 133.822C343.331 131.996 352.47 145.833 363.595 195.356ZM366.831 191.185L366.085 192.147C354.905 142.106 345.774 128.29 336.127 130.11C329.992 131.268 323.505 138.767 316.13 147.292C308.307 156.337 299.495 166.522 288.887 171.702C266.501 182.634 236.373 171.237 191.511 79.7587C153.337 1.91739 94.6121 -45.2486 44.92 -73.0714L45.5057 -73.8263C95.3077 -45.9183 154.123 1.36019 192.365 79.3406C236.887 170.124 266.534 181.557 288.467 170.847C298.898 165.753 307.642 155.644 315.406 146.67C322.897 138.01 329.486 130.394 335.949 129.174C346.066 127.265 355.524 141.074 366.831 191.185ZM370.068 187.013L369.32 187.976C357.957 137.336 348.495 123.551 338.398 125.456C332.1 126.645 325.415 133.952 317.848 142.224C310.031 150.77 301.281 160.334 290.895 165.407C267.91 176.631 237.184 165.798 191.748 73.148C153.682 -4.47159 96.9195 -51.09 49.0822 -78.436L49.6679 -79.191C97.6164 -51.7587 154.469 -5.02708 192.602 72.7299C237.697 164.682 267.942 175.555 290.474 164.552C300.691 159.562 309.378 150.065 317.14 141.581C324.82 133.185 331.604 125.769 338.22 124.521C348.786 122.527 358.575 136.3 370.068 187.013ZM373.304 182.842L372.557 183.805C361.003 132.551 351.203 118.805 340.64 120.797C334.18 122.017 327.307 129.125 319.559 137.139C311.772 145.192 303.112 154.15 292.972 159.103C269.368 170.628 238.02 160.409 191.984 66.5368C154.034 -10.8466 99.227 -56.9208 53.2392 -83.7941L53.8254 -84.5497C99.924 -57.5883 154.823 -11.3999 192.839 66.1185C238.532 159.289 269.399 169.553 292.552 158.247C302.539 153.37 311.14 144.474 318.871 136.477C326.731 128.347 333.702 121.137 340.463 119.862C351.492 117.781 361.621 131.51 373.304 182.842ZM376.54 178.672L375.792 179.635C364.046 127.75 353.894 114.05 342.85 116.134C336.236 117.382 329.184 124.287 321.265 132.039C313.54 139.604 304.997 147.968 295.124 152.789C270.881 164.627 238.883 155.075 192.22 59.9255C154.394 -17.2072 101.534 -62.7403 57.3922 -89.1469L57.9764 -89.8999C102.231 -63.4048 155.184 -17.7572 193.076 59.5073C239.393 153.953 270.91 163.553 294.704 151.934C304.436 147.181 312.922 138.873 320.596 131.359C328.623 123.5 335.773 116.5 342.672 115.198C354.181 113.027 364.663 126.711 376.54 178.672ZM379.775 174.501L379.029 175.464C367.084 122.933 356.567 109.288 345.028 111.466C338.269 112.741 331.046 119.437 322.969 126.926C315.335 134.004 306.944 141.784 297.361 146.463C272.456 158.624 239.78 149.805 192.459 53.3151C154.762 -23.5499 103.842 -68.5468 61.5395 -94.4925L62.1222 -95.2435C104.538 -69.2089 155.554 -24.0965 193.313 52.8965C240.286 148.679 272.481 157.552 296.94 145.608C306.392 140.992 314.731 133.261 322.318 126.228C330.501 118.64 337.819 111.856 344.85 110.53C356.853 108.266 367.699 121.895 379.775 174.501ZM383.011 170.331L382.264 171.293C370.117 118.098 359.223 104.519 347.171 106.793C340.273 108.094 332.891 114.578 324.666 121.801C317.157 128.394 308.953 135.599 299.688 140.124C274.095 152.621 240.708 144.607 192.695 46.7051C155.14 -29.8724 106.148 -74.3377 65.6793 -99.8283L66.2614 -100.579C106.844 -74.9986 155.932 -30.4167 193.549 46.2858C241.213 143.476 274.119 151.549 299.267 139.269C308.411 134.803 316.568 127.64 324.034 121.084C332.361 113.772 339.835 107.208 346.993 105.858C359.507 103.496 370.731 117.061 383.011 170.331ZM386.247 166.16L385.5 167.122C373.145 113.245 361.86 99.7407 349.277 102.115C342.251 103.44 334.719 109.708 326.358 116.662C319.013 122.773 311.034 129.411 302.116 133.765C275.81 146.611 241.675 139.487 192.931 40.0933C155.528 -36.1748 108.454 -80.1132 69.8124 -105.155L70.392 -105.903C109.15 -80.7699 156.322 -36.7175 193.786 39.6746C242.179 138.352 275.831 145.541 301.696 132.91C310.497 128.613 318.437 122.007 325.746 115.926C334.203 108.891 341.823 102.551 349.099 101.178C362.143 98.7179 373.757 112.208 386.247 166.16ZM389.483 161.989L388.737 162.95C376.168 108.371 364.479 94.9534 351.346 97.4308C344.196 98.7795 336.527 104.825 328.048 111.509C320.904 117.14 313.188 123.222 304.66 127.386C277.611 140.595 242.689 134.46 193.168 33.4819C155.924 -42.4623 110.756 -85.8662 73.9322 -110.466L74.5098 -111.21C111.452 -86.5188 156.719 -43.001 194.022 33.0638C243.19 133.321 277.629 139.525 304.239 126.53C312.67 122.413 320.346 116.362 327.454 110.76C336.029 104.002 343.785 97.888 351.167 96.4953C364.759 93.9308 376.778 107.336 389.483 161.989ZM392.719 157.818L391.974 158.778C379.184 103.476 367.076 90.1568 353.373 92.7423C346.111 94.1121 338.318 99.933 329.732 106.345C322.836 111.495 315.434 117.023 307.333 120.979C279.509 134.566 243.755 129.542 193.404 26.8719C156.331 -48.7244 113.058 -91.5991 78.0429 -115.764L78.619 -116.506C113.753 -92.248 157.128 -49.2593 194.259 26.4538C244.254 128.398 279.524 133.5 306.912 120.125C314.929 116.21 322.296 110.708 329.16 105.582C337.837 99.1016 345.713 93.2189 353.195 91.8079C367.354 89.1351 379.793 102.444 392.719 157.818ZM395.955 153.647L395.21 154.607C382.194 98.5594 369.65 85.3531 355.357 88.0497C347.993 89.4389 340.088 95.0318 331.413 101.17C324.818 105.837 317.781 110.815 310.158 114.539C281.523 128.522 244.886 124.754 193.641 20.2606C156.752 -54.9582 115.358 -97.3093 82.144 -121.05L82.7185 -121.79C116.055 -97.956 157.552 -55.4892 194.496 19.8419C245.381 123.602 281.535 127.455 309.738 113.683C317.293 109.994 324.298 105.037 330.862 100.393C339.626 94.1916 347.611 88.5413 355.179 87.1135C369.926 84.331 382.803 97.5285 395.955 153.647ZM399.191 149.475L398.447 150.435C385.199 93.6195 372.2 80.5386 357.295 83.351C349.845 84.7568 341.844 90.12 333.092 95.9861C326.867 100.158 320.265 104.584 313.162 108.053C283.675 122.452 246.092 120.124 193.876 13.6501C157.189 -61.1613 117.658 -102.996 86.2327 -126.32L86.8057 -127.058C118.355 -103.638 157.992 -61.6872 194.732 13.2311C246.586 118.966 283.684 121.387 312.742 107.197C319.765 103.768 326.35 99.3542 332.558 95.1929C341.391 89.2722 349.468 83.8581 357.117 82.4148C372.475 79.5173 385.805 92.5893 399.191 149.475ZM402.429 145.303L401.684 146.263C388.196 88.6542 374.726 75.7154 359.185 78.6477C351.654 80.0684 343.574 85.1985 334.766 90.7893C301.823 111.703 258.829 138.996 194.115 7.03851C157.644 -67.3279 119.957 -108.653 90.3088 -131.574L90.8803 -132.31C120.654 -109.292 158.448 -67.8489 194.969 6.61989C259.214 137.622 301.7 110.651 334.254 89.9857C343.142 84.3439 351.297 79.1665 359.007 77.7115C374.999 74.6944 388.801 87.6237 402.429 145.303ZM405.665 141.131L404.92 142.092C391.185 83.6676 377.224 70.8827 361.022 73.9397C353.429 75.3724 345.284 80.2681 336.438 85.5847C302.732 105.843 258.952 132.157 194.351 0.427936C158.117 -73.455 122.255 -114.281 94.3706 -136.809L94.9385 -137.541C122.953 -114.912 158.925 -73.9698 195.205 0.0098217C259.349 130.805 302.626 104.795 335.945 84.7685C344.867 79.4063 353.082 74.4687 360.845 73.004C377.495 69.8619 391.79 82.6305 405.665 141.131ZM408.902 136.96L408.156 137.921C394.167 78.651 379.692 66.0394 362.804 69.2262C355.165 70.6682 346.973 75.3273 338.107 80.3707C303.641 99.9768 259.081 125.323 194.588 -6.18345C158.607 -79.5509 124.549 -119.867 98.41 -142.015L98.9728 -142.741C125.245 -120.492 159.417 -80.0606 195.442 -6.60157C259.488 123.993 303.551 98.9282 337.634 79.5408C346.569 74.458 354.825 69.7624 362.626 68.2907C379.961 65.0195 394.768 77.612 408.902 136.96ZM412.137 132.789L411.392 133.75C397.138 73.6025 382.129 61.1865 364.524 64.5086C356.854 65.9557 348.637 70.3778 339.774 75.1459C304.549 94.1013 259.212 118.497 194.825 -12.7953C159.119 -85.6003 126.84 -125.413 102.429 -147.195L102.987 -147.915C127.537 -126.03 159.933 -86.1012 195.679 -13.2128C259.629 117.187 304.474 93.0568 339.317 74.3068C348.245 69.5028 356.523 65.0487 364.346 63.573C382.396 60.1668 397.739 72.5648 412.137 132.789ZM415.373 128.619L414.628 129.579C400.101 68.5208 384.531 56.3249 366.178 59.7873C358.491 61.2378 350.271 65.419 341.436 69.9145C305.454 88.2202 259.344 111.677 195.061 -19.4043C159.66 -91.5924 129.129 -130.913 106.425 -152.345L106.98 -153.061C129.827 -131.522 160.479 -92.0831 195.916 -19.8242C259.774 110.388 305.397 87.1781 341.001 69.065C349.9 64.5379 358.18 60.3265 366.002 58.8498C384.796 55.3048 400.7 67.4832 415.373 128.619ZM418.609 124.448L417.865 125.407C403.053 63.3976 386.896 51.45 367.763 55.06C360.087 56.5084 351.884 60.4511 343.097 64.6744C306.359 82.3319 259.482 104.862 195.298 -26.0162C160.232 -97.5195 131.418 -136.362 110.397 -157.465L110.944 -158.171C132.116 -136.958 161.058 -97.9963 196.153 -26.4349C259.92 103.591 306.318 81.2915 342.681 63.8136C351.522 59.5646 359.774 55.5979 367.585 54.1243C387.159 50.4315 403.651 62.3626 418.609 124.448ZM421.845 120.276L421.101 121.236C405.994 58.2338 389.219 46.5662 369.268 50.3307C361.619 51.774 353.463 55.4744 344.754 59.4264C307.261 76.4375 259.622 98.0536 195.534 -32.6274C160.829 -103.395 133.699 -141.746 114.332 -162.538L114.869 -163.23C134.397 -142.326 161.66 -103.861 196.389 -33.0462C260.068 96.8016 307.237 75.3997 344.359 58.5565C353.118 54.5822 361.323 50.8597 369.091 49.3939C389.481 45.5478 406.589 57.1991 421.845 120.276ZM425.081 116.105L424.338 117.063C408.924 53.0223 391.498 41.6714 370.688 45.5979C363.091 47.0316 355.009 50.4904 346.409 54.1704C308.164 70.5371 259.764 91.2496 195.77 -39.2375C161.462 -109.196 135.977 -147.064 118.233 -167.566L118.756 -168.24C136.676 -147.622 162.305 -109.638 196.626 -39.6569C260.22 90.0166 308.156 69.5025 346.035 53.2932C354.682 49.5931 362.809 46.1151 370.511 44.6616C391.757 40.6528 409.516 51.9892 425.081 116.105ZM428.319 111.933L427.576 112.89C411.838 47.7575 393.726 36.7651 372.013 40.8621C364.5 42.28 356.523 45.4963 348.064 48.9073C309.068 64.6307 259.909 84.4518 196.007 -45.8482C162.143 -114.901 138.253 -152.305 122.096 -172.544L122.598 -173.192C138.951 -152.833 163 -115.316 196.862 -46.267C260.372 83.2357 309.072 63.5994 347.704 48.023C356.205 44.5954 364.222 41.3629 371.835 39.9266C393.983 35.7473 412.428 46.7257 428.319 111.933ZM37.1703 -63.0826C90.6909 -34.2097 153.449 14.1728 191.893 92.5619C235.334 181.144 263.854 193.57 284.643 183.418C295.444 178.144 304.227 166.767 311.924 156.797C319.005 147.623 325.18 139.626 331.324 138.466C340.583 136.719 349.412 150.579 360.359 199.526L359.612 200.489C348.79 151.613 340.287 137.745 331.501 139.402C325.712 140.494 319.641 148.36 312.676 157.381C304.917 167.432 296.063 178.902 285.062 184.273C263.815 194.649 234.816 182.251 191.036 92.9797C152.664 14.7345 89.9946 -33.5364 36.582 -62.3244L37.1703 -63.0826Z" fill="#0B3D2E" fill-opacity="0.1"></path></svg>