<svg xmlns="http://www.w3.org/2000/svg" width="122" height="30" viewBox="0 0 122 30" fill="none"><g clip-path="url(#clip0_2032_420)"><path fill-rule="evenodd" clip-rule="evenodd" d="M14.269 0.713867C19.6033 0.713867 22.2706 0.713721 24.2573 1.86202C25.5588 2.61432 26.6398 3.69656 27.3912 4.99958C28.5382 6.98858 28.538 9.65901 28.538 14.9996C28.538 20.3402 28.5382 23.0106 27.3912 24.9996C26.6398 26.3026 25.5588 27.3849 24.2573 28.1372C22.2706 29.2854 19.6033 29.2853 14.269 29.2853C8.93468 29.2853 6.26738 29.2854 4.2807 28.1372C2.9792 27.3849 1.89823 26.3026 1.14681 24.9996C-0.000146201 23.0106 0 20.3402 0 14.9996C0 9.65901 -0.000146201 6.98858 1.14681 4.99958C1.89823 3.69656 2.9792 2.61432 4.2807 1.86202C6.26738 0.713721 8.93468 0.713867 14.269 0.713867ZM15.6959 3.57101C9.39143 3.57101 4.2807 8.68772 4.2807 14.9996C4.2807 21.3114 9.39143 26.4282 15.6959 26.4282C22.0004 26.4282 27.1111 21.3114 27.1111 14.9996C27.1111 8.68772 22.0004 3.57101 15.6959 3.57101Z" fill="#696969"></path><path d="M25.684 14.9993C25.684 18.9442 22.4898 22.1422 18.5495 22.1422C14.6093 22.1422 11.415 18.9442 11.415 14.9993C11.415 11.0544 14.6093 7.85645 18.5495 7.85645C22.4898 7.85645 25.684 11.0544 25.684 14.9993Z" fill="#696969"></path><path d="M41.8077 24.2853H37.6982L43.9053 6.09961H48.7781L55.1421 24.2853H51.0112L48.1003 15.5068C47.7484 14.3782 47.3917 13.1401 47.0302 11.7925C46.6687 10.4448 46.2882 8.97342 45.8887 7.37818H46.6949C46.3143 8.98294 45.9552 10.4615 45.6175 11.8139C45.2798 13.171 44.9445 14.402 44.6116 15.5068L41.8077 24.2853ZM51.2681 20.0639H41.5723V17.1425H51.2681V20.0639ZM66.9568 24.2853H55.5844V22.0639L62.298 13.6925V13.5925H55.7913V10.6353H66.7285V13.0639L60.386 21.2353V21.3282H66.9568V24.2853ZM74.5123 24.5568C73.1234 24.5568 71.9248 24.271 70.9165 23.6996C69.9081 23.1282 69.1352 22.3187 68.5978 21.271C68.0556 20.2187 67.7844 18.9734 67.7844 17.5353C67.7844 16.1258 68.0532 14.8925 68.5906 13.8353C69.1281 12.7782 69.8867 11.952 70.8665 11.3568C71.8511 10.7615 73.0069 10.4639 74.3339 10.4639C75.2281 10.4639 76.0605 10.6068 76.831 10.8925C77.6063 11.1782 78.2864 11.6091 78.8715 12.1853C79.4565 12.7568 79.9131 13.4734 80.2413 14.3353C80.5695 15.1972 80.7336 16.2139 80.7336 17.3853V18.4139H69.2827V16.121H78.9428L77.2377 16.7282C77.2377 16.0187 77.1283 15.402 76.9095 14.8782C76.6954 14.3544 76.3744 13.9472 75.9463 13.6568C75.523 13.371 74.9927 13.2282 74.3553 13.2282C73.7322 13.2282 73.1995 13.3734 72.7572 13.6639C72.3101 13.9591 71.9748 14.3568 71.7512 14.8568C71.5229 15.3568 71.4088 15.9282 71.4088 16.571V18.1925C71.4088 18.9829 71.5396 19.6472 71.8012 20.1853C72.0675 20.7234 72.4385 21.1258 72.9142 21.3925C73.3898 21.6591 73.9439 21.7925 74.5765 21.7925C75.0093 21.7925 75.3993 21.7329 75.7465 21.6139C76.0985 21.4901 76.3982 21.3091 76.6455 21.071C76.8928 20.8282 77.0807 20.5329 77.2091 20.1853L80.5267 20.8068C80.3079 21.5544 79.925 22.2115 79.378 22.7782C78.8358 23.3448 78.1556 23.7829 77.3375 24.0925C76.5195 24.402 75.5777 24.5568 74.5123 24.5568ZM85.2711 16.3853V24.2853H81.6111V10.6353H85.0642L85.1213 14.0425H84.9001C85.2616 12.9044 85.8038 12.0234 86.5268 11.3996C87.2545 10.7758 88.1963 10.4639 89.352 10.4639C90.2938 10.4639 91.1143 10.671 91.8135 11.0853C92.5126 11.4948 93.0572 12.0853 93.4473 12.8568C93.8373 13.6234 94.0323 14.5401 94.0323 15.6068V24.2853H90.3794V16.2425C90.3794 15.3948 90.1606 14.7306 89.723 14.2496C89.2902 13.7687 88.6862 13.5282 87.9109 13.5282C87.402 13.5282 86.9453 13.6401 86.5411 13.8639C86.1415 14.0877 85.83 14.4115 85.6064 14.8353C85.3829 15.2591 85.2711 15.7758 85.2711 16.3853ZM100.518 24.5139C99.4711 24.5139 98.527 24.2448 97.6851 23.7068C96.8433 23.1639 96.1798 22.371 95.6946 21.3282C95.2047 20.2806 94.9598 18.9996 94.9598 17.4853C94.9598 15.9329 95.2119 14.6353 95.716 13.5925C96.2202 12.5496 96.8908 11.7687 97.728 11.2496C98.5651 10.7258 99.4878 10.4639 100.496 10.4639C101.267 10.4639 101.909 10.5948 102.422 10.8568C102.936 11.1187 103.35 11.4401 103.664 11.821C103.983 12.202 104.218 12.5734 104.37 12.9353H104.491V6.09961H108.151V24.2853H104.556V22.0996H104.37C104.208 22.4663 103.968 22.8353 103.65 23.2068C103.326 23.5782 102.908 23.8877 102.394 24.1353C101.885 24.3877 101.26 24.5139 100.518 24.5139ZM101.645 21.5782C102.258 21.5782 102.786 21.4068 103.229 21.0639C103.666 20.721 103.999 20.2425 104.227 19.6282C104.456 19.0139 104.57 18.2948 104.57 17.471C104.57 16.6425 104.458 15.9258 104.235 15.321C104.011 14.7115 103.678 14.2401 103.236 13.9068C102.798 13.5687 102.268 13.3996 101.645 13.3996C101.003 13.3996 100.463 13.5734 100.025 13.921C99.5924 14.2734 99.2666 14.7544 99.0478 15.3639C98.8243 15.9734 98.7125 16.6758 98.7125 17.471C98.7125 18.271 98.8243 18.9806 99.0478 19.5996C99.2714 20.2187 99.602 20.702 100.04 21.0496C100.472 21.402 101.007 21.5782 101.645 21.5782ZM113.452 24.5568C112.591 24.5568 111.819 24.4044 111.134 24.0996C110.444 23.7901 109.902 23.3329 109.507 22.7282C109.117 22.1234 108.922 21.3687 108.922 20.4639C108.922 19.7068 109.062 19.071 109.343 18.5568C109.624 18.0472 110.004 17.6377 110.484 17.3282C110.97 17.0187 111.519 16.7829 112.133 16.621C112.746 16.4591 113.391 16.3448 114.066 16.2782C114.856 16.1972 115.49 16.121 115.971 16.0496C116.456 15.9829 116.81 15.8734 117.034 15.721C117.257 15.5734 117.369 15.352 117.369 15.0568V14.9925C117.369 14.602 117.288 14.2734 117.127 14.0068C116.965 13.7401 116.725 13.5353 116.406 13.3925C116.087 13.2496 115.697 13.1782 115.236 13.1782C114.765 13.1782 114.354 13.2496 114.002 13.3925C113.655 13.5353 113.372 13.7234 113.153 13.9568C112.929 14.1948 112.765 14.4591 112.66 14.7496L109.307 14.1925C109.545 13.402 109.935 12.7306 110.477 12.1782C111.024 11.621 111.702 11.1972 112.511 10.9068C113.319 10.6115 114.228 10.4639 115.236 10.4639C115.973 10.4639 116.689 10.552 117.384 10.7282C118.073 10.9044 118.691 11.1758 119.238 11.5425C119.79 11.9091 120.225 12.3853 120.544 12.971C120.868 13.5568 121.029 14.2639 121.029 15.0925V24.2853H117.562V22.3925H117.441C117.222 22.8163 116.929 23.1877 116.563 23.5068C116.197 23.8306 115.757 24.0853 115.243 24.271C114.725 24.4615 114.128 24.5568 113.452 24.5568ZM114.494 21.9782C115.07 21.9782 115.574 21.8639 116.007 21.6353C116.444 21.4068 116.784 21.0972 117.027 20.7068C117.269 20.3163 117.391 19.8806 117.391 19.3996V17.9282C117.286 18.0091 117.124 18.0806 116.906 18.1425C116.687 18.2091 116.442 18.2663 116.171 18.3139C115.904 18.3663 115.64 18.4115 115.379 18.4496C115.122 18.4925 114.891 18.5258 114.687 18.5496C114.24 18.6115 113.845 18.7163 113.502 18.8639C113.16 19.0115 112.896 19.2044 112.71 19.4425C112.525 19.6853 112.432 19.9925 112.432 20.3639C112.432 20.7163 112.52 21.0115 112.696 21.2496C112.877 21.4925 113.119 21.6734 113.424 21.7925C113.728 21.9163 114.085 21.9782 114.494 21.9782Z" fill="#696969"></path></g><defs><clipPath id="clip0_2032_420"><rect width="122" height="30" fill="white"></rect></clipPath></defs></svg>