<svg width="40" height="39" viewBox="0 0 40 39" xmlns="http://www.w3.org/2000/svg">
<path d="M36.7894 16.5887C36.6362 12.2256 34.8694 8.14563 31.7669 5.04313C28.515 1.79063 24.1931 0 19.5981 0C10.3175 0 2.73437 7.38688 2.4075 16.5887C0.99125 17.2181 0 18.6356 0 20.2831V24.8219C0 27.0506 1.81313 28.8644 4.0425 28.8644C5.485 28.8644 6.65812 27.6912 6.65812 26.2488V18.8556C6.65812 17.5013 5.61937 16.3969 4.29875 16.2656C4.78625 8.24875 11.46 1.875 19.5981 1.875C23.6931 1.875 27.5437 3.47125 30.4419 6.36938C33.1031 9.03063 34.6606 12.4994 34.895 16.2662C33.5756 16.3988 32.5387 17.5025 32.5387 18.8556V26.2481C32.5387 27.6138 33.5937 28.725 34.93 28.8406V30.7087C34.93 32.8125 33.2181 34.5238 31.1144 34.5238H28.2887C28.15 34.1275 27.9325 33.7612 27.6275 33.4575C27.0931 32.9206 26.3806 32.625 25.6219 32.625H22.7094C22.2913 32.625 21.89 32.7137 21.5225 32.885C20.52 33.3456 19.8725 34.3569 19.8725 35.4613C19.8725 36.22 20.1681 36.9325 20.7038 37.4656C21.2394 38.0025 21.9519 38.2981 22.7094 38.2981H25.6219C26.8294 38.2981 27.8937 37.5175 28.2906 36.3988H31.1144C34.2525 36.3988 36.805 33.8462 36.805 30.7087V28.5069C38.2125 27.8738 39.1962 26.4613 39.1962 24.8206V20.2819C39.1962 18.6356 38.205 17.2181 36.7894 16.5887ZM4.7825 18.8556V26.2481C4.7825 26.6563 4.45062 26.9888 4.04187 26.9888C2.84687 26.9888 1.87438 26.0163 1.87438 24.8213V20.2825C1.87438 19.0869 2.84687 18.115 4.04187 18.115C4.45062 18.115 4.7825 18.4475 4.7825 18.8556ZM26.5625 35.6625C26.4694 36.1038 26.0731 36.4244 25.6213 36.4244H22.7087C22.4525 36.4244 22.2119 36.3244 22.0281 36.1406C21.8469 35.96 21.7469 35.7188 21.7469 35.4625C21.7469 35.0881 21.9662 34.7463 22.31 34.5881C22.4325 34.5306 22.5669 34.5013 22.7087 34.5013H25.6213C25.8775 34.5013 26.1181 34.6006 26.3012 34.7844C26.4825 34.965 26.5825 35.2062 26.5825 35.4625C26.5831 35.5312 26.5756 35.6 26.5625 35.6625ZM37.3212 24.8213C37.3212 26.0163 36.3487 26.9888 35.1537 26.9888C34.7456 26.9888 34.4131 26.6569 34.4131 26.2481V18.8556C34.4131 18.4475 34.745 18.115 35.1537 18.115C36.3487 18.115 37.3212 19.0875 37.3212 20.2825V24.8213Z"/>
<path d="M25.6684 25.1444C27.8591 25.1444 29.6409 23.3619 29.6409 21.1719V13.0775C29.6409 12.0187 29.2272 11.0212 28.4759 10.27C27.7247 9.51873 26.7278 9.10498 25.6684 9.10498H13.5272C11.3366 9.10498 9.55469 10.8869 9.55469 13.0775V21.1719C9.55469 23.3625 11.3366 25.1444 13.5272 25.1444H13.6016V27.2419C13.6016 28.0419 14.0784 28.7519 14.8159 29.0512C15.0541 29.1469 15.3016 29.1944 15.5466 29.1944C16.0572 29.1944 16.5547 28.9919 16.9191 28.615L20.4084 25.1444H25.6684ZM19.3616 23.5419L15.5853 27.2975C15.5684 27.315 15.5559 27.3281 15.5203 27.3125C15.4772 27.295 15.4772 27.2669 15.4772 27.2419V24.2069C15.4772 23.6894 15.0578 23.2694 14.5397 23.2694H13.5278C12.3709 23.2694 11.4303 22.3281 11.4303 21.1719V13.0775C11.4303 11.9206 12.3709 10.98 13.5278 10.98H25.6691C26.2278 10.98 26.7534 11.1987 27.1509 11.5956C27.5484 11.9931 27.7666 12.5194 27.7666 13.0775V21.1719C27.7666 22.3287 26.8253 23.2694 25.6691 23.2694H20.0228C19.7747 23.2694 19.5372 23.3675 19.3616 23.5419Z"/>
<path d="M15.0433 15.8914C14.2808 15.8914 13.6602 16.5126 13.6602 17.2745C13.6602 18.0364 14.2814 18.6576 15.0433 18.6576C15.8064 18.6576 16.4277 18.0364 16.4277 17.2745C16.4277 16.5126 15.807 15.8914 15.0433 15.8914Z"/>
<path d="M19.598 15.8914C18.8355 15.8914 18.2148 16.5126 18.2148 17.2745C18.2148 18.0364 18.8361 18.6576 19.598 18.6576C20.3617 18.6576 20.9823 18.0364 20.9823 17.2745C20.9823 16.5126 20.3617 15.8914 19.598 15.8914Z"/>
<path d="M24.1517 15.8914C23.3892 15.8914 22.7686 16.5126 22.7686 17.2745C22.7686 18.0364 23.3898 18.6576 24.1517 18.6576C24.9148 18.6576 25.5361 18.0364 25.5361 17.2745C25.5361 16.5126 24.9148 15.8914 24.1517 15.8914Z"/>
</svg>
