<svg xmlns="http://www.w3.org/2000/svg" width="22" height="22" viewBox="0 0 22 22"><path d="M20.2197 0.21967C20.5126 -0.0732232 20.9873 -0.0732232 21.2802 0.21967C21.5731 0.512563 21.5731 0.987323 21.2802 1.28022L1.28022 21.2802C0.987323 21.5731 0.512563 21.5731 0.21967 21.2802C-0.0732232 20.9873 -0.0732232 20.5126 0.21967 20.2197L20.2197 0.21967Z"/><path d="M20 20.75V1.5H0.75C0.335786 1.5 0 1.16421 0 0.75C0 0.335786 0.335786 0 0.75 0H20.75C21.1642 0 21.5 0.335786 21.5 0.75V20.75C21.5 21.1642 21.1642 21.5 20.75 21.5C20.3358 21.5 20 21.1642 20 20.75Z"/></svg>