<svg width="36" height="40" viewBox="0 0 36 40" xmlns="http://www.w3.org/2000/svg">
<path d="M33.8816 6.47949C31.8901 5.78918 30.2949 4.17023 29.6138 2.14874C29.1807 0.863342 27.9883 0 26.6462 0H9.35383C8.012 0 6.81925 0.863342 6.38619 2.14874C5.70514 4.17023 4.10988 5.78918 2.11845 6.47949C0.85131 6.91895 0 8.12592 0 9.48303V13.8974C0 19.6579 1.71048 25.2045 4.94667 29.9377C7.90766 34.2685 11.9879 37.6575 16.7468 39.7388C17.1451 39.913 17.5724 40 18 40C18.4273 40 18.8546 39.913 19.2529 39.7388C24.0118 37.6578 28.092 34.2685 31.053 29.9377C34.2892 25.2045 36 19.6576 36 13.8974V9.48303C36 8.12592 35.1487 6.91895 33.8816 6.47949ZM33.6774 13.8974C33.6774 19.18 32.1088 24.2664 29.1411 28.6069C26.4275 32.576 22.6887 35.6818 18.3293 37.5882C18.1204 37.6797 17.8799 37.6801 17.6704 37.5882C13.3107 35.6818 9.57218 32.576 6.85857 28.6069C3.89123 24.2667 2.32258 19.1803 2.32258 13.8974V9.48303C2.32258 9.12659 2.54395 8.81042 2.87329 8.69629C5.53911 7.77191 7.6745 5.60638 8.58508 2.90314C8.69788 2.56866 9.00665 2.34375 9.35383 2.34375H26.6462C26.993 2.34375 27.3021 2.56866 27.4149 2.90314C28.3255 5.60638 30.4609 7.77191 33.1267 8.69629C33.456 8.81042 33.6774 9.12659 33.6774 9.48303V13.8974Z"/>
<path d="M22.9347 15.1943H22.8557V11.8569C22.8557 9.15521 20.6774 6.95703 18.0001 6.95703C15.3228 6.95703 13.1444 9.15521 13.1444 11.8569V15.1943H13.0655C11.5235 15.1943 10.269 16.4605 10.269 18.0166V24.761C10.269 27.6589 12.6055 30.017 15.477 30.017H20.5232C23.395 30.017 25.7311 27.6589 25.7311 24.761V18.0166C25.7311 16.4605 24.4767 15.1943 22.9347 15.1943ZM15.467 11.8569C15.467 10.4476 16.6035 9.30078 18.0001 9.30078C19.3967 9.30078 20.5332 10.4476 20.5332 11.8569V15.1946H15.467V11.8569ZM23.4086 24.761C23.4086 26.3668 22.1142 27.673 20.5232 27.673H15.477C13.886 27.673 12.5916 26.3668 12.5916 24.761V18.0166C12.5916 17.7529 12.8042 17.5384 13.0655 17.5384H22.9347C23.196 17.5384 23.4086 17.7529 23.4086 18.0166V24.761Z"/>
<path d="M18.0002 20.3267C17.3587 20.3267 16.8389 20.8513 16.8389 21.4985V23.7126C16.8389 24.3599 17.3587 24.8845 18.0002 24.8845C18.6416 24.8845 19.1614 24.3599 19.1614 23.7126V21.4985C19.1614 20.8513 18.6416 20.3267 18.0002 20.3267Z"/>
</svg>
