<svg width="40" height="40" viewBox="0 0 40 40" xmlns="http://www.w3.org/2000/svg">
<g clip-path="url(#clip0_498_25465)">
<path d="M28.2218 21.5929L25.8007 19.1719L32.1992 12.7734L33.0279 13.602C33.5644 14.1385 34.4674 14.0328 34.8613 13.3763L39.833 5.09012C40.1097 4.62903 40.037 4.0388 39.6567 3.65864L36.3422 0.344202C35.9621 -0.0360311 35.3718 -0.108609 34.9107 0.167953L26.6246 5.13965C25.9707 5.53199 25.8608 6.43496 26.3989 6.97308L27.2276 7.80167L20.829 14.2002L18.4079 11.7791C19.2601 8.59487 18.3909 5.1327 15.9805 2.72224C12.9654 -0.292749 8.45194 -0.769934 4.92219 1.13139C4.5961 1.30709 4.37227 1.62654 4.31844 1.99302C4.26469 2.35951 4.38735 2.72982 4.6493 2.99177L9.04709 7.38956C9.50405 7.84652 9.50405 8.58995 9.04709 9.04675C8.59014 9.5037 7.84679 9.50378 7.38983 9.04675L2.99204 4.64887C2.73009 4.38692 2.3597 4.26419 1.99329 4.31801C1.62681 4.37176 1.30736 4.59567 1.13166 4.92176C-0.762478 8.43831 -0.302635 12.9548 2.72267 15.98C5.12773 18.3851 8.58811 19.2616 11.7795 18.4075L12.5431 19.171L1.71884 29.9955C-0.572244 32.2866 -0.57365 35.9895 1.71884 38.282C4.00344 40.5665 7.72069 40.5667 10.0054 38.282L20.8295 27.4575L21.5933 28.2213C20.7411 31.4055 21.6103 34.8677 24.0207 37.2781C27.0358 40.2932 31.5493 40.7704 35.079 38.8691C35.4051 38.6933 35.6289 38.3739 35.6828 38.0074C35.7365 37.6409 35.6139 37.2706 35.3519 37.0087L30.9541 32.6109C30.4972 32.1539 30.4972 31.4105 30.9541 30.9537C31.4111 30.4967 32.1545 30.4968 32.6114 30.9537L37.0092 35.3515C37.271 35.6134 37.6414 35.7359 38.0079 35.6823C38.3744 35.6286 38.6939 35.4047 38.8696 35.0786C40.7637 31.562 40.3039 27.0456 37.2786 24.0204C34.8736 21.6154 31.4132 20.7388 28.2218 21.5929ZM35.332 2.64841L37.3525 4.66887L33.6238 10.8834L29.1174 6.37715L35.332 2.64841ZM28.8848 9.45893L30.5419 11.1161L24.1434 17.5146L22.4862 15.8574L28.8848 9.45893ZM8.34811 36.6249C6.97734 37.9957 4.74688 37.9957 3.37602 36.6249C2.00064 35.2495 1.99978 33.0291 3.37602 31.6528L14.2002 20.8283L19.1723 25.8004L8.34811 36.6249ZM37.4164 32.4442L34.2686 29.2965C32.898 27.926 30.6677 27.9259 29.2969 29.2965C27.9263 30.6671 27.9263 32.8974 29.2969 34.2682L32.4447 37.4159C30.0531 38.0689 27.4826 37.4255 25.678 35.621C23.7681 33.7111 23.1196 30.8318 24.0259 28.2857C24.1777 27.8594 24.0705 27.3839 23.7506 27.0641L12.9368 16.2503C12.6175 15.9311 12.1424 15.8229 11.7152 15.9749C9.16897 16.8812 6.28976 16.2327 4.37985 14.3228C2.57532 12.5183 1.93197 9.94784 2.58493 7.55628L5.73265 10.704C7.10327 12.0746 9.33358 12.0745 10.7044 10.704C12.075 9.33339 12.075 7.10308 10.7044 5.73231L7.55663 2.58458C9.94811 1.93146 12.5187 2.57497 14.3232 4.3795C16.2332 6.28941 16.8817 9.1687 15.9753 11.7149C15.8236 12.1411 15.9308 12.6166 16.2507 12.9364L27.0644 23.7501C27.3844 24.07 27.8598 24.1772 28.286 24.0255C30.8321 23.1192 33.7114 23.7678 35.6214 25.6776C37.426 27.4823 38.0693 30.0527 37.4164 32.4442Z"/>
<path d="M15.2368 24.9985C14.7791 24.5409 14.0373 24.5409 13.5796 24.9985L6.41887 32.1594C5.96129 32.6171 5.96129 33.359 6.41887 33.8166C6.8766 34.2743 7.61839 34.2742 8.07605 33.8166L15.2367 26.6556C15.6943 26.198 15.6943 25.456 15.2368 24.9985Z"/>
</g>
<defs>
<clipPath id="clip0_498_25465">
<rect width="40" height="40"/>
</clipPath>
</defs>
</svg>
