<svg width="40" height="40" viewBox="0 0 40 40" xmlns="http://www.w3.org/2000/svg">
<path d="M0.910153 20C0.951499 19.9999 0.992798 19.9972 1.03379 19.9918C7.71207 19.0857 14.2255 17.2245 20.3743 14.4655C26.5837 11.6718 32.3529 7.98821 37.5001 3.53091L36.3928 7.96182C36.3345 8.19556 36.3714 8.44289 36.4953 8.64948C36.6192 8.85607 36.8201 9.00503 37.0538 9.06363C37.126 9.08152 37.2002 9.09067 37.2747 9.09091C37.4773 9.09065 37.674 9.0227 37.8336 8.89785C37.9932 8.77301 38.1066 8.59842 38.1556 8.40182L39.9738 1.12909C40.0072 0.995181 40.0097 0.855424 39.9811 0.720417C39.9524 0.58541 39.8934 0.458697 39.8085 0.349884C39.7236 0.241072 39.6151 0.153016 39.4911 0.0923945C39.3671 0.0317728 39.2309 0.00017611 39.0929 0H31.82C31.5789 0 31.3476 0.0957789 31.1772 0.266266C31.0067 0.436754 30.9109 0.667985 30.9109 0.909091C30.9109 1.1502 31.0067 1.38143 31.1772 1.55191C31.3476 1.7224 31.5789 1.81818 31.82 1.81818H36.701C31.589 6.31051 25.8348 10.0144 19.6288 12.8073C13.6387 15.495 7.29335 17.3078 0.787423 18.19C0.558854 18.2209 0.350564 18.3375 0.204745 18.5162C0.0589263 18.6949 -0.013519 18.9223 0.00208409 19.1524C0.0176872 19.3825 0.120172 19.5981 0.288779 19.7555C0.457386 19.9128 0.679509 20.0003 0.910153 20Z"/>
<path d="M39.0919 38.1818H38.1827V13.6364C38.1827 13.3953 38.087 13.164 37.9165 12.9936C37.746 12.8231 37.5147 12.7273 37.2736 12.7273H28.1825C27.9414 12.7273 27.7102 12.8231 27.5397 12.9936C27.3692 13.164 27.2734 13.3953 27.2734 13.6364V38.1818H25.4552V19.0909C25.4552 18.8498 25.3594 18.6186 25.1889 18.4481C25.0184 18.2776 24.7872 18.1818 24.5461 18.1818H15.4549C15.2138 18.1818 14.9826 18.2776 14.8121 18.4481C14.6416 18.6186 14.5458 18.8498 14.5458 19.0909V38.1818H12.7276V24.5455C12.7276 24.3044 12.6318 24.0731 12.4613 23.9026C12.2908 23.7322 12.0596 23.6364 11.8185 23.6364H2.72734C2.48623 23.6364 2.25499 23.7322 2.0845 23.9026C1.91401 24.0731 1.81823 24.3044 1.81823 24.5455V38.1818H0.909113C0.668001 38.1818 0.436765 38.2776 0.266273 38.4481C0.0957812 38.6186 0 38.8498 0 39.0909C0 39.332 0.0957812 39.5633 0.266273 39.7337C0.436765 39.9042 0.668001 40 0.909113 40H39.0919C39.333 40 39.5642 39.9042 39.7347 39.7337C39.9052 39.5633 40.001 39.332 40.001 39.0909C40.001 38.8498 39.9052 38.6186 39.7347 38.4481C39.5642 38.2776 39.333 38.1818 39.0919 38.1818ZM29.0916 14.5455H36.3645V38.1818H29.0916V14.5455ZM16.364 20H23.6369V38.1818H16.364V20ZM3.63645 25.4546H10.9094V38.1818H3.63645V25.4546Z"/>
</svg>
