<svg width="70" height="55" viewBox="0 0 70 55" xmlns="http://www.w3.org/2000/svg">
<path d="M29.8764 3.92162L27.3364 0C9.76301 11.8621 0 26.2749 0 38.137C0 49.607 8.39775 55 15.524 55C24.5059 55 30.8511 47.3513 30.8511 39.3135C30.8511 32.5495 26.5554 26.7643 20.7944 24.6058C19.1355 24.016 17.5734 23.5266 17.5734 20.6842C17.5734 17.0575 20.2102 11.6676 29.8764 3.92162ZM68.6347 3.92162L66.0948 0C48.7151 11.8621 38.7584 26.2749 38.7584 38.137C38.7584 49.607 47.3498 55 54.476 55C63.5548 55 70 47.3513 70 39.3135C70 32.5495 65.6074 26.7643 59.6496 24.6058C57.9907 24.016 56.5255 23.5266 56.5255 20.6842C56.5255 17.0575 59.2591 11.6645 68.6316 3.91849L68.6347 3.92162Z"/>
</svg>
