<svg width="50" height="50" viewBox="0 0 50 50" fill="none" xmlns="http://www.w3.org/2000/svg">
<g clip-path="url(#clip0_550_1374)">
<path d="M48.111 20.6533L27.7165 20.6523C26.8159 20.6523 26.0859 21.3822 26.0859 22.2828V28.798C26.0859 29.6983 26.8159 30.4284 27.7164 30.4284H39.2014C37.9438 33.6922 35.5965 36.4255 32.6018 38.1622L37.4989 46.6396C45.3546 42.0964 49.9989 34.1248 49.9989 25.2012C49.9989 23.9306 49.9053 23.0223 49.718 21.9995C49.5756 21.2225 48.901 20.6533 48.111 20.6533Z" fill="#167EE6"/>
<path d="M24.9989 40.2167C19.3784 40.2167 14.4718 37.1458 11.8365 32.6016L3.35938 37.4877C7.67334 44.9645 15.7548 49.9993 24.9989 49.9993C29.5338 49.9993 33.8128 48.7783 37.4989 46.6505V46.6389L32.6018 38.1613C30.3617 39.4605 27.7695 40.2167 24.9989 40.2167Z" fill="#12B347"/>
<path d="M37.5 46.6513V46.6396L32.6028 38.1621C30.3628 39.4612 27.7708 40.2175 25 40.2175V50.0001C29.5349 50.0001 33.8141 48.7791 37.5 46.6513Z" fill="#0F993E"/>
<path d="M9.78262 25.0001C9.78262 22.2297 10.5387 19.6378 11.8376 17.3979L3.36045 12.5117C1.2209 16.1862 0 20.4536 0 25.0001C0 29.5466 1.2209 33.814 3.36045 37.4885L11.8376 32.6023C10.5387 30.3624 9.78262 27.7705 9.78262 25.0001Z" fill="#FFD500"/>
<path d="M24.9989 9.78262C28.6641 9.78262 32.0307 11.085 34.6603 13.2513C35.309 13.7856 36.2519 13.7471 36.8461 13.1528L41.4623 8.53662C42.1365 7.8624 42.0885 6.75879 41.3683 6.13399C36.9625 2.31182 31.2301 0 24.9989 0C15.7548 0 7.67334 5.03486 3.35938 12.5116L11.8365 17.3978C14.4718 12.8535 19.3784 9.78262 24.9989 9.78262Z" fill="#FF4B26"/>
<path d="M34.6613 13.2513C35.3101 13.7856 36.253 13.7471 36.8472 13.1528L41.4634 8.53662C42.1375 7.8624 42.0895 6.75879 41.3693 6.13398C36.9636 2.31172 31.2312 0 25 0V9.78262C28.665 9.78262 32.0317 11.085 34.6613 13.2513Z" fill="#D93F21"/>
</g>
<defs>
<clipPath id="clip0_550_1374">
<rect width="50" height="50" fill="white"/>
</clipPath>
</defs>
</svg>
