<svg width="40" height="40" viewBox="0 0 40 40" xmlns="http://www.w3.org/2000/svg">
<g clip-path="url(#clip0_498_25430)">
<path d="M36.6986 0H3.30139C1.48102 0 0 1.48102 0 3.30139V3.31024C0 4.72046 0.888977 5.92712 2.13623 6.39893V29.6237C2.13623 31.3687 3.55713 32.7887 5.30365 32.7887H17.8406L14.3298 38.1894C13.9771 38.732 14.1312 39.4577 14.6738 39.8105C14.8709 39.9387 15.0925 40 15.3113 40C15.6946 40 16.0706 39.812 16.2949 39.4666L18.8281 35.5698V38.7906C18.8281 39.4376 19.3527 39.9625 20 39.9625C20.6473 39.9625 21.1719 39.4376 21.1719 38.7906V35.5698L23.7048 39.4666C24.0576 40.0092 24.7836 40.1633 25.3262 39.8105C25.8688 39.4577 26.0226 38.7317 25.6699 38.1891L22.1594 32.7887H34.6964C36.4429 32.7887 37.8638 31.3687 37.8638 29.6234V6.39893C39.111 5.92712 40 4.72046 40 3.31024V3.30139C40 1.48102 38.519 0 36.6986 0ZM2.34375 3.30139C2.34375 2.77313 2.77313 2.34375 3.30139 2.34375H36.6986C37.2269 2.34375 37.6562 2.77313 37.6562 3.30139V3.31024C37.6562 3.8382 37.2269 4.26758 36.6986 4.26758H3.30139C2.77313 4.26758 2.34375 3.8382 2.34375 3.31024V3.30139ZM35.52 29.6237C35.52 30.0766 35.1508 30.4449 34.6964 30.4449H5.30365C4.84924 30.4449 4.47998 30.0766 4.47998 29.6237V6.61133H35.52V29.6237Z"/>
<path d="M10.6384 16.5002C12.6949 16.5002 14.3682 14.8275 14.3682 12.7712C14.3682 10.7147 12.6949 9.04199 10.6384 9.04199C8.58148 9.04199 6.9082 10.7147 6.9082 12.7712C6.9082 14.8275 8.58148 16.5002 10.6384 16.5002ZM10.6384 11.3857C11.4028 11.3857 12.0245 12.0071 12.0245 12.7712C12.0245 13.5351 11.4028 14.1564 10.6384 14.1564C9.8739 14.1564 9.25195 13.5351 9.25195 12.7712C9.25195 12.0071 9.8739 11.3857 10.6384 11.3857Z"/>
<path d="M29.7514 21.9456C29.2936 21.4881 28.5518 21.4884 28.0943 21.9459C27.6365 22.4037 27.6368 23.1455 28.0943 23.6033L29.1383 24.6467L28.0943 25.6904C27.6365 26.1479 27.6365 26.8897 28.0943 27.3475C28.3229 27.5764 28.6229 27.6908 28.9229 27.6908C29.2228 27.6908 29.5225 27.5764 29.7514 27.3478L30.7957 26.3038L31.8403 27.3478C32.0689 27.5764 32.3689 27.6908 32.6686 27.6908C32.9686 27.6908 33.2689 27.5764 33.4974 27.3475C33.9549 26.8897 33.9549 26.1479 33.4971 25.6904L32.4534 24.6467L33.4971 23.6033C33.9549 23.1455 33.9549 22.4037 33.4974 21.9459C33.04 21.4881 32.2978 21.4881 31.8403 21.9456L30.7957 22.9896L29.7514 21.9456Z"/>
<path d="M8.54224 25.0682C8.77265 25.3102 9.0818 25.432 9.39155 25.432C9.68147 25.432 9.9723 25.3249 10.199 25.1091L17.4769 18.1822L21.5156 22.3949C21.8891 22.7846 22.4119 22.9885 22.9508 22.9531C23.4778 22.9186 23.9606 22.6601 24.2808 22.2417L29.5417 15.7567C29.7275 16.1638 30.1386 16.4418 30.6071 16.4418C30.6293 16.4418 30.6519 16.4412 30.6742 16.44C31.3203 16.4037 31.8146 15.8501 31.7783 15.204L31.6544 13.0086C31.6321 12.6183 31.45 12.2475 31.1545 11.9914C30.8588 11.7354 30.4661 11.6085 30.0764 11.642L27.6929 11.8489C27.0481 11.9051 26.5708 12.473 26.6267 13.1179C26.6798 13.7291 27.1934 14.1905 27.7961 14.1884L22.7994 20.3475L18.8093 16.1858C18.1476 15.4955 17.0551 15.4357 16.3218 16.0494L16.2931 16.0732L8.58314 23.4114C8.11439 23.8576 8.09608 24.5992 8.54224 25.0682Z"/>
</g>
<defs>
<clipPath id="clip0_498_25430">
<rect width="40" height="40"/>
</clipPath>
</defs>
</svg>
