<svg width="40" height="40" viewBox="0 0 40 40" xmlns="http://www.w3.org/2000/svg">
<g clip-path="url(#clip0_550_1088)">
<path fill-rule="evenodd" clip-rule="evenodd" d="M28.751 38.3334H26.251V22.0834C26.251 21.6234 25.876 21.25 25.4177 21.25C24.9593 21.25 24.5843 21.6234 24.5843 22.0834V38.3334H16.6677V30.4167C16.6677 29.9567 16.2927 29.5834 15.8343 29.5834C15.376 29.5834 15.001 29.9567 15.001 30.4167V38.3334H8.75101V31.6667C8.75101 31.2067 8.37601 30.8334 7.91767 30.8334C7.45934 30.8334 7.08434 31.2067 7.08434 31.6667V38.3334H0.834338C0.376005 38.3334 0.00100505 38.7067 0.00100505 39.1667C0.00100505 39.6267 0.376005 40 0.834338 40H39.1677C39.626 40 40.001 39.6267 40.001 39.1667C40.001 38.7067 39.626 38.3334 39.1677 38.3334H30.4177V20.8334C30.4177 20.3734 30.0427 20 29.5843 20C29.126 20 28.751 20.3734 28.751 20.8334V38.3334ZM37.1551 9.58336L29.2385 17.5H25.4177C25.1968 17.5 24.9844 17.5879 24.8302 17.7442L15.4885 27.0834H7.91767C7.69684 27.0834 7.48438 27.1713 7.33021 27.3275L0.246875 34.4109C-0.0822917 34.7359 -0.0822917 35.2642 0.246875 35.5892C0.571875 35.9146 1.0968 35.9146 1.4218 35.5892L8.26354 28.75H15.8343C16.0552 28.75 16.2676 28.6621 16.4218 28.5059L25.7635 19.1667H29.5843C29.8052 19.1667 30.0176 19.0788 30.1718 18.9225L38.3343 10.7617V12.0834C38.3343 12.5434 38.7093 12.9167 39.1677 12.9167C39.626 12.9167 40.001 12.5434 40.001 12.0834V8.75002C40.001 8.28961 39.6302 7.91669 39.1677 7.91669H35.8343C35.376 7.91669 35.001 8.29002 35.001 8.75002C35.001 9.21002 35.376 9.58336 35.8343 9.58336H37.1551ZM7.62603 24.8167C4.05103 22.615 1.66767 18.6671 1.66767 14.1667C1.66767 12.4796 2.00101 10.8704 2.60934 9.40169C2.78434 8.97627 2.58431 8.48878 2.15931 8.31294C1.73431 8.13753 1.24686 8.34002 1.0677 8.76502C0.380196 10.43 0.00100505 12.2542 0.00100505 14.1667C0.00100505 19.2667 2.70098 23.7409 6.75098 26.2354C7.14265 26.4767 7.65515 26.355 7.89682 25.9634C8.13848 25.5717 8.01769 25.0579 7.62603 24.8167ZM17.2094 21.9271C16.2677 22.2971 15.2385 22.5 14.1677 22.5C9.56767 22.5 5.83434 18.7659 5.83434 14.1667C5.83434 13.3059 5.96346 12.4754 6.2093 11.6938C6.34263 11.2546 6.09687 10.7871 5.65937 10.6509C5.22187 10.5142 4.75104 10.76 4.6177 11.1992C4.32604 12.1371 4.16767 13.1338 4.16767 14.1667C4.16767 19.6859 8.64684 24.1667 14.1677 24.1667C15.4552 24.1667 16.6843 23.9225 17.8177 23.4788C18.2468 23.3104 18.4551 22.8267 18.2885 22.3984C18.1218 21.9704 17.6344 21.7592 17.2094 21.9271ZM13.0885 10.1413C13.4343 10.0492 13.7927 10 14.1677 10C16.4677 10 18.3343 11.8671 18.3343 14.1667C18.3343 16.4663 16.4677 18.3334 14.1677 18.3334C11.8677 18.3334 10.001 16.4663 10.001 14.1667C10.001 13.7934 10.051 13.4317 10.1427 13.0875C10.2594 12.6429 9.99681 12.1859 9.55097 12.0667C9.10931 11.9479 8.65099 12.2121 8.53016 12.6563C8.40099 13.1379 8.33434 13.6446 8.33434 14.1667C8.33434 17.3863 10.9468 20 14.1677 20C17.3885 20 20.001 17.3863 20.001 14.1667C20.001 10.9471 17.3885 8.33336 14.1677 8.33336C13.6468 8.33336 13.1385 8.40211 12.6593 8.53128C12.2135 8.65044 11.951 9.10752 12.0677 9.55169C12.1885 9.99627 12.6426 10.26 13.0885 10.1413ZM11.6969 6.20669C12.476 5.96419 13.3052 5.83336 14.1677 5.83336C18.7677 5.83336 22.501 9.56753 22.501 14.1667C22.501 15.2392 22.2969 16.265 21.9261 17.2071C21.7594 17.635 21.9718 18.1192 22.401 18.2871C22.826 18.4554 23.3135 18.2442 23.4802 17.8159C23.9219 16.685 24.1677 15.4542 24.1677 14.1667C24.1677 8.64753 19.6885 4.16669 14.1677 4.16669C13.1343 4.16669 12.1385 4.32377 11.201 4.61544C10.7593 4.75169 10.5135 5.21919 10.651 5.65836C10.7885 6.09753 11.2552 6.34336 11.6969 6.20669ZM9.40103 2.60836C10.8719 2.00127 12.4802 1.66669 14.1677 1.66669C21.0677 1.66669 26.6677 7.26794 26.6677 14.1667C26.6677 14.6963 26.6343 15.2179 26.5718 15.73C26.5135 16.1863 26.8385 16.6034 27.2927 16.6604C27.751 16.7171 28.1677 16.3929 28.226 15.9367C28.2968 15.3567 28.3343 14.7659 28.3343 14.1667C28.3343 6.34794 21.9843 2.46815e-05 14.1677 2.46815e-05C12.2552 2.46815e-05 10.4302 0.380026 8.76769 1.06794C8.34269 1.24378 8.13848 1.73128 8.31349 2.15628C8.48848 2.58169 8.97603 2.78419 9.40103 2.60836ZM9.65514 10.8334L13.5802 14.7559C13.9052 15.0813 14.4301 15.0813 14.7551 14.7559C15.0843 14.4309 15.0843 13.9025 14.7551 13.5775L10.8343 9.65502V7.50002C10.8343 7.27919 10.7468 7.06711 10.5885 6.91086L7.91767 4.23836V3.33336C7.91767 3.11252 7.83014 2.90044 7.6718 2.74419L5.1718 0.244191C4.96347 0.0354408 4.65934 -0.0474773 4.376 0.0266894C4.0885 0.100856 3.86354 0.320443 3.78437 0.60461L3.07596 3.07586L0.605151 3.78211C0.321818 3.86336 0.101029 4.08836 0.0260295 4.37419C-0.0448039 4.66003 0.0385417 4.96378 0.246875 5.17253L2.74688 7.67253C2.90104 7.82878 3.1135 7.91669 3.33434 7.91669H4.23847L6.91354 10.5892C7.06771 10.7454 7.28017 10.8334 7.50101 10.8334H9.65514ZM2.42603 4.99544L3.98019 4.55128C4.25519 4.47211 4.47181 4.25586 4.55097 3.97877L4.99683 2.42419L6.251 3.67836V4.58336C6.251 4.80419 6.33854 5.01628 6.49687 5.17253L9.16767 7.84503V9.16669H7.84687L5.1718 6.49419C5.01763 6.33794 4.80517 6.25002 4.58434 6.25002H3.6802L2.42603 4.99544Z"/>
</g>
<defs>
<clipPath id="clip0_550_1088">
<rect width="40" height="40"/>
</clipPath>
</defs>
</svg>
