<svg width="40" height="47" viewBox="0 0 40 47" xmlns="http://www.w3.org/2000/svg">
<path d="M3.18124 46.5357H13.6653C14.1673 46.5357 14.5742 46.1288 14.5742 45.6268V45.0866C16.2343 46.028 18.1268 46.5357 20.0514 46.5357H28.9096C35.0249 46.5357 40 41.5605 40 35.4452V33.7365C40 30.7834 38.8534 28.0062 36.7711 25.9137L30.0397 18.3323L34.4266 11.2241C34.5997 10.9438 34.6074 10.5917 34.4469 10.3039C34.2863 10.0161 33.9826 9.83789 33.6531 9.83789H28.5839C28.0819 9.83789 27.675 10.2448 27.675 10.7468C27.675 11.2488 28.0819 11.6557 28.5839 11.6557H32.0242L28.404 17.5215H20.5573L17.1189 11.6557H20.5889C21.0909 11.6557 21.4978 11.2488 21.4978 10.7468C21.4978 10.2448 21.0909 9.83789 20.5889 9.83789H15.4899C15.1604 9.83789 14.8567 10.0162 14.6961 10.3039C14.5356 10.5916 14.5433 10.9438 14.7164 11.2241L18.9218 18.3328L12.1898 25.9138C11.6868 26.4194 11.2348 26.9728 10.8396 27.5629H0.908901C0.406915 27.5629 0 27.9698 0 28.4718V32.7605C0 33.2625 0.406915 33.6694 0.908901 33.6694H2.17464V36.1404H0.908901C0.406915 36.1404 0 36.5473 0 37.0493V41.338C0 41.84 0.406915 42.2469 0.908901 42.2469H2.27234V45.6268C2.27234 46.1288 2.67926 46.5357 3.18124 46.5357ZM12.7564 44.7179H4.09015V42.2469H12.7564V44.7179ZM12.3022 28.6445C12.6561 28.1025 13.0728 27.6011 13.5317 27.1406L20.459 19.3395H28.5029C28.5491 19.3891 35.4252 27.1405 35.4663 27.1798C37.2178 28.9311 38.1822 31.2597 38.1822 33.7365V35.4452C38.1822 40.5582 34.0225 44.7179 28.9096 44.7179H20.0514C18.0532 44.7179 16.1686 44.1006 14.5744 42.9285V41.3377C14.5744 40.8357 14.1675 40.4287 13.6655 40.4287H12.3022V37.9584H13.5673C14.0622 37.9584 14.4764 37.5442 14.4764 37.0493V32.7605C14.4764 32.2657 14.0622 31.8514 13.5673 31.8514H12.3022V28.6445H12.3022ZM1.8178 29.3807H10.4841V31.8516H1.8178V29.3807ZM3.99235 33.6694H12.6584V36.1404H3.99235V33.6694ZM1.8178 37.9582H10.4841V40.4291H1.8178V37.9582Z"/>
<path d="M19.8394 38.9814C20.218 39.2998 20.8015 39.2497 21.1201 38.8709L29.7571 28.6034C30.0802 28.2192 30.0308 27.6459 29.6467 27.3228C29.2625 26.9997 28.6891 27.049 28.366 27.4332L19.729 37.7007C19.4059 38.0849 19.4553 38.6583 19.8394 38.9814Z"/>
<path d="M20.9974 32.2944C22.5576 32.2944 23.8268 31.024 23.8268 29.4626C23.8268 27.9011 22.5575 26.6309 20.9974 26.6309C19.4372 26.6309 18.168 27.9012 18.168 29.4626C18.1681 31.024 19.4372 32.2944 20.9974 32.2944ZM20.9974 28.4487C21.5552 28.4487 22.009 28.9036 22.009 29.4626C22.009 30.0217 21.5552 30.4766 20.9974 30.4766C20.4396 30.4766 19.9858 30.0218 19.9858 29.4626C19.9858 28.9035 20.4396 28.4487 20.9974 28.4487Z"/>
<path d="M25.5001 37.062C25.5001 38.6234 26.7694 39.8938 28.3295 39.8938C29.8898 39.8938 31.1589 38.6234 31.1589 37.062C31.1589 35.5006 29.8897 34.2302 28.3295 34.2302C26.7694 34.2302 25.5001 35.5005 25.5001 37.062ZM29.3412 37.062C29.3412 37.6211 28.8874 38.076 28.3296 38.076C27.7718 38.076 27.318 37.6212 27.318 37.062C27.318 36.5028 27.7718 36.048 28.3296 36.048C28.8874 36.048 29.3412 36.5028 29.3412 37.062Z"/>
<path d="M10.7656 16.6938C11.2675 16.6938 11.6745 16.2869 11.6745 15.7849V3.13999L13.2755 4.75347C13.6241 5.10476 14.2097 5.10694 14.5609 4.75838C14.9171 4.40482 14.9193 3.8293 14.5658 3.47301L11.5226 0.40628C11.3598 0.161421 11.0817 0 10.7656 0C10.7615 0 10.7575 0.000545342 10.7533 0.000636232C10.7492 0.000545342 10.7451 0 10.7409 0C10.4986 0 10.2664 0.0967073 10.0958 0.268672L6.91609 3.47301C6.56253 3.8293 6.56471 4.40482 6.921 4.75838C7.27747 5.11203 7.85289 5.10976 8.20637 4.75347L9.85666 3.09036V15.7849C9.85666 16.2869 10.2636 16.6938 10.7656 16.6938Z"/>
<path d="M4.24755 7.51807C3.74556 7.51807 3.33865 7.92498 3.33865 8.42697V20.9532L1.73762 19.3397C1.38414 18.9835 0.808629 18.9812 0.452249 19.3348C0.0959596 19.6884 0.0937782 20.2639 0.447341 20.6202L3.49052 23.687C3.80727 24.1631 4.51458 24.2304 4.91731 23.8246L8.09701 20.6203C8.45058 20.264 8.44839 19.6885 8.09211 19.3349C7.73573 18.9813 7.1603 18.9836 6.80674 19.3398L5.15645 21.0029V8.42697C5.15645 7.92498 4.74953 7.51807 4.24755 7.51807Z"/>
<path d="M23.8143 11.2511C24.0909 11.6626 24.661 11.7751 25.0749 11.5028C25.5079 11.218 25.6029 10.6019 25.2908 10.1942C24.6 9.29209 23.1832 10.3053 23.8143 11.2511Z"/>
</svg>
