<svg width="155" height="31" viewBox="0 0 155 31" fill="none" xmlns="http://www.w3.org/2000/svg">
<path d="M15 8C15 12.1421 11.6421 15.5 7.5 15.5H0V8C0 3.85786 3.35786 0.5 7.5 0.5C11.6421 0.5 15 3.85786 15 8Z" fill="#F39C12"/>
<path d="M15 23C15 18.8579 18.3579 15.5 22.5 15.5H30V23C30 27.1421 26.6421 30.5 22.5 30.5C18.3579 30.5 15 27.1421 15 23Z" fill="#F39C12"/>
<path d="M0 23C0 27.1421 3.35786 30.5 7.5 30.5H15V23C15 18.8579 11.6421 15.5 7.5 15.5C3.35786 15.5 0 18.8579 0 23Z" fill="#F39C12"/>
<path d="M30 8C30 3.85786 26.6421 0.5 22.5 0.5H15V8C15 12.1421 18.3579 15.5 22.5 15.5C26.6421 15.5 30 12.1421 30 8Z" fill="#F39C12"/>
<path d="M37.528 24L43.672 7.2H47.344L53.464 24H50.032L45.496 10.896L40.936 24H37.528ZM40.24 20.184L41.104 17.664H49.648L50.488 20.184H40.24ZM54.9516 24V7.2H60.5676C62.5196 7.2 64.1276 7.552 65.3916 8.256C66.6716 8.944 67.6156 9.92 68.2236 11.184C68.8476 12.432 69.1596 13.904 69.1596 15.6C69.1596 17.296 68.8476 18.776 68.2236 20.04C67.6156 21.288 66.6796 22.264 65.4156 22.968C64.1516 23.656 62.5356 24 60.5676 24H54.9516ZM58.1916 21.216H60.3996C61.7756 21.216 62.8556 20.992 63.6396 20.544C64.4396 20.096 65.0076 19.456 65.3436 18.624C65.6796 17.776 65.8476 16.768 65.8476 15.6C65.8476 14.416 65.6796 13.408 65.3436 12.576C65.0076 11.728 64.4396 11.08 63.6396 10.632C62.8556 10.184 61.7756 9.96 60.3996 9.96H58.1916V21.216ZM75.4619 24L69.3419 7.2H72.7979L77.4539 20.688L82.1339 7.2H85.5659L79.4459 24H75.4619ZM86.8632 24V7.2H90.1032V24H86.8632ZM98.4662 24.288C97.2502 24.288 96.1622 24.08 95.2022 23.664C94.2582 23.248 93.5062 22.64 92.9462 21.84C92.4022 21.04 92.1222 20.072 92.1062 18.936H95.5382C95.5542 19.432 95.6822 19.88 95.9222 20.28C96.1622 20.68 96.4902 21 96.9062 21.24C97.3382 21.464 97.8502 21.576 98.4422 21.576C98.9542 21.576 99.3942 21.496 99.7622 21.336C100.146 21.16 100.442 20.92 100.65 20.616C100.858 20.312 100.962 19.952 100.962 19.536C100.962 19.056 100.842 18.656 100.602 18.336C100.378 18.016 100.058 17.744 99.6422 17.52C99.2422 17.296 98.7702 17.096 98.2262 16.92C97.6982 16.728 97.1382 16.528 96.5462 16.32C95.2182 15.888 94.2022 15.312 93.4982 14.592C92.8102 13.872 92.4662 12.92 92.4662 11.736C92.4662 10.728 92.7062 9.864 93.1862 9.144C93.6822 8.424 94.3622 7.872 95.2262 7.488C96.0902 7.104 97.0742 6.912 98.1782 6.912C99.3142 6.912 100.306 7.112 101.154 7.512C102.018 7.896 102.698 8.456 103.194 9.192C103.706 9.928 103.97 10.792 103.986 11.784H100.53C100.514 11.416 100.402 11.072 100.194 10.752C100.002 10.416 99.7302 10.152 99.3782 9.96C99.0262 9.752 98.6102 9.648 98.1302 9.648C97.7142 9.632 97.3302 9.696 96.9782 9.84C96.6422 9.984 96.3702 10.2 96.1622 10.488C95.9702 10.76 95.8742 11.104 95.8742 11.52C95.8742 11.92 95.9702 12.256 96.1622 12.528C96.3702 12.8 96.6502 13.04 97.0022 13.248C97.3542 13.44 97.7702 13.624 98.2502 13.8C98.7302 13.96 99.2502 14.128 99.8102 14.304C100.642 14.592 101.41 14.936 102.114 15.336C102.818 15.72 103.378 16.224 103.794 16.848C104.21 17.472 104.418 18.296 104.418 19.32C104.418 20.2 104.186 21.016 103.722 21.768C103.258 22.52 102.586 23.128 101.706 23.592C100.842 24.056 99.7622 24.288 98.4662 24.288ZM114.199 24.288C112.567 24.288 111.127 23.92 109.879 23.184C108.631 22.448 107.655 21.432 106.951 20.136C106.247 18.824 105.895 17.312 105.895 15.6C105.895 13.888 106.247 12.384 106.951 11.088C107.655 9.776 108.631 8.752 109.879 8.016C111.127 7.28 112.567 6.912 114.199 6.912C115.847 6.912 117.295 7.28 118.543 8.016C119.791 8.752 120.759 9.776 121.447 11.088C122.151 12.384 122.503 13.888 122.503 15.6C122.503 17.312 122.151 18.824 121.447 20.136C120.759 21.432 119.791 22.448 118.543 23.184C117.295 23.92 115.847 24.288 114.199 24.288ZM114.199 21.384C115.223 21.384 116.103 21.152 116.839 20.688C117.591 20.208 118.175 19.536 118.591 18.672C119.007 17.808 119.215 16.784 119.215 15.6C119.215 14.4 119.007 13.376 118.591 12.528C118.175 11.664 117.591 11 116.839 10.536C116.103 10.072 115.223 9.84 114.199 9.84C113.191 9.84 112.311 10.072 111.559 10.536C110.807 11 110.223 11.664 109.807 12.528C109.391 13.376 109.183 14.4 109.183 15.6C109.183 16.784 109.391 17.808 109.807 18.672C110.223 19.536 110.807 20.208 111.559 20.688C112.311 21.152 113.191 21.384 114.199 21.384ZM124.547 24V7.2H130.811C132.171 7.2 133.291 7.432 134.171 7.896C135.051 8.36 135.707 8.984 136.139 9.768C136.571 10.536 136.787 11.392 136.787 12.336C136.787 13.232 136.579 14.072 136.163 14.856C135.747 15.624 135.091 16.248 134.195 16.728C133.315 17.192 132.179 17.424 130.787 17.424H127.787V24H124.547ZM133.259 24L129.803 16.608H133.307L136.955 24H133.259ZM127.787 15.072H130.619C131.595 15.072 132.315 14.832 132.779 14.352C133.243 13.872 133.475 13.24 133.475 12.456C133.475 11.672 133.243 11.056 132.779 10.608C132.331 10.144 131.611 9.912 130.619 9.912H127.787V15.072ZM137.84 24L143.984 7.2H147.656L153.776 24H150.344L145.808 10.896L141.248 24H137.84ZM140.552 20.184L141.416 17.664H149.96L150.8 20.184H140.552Z" fill="#273746"/>
</svg>
