<svg xmlns="http://www.w3.org/2000/svg" width="151" height="30" viewBox="0 0 151 30" fill="none"><path d="M13.9175 1.31836C21.6037 1.31836 27.8346 7.56555 27.8346 15.2719V25.0393C27.8346 27.3512 25.9653 29.2254 23.6595 29.2254H14.6134V23.104C14.6134 21.7072 14.6986 20.2605 15.4293 19.0712C16.4661 17.3836 18.1981 16.1768 20.2334 15.8435L20.5 15.7998C20.7249 15.7224 20.8761 15.5103 20.8761 15.2719C20.8761 15.0333 20.7249 14.8213 20.5 14.7439L20.2334 14.7002C17.2827 14.217 14.9697 11.8979 14.4876 8.93944L14.4442 8.67223C14.367 8.4466 14.1554 8.29514 13.9175 8.29514C13.6797 8.29514 13.4681 8.4466 13.3909 8.67223L13.3474 8.93944C13.0149 10.9801 11.8113 12.7166 10.1281 13.7562C8.94191 14.4888 7.49892 14.5742 6.10577 14.5742H0.0175781C0.380138 7.192 6.4647 1.31836 13.9175 1.31836Z" fill="#696969"></path><path d="M0 15.9697H6.10528C7.49844 15.9697 8.94136 16.0551 10.1275 16.7877C11.0538 17.3597 11.8348 18.1428 12.4054 19.0714C13.136 20.2608 13.2212 21.7074 13.2212 23.1042V29.2255H4.17512C1.86926 29.2255 0 27.3514 0 25.0395V15.9697Z" fill="#696969"></path><path d="M27.8342 2.71371C27.8342 3.48434 27.2111 4.10905 26.4425 4.10905C25.6738 4.10905 25.0508 3.48434 25.0508 2.71371C25.0508 1.94308 25.6738 1.31836 26.4425 1.31836C27.2111 1.31836 27.8342 1.94308 27.8342 2.71371Z" fill="#696969"></path><path d="M47.7213 24.0695H42.9756L36.7686 6.30669H40.7975L43.6297 14.8741C43.9683 15.9578 44.3139 17.1485 44.6665 18.4462C45.0144 19.7485 45.3809 21.1695 45.7659 22.709H44.9866C45.367 21.1509 45.7219 19.7276 46.0512 18.4392C46.3852 17.1462 46.7146 15.9578 47.0393 14.8741L49.774 6.30669H53.7821L47.7213 24.0695ZM60.3092 24.3346C58.9547 24.3346 57.7856 24.0555 56.8021 23.4974C55.8187 22.9392 55.0648 22.1485 54.5406 21.1253C54.0118 20.0974 53.7474 18.8811 53.7474 17.4765C53.7474 16.0997 54.0095 14.8951 54.5337 13.8625C55.0579 12.8299 55.7978 12.023 56.7534 11.4416C57.7137 10.8602 58.841 10.5695 60.1353 10.5695C61.0074 10.5695 61.8192 10.709 62.5708 10.9881C63.3223 11.2672 63.9833 11.6881 64.5539 12.2509C65.1245 12.809 65.5722 13.509 65.8969 14.3509C66.217 15.1927 66.3771 16.1858 66.3771 17.3299V18.3346H55.2086V16.0951H64.6305L62.9604 16.6881C62.9604 15.9951 62.8561 15.3927 62.6473 14.8811C62.4386 14.3695 62.1254 13.9718 61.7079 13.6881C61.2904 13.409 60.7731 13.2695 60.1562 13.2695C59.5484 13.2695 59.0266 13.4113 58.5905 13.6951C58.1591 13.9834 57.832 14.3718 57.6093 14.8602C57.3913 15.3485 57.2823 15.9067 57.2823 16.5346V18.1183C57.2823 18.8904 57.4099 19.5392 57.665 20.0648C57.9248 20.5904 58.2866 20.9834 58.7505 21.2439C59.2144 21.5044 59.7549 21.6346 60.3719 21.6346C60.7894 21.6346 61.1698 21.5765 61.5131 21.4602C61.8517 21.3392 62.144 21.1625 62.3898 20.9299C62.6311 20.6927 62.8143 20.4044 62.9396 20.0648L66.1753 20.6718C65.9619 21.402 65.5884 22.0439 65.055 22.5974C64.5261 23.1509 63.8627 23.5788 63.0648 23.8811C62.2669 24.1834 61.3484 24.3346 60.3092 24.3346ZM70.7957 16.3532V24.0695H67.233V10.7369H70.5939L70.6566 14.0648H70.4409C70.7888 12.9532 71.3176 12.0927 72.0274 11.4834C72.7372 10.8741 73.6557 10.5695 74.783 10.5695C75.7015 10.5695 76.5017 10.7718 77.1837 11.1765C77.8656 11.5765 78.3968 12.1532 78.7772 12.9067C79.1576 13.6555 79.3478 14.5509 79.3478 15.5927V24.0695H75.785V16.2137C75.785 15.3858 75.5716 14.7369 75.1448 14.2672C74.7227 13.7974 74.1335 13.5625 73.3774 13.5625C72.881 13.5625 72.4356 13.6718 72.0413 13.8904C71.647 14.109 71.3408 14.4253 71.1228 14.8392C70.9048 15.2532 70.7957 15.7578 70.7957 16.3532ZM85.6731 24.2927C84.6525 24.2927 83.7316 24.0299 82.9105 23.5044C82.0894 22.9741 81.44 22.1997 80.9621 21.1811C80.489 20.1578 80.2524 18.9067 80.2524 17.4276C80.2524 15.9113 80.4982 14.6439 80.99 13.6253C81.4817 12.6067 82.1358 11.8439 82.9523 11.3369C83.7687 10.8253 84.6687 10.5695 85.6522 10.5695C86.4037 10.5695 87.03 10.6974 87.531 10.9532C88.0274 11.209 88.431 11.523 88.7418 11.8951C89.0526 12.2672 89.2822 12.6299 89.4307 12.9834H89.549V6.30669H93.1187V24.0695H89.6116V21.9346H89.4307C89.2729 22.2927 89.0387 22.6532 88.7279 23.016C88.4124 23.3788 88.0042 23.6811 87.5032 23.923C87.0068 24.1695 86.3968 24.2927 85.6731 24.2927ZM86.7656 21.4253C87.3686 21.4253 87.8859 21.2578 88.3173 20.923C88.7441 20.5881 89.0688 20.1206 89.2915 19.5206C89.5142 18.9206 89.6255 18.2183 89.6255 17.4137C89.6255 16.6044 89.5165 15.9044 89.2985 15.3137C89.0804 14.7183 88.7557 14.2578 88.3243 13.9323C87.8975 13.602 87.3779 13.4369 86.7656 13.4369C86.1393 13.4369 85.6151 13.6067 85.1929 13.9462C84.7708 14.2904 84.4507 14.7602 84.2327 15.3555C84.0193 15.9509 83.9126 16.6369 83.9126 17.4137C83.9126 18.1951 84.0216 18.8881 84.2396 19.4927C84.4576 20.0974 84.7801 20.5695 85.2068 20.909C85.629 21.2532 86.1486 21.4253 86.7656 21.4253ZM105.338 24.3346C103.923 24.3346 102.689 24.116 101.636 23.6788C100.588 23.2416 99.7687 22.5927 99.1796 21.7323C98.5951 20.8718 98.2866 19.8137 98.2541 18.5578H101.782C101.833 19.1578 102.012 19.6578 102.318 20.0578C102.629 20.4578 103.042 20.7578 103.556 20.9578C104.071 21.1578 104.654 21.2578 105.303 21.2578C105.953 21.2578 106.518 21.1648 107.001 20.9788C107.479 20.7881 107.852 20.523 108.121 20.1834C108.39 19.8392 108.525 19.4416 108.525 18.9904C108.525 18.5858 108.404 18.2462 108.163 17.9718C107.922 17.6974 107.576 17.4602 107.126 17.2602C106.672 17.0602 106.12 16.8858 105.47 16.7369L103.522 16.2485C102.023 15.8811 100.85 15.3067 100.001 14.5253C99.1517 13.7439 98.7273 12.709 98.7273 11.4206C98.7273 10.3462 99.0149 9.40669 99.5901 8.60203C100.165 7.80203 100.954 7.17878 101.956 6.73227C102.958 6.28576 104.102 6.0625 105.387 6.0625C106.695 6.0625 107.836 6.28808 108.81 6.73924C109.789 7.19041 110.552 7.81366 111.1 8.60901C111.642 9.40901 111.923 10.3299 111.941 11.3718H108.434C108.369 10.6555 108.066 10.102 107.523 9.71134C106.98 9.32529 106.256 9.13227 105.352 9.13227C104.744 9.13227 104.222 9.21831 103.786 9.39041C103.35 9.56715 103.016 9.80901 102.784 10.116C102.552 10.4276 102.436 10.7834 102.436 11.1834C102.436 11.6206 102.571 11.9834 102.84 12.2718C103.104 12.5602 103.452 12.7951 103.884 12.9765C104.315 13.1532 104.781 13.302 105.282 13.423L106.89 13.8137C107.632 13.9811 108.325 14.209 108.97 14.4974C109.61 14.7811 110.172 15.1323 110.654 15.5509C111.141 15.9695 111.517 16.4648 111.781 17.0369C112.046 17.609 112.178 18.2671 112.178 19.0113C112.178 20.0858 111.909 21.023 111.371 21.823C110.833 22.623 110.051 23.2416 109.026 23.6788C108.005 24.116 106.776 24.3346 105.338 24.3346ZM116.84 24.3346C116.001 24.3346 115.244 24.1858 114.572 23.8881C113.904 23.5858 113.377 23.1392 112.992 22.5485C112.607 21.9578 112.415 21.2206 112.415 20.3369C112.415 19.5974 112.552 18.9765 112.825 18.4741C113.099 17.9765 113.472 17.5765 113.946 17.2741C114.414 16.9718 114.948 16.7416 115.546 16.5834C116.144 16.4253 116.773 16.3137 117.432 16.2485C118.202 16.1695 118.823 16.0951 119.297 16.0253C119.765 15.9602 120.108 15.8532 120.327 15.7044C120.545 15.5602 120.654 15.3439 120.654 15.0555V14.9927C120.654 14.6113 120.575 14.2904 120.417 14.0299C120.259 13.7695 120.025 13.5695 119.714 13.4299C119.408 13.2904 119.028 13.2206 118.573 13.2206C118.114 13.2206 117.715 13.2904 117.376 13.4299C117.033 13.5695 116.754 13.7532 116.541 13.9811C116.328 14.2137 116.17 14.4718 116.068 14.7555L112.797 14.2113C113.025 13.4392 113.405 12.7834 113.939 12.2439C114.467 11.6997 115.126 11.2858 115.915 11.002C116.703 10.7137 117.59 10.5695 118.573 10.5695C119.297 10.5695 119.995 10.6555 120.667 10.8276C121.34 10.9997 121.946 11.2648 122.484 11.623C123.017 11.9811 123.442 12.4462 123.757 13.0183C124.068 13.5904 124.223 14.2811 124.223 15.0904V24.0695H120.848V22.2206H120.73C120.517 22.6346 120.231 22.9974 119.874 23.309C119.517 23.6253 119.086 23.8741 118.58 24.0555C118.079 24.2416 117.499 24.3346 116.84 24.3346ZM117.849 21.816C118.411 21.816 118.905 21.7044 119.331 21.4811C119.754 21.2578 120.085 20.9555 120.327 20.5741C120.563 20.1927 120.681 19.7671 120.681 19.2974V17.8602C120.579 17.9392 120.419 18.009 120.201 18.0695C119.988 18.1346 119.751 18.1904 119.492 18.2369C119.232 18.2881 118.974 18.3323 118.719 18.3695C118.464 18.4113 118.237 18.4439 118.037 18.4671C117.601 18.5276 117.218 18.6299 116.889 18.7741C116.555 18.9183 116.298 19.1067 116.117 19.3392C115.931 19.5765 115.838 19.8765 115.838 20.2392C115.838 20.5834 115.926 20.8718 116.103 21.1044C116.274 21.3416 116.511 21.5183 116.812 21.6346C117.109 21.7555 117.455 21.816 117.849 21.816ZM129.254 16.3532V24.0695H125.685V10.7369H129.053L129.108 14.0648H128.899C129.247 12.9532 129.776 12.0927 130.486 11.4834C131.196 10.8741 132.112 10.5695 133.235 10.5695C134.158 10.5695 134.96 10.7718 135.642 11.1765C136.32 11.5765 136.851 12.1532 137.236 12.9067C137.616 13.6555 137.806 14.5509 137.806 15.5927V24.0695H134.237V16.2137C134.237 15.3858 134.023 14.7369 133.596 14.2672C133.174 13.7974 132.587 13.5625 131.836 13.5625C131.335 13.5625 130.887 13.6718 130.493 13.8904C130.103 14.109 129.799 14.4253 129.581 14.8392C129.363 15.2532 129.254 15.7578 129.254 16.3532ZM144.542 24.3346C143.475 24.3346 142.529 24.1811 141.703 23.8741C140.877 23.5672 140.202 23.1206 139.678 22.5346C139.159 21.9532 138.822 21.2485 138.669 20.4206L141.988 19.8485C142.16 20.4672 142.464 20.9323 142.9 21.2439C143.336 21.5555 143.921 21.7113 144.654 21.7113C145.326 21.7113 145.86 21.5811 146.254 21.3206C146.653 21.0648 146.852 20.7369 146.852 20.3369C146.852 19.9881 146.711 19.702 146.428 19.4788C146.15 19.2555 145.721 19.0858 145.141 18.9695L142.844 18.4881C141.559 18.2276 140.599 17.7811 139.963 17.1485C139.333 16.516 139.017 15.702 139.017 14.7067C139.017 13.8509 139.249 13.1137 139.713 12.4951C140.182 11.8811 140.833 11.4067 141.668 11.0718C142.499 10.7369 143.478 10.5695 144.605 10.5695C145.649 10.5695 146.556 10.716 147.326 11.009C148.096 11.2974 148.72 11.709 149.197 12.2439C149.671 12.7741 149.986 13.402 150.144 14.1276L146.985 14.6858C146.85 14.2346 146.59 13.8625 146.205 13.5695C145.82 13.2811 145.303 13.1369 144.654 13.1369C144.064 13.1369 143.573 13.2602 143.178 13.5067C142.779 13.7532 142.58 14.0788 142.58 14.4834C142.58 14.823 142.71 15.109 142.97 15.3416C143.225 15.5741 143.665 15.7532 144.292 15.8788L146.685 16.3532C147.97 16.6183 148.926 17.0462 149.552 17.6369C150.179 18.2276 150.492 18.9997 150.492 19.9532C150.492 20.8276 150.237 21.5927 149.726 22.2485C149.221 22.9044 148.522 23.416 147.632 23.7834C146.741 24.1509 145.711 24.3346 144.542 24.3346Z" fill="#696969"></path></svg>