<svg xmlns="http://www.w3.org/2000/svg" width="136" height="30" viewBox="0 0 136 30" fill="none"><g clip-path="url(#clip0_2032_402)"><path d="M30.7789 0.713867C35.9181 0.713868 40.0842 4.87122 40.0842 9.99958C40.0842 15.1279 35.9181 19.2853 30.7789 19.2853H24.6836L34.7046 29.2853H22.5585L11.2793 18.0297C10.5021 17.2542 10.0211 16.1831 10.0211 14.9996C10.0211 12.6327 11.9439 10.7139 14.3158 10.7139H30.7789C31.1743 10.7139 31.4947 10.3941 31.4947 9.99958C31.4947 9.60508 31.1743 9.2853 30.7789 9.2853H14.3158C11.1532 9.2853 8.58947 11.8437 8.58947 14.9996C8.58947 16.7068 9.33976 18.2387 10.5293 19.2853H10.5132L20.5342 29.2853H14.3158C6.4094 29.2853 0 22.8894 0 14.9996C0 7.1098 6.40939 0.713867 14.3158 0.713867H30.7789Z" fill="#696969"></path><path d="M40.0844 20.7139V29.2853H36.7291L28.1396 20.7139H40.0844Z" fill="#696969"></path><path d="M57.9002 24.8716C57.1557 24.8716 56.5258 24.7454 56.0105 24.4931C55.4999 24.2454 55.0823 23.9359 54.7578 23.5645C54.4381 23.1931 54.1924 22.824 54.0206 22.4573H53.8488V24.6431H50.2412V6.45734H53.9061V13.2931H54.0206C54.1924 12.9311 54.4357 12.5597 54.7507 12.1788C55.0609 11.7978 55.4736 11.4764 55.989 11.2145C56.5044 10.9526 57.1486 10.8216 57.9216 10.8216C58.9333 10.8216 59.859 11.0835 60.6989 11.6073C61.5388 12.1264 62.2092 12.9073 62.7103 13.9502C63.2113 14.9931 63.4618 16.2907 63.4618 17.8431C63.4618 19.3573 63.2185 20.6383 62.7317 21.6859C62.2402 22.7288 61.5745 23.5216 60.7347 24.0645C59.8948 24.6026 58.95 24.8716 57.9002 24.8716ZM56.7692 21.9359C57.4086 21.9359 57.9455 21.7597 58.3797 21.4073C58.8188 21.0597 59.1504 20.5764 59.3747 19.9573C59.599 19.3383 59.7111 18.6288 59.7111 17.8288C59.7111 17.0335 59.599 16.3311 59.3747 15.7216C59.1504 15.1121 58.8211 14.6311 58.3869 14.2788C57.9527 13.9311 57.4134 13.7573 56.7692 13.7573C56.1441 13.7573 55.6096 13.9264 55.1658 14.2645C54.7268 14.5978 54.3928 15.0692 54.1637 15.6788C53.9347 16.2835 53.8202 17.0002 53.8202 17.8288C53.8202 18.6526 53.9371 19.3716 54.1709 19.9859C54.4047 20.6002 54.7411 21.0788 55.1802 21.4216C55.6192 21.7645 56.1489 21.9359 56.7692 21.9359ZM69.1166 24.8145C68.167 24.8145 67.339 24.6097 66.6328 24.2002C65.9218 23.7859 65.373 23.1954 64.9865 22.4288C64.5999 21.6573 64.4067 20.7383 64.4067 19.6716V10.9931H68.0715V19.0431C68.0715 19.8859 68.2934 20.5478 68.7372 21.0288C69.1762 21.5097 69.7775 21.7502 70.541 21.7502C71.0659 21.7502 71.5288 21.6383 71.9296 21.4145C72.3257 21.1907 72.6359 20.8645 72.8602 20.4359C73.0844 20.0121 73.1966 19.4978 73.1966 18.8931V10.9931H76.8686V24.6431H73.4042L73.3612 21.2359H73.5688C73.2061 22.3835 72.6574 23.2669 71.9225 23.8859C71.1828 24.505 70.2475 24.8145 69.1166 24.8145ZM83.8046 24.9145C82.7023 24.9145 81.7264 24.7573 80.877 24.4431C80.0324 24.1288 79.3404 23.6716 78.8012 23.0716C78.262 22.4764 77.916 21.755 77.7633 20.9073L81.1705 20.3216C81.3518 20.955 81.6668 21.4311 82.1153 21.7502C82.5639 22.0692 83.1628 22.2288 83.9119 22.2288C84.6039 22.2288 85.155 22.0954 85.5654 21.8288C85.971 21.5669 86.1738 21.2311 86.1738 20.8216C86.1738 20.4645 86.0307 20.1716 85.7444 19.9431C85.4533 19.7145 85.0095 19.5407 84.413 19.4216L82.0509 18.9288C80.7338 18.6621 79.7484 18.205 79.0947 17.5573C78.4409 16.9097 78.1141 16.0764 78.1141 15.0573C78.1141 14.1811 78.355 13.4264 78.837 12.7931C79.319 12.1645 79.987 11.6788 80.8412 11.3359C81.7002 10.9931 82.707 10.8216 83.8618 10.8216C84.9403 10.8216 85.8756 10.9716 86.6677 11.2716C87.4551 11.5669 88.0945 11.9883 88.5861 12.5359C89.0776 13.0788 89.4044 13.7216 89.5667 14.4645L86.3098 15.0359C86.1715 14.574 85.9042 14.1931 85.5082 13.8931C85.1121 13.5978 84.58 13.4502 83.9119 13.4502C83.3107 13.4502 82.8049 13.5764 82.3945 13.8288C81.9889 14.0811 81.7861 14.4145 81.7861 14.8288C81.7861 15.1764 81.9173 15.4692 82.1797 15.7073C82.447 15.9454 82.9027 16.1288 83.5469 16.2573L86.0021 16.7431C87.3239 17.0145 88.3069 17.4526 88.9511 18.0573C89.5953 18.6621 89.9174 19.4526 89.9174 20.4288C89.9174 21.324 89.6574 22.1073 89.1372 22.7788C88.6171 23.4502 87.8965 23.974 86.9755 24.3502C86.0593 24.7264 85.0023 24.9145 83.8046 24.9145ZM94.4412 24.6431H90.7764V10.9931H94.4412V24.6431ZM92.6088 9.21448C92.0552 9.21448 91.5828 9.03115 91.1915 8.66448C90.8002 8.29781 90.6046 7.85496 90.6046 7.33591C90.6046 6.8121 90.8002 6.36686 91.1915 6.0002C91.5828 5.63353 92.0552 5.4502 92.6088 5.4502C93.1623 5.4502 93.6371 5.63353 94.0332 6.0002C94.4293 6.3621 94.6273 6.80734 94.6273 7.33591C94.6273 7.85496 94.4293 8.29781 94.0332 8.66448C93.6371 9.03115 93.1623 9.21448 92.6088 9.21448ZM102.05 24.9145C100.671 24.9145 99.4828 24.6192 98.4854 24.0288C97.4881 23.4383 96.7174 22.6145 96.1734 21.5573C95.6294 20.505 95.3574 19.2788 95.3574 17.8788C95.3574 16.4645 95.6294 15.2311 96.1734 14.1788C96.7174 13.1216 97.4881 12.2978 98.4854 11.7073C99.4828 11.1169 100.671 10.8216 102.05 10.8216C102.857 10.8216 103.603 10.9288 104.29 11.1431C104.973 11.3526 105.581 11.6526 106.116 12.0431C106.645 12.4335 107.08 12.9097 107.418 13.4716C107.762 14.0335 108.001 14.6645 108.134 15.3645L104.72 16.0002C104.644 15.6431 104.529 15.324 104.376 15.0431C104.219 14.7621 104.03 14.5216 103.811 14.3216C103.591 14.1216 103.336 13.9692 103.045 13.8645C102.759 13.7597 102.439 13.7073 102.086 13.7073C101.437 13.7073 100.888 13.8811 100.44 14.2288C99.9957 14.5811 99.6617 15.0692 99.4374 15.6931C99.2131 16.3216 99.101 17.0478 99.101 17.8716C99.101 18.6811 99.2131 19.3978 99.4374 20.0216C99.6617 20.6454 99.9957 21.1359 100.44 21.4931C100.888 21.8502 101.437 22.0288 102.086 22.0288C102.439 22.0288 102.761 21.974 103.052 21.8645C103.348 21.755 103.61 21.5978 103.84 21.3931C104.069 21.1835 104.259 20.9311 104.412 20.6359C104.565 20.3454 104.675 20.0169 104.741 19.6502L108.156 20.2716C108.027 20.9954 107.791 21.6407 107.447 22.2073C107.104 22.774 106.667 23.2597 106.137 23.6645C105.608 24.074 104.997 24.3835 104.305 24.5931C103.618 24.8073 102.866 24.9145 102.05 24.9145ZM115.163 24.9145C113.794 24.9145 112.608 24.6192 111.606 24.0288C110.599 23.4383 109.826 22.6145 109.287 21.5573C108.743 20.505 108.471 19.2788 108.471 17.8788C108.471 16.4645 108.743 15.2311 109.287 14.1788C109.826 13.1216 110.599 12.2978 111.606 11.7073C112.608 11.1169 113.794 10.8216 115.163 10.8216C116.542 10.8216 117.731 11.1169 118.728 11.7073C119.73 12.2978 120.501 13.1216 121.04 14.1788C121.584 15.2311 121.856 16.4645 121.856 17.8788C121.856 19.2788 121.584 20.505 121.04 21.5573C120.501 22.6145 119.73 23.4383 118.728 24.0288C117.731 24.6192 116.542 24.9145 115.163 24.9145ZM115.163 22.0288C115.817 22.0288 116.363 21.8478 116.802 21.4859C117.241 21.124 117.571 20.6288 117.79 20.0002C118.015 19.3669 118.127 18.6573 118.127 17.8716C118.127 17.0621 118.015 16.3454 117.79 15.7216C117.571 15.0931 117.241 14.6002 116.802 14.2431C116.363 13.8859 115.817 13.7073 115.163 13.7073C114.51 13.7073 113.966 13.8859 113.531 14.2431C113.092 14.6002 112.763 15.0931 112.544 15.7216C112.324 16.3454 112.214 17.0621 112.214 17.8716C112.214 18.6573 112.324 19.3669 112.544 20.0002C112.763 20.6288 113.092 21.124 113.531 21.4859C113.966 21.8478 114.51 22.0288 115.163 22.0288ZM126.451 16.7431V24.6431H122.786V10.9931H126.244L126.308 14.4002H126.086C126.444 13.2621 126.988 12.3811 127.718 11.7573C128.448 11.1335 129.393 10.8216 130.553 10.8216C131.498 10.8216 132.321 11.0288 133.022 11.4431C133.724 11.8526 134.27 12.4431 134.661 13.2145C135.053 13.9811 135.248 14.8978 135.248 15.9645V24.6431H131.576V16.6002C131.576 15.7526 131.359 15.0883 130.925 14.6073C130.486 14.1264 129.88 13.8859 129.107 13.8859C128.592 13.8859 128.133 13.9978 127.733 14.2216C127.327 14.4454 127.012 14.7692 126.788 15.1931C126.563 15.6169 126.451 16.1335 126.451 16.7431Z" fill="#696969"></path></g><defs><clipPath id="clip0_2032_402"><rect width="136" height="30" fill="white"></rect></clipPath></defs></svg>