<svg xmlns="http://www.w3.org/2000/svg" width="119" height="30" viewBox="0 0 119 30" fill="none"><g clip-path="url(#clip0_2032_408)"><path fill-rule="evenodd" clip-rule="evenodd" d="M12.1138 0.713867C12.5073 0.713867 12.8263 1.03366 12.8263 1.42815V6.71135C12.8263 6.87042 13.0182 6.95008 13.1305 6.83761L18.822 1.13239C19.0892 0.864536 19.4517 0.713924 19.8296 0.713867H26.0702C26.2592 0.713896 26.4404 0.789201 26.5741 0.923131L28.7118 3.06599C28.99 3.34492 28.99 3.7971 28.7118 4.07603L25.9568 6.83761C25.8446 6.9501 25.924 7.14242 26.0827 7.14244H31.7708C31.9598 7.14247 32.141 7.21777 32.2747 7.3517L34.4124 9.49458C34.6906 9.77351 34.6906 10.2257 34.4124 10.5046L31.6052 13.3185C31.4661 13.4579 31.4661 13.6841 31.6052 13.8235L33.9085 16.1324C34.5538 16.7792 34.9162 17.6564 34.9162 18.571C34.9162 19.4857 34.5537 20.3629 33.9085 21.0097L26.0702 28.8668C25.803 29.1347 25.4405 29.2852 25.0626 29.2853H22.8024C22.4088 29.2853 22.0898 28.9655 22.0898 28.571V23.2878C22.0898 23.1287 21.8979 23.0491 21.7857 23.1616L16.0941 28.8668C15.8269 29.1347 15.4644 29.2852 15.0866 29.2853H8.84597C8.657 29.2853 8.47572 29.2099 8.34211 29.076L6.20441 26.9332C5.92621 26.6542 5.92621 26.2021 6.20441 25.9232L8.95935 23.1616C9.07158 23.0491 8.99212 22.8567 8.83343 22.8567H3.14535C2.9564 22.8567 2.77514 22.7814 2.64154 22.6474L0.503812 20.5046C0.225605 20.2257 0.225606 19.7735 0.503812 19.4946L3.31096 16.6807C3.45007 16.5412 3.45007 16.3151 3.31096 16.1757L1.00762 13.8668C0.362453 13.22 0 12.3428 0 11.4282C0 10.5135 0.362452 9.6363 1.00762 8.98951L8.84597 1.13239C9.11319 0.864536 9.47568 0.713924 9.85356 0.713867H12.1138ZM14.3023 7.14244C13.3574 7.14244 12.4507 7.51898 11.7826 8.18872L4.17107 15.8185C3.94667 16.0435 4.10561 16.4281 4.42297 16.4282H14.8166C15.1339 16.4282 15.2928 16.8129 15.0685 17.0378L9.87166 22.2471C9.64727 22.4721 9.80617 22.8567 10.1236 22.8567H20.6139C21.5588 22.8567 22.4655 22.4802 23.1336 21.8104L30.7451 14.1807C30.9555 13.9698 30.829 13.6184 30.5509 13.5752L30.4932 13.571H20.0996C19.7822 13.571 19.6233 13.1864 19.8477 12.9614L25.0445 7.7521C25.2689 7.52712 25.11 7.14248 24.7926 7.14244H14.3023Z" fill="#696969"></path><path d="M43.709 10.9931H52.6019V13.7931H43.709V10.9931ZM49.7516 24.6431H46.1104V9.94305C46.1104 8.97639 46.3028 8.17162 46.6875 7.52877C47.0723 6.88591 47.5973 6.40258 48.2623 6.07877C48.9274 5.75972 49.6827 5.6002 50.5283 5.6002C51.1079 5.6002 51.6352 5.64781 52.1102 5.74305C52.5853 5.83353 52.9321 5.9121 53.1506 5.97877L52.4879 8.73591C52.3359 8.69781 52.1554 8.65734 51.9464 8.61448C51.7421 8.57639 51.5164 8.55734 51.2694 8.55734C50.7183 8.55734 50.3288 8.68829 50.1008 8.9502C49.868 9.21686 49.7516 9.58829 49.7516 10.0645V24.6431ZM56.9843 24.6431H53.3287V10.9931H56.9843V24.6431ZM55.1529 9.21448C54.6019 9.21448 54.1316 9.03115 53.742 8.66448C53.3525 8.29781 53.1577 7.85496 53.1577 7.33591C53.1577 6.8121 53.3525 6.36686 53.742 6.0002C54.1316 5.63353 54.6019 5.4502 55.1529 5.4502C55.7087 5.4502 56.1838 5.63353 56.5781 6.0002C56.9676 6.3621 57.1624 6.80734 57.1624 7.33591C57.1624 7.85496 56.9676 8.29781 56.5781 8.66448C56.1838 9.03115 55.7087 9.21448 55.1529 9.21448ZM62.1219 16.7431V24.6431H58.4664V10.9931H61.9153L61.9723 14.4002H61.7514C62.1124 13.2621 62.6564 12.3811 63.3832 11.7573C64.11 11.1335 65.0482 10.8216 66.1978 10.8216C67.1432 10.8216 67.9627 11.0288 68.6562 11.4431C69.3546 11.8526 69.8985 12.4431 70.288 13.2145C70.6823 13.9811 70.8795 14.8978 70.8795 15.9645V24.6431H67.224V16.6002C67.224 15.7526 67.0054 15.0883 66.5684 14.6073C66.1361 14.1264 65.5352 13.8859 64.7656 13.8859C64.2525 13.8859 63.7941 13.9978 63.3903 14.2216C62.9913 14.4454 62.6801 14.7692 62.4568 15.1931C62.2336 15.6169 62.1219 16.1335 62.1219 16.7431ZM71.0576 10.9931H79.1311V13.7931H71.0576V10.9931ZM72.9317 20.9716V7.7502H76.5872V20.6502C76.5872 21.0835 76.6822 21.4026 76.8722 21.6073C77.0622 21.8169 77.3805 21.9216 77.8271 21.9216C77.9648 21.9216 78.1596 21.9026 78.4114 21.8645C78.6632 21.8312 78.8532 21.7978 78.9814 21.7645L79.5087 24.5073C79.105 24.6311 78.7012 24.7169 78.2974 24.7645C77.8936 24.8121 77.5088 24.8359 77.143 24.8359C75.7796 24.8359 74.7369 24.5026 74.0148 23.8359C73.2927 23.1692 72.9317 22.2145 72.9317 20.9716ZM86.0359 24.9145C84.6488 24.9145 83.4517 24.6288 82.4446 24.0573C81.4375 23.4859 80.6631 22.6764 80.1216 21.6288C79.58 20.5764 79.3092 19.3311 79.3092 17.8931C79.3092 16.4835 79.5776 15.2502 80.1144 14.1931C80.6512 13.1359 81.4113 12.3097 82.3947 11.7145C83.378 11.1192 84.53 10.8216 85.8507 10.8216C86.7438 10.8216 87.5751 10.9645 88.3447 11.2502C89.119 11.5359 89.7983 11.9669 90.3826 12.5431C90.967 13.1145 91.423 13.8311 91.7508 14.6931C92.0786 15.555 92.2425 16.5716 92.2425 17.7431V18.7716H80.8128V16.4788H90.4539L88.7508 17.0859C88.7508 16.3764 88.644 15.7597 88.4302 15.2359C88.2117 14.7121 87.891 14.305 87.4682 14.0145C87.0407 13.7288 86.511 13.5859 85.8792 13.5859C85.2521 13.5859 84.7177 13.7311 84.2759 14.0216C83.8341 14.3169 83.4992 14.7145 83.2711 15.2145C83.0431 15.7145 82.9291 16.2859 82.9291 16.9288V18.5502C82.9291 19.3407 83.0621 20.005 83.3281 20.5431C83.5894 21.0811 83.9576 21.4835 84.4326 21.7502C84.9077 22.0169 85.4611 22.1502 86.0929 22.1502C86.5252 22.1502 86.9148 22.0907 87.2616 21.9716C87.6131 21.8478 87.9124 21.6669 88.1594 21.4288C88.4064 21.1859 88.5941 20.8907 88.7223 20.5431L92.0358 21.1645C91.8173 21.9121 91.4373 22.5692 90.8957 23.1359C90.3494 23.7026 89.6677 24.1407 88.8506 24.4502C88.0383 24.7597 87.1 24.9145 86.0359 24.9145ZM99.2114 24.9145C97.8385 24.9145 96.6557 24.6192 95.6628 24.0288C94.6652 23.4383 93.898 22.6145 93.3612 21.5573C92.8196 20.505 92.5489 19.2788 92.5489 17.8788C92.5489 16.4645 92.8196 15.2311 93.3612 14.1788C93.898 13.1216 94.6652 12.2978 95.6628 11.7073C96.6557 11.1169 97.8385 10.8216 99.2114 10.8216C100.014 10.8216 100.755 10.9288 101.435 11.1431C102.119 11.3526 102.724 11.6526 103.252 12.0431C103.779 12.4335 104.214 12.9097 104.556 13.4716C104.898 14.0335 105.133 14.6645 105.261 15.3645L101.862 16.0002C101.791 15.6431 101.677 15.324 101.52 15.0431C101.368 14.7621 101.183 14.5216 100.964 14.3216C100.746 14.1216 100.492 13.9692 100.202 13.8645C99.9121 13.7597 99.5939 13.7073 99.2471 13.7073C98.5963 13.7073 98.0499 13.8811 97.6082 14.2288C97.1664 14.5811 96.8338 15.0692 96.6105 15.6931C96.3873 16.3216 96.2756 17.0478 96.2756 17.8716C96.2756 18.6811 96.3873 19.3978 96.6105 20.0216C96.8338 20.6454 97.1664 21.1359 97.6082 21.4931C98.0499 21.8502 98.5963 22.0288 99.2471 22.0288C99.5939 22.0288 99.9145 21.974 100.209 21.8645C100.499 21.755 100.758 21.5978 100.986 21.3931C101.214 21.1835 101.406 20.9311 101.563 20.6359C101.715 20.3454 101.824 20.0169 101.891 19.6502L105.283 20.2716C105.154 20.9954 104.919 21.6407 104.577 22.2073C104.24 22.774 103.808 23.2597 103.28 23.6645C102.748 24.074 102.14 24.3835 101.456 24.5931C100.772 24.8073 100.024 24.9145 99.2114 24.9145ZM109.829 16.7431V24.6431H106.173V6.45734H109.75V14.4002H109.458C109.819 13.2621 110.363 12.3811 111.09 11.7573C111.817 11.1335 112.755 10.8216 113.905 10.8216C114.845 10.8216 115.667 11.0288 116.37 11.4431C117.073 11.8526 117.617 12.4431 118.002 13.2145C118.387 13.9811 118.579 14.8978 118.579 15.9645V24.6431H114.931V16.6002C114.931 15.7526 114.712 15.0883 114.275 14.6073C113.843 14.1264 113.242 13.8859 112.472 13.8859C111.959 13.8859 111.501 13.9978 111.097 14.2216C110.698 14.4454 110.387 14.7692 110.164 15.1931C109.94 15.6169 109.829 16.1335 109.829 16.7431Z" fill="#696969"></path></g><defs><clipPath id="clip0_2032_408"><rect width="119" height="30" fill="white"></rect></clipPath></defs></svg>