<svg width="40" height="40" viewBox="0 0 40 40" xmlns="http://www.w3.org/2000/svg">
<g clip-path="url(#clip0_503_37303)">
<path d="M37.8235 13.5647C37.1211 13.4204 35.6194 13.6034 34.8803 15.3236C34.8753 15.3354 34.8706 15.3472 34.866 15.3591L32.5827 21.4826C32.1921 21.2531 31.7462 21.1308 31.2816 21.1308C30.7876 21.1308 30.3067 21.2722 29.892 21.5392L24.036 25.298C21.8141 26.6511 20.6304 28.4279 20 29.9299C19.3696 28.4279 18.1859 26.6511 15.964 25.298L10.1089 21.5398C9.69337 21.2722 9.21243 21.1308 8.71836 21.1308C8.25391 21.1308 7.80797 21.2532 7.41735 21.4826C7.41735 21.4826 5.12469 15.3354 5.11969 15.3237C4.38063 13.6036 2.87915 13.4206 2.17649 13.5647C0.749927 13.8308 -0.155541 15.0597 0.022193 16.4907C0.0260993 16.5218 2.51337 26.5282 2.51337 26.5282C3.16993 29.1533 4.95399 31.8015 7.28579 33.6119C7.29391 33.6183 7.30204 33.6243 7.31032 33.6302L11.2577 36.4545V37.8561C11.2577 38.7177 11.9587 39.4186 12.8202 39.4186H27.1798C28.0413 39.4186 28.7423 38.7177 28.7423 37.8561V36.4545L32.6897 33.6302C32.698 33.6243 32.7062 33.6182 32.7142 33.6119C35.046 31.8015 36.83 29.1533 37.4869 26.5272C37.4869 26.5272 39.9739 16.5218 39.9778 16.4907C40.1555 15.0595 39.2501 13.8307 37.8235 13.5647ZM19.21 34.034C19.2079 34.0573 19.2068 37.8561 19.2068 37.8561H12.8202V36.0528C12.8202 35.8007 12.6986 35.5641 12.4935 35.4174L8.23204 32.3684C6.20376 30.7892 4.59391 28.4073 4.0293 26.1499L1.56821 16.2564C1.51258 15.6623 1.86196 15.2106 2.46805 15.0997C2.48344 15.0969 2.47618 15.099 2.48501 15.0967C2.63477 15.0736 3.28516 15.0304 3.67712 15.9241L6.27297 22.8856C5.97641 23.7606 6.16797 24.7588 6.85251 25.4783C6.87805 25.5053 10.8837 28.6678 10.8837 28.6678C11.2223 28.935 11.7137 28.8768 11.9809 28.5381C12.2481 28.1993 12.1901 27.7081 11.8513 27.4409L7.95243 24.3661C7.61094 23.9708 7.6293 23.3634 8.00172 22.9905C8.19352 22.7988 8.44805 22.6932 8.71844 22.6932C8.91196 22.6932 9.10032 22.7486 9.26407 22.854C9.26407 22.854 15.1388 26.6247 15.1442 26.6281C16.9888 27.7493 18.2329 29.3261 18.842 31.3148C19.3046 32.8255 19.2107 34.0245 19.21 34.034ZM38.4318 16.2564L35.9709 26.149C35.4061 28.4074 33.7962 30.7892 31.7679 32.3684L27.5064 35.4174C27.3013 35.564 27.1797 35.8007 27.1797 36.0528V37.8561H20.7931C20.7931 37.8561 20.792 34.0573 20.7899 34.034C20.7857 33.9872 20.4181 29.3253 24.8557 26.6281C24.8612 26.6248 30.7368 22.8535 30.7368 22.8535C30.8997 22.7486 31.0881 22.6932 31.2816 22.6932C31.552 22.6932 31.8065 22.7988 31.9979 22.9901C32.3706 23.3634 32.3891 23.9708 32.0476 24.3661L28.1488 27.4409C27.8099 27.7081 27.752 28.1993 28.0191 28.5381C28.2863 28.8769 28.7776 28.9349 29.1163 28.6678C29.1163 28.6678 33.122 25.5053 33.1475 25.4783C33.832 24.7589 34.0235 23.7608 33.727 22.8857L36.3229 15.924C36.715 15.0303 37.3657 15.0734 37.515 15.0966C37.5238 15.0988 37.5166 15.0968 37.532 15.0997C38.1381 15.2106 38.4874 15.6624 38.4318 16.2564Z"/>
<path d="M9.34926 17.428H13.8955V20.8026C13.8955 21.6642 14.5964 22.3651 15.458 22.3651H16.447C16.8784 22.3651 17.2282 22.0154 17.2282 21.5839C17.2282 21.1524 16.8784 20.8026 16.447 20.8026H15.458C15.458 20.8026 15.4611 16.5997 15.4589 16.5765C15.4791 15.3322 16.4969 14.326 17.7459 14.326H22.2541C23.5031 14.326 24.5209 15.3322 24.5411 16.5765C24.539 16.5997 24.542 20.8026 24.542 20.8026H23.5657C23.1343 20.8026 22.7845 21.1524 22.7845 21.5839C22.7845 22.0154 23.1343 22.3651 23.5657 22.3651H24.542C25.4036 22.3651 26.1045 21.6642 26.1045 20.8026V17.428H30.6507C31.5407 17.428 32.2646 16.704 32.2646 15.8142V11.6771C32.2646 9.89725 31.0504 8.39615 29.4069 7.95717C30.125 7.17326 30.5641 6.12967 30.5641 4.98529C30.5641 2.55701 28.5886 0.581543 26.1604 0.581543C23.7321 0.581543 21.7565 2.55709 21.7565 4.98529C21.7565 5.31029 21.7929 5.62678 21.8601 5.93193C21.2946 5.66725 20.6645 5.5185 20 5.5185C19.3354 5.5185 18.7054 5.66732 18.1398 5.93193C18.2069 5.62678 18.2434 5.31029 18.2434 4.98529C18.2434 2.55701 16.2679 0.581543 13.8396 0.581543C11.4114 0.581543 9.43582 2.55709 9.43582 4.98529C9.43582 6.12967 9.87488 7.17326 10.593 7.95717C8.94957 8.39615 7.73535 9.89725 7.73535 11.6771V15.8142C7.73543 16.7041 8.45941 17.428 9.34926 17.428ZM30.7021 11.6771V15.8142C30.7021 15.8425 30.6791 15.8655 30.6508 15.8655H26.031C25.7458 14.4241 24.6539 13.2697 23.2468 12.8939C23.9649 12.1101 24.4039 11.0665 24.4039 9.92217C24.4039 9.74162 24.3917 9.56404 24.3704 9.38912H28.4142C29.6757 9.3892 30.7021 10.4155 30.7021 11.6771ZM26.1604 2.14396C27.7271 2.14396 29.0017 3.41857 29.0017 4.98529C29.0017 6.55201 27.7271 7.82662 26.1604 7.82662C24.5937 7.82662 23.3191 6.55201 23.3191 4.98529C23.3191 3.41857 24.5938 2.14396 26.1604 2.14396ZM22.8414 9.92225C22.8414 11.489 21.5668 12.7636 20 12.7636C18.4333 12.7636 17.1587 11.489 17.1587 9.92225C17.1587 8.35553 18.4333 7.08092 20 7.08092C21.5668 7.08092 22.8414 8.35553 22.8414 9.92225ZM13.8396 2.14396C15.4064 2.14396 16.681 3.41857 16.681 4.98529C16.681 6.55201 15.4064 7.82662 13.8396 7.82662C12.2729 7.82662 10.9984 6.55201 10.9984 4.98529C10.9984 3.41857 12.2729 2.14396 13.8396 2.14396ZM9.29793 11.6771C9.29793 10.4155 10.3243 9.3892 11.5858 9.3892H15.6296C15.6084 9.56412 15.5961 9.7417 15.5961 9.92225C15.5961 11.0665 16.0351 12.1101 16.7532 12.894C15.3461 13.2698 14.2542 14.4241 13.969 15.8656H9.34926C9.32098 15.8656 9.29793 15.8426 9.29793 15.8143V11.6771Z"/>
<path d="M20 22.365C20.4315 22.365 20.7812 22.0152 20.7812 21.5837C20.7812 21.1523 20.4315 20.8025 20 20.8025C19.5685 20.8025 19.2188 21.1523 19.2188 21.5837C19.2188 22.0152 19.5685 22.365 20 22.365Z"/>
</g>
<defs>
<clipPath id="clip0_503_37303">
<rect width="40" height="40"/>
</clipPath>
</defs>
</svg>
