<svg width="40" height="40" viewBox="0 0 40 40" xmlns="http://www.w3.org/2000/svg">
<g clip-path="url(#clip0_498_25187)">
<path d="M27.1094 23.5938C27.7555 23.5938 28.2812 24.1124 28.2812 24.75H30.625C30.625 23.2291 29.6452 21.9323 28.2812 21.4507V18.9062H25.9375V21.4516C24.5735 21.9353 23.5938 23.2379 23.5938 24.7656C23.5938 26.7041 25.1709 28.2813 27.1094 28.2813C27.7555 28.2813 28.2812 28.807 28.2812 29.4531C28.2812 30.0993 27.7555 30.625 27.1094 30.625C26.4632 30.625 25.9375 30.0993 25.9375 29.4531H23.5938C23.5938 30.9809 24.5735 32.2834 25.9375 32.7672V35.2969H28.2812V32.7672C29.6452 32.2834 30.625 30.9809 30.625 29.4531C30.625 27.5146 29.0479 25.9375 27.1094 25.9375C26.4632 25.9375 25.9375 25.4118 25.9375 24.7656C25.9375 24.1195 26.4632 23.5938 27.1094 23.5938Z"/>
<path d="M27.1094 14.2188C26.7143 14.2188 26.3236 14.2377 25.9375 14.2726V7.03125C25.9375 4.99914 24.4884 3.15547 21.8573 1.83992C19.4844 0.653437 16.3555 0 13.0469 0C9.73156 0 6.57758 0.652109 4.16586 1.83609C1.47953 3.15508 0 5 0 7.03125V28.2812C0 30.3125 1.47953 32.1575 4.16586 33.4764C6.57758 34.6604 9.73156 35.3125 13.0469 35.3125C14.3757 35.3125 15.6755 35.2064 16.923 34.9997C19.2833 38.0398 22.9715 40 27.1094 40C34.2173 40 40 34.2173 40 27.1094C40 20.0015 34.2173 14.2188 27.1094 14.2188ZM5.19883 3.94C7.265 2.92555 10.1255 2.34375 13.0469 2.34375C19.2623 2.34375 23.5938 4.81414 23.5938 7.03125C23.5938 9.24836 19.2623 11.7188 13.0469 11.7188C10.1255 11.7188 7.265 11.137 5.19883 10.1225C3.38437 9.23172 2.34375 8.105 2.34375 7.03125C2.34375 5.9575 3.38437 4.83078 5.19883 3.94ZM2.34375 11.1145C2.86906 11.5158 3.4775 11.8884 4.16586 12.2264C6.57758 13.4104 9.73156 14.0625 13.0469 14.0625C16.3555 14.0625 19.4844 13.4091 21.8573 12.2226C22.5104 11.896 23.0904 11.537 23.5938 11.1505V14.706C21.2581 15.3689 19.1907 16.6755 17.5955 18.4207C16.1677 18.7428 14.6395 18.9062 13.0469 18.9062C10.1255 18.9062 7.265 18.3245 5.19883 17.31C3.38437 16.4192 2.34375 15.2925 2.34375 14.2188V11.1145ZM2.34375 18.302C2.86906 18.7033 3.4775 19.0759 4.16586 19.4139C6.57758 20.5979 9.73156 21.25 13.0469 21.25C13.9516 21.25 14.8392 21.2015 15.7048 21.1063C14.9348 22.5634 14.4359 24.1845 14.2756 25.9028C13.8685 25.9252 13.458 25.9375 13.0469 25.9375C10.1255 25.9375 7.265 25.3557 5.19883 24.3412C3.38437 23.4505 2.34375 22.3237 2.34375 21.25V18.302ZM13.0469 32.9688C10.1255 32.9688 7.265 32.387 5.19883 31.3725C3.38437 30.4817 2.34375 29.355 2.34375 28.2812V25.3331C2.86906 25.7345 3.4775 26.1071 4.16586 26.4451C6.57758 27.6291 9.73156 28.2812 13.0469 28.2812C13.4555 28.2812 13.864 28.2709 14.2698 28.2509C14.4136 29.8813 14.862 31.4252 15.5578 32.8257C14.7406 32.92 13.9013 32.9688 13.0469 32.9688ZM27.1094 37.6562C21.2938 37.6562 16.5625 32.9249 16.5625 27.1094C16.5625 21.2938 21.2938 16.5625 27.1094 16.5625C32.9249 16.5625 37.6562 21.2938 37.6562 27.1094C37.6562 32.9249 32.9249 37.6562 27.1094 37.6562Z"/>
</g>
<defs>
<clipPath id="clip0_498_25187">
<rect width="40" height="40"/>
</clipPath>
</defs>
</svg>
