<svg width="40" height="40" viewBox="0 0 40 40" xmlns="http://www.w3.org/2000/svg">
<g clip-path="url(#clip0_498_25174)">
<path d="M38.8283 1.25513H6.19287C5.54568 1.25513 5.021 1.77981 5.021 2.427V20C5.021 20.6472 5.54568 21.1718 6.19287 21.1718H38.8283C39.4754 21.1718 40.0001 20.6472 40.0001 20V2.427C40.0001 1.77981 39.4754 1.25513 38.8283 1.25513ZM7.36475 3.59888H11.1613C10.719 5.47388 9.23975 6.95333 7.36475 7.39552V3.59888ZM7.36475 18.8281V15.0315C9.23975 15.4737 10.7191 16.9531 11.1613 18.8281H7.36475ZM37.6564 18.8281H33.8598C34.302 16.9531 35.7814 15.4737 37.6564 15.0315V18.8281ZM37.6564 12.6442C34.486 13.1472 31.9755 15.6577 31.4724 18.8281H13.5487C13.0456 15.6577 10.5351 13.1472 7.36467 12.6442V9.78294C10.5351 9.27989 13.0456 6.76935 13.5487 3.59896H31.4724C31.9754 6.76935 34.486 9.27989 37.6564 9.78294V12.6442ZM37.6564 7.39552C35.7814 6.95333 34.302 5.47388 33.8598 3.59888H37.6564V7.39552Z"/>
<path d="M37.6442 25.1455C36.2137 24.5034 34.5318 24.7618 33.3596 25.8037C31.7282 27.2535 29.987 28.8012 28.7019 29.9436C28.6501 27.9552 27.025 26.3595 25.0209 26.3595H20.1644C19.9228 26.2904 19.4212 26.1469 18.7755 25.9627C16.7201 25.3755 14.4741 25.7935 12.7673 27.0809C11.4554 28.0705 10.5498 29.5077 10.2011 31.0912L7.36453 30.382V28.7865C7.36453 28.1394 6.83984 27.6147 6.19266 27.6147H1.17188C0.524687 27.6147 0 28.1394 0 28.7865V37.573C0 38.2202 0.524687 38.7449 1.17188 38.7449H27.9618C29.616 38.7449 31.1712 38.1008 32.3408 36.9312L39.6568 29.6152C39.8766 29.3955 40.0001 29.0961 40.0001 28.7853C40 27.2173 39.0755 25.7888 37.6442 25.1455ZM5.02086 36.4012H2.34375V29.9584H5.02086V36.4012ZM30.6835 35.2739C29.9566 36.0008 28.99 36.4012 27.9618 36.4012H7.36461V32.7979L10.9293 33.689C11.2794 33.7766 11.6503 33.6972 11.9347 33.4752C12.2191 33.2531 12.3854 32.9118 12.3854 32.5509C12.3854 31.1444 13.0558 29.799 14.1786 28.952C15.3016 28.1049 16.7795 27.8299 18.132 28.2164C19.0506 28.4785 19.6771 28.6579 19.6774 28.658C19.7823 28.688 19.8909 28.7033 20 28.7033H25.0209C25.7627 28.7033 26.3594 29.3036 26.3594 30.0418V31.3803H21.2552C20.608 31.3803 20.0834 31.905 20.0834 32.5522C20.0834 33.1994 20.608 33.724 21.2552 33.724H27.5312H27.533H27.5348H27.5364C27.8354 33.7227 28.108 33.6094 28.3143 33.424C28.4542 33.2997 31.8759 30.2576 34.9165 27.5556C35.4004 27.1255 36.0943 27.0189 36.6839 27.2836C37.1406 27.4888 37.4724 27.888 37.5994 28.358L30.6835 35.2739Z"/>
<path d="M22.5103 6.27588C19.7877 6.27588 17.5728 8.49088 17.5728 11.2134C17.5728 13.9359 19.7878 16.1509 22.5103 16.1509C25.2328 16.1509 27.4478 13.9359 27.4478 11.2134C27.4478 8.49088 25.2328 6.27588 22.5103 6.27588ZM22.5103 13.8071C21.08 13.8071 19.9165 12.6435 19.9165 11.2134C19.9165 9.78322 21.0801 8.61963 22.5103 8.61963C23.9404 8.61963 25.104 9.78322 25.104 11.2134C25.104 12.6435 23.9405 13.8071 22.5103 13.8071Z"/>
</g>
<defs>
<clipPath id="clip0_498_25174">
<rect width="40" height="40"/>
</clipPath>
</defs>
</svg>
