<svg xmlns="http://www.w3.org/2000/svg" width="40" height="40" viewBox="0 0 40 40"><path d="M29.375 15C29.375 14.31 28.815 13.75 28.125 13.75H18.75C18.06 13.75 17.5 14.31 17.5 15C17.5 15.69 18.06 16.25 18.75 16.25H28.125C28.815 16.25 29.375 15.69 29.375 15Z"/><path d="M28.125 20H22.5C21.81 20 21.25 20.56 21.25 21.25C21.25 21.94 21.81 22.5 22.5 22.5H28.125C28.815 22.5 29.375 21.94 29.375 21.25C29.375 20.56 28.815 20 28.125 20Z"/><path d="M29.375 8.75C29.375 8.06 28.815 7.5 28.125 7.5H15.625C14.935 7.5 14.375 8.06 14.375 8.75C14.375 9.44 14.935 10 15.625 10H28.125C28.815 10 29.375 9.44 29.375 8.75Z"/><path d="M38.125 28.125H35.625V6.25C35.625 3.49313 33.3819 1.25 30.625 1.25H5.625C2.86813 1.25 0.625 3.49313 0.625 6.25V10.625C0.625 11.315 1.185 11.875 1.875 11.875H8.125V13.9388C3.85062 14.81 0.625 18.5975 0.625 23.125C0.625 27.6544 3.85375 31.4431 8.13125 32.3119C8.16313 34.0175 8.8375 35.6175 10.0475 36.8275C11.2869 38.0675 12.9344 38.75 14.6875 38.75H33.125C34.795 38.75 36.3644 38.1 37.5444 36.9194C38.725 35.7394 39.375 34.1694 39.375 32.5V29.375C39.375 28.685 38.815 28.125 38.125 28.125ZM3.125 6.25C3.125 4.87125 4.24625 3.75 5.625 3.75C7.00375 3.75 8.125 4.87125 8.125 6.25V9.375H3.125V6.25ZM3.125 23.125C3.125 19.3344 6.20937 16.25 10 16.25C13.7906 16.25 16.875 19.3344 16.875 23.125C16.875 26.9156 13.7906 30 10 30C6.20937 30 3.125 26.9156 3.125 23.125ZM10.6394 32.4675C15.5106 32.1369 19.375 28.0788 19.375 23.125C19.375 18.1669 15.5031 14.1056 10.625 13.7819V10.625V9.5V6.25C10.625 5.33875 10.3763 4.48625 9.94875 3.75H30.625C32.0037 3.75 33.125 4.87125 33.125 6.25V28.125H20C19.31 28.125 18.75 28.685 18.75 29.375V32.1875C18.75 33.2562 18.3162 34.3031 17.56 35.06C16.7925 35.8275 15.7719 36.25 14.6875 36.25C13.6031 36.25 12.5825 35.8275 11.815 35.06C11.125 34.3694 10.7075 33.4375 10.6394 32.4675ZM36.875 32.5C36.875 33.5019 36.485 34.4437 35.7769 35.1519C35.0687 35.86 34.1275 36.25 33.125 36.25H19.8356C20.75 35.0962 21.25 33.6813 21.25 32.1875V30.625H36.875V32.5Z"/><path d="M12.7588 20.3661C12.2706 19.878 11.4794 19.878 10.9913 20.3661L7.24125 24.1161C6.75313 24.6042 6.75313 25.3955 7.24125 25.8836C7.48563 26.128 7.805 26.2498 8.125 26.2498C8.445 26.2498 8.76438 26.128 9.00875 25.8836L12.7588 22.1336C13.2469 21.6455 13.2469 20.8542 12.7588 20.3661Z"/><path d="M8.76094 20.625C8.76094 19.935 8.20156 19.375 7.51094 19.375H7.50469C6.81469 19.375 6.25781 19.935 6.25781 20.625C6.25781 21.315 6.82031 21.875 7.51094 21.875C8.20156 21.875 8.76094 21.315 8.76094 20.625Z"/><path d="M12.5047 24.375C11.8147 24.375 11.2578 24.935 11.2578 25.625C11.2578 26.315 11.8203 26.875 12.5109 26.875C13.2016 26.875 13.7609 26.315 13.7609 25.625C13.7609 24.935 13.2016 24.375 12.5109 24.375H12.5047Z"/></svg>