<svg xmlns="http://www.w3.org/2000/svg" width="34" height="40" viewBox="0 0 34 40"><path d="M11.2684 37.4194H6.31634C3.9356 37.4194 2.14786 35.2033 2.59562 32.8189L4.66183 21.8168C5.81459 15.6785 11.968 11.9089 17.8184 13.7873C18.4838 14.0009 19.1927 13.623 19.4018 12.9431C19.61 12.2657 19.2434 11.5444 18.5825 11.328C19.4772 9.60355 18.9096 7.43347 17.2254 6.40814L19.6375 1.9104C20.0976 1.05218 19.489 0 18.5299 0H10.3213C9.36347 0 8.75296 1.05097 9.21375 1.91032L11.6258 6.40806C9.86846 7.47798 9.34106 9.77718 10.3712 11.5137C6.24144 13.0532 3.04773 16.7169 2.18132 21.3306L0.115198 32.3327C-0.632655 36.3144 2.35599 40 6.31634 40H11.2684C11.9658 40 12.5313 39.4223 12.5313 38.7097C12.5313 37.997 11.9659 37.4194 11.2684 37.4194ZM16.3979 2.58065L14.6247 5.8871H14.2265L12.4533 2.58065H16.3979ZM13.4784 10.7258C12.8691 10.7258 12.3734 10.2194 12.3734 9.59677C12.3734 8.97597 12.8671 8.46774 13.4792 8.46774H15.3641C16.0017 8.46774 16.4777 8.99105 16.4777 9.59677C16.4777 10.2194 15.9821 10.7258 15.3727 10.7258H13.4784ZM25.931 23.567C26.4242 24.0709 26.4242 24.8879 25.931 25.3918L19.7028 31.7555C19.4561 32.0074 19.133 32.1335 18.8098 32.1335C17.6949 32.1335 17.1189 30.746 17.9168 29.9308L24.145 23.5671C24.6382 23.0631 25.4379 23.0631 25.931 23.567ZM24.519 29.1285C23.5937 29.1285 22.8409 29.8977 22.8409 30.8431C22.8409 31.7885 23.5937 32.5577 24.519 32.5577C25.4442 32.5577 26.1971 31.7885 26.1971 30.8431C26.1971 29.8977 25.4443 29.1285 24.519 29.1285ZM19.3288 26.194C20.2541 26.194 21.0069 25.4249 21.0069 24.4794C21.0069 23.534 20.2541 22.7649 19.3288 22.7649C18.4035 22.7649 17.6507 23.534 17.6507 24.4794C17.6507 25.4249 18.4035 26.194 19.3288 26.194ZM21.9239 15.3226C15.2651 15.3226 9.8477 20.8577 9.8477 27.6613C9.8477 34.4648 15.2651 40 21.9239 40C28.5826 40 34 34.4648 34 27.6613C34 20.8577 28.5827 15.3226 21.9239 15.3226ZM21.9239 37.4194C16.6577 37.4194 12.3734 33.0419 12.3734 27.6613C12.3734 22.2806 16.6577 17.9032 21.9239 17.9032C27.19 17.9032 31.4743 22.2806 31.4743 27.6613C31.4743 33.0419 27.19 37.4194 21.9239 37.4194Z"/></svg>