<svg xmlns="http://www.w3.org/2000/svg" width="40" height="40" viewBox="0 0 40 40"><g clip-path="url(#clip0_550_1191)"><path d="M30.5061 29.6961C29.7541 29.6961 28.9447 29.2801 28.9447 28.6081C28.9447 27.9361 29.7541 27.5188 30.5061 27.5188C30.8699 27.4877 31.2323 27.5935 31.5222 27.8154C31.8122 28.0373 32.009 28.3594 32.0741 28.7188C32.0846 28.8524 32.1219 28.9825 32.1837 29.1015C32.2456 29.2204 32.3307 29.3257 32.434 29.411C32.5373 29.4964 32.6567 29.5602 32.7852 29.5985C32.9136 29.6368 33.0485 29.6489 33.1817 29.634C33.3149 29.6192 33.4438 29.5777 33.5607 29.5121C33.6775 29.4464 33.78 29.358 33.862 29.252C33.944 29.1459 34.0039 29.0245 34.038 28.8949C34.0721 28.7653 34.0799 28.6301 34.0607 28.4974C33.9771 27.8195 33.6871 27.1837 33.2302 26.676C32.7733 26.1683 32.1714 25.8132 31.5061 25.6588V25.6001C31.5061 25.3349 31.4007 25.0805 31.2132 24.893C31.0256 24.7055 30.7713 24.6001 30.5061 24.6001C30.2409 24.6001 29.9865 24.7055 29.799 24.893C29.6114 25.0805 29.5061 25.3349 29.5061 25.6001V25.6534C28.8068 25.7797 28.1716 26.141 27.7058 26.6777C27.2399 27.2143 26.9714 27.894 26.9447 28.6041C27.0076 29.4858 27.4181 30.3065 28.0859 30.8856C28.7538 31.4647 29.6243 31.7548 30.5061 31.6921C31.2567 31.6921 32.0674 32.1094 32.0674 32.7814C32.0674 33.4534 31.2567 33.8708 30.5061 33.8708C30.1422 33.9018 29.7799 33.7961 29.4899 33.5741C29.1999 33.3522 29.0031 33.0301 28.9381 32.6708C28.9271 32.5374 28.8896 32.4075 28.8275 32.2889C28.7655 32.1703 28.6803 32.0654 28.577 31.9803C28.4736 31.8953 28.3543 31.8318 28.226 31.7937C28.0977 31.7556 27.963 31.7437 27.83 31.7586C27.697 31.7735 27.5684 31.815 27.4517 31.8805C27.335 31.9461 27.2326 32.0344 27.1507 32.1402C27.0688 32.246 27.0089 32.3672 26.9747 32.4966C26.9404 32.626 26.9325 32.7609 26.9514 32.8934C27.0348 33.5716 27.3246 34.2077 27.7816 34.7157C28.2385 35.2236 28.8405 35.5789 29.5061 35.7334V35.7881C29.5061 36.0533 29.6114 36.3077 29.799 36.4952C29.9865 36.6827 30.2409 36.7881 30.5061 36.7881C30.7713 36.7881 31.0256 36.6827 31.2132 36.4952C31.4007 36.3077 31.5061 36.0533 31.5061 35.7881V35.7334C32.2055 35.6069 32.8407 35.2453 33.3065 34.7084C33.7723 34.1716 34.0408 33.4917 34.0674 32.7814C34.0039 31.9002 33.5931 31.0802 32.9253 30.5017C32.2575 29.9231 31.3874 29.6334 30.5061 29.6961Z"/><path d="M6.66536 39.6663H30.5067C32.1431 39.6676 33.7485 39.2208 35.1489 38.3742C36.5493 37.5277 37.6912 36.3138 38.4505 34.8643C39.2099 33.4148 39.5578 31.785 39.4565 30.1518C39.3553 28.5186 38.8087 26.9443 37.876 25.5997C38.3855 25.4778 38.8392 25.1878 39.1638 24.7766C39.4884 24.3654 39.6651 23.8569 39.6654 23.333V16.6663C39.6647 16.0477 39.4186 15.4546 38.9812 15.0172C38.5437 14.5798 37.9506 14.3337 37.332 14.333H31.5067V6.66634C31.5046 4.98729 30.8366 3.37761 29.6494 2.19034C28.4621 1.00306 26.8524 0.335125 25.1734 0.333008H6.66536C4.98631 0.335125 3.37663 1.00306 2.18936 2.19034C1.00209 3.37761 0.334148 4.98729 0.332031 6.66634V33.333C0.334148 35.0121 1.00209 36.6217 2.18936 37.809C3.37663 38.9963 4.98631 39.6642 6.66536 39.6663ZM30.5067 37.6663C29.128 37.6666 27.7801 37.258 26.6336 36.4922C25.4871 35.7264 24.5935 34.6379 24.0657 33.3642C23.5379 32.0905 23.3997 30.6888 23.6685 29.3366C23.9373 27.9843 24.6011 26.7421 25.5759 25.7671C26.5507 24.7921 27.7927 24.1281 29.145 23.859C30.4972 23.59 31.8988 23.7279 33.1726 24.2555C34.4464 24.783 35.5352 25.6765 36.3012 26.8228C37.0672 27.9692 37.476 29.3169 37.476 30.6957C37.4739 32.5435 36.739 34.3151 35.4325 35.6219C34.126 36.9286 32.3545 37.6639 30.5067 37.6663ZM31.5067 21.7863V20.9997H37.6654V23.333C37.6654 23.4214 37.6302 23.5062 37.5677 23.5687C37.5052 23.6312 37.4204 23.6663 37.332 23.6663H36.06C34.7487 22.6248 33.1708 21.9733 31.5067 21.7863ZM37.332 16.333C37.4204 16.333 37.5052 16.3681 37.5677 16.4306C37.6302 16.4932 37.6654 16.5779 37.6654 16.6663V18.9997H31.5067V16.333H37.332ZM2.33203 6.66634C2.33344 5.5175 2.79044 4.41612 3.60279 3.60377C4.41515 2.79142 5.51653 2.33442 6.66536 2.33301H25.1734C26.3222 2.33442 27.4236 2.79142 28.2359 3.60377C29.0483 4.41612 29.5053 5.5175 29.5067 6.66634V21.7863C27.7484 21.9818 26.0873 22.6933 24.7327 23.8314C23.3782 24.9694 22.3909 26.4829 21.8952 28.1812C21.3996 29.8795 21.4178 31.6865 21.9475 33.3745C22.4773 35.0625 23.4949 36.5558 24.872 37.6663H6.66536C5.51653 37.6649 4.41515 37.2079 3.60279 36.3956C2.79044 35.5832 2.33344 34.4818 2.33203 33.333V6.66634Z"/><path d="M8.02474 15.5454H23.8114C24.43 15.5447 25.0231 15.2986 25.4605 14.8612C25.898 14.4237 26.144 13.8306 26.1447 13.212V8.02669C26.144 7.40807 25.898 6.81499 25.4605 6.37756C25.0231 5.94012 24.43 5.69407 23.8114 5.69336H8.02474C7.40612 5.69407 6.81304 5.94012 6.3756 6.37756C5.93817 6.81499 5.69211 7.40807 5.69141 8.02669V13.212C5.69211 13.8306 5.93817 14.4237 6.3756 14.8612C6.81304 15.2986 7.40612 15.5447 8.02474 15.5454ZM7.69141 8.02669C7.69141 7.93829 7.72652 7.8535 7.78904 7.79099C7.85155 7.72848 7.93633 7.69336 8.02474 7.69336H23.8114C23.8998 7.69336 23.9846 7.72848 24.0471 7.79099C24.1096 7.8535 24.1447 7.93829 24.1447 8.02669V13.212C24.1444 13.3003 24.1092 13.3849 24.0467 13.4473C23.9843 13.5098 23.8997 13.545 23.8114 13.5454H8.02474C7.93644 13.545 7.85186 13.5098 7.78943 13.4473C7.72699 13.3849 7.69176 13.3003 7.69141 13.212V8.02669Z"/><path d="M7.58402 18.8389C7.28155 18.8389 6.98587 18.9286 6.73437 19.0966C6.48287 19.2647 6.28685 19.5035 6.1711 19.783C6.05535 20.0624 6.02506 20.3699 6.08407 20.6666C6.14308 20.9632 6.28874 21.2357 6.50262 21.4496C6.7165 21.6635 6.989 21.8091 7.28566 21.8681C7.58233 21.9272 7.88982 21.8969 8.16927 21.7811C8.44872 21.6654 8.68757 21.4694 8.85562 21.2179C9.02366 20.9664 9.11336 20.6707 9.11336 20.3682C9.11353 20.1673 9.07409 19.9684 8.9973 19.7827C8.9205 19.5971 8.80786 19.4285 8.66581 19.2864C8.52377 19.1444 8.35511 19.0317 8.16948 18.9549C7.98385 18.8781 7.78491 18.8387 7.58402 18.8389Z"/><path d="M15.92 18.8389C15.6175 18.8389 15.3219 18.9286 15.0704 19.0966C14.8189 19.2647 14.6229 19.5035 14.5071 19.783C14.3913 20.0624 14.3611 20.3699 14.4201 20.6666C14.4791 20.9632 14.6247 21.2357 14.8386 21.4496C15.0525 21.6635 15.325 21.8091 15.6217 21.8681C15.9183 21.9272 16.2258 21.8969 16.5053 21.7811C16.7847 21.6654 17.0236 21.4694 17.1916 21.2179C17.3597 20.9664 17.4494 20.6707 17.4494 20.3682C17.4495 20.1673 17.4101 19.9684 17.3333 19.7827C17.2565 19.5971 17.1439 19.4285 17.0018 19.2864C16.8598 19.1444 16.6911 19.0317 16.5055 18.9549C16.3199 18.8781 16.1209 18.8387 15.92 18.8389Z"/><path d="M24.2559 18.8389C23.9534 18.8389 23.6577 18.9286 23.4062 19.0966C23.1547 19.2647 22.9587 19.5035 22.843 19.783C22.7272 20.0624 22.6969 20.3699 22.7559 20.6666C22.815 20.9632 22.9606 21.2357 23.1745 21.4496C23.3884 21.6635 23.6609 21.8091 23.9575 21.8681C24.2542 21.9272 24.5617 21.8969 24.8411 21.7811C25.1206 21.6654 25.3594 21.4694 25.5275 21.2179C25.6955 20.9664 25.7852 20.6707 25.7852 20.3682C25.7854 20.1673 25.746 19.9684 25.6692 19.7827C25.5924 19.5971 25.4797 19.4285 25.3377 19.2864C25.1956 19.1444 25.027 19.0317 24.8414 18.9549C24.6557 18.8781 24.4568 18.8387 24.2559 18.8389Z"/><path d="M7.58402 25.0771C7.28155 25.0771 6.98587 25.1668 6.73437 25.3349C6.48287 25.5029 6.28685 25.7418 6.1711 26.0212C6.05535 26.3007 6.02506 26.6082 6.08407 26.9048C6.14308 27.2015 6.28874 27.474 6.50262 27.6879C6.7165 27.9018 6.989 28.0474 7.28566 28.1064C7.58233 28.1654 7.88982 28.1352 8.16927 28.0194C8.44872 27.9037 8.68757 27.7076 8.85562 27.4561C9.02366 27.2046 9.11336 26.909 9.11336 26.6065C9.11353 26.4056 9.07409 26.2067 8.9973 26.021C8.9205 25.8354 8.80786 25.6667 8.66581 25.5247C8.52377 25.3826 8.35511 25.27 8.16948 25.1932C7.98385 25.1164 7.78491 25.077 7.58402 25.0771Z"/><path d="M15.92 25.0771C15.6175 25.0771 15.3219 25.1668 15.0704 25.3349C14.8189 25.5029 14.6229 25.7418 14.5071 26.0212C14.3913 26.3007 14.3611 26.6082 14.4201 26.9048C14.4791 27.2015 14.6247 27.474 14.8386 27.6879C15.0525 27.9018 15.325 28.0474 15.6217 28.1064C15.9183 28.1654 16.2258 28.1352 16.5053 28.0194C16.7847 27.9037 17.0236 27.7076 17.1916 27.4561C17.3597 27.2046 17.4494 26.909 17.4494 26.6065C17.4495 26.4056 17.4101 26.2067 17.3333 26.021C17.2565 25.8354 17.1439 25.6667 17.0018 25.5247C16.8598 25.3826 16.6911 25.27 16.5055 25.1932C16.3199 25.1164 16.1209 25.077 15.92 25.0771Z"/><path d="M7.58402 31.3145C7.28155 31.3145 6.98587 31.4041 6.73437 31.5722C6.48287 31.7402 6.28685 31.9791 6.1711 32.2585C6.05535 32.538 6.02506 32.8455 6.08407 33.1421C6.14308 33.4388 6.28874 33.7113 6.50262 33.9252C6.7165 34.1391 6.989 34.2847 7.28566 34.3437C7.58233 34.4027 7.88982 34.3725 8.16927 34.2567C8.44872 34.141 8.68757 33.9449 8.85562 33.6934C9.02366 33.4419 9.11336 33.1463 9.11336 32.8438C9.11353 32.6429 9.07409 32.444 8.9973 32.2583C8.9205 32.0727 8.80786 31.904 8.66581 31.762C8.52377 31.6199 8.35511 31.5073 8.16948 31.4305C7.98385 31.3537 7.78491 31.3143 7.58402 31.3145Z"/><path d="M15.92 31.3145C15.6175 31.3145 15.3219 31.4041 15.0704 31.5722C14.8189 31.7402 14.6229 31.9791 14.5071 32.2585C14.3913 32.538 14.3611 32.8455 14.4201 33.1421C14.4791 33.4388 14.6247 33.7113 14.8386 33.9252C15.0525 34.1391 15.325 34.2847 15.6217 34.3437C15.9183 34.4027 16.2258 34.3725 16.5053 34.2567C16.7847 34.141 17.0236 33.9449 17.1916 33.6934C17.3597 33.4419 17.4494 33.1463 17.4494 32.8438C17.4495 32.6429 17.4101 32.444 17.3333 32.2583C17.2565 32.0727 17.1439 31.904 17.0018 31.762C16.8598 31.6199 16.6911 31.5073 16.5055 31.4305C16.3199 31.3537 16.1209 31.3143 15.92 31.3145Z"/></g><defs><clipPath id="clip0_550_1191"><rect width="40" height="40"/></clipPath></defs></svg>