<svg width="40" height="40" viewBox="0 0 40 40" xmlns="http://www.w3.org/2000/svg">
<g clip-path="url(#clip0_498_25180)">
<path d="M38.828 28.2813C38.5779 28.2813 23.3107 28.2813 22.4231 28.2813L39.4123 18.5098C39.9719 18.1879 40.1658 17.4743 39.846 16.9135L30.5386 0.591698C30.2171 0.0279534 29.4983 -0.167045 28.9359 0.156624L0.58736 16.4783C0.0275215 16.8006 -0.165836 17.5151 0.154864 18.0758L5.99301 28.2813H1.17204C0.52486 28.2813 0.00017801 28.806 0.00017801 29.4532V38.8281C0.00017801 39.4753 0.52486 40 1.17204 40H38.8279C39.4751 40 39.9998 39.4753 39.9998 38.8281V29.4532C39.9999 28.806 39.4752 28.2813 38.828 28.2813ZM37.6561 30.625V32.9687H25.8594L25.8591 30.625H37.6561ZM16.4844 30.625H23.5157C23.516 33.0213 23.5161 35.0078 23.5164 37.6562H16.4838C16.484 35.1437 16.4842 33.1582 16.4844 30.625ZM2.76953 17.9264L29.0856 2.77488L37.2317 17.0602L17.7225 28.281C17.7223 28.2811 17.7223 28.2812 17.7221 28.2813C16.8051 28.2813 9.60993 28.2813 8.69306 28.2813L2.76953 17.9264ZM14.1413 30.625L14.1411 32.9687H2.3439V30.625H14.1413ZM2.3439 35.3125H14.1408L14.1407 37.6562H2.3439V35.3125ZM25.8594 37.6562L25.8591 35.3125H37.6561V37.6562H25.8594Z"/>
<path d="M22.9297 22.5685C25.734 20.9493 26.6938 17.3693 25.0744 14.5645C23.4591 11.7665 19.8685 10.8044 17.0704 12.4198C14.266 14.0389 13.3063 17.619 14.9257 20.4238C16.5443 23.2274 20.1241 24.1882 22.9297 22.5685ZM18.2422 14.4496C19.9316 13.4741 22.0815 14.0683 23.0445 15.7363C24.016 17.4191 23.4406 19.5671 21.7578 20.5387C20.0753 21.5103 17.927 20.9348 16.9554 19.2519C15.9839 17.5692 16.5593 15.4212 18.2422 14.4496Z"/>
<path d="M12.8958 21.5956C12.5723 21.0352 11.8555 20.8431 11.2951 21.1667L9.2653 22.3386C8.70483 22.6622 8.5128 23.3789 8.83639 23.9394C9.16163 24.5027 9.87936 24.6904 10.4372 24.3683L12.4669 23.1964C13.0274 22.8729 13.2194 22.1562 12.8958 21.5956Z"/>
<path d="M28.7048 13.8217L30.7345 12.6498C31.295 12.3262 31.487 11.6095 31.1634 11.049C30.8398 10.4885 30.1231 10.2965 29.5626 10.6201L27.5329 11.792C26.9724 12.1156 26.7804 12.8323 27.104 13.3928C27.4292 13.956 28.1469 14.1437 28.7048 13.8217Z"/>
</g>
<defs>
<clipPath id="clip0_498_25180">
<rect width="40" height="40"/>
</clipPath>
</defs>
</svg>
