<svg width="30" height="30" viewBox="0 0 30 30" fill="none" xmlns="http://www.w3.org/2000/svg">
<path d="M15 7.5C15 11.6421 11.6421 15 7.5 15H0V7.5C0 3.35786 3.35786 0 7.5 0C11.6421 0 15 3.35786 15 7.5Z" fill="#E6FD5A"/>
<path d="M15 22.5C15 18.3579 18.3579 15 22.5 15H30V22.5C30 26.6421 26.6421 30 22.5 30C18.3579 30 15 26.6421 15 22.5Z" fill="#E6FD5A"/>
<path d="M0 22.5C0 26.6421 3.35786 30 7.5 30H15V22.5C15 18.3579 11.6421 15 7.5 15C3.35786 15 0 18.3579 0 22.5Z" fill="#E6FD5A"/>
<path d="M30 7.5C30 3.35786 26.6421 0 22.5 0H15V7.5C15 11.6421 18.3579 15 22.5 15C26.6421 15 30 11.6421 30 7.5Z" fill="#E6FD5A"/>
</svg>
