<svg xmlns="http://www.w3.org/2000/svg" class="icon-analytics" width="35" height="35" viewBox="0 0 35 35"><path d="M5.46875 4.375V20.7813C5.46875 21.6515 5.81445 22.4861 6.42981 23.1014C7.04516 23.7168 7.87976 24.0625 8.75 24.0625H12.0313M5.46875 4.375H3.28125M5.46875 4.375H29.5313M12.0313 24.0625H22.9688M12.0313 24.0625L10.5729 28.4375M29.5313 4.375H31.7188M29.5313 4.375V20.7813C29.5313 21.6515 29.1855 22.4861 28.5702 23.1014C27.9548 23.7168 27.1202 24.0625 26.25 24.0625H22.9688M22.9688 24.0625L24.4271 28.4375M10.5729 28.4375H24.4271M10.5729 28.4375L9.84375 30.625M24.4271 28.4375L25.1563 30.625M10.9375 17.5L15.3125 13.125L18.445 16.2575C19.9167 14.1448 21.8344 12.381 24.0625 11.0906" stroke="currentColor" stroke-width="2" stroke-linecap="round" stroke-linejoin="round"></path><style>svg.icon-analytics{fill: none!important;}</style></svg>