<svg xmlns="http://www.w3.org/2000/svg" class="icon-user" width="30" height="30" viewBox="0 0 30 30"><ellipse cx="12.5" cy="21.875" rx="8.75" ry="4.375" stroke="currentColor" stroke-width="2" stroke-linejoin="round"></ellipse><circle cx="12.5" cy="8.75" r="5" stroke="currentColor" stroke-width="2" stroke-linejoin="round"></circle><path d="M19.2749 5.53125C21.5129 5.79126 23.2505 7.69229 23.2505 10C23.2505 12.4851 21.2356 14.4998 18.7505 14.5C18.3214 14.5 17.9063 14.4384 17.5132 14.3262C17.9522 13.9313 18.3443 13.4858 18.6802 12.998C18.7034 12.9986 18.7271 13 18.7505 13C20.4071 12.9998 21.7505 11.6567 21.7505 10C21.7505 8.72812 20.9576 7.64351 19.8403 7.20703C19.7176 6.62021 19.526 6.05891 19.2749 5.53125Z" fill="currentColor"></path><path d="M20.0845 16.7979C21.7085 16.9142 23.1837 17.2399 24.3423 17.7227C25.0749 18.0279 25.7168 18.4109 26.187 18.874C26.6599 19.3399 27.0004 19.9324 27.0005 20.625C27.0005 21.3176 26.6598 21.9101 26.187 22.376C25.7168 22.839 25.0748 23.2221 24.3423 23.5273C24.0039 23.6683 23.6377 23.7943 23.2495 23.9072C23.5317 23.3492 23.6993 22.7611 23.7388 22.1523C23.7473 22.1488 23.7566 22.1461 23.7651 22.1426C24.3893 21.8825 24.8456 21.591 25.1343 21.3066C25.4202 21.0249 25.5005 20.7952 25.5005 20.625C25.5004 20.4548 25.4202 20.2251 25.1343 19.9434C24.8456 19.6589 24.3894 19.3675 23.7651 19.1074C23.3784 18.9463 22.9407 18.8023 22.4614 18.6807C21.8508 17.9712 21.0447 17.3338 20.0845 16.7979Z" fill="currentColor"></path><style>svg.icon-user ellipse, svg.icon-user circle{fill: none!important;}</style></svg>