<svg class="icon-briefcase" width="35" height="35" viewBox="0 0 35 35" xmlns="http://www.w3.org/2000/svg">
<path d="M32.0837 14.5834V26.2501C32.0837 29.4717 29.472 32.0834 26.2503 32.0834H8.75032C5.52866 32.0834 2.91699 29.4717 2.91699 26.2501V14.5834M32.0837 14.5834C32.0837 11.3618 29.472 8.75008 26.2503 8.75008H8.75033C5.52866 8.75008 2.91699 11.3618 2.91699 14.5834M32.0837 14.5834C32.0837 14.5834 27.4715 18.6152 17.5003 18.3475C7.52914 18.0798 2.91699 14.5834 2.91699 14.5834M11.667 8.75008V7.29175C11.667 4.8755 13.6257 2.91675 16.042 2.91675H18.9587C21.3749 2.91675 23.3337 4.8755 23.3337 7.29175V8.75008M11.667 15.5703V19.9453M23.3337 15.5703V19.9453" stroke="currentColor" stroke-width="2" stroke-linecap="round"/>
<style>svg.icon-briefcase, svg.icon-briefcase path{fill: none!important;}</style>
</svg>
