<svg class="icon-diamond" width="35" height="35" viewBox="0 0 35 35" xmlns="http://www.w3.org/2000/svg">
<path d="M20.6007 4.375H24.7209C25.6066 4.375 26.4501 4.75854 27.0385 5.4289L31.2999 10.2834C32.2889 11.41 32.3477 13.0893 31.4401 14.284L19.9577 29.3995C18.7164 31.0335 16.2833 31.0335 15.042 29.3995L3.55956 14.284C2.65197 13.0893 2.71082 11.41 3.69976 10.2834L7.96115 5.4289C8.54959 4.75854 9.39305 4.375 10.2788 4.375H14.7435M20.6007 4.375L23.7016 12.225M20.6007 4.375H14.7435M23.7016 12.225H31.4538M23.7016 12.225L17.4998 30.28L11.2981 12.225M23.7016 12.225H11.2981M14.7435 4.375L11.2981 12.225M3.54587 12.225H11.2981" stroke="currentColor" stroke-width="2" stroke-linecap="round" stroke-linejoin="round"/>
<style>svg.icon-diamond, svg.icon-diamond path{fill: none!important;}</style>
</svg>
