<svg class="icon-globe" width="32" height="32" viewBox="0 0 32 32" xmlns="http://www.w3.org/2000/svg">
<ellipse cx="15.5833" cy="15.5833" rx="5.83333" ry="14.5833" stroke="currentColor" stroke-width="2"/>
<path d="M30.1611 15.1758C27.5326 17.3356 21.9925 18.8241 15.5833 18.8241C9.17412 18.8241 3.63402 17.3356 1.00558 15.1758M30.1611 15.1758C29.9453 7.31007 23.5012 1 15.5833 1C7.66547 1 1.22141 7.31007 1.00558 15.1758M30.1611 15.1758C30.1648 15.3112 30.1667 15.447 30.1667 15.5833C30.1667 23.6375 23.6375 30.1667 15.5833 30.1667C7.52918 30.1667 1 23.6375 1 15.5833C1 15.447 1.00187 15.3112 1.00558 15.1758" stroke="currentColor" stroke-width="2"/>
<style>svg.icon-globe, svg.icon-globe path{fill: none!important;}</style>
</svg>
