<svg class="icon-target" width="35" height="35" viewBox="0 0 35 35" xmlns="http://www.w3.org/2000/svg">
<circle cx="17.4997" cy="17.4999" r="2.91667" fill="currentColor"/>
<path d="M17.5003 17.5001L32.0837 2.91675M26.2503 17.5001C26.2503 22.3326 22.3328 26.2501 17.5003 26.2501C12.6678 26.2501 8.75033 22.3326 8.75033 17.5001C8.75033 12.6676 12.6678 8.75008 17.5003 8.75008C22.3328 8.75008 26.2503 12.6676 26.2503 17.5001ZM32.0837 17.5001C32.0837 25.5542 25.5545 32.0834 17.5003 32.0834C9.44617 32.0834 2.91699 25.5542 2.91699 17.5001C2.91699 9.44593 9.44617 2.91675 17.5003 2.91675C25.5545 2.91675 32.0837 9.44593 32.0837 17.5001Z" stroke="currentColor" stroke-width="2" stroke-linecap="round"/>
<style>svg.icon-target, svg.icon-target path{fill: none!important;}</style>
</svg>
