<svg xmlns="http://www.w3.org/2000/svg" width="157" height="40" viewBox="0 0 157 40" fill="none"><g clip-path="url(#clip0_2212_17802)"><path d="M31.0617 20.1081L45.1545 12.4821H33.7356L37.0899 0H19.1513L15.7969 12.4821H4.37793L14.0907 19.8919L23.8564 14.6085L31.0617 20.1081Z" fill="#020B1D"></path><path d="M21.2981 25.389L14.0904 19.892L0 27.5154H11.419L8.06459 40.0001H26.0033L29.3576 27.5154H40.7741L31.0613 20.1081L21.2981 25.389Z" fill="#164333"></path><path d="M54.2168 19.3716C54.2168 19.3214 54.2168 19.2711 54.2168 19.2233V19.0926C54.2168 18.4819 54.0429 18.0093 53.6926 17.6725C53.3423 17.3357 52.8433 17.1673 52.1931 17.1673C51.4068 17.1673 50.7339 17.5016 50.1795 18.1677C49.6225 18.8337 49.2319 19.809 49.0076 21.0934C48.9194 21.6288 48.8766 22.0963 48.8766 22.4959C48.8766 23.1947 49.0378 23.7451 49.363 24.1498C49.6881 24.5545 50.245 24.7581 51.0313 24.7581C51.7067 24.7581 52.2662 24.552 52.7098 24.1423C53.1533 23.7301 53.4809 23.1771 53.6926 22.4783H57.9467C57.4477 24.2101 56.5329 25.5725 55.1997 26.5628C53.869 27.5531 52.309 28.0483 50.5222 28.0483C48.5968 28.0483 47.1074 27.5657 46.0514 26.6005C44.9955 25.6353 44.4688 24.2981 44.4688 22.5914C44.4688 22.0686 44.5192 21.5207 44.62 20.9476C44.8065 19.8769 45.1467 18.9041 45.6406 18.0319C46.1346 17.1597 46.7445 16.4132 47.4678 15.7899C48.1911 15.1665 48.9925 14.694 49.867 14.3698C50.7415 14.0455 51.6488 13.8846 52.5837 13.8846C54.5066 13.8846 55.9633 14.3119 56.9512 15.164C57.9391 16.0186 58.4331 17.2301 58.4331 18.8011C58.4331 18.8513 58.4255 18.9443 58.4155 19.0826C58.4155 19.2083 58.4155 19.3063 58.4155 19.3817H54.2168V19.3716Z" fill="#1351D8"></path><path d="M65.4415 27.6914V26.6432C64.8291 27.1283 64.2142 27.4727 63.5942 27.6712C62.9768 27.8698 62.2787 27.9704 61.505 27.9704C60.6179 27.9704 59.8896 27.7718 59.3225 27.3721C58.753 26.9725 58.4707 26.3818 58.4707 25.5951C58.4707 25.4217 58.4883 25.2281 58.5261 25.017C58.6396 24.3811 58.8689 23.8583 59.2192 23.446C59.5695 23.0338 59.9853 22.7171 60.4667 22.4934C60.948 22.2697 61.437 22.1114 61.9385 22.0159C62.4375 21.9229 63.0373 21.8324 63.7379 21.7444C64.5872 21.6439 65.2097 21.5358 65.6028 21.4176C65.996 21.2995 66.2178 21.0783 66.2682 20.7541C66.2682 20.7289 66.2732 20.7038 66.2858 20.6787C66.2858 20.6535 66.2858 20.6359 66.2858 20.6234C66.2858 20.362 66.1673 20.1835 65.9305 20.0905C65.6936 19.9975 65.4315 19.9497 65.1442 19.9497C64.7938 19.9497 64.4788 20.0151 64.1966 20.1458C63.9143 20.2765 63.7177 20.5279 63.6068 20.9024H59.8593C60.0458 19.819 60.6154 18.9996 61.5655 18.4442C62.5156 17.8887 63.9269 17.6122 65.8019 17.6122C66.6638 17.6122 67.3846 17.6725 67.9668 17.7906C68.5489 17.9088 68.9975 18.0772 69.3151 18.2959C69.6326 18.5145 69.8594 18.7759 69.9905 19.0801C70.1215 19.3867 70.187 19.7436 70.187 20.1559C70.187 20.5178 70.1316 21.023 70.0182 21.669L69.2117 26.2486C69.1613 26.4849 69.1361 26.6533 69.1361 26.7538C69.1361 27.0152 69.2596 27.2641 69.5116 27.5028L69.4738 27.6888H65.4415V27.6914ZM65.1719 25.1024C65.5272 24.6601 65.744 24.0769 65.8196 23.3556C65.4945 23.4938 65.0131 23.6295 64.3755 23.7678C63.8009 23.8934 63.3725 24.0267 63.0927 24.1699C62.813 24.3132 62.6391 24.5721 62.5761 24.9466C62.5761 24.9717 62.5761 24.9893 62.5761 25.0019L62.5584 25.0773C62.5584 25.2884 62.6593 25.4568 62.8583 25.5825C63.0574 25.7082 63.3271 25.7685 63.6648 25.7685C64.3125 25.766 64.814 25.5448 65.1719 25.1024Z" fill="#1351D8"></path><path d="M74.9631 24.6449C74.9631 24.67 74.9556 24.7128 74.9455 24.7756C74.9455 24.8259 74.9455 24.8636 74.9455 24.8887C74.9455 25.1501 75.0337 25.3688 75.2076 25.5422C75.4319 25.7408 75.7393 25.8413 76.1249 25.8413C76.4752 25.8413 76.7776 25.7735 77.0347 25.6352C77.2918 25.4995 77.4505 25.2733 77.5135 24.9616V24.9063V24.8686C77.5135 24.6198 77.3674 24.4363 77.0725 24.3182C76.7776 24.2 76.3013 24.0718 75.6385 23.9361C75.0765 23.823 74.6254 23.7225 74.2902 23.6269C73.9525 23.5339 73.6148 23.3957 73.2771 23.2147C72.9394 23.0338 72.6697 22.795 72.4706 22.4959C72.2716 22.1968 72.1707 21.8298 72.1707 21.3924C72.1707 21.2316 72.1884 21.0506 72.2262 20.8495C72.327 20.2513 72.5513 19.7411 72.9016 19.3163C73.2519 18.894 73.6753 18.5572 74.1768 18.3058C74.6758 18.057 75.2076 17.8785 75.7696 17.773C76.3316 17.6674 76.8885 17.6146 77.4379 17.6146C78.0125 17.6146 78.5493 17.6523 79.0509 17.7277C79.5499 17.8031 80.006 17.9389 80.4193 18.1399C80.8326 18.3385 81.1628 18.6225 81.4123 18.9895C81.6618 19.3565 81.7878 19.8165 81.7878 20.3644C81.7878 20.4021 81.7802 20.4574 81.7701 20.5328C81.7701 20.6208 81.7701 20.6761 81.7701 20.7012H78.2268C78.2268 20.377 78.1461 20.1407 77.9823 19.9899C77.8084 19.829 77.5564 19.7461 77.2338 19.7461C76.8835 19.7461 76.6037 19.8014 76.3895 19.9145C76.1778 20.0276 76.0468 20.201 75.9964 20.4373C75.9964 20.661 76.1501 20.8369 76.4551 20.9601C76.76 21.0858 77.2388 21.2215 77.889 21.3723C78.4636 21.5106 78.9324 21.6312 79.2953 21.7368C79.6582 21.8423 80.0136 21.9932 80.3639 22.1842C80.7142 22.3777 80.9939 22.6266 81.2081 22.9332C81.4198 23.2373 81.5257 23.6093 81.5257 24.0442C81.5257 24.2076 81.5131 24.3735 81.4879 24.5494C81.3014 25.6076 80.7066 26.4446 79.7086 27.0554C78.7081 27.6662 77.3346 27.9703 75.5856 27.9703C75.011 27.9703 74.4666 27.9225 73.955 27.8295C73.4434 27.7365 72.9797 27.5782 72.5689 27.352C72.1556 27.1283 71.8305 26.8216 71.5936 26.437C71.3567 26.05 71.2383 25.5825 71.2383 25.0345C71.2383 25.0094 71.2383 24.9465 71.2383 24.8485C71.2509 24.7731 71.2559 24.7052 71.2559 24.6424H74.9631V24.6449Z" fill="#1351D8"></path><path d="M84.8216 14.2314H88.7203L87.8584 19.1278C88.3574 18.6175 88.864 18.238 89.3756 17.9866C89.8872 17.7378 90.4618 17.6121 91.0994 17.6121C92.173 17.6121 92.9744 17.8635 93.4986 18.3687C94.0228 18.8739 94.2849 19.6129 94.2849 20.5831C94.2849 20.9576 94.2421 21.3673 94.1538 21.8172L93.1231 27.6863H89.2244L90.1417 22.5084C90.1795 22.2722 90.1972 22.0535 90.1972 21.8549C90.1972 21.4804 90.114 21.1914 89.9451 20.9852C89.7763 20.7791 89.4915 20.6761 89.0933 20.6761C88.5313 20.6761 88.1104 20.8445 87.8282 21.1813C87.5459 21.5181 87.3443 22.0233 87.2183 22.6944L86.3362 27.6863H82.4375L84.8216 14.2314Z" fill="#1351D8"></path><path d="M95.2627 27.6913L97.6418 14.2314H103.564C105.5 14.2314 106.994 14.6336 108.043 15.4379C109.093 16.2423 109.618 17.4588 109.618 19.0926C109.618 19.5902 109.567 20.1206 109.466 20.6811C109.255 21.9278 108.902 22.9961 108.408 23.8858C107.914 24.7781 107.304 25.502 106.581 26.0625C105.855 26.6231 105.033 27.0353 104.116 27.2967C103.199 27.5581 102.183 27.6888 101.072 27.6888H95.2627V27.6913ZM100.248 24.5494H101.185C102.234 24.5494 103.078 24.2578 103.715 23.6697C104.353 23.084 104.784 22.1691 105.008 20.9224C105.096 20.387 105.139 19.9245 105.139 19.54C105.139 18.7306 104.923 18.1651 104.492 17.8484C104.061 17.5317 103.345 17.3708 102.344 17.3708H101.5L100.248 24.5494Z" fill="#1351D8"></path><path d="M109.787 27.6913L111.511 17.8962H115.41L113.686 27.6913H109.787ZM112.224 13.8771H116.123L115.636 16.6445H111.738L112.224 13.8771Z" fill="#1351D8"></path><path d="M117.564 17.8961H121.108L120.77 19.8768H120.808C121.221 19.1051 121.705 18.5346 122.259 18.1651C122.816 17.7981 123.469 17.6146 124.218 17.6146C124.293 17.6146 124.404 17.6272 124.555 17.6523L124.724 17.6699L124.031 21.5583C123.955 21.5458 123.875 21.5332 123.787 21.5206C123.537 21.4703 123.356 21.4452 123.242 21.4452C122.418 21.4452 121.77 21.6639 121.302 22.0987C120.833 22.5361 120.51 23.27 120.336 24.3056L119.737 27.6888H115.838L117.564 17.8961Z" fill="#1351D8"></path><path d="M128.044 23.6722C128.018 23.7979 128.006 23.9211 128.006 24.0467C128.006 24.5092 128.159 24.8812 128.464 25.1678C128.769 25.4543 129.16 25.5976 129.636 25.5976C129.949 25.5976 130.249 25.5272 130.536 25.3839C130.823 25.2407 131.06 25.027 131.249 24.738H134.979C134.717 25.3236 134.367 25.8263 133.931 26.2436C133.492 26.6608 133.003 26.9976 132.459 27.254C131.915 27.5104 131.35 27.6939 130.763 27.8044C130.176 27.9176 129.576 27.9729 128.963 27.9729C127.527 27.9729 126.37 27.621 125.496 26.9172C124.621 26.2134 124.183 25.2206 124.183 23.9362C124.183 23.5993 124.213 23.25 124.276 22.8905C124.425 22.1063 124.697 21.3849 125.092 20.7314C125.486 20.0779 125.977 19.5199 126.564 19.0574C127.151 18.5975 127.804 18.2405 128.522 17.9917C129.241 17.7429 129.994 17.6172 130.78 17.6172C132.318 17.6172 133.51 18.0319 134.359 18.8614C135.208 19.6908 135.634 20.8093 135.634 22.2169C135.634 22.6794 135.584 23.1645 135.483 23.6747H128.044V23.6722ZM131.942 21.6916C131.942 21.6665 131.942 21.6237 131.942 21.5609C131.955 21.498 131.96 21.4553 131.96 21.4302C131.96 21.0305 131.821 20.6912 131.547 20.4122C131.272 20.1307 130.929 19.9925 130.516 19.9925C129.941 19.9925 129.467 20.1458 129.092 20.4499C128.716 20.7566 128.485 21.1688 128.399 21.6941H131.942V21.6916Z" fill="#1351D8"></path><path d="M144.048 21.6337C144.048 21.6212 144.054 21.5784 144.066 21.503C144.066 21.4528 144.066 21.4151 144.066 21.3899C144.066 21.0782 143.985 20.8219 143.822 20.6233C143.623 20.3619 143.303 20.2312 142.867 20.2312C142.529 20.2312 142.229 20.3116 141.967 20.475C141.705 20.6384 141.493 20.847 141.329 21.1009C141.165 21.3572 141.034 21.6413 140.936 21.9504C140.835 22.2621 140.755 22.5788 140.692 22.903C140.641 23.2022 140.616 23.4711 140.616 23.7074C140.616 24.2302 140.729 24.6349 140.954 24.9214C141.178 25.2079 141.516 25.3512 141.967 25.3512C142.441 25.3512 142.824 25.218 143.111 24.949C143.398 24.6801 143.61 24.3282 143.749 23.8934H147.685C147.473 24.6173 147.163 25.2381 146.758 25.7634C146.352 26.2862 145.861 26.716 145.286 27.0529C144.762 27.3645 144.177 27.5958 143.534 27.7441C142.892 27.8924 142.214 27.9678 141.501 27.9678C140.064 27.9678 138.905 27.6159 138.023 26.9121C137.141 26.2083 136.702 25.2155 136.702 23.9311C136.702 23.5943 136.732 23.2449 136.795 22.8855C136.944 22.0635 137.214 21.3246 137.602 20.6711C137.99 20.0175 138.476 19.4621 139.064 19.0071C139.651 18.5522 140.306 18.2053 141.032 17.969C141.755 17.7328 142.524 17.6146 143.338 17.6146C143.988 17.6146 144.593 17.6825 145.155 17.8207C145.717 17.959 146.213 18.1726 146.644 18.4667C147.075 18.7608 147.413 19.1378 147.657 19.5978C147.902 20.0578 148.023 20.6082 148.023 21.2416C148.023 21.2793 148.023 21.3422 148.023 21.4276C148.01 21.5407 148.005 21.6086 148.005 21.6337H144.048Z" fill="#1351D8"></path><path d="M155.239 27.6913C154.289 27.7416 153.545 27.7667 153.008 27.7667C151.821 27.7667 151.01 27.636 150.571 27.3746C150.133 27.1132 149.916 26.6256 149.916 25.9168C149.916 25.5171 149.984 24.9566 150.123 24.2352L150.836 20.1407H149.447L149.84 17.8987H151.284L151.829 14.8523H155.672L155.128 17.8987H157.003L156.61 20.1407H154.735L154.117 23.6923C154.067 23.9286 154.042 24.1096 154.042 24.2352C154.042 24.4841 154.12 24.66 154.276 24.758C154.432 24.8586 154.709 24.9088 155.11 24.9088H155.728L155.239 27.6913Z" fill="#1351D8"></path></g><defs><clipPath id="clip0_2212_17802"><rect width="157" height="40" fill="white"></rect></clipPath></defs></svg>