<svg xmlns="http://www.w3.org/2000/svg" width="127" height="40" viewBox="0 0 127 40" fill="none"><g clip-path="url(#clip0_2212_17819)"><path d="M37.3906 24.1917C35.5958 30.03 30.1534 34.2754 23.7133 34.2754C15.8137 34.2754 9.40871 27.8835 9.40871 20C9.40871 12.1165 15.8137 5.72462 23.7133 5.72462C30.3873 5.72462 35.9932 10.2861 37.5727 16.4549H39.7671C38.0903 7.10051 29.8967 0 20.0409 0C8.97191 0 0 8.95362 0 20C0 31.0464 8.97191 40 20.0409 40C29.669 40 37.7094 33.2238 39.6387 24.1917H37.3906Z" fill="#020B1D"></path><path d="M27.4957 29.6581C22.1506 29.6581 17.8178 25.3342 17.8178 20C17.8178 14.6659 22.1506 10.3419 27.4957 10.3419C30.9134 10.3419 33.9172 12.1124 35.6375 14.7836C33.6833 10.6993 29.5078 7.87732 24.6699 7.87732C17.9607 7.87732 12.5225 13.3044 12.5225 20C12.5225 26.6956 17.9607 32.1227 24.6699 32.1227C29.5078 32.1227 33.6833 29.3007 35.6375 25.2164C33.9172 27.8876 30.9134 29.6581 27.4957 29.6581Z" fill="#164333"></path><path d="M52.2046 18.653C52.2046 18.6117 52.2046 18.5683 52.2046 18.5249V18.4134C52.2046 17.8928 52.0556 17.4899 51.7575 17.2028C51.4594 16.9156 51.0329 16.773 50.4802 16.773C49.8095 16.773 49.2381 17.0581 48.7641 17.6263C48.29 18.1944 47.9588 19.0249 47.7663 20.1198C47.6918 20.5764 47.6545 20.9751 47.6545 21.3139C47.6545 21.9089 47.7932 22.3778 48.0685 22.7249C48.3459 23.0699 48.82 23.2435 49.4886 23.2435C50.0641 23.2435 50.5403 23.0678 50.917 22.7187C51.2938 22.3675 51.5732 21.8965 51.7554 21.3015H55.3802C54.9538 22.7786 54.1754 23.9376 53.041 24.7825C51.9065 25.6275 50.5796 26.0489 49.058 26.0489C47.4185 26.0489 46.1495 25.6378 45.2511 24.8135C44.3506 23.9913 43.9014 22.8509 43.9014 21.3965C43.9014 20.9503 43.9428 20.4834 44.0297 19.9938C44.1891 19.0807 44.4789 18.2522 44.8992 17.5085C45.3194 16.7648 45.839 16.1285 46.4559 15.5975C47.0728 15.0666 47.7539 14.6638 48.4991 14.3869C49.2444 14.1101 50.0165 13.9717 50.8135 13.9717C52.453 13.9717 53.693 14.3353 54.5335 15.0625C55.374 15.7897 55.7942 16.8226 55.7942 18.1613C55.7942 18.2047 55.788 18.2832 55.7777 18.401C55.7777 18.5063 55.7777 18.591 55.7777 18.6551H52.2046V18.653Z" fill="#1351D8"></path><path d="M56.0674 25.7432L57.5351 17.3949H60.8556L59.3858 25.7432H56.0674ZM58.1437 13.9696H61.4642L61.0481 16.3268H57.7276L58.1437 13.9696Z" fill="#1351D8"></path><path d="M62.6943 17.3949H65.7125L65.4248 19.0848H65.4558C65.8077 18.4258 66.2197 17.9403 66.6938 17.6263C67.1678 17.3123 67.7226 17.1553 68.3623 17.1553C68.4265 17.1553 68.5217 17.1656 68.65 17.1863L68.7929 17.2028L68.2029 20.5165C68.1387 20.5062 68.0704 20.4958 67.9959 20.4855C67.7826 20.4421 67.6295 20.4215 67.5322 20.4215C66.8304 20.4215 66.2797 20.6074 65.8802 20.9793C65.4807 21.3511 65.2074 21.9771 65.0584 22.8592L64.547 25.7432H61.2266L62.6943 17.3949Z" fill="#1351D8"></path><path d="M74.6037 20.5826C74.6037 20.5723 74.6099 20.5351 74.6202 20.471C74.6202 20.4277 74.6202 20.3967 74.6202 20.376C74.6202 20.1116 74.5519 19.8926 74.4132 19.7232C74.2435 19.5001 73.9723 19.3885 73.5997 19.3885C73.3119 19.3885 73.0573 19.4567 72.8337 19.5951C72.6102 19.7335 72.4301 19.9112 72.2914 20.1281C72.1527 20.345 72.0409 20.5867 71.956 20.8532C71.8711 21.1197 71.8007 21.3904 71.749 21.6651C71.7055 21.9192 71.6848 22.1486 71.6848 22.351C71.6848 22.7973 71.78 23.1423 71.9726 23.386C72.1651 23.6298 72.4508 23.7517 72.8337 23.7517C73.2374 23.7517 73.5624 23.6381 73.8067 23.4088C74.051 23.1794 74.2331 22.8799 74.3491 22.508H77.7027C77.5205 23.1237 77.2576 23.6546 76.9119 24.1008C76.5662 24.5471 76.148 24.9127 75.6595 25.1999C75.2123 25.4664 74.7155 25.6627 74.1669 25.7887C73.6183 25.9168 73.0407 25.9808 72.4342 25.9808C71.2108 25.9808 70.2233 25.6813 69.4719 25.0801C68.7225 24.481 68.3457 23.6339 68.3457 22.539C68.3457 22.2519 68.3726 21.9544 68.4264 21.6465C68.5548 20.9462 68.7825 20.3161 69.1137 19.7583C69.4429 19.2005 69.859 18.7274 70.3599 18.3411C70.8609 17.9527 71.4198 17.6594 72.0367 17.4569C72.6536 17.2544 73.3078 17.1553 74.0013 17.1553C74.554 17.1553 75.0715 17.2131 75.5497 17.3309C76.0279 17.4486 76.4523 17.6304 76.8187 17.8804C77.1851 18.1304 77.4729 18.4506 77.6799 18.8452C77.8869 19.2377 77.9904 19.7046 77.9904 20.2479C77.9904 20.2789 77.9904 20.3326 77.9904 20.407C77.9801 20.502 77.9738 20.5619 77.9738 20.5826H74.6037Z" fill="#1351D8"></path><path d="M78.835 25.7432L80.8616 14.2712H84.1821L82.1554 25.7432H78.835Z" fill="#1351D8"></path><path d="M87.5832 22.318C87.5625 22.4233 87.5522 22.5307 87.5522 22.6361C87.5522 23.0286 87.6826 23.3488 87.9435 23.5926C88.2043 23.8364 88.5376 23.9583 88.9413 23.9583C89.2062 23.9583 89.4629 23.8963 89.7072 23.7744C89.9515 23.6525 90.1543 23.4687 90.3137 23.2249H93.4914C93.2678 23.7248 92.9697 24.1525 92.5971 24.5078C92.2245 24.8631 91.8063 25.1503 91.3447 25.3672C90.881 25.5841 90.4007 25.7412 89.8997 25.8383C89.3987 25.9333 88.8874 25.9808 88.3678 25.9808C87.1444 25.9808 86.159 25.6812 85.4138 25.0801C84.6685 24.481 84.2959 23.6339 84.2959 22.539C84.2959 22.2518 84.3228 21.9544 84.3766 21.6465C84.505 20.9772 84.7368 20.3636 85.0701 19.8058C85.4055 19.248 85.8236 18.7729 86.3225 18.3803C86.8235 17.9878 87.3783 17.6841 87.9911 17.4713C88.6038 17.2586 89.2435 17.1532 89.9142 17.1532C91.2225 17.1532 92.239 17.5065 92.9635 18.213C93.688 18.9195 94.0482 19.8719 94.0482 21.0722C94.0482 21.4647 94.0048 21.88 93.9199 22.3159H87.5832V22.318ZM90.9037 20.6301C90.9037 20.6095 90.9037 20.5723 90.9037 20.5186C90.9141 20.4648 90.9203 20.4277 90.9203 20.407C90.9203 20.0682 90.8023 19.7769 90.5684 19.5393C90.3344 19.2997 90.0426 19.1798 89.6906 19.1798C89.2 19.1798 88.7963 19.31 88.4775 19.5703C88.1587 19.8306 87.9621 20.1839 87.8876 20.6301H90.9037Z" fill="#1351D8"></path><path d="M94.7188 25.7432L96.7454 14.2712H102.285C103.711 14.2712 104.784 14.5398 105.502 15.0749C106.22 15.612 106.581 16.3681 106.581 17.3453C106.581 17.5994 106.554 17.8659 106.5 18.1427C106.276 19.4174 105.709 20.407 104.8 21.1135C103.889 21.82 102.631 22.1733 101.024 22.1733H99.124L98.4864 25.7432H94.7188ZM101.153 19.498C101.621 19.498 102.01 19.3926 102.318 19.1798C102.627 18.967 102.823 18.6282 102.908 18.1593C102.908 18.1283 102.914 18.0911 102.925 18.0477C102.925 17.994 102.925 17.9568 102.925 17.9362C102.925 17.7337 102.869 17.5664 102.757 17.4341C102.645 17.3019 102.498 17.2007 102.318 17.1304C102.136 17.0623 101.948 17.0148 101.751 16.9879C101.554 16.961 101.339 16.9486 101.105 16.9486H100.035L99.5877 19.498H101.153Z" fill="#1351D8"></path><path d="M112.025 25.7432V24.8507C111.503 25.2639 110.98 25.5573 110.452 25.7267C109.926 25.8961 109.332 25.9808 108.672 25.9808C107.916 25.9808 107.295 25.8114 106.813 25.4705C106.328 25.1317 106.086 24.6256 106.086 23.9562C106.086 23.8075 106.102 23.6422 106.134 23.4625C106.229 22.9212 106.425 22.475 106.724 22.1237C107.022 21.7725 107.376 21.5019 107.786 21.3119C108.195 21.1197 108.614 20.9854 109.038 20.9049C109.464 20.8243 109.974 20.7479 110.57 20.6735C111.294 20.5888 111.822 20.4958 112.158 20.3946C112.493 20.2934 112.681 20.1054 112.725 19.8285C112.725 19.8079 112.731 19.7851 112.741 19.7645C112.741 19.7438 112.741 19.7273 112.741 19.717C112.741 19.4939 112.64 19.343 112.437 19.2625C112.234 19.1819 112.011 19.1427 111.766 19.1427C111.468 19.1427 111.199 19.1984 110.961 19.31C110.721 19.4216 110.553 19.6364 110.458 19.9546H107.266C107.425 19.0311 107.91 18.3328 108.719 17.8597C109.529 17.3866 110.731 17.1511 112.327 17.1511C113.062 17.1511 113.677 17.2007 114.172 17.3019C114.667 17.4032 115.05 17.5457 115.321 17.7316C115.592 17.9176 115.784 18.1407 115.896 18.401C116.008 18.6613 116.064 18.9671 116.064 19.3162C116.064 19.624 116.016 20.0537 115.921 20.6074L115.234 24.5099C115.19 24.7123 115.17 24.8549 115.17 24.9396C115.17 25.1627 115.275 25.3755 115.488 25.5759L115.457 25.7349H112.025V25.7432ZM111.793 23.5368C112.098 23.1608 112.28 22.663 112.344 22.0473C112.067 22.1651 111.657 22.2808 111.114 22.3985C110.624 22.5039 110.259 22.6196 110.021 22.7415C109.781 22.8633 109.636 23.0844 109.582 23.4025C109.582 23.4232 109.582 23.4397 109.582 23.4501L109.566 23.5141C109.566 23.6959 109.651 23.8384 109.82 23.9438C109.99 24.0492 110.22 24.1029 110.508 24.1029C111.063 24.1029 111.491 23.9149 111.793 23.5368Z" fill="#1351D8"></path><path d="M121.444 22.5411L123.806 17.3949H126.998L122.943 25.1854C122.55 25.9395 122.229 26.5138 121.984 26.9063C121.74 27.2988 121.459 27.6211 121.138 27.8711C120.819 28.1211 120.428 28.3008 119.964 28.4124C119.5 28.5239 118.902 28.5797 118.167 28.5797C117.9 28.5797 117.561 28.5632 117.144 28.5322C116.931 28.5218 116.782 28.5156 116.697 28.5156L117.111 26.206C117.217 26.206 117.335 26.2122 117.463 26.2225C117.643 26.2225 117.755 26.2225 117.799 26.2225C118.235 26.2225 118.544 26.1647 118.724 26.0469C118.904 25.9291 118.995 25.7226 118.995 25.4251C118.995 25.3073 118.979 25.1648 118.948 24.9954L117.542 17.3949H120.879L121.444 22.5411Z" fill="#1351D8"></path></g><defs><clipPath id="clip0_2212_17819"><rect width="127" height="40" fill="white"></rect></clipPath></defs></svg>