<svg xmlns="http://www.w3.org/2000/svg" width="129" height="40" viewBox="0 0 129 40" fill="none"><g clip-path="url(#clip0_2212_17783)"><path d="M0.943136 23.043H3.14379C3.66347 23.043 4.08692 23.4659 4.08692 23.9897V24.5521C4.08692 25.0738 3.66561 25.4988 3.14379 25.4988H0.943136C0.423449 25.4988 0 25.0759 0 24.5521V23.9897C0 23.4659 0.42131 23.043 0.943136 23.043Z" fill="#020B1D"></path><path d="M4.45491 32.9158H5.71456C6.22997 32.9158 6.64701 33.3344 6.64701 33.8517V34.4099C6.64701 34.9273 6.22997 35.3459 5.71456 35.3459H4.45491C3.9395 35.3459 3.52247 34.9273 3.52247 34.4099V33.8517C3.52033 33.3344 3.9395 32.9158 4.45491 32.9158Z" fill="#020B1D"></path><path d="M21.8525 0L23.5399 5.01047L25.9673 5.53427L25.6657 4.54463C25.6657 4.54463 53.0231 10.4675 35.2425 20.9328C35.2425 20.9328 60.8162 10.9075 21.8525 0Z" fill="#020B1D"></path><path d="M16.7627 5.047L25.1312 18.449C25.1312 18.449 37.903 14.7137 37.2679 18.5435C37.625 17.6504 37.6421 16.839 36.8658 16.4375C35.3217 15.6347 33.0077 15.8687 30.8819 16.1821C28.5359 16.5277 26.4421 17.0021 26.4421 17.0021L20.8817 7.48568C20.8817 7.48568 42.7877 7.86351 38.303 17.5453C38.3051 17.5474 46.2309 7.20231 16.7627 5.047Z" fill="#020B1D"></path><path d="M15.6674 30.3354H18.7085C19.3479 30.3354 19.8655 30.8549 19.8655 31.4968V31.5934C19.8655 32.2353 19.3479 32.7548 18.7085 32.7548H10.0128H8.72323C8.08378 32.7548 7.56624 33.2743 7.56624 33.9161V34.0128C7.56624 34.6546 8.08378 35.1741 8.72323 35.1741H10.8704H13.4795C14.119 35.1741 14.6365 35.6936 14.6365 36.3355V36.4321C14.6365 37.074 14.119 37.5935 13.4795 37.5935H11.7259H7.902C7.26255 37.5935 6.745 38.113 6.745 38.7549V38.8515C6.745 39.444 7.1877 39.9313 7.75657 40.0021H25.0773C30.6271 40.0021 35.9138 37.4518 39.2415 32.9952C42.1115 29.1526 43.801 24.3718 43.769 19.196L43.754 16.6285C40.3429 20.5871 35.3941 22.8777 30.178 22.9099L6.25953 23.0816C5.62008 23.0816 5.10253 23.6011 5.10253 24.243V24.3396C5.10253 24.9815 5.62008 25.501 6.25953 25.501H7.44006H14.4676C15.107 25.501 15.6246 26.0205 15.6246 26.6623V26.759C15.6246 27.4008 15.107 27.9203 14.4676 27.9203H8.29979H5.06618C4.42673 27.9203 3.90918 28.4398 3.90918 29.0817V29.1783C3.90918 29.8202 4.42673 30.3397 5.06618 30.3397H9.15738H15.6674V30.3354Z" fill="#164333"></path><path d="M48.2349 18.2751H52.7538C55.1426 18.2751 56.9198 18.771 58.0854 19.7607C59.2509 20.7525 59.8348 22.2638 59.8348 24.2967C59.8348 25.4667 59.6316 26.5486 59.2274 27.5426C58.8232 28.5365 58.2522 29.3544 57.5122 29.992C56.7552 30.6575 55.8655 31.1405 54.8475 31.4453C53.8274 31.7502 52.557 31.9004 51.0343 31.9004H45.3584L48.2349 18.2751ZM51.3872 20.9027L49.6185 29.2084H51.1477C51.9497 29.2084 52.6233 29.1183 53.1687 28.9358C53.714 28.7533 54.1867 28.4614 54.5866 28.0578C55.0763 27.5662 55.457 26.978 55.7286 26.2975C56.0002 25.617 56.135 24.9107 56.135 24.1829C56.135 23.1418 55.842 22.3346 55.256 21.7614C54.67 21.1883 53.8359 20.9027 52.7516 20.9027H51.3872Z" fill="#1351D8"></path><path d="M71.2418 26.4843L70.6601 29.3523C70.5317 29.9405 70.4376 30.4235 70.3778 30.8013C70.3179 31.1792 70.2751 31.5463 70.2495 31.9048H67.3345L67.5248 30.3699C67.1356 30.9452 66.648 31.381 66.0642 31.6794C65.4782 31.9756 64.8024 32.1259 64.0389 32.1259C63.0187 32.1259 62.2039 31.8511 61.5923 31.3015C60.9806 30.752 60.6748 30.0221 60.6748 29.114C60.6748 27.9569 61.1945 27.0553 62.2317 26.4091C63.269 25.763 64.7297 25.441 66.6074 25.441C66.8298 25.441 67.0757 25.4496 67.3431 25.4646C67.6104 25.4796 67.9076 25.5054 68.2327 25.5354C68.2391 25.4968 68.2434 25.4538 68.2477 25.4066C68.2498 25.3594 68.252 25.2928 68.252 25.2091C68.252 24.6918 68.0873 24.2989 67.7558 24.0349C67.4243 23.7687 66.9431 23.6377 66.3122 23.6377C65.7263 23.6377 65.1595 23.7021 64.612 23.8288C64.0645 23.9576 63.5363 24.1486 63.0252 24.4041L63.4358 22.0448C63.9897 21.8473 64.5414 21.6971 65.0932 21.5983C65.645 21.4996 66.2074 21.4502 66.7806 21.4502C68.252 21.4502 69.4004 21.7357 70.2259 22.3089C71.0514 22.8821 71.4642 23.6699 71.4642 24.6724C71.4642 24.9021 71.4449 25.1705 71.4065 25.4775C71.3658 25.7844 71.3123 26.1193 71.2418 26.4843ZM67.82 27.2893C67.6916 27.2764 67.5612 27.2678 67.4243 27.2614C67.2874 27.255 67.0843 27.2528 66.8169 27.2528C65.8866 27.2528 65.1788 27.3859 64.6912 27.6499C64.2035 27.9161 63.9597 28.3047 63.9597 28.8156C63.9597 29.1548 64.0795 29.4296 64.319 29.64C64.5586 29.8503 64.8687 29.9555 65.2515 29.9555C65.8952 29.9555 66.4534 29.713 66.9282 29.2256C67.4029 28.7405 67.7002 28.0943 67.82 27.2893Z" fill="#1351D8"></path><path d="M79.5745 18.4276L78.8581 21.8044H81.3432L80.8278 24.2216H78.3427L77.5984 27.7423C77.5535 27.9398 77.5193 28.1158 77.4979 28.2704C77.4765 28.4228 77.4637 28.543 77.4637 28.6246C77.4637 28.996 77.5492 29.2622 77.7225 29.4253C77.8936 29.5885 78.1759 29.67 78.563 29.67C78.7105 29.67 78.8816 29.6529 79.0784 29.6164C79.2751 29.582 79.489 29.5326 79.7178 29.4682L79.2024 31.8855C78.7747 31.9563 78.4047 32.0078 78.0903 32.0443C77.7759 32.0787 77.5022 32.098 77.2734 32.098C76.2233 32.098 75.4106 31.8318 74.8417 31.2973C74.2707 30.7627 73.9863 30.0114 73.9863 29.0389C73.9863 28.8736 73.9948 28.7083 74.0098 28.5451C74.0248 28.382 74.0504 28.2103 74.0804 28.0321L74.8824 24.2238H72.8271L73.334 21.8066H75.3892L75.8961 19.4087L79.5745 18.4276Z" fill="#1351D8"></path><path d="M91.8414 26.4843L91.2597 29.3523C91.1314 29.9405 91.0373 30.4235 90.9774 30.8013C90.9175 31.1792 90.8747 31.5463 90.8491 31.9048H87.9341L88.1244 30.3699C87.7352 30.9452 87.2476 31.381 86.6638 31.6794C86.0778 31.9756 85.402 32.1259 84.6385 32.1259C83.6184 32.1259 82.8035 31.8511 82.1919 31.3015C81.5802 30.752 81.2744 30.0221 81.2744 29.114C81.2744 27.9569 81.7941 27.0553 82.8313 26.4091C83.8686 25.763 85.3293 25.441 87.207 25.441C87.4294 25.441 87.6753 25.4496 87.9427 25.4646C88.21 25.4796 88.5073 25.5054 88.8323 25.5354C88.8387 25.4968 88.843 25.4538 88.8473 25.4066C88.8494 25.3594 88.8516 25.2928 88.8516 25.2091C88.8516 24.6918 88.6869 24.2989 88.3554 24.0349C88.0239 23.7687 87.5427 23.6377 86.9118 23.6377C86.3259 23.6377 85.7591 23.7021 85.2116 23.8288C84.6641 23.9576 84.1359 24.1486 83.6248 24.4041L84.0354 22.0448C84.5893 21.8473 85.1411 21.6971 85.6928 21.5983C86.2446 21.4996 86.807 21.4502 87.3802 21.4502C88.8516 21.4502 90 21.7357 90.8255 22.3089C91.651 22.8821 92.0638 23.6699 92.0638 24.6724C92.0638 24.9021 92.0446 25.1705 92.0061 25.4775C91.9654 25.7844 91.912 26.1193 91.8414 26.4843ZM88.4217 27.2893C88.2934 27.2764 88.1629 27.2678 88.0261 27.2614C87.8892 27.255 87.686 27.2528 87.4187 27.2528C86.4884 27.2528 85.7805 27.3859 85.2929 27.6499C84.8053 27.9161 84.5615 28.3047 84.5615 28.8156C84.5615 29.1548 84.6812 29.4296 84.9208 29.64C85.1603 29.8503 85.4704 29.9555 85.8532 29.9555C86.4969 29.9555 87.0551 29.713 87.5299 29.2256C88.0025 28.7405 88.2998 28.0943 88.4217 27.2893Z" fill="#1351D8"></path><path d="M95.9118 18.2751H99.9239C101.836 18.2751 103.241 18.5735 104.141 19.1725C105.042 19.7714 105.493 20.7031 105.493 21.9675C105.493 23.5282 104.973 24.7561 103.936 25.6513C102.897 26.5465 101.468 26.993 99.6458 26.993C99.4234 26.993 99.1497 26.9887 98.8289 26.978C98.5081 26.9694 98.136 26.9544 97.7147 26.9351L96.6347 31.9026H93.0332L95.9118 18.2751ZM98.9978 20.7289L98.2429 24.3826H99.1989C100.071 24.3826 100.749 24.2023 101.235 23.8416C101.718 23.481 101.962 22.9808 101.962 22.3411C101.962 21.8172 101.78 21.418 101.417 21.1432C101.053 20.8684 100.527 20.731 99.8405 20.731H98.9978V20.7289Z" fill="#1351D8"></path><path d="M115.461 26.4843L114.879 29.3523C114.75 29.9405 114.656 30.4235 114.597 30.8013C114.537 31.1792 114.494 31.5463 114.468 31.9048H111.553L111.744 30.3699C111.354 30.9452 110.867 31.381 110.283 31.6794C109.697 31.9756 109.021 32.1259 108.258 32.1259C107.237 32.1259 106.423 31.8511 105.811 31.3015C105.199 30.752 104.894 30.0221 104.894 29.114C104.894 27.9569 105.413 27.0553 106.45 26.4091C107.488 25.763 108.948 25.441 110.826 25.441C111.049 25.441 111.294 25.4496 111.562 25.4646C111.829 25.4796 112.126 25.5054 112.451 25.5354C112.458 25.4968 112.462 25.4538 112.466 25.4066C112.469 25.3594 112.471 25.2928 112.471 25.2091C112.471 24.6918 112.306 24.2989 111.975 24.0349C111.643 23.7687 111.162 23.6377 110.531 23.6377C109.945 23.6377 109.378 23.7021 108.831 23.8288C108.283 23.9576 107.755 24.1486 107.244 24.4041L107.655 22.0448C108.208 21.8473 108.76 21.6971 109.312 21.5983C109.864 21.4996 110.426 21.4502 110.999 21.4502C112.471 21.4502 113.619 21.7357 114.445 22.3089C115.27 22.8821 115.683 23.6699 115.683 24.6724C115.683 24.9021 115.664 25.1705 115.625 25.4775C115.585 25.7844 115.531 26.1193 115.461 26.4843ZM112.039 27.2893C111.91 27.2764 111.78 27.2678 111.643 27.2614C111.506 27.255 111.303 27.2528 111.036 27.2528C110.105 27.2528 109.398 27.3859 108.91 27.6499C108.422 27.9161 108.178 28.3047 108.178 28.8156C108.178 29.1548 108.298 29.4296 108.538 29.64C108.777 29.8503 109.087 29.9555 109.47 29.9555C110.114 29.9555 110.672 29.713 111.147 29.2256C111.622 28.7405 111.919 28.0943 112.039 27.2893Z" fill="#1351D8"></path><path d="M117.439 21.8043H120.936L121.547 25.8702V25.9089C121.699 26.9586 121.806 27.856 121.862 28.603C122.039 28.1694 122.213 27.7679 122.377 27.4051C122.542 27.0402 122.696 26.7268 122.835 26.4649L125.339 21.8043H128.998L122.54 32.9201C121.806 34.1802 121.096 35.0432 120.41 35.509C119.721 35.9749 118.861 36.2089 117.83 36.2089C117.448 36.2089 117.037 36.1659 116.599 36.0801C116.16 35.9942 115.675 35.8632 115.146 35.6915L115.968 33.2357C116.235 33.358 116.49 33.446 116.731 33.504C116.973 33.562 117.208 33.5899 117.439 33.5899C117.967 33.5899 118.421 33.4546 118.795 33.1863C119.171 32.9179 119.467 32.5144 119.685 31.9777L117.439 21.8043Z" fill="#1351D8"></path></g><defs><clipPath id="clip0_2212_17783"><rect width="129" height="40" fill="white"></rect></clipPath></defs></svg>