<svg xmlns="http://www.w3.org/2000/svg" width="157" height="40" viewBox="0 0 157 40" fill="none"><g clip-path="url(#clip0_2212_5467)"><path d="M44.6924 0H57.2121L50.2469 16.4695L36.801 16.5534C32.2903 16.5821 28.0123 18.553 25.0611 21.9601L25.0467 19.7494C24.982 8.86172 33.7971 0 44.6924 0Z" fill="#164333"></path><path d="M37.84 18.0423C34.8888 21.4518 30.6108 23.4226 26.1001 23.449L5.41549 23.5977C4.86364 23.5977 4.41497 24.046 4.41497 24.5975V24.679C4.41497 25.2305 4.86364 25.6788 5.41549 25.6788H6.4376H12.5151C13.0669 25.6788 13.5156 26.1272 13.5156 26.6786V26.7602C13.5156 27.3116 13.0669 27.76 12.5151 27.76H7.17899H4.38138C3.82953 27.76 3.38086 28.2083 3.38086 28.7598V28.8413C3.38086 29.3928 3.82953 29.8411 4.38138 29.8411H7.91799H13.5492H16.1789C16.7307 29.8411 17.1794 30.2895 17.1794 30.841V30.9225C17.1794 31.4739 16.7307 31.9223 16.1789 31.9223H8.65938H7.54369C6.99185 31.9223 6.54317 32.3707 6.54317 32.9221V33.0036C6.54317 33.5551 6.99185 34.0035 7.54369 34.0035H9.40077H11.6585C12.2104 34.0035 12.6591 34.4518 12.6591 35.0033V35.0848C12.6591 35.6363 12.2104 36.0846 11.6585 36.0846H10.1422H6.83589C6.28405 36.0846 5.83537 36.533 5.83537 37.0844V37.166C5.83537 37.7174 6.28405 38.1658 6.83589 38.1658H10.8836H16.0037H17.2442C17.796 38.1658 18.2447 38.6141 18.2447 39.1656V39.2471C18.2447 39.5444 18.1127 39.8082 17.9064 39.9928H18.2111C29.1065 39.9928 37.9216 31.1311 37.8544 20.2433L37.84 18.0423Z" fill="#1351D8"></path><path d="M1.0581 23.5665H2.47611C3.05914 23.5665 3.53421 24.0389 3.53421 24.6239C3.53421 25.2065 3.06154 25.6813 2.47611 25.6813H1.0581C0.475067 25.6813 0 25.2089 0 24.6239C0 24.0389 0.472667 23.5665 1.0581 23.5665Z" fill="#1351D8"></path><path d="M4.09103 32.0662H4.70046C5.2787 32.0662 5.74657 32.5337 5.74657 33.1115C5.74657 33.6894 5.2787 34.1569 4.70046 34.1569H4.09103C3.51279 34.1569 3.04492 33.6894 3.04492 33.1115C3.04492 32.5337 3.51279 32.0662 4.09103 32.0662Z" fill="#1351D8"></path><path d="M59.2516 19.2771L58.3039 22.2549C57.7448 22.0032 57.1762 21.8162 56.6028 21.6891C56.0293 21.5644 55.4391 21.4997 54.8369 21.4997C53.9251 21.4997 53.2269 21.634 52.7422 21.9025C52.2576 22.171 52.0152 22.5594 52.0152 23.0701C52.0152 23.6216 52.5599 24.1251 53.6516 24.5759C54.0883 24.7557 54.4338 24.9067 54.6857 25.0266C55.9549 25.6428 56.8211 26.247 57.2794 26.8345C57.7376 27.4219 57.968 28.1723 57.968 29.0835C57.968 30.7546 57.3298 32.0877 56.0509 33.0803C54.7745 34.073 53.0398 34.5693 50.8516 34.5693C49.9254 34.5693 49.0377 34.4997 48.1883 34.3583C47.339 34.2192 46.5184 34.0082 45.729 33.7301L46.612 30.5772C47.2502 30.8937 47.8692 31.1286 48.469 31.2869C49.0689 31.4451 49.6543 31.5243 50.2301 31.5243C51.2787 31.5243 52.104 31.3516 52.7062 31.0088C53.3085 30.6635 53.6108 30.1984 53.6108 29.6109C53.6108 28.8725 52.8094 28.1843 51.2091 27.5466C50.806 27.3883 50.4941 27.2636 50.2733 27.1701C49.4048 26.8033 48.7594 26.3238 48.3347 25.7291C47.91 25.1345 47.6989 24.4176 47.6989 23.5784C47.6989 22.1015 48.2915 20.9027 49.4744 19.9796C50.6596 19.0589 52.212 18.5961 54.1362 18.5961C55.2064 18.5961 56.1733 18.6537 57.037 18.7688C57.9056 18.8862 58.6422 19.0541 59.2516 19.2771Z" fill="#020B1D"></path><path d="M63.8605 32.3251L62.4713 38.8228H58.498L61.9099 22.7825H65.4633L65.0218 24.7845C65.5737 24.0532 66.1999 23.5018 66.8957 23.1277C67.5915 22.7537 68.3497 22.5691 69.1679 22.5691C70.5235 22.5691 71.6032 23.0246 72.4022 23.9358C73.2035 24.8469 73.6018 26.0793 73.6018 27.6353C73.6018 29.6781 73.0452 31.3397 71.9343 32.6152C70.821 33.8908 69.379 34.531 67.6059 34.531C66.7733 34.531 66.0367 34.3416 65.3937 33.9603C64.7507 33.5815 64.2396 33.0348 63.8605 32.3251ZM69.5446 27.7864C69.5446 27.0911 69.367 26.5396 69.0119 26.1296C68.6568 25.7196 68.1817 25.5158 67.5867 25.5158C66.7829 25.5158 66.0847 25.8826 65.4921 26.6139C64.8995 27.3452 64.6043 28.2132 64.6043 29.2178C64.6043 29.9491 64.7939 30.5317 65.1754 30.9657C65.5545 31.3996 66.0655 31.6154 66.7038 31.6154C67.4859 31.6154 68.1553 31.2414 68.712 30.4957C69.2662 29.7501 69.5446 28.8461 69.5446 27.7864Z" fill="#020B1D"></path><path d="M86.6711 29.5702H78.5446C78.6166 30.4022 78.8901 31.016 79.3628 31.414C79.8355 31.812 80.5337 32.011 81.4502 32.011C82.074 32.011 82.7147 31.9367 83.3721 31.7904C84.0295 31.6442 84.6725 31.4308 85.3035 31.1502L84.862 33.9483C84.1878 34.1641 83.4992 34.3247 82.7962 34.4326C82.0932 34.5405 81.3854 34.5933 80.6752 34.5933C78.9237 34.5933 77.5393 34.1161 76.5196 33.1619C75.4999 32.2076 74.9912 30.9129 74.9912 29.2777C74.9912 28.3594 75.1736 27.4531 75.5407 26.5611C75.9078 25.6692 76.3972 24.914 77.0162 24.2978C77.6185 23.7103 78.3455 23.2668 79.1972 22.9695C80.0466 22.6722 81.0039 22.5235 82.0668 22.5235C83.6312 22.5235 84.8357 22.9479 85.6778 23.7919C86.52 24.6382 86.9423 25.8442 86.9423 27.4075C86.9423 27.7312 86.9207 28.0717 86.8775 28.4337C86.8319 28.7981 86.7647 29.177 86.6711 29.5702ZM83.6456 27.3883C83.6672 27.2445 83.6816 27.1366 83.6888 27.0599C83.696 26.9855 83.6984 26.9184 83.6984 26.8608C83.6984 26.2303 83.5184 25.7316 83.1609 25.3647C82.801 24.9979 82.3212 24.8157 81.7189 24.8157C81.1023 24.8157 80.5553 25.0434 80.0826 25.499C79.6099 25.9545 79.2644 26.5827 79.0485 27.3859H83.6456V27.3883Z" fill="#020B1D"></path><path d="M100.138 29.5702H92.0119C92.0839 30.4022 92.3574 31.016 92.8301 31.414C93.3027 31.812 94.0009 32.011 94.9175 32.011C95.5413 32.011 96.1819 31.9367 96.8393 31.7904C97.4968 31.6442 98.1398 31.4308 98.7708 31.1502L98.3293 33.9483C97.6551 34.1641 96.9665 34.3247 96.2635 34.4326C95.5605 34.5405 94.8527 34.5933 94.1425 34.5933C92.391 34.5933 91.0066 34.1161 89.9869 33.1619C88.9672 32.2076 88.4585 30.9129 88.4585 29.2777C88.4585 28.3594 88.6408 27.4531 89.0079 26.5611C89.375 25.6692 89.8645 24.914 90.4835 24.2978C91.0858 23.7103 91.8128 23.2668 92.6645 22.9695C93.5139 22.6722 94.4712 22.5235 95.5341 22.5235C97.0985 22.5235 98.3029 22.9479 99.1451 23.7919C99.9873 24.6382 100.41 25.8442 100.41 27.4075C100.41 27.7312 100.388 28.0717 100.345 28.4337C100.299 28.7981 100.232 29.177 100.138 29.5702ZM97.1129 27.3883C97.1345 27.2445 97.1489 27.1366 97.1561 27.0599C97.1633 26.9855 97.1657 26.9184 97.1657 26.8608C97.1657 26.2303 96.9857 25.7316 96.6282 25.3647C96.2683 24.9979 95.7884 24.8157 95.1862 24.8157C94.5696 24.8157 94.0225 25.0434 93.5499 25.499C93.0772 25.9545 92.7317 26.5827 92.5158 27.3859H97.1129V27.3883Z" fill="#020B1D"></path><path d="M113.239 17.6946H117.135L113.625 34.2192H110.105L110.525 32.3251C109.973 33.0564 109.347 33.6102 108.651 33.9867C107.956 34.3631 107.197 34.5525 106.379 34.5525C105.024 34.5525 103.944 34.0994 103.145 33.1907C102.344 32.2843 101.945 31.0543 101.945 29.5055C101.945 27.4627 102.504 25.7987 103.62 24.5136C104.736 23.2308 106.185 22.5882 107.963 22.5882C108.795 22.5882 109.53 22.7777 110.165 23.1541C110.801 23.5305 111.307 24.0844 111.689 24.8157L113.239 17.6946ZM110.969 27.8295C110.969 27.1414 110.772 26.5827 110.377 26.1559C109.981 25.7292 109.472 25.5158 108.848 25.5158C108.059 25.5158 107.387 25.8898 106.835 26.6403C106.283 27.3907 106.007 28.3162 106.007 29.4215C106.007 30.0737 106.187 30.6036 106.545 31.0088C106.905 31.414 107.377 31.6178 107.965 31.6178C108.783 31.6178 109.489 31.2486 110.081 30.5101C110.672 29.7692 110.969 28.8749 110.969 27.8295Z" fill="#020B1D"></path><path d="M119.719 18.9318H124.24C126.392 18.9318 127.978 19.2675 128.993 19.9388C130.008 20.6102 130.516 21.6556 130.516 23.075C130.516 24.8252 129.931 26.2015 128.763 27.2061C127.592 28.2107 125.982 28.7118 123.928 28.7118C123.676 28.7118 123.369 28.707 123.007 28.6951C122.644 28.6855 122.227 28.6687 121.752 28.6471L120.535 34.2192H116.476L119.719 18.9318ZM123.196 21.6867L122.347 25.7843H123.424C124.408 25.7843 125.171 25.5829 125.718 25.1777C126.262 24.7725 126.536 24.2114 126.536 23.4946C126.536 22.9071 126.332 22.4588 125.922 22.1495C125.514 21.8402 124.921 21.6867 124.146 21.6867H123.196Z" fill="#1351D8"></path><path d="M141.745 28.1412L141.088 31.3588C140.944 32.0182 140.838 32.5601 140.771 32.982C140.704 33.4064 140.654 33.8164 140.625 34.2192H137.343L137.558 32.4977C137.122 33.1427 136.572 33.6318 135.913 33.9651C135.253 34.2984 134.492 34.4662 133.631 34.4662C132.482 34.4662 131.565 34.1569 130.874 33.5407C130.185 32.9245 129.84 32.1069 129.84 31.0879C129.84 29.7908 130.425 28.779 131.594 28.0549C132.765 27.3308 134.408 26.9687 136.524 26.9687C136.776 26.9687 137.052 26.9783 137.352 26.9951C137.654 27.0143 137.988 27.0407 138.353 27.0766C138.36 27.0335 138.365 26.9855 138.369 26.9304C138.374 26.8776 138.374 26.8033 138.374 26.7098C138.374 26.1296 138.187 25.6908 137.815 25.3911C137.441 25.0938 136.901 24.9451 136.191 24.9451C135.531 24.9451 134.893 25.0171 134.274 25.1609C133.657 25.3048 133.06 25.5206 132.486 25.8059L132.949 23.1589C133.573 22.9359 134.197 22.7705 134.816 22.6578C135.437 22.5475 136.071 22.4899 136.716 22.4899C138.374 22.4899 139.667 22.8112 140.596 23.4538C141.525 24.0964 141.99 24.9787 141.99 26.1056C141.99 26.3645 141.968 26.6642 141.925 27.0095C141.884 27.3548 141.824 27.7312 141.745 28.1412ZM137.892 29.0451C137.748 29.0307 137.599 29.0211 137.446 29.0139C137.292 29.0067 137.064 29.0043 136.762 29.0043C135.713 29.0043 134.917 29.153 134.367 29.4503C133.818 29.7476 133.544 30.184 133.544 30.757C133.544 31.1383 133.679 31.4452 133.947 31.6825C134.216 31.9199 134.567 32.0374 134.996 32.0374C135.721 32.0374 136.352 31.764 136.884 31.2198C137.419 30.6731 137.755 29.9466 137.892 29.0451Z" fill="#1351D8"></path><path d="M143.974 22.8903H147.914L148.602 27.4507V27.4938C148.775 28.6711 148.893 29.6781 148.958 30.5173C149.159 30.0305 149.353 29.5822 149.538 29.1722C149.725 28.7646 149.898 28.4121 150.054 28.1172L152.876 22.8879H156.998L149.721 35.3557C148.895 36.7679 148.096 37.7366 147.319 38.2593C146.544 38.782 145.575 39.0457 144.413 39.0457C143.984 39.0457 143.521 38.9978 143.024 38.8994C142.53 38.8035 141.983 38.6573 141.388 38.4631L142.314 35.7082C142.616 35.8448 142.902 35.9455 143.175 36.0103C143.449 36.075 143.713 36.1062 143.972 36.1062C144.567 36.1062 145.078 35.9551 145.5 35.6554C145.922 35.3533 146.258 34.9026 146.501 34.3008L143.974 22.8903Z" fill="#1351D8"></path></g><defs><clipPath id="clip0_2212_5467"><rect width="157" height="40" fill="white"></rect></clipPath></defs></svg>