<svg xmlns="http://www.w3.org/2000/svg" width="127" height="40" viewBox="0 0 127 40" fill="none"><g clip-path="url(#clip0_2212_17833)"><path d="M25.7688 39.185C25.6305 39.0183 23.6073 36.493 25.6532 32.5619C27.0571 29.8637 29.7306 26.1302 33.9649 20.4539L37.1463 22.4873C38.5791 23.4032 38.8372 25.3893 37.681 26.6365L25.9237 39.3538L25.7688 39.185Z" fill="#020B1D"></path><path d="M25.2797 14.2794C25.2074 13.7793 24.9452 13.3347 24.5406 13.0322L21.7205 10.9205C20.8843 10.2928 19.691 10.4616 19.0614 11.2972L7.08105 27.1881L13.0165 31.4711L24.9163 15.6831C25.2218 15.2797 25.3498 14.7795 25.2797 14.2794Z" fill="#020B1D"></path><path d="M35.1172 16.7698C36.8844 14.4153 36.4591 11.0893 34.1593 9.24935L24.4664 1.49221C21.4832 -0.893181 17.1147 -0.360122 14.8004 2.67564L0 22.0777L6.04693 26.441L18.0396 10.5316C19.0925 9.13615 21.0868 8.85418 22.4866 9.90178L25.3067 12.0134C25.9838 12.5218 26.4236 13.2627 26.5433 14.1004C26.6631 14.9381 26.4484 15.7716 25.9384 16.4467L14.051 32.2162L24.836 39.998C24.836 39.998 22.0324 36.8346 24.5531 31.9898C26.2047 28.8182 31.5952 21.4644 35.1172 16.7698Z" fill="#164333"></path><path d="M76.5997 27.4165H75.2475L74.304 31.4958H71.457L74.3308 19.0831H79.3125C81.6784 19.0831 83.1421 20.9807 82.5971 23.3394C82.2441 24.8645 80.9992 26.2475 79.4694 26.9391L81.0652 31.4958H78.0056L76.5997 27.4165ZM75.8235 24.9344H77.9582C78.7406 24.9344 79.5416 24.2429 79.7501 23.3394C79.9587 22.4358 79.4797 21.7443 78.6972 21.7443H76.5626L75.8235 24.9344Z" fill="#1351D8"></path><path d="M93.0436 22.6293L90.9894 31.4958H88.32L88.5141 30.6622C87.7709 31.3352 86.8047 31.7427 85.6135 31.7427C83.2827 31.7427 81.8334 29.7031 82.4465 27.0625C83.0576 24.4199 85.4525 22.3802 87.7833 22.3802C88.9745 22.3802 89.7528 22.7878 90.1843 23.4628L90.3784 22.6293H93.0436ZM89.3482 27.0625C89.6558 25.733 88.96 24.8994 87.7317 24.8994C86.5033 24.8994 85.4215 25.733 85.1139 27.0625C84.8063 28.3921 85.502 29.2256 86.7304 29.2256C87.9588 29.2256 89.0406 28.3921 89.3482 27.0625Z" fill="#1351D8"></path><path d="M103.544 27.0625C102.933 29.7052 100.538 31.7428 98.2069 31.7428C97.0156 31.7428 96.2373 31.3353 95.8058 30.6622L95.6118 31.4958H92.9424L95.8162 19.0831H98.4856L97.474 23.4629C98.2172 22.7898 99.1834 22.3803 100.375 22.3803C102.707 22.3803 104.157 24.4199 103.544 27.0625ZM100.876 27.0625C101.184 25.733 100.488 24.8994 99.2598 24.8994C98.0314 24.8994 96.9496 25.733 96.642 27.0625C96.3344 28.3921 97.0301 29.2257 98.2585 29.2257C99.4848 29.2257 100.567 28.3921 100.876 27.0625Z" fill="#1351D8"></path><path d="M114.626 27.0625C114.015 29.7052 111.62 31.7428 109.289 31.7428C108.098 31.7428 107.319 31.3353 106.888 30.6622L106.694 31.4958H104.024L106.898 19.0831H109.568L108.556 23.4629C109.299 22.7898 110.265 22.3803 111.457 22.3803C113.79 22.3803 115.239 24.4199 114.626 27.0625ZM111.958 27.0625C112.266 25.733 111.57 24.8994 110.342 24.8994C109.113 24.8994 108.032 25.733 107.724 27.0625C107.416 28.3921 108.112 29.2257 109.341 29.2257C110.569 29.2257 111.649 28.3921 111.958 27.0625Z" fill="#1351D8"></path><path d="M117.164 22.6293H119.833L117.779 31.4958H115.109L117.164 22.6293ZM117.446 20.2542C117.647 19.3857 118.545 18.6592 119.418 18.6592C120.289 18.6592 120.851 19.3857 120.651 20.2542C120.448 21.1228 119.552 21.8493 118.679 21.8493C117.808 21.8493 117.246 21.1228 117.446 20.2542Z" fill="#1351D8"></path><path d="M124.576 25.1835L123.85 28.3222C123.672 29.0837 124.314 29.1557 125.505 29.0837L124.946 31.4958C121.376 31.8498 120.604 30.8043 121.18 28.3222L121.907 25.1835H120.484L121.075 22.6293H122.497L122.887 20.9458L125.741 20.1472L125.167 22.6293H127L126.41 25.1835H124.576Z" fill="#1351D8"></path><path d="M51.3279 22.6849C50.7808 25.0436 48.4396 26.9412 45.9829 26.9412H44.1145L43.2102 30.8414H40.3633L43.2371 18.4287H47.9524C50.4092 18.4287 51.8729 20.3263 51.3279 22.6849ZM48.4809 22.6849C48.6894 21.7814 48.2105 21.0899 47.3392 21.0899H45.4709L44.7318 24.2821H46.6001C47.4714 24.28 48.2703 23.5885 48.4809 22.6849Z" fill="#1351D8"></path><path d="M61.4167 21.9749L59.3625 30.8413H56.6931L56.8872 30.0078C56.1439 30.6808 55.1777 31.0883 53.9865 31.0883C51.6557 31.0883 50.2064 29.0487 50.8196 26.4081C51.4307 23.7654 53.8255 21.7258 56.1563 21.7258C57.3475 21.7258 58.1259 22.1333 58.5573 22.8084L58.7514 21.9749H61.4167ZM57.7212 26.4081C58.0288 25.0785 57.3331 24.245 56.1047 24.245C54.8763 24.245 53.7945 25.0785 53.4869 26.4081C53.1793 27.7377 53.875 28.5712 55.1034 28.5712C56.3318 28.5712 57.4136 27.7377 57.7212 26.4081Z" fill="#1351D8"></path><path d="M71.8241 21.9749L66.7908 30.5758C65.1413 33.3955 63.2998 34.511 60.8389 34.3875L61.4128 31.9054C62.6577 31.9054 63.3349 31.5143 63.9769 30.4338L62.3955 21.9749H65.3312L66.0497 27.4001L68.9792 21.9749H71.8241Z" fill="#1351D8"></path></g><defs><clipPath id="clip0_2212_17833"><rect width="127" height="40" fill="white"></rect></clipPath></defs></svg>