<svg xmlns="http://www.w3.org/2000/svg" width="17" height="20" viewBox="0 0 17 20" fill="none"><path d="M12.0014 0C12.0479 0 12.0945 0 12.1437 0C12.2578 1.41046 11.7195 2.46435 11.0652 3.22755C10.4232 3.98547 9.54407 4.72056 8.1222 4.60902C8.02735 3.21876 8.56659 2.24304 9.22 1.4816C9.82599 0.771976 10.937 0.140519 12.0014 0Z" fill="#020B1D"></path><path d="M16.3055 14.6801C16.3055 14.6942 16.3055 14.7065 16.3055 14.7196C15.9059 15.9299 15.3359 16.9671 14.6403 17.9296C14.0054 18.8035 13.2272 19.9794 11.8379 19.9794C10.6373 19.9794 9.83985 19.2075 8.60943 19.1864C7.30787 19.1653 6.5921 19.8319 5.40208 19.9996C5.26595 19.9996 5.12982 19.9996 4.99633 19.9996C4.12248 19.8732 3.41725 19.1811 2.90347 18.5576C1.3885 16.715 0.217805 14.335 0 11.2892C0 10.9906 0 10.6929 0 10.3943C0.0922156 8.21449 1.15138 6.44219 2.5592 5.58327C3.3022 5.12658 4.3236 4.73752 5.46092 4.91141C5.94835 4.98694 6.44631 5.1538 6.8828 5.31891C7.29645 5.47788 7.81374 5.75979 8.3038 5.74486C8.63577 5.7352 8.96599 5.56219 9.3006 5.44011C10.2807 5.08618 11.2415 4.68043 12.508 4.87101C14.0299 5.10111 15.1102 5.77736 15.7777 6.82071C14.4901 7.64011 13.4723 8.87492 13.6462 10.9836C13.8007 12.899 14.9143 14.0197 16.3055 14.6801Z" fill="#020B1D"></path></svg>