<svg xmlns="http://www.w3.org/2000/svg" width="18" height="19" viewBox="0 0 18 19" fill="none"><path d="M9.375 8.4375L12 5.625L1.8125 0.125C1.75 0.0625 1.625 0.0625 1.4375 0L9.375 8.4375Z" fill="#020B1D"></path><path d="M13.125 12.5L16.8125 10.5C17.25 10.25 17.5 9.875 17.5 9.375C17.5 8.875 17.25 8.4375 16.8125 8.25L13.125 6.25L10.1875 9.375L13.125 12.5Z" fill="#020B1D"></path><path d="M0.25 0.5625C0.0625001 0.75 0 1 0 1.25V17.5C0 17.75 0.0625001 18 0.25 18.25L8.5 9.375L0.25 0.5625Z" fill="#020B1D"></path><path d="M9.375 10.3125L1.4375 18.75C1.5625 18.75 1.6875 18.6875 1.8125 18.625L12 13.125L9.375 10.3125Z" fill="#020B1D"></path></svg>